<svg xmlns="http://www.w3.org/2000/svg" xmlns:xlink="http://www.w3.org/1999/xlink" viewBox="0 0 640 120.01"><defs><style>.cls-1{fill:url(#名称未設定グラデーション_3);}.cls-2{fill:#231815;}.cls-3,.cls-5{fill:none;}.cls-3{stroke:#000;stroke-miterlimit:10;}.cls-4{fill:#606060;}</style><radialGradient id="名称未設定グラデーション_3" cx="116.5" cy="-61.97" r="97.85" gradientTransform="translate(58.22 100.66) rotate(10.07)" gradientUnits="userSpaceOnUse"><stop offset="0" stop-color="#fff"/><stop offset="1" stop-color="#fdefef"/></radialGradient></defs><g id="レイヤー_2" data-name="レイヤー 2"><g id="レイヤー_2-2" data-name="レイヤー 2"><ellipse class="cls-1" cx="183.76" cy="60.01" rx="128.51" ry="51.32" transform="translate(140.4 50.6) rotate(-15.3)"/><path d="M14.1,53.32a1.41,1.41,0,0,1-1.07.51c-.64,0-1.52-.55-2.71-1.67a35.39,35.39,0,0,1-7.16,9.59,2.11,2.11,0,0,1-1.11.51C1,62.26.5,61.67.5,60.51a1.5,1.5,0,0,1,.44-1.15A41.48,41.48,0,0,0,4.6,55.27c.63-.88,1.71-2.67,3.26-5.41a23.92,23.92,0,0,1-2.51-2.79,2.55,2.55,0,0,1-1-.83,3.42,3.42,0,0,1-1.43-2.7c0-1,.59-1.6,1.79-1.6a1.54,1.54,0,0,1,1,.56c.68.76,1.87,2.15,3.62,4.22A26.68,26.68,0,0,0,11,40.79a9.49,9.49,0,0,1-.36-2.54,5.9,5.9,0,0,1,.68-2.91,1.38,1.38,0,0,1,1.35-.79c1.11,0,1.71,1.23,1.71,3.7a24.2,24.2,0,0,1-.76,5.52,24,24,0,0,1-1.91,5.29c.56.48,1.12,1,1.71,1.47.72.64,1.08,1.2,1.08,1.63A1.74,1.74,0,0,1,14.1,53.32Z" transform="translate(149.72)"/><path d="M46,37.69A41.26,41.26,0,0,0,44.8,45.6l.12,2.63c-.08,1.11-.56,1.63-1.51,1.63s-1.51-.56-1.63-1.75a18.11,18.11,0,0,1-.12-2,53.72,53.72,0,0,1,.71-6.72,7.57,7.57,0,0,1-.12-1.15A3.41,3.41,0,0,1,43,35.74a2.17,2.17,0,0,1,1.67-.87,1.42,1.42,0,0,1,1,.51,1.8,1.8,0,0,1,.44,1.24C46.07,36.93,46,37.29,46,37.69ZM57.36,51.57a38,38,0,0,1-9.14,15.62,2.69,2.69,0,0,1-1.79,1c-1,0-1.51-.56-1.51-1.67a1.54,1.54,0,0,1,.51-1.23,33.14,33.14,0,0,0,6.88-9.43,39.25,39.25,0,0,0,2.83-7.55,40.9,40.9,0,0,0,.79-8.39,5.58,5.58,0,0,0-.44-2.15,3.82,3.82,0,0,1-.43-1.67,3.3,3.3,0,0,1,.4-1.79,1.65,1.65,0,0,1,3.06.36,18.93,18.93,0,0,1,.71,5A39.89,39.89,0,0,1,57.36,51.57Z" transform="translate(149.72)"/><path d="M87.31,52.08a.94.94,0,0,1-.88-.43c-.71-1-1.67-2.23-2.94-3.86A2.05,2.05,0,0,1,83,46.36c0-.84.48-1.27,1.43-1.27a2,2,0,0,1,1.56,1c1.86,2.62,2.82,4.13,2.82,4.49A1.3,1.3,0,0,1,87.31,52.08Zm10.61.28a44.51,44.51,0,0,1-4.57,7.56c-1.31,1.63-2.23,2.46-2.7,2.46-1.08,0-1.59-.47-1.59-1.35a2.38,2.38,0,0,1,1.19-1.83A40.26,40.26,0,0,0,95,52c1.87-3.5,2.82-6.12,2.82-7.87a1.9,1.9,0,0,1-.07-.56c0-1,.43-1.47,1.39-1.47s1.51.72,1.51,2.11C100.63,46.08,99.71,48.78,97.92,52.36Zm-4.49-4.09a1.22,1.22,0,0,1-.87.39A1.72,1.72,0,0,1,91,47.79,14.09,14.09,0,0,1,90.17,46a2.55,2.55,0,0,1-.68-1.75,1.22,1.22,0,0,1,1.36-1.39,1.65,1.65,0,0,1,1.11.4,11.69,11.69,0,0,1,1.27,2.1,6,6,0,0,1,.56,2A1.31,1.31,0,0,1,93.43,48.27Z" transform="translate(149.72)"/><path d="M140.47,49.78a1.28,1.28,0,0,1-1,.51,2.11,2.11,0,0,1-1-.31c-.43-.24-.83-.44-1.23-.68-1.11-.52-2.7-1.27-4.69-2.27,0,2.71-.24,7.12-.68,13.33-.16,1.78-.75,2.7-1.83,2.7s-1.63-.6-1.63-1.75a3.46,3.46,0,0,1,.24-.92c.2-1.27.4-4.49.64-9.66s.32-9.42.32-12.88c0-1.12-.08-2.35-.2-3.7a3.91,3.91,0,0,1-.16-.83,1.54,1.54,0,0,1,.44-1.12,1.36,1.36,0,0,1,1-.51A1.69,1.69,0,0,1,132.4,33a31.3,31.3,0,0,1,.28,5.33c0,1.27,0,2.82-.12,4.69a39,39,0,0,0,6.8,3.46,2.26,2.26,0,0,1,1.51,2.1A1.85,1.85,0,0,1,140.47,49.78Z" transform="translate(149.72)"/><path d="M168.71,57.73c-1.63,1.83-3.26,2.7-4.9,2.7-2.14,0-3.57-1.79-4.29-5.36a42.49,42.49,0,0,1-.6-8.28c0-1.51-.12-3.18-.27-5a8.16,8.16,0,0,1-.08-1,1.66,1.66,0,0,1,1.9-1.83c1.08,0,1.63,1.12,1.63,3.26,0,.16,0,.92.05,2.35v2.94a35.74,35.74,0,0,0,.47,6.24c.4,2.07.88,3.07,1.47,3.07s1.08-.4,1.79-1.24a2.63,2.63,0,0,1,1.83-1.19c1,0,1.55.6,1.55,1.79A2.24,2.24,0,0,1,168.71,57.73Zm17.81,0a1.61,1.61,0,0,1-1.83-1.83,9,9,0,0,1,.28-1.75,18.6,18.6,0,0,0,.48-3.78,7.84,7.84,0,0,0-1.87-5.48,4,4,0,0,1-1.39-2.75,1.72,1.72,0,0,1,.55-1.27,2.21,2.21,0,0,1,1.35-.52,2.06,2.06,0,0,1,1.56.84,15.34,15.34,0,0,1,3.18,10C188.83,55.54,188,57.73,186.52,57.73Z" transform="translate(149.72)"/><path d="M220.68,57.93c-.64.64-1.47,1.39-2.47,2.27A9.94,9.94,0,0,1,215.59,62a1.7,1.7,0,0,1-1.15-.44,1.53,1.53,0,0,1,.19-2.31c4.06-2.86,6.09-5.25,6.09-7.2,0-.71-.48-1.31-1.39-1.83a9.85,9.85,0,0,0-4-.67,17.47,17.47,0,0,0-9,2.74,2,2,0,0,1-1.39.8,1.06,1.06,0,0,1-.91-.44,1.4,1.4,0,0,1-.48-1c0-.64.52-1.28,1.59-2a18.11,18.11,0,0,1,10.3-3.1,11.1,11.1,0,0,1,5.45,1.31,4.47,4.47,0,0,1,2.7,4C223.62,53.83,222.63,55.86,220.68,57.93Z" transform="translate(149.72)"/><path d="M242.71,53.4c-1,0-1.59-.72-1.79-2.23-.08-.64-.16-2.55-.2-5.73a1.88,1.88,0,0,1-.79-1.47,7.59,7.59,0,0,1,.63-1.87,2.22,2.22,0,0,1,1.95-1.55,1.13,1.13,0,0,1,.87.56,2.14,2.14,0,0,1,.36,1.23c-.08.64-.12,1.27-.16,1.91-.08,1.27-.12,2.19-.12,2.74a25.64,25.64,0,0,0,.36,4.5C243.82,52.76,243.42,53.4,242.71,53.4Zm26.68,5.05c-1.07,0-1.59-.48-1.59-1.44,0-3.1-1.27-5-3.82-5.68a14,14,0,0,1-3.34,6,8.1,8.1,0,0,1-6.08,2.83,11,11,0,0,1-4.73-.92c-1.87-.75-2.79-2-2.79-3.54,0-2,1.36-3.7,4.06-5.21a21.62,21.62,0,0,1,10.54-2.54c0-1.35-.12-3-.28-4.81a44.14,44.14,0,0,1-5.17.47A19.5,19.5,0,0,1,251.3,43c-.72-.2-1.08-.8-1.08-1.79a1.39,1.39,0,0,1,.48-1,1.52,1.52,0,0,1,1.07-.47,20.78,20.78,0,0,0,4.58.55,38.72,38.72,0,0,0,3.9-.35l-1.16-1.59a2.65,2.65,0,0,1-.63-1.44c0-1,.47-1.55,1.47-1.55a1.71,1.71,0,0,1,1.31.8,25.85,25.85,0,0,1,1.95,3.34c1.59-.32,2.9-.56,3.93-.8,1,0,1.48.56,1.48,1.67s-.84,1.63-2.43,1.87l-1.87.32a36.49,36.49,0,0,1,.24,3.74c0,.24,0,.87,0,1.87a8.67,8.67,0,0,1,4.57,3,8.79,8.79,0,0,1,1.67,5.49C270.74,57.85,270.27,58.45,269.39,58.45ZM252.73,53.2a10.24,10.24,0,0,0-1.59,1.11c-.8.64-1.19,1.11-1.19,1.35s.51.52,1.55.8a9.23,9.23,0,0,0,2.74.44q4.35,0,6.68-5.85A17.89,17.89,0,0,0,252.73,53.2Zm21.71-15.07a3.32,3.32,0,0,1-2.7,1.23,3.38,3.38,0,0,1-2.63-1.15,11.72,11.72,0,0,1-1.51-2.47,4.72,4.72,0,0,1,.16-.83,5.18,5.18,0,0,1,.12-1.36,1.11,1.11,0,0,1,1.11-.63h.52a4.8,4.8,0,0,1,2.35-.72,3.69,3.69,0,0,1,2.54.84,3.09,3.09,0,0,1,1,2.38A4.27,4.27,0,0,1,274.44,38.13Zm-2.5-3.58a2.2,2.2,0,0,0-1.56.91c.48,1.12.88,1.63,1.16,1.63a1,1,0,0,0,.91-.63,2.65,2.65,0,0,0,.4-1.24C272.85,34.79,272.53,34.55,271.94,34.55Z" transform="translate(149.72)"/><path d="M291.58,57.73c-1.63,1.83-3.26,2.7-4.89,2.7-2.15,0-3.58-1.79-4.3-5.36a43.47,43.47,0,0,1-.59-8.28c0-1.51-.12-3.18-.28-5a8.16,8.16,0,0,1-.08-1A1.67,1.67,0,0,1,283.35,39c1.07,0,1.63,1.12,1.63,3.26,0,.16,0,.92,0,2.35v2.94a35.66,35.66,0,0,0,.48,6.24c.39,2.07.87,3.07,1.47,3.07s1.07-.4,1.79-1.24a2.6,2.6,0,0,1,1.83-1.19c1,0,1.55.6,1.55,1.79A2.2,2.2,0,0,1,291.58,57.73Zm17.81,0a1.6,1.6,0,0,1-1.82-1.83,8.76,8.76,0,0,1,.27-1.75,18.6,18.6,0,0,0,.48-3.78,7.84,7.84,0,0,0-1.87-5.48,4,4,0,0,1-1.39-2.75,1.7,1.7,0,0,1,.56-1.27,2.17,2.17,0,0,1,1.35-.52,2,2,0,0,1,1.55.84,15.29,15.29,0,0,1,3.18,10C311.7,55.54,310.91,57.73,309.39,57.73Z" transform="translate(149.72)"/><path d="M336.67,62a1.91,1.91,0,0,1-1.47-.88,2.07,2.07,0,0,1-.83-1.87,1.7,1.7,0,0,1,.67-1.39,1.7,1.7,0,0,1,2.35-.24,2.64,2.64,0,0,1,1,2.47C338.42,61.39,337.83,62,336.67,62Zm3.46-26.33a81.12,81.12,0,0,0-1.91,16c-.08,1.43-.59,2.1-1.59,2.1a1.41,1.41,0,0,1-1.11-.47,1.48,1.48,0,0,1-.44-1.12c0-.24,0-.83.08-1.79s.16-3.1.36-5.88a46.23,46.23,0,0,1,1.11-7.83,2,2,0,0,1-.12-.68,6.32,6.32,0,0,1,.32-1.63,2.61,2.61,0,0,1,.92-1.35,2.09,2.09,0,0,1,1.35-.56,1.29,1.29,0,0,1,1,.56,1.86,1.86,0,0,1,.44,1.15C340.45,34.55,340.29,35.06,340.13,35.7Z" transform="translate(149.72)"/><path class="cls-2" d="M14.1,53.32a1.41,1.41,0,0,1-1.07.51c-.64,0-1.52-.55-2.71-1.67a35.39,35.39,0,0,1-7.16,9.59,2.11,2.11,0,0,1-1.11.51C1,62.26.5,61.67.5,60.51a1.5,1.5,0,0,1,.44-1.15A41.48,41.48,0,0,0,4.6,55.27c.63-.88,1.71-2.67,3.26-5.41a23.92,23.92,0,0,1-2.51-2.79,2.55,2.55,0,0,1-1-.83,3.42,3.42,0,0,1-1.43-2.7c0-1,.59-1.6,1.79-1.6a1.54,1.54,0,0,1,1,.56c.68.76,1.87,2.15,3.62,4.22A26.68,26.68,0,0,0,11,40.79a9.49,9.49,0,0,1-.36-2.54,5.9,5.9,0,0,1,.68-2.91,1.38,1.38,0,0,1,1.35-.79c1.11,0,1.71,1.23,1.71,3.7a24.2,24.2,0,0,1-.76,5.52,24,24,0,0,1-1.91,5.29c.56.48,1.12,1,1.71,1.47.72.64,1.08,1.2,1.08,1.63A1.74,1.74,0,0,1,14.1,53.32Z" transform="translate(149.72)"/><path class="cls-2" d="M46,37.69A41.26,41.26,0,0,0,44.8,45.6l.12,2.63c-.08,1.11-.56,1.63-1.51,1.63s-1.51-.56-1.63-1.75a18.11,18.11,0,0,1-.12-2,53.72,53.72,0,0,1,.71-6.72,7.57,7.57,0,0,1-.12-1.15A3.41,3.41,0,0,1,43,35.74a2.17,2.17,0,0,1,1.67-.87,1.42,1.42,0,0,1,1,.51,1.8,1.8,0,0,1,.44,1.24C46.07,36.93,46,37.29,46,37.69ZM57.36,51.57a38,38,0,0,1-9.14,15.62,2.69,2.69,0,0,1-1.79,1c-1,0-1.51-.56-1.51-1.67a1.54,1.54,0,0,1,.51-1.23,33.14,33.14,0,0,0,6.88-9.43,39.25,39.25,0,0,0,2.83-7.55,40.9,40.9,0,0,0,.79-8.39,5.58,5.58,0,0,0-.44-2.15,3.82,3.82,0,0,1-.43-1.67,3.3,3.3,0,0,1,.4-1.79,1.65,1.65,0,0,1,3.06.36,18.93,18.93,0,0,1,.71,5A39.89,39.89,0,0,1,57.36,51.57Z" transform="translate(149.72)"/><path class="cls-2" d="M87.31,52.08a.94.94,0,0,1-.88-.43c-.71-1-1.67-2.23-2.94-3.86A2.05,2.05,0,0,1,83,46.36c0-.84.48-1.27,1.43-1.27a2,2,0,0,1,1.56,1c1.86,2.62,2.82,4.13,2.82,4.49A1.3,1.3,0,0,1,87.31,52.08Zm10.61.28a44.51,44.51,0,0,1-4.57,7.56c-1.31,1.63-2.23,2.46-2.7,2.46-1.08,0-1.59-.47-1.59-1.35a2.38,2.38,0,0,1,1.19-1.83A40.26,40.26,0,0,0,95,52c1.87-3.5,2.82-6.12,2.82-7.87a1.9,1.9,0,0,1-.07-.56c0-1,.43-1.47,1.39-1.47s1.51.72,1.51,2.11C100.63,46.08,99.71,48.78,97.92,52.36Zm-4.49-4.09a1.22,1.22,0,0,1-.87.39A1.72,1.72,0,0,1,91,47.79,14.09,14.09,0,0,1,90.17,46a2.55,2.55,0,0,1-.68-1.75,1.22,1.22,0,0,1,1.36-1.39,1.65,1.65,0,0,1,1.11.4,11.69,11.69,0,0,1,1.27,2.1,6,6,0,0,1,.56,2A1.31,1.31,0,0,1,93.43,48.27Z" transform="translate(149.72)"/><path class="cls-2" d="M140.47,49.78a1.28,1.28,0,0,1-1,.51,2.11,2.11,0,0,1-1-.31c-.43-.24-.83-.44-1.23-.68-1.11-.52-2.7-1.27-4.69-2.27,0,2.71-.24,7.12-.68,13.33-.16,1.78-.75,2.7-1.83,2.7s-1.63-.6-1.63-1.75a3.46,3.46,0,0,1,.24-.92c.2-1.27.4-4.49.64-9.66s.32-9.42.32-12.88c0-1.12-.08-2.35-.2-3.7a3.91,3.91,0,0,1-.16-.83,1.54,1.54,0,0,1,.44-1.12,1.36,1.36,0,0,1,1-.51A1.69,1.69,0,0,1,132.4,33a31.3,31.3,0,0,1,.28,5.33c0,1.27,0,2.82-.12,4.69a39,39,0,0,0,6.8,3.46,2.26,2.26,0,0,1,1.51,2.1A1.85,1.85,0,0,1,140.47,49.78Z" transform="translate(149.72)"/><path class="cls-2" d="M168.71,57.73c-1.63,1.83-3.26,2.7-4.9,2.7-2.14,0-3.57-1.79-4.29-5.36a42.49,42.49,0,0,1-.6-8.28c0-1.51-.12-3.18-.27-5a8.16,8.16,0,0,1-.08-1,1.66,1.66,0,0,1,1.9-1.83c1.08,0,1.63,1.12,1.63,3.26,0,.16,0,.92.05,2.35v2.94a35.74,35.74,0,0,0,.47,6.24c.4,2.07.88,3.07,1.47,3.07s1.08-.4,1.79-1.24a2.63,2.63,0,0,1,1.83-1.19c1,0,1.55.6,1.55,1.79A2.24,2.24,0,0,1,168.71,57.73Zm17.81,0a1.61,1.61,0,0,1-1.83-1.83,9,9,0,0,1,.28-1.75,18.6,18.6,0,0,0,.48-3.78,7.84,7.84,0,0,0-1.87-5.48,4,4,0,0,1-1.39-2.75,1.72,1.72,0,0,1,.55-1.27,2.21,2.21,0,0,1,1.35-.52,2.06,2.06,0,0,1,1.56.84,15.34,15.34,0,0,1,3.18,10C188.83,55.54,188,57.73,186.52,57.73Z" transform="translate(149.72)"/><path class="cls-2" d="M220.68,57.93c-.64.64-1.47,1.39-2.47,2.27A9.94,9.94,0,0,1,215.59,62a1.7,1.7,0,0,1-1.15-.44,1.53,1.53,0,0,1,.19-2.31c4.06-2.86,6.09-5.25,6.09-7.2,0-.71-.48-1.31-1.39-1.83a9.85,9.85,0,0,0-4-.67,17.47,17.47,0,0,0-9,2.74,2,2,0,0,1-1.39.8,1.06,1.06,0,0,1-.91-.44,1.4,1.4,0,0,1-.48-1c0-.64.52-1.28,1.59-2a18.11,18.11,0,0,1,10.3-3.1,11.1,11.1,0,0,1,5.45,1.31,4.47,4.47,0,0,1,2.7,4C223.62,53.83,222.63,55.86,220.68,57.93Z" transform="translate(149.72)"/><path class="cls-2" d="M242.71,53.4c-1,0-1.59-.72-1.79-2.23-.08-.64-.16-2.55-.2-5.73a1.88,1.88,0,0,1-.79-1.47,7.59,7.59,0,0,1,.63-1.87,2.22,2.22,0,0,1,1.95-1.55,1.13,1.13,0,0,1,.87.56,2.14,2.14,0,0,1,.36,1.23c-.08.64-.12,1.27-.16,1.91-.08,1.27-.12,2.19-.12,2.74a25.64,25.64,0,0,0,.36,4.5C243.82,52.76,243.42,53.4,242.71,53.4Zm26.68,5.05c-1.07,0-1.59-.48-1.59-1.44,0-3.1-1.27-5-3.82-5.68a14,14,0,0,1-3.34,6,8.1,8.1,0,0,1-6.08,2.83,11,11,0,0,1-4.73-.92c-1.87-.75-2.79-2-2.79-3.54,0-2,1.36-3.7,4.06-5.21a21.62,21.62,0,0,1,10.54-2.54c0-1.35-.12-3-.28-4.81a44.14,44.14,0,0,1-5.17.47A19.5,19.5,0,0,1,251.3,43c-.72-.2-1.08-.8-1.08-1.79a1.39,1.39,0,0,1,.48-1,1.52,1.52,0,0,1,1.07-.47,20.78,20.78,0,0,0,4.58.55,38.72,38.72,0,0,0,3.9-.35l-1.16-1.59a2.65,2.65,0,0,1-.63-1.44c0-1,.47-1.55,1.47-1.55a1.71,1.71,0,0,1,1.31.8,25.85,25.85,0,0,1,1.95,3.34c1.59-.32,2.9-.56,3.93-.8,1,0,1.48.56,1.48,1.67s-.84,1.63-2.43,1.87l-1.87.32a36.49,36.49,0,0,1,.24,3.74c0,.24,0,.87,0,1.87a8.67,8.67,0,0,1,4.57,3,8.79,8.79,0,0,1,1.67,5.49C270.74,57.85,270.27,58.45,269.39,58.45ZM252.73,53.2a10.24,10.24,0,0,0-1.59,1.11c-.8.64-1.19,1.11-1.19,1.35s.51.52,1.55.8a9.23,9.23,0,0,0,2.74.44q4.35,0,6.68-5.85A17.89,17.89,0,0,0,252.73,53.2Zm21.71-15.07a3.32,3.32,0,0,1-2.7,1.23,3.38,3.38,0,0,1-2.63-1.15,11.72,11.72,0,0,1-1.51-2.47,4.72,4.72,0,0,1,.16-.83,5.18,5.18,0,0,1,.12-1.36,1.11,1.11,0,0,1,1.11-.63h.52a4.8,4.8,0,0,1,2.35-.72,3.69,3.69,0,0,1,2.54.84,3.09,3.09,0,0,1,1,2.38A4.27,4.27,0,0,1,274.44,38.13Zm-2.5-3.58a2.2,2.2,0,0,0-1.56.91c.48,1.12.88,1.63,1.16,1.63a1,1,0,0,0,.91-.63,2.65,2.65,0,0,0,.4-1.24C272.85,34.79,272.53,34.55,271.94,34.55Z" transform="translate(149.72)"/><path class="cls-2" d="M291.58,57.73c-1.63,1.83-3.26,2.7-4.89,2.7-2.15,0-3.58-1.79-4.3-5.36a43.47,43.47,0,0,1-.59-8.28c0-1.51-.12-3.18-.28-5a8.16,8.16,0,0,1-.08-1A1.67,1.67,0,0,1,283.35,39c1.07,0,1.63,1.12,1.63,3.26,0,.16,0,.92,0,2.35v2.94a35.66,35.66,0,0,0,.48,6.24c.39,2.07.87,3.07,1.47,3.07s1.07-.4,1.79-1.24a2.6,2.6,0,0,1,1.83-1.19c1,0,1.55.6,1.55,1.79A2.2,2.2,0,0,1,291.58,57.73Zm17.81,0a1.6,1.6,0,0,1-1.82-1.83,8.76,8.76,0,0,1,.27-1.75,18.6,18.6,0,0,0,.48-3.78,7.84,7.84,0,0,0-1.87-5.48,4,4,0,0,1-1.39-2.75,1.7,1.7,0,0,1,.56-1.27,2.17,2.17,0,0,1,1.35-.52,2,2,0,0,1,1.55.84,15.29,15.29,0,0,1,3.18,10C311.7,55.54,310.91,57.73,309.39,57.73Z" transform="translate(149.72)"/><path class="cls-2" d="M336.67,62a1.91,1.91,0,0,1-1.47-.88,2.07,2.07,0,0,1-.83-1.87,1.7,1.7,0,0,1,.67-1.39,1.7,1.7,0,0,1,2.35-.24,2.64,2.64,0,0,1,1,2.47C338.42,61.39,337.83,62,336.67,62Zm3.46-26.33a81.12,81.12,0,0,0-1.91,16c-.08,1.43-.59,2.1-1.59,2.1a1.41,1.41,0,0,1-1.11-.47,1.48,1.48,0,0,1-.44-1.12c0-.24,0-.83.08-1.79s.16-3.1.36-5.88a46.23,46.23,0,0,1,1.11-7.83,2,2,0,0,1-.12-.68,6.32,6.32,0,0,1,.32-1.63,2.61,2.61,0,0,1,.92-1.35,2.09,2.09,0,0,1,1.35-.56,1.29,1.29,0,0,1,1,.56,1.86,1.86,0,0,1,.44,1.15C340.45,34.55,340.29,35.06,340.13,35.7Z" transform="translate(149.72)"/><path class="cls-3" d="M14.1,53.32a1.41,1.41,0,0,1-1.07.51c-.64,0-1.52-.55-2.71-1.67a35.39,35.39,0,0,1-7.16,9.59,2.11,2.11,0,0,1-1.11.51C1,62.26.5,61.67.5,60.51a1.5,1.5,0,0,1,.44-1.15A41.48,41.48,0,0,0,4.6,55.27c.63-.88,1.71-2.67,3.26-5.41a23.92,23.92,0,0,1-2.51-2.79,2.55,2.55,0,0,1-1-.83,3.42,3.42,0,0,1-1.43-2.7c0-1,.59-1.6,1.79-1.6a1.54,1.54,0,0,1,1,.56c.68.76,1.87,2.15,3.62,4.22A26.68,26.68,0,0,0,11,40.79a9.49,9.49,0,0,1-.36-2.54,5.9,5.9,0,0,1,.68-2.91,1.38,1.38,0,0,1,1.35-.79c1.11,0,1.71,1.23,1.71,3.7a24.2,24.2,0,0,1-.76,5.52,24,24,0,0,1-1.91,5.29c.56.48,1.12,1,1.71,1.47.72.64,1.08,1.2,1.08,1.63A1.74,1.74,0,0,1,14.1,53.32Z" transform="translate(149.72)"/><path class="cls-3" d="M46,37.69A41.26,41.26,0,0,0,44.8,45.6l.12,2.63c-.08,1.11-.56,1.63-1.51,1.63s-1.51-.56-1.63-1.75a18.11,18.11,0,0,1-.12-2,53.72,53.72,0,0,1,.71-6.72,7.57,7.57,0,0,1-.12-1.15A3.41,3.41,0,0,1,43,35.74a2.17,2.17,0,0,1,1.67-.87,1.42,1.42,0,0,1,1,.51,1.8,1.8,0,0,1,.44,1.24C46.07,36.93,46,37.29,46,37.69ZM57.36,51.57a38,38,0,0,1-9.14,15.62,2.69,2.69,0,0,1-1.79,1c-1,0-1.51-.56-1.51-1.67a1.54,1.54,0,0,1,.51-1.23,33.14,33.14,0,0,0,6.88-9.43,39.25,39.25,0,0,0,2.83-7.55,40.9,40.9,0,0,0,.79-8.39,5.58,5.58,0,0,0-.44-2.15,3.82,3.82,0,0,1-.43-1.67,3.3,3.3,0,0,1,.4-1.79,1.65,1.65,0,0,1,3.06.36,18.93,18.93,0,0,1,.71,5A39.89,39.89,0,0,1,57.36,51.57Z" transform="translate(149.72)"/><path class="cls-3" d="M87.31,52.08a.94.94,0,0,1-.88-.43c-.71-1-1.67-2.23-2.94-3.86A2.05,2.05,0,0,1,83,46.36c0-.84.48-1.27,1.43-1.27a2,2,0,0,1,1.56,1c1.86,2.62,2.82,4.13,2.82,4.49A1.3,1.3,0,0,1,87.31,52.08Zm10.61.28a44.51,44.51,0,0,1-4.57,7.56c-1.31,1.63-2.23,2.46-2.7,2.46-1.08,0-1.59-.47-1.59-1.35a2.38,2.38,0,0,1,1.19-1.83A40.26,40.26,0,0,0,95,52c1.87-3.5,2.82-6.12,2.82-7.87a1.9,1.9,0,0,1-.07-.56c0-1,.43-1.47,1.39-1.47s1.51.72,1.51,2.11C100.63,46.08,99.71,48.78,97.92,52.36Zm-4.49-4.09a1.22,1.22,0,0,1-.87.39A1.72,1.72,0,0,1,91,47.79,14.09,14.09,0,0,1,90.17,46a2.55,2.55,0,0,1-.68-1.75,1.22,1.22,0,0,1,1.36-1.39,1.65,1.65,0,0,1,1.11.4,11.69,11.69,0,0,1,1.27,2.1,6,6,0,0,1,.56,2A1.31,1.31,0,0,1,93.43,48.27Z" transform="translate(149.72)"/><path class="cls-3" d="M140.47,49.78a1.28,1.28,0,0,1-1,.51,2.11,2.11,0,0,1-1-.31c-.43-.24-.83-.44-1.23-.68-1.11-.52-2.7-1.27-4.69-2.27,0,2.71-.24,7.12-.68,13.33-.16,1.78-.75,2.7-1.83,2.7s-1.63-.6-1.63-1.75a3.46,3.46,0,0,1,.24-.92c.2-1.27.4-4.49.64-9.66s.32-9.42.32-12.88c0-1.12-.08-2.35-.2-3.7a3.91,3.91,0,0,1-.16-.83,1.54,1.54,0,0,1,.44-1.12,1.36,1.36,0,0,1,1-.51A1.69,1.69,0,0,1,132.4,33a31.3,31.3,0,0,1,.28,5.33c0,1.27,0,2.82-.12,4.69a39,39,0,0,0,6.8,3.46,2.26,2.26,0,0,1,1.51,2.1A1.85,1.85,0,0,1,140.47,49.78Z" transform="translate(149.72)"/><path class="cls-3" d="M168.71,57.73c-1.63,1.83-3.26,2.7-4.9,2.7-2.14,0-3.57-1.79-4.29-5.36a42.49,42.49,0,0,1-.6-8.28c0-1.51-.12-3.18-.27-5a8.16,8.16,0,0,1-.08-1,1.66,1.66,0,0,1,1.9-1.83c1.08,0,1.63,1.12,1.63,3.26,0,.16,0,.92.05,2.35v2.94a35.74,35.74,0,0,0,.47,6.24c.4,2.07.88,3.07,1.47,3.07s1.08-.4,1.79-1.24a2.63,2.63,0,0,1,1.83-1.19c1,0,1.55.6,1.55,1.79A2.24,2.24,0,0,1,168.71,57.73Zm17.81,0a1.61,1.61,0,0,1-1.83-1.83,9,9,0,0,1,.28-1.75,18.6,18.6,0,0,0,.48-3.78,7.84,7.84,0,0,0-1.87-5.48,4,4,0,0,1-1.39-2.75,1.72,1.72,0,0,1,.55-1.27,2.21,2.21,0,0,1,1.35-.52,2.06,2.06,0,0,1,1.56.84,15.34,15.34,0,0,1,3.18,10C188.83,55.54,188,57.73,186.52,57.73Z" transform="translate(149.72)"/><path class="cls-3" d="M220.68,57.93c-.64.64-1.47,1.39-2.47,2.27A9.94,9.94,0,0,1,215.59,62a1.7,1.7,0,0,1-1.15-.44,1.53,1.53,0,0,1,.19-2.31c4.06-2.86,6.09-5.25,6.09-7.2,0-.71-.48-1.31-1.39-1.83a9.85,9.85,0,0,0-4-.67,17.47,17.47,0,0,0-9,2.74,2,2,0,0,1-1.39.8,1.06,1.06,0,0,1-.91-.44,1.4,1.4,0,0,1-.48-1c0-.64.52-1.28,1.59-2a18.11,18.11,0,0,1,10.3-3.1,11.1,11.1,0,0,1,5.45,1.31,4.47,4.47,0,0,1,2.7,4C223.62,53.83,222.63,55.86,220.68,57.93Z" transform="translate(149.72)"/><path class="cls-3" d="M242.71,53.4c-1,0-1.59-.72-1.79-2.23-.08-.64-.16-2.55-.2-5.73a1.88,1.88,0,0,1-.79-1.47,7.59,7.59,0,0,1,.63-1.87,2.22,2.22,0,0,1,1.95-1.55,1.13,1.13,0,0,1,.87.56,2.14,2.14,0,0,1,.36,1.23c-.08.64-.12,1.27-.16,1.91-.08,1.27-.12,2.19-.12,2.74a25.64,25.64,0,0,0,.36,4.5C243.82,52.76,243.42,53.4,242.71,53.4Zm26.68,5.05c-1.07,0-1.59-.48-1.59-1.44,0-3.1-1.27-5-3.82-5.68a14,14,0,0,1-3.34,6,8.1,8.1,0,0,1-6.08,2.83,11,11,0,0,1-4.73-.92c-1.87-.75-2.79-2-2.79-3.54,0-2,1.36-3.7,4.06-5.21a21.62,21.62,0,0,1,10.54-2.54c0-1.35-.12-3-.28-4.81a44.14,44.14,0,0,1-5.17.47A19.5,19.5,0,0,1,251.3,43c-.72-.2-1.08-.8-1.08-1.79a1.39,1.39,0,0,1,.48-1,1.52,1.52,0,0,1,1.07-.47,20.78,20.78,0,0,0,4.58.55,38.72,38.72,0,0,0,3.9-.35l-1.16-1.59a2.65,2.65,0,0,1-.63-1.44c0-1,.47-1.55,1.47-1.55a1.71,1.71,0,0,1,1.31.8,25.85,25.85,0,0,1,1.95,3.34c1.59-.32,2.9-.56,3.93-.8,1,0,1.48.56,1.48,1.67s-.84,1.63-2.43,1.87l-1.87.32a36.49,36.49,0,0,1,.24,3.74c0,.24,0,.87,0,1.87a8.67,8.67,0,0,1,4.57,3,8.79,8.79,0,0,1,1.67,5.49C270.74,57.85,270.27,58.45,269.39,58.45ZM252.73,53.2a10.24,10.24,0,0,0-1.59,1.11c-.8.64-1.19,1.11-1.19,1.35s.51.52,1.55.8a9.23,9.23,0,0,0,2.74.44q4.35,0,6.68-5.85A17.89,17.89,0,0,0,252.73,53.2Zm21.71-15.07a3.32,3.32,0,0,1-2.7,1.23,3.38,3.38,0,0,1-2.63-1.15,11.72,11.72,0,0,1-1.51-2.47,4.72,4.72,0,0,1,.16-.83,5.18,5.18,0,0,1,.12-1.36,1.11,1.11,0,0,1,1.11-.63h.52a4.8,4.8,0,0,1,2.35-.72,3.69,3.69,0,0,1,2.54.84,3.09,3.09,0,0,1,1,2.38A4.27,4.27,0,0,1,274.44,38.13Zm-2.5-3.58a2.2,2.2,0,0,0-1.56.91c.48,1.12.88,1.63,1.16,1.63a1,1,0,0,0,.91-.63,2.65,2.65,0,0,0,.4-1.24C272.85,34.79,272.53,34.55,271.94,34.55Z" transform="translate(149.72)"/><path class="cls-3" d="M291.58,57.73c-1.63,1.83-3.26,2.7-4.89,2.7-2.15,0-3.58-1.79-4.3-5.36a43.47,43.47,0,0,1-.59-8.28c0-1.51-.12-3.18-.28-5a8.16,8.16,0,0,1-.08-1A1.67,1.67,0,0,1,283.35,39c1.07,0,1.63,1.12,1.63,3.26,0,.16,0,.92,0,2.35v2.94a35.66,35.66,0,0,0,.48,6.24c.39,2.07.87,3.07,1.47,3.07s1.07-.4,1.79-1.24a2.6,2.6,0,0,1,1.83-1.19c1,0,1.55.6,1.55,1.79A2.2,2.2,0,0,1,291.58,57.73Zm17.81,0a1.6,1.6,0,0,1-1.82-1.83,8.76,8.76,0,0,1,.27-1.75,18.6,18.6,0,0,0,.48-3.78,7.84,7.84,0,0,0-1.87-5.48,4,4,0,0,1-1.39-2.75,1.7,1.7,0,0,1,.56-1.27,2.17,2.17,0,0,1,1.35-.52,2,2,0,0,1,1.55.84,15.29,15.29,0,0,1,3.18,10C311.7,55.54,310.91,57.73,309.39,57.73Z" transform="translate(149.72)"/><path class="cls-3" d="M336.67,62a1.91,1.91,0,0,1-1.47-.88,2.07,2.07,0,0,1-.83-1.87,1.7,1.7,0,0,1,.67-1.39,1.7,1.7,0,0,1,2.35-.24,2.64,2.64,0,0,1,1,2.47C338.42,61.39,337.83,62,336.67,62Zm3.46-26.33a81.12,81.12,0,0,0-1.91,16c-.08,1.43-.59,2.1-1.59,2.1a1.41,1.41,0,0,1-1.11-.47,1.48,1.48,0,0,1-.44-1.12c0-.24,0-.83.08-1.79s.16-3.1.36-5.88a46.23,46.23,0,0,1,1.11-7.83,2,2,0,0,1-.12-.68,6.32,6.32,0,0,1,.32-1.63,2.61,2.61,0,0,1,.92-1.35,2.09,2.09,0,0,1,1.35-.56,1.29,1.29,0,0,1,1,.56,1.86,1.86,0,0,1,.44,1.15C340.45,34.55,340.29,35.06,340.13,35.7Z" transform="translate(149.72)"/><path d="M39.45,75.58a1.13,1.13,0,0,1-.82-.59c-.16-.29.16-.49.43-.49,2.87-.42,5.57-1.24,8.54-1.4,1,0,2-.1,2.94-.1a17.62,17.62,0,0,1,2.87.23l.49.3a.78.78,0,0,1,.23.62,40.07,40.07,0,0,0-6.3,0A54.69,54.69,0,0,0,39.45,75.58ZM46.79,94.5a.78.78,0,0,1-.23.13.18.18,0,0,1-.2-.16c.13-2.38.39-5.84.53-7.83s.09-5.81.22-7.83a13.4,13.4,0,0,1,.49-2.68c.36-.32.72.2.75.53-.32,4.6-.26,9.39-.65,14.09A13.12,13.12,0,0,1,46.79,94.5Z" transform="translate(149.72)"/><path d="M64.37,93.75a1.54,1.54,0,0,1-.91-1.14c-.56-2.84-.65-5.87-1-8.78-.1-.88-1.05-1.07-1.54-.26a25.74,25.74,0,0,0-2.22,5.26A34.86,34.86,0,0,0,57.23,94a.63.63,0,0,1-.85.3,1.81,1.81,0,0,1-.26-.52L56,93.17a25,25,0,0,1-.62-7.25,37.79,37.79,0,0,1,1.28-8.22,18.15,18.15,0,0,1,1.53-3.82,2.84,2.84,0,0,1,1.57-1.24,1.74,1.74,0,0,1,1.17.4c.23.22.46.52.23.88a5.08,5.08,0,0,0-1-.26,1,1,0,0,0-.75.22,14.4,14.4,0,0,0-1.6,3.56,28.56,28.56,0,0,0-1,4.4,37,37,0,0,0-.42,6,28.18,28.18,0,0,0,.36,4,29.28,29.28,0,0,1,1.47-4.8,31.65,31.65,0,0,1,1.59-3.55,5.41,5.41,0,0,1,.36-.65,1.62,1.62,0,0,1,.39-.53,1.55,1.55,0,0,1,1.24-.49,1.74,1.74,0,0,1,1.54,1,5.06,5.06,0,0,1,.36,1.7,73.76,73.76,0,0,0,.91,7.86c.06.13.16.16.2.13a10.84,10.84,0,0,0,1.46-2.12l1.21-2.25c.1-.16.26-.1.36,0a.42.42,0,0,1,.16.39A16.29,16.29,0,0,1,65.77,93C65.51,93.33,65,94,64.37,93.75Z" transform="translate(149.72)"/><path d="M76.9,93.29A5.67,5.67,0,0,1,74,94.57a3.44,3.44,0,0,1-2.81-1,4.26,4.26,0,0,1-.81-1.14,4.54,4.54,0,0,1-.36-1,3.12,3.12,0,0,1-.85.46,1.39,1.39,0,0,1-1.08-.1.58.58,0,0,1-.1-.69,2.38,2.38,0,0,1,.59-.19c.2-.07.36-.1.49-.16s.56-.33.82-.46a15.84,15.84,0,0,1,.23-4.5,6.76,6.76,0,0,1,1.53-3.17,3.63,3.63,0,0,1,3-.68,4.72,4.72,0,0,1,2.44,2.64,1.94,1.94,0,0,1-.52,1.66,13.81,13.81,0,0,1-1,1l-.49.45a5.06,5.06,0,0,0-.39.43,19.86,19.86,0,0,1-1.76,1.43c-.62.46-1.24.88-1.8,1.24a3.11,3.11,0,0,0,1.31,2.32,2.6,2.6,0,0,0,2.35.09,6.11,6.11,0,0,0,1.92-1.14,7.13,7.13,0,0,0,2.19-2.9c.16-.16.46.16.46.29a4.74,4.74,0,0,1-.76,1.93A8.1,8.1,0,0,1,76.9,93.29Zm-4.5-9.68A6.25,6.25,0,0,0,71.32,86,10.88,10.88,0,0,0,71,89.58c.62-.43,1.27-.88,1.92-1.37a14.64,14.64,0,0,0,1.93-1.7c.42-.42,1-.88,1.14-1.53a4.31,4.31,0,0,0-1.37-1.77A2.55,2.55,0,0,0,72.4,83.61Z" transform="translate(149.72)"/><path d="M87,83.77a8.86,8.86,0,0,0-2.65,2,8,8,0,0,0-2,3,14.32,14.32,0,0,0,.59,2.77c.26.92.58,1.8.84,2.74a.37.37,0,0,1-.62.2l-.39-.42a28.54,28.54,0,0,1-1.76-6.46,10.84,10.84,0,0,1,.33-4.18c.16-.29.29-.65.45-1a1.52,1.52,0,0,1,.82-.75.77.77,0,0,1,.68.3c0,.45-.32.72-.52,1-.06.13-.13.2-.13.33A8.22,8.22,0,0,0,82,86.84a11.25,11.25,0,0,1,2.09-2.35A10,10,0,0,1,86.62,83a10.84,10.84,0,0,1,2.06-.62,2.24,2.24,0,0,1,1.3.06.39.39,0,0,1-.36.52A12.23,12.23,0,0,0,87,83.77Z" transform="translate(149.72)"/><path d="M98.27,93.29a5.67,5.67,0,0,1-2.87,1.28,3.43,3.43,0,0,1-2.81-1,4.57,4.57,0,0,1-.82-1.14,4.51,4.51,0,0,1-.35-1,3.27,3.27,0,0,1-.85.46,1.39,1.39,0,0,1-1.08-.1.58.58,0,0,1-.1-.69A2.25,2.25,0,0,1,90,91c.2-.07.36-.1.49-.16s.55-.33.81-.46a16.6,16.6,0,0,1,.23-4.5,6.78,6.78,0,0,1,1.54-3.17A3.61,3.61,0,0,1,96,82a4.76,4.76,0,0,1,2.44,2.64,1.94,1.94,0,0,1-.52,1.66,13.81,13.81,0,0,1-1,1l-.49.45a5.06,5.06,0,0,0-.39.43,19.86,19.86,0,0,1-1.76,1.43c-.62.46-1.24.88-1.8,1.24A3.08,3.08,0,0,0,93.8,93.2a2.6,2.6,0,0,0,2.35.09,6.23,6.23,0,0,0,1.92-1.14,7.22,7.22,0,0,0,2.19-2.9c.16-.16.45.16.45.29a4.58,4.58,0,0,1-.75,1.93A8.1,8.1,0,0,1,98.27,93.29Zm-4.51-9.68A6.4,6.4,0,0,0,92.69,86a11.15,11.15,0,0,0-.3,3.62c.62-.43,1.28-.88,1.93-1.37a13.93,13.93,0,0,0,1.92-1.7c.43-.42,1.05-.88,1.15-1.53A4.4,4.4,0,0,0,96,83.21,2.57,2.57,0,0,0,93.76,83.61Z" transform="translate(149.72)"/><path d="M119,90.07c-.23-.69-.39-1.41-.55-2.12a14.26,14.26,0,0,1-4.11,6.13,2.13,2.13,0,0,1-2.38.26,2.82,2.82,0,0,1-1.31-2.15,9.29,9.29,0,0,1,.33-3.33,12.79,12.79,0,0,1,4.14-6.56,5,5,0,0,1,.88-.42,1.29,1.29,0,0,1,1,.06,3.22,3.22,0,0,1,1.63,1.83,3.6,3.6,0,0,1,.39,1.7,3.61,3.61,0,0,1,.3.71,18.4,18.4,0,0,0,.71,3.3c.56,1.73.88,3.06,2.22,4.37,0,.42-.49.36-.78.29C120,93.1,119.54,91.63,119,90.07Zm-2.28-7a1,1,0,0,0-.85.16,9.41,9.41,0,0,0-2.51,2.94,14.36,14.36,0,0,0-1.5,4.17,10.76,10.76,0,0,0-.07,1.5,2.39,2.39,0,0,0,.43,1.28,1.21,1.21,0,0,0,1.2.22,13.87,13.87,0,0,0,4.51-6.81,2.5,2.5,0,0,1,.32-1.08,7.74,7.74,0,0,0-.52-1.27A2.8,2.8,0,0,0,116.7,83Z" transform="translate(149.72)"/><path d="M129.62,83.77a9,9,0,0,0-2.65,2,8,8,0,0,0-2,3,15.11,15.11,0,0,0,.59,2.77c.26.92.58,1.8.84,2.74a.37.37,0,0,1-.62.2l-.39-.42a28.54,28.54,0,0,1-1.76-6.46,10.84,10.84,0,0,1,.33-4.18c.16-.29.29-.65.45-1a1.52,1.52,0,0,1,.82-.75.8.8,0,0,1,.69.3c0,.45-.33.72-.53,1-.06.13-.13.2-.13.33a8.22,8.22,0,0,0-.52,3.46,11.25,11.25,0,0,1,2.09-2.35,10,10,0,0,1,2.51-1.5,10.84,10.84,0,0,1,2.06-.62,2.24,2.24,0,0,1,1.3.06.39.39,0,0,1-.36.52A12.4,12.4,0,0,0,129.62,83.77Z" transform="translate(149.72)"/><path d="M140.94,93.29a5.67,5.67,0,0,1-2.87,1.28,3.44,3.44,0,0,1-2.81-1,4.57,4.57,0,0,1-.82-1.14,4.51,4.51,0,0,1-.35-1,3.12,3.12,0,0,1-.85.46,1.39,1.39,0,0,1-1.08-.1.58.58,0,0,1-.1-.69,2.38,2.38,0,0,1,.59-.19c.2-.07.36-.1.49-.16s.55-.33.82-.46a16.21,16.21,0,0,1,.22-4.5,6.78,6.78,0,0,1,1.54-3.17,3.63,3.63,0,0,1,3-.68,4.72,4.72,0,0,1,2.44,2.64,1.94,1.94,0,0,1-.52,1.66,13.81,13.81,0,0,1-1,1l-.49.45a5.06,5.06,0,0,0-.39.43A19.86,19.86,0,0,1,137,89.64c-.62.46-1.24.88-1.8,1.24a3.11,3.11,0,0,0,1.31,2.32,2.6,2.6,0,0,0,2.35.09,6.23,6.23,0,0,0,1.92-1.14,7.13,7.13,0,0,0,2.19-2.9c.16-.16.45.16.45.29a4.58,4.58,0,0,1-.75,1.93A8.1,8.1,0,0,1,140.94,93.29Zm-4.5-9.68A6.25,6.25,0,0,0,135.36,86a11.15,11.15,0,0,0-.3,3.62c.62-.43,1.28-.88,1.93-1.37a13.93,13.93,0,0,0,1.92-1.7c.43-.42,1.05-.88,1.15-1.53a4.31,4.31,0,0,0-1.37-1.77A2.54,2.54,0,0,0,136.44,83.61Z" transform="translate(149.72)"/><path d="M169.84,93.75a2.7,2.7,0,0,1-.13-.36c-.59-3.23-.49-6.72-1.21-9.88,0-.16-.23-.39-.36-.39a.74.74,0,0,0-.65.29,16.79,16.79,0,0,0-2.15,3.43,56.48,56.48,0,0,0-2.87,7.24.5.5,0,0,1-.46.32.47.47,0,0,1-.46-.45,37.81,37.81,0,0,0-1.76-9.17,1.63,1.63,0,0,0-.62-.85,1.17,1.17,0,0,0-.88,0,3.83,3.83,0,0,0-1.14,1.7,42.77,42.77,0,0,0-2.48,8.48.37.37,0,0,1-.62.1,8.54,8.54,0,0,1-.72-4.27,22.46,22.46,0,0,1,1.44-7.38,1.69,1.69,0,0,1,.62-.91c.23,0,.49.16.39.42-.33,1.41-.68,2.78-1,4.21a17.4,17.4,0,0,0-.39,4.37,6,6,0,0,0,0,.75c.39-1.5.72-3,1.21-4.5a14.93,14.93,0,0,1,1.73-3.49,2.19,2.19,0,0,1,2.25-.49,3,3,0,0,1,1.21,1.37A28,28,0,0,1,162,88.56c.16,1,.29,2,.42,3.07.69-1.79,1.41-3.62,2.25-5.32.53-1,1.64-3.23,2.55-3.94a1.57,1.57,0,0,1,1.14-.4c.95.2,1.17,1,1.31,1.8a7.09,7.09,0,0,0,.19,1c.43,3,.46,6.2.78,9.23,0,.2-.29.29-.42.23A.92.92,0,0,1,169.84,93.75Z" transform="translate(149.72)"/><path d="M180.25,90.07c-.23-.69-.39-1.41-.56-2.12a14.17,14.17,0,0,1-4.11,6.13,2.13,2.13,0,0,1-2.38.26,2.83,2.83,0,0,1-1.3-2.15,9.29,9.29,0,0,1,.32-3.33,12.87,12.87,0,0,1,4.15-6.56,4.71,4.71,0,0,1,.88-.42,1.29,1.29,0,0,1,1,.06,3.26,3.26,0,0,1,1.63,1.83,3.86,3.86,0,0,1,.39,1.7,3.62,3.62,0,0,1,.29.71,17.59,17.59,0,0,0,.72,3.3c.55,1.73.88,3.06,2.22,4.37,0,.42-.49.36-.79.29C181.26,93.1,180.8,91.63,180.25,90.07ZM178,83a1,1,0,0,0-.84.16,9.45,9.45,0,0,0-2.52,2.94,15,15,0,0,0-1.5,4.17,12.54,12.54,0,0,0-.06,1.5,2.38,2.38,0,0,0,.42,1.28,1.23,1.23,0,0,0,1.21.22,13.85,13.85,0,0,0,4.5-6.81,2.66,2.66,0,0,1,.33-1.08,8.73,8.73,0,0,0-.52-1.27A2.82,2.82,0,0,0,178,83Z" transform="translate(149.72)"/><path d="M192.29,94.11a3,3,0,0,1,0-.94,1,1,0,0,0,0-.3,52.09,52.09,0,0,0-.17-8.74,2,2,0,0,0-.13-.52.89.89,0,0,0-.26-.43.78.78,0,0,0-1-.06,5.8,5.8,0,0,0-1.11,1.2A16.91,16.91,0,0,0,187,89.41a24.63,24.63,0,0,0-1.08,4.6.49.49,0,0,1-.91,0c0-.59,0-1.73,0-2.35-.07-2.15-.36-5-.46-6.65a8.54,8.54,0,0,0-.49-2.71.52.52,0,0,1,.33-.59,1.12,1.12,0,0,1,.81.75l.16.33c.3,2.28.43,4.6.66,6.88a27.8,27.8,0,0,1,1.73-4,13.86,13.86,0,0,1,2.54-3.39,1.79,1.79,0,0,1,1.18-.39,2,2,0,0,1,1.17.52,6.52,6.52,0,0,1,.78,2.35,34.83,34.83,0,0,1,.13,4.21,37.32,37.32,0,0,1-.13,4,8.11,8.11,0,0,0,1.24-1.18l1.21-1.56c.16-.17.39.13.36.26a11.4,11.4,0,0,1-3,4C192.84,94.76,192.38,94.4,192.29,94.11Z" transform="translate(149.72)"/><path d="M198.55,102.2a4.8,4.8,0,0,1-3.33-1.24,3.75,3.75,0,0,1-.75-1.4l.56.36a11.6,11.6,0,0,0,1,.72,6,6,0,0,0,2.55.62,7,7,0,0,0,4.6-1.83,8.37,8.37,0,0,0,1.7-2,4.29,4.29,0,0,0,.55-2.64,103.62,103.62,0,0,1-.78-11.26A73.14,73.14,0,0,1,199.37,91a1.18,1.18,0,0,1-1.21.42,1.14,1.14,0,0,1-.75-.65,23.51,23.51,0,0,1-.07-3.65c.07-1.21.2-2.42.23-3.62a.61.61,0,0,0-.1-.53l-.16-.26a1.05,1.05,0,0,1-.16-.26c-.17-.46.29-.72.65-.65a1.58,1.58,0,0,1,.75.72,6.48,6.48,0,0,1,.13,1.89c0,1-.26,2-.23,3.16,0,.46,0,1,0,1.44a10.62,10.62,0,0,0,.06,1.4s.17.07.23,0a55.23,55.23,0,0,0,6-8.35.63.63,0,0,1,.75-.13,1,1,0,0,1,.32.62,72.65,72.65,0,0,0,.75,12.69,5.47,5.47,0,0,1-.75,2.58A8.26,8.26,0,0,1,198.55,102.2Z" transform="translate(149.72)"/><path d="M221.84,94.31a3.61,3.61,0,0,1-1.33-.13c0,.22,0,.29,0,.36s0,.13,0,.22-.16.26-.23.26-.19-.06-.39-.58c-.62-1.47-1.14-7-1.14-10a33.13,33.13,0,0,1,1.4-9.69c.3-.78.56-1.76,1.44-2.09.32,0,.94.2.81.72-.1.29-.45.49-.65.72a.36.36,0,0,0-.13.23c-1.27,2.08-1.76,7.21-1.73,9.68a6.09,6.09,0,0,1,2.25-1.79,3.88,3.88,0,0,1,3.2.2,5.9,5.9,0,0,1,3.13,4.17,5.84,5.84,0,0,1-.69,3.75A8,8,0,0,1,221.84,94.31Zm4.86-9.17a4.55,4.55,0,0,0-2.38-2,2.66,2.66,0,0,0-2.22.1,5,5,0,0,0-2.28,2.32c0,2.21.39,6.1.62,8a2.33,2.33,0,0,0,1.34,0,8.73,8.73,0,0,0,5.05-4.14A4.94,4.94,0,0,0,226.7,85.14Z" transform="translate(149.72)"/><path d="M238,93.29a5.67,5.67,0,0,1-2.87,1.28,3.42,3.42,0,0,1-2.8-1,4.32,4.32,0,0,1-.82-1.14,5.17,5.17,0,0,1-.36-1,3.12,3.12,0,0,1-.85.46,1.37,1.37,0,0,1-1.07-.1.58.58,0,0,1-.1-.69,2.25,2.25,0,0,1,.59-.19c.19-.07.36-.1.49-.16s.55-.33.81-.46a15.84,15.84,0,0,1,.23-4.5,6.86,6.86,0,0,1,1.53-3.17,3.63,3.63,0,0,1,3-.68,4.77,4.77,0,0,1,2.45,2.64,1.94,1.94,0,0,1-.52,1.66c-.3.33-.66.69-1,1l-.49.45a3.79,3.79,0,0,0-.39.43A21.61,21.61,0,0,1,234,89.64c-.62.46-1.24.88-1.79,1.24a3.1,3.1,0,0,0,1.3,2.32,2.6,2.6,0,0,0,2.35.09,6.16,6.16,0,0,0,1.93-1.14,7.1,7.1,0,0,0,2.18-2.9c.17-.16.46.16.46.29a4.58,4.58,0,0,1-.75,1.93A8.14,8.14,0,0,1,238,93.29Zm-4.5-9.68A6.24,6.24,0,0,0,232.45,86a11.15,11.15,0,0,0-.3,3.62c.62-.43,1.27-.88,1.93-1.37a14.54,14.54,0,0,0,1.92-1.7c.43-.42,1-.88,1.14-1.53a4.23,4.23,0,0,0-1.37-1.77A2.55,2.55,0,0,0,233.52,83.61Z" transform="translate(149.72)"/><path d="M249.47,94.11a3,3,0,0,1,0-.94.78.78,0,0,0,0-.3,52.08,52.08,0,0,0-.16-8.74,2,2,0,0,0-.13-.52.89.89,0,0,0-.26-.43.78.78,0,0,0-1-.06,5.54,5.54,0,0,0-1.11,1.2,16.91,16.91,0,0,0-2.64,5.09,23.86,23.86,0,0,0-1.08,4.6.49.49,0,0,1-.91,0c0-.59,0-1.73,0-2.35-.06-2.15-.35-5-.45-6.65a8.54,8.54,0,0,0-.49-2.71c0-.16,0-.52.32-.59a1.11,1.11,0,0,1,.82.75l.16.33c.3,2.28.43,4.6.66,6.88a27.75,27.75,0,0,1,1.72-4,14.16,14.16,0,0,1,2.55-3.39,1.76,1.76,0,0,1,1.17-.39,2,2,0,0,1,1.18.52,6.52,6.52,0,0,1,.78,2.35,34.83,34.83,0,0,1,.13,4.21c0,1.3,0,2.64-.13,4a8.11,8.11,0,0,0,1.24-1.18L253,90.2c.16-.17.39.13.36.26a11.4,11.4,0,0,1-3,4C250,94.76,249.57,94.4,249.47,94.11Z" transform="translate(149.72)"/><path d="M262.33,93.29a5.67,5.67,0,0,1-2.87,1.28,3.44,3.44,0,0,1-2.81-1,4.26,4.26,0,0,1-.81-1.14,4.54,4.54,0,0,1-.36-1,3.12,3.12,0,0,1-.85.46,1.39,1.39,0,0,1-1.08-.1.58.58,0,0,1-.1-.69A2.38,2.38,0,0,1,254,91c.2-.07.36-.1.49-.16s.56-.33.82-.46a15.84,15.84,0,0,1,.23-4.5,6.76,6.76,0,0,1,1.53-3.17,3.63,3.63,0,0,1,3-.68,4.72,4.72,0,0,1,2.44,2.64,1.94,1.94,0,0,1-.52,1.66,13.81,13.81,0,0,1-1,1l-.49.45a5.06,5.06,0,0,0-.39.43,19.86,19.86,0,0,1-1.76,1.43c-.62.46-1.24.88-1.8,1.24a3.11,3.11,0,0,0,1.31,2.32,2.6,2.6,0,0,0,2.35.09,6.11,6.11,0,0,0,1.92-1.14,7.13,7.13,0,0,0,2.19-2.9c.16-.16.45.16.45.29a4.58,4.58,0,0,1-.75,1.93A8.1,8.1,0,0,1,262.33,93.29Zm-4.5-9.68A6.25,6.25,0,0,0,256.75,86a10.88,10.88,0,0,0-.29,3.62c.62-.43,1.27-.88,1.92-1.37a14.64,14.64,0,0,0,1.93-1.7c.42-.42,1-.88,1.14-1.53a4.31,4.31,0,0,0-1.37-1.77A2.54,2.54,0,0,0,257.83,83.61Z" transform="translate(149.72)"/><path d="M270.35,83.28c-.09,1.7,0,5.45,0,7.34,0,1.31.06,2.64,0,3.95a17.35,17.35,0,0,1-.62,3.91,7.77,7.77,0,0,1-2,3.3.52.52,0,0,1-.55.09.27.27,0,0,1-.07-.39,11.39,11.39,0,0,0,1.67-3.32,13.49,13.49,0,0,0,.55-3.69c.07-2.71,0-8.09-.06-10.9a11.61,11.61,0,0,0-3.62,1.7c-.27.07-.46-.16-.56-.33a1.12,1.12,0,0,1,.62-1,17.32,17.32,0,0,1,3.56-1.53c.06-1.63,0-3.36.09-4.93a7.44,7.44,0,0,1,.72-3.16,2.89,2.89,0,0,1,2.38-1.63,2.23,2.23,0,0,1,1.44.62c0,.16-.16.45-.39.36a2,2,0,0,0-1,0A2.31,2.31,0,0,0,271,74.9a5.57,5.57,0,0,0-.52,2.54c0,1.57-.13,3.13-.1,4.7.59-.07,1.21-.2,1.83-.26a7.12,7.12,0,0,1,2.06.06c.42.3.06.75-.2.85A16.07,16.07,0,0,0,270.35,83.28Z" transform="translate(149.72)"/><path d="M281.48,94.5a2.13,2.13,0,0,1-1.37-.26,2.54,2.54,0,0,1-.82-1.66,36.54,36.54,0,0,1,0-8c-.45.85-.91,1.63-1.4,2.45a17,17,0,0,1-2,2.64,1.49,1.49,0,0,1-.65.33.6.6,0,0,1-.33-.1.22.22,0,0,1,0-.33,21,21,0,0,0,2.51-3.65c.72-1.27,1.34-2.54,2.16-3.78.16-.27.65-.14.88,0a1,1,0,0,1,.16.84c-.42,3.3-.78,7.7-.13,9.92a.94.94,0,0,0,.62.56,1.52,1.52,0,0,0,1-.46,5.34,5.34,0,0,0,.88-1.08,7.33,7.33,0,0,0,.3-.72,2,2,0,0,1,.49-.71.64.64,0,0,1,.23.65l-.14.59a4.45,4.45,0,0,1-1.07,2A2.82,2.82,0,0,1,281.48,94.5Zm.81-19.28A19.2,19.2,0,0,0,278.22,74c-.33,0-.36-.68,0-.94a7.55,7.55,0,0,1,5.12,2,.9.9,0,0,1,.36.85,4.59,4.59,0,0,1-.75-.33Z" transform="translate(149.72)"/><path d="M298.41,90.2c-1.27,2.28-3.43,4.34-6.46,4.3a3.16,3.16,0,0,1-2.71-1.89,31.42,31.42,0,0,1-.39-8.91c-1,.23-1.92.59-2.94.88a1.1,1.1,0,0,1-1-.62.42.42,0,0,1,.46-.48,1.16,1.16,0,0,0,.68-.07c.72-.2,2.19-.65,2.91-.88l.55-5.06a2.28,2.28,0,0,1,.23-.81.57.57,0,0,1,.88-.17,2.44,2.44,0,0,1,.62.62l.16.2a4,4,0,0,1,.46.62,3.29,3.29,0,0,1,.39.78c-.62-.06-.85-.39-1.27-.71a.8.8,0,0,0-.29-.2,2.25,2.25,0,0,0-.17.55l-.1,1.21c-.06,1-.22,2-.32,2.68.75-.07,1.56-.23,2.35-.33a5.73,5.73,0,0,1,2.38.2c.26.19.06.58-.13.68-.65,0-1.5.1-2.35.2a11.8,11.8,0,0,0-2.35.45,33.79,33.79,0,0,0,.2,8.35,2,2,0,0,0,1.72,1.6,6.13,6.13,0,0,0,5.65-3.19c.23-.36.42-.69.65-1s.39-.68.56-1c.06-.16.22-.1.29-.07a.33.33,0,0,1,.16.23,2.69,2.69,0,0,1-.26,1C298.77,89.61,298.57,89.94,298.41,90.2Z" transform="translate(149.72)"/><path d="M301,94.44a2.12,2.12,0,0,1-1.11-1,3.82,3.82,0,0,1,0-1.47,1.58,1.58,0,0,1,.49-.78.42.42,0,0,1,.26-.07c.13,0,.2.13.2.2,0,.39-.16.88-.16,1.31s.09.58.42.68a3.62,3.62,0,0,0,1.79,0,8.4,8.4,0,0,0,4.28-1.89.59.59,0,0,0,.13-.59,2.58,2.58,0,0,0-1.31-.52c-.91-.23-1.86-.33-2.8-.49a5.61,5.61,0,0,1-2.06-.62,1.85,1.85,0,0,1-.62-2A11.43,11.43,0,0,1,303.27,83a4.68,4.68,0,0,1,2.32-1.15,2.05,2.05,0,0,1,1.14.36,1.76,1.76,0,0,1,.72,1.24.59.59,0,0,1-.43.49c-.16-.16-.26-.32-.39-.45a2.05,2.05,0,0,0-.42-.36,1,1,0,0,0-.66-.2,1.34,1.34,0,0,0-.84.33,9,9,0,0,0-2.26,2.61,7.84,7.84,0,0,0-.78,1.79.54.54,0,0,0,.13.62,1.65,1.65,0,0,0,.88.39l2.35.39a14.07,14.07,0,0,1,2.29.53,1.89,1.89,0,0,1,1.1,1,1.4,1.4,0,0,1,0,1.15,6.7,6.7,0,0,1-3.23,2.22A8.65,8.65,0,0,1,301,94.44Z" transform="translate(149.72)"/><path class="cls-4" d="M39.45,75.58a1.13,1.13,0,0,1-.82-.59c-.16-.29.16-.49.43-.49,2.87-.42,5.57-1.24,8.54-1.4,1,0,2-.1,2.94-.1a17.62,17.62,0,0,1,2.87.23l.49.3a.78.78,0,0,1,.23.62,40.07,40.07,0,0,0-6.3,0A54.69,54.69,0,0,0,39.45,75.58ZM46.79,94.5a.78.78,0,0,1-.23.13.18.18,0,0,1-.2-.16c.13-2.38.39-5.84.53-7.83s.09-5.81.22-7.83a13.4,13.4,0,0,1,.49-2.68c.36-.32.72.2.75.53-.32,4.6-.26,9.39-.65,14.09A13.12,13.12,0,0,1,46.79,94.5Z" transform="translate(149.72)"/><path class="cls-4" d="M64.37,93.75a1.54,1.54,0,0,1-.91-1.14c-.56-2.84-.65-5.87-1-8.78-.1-.88-1.05-1.07-1.54-.26a25.74,25.74,0,0,0-2.22,5.26A34.86,34.86,0,0,0,57.23,94a.63.63,0,0,1-.85.3,1.81,1.81,0,0,1-.26-.52L56,93.17a25,25,0,0,1-.62-7.25,37.79,37.79,0,0,1,1.28-8.22,18.15,18.15,0,0,1,1.53-3.82,2.84,2.84,0,0,1,1.57-1.24,1.74,1.74,0,0,1,1.17.4c.23.22.46.52.23.88a5.08,5.08,0,0,0-1-.26,1,1,0,0,0-.75.22,14.4,14.4,0,0,0-1.6,3.56,28.56,28.56,0,0,0-1,4.4,37,37,0,0,0-.42,6,28.18,28.18,0,0,0,.36,4,29.28,29.28,0,0,1,1.47-4.8,31.65,31.65,0,0,1,1.59-3.55,5.41,5.41,0,0,1,.36-.65,1.62,1.62,0,0,1,.39-.53,1.55,1.55,0,0,1,1.24-.49,1.74,1.74,0,0,1,1.54,1,5.06,5.06,0,0,1,.36,1.7,73.76,73.76,0,0,0,.91,7.86c.06.13.16.16.2.13a10.84,10.84,0,0,0,1.46-2.12l1.21-2.25c.1-.16.26-.1.36,0a.42.42,0,0,1,.16.39A16.29,16.29,0,0,1,65.77,93C65.51,93.33,65,94,64.37,93.75Z" transform="translate(149.72)"/><path class="cls-4" d="M76.9,93.29A5.67,5.67,0,0,1,74,94.57a3.44,3.44,0,0,1-2.81-1,4.26,4.26,0,0,1-.81-1.14,4.54,4.54,0,0,1-.36-1,3.12,3.12,0,0,1-.85.46,1.39,1.39,0,0,1-1.08-.1.58.58,0,0,1-.1-.69,2.38,2.38,0,0,1,.59-.19c.2-.07.36-.1.49-.16s.56-.33.82-.46a15.84,15.84,0,0,1,.23-4.5,6.76,6.76,0,0,1,1.53-3.17,3.63,3.63,0,0,1,3-.68,4.72,4.72,0,0,1,2.44,2.64,1.94,1.94,0,0,1-.52,1.66,13.81,13.81,0,0,1-1,1l-.49.45a5.06,5.06,0,0,0-.39.43,19.86,19.86,0,0,1-1.76,1.43c-.62.46-1.24.88-1.8,1.24a3.11,3.11,0,0,0,1.31,2.32,2.6,2.6,0,0,0,2.35.09,6.11,6.11,0,0,0,1.92-1.14,7.13,7.13,0,0,0,2.19-2.9c.16-.16.46.16.46.29a4.74,4.74,0,0,1-.76,1.93A8.1,8.1,0,0,1,76.9,93.29Zm-4.5-9.68A6.25,6.25,0,0,0,71.32,86,10.88,10.88,0,0,0,71,89.58c.62-.43,1.27-.88,1.92-1.37a14.64,14.64,0,0,0,1.93-1.7c.42-.42,1-.88,1.14-1.53a4.31,4.31,0,0,0-1.37-1.77A2.55,2.55,0,0,0,72.4,83.61Z" transform="translate(149.72)"/><path class="cls-4" d="M87,83.77a8.86,8.86,0,0,0-2.65,2,8,8,0,0,0-2,3,14.32,14.32,0,0,0,.59,2.77c.26.92.58,1.8.84,2.74a.37.37,0,0,1-.62.2l-.39-.42a28.54,28.54,0,0,1-1.76-6.46,10.84,10.84,0,0,1,.33-4.18c.16-.29.29-.65.45-1a1.52,1.52,0,0,1,.82-.75.77.77,0,0,1,.68.3c0,.45-.32.72-.52,1-.06.13-.13.2-.13.33A8.22,8.22,0,0,0,82,86.84a11.25,11.25,0,0,1,2.09-2.35A10,10,0,0,1,86.62,83a10.84,10.84,0,0,1,2.06-.62,2.24,2.24,0,0,1,1.3.06.39.39,0,0,1-.36.52A12.23,12.23,0,0,0,87,83.77Z" transform="translate(149.72)"/><path class="cls-4" d="M98.27,93.29a5.67,5.67,0,0,1-2.87,1.28,3.43,3.43,0,0,1-2.81-1,4.57,4.57,0,0,1-.82-1.14,4.51,4.51,0,0,1-.35-1,3.27,3.27,0,0,1-.85.46,1.39,1.39,0,0,1-1.08-.1.58.58,0,0,1-.1-.69A2.25,2.25,0,0,1,90,91c.2-.07.36-.1.49-.16s.55-.33.81-.46a16.6,16.6,0,0,1,.23-4.5,6.78,6.78,0,0,1,1.54-3.17A3.61,3.61,0,0,1,96,82a4.76,4.76,0,0,1,2.44,2.64,1.94,1.94,0,0,1-.52,1.66,13.81,13.81,0,0,1-1,1l-.49.45a5.06,5.06,0,0,0-.39.43,19.86,19.86,0,0,1-1.76,1.43c-.62.46-1.24.88-1.8,1.24A3.08,3.08,0,0,0,93.8,93.2a2.6,2.6,0,0,0,2.35.09,6.23,6.23,0,0,0,1.92-1.14,7.22,7.22,0,0,0,2.19-2.9c.16-.16.45.16.45.29a4.58,4.58,0,0,1-.75,1.93A8.1,8.1,0,0,1,98.27,93.29Zm-4.51-9.68A6.4,6.4,0,0,0,92.69,86a11.15,11.15,0,0,0-.3,3.62c.62-.43,1.28-.88,1.93-1.37a13.93,13.93,0,0,0,1.92-1.7c.43-.42,1.05-.88,1.15-1.53A4.4,4.4,0,0,0,96,83.21,2.57,2.57,0,0,0,93.76,83.61Z" transform="translate(149.72)"/><path class="cls-4" d="M119,90.07c-.23-.69-.39-1.41-.55-2.12a14.26,14.26,0,0,1-4.11,6.13,2.13,2.13,0,0,1-2.38.26,2.82,2.82,0,0,1-1.31-2.15,9.29,9.29,0,0,1,.33-3.33,12.79,12.79,0,0,1,4.14-6.56,5,5,0,0,1,.88-.42,1.29,1.29,0,0,1,1,.06,3.22,3.22,0,0,1,1.63,1.83,3.6,3.6,0,0,1,.39,1.7,3.61,3.61,0,0,1,.3.71,18.4,18.4,0,0,0,.71,3.3c.56,1.73.88,3.06,2.22,4.37,0,.42-.49.36-.78.29C120,93.1,119.54,91.63,119,90.07Zm-2.28-7a1,1,0,0,0-.85.16,9.41,9.41,0,0,0-2.51,2.94,14.36,14.36,0,0,0-1.5,4.17,10.76,10.76,0,0,0-.07,1.5,2.39,2.39,0,0,0,.43,1.28,1.21,1.21,0,0,0,1.2.22,13.87,13.87,0,0,0,4.51-6.81,2.5,2.5,0,0,1,.32-1.08,7.74,7.74,0,0,0-.52-1.27A2.8,2.8,0,0,0,116.7,83Z" transform="translate(149.72)"/><path class="cls-4" d="M129.62,83.77a9,9,0,0,0-2.65,2,8,8,0,0,0-2,3,15.11,15.11,0,0,0,.59,2.77c.26.92.58,1.8.84,2.74a.37.37,0,0,1-.62.2l-.39-.42a28.54,28.54,0,0,1-1.76-6.46,10.84,10.84,0,0,1,.33-4.18c.16-.29.29-.65.45-1a1.52,1.52,0,0,1,.82-.75.8.8,0,0,1,.69.3c0,.45-.33.72-.53,1-.06.13-.13.2-.13.33a8.22,8.22,0,0,0-.52,3.46,11.25,11.25,0,0,1,2.09-2.35,10,10,0,0,1,2.51-1.5,10.84,10.84,0,0,1,2.06-.62,2.24,2.24,0,0,1,1.3.06.39.39,0,0,1-.36.52A12.4,12.4,0,0,0,129.62,83.77Z" transform="translate(149.72)"/><path class="cls-4" d="M140.94,93.29a5.67,5.67,0,0,1-2.87,1.28,3.44,3.44,0,0,1-2.81-1,4.57,4.57,0,0,1-.82-1.14,4.51,4.51,0,0,1-.35-1,3.12,3.12,0,0,1-.85.46,1.39,1.39,0,0,1-1.08-.1.58.58,0,0,1-.1-.69,2.38,2.38,0,0,1,.59-.19c.2-.07.36-.1.49-.16s.55-.33.82-.46a16.21,16.21,0,0,1,.22-4.5,6.78,6.78,0,0,1,1.54-3.17,3.63,3.63,0,0,1,3-.68,4.72,4.72,0,0,1,2.44,2.64,1.94,1.94,0,0,1-.52,1.66,13.81,13.81,0,0,1-1,1l-.49.45a5.06,5.06,0,0,0-.39.43A19.86,19.86,0,0,1,137,89.64c-.62.46-1.24.88-1.8,1.24a3.11,3.11,0,0,0,1.31,2.32,2.6,2.6,0,0,0,2.35.09,6.23,6.23,0,0,0,1.92-1.14,7.13,7.13,0,0,0,2.19-2.9c.16-.16.45.16.45.29a4.58,4.58,0,0,1-.75,1.93A8.1,8.1,0,0,1,140.94,93.29Zm-4.5-9.68A6.25,6.25,0,0,0,135.36,86a11.15,11.15,0,0,0-.3,3.62c.62-.43,1.28-.88,1.93-1.37a13.93,13.93,0,0,0,1.92-1.7c.43-.42,1.05-.88,1.15-1.53a4.31,4.31,0,0,0-1.37-1.77A2.54,2.54,0,0,0,136.44,83.61Z" transform="translate(149.72)"/><path class="cls-4" d="M169.84,93.75a2.7,2.7,0,0,1-.13-.36c-.59-3.23-.49-6.72-1.21-9.88,0-.16-.23-.39-.36-.39a.74.74,0,0,0-.65.29,16.79,16.79,0,0,0-2.15,3.43,56.48,56.48,0,0,0-2.87,7.24.5.5,0,0,1-.46.32.47.47,0,0,1-.46-.45,37.81,37.81,0,0,0-1.76-9.17,1.63,1.63,0,0,0-.62-.85,1.17,1.17,0,0,0-.88,0,3.83,3.83,0,0,0-1.14,1.7,42.77,42.77,0,0,0-2.48,8.48.37.37,0,0,1-.62.1,8.54,8.54,0,0,1-.72-4.27,22.46,22.46,0,0,1,1.44-7.38,1.69,1.69,0,0,1,.62-.91c.23,0,.49.16.39.42-.33,1.41-.68,2.78-1,4.21a17.4,17.4,0,0,0-.39,4.37,6,6,0,0,0,0,.75c.39-1.5.72-3,1.21-4.5a14.93,14.93,0,0,1,1.73-3.49,2.19,2.19,0,0,1,2.25-.49,3,3,0,0,1,1.21,1.37A28,28,0,0,1,162,88.56c.16,1,.29,2,.42,3.07.69-1.79,1.41-3.62,2.25-5.32.53-1,1.64-3.23,2.55-3.94a1.57,1.57,0,0,1,1.14-.4c.95.2,1.17,1,1.31,1.8a7.09,7.09,0,0,0,.19,1c.43,3,.46,6.2.78,9.23,0,.2-.29.29-.42.23A.92.92,0,0,1,169.84,93.75Z" transform="translate(149.72)"/><path class="cls-4" d="M180.25,90.07c-.23-.69-.39-1.41-.56-2.12a14.17,14.17,0,0,1-4.11,6.13,2.13,2.13,0,0,1-2.38.26,2.83,2.83,0,0,1-1.3-2.15,9.29,9.29,0,0,1,.32-3.33,12.87,12.87,0,0,1,4.15-6.56,4.71,4.71,0,0,1,.88-.42,1.29,1.29,0,0,1,1,.06,3.26,3.26,0,0,1,1.63,1.83,3.86,3.86,0,0,1,.39,1.7,3.62,3.62,0,0,1,.29.71,17.59,17.59,0,0,0,.72,3.3c.55,1.73.88,3.06,2.22,4.37,0,.42-.49.36-.79.29C181.26,93.1,180.8,91.63,180.25,90.07ZM178,83a1,1,0,0,0-.84.16,9.45,9.45,0,0,0-2.52,2.94,15,15,0,0,0-1.5,4.17,12.54,12.54,0,0,0-.06,1.5,2.38,2.38,0,0,0,.42,1.28,1.23,1.23,0,0,0,1.21.22,13.85,13.85,0,0,0,4.5-6.81,2.66,2.66,0,0,1,.33-1.08,8.73,8.73,0,0,0-.52-1.27A2.82,2.82,0,0,0,178,83Z" transform="translate(149.72)"/><path class="cls-4" d="M192.29,94.11a3,3,0,0,1,0-.94,1,1,0,0,0,0-.3,52.09,52.09,0,0,0-.17-8.74,2,2,0,0,0-.13-.52.89.89,0,0,0-.26-.43.78.78,0,0,0-1-.06,5.8,5.8,0,0,0-1.11,1.2A16.91,16.91,0,0,0,187,89.41a24.63,24.63,0,0,0-1.08,4.6.49.49,0,0,1-.91,0c0-.59,0-1.73,0-2.35-.07-2.15-.36-5-.46-6.65a8.54,8.54,0,0,0-.49-2.71.52.52,0,0,1,.33-.59,1.12,1.12,0,0,1,.81.75l.16.33c.3,2.28.43,4.6.66,6.88a27.8,27.8,0,0,1,1.73-4,13.86,13.86,0,0,1,2.54-3.39,1.79,1.79,0,0,1,1.18-.39,2,2,0,0,1,1.17.52,6.52,6.52,0,0,1,.78,2.35,34.83,34.83,0,0,1,.13,4.21,37.32,37.32,0,0,1-.13,4,8.11,8.11,0,0,0,1.24-1.18l1.21-1.56c.16-.17.39.13.36.26a11.4,11.4,0,0,1-3,4C192.84,94.76,192.38,94.4,192.29,94.11Z" transform="translate(149.72)"/><path class="cls-4" d="M198.55,102.2a4.8,4.8,0,0,1-3.33-1.24,3.75,3.75,0,0,1-.75-1.4l.56.36a11.6,11.6,0,0,0,1,.72,6,6,0,0,0,2.55.62,7,7,0,0,0,4.6-1.83,8.37,8.37,0,0,0,1.7-2,4.29,4.29,0,0,0,.55-2.64,103.62,103.62,0,0,1-.78-11.26A73.14,73.14,0,0,1,199.37,91a1.18,1.18,0,0,1-1.21.42,1.14,1.14,0,0,1-.75-.65,23.51,23.51,0,0,1-.07-3.65c.07-1.21.2-2.42.23-3.62a.61.61,0,0,0-.1-.53l-.16-.26a1.05,1.05,0,0,1-.16-.26c-.17-.46.29-.72.65-.65a1.58,1.58,0,0,1,.75.72,6.48,6.48,0,0,1,.13,1.89c0,1-.26,2-.23,3.16,0,.46,0,1,0,1.44a10.62,10.62,0,0,0,.06,1.4s.17.07.23,0a55.23,55.23,0,0,0,6-8.35.63.63,0,0,1,.75-.13,1,1,0,0,1,.32.62,72.65,72.65,0,0,0,.75,12.69,5.47,5.47,0,0,1-.75,2.58A8.26,8.26,0,0,1,198.55,102.2Z" transform="translate(149.72)"/><path class="cls-4" d="M221.84,94.31a3.61,3.61,0,0,1-1.33-.13c0,.22,0,.29,0,.36s0,.13,0,.22-.16.26-.23.26-.19-.06-.39-.58c-.62-1.47-1.14-7-1.14-10a33.13,33.13,0,0,1,1.4-9.69c.3-.78.56-1.76,1.44-2.09.32,0,.94.2.81.72-.1.29-.45.49-.65.72a.36.36,0,0,0-.13.23c-1.27,2.08-1.76,7.21-1.73,9.68a6.09,6.09,0,0,1,2.25-1.79,3.88,3.88,0,0,1,3.2.2,5.9,5.9,0,0,1,3.13,4.17,5.84,5.84,0,0,1-.69,3.75A8,8,0,0,1,221.84,94.31Zm4.86-9.17a4.55,4.55,0,0,0-2.38-2,2.66,2.66,0,0,0-2.22.1,5,5,0,0,0-2.28,2.32c0,2.21.39,6.1.62,8a2.33,2.33,0,0,0,1.34,0,8.73,8.73,0,0,0,5.05-4.14A4.94,4.94,0,0,0,226.7,85.14Z" transform="translate(149.72)"/><path class="cls-4" d="M238,93.29a5.67,5.67,0,0,1-2.87,1.28,3.42,3.42,0,0,1-2.8-1,4.32,4.32,0,0,1-.82-1.14,5.17,5.17,0,0,1-.36-1,3.12,3.12,0,0,1-.85.46,1.37,1.37,0,0,1-1.07-.1.58.58,0,0,1-.1-.69,2.25,2.25,0,0,1,.59-.19c.19-.07.36-.1.49-.16s.55-.33.81-.46a15.84,15.84,0,0,1,.23-4.5,6.86,6.86,0,0,1,1.53-3.17,3.63,3.63,0,0,1,3-.68,4.77,4.77,0,0,1,2.45,2.64,1.94,1.94,0,0,1-.52,1.66c-.3.33-.66.69-1,1l-.49.45a3.79,3.79,0,0,0-.39.43A21.61,21.61,0,0,1,234,89.64c-.62.46-1.24.88-1.79,1.24a3.1,3.1,0,0,0,1.3,2.32,2.6,2.6,0,0,0,2.35.09,6.16,6.16,0,0,0,1.93-1.14,7.1,7.1,0,0,0,2.18-2.9c.17-.16.46.16.46.29a4.58,4.58,0,0,1-.75,1.93A8.14,8.14,0,0,1,238,93.29Zm-4.5-9.68A6.24,6.24,0,0,0,232.45,86a11.15,11.15,0,0,0-.3,3.62c.62-.43,1.27-.88,1.93-1.37a14.54,14.54,0,0,0,1.92-1.7c.43-.42,1-.88,1.14-1.53a4.23,4.23,0,0,0-1.37-1.77A2.55,2.55,0,0,0,233.52,83.61Z" transform="translate(149.72)"/><path class="cls-4" d="M249.47,94.11a3,3,0,0,1,0-.94.78.78,0,0,0,0-.3,52.08,52.08,0,0,0-.16-8.74,2,2,0,0,0-.13-.52.89.89,0,0,0-.26-.43.78.78,0,0,0-1-.06,5.54,5.54,0,0,0-1.11,1.2,16.91,16.91,0,0,0-2.64,5.09,23.86,23.86,0,0,0-1.08,4.6.49.49,0,0,1-.91,0c0-.59,0-1.73,0-2.35-.06-2.15-.35-5-.45-6.65a8.54,8.54,0,0,0-.49-2.71c0-.16,0-.52.32-.59a1.11,1.11,0,0,1,.82.75l.16.33c.3,2.28.43,4.6.66,6.88a27.75,27.75,0,0,1,1.72-4,14.16,14.16,0,0,1,2.55-3.39,1.76,1.76,0,0,1,1.17-.39,2,2,0,0,1,1.18.52,6.52,6.52,0,0,1,.78,2.35,34.83,34.83,0,0,1,.13,4.21c0,1.3,0,2.64-.13,4a8.11,8.11,0,0,0,1.24-1.18L253,90.2c.16-.17.39.13.36.26a11.4,11.4,0,0,1-3,4C250,94.76,249.57,94.4,249.47,94.11Z" transform="translate(149.72)"/><path class="cls-4" d="M262.33,93.29a5.67,5.67,0,0,1-2.87,1.28,3.44,3.44,0,0,1-2.81-1,4.26,4.26,0,0,1-.81-1.14,4.54,4.54,0,0,1-.36-1,3.12,3.12,0,0,1-.85.46,1.39,1.39,0,0,1-1.08-.1.58.58,0,0,1-.1-.69A2.38,2.38,0,0,1,254,91c.2-.07.36-.1.49-.16s.56-.33.82-.46a15.84,15.84,0,0,1,.23-4.5,6.76,6.76,0,0,1,1.53-3.17,3.63,3.63,0,0,1,3-.68,4.72,4.72,0,0,1,2.44,2.64,1.94,1.94,0,0,1-.52,1.66,13.81,13.81,0,0,1-1,1l-.49.45a5.06,5.06,0,0,0-.39.43,19.86,19.86,0,0,1-1.76,1.43c-.62.46-1.24.88-1.8,1.24a3.11,3.11,0,0,0,1.31,2.32,2.6,2.6,0,0,0,2.35.09,6.11,6.11,0,0,0,1.92-1.14,7.13,7.13,0,0,0,2.19-2.9c.16-.16.45.16.45.29a4.58,4.58,0,0,1-.75,1.93A8.1,8.1,0,0,1,262.33,93.29Zm-4.5-9.68A6.25,6.25,0,0,0,256.75,86a10.88,10.88,0,0,0-.29,3.62c.62-.43,1.27-.88,1.92-1.37a14.64,14.64,0,0,0,1.93-1.7c.42-.42,1-.88,1.14-1.53a4.31,4.31,0,0,0-1.37-1.77A2.54,2.54,0,0,0,257.83,83.61Z" transform="translate(149.72)"/><path class="cls-4" d="M270.35,83.28c-.09,1.7,0,5.45,0,7.34,0,1.31.06,2.64,0,3.95a17.35,17.35,0,0,1-.62,3.91,7.77,7.77,0,0,1-2,3.3.52.52,0,0,1-.55.09.27.27,0,0,1-.07-.39,11.39,11.39,0,0,0,1.67-3.32,13.49,13.49,0,0,0,.55-3.69c.07-2.71,0-8.09-.06-10.9a11.61,11.61,0,0,0-3.62,1.7c-.27.07-.46-.16-.56-.33a1.12,1.12,0,0,1,.62-1,17.32,17.32,0,0,1,3.56-1.53c.06-1.63,0-3.36.09-4.93a7.44,7.44,0,0,1,.72-3.16,2.89,2.89,0,0,1,2.38-1.63,2.23,2.23,0,0,1,1.44.62c0,.16-.16.45-.39.36a2,2,0,0,0-1,0A2.31,2.31,0,0,0,271,74.9a5.57,5.57,0,0,0-.52,2.54c0,1.57-.13,3.13-.1,4.7.59-.07,1.21-.2,1.83-.26a7.12,7.12,0,0,1,2.06.06c.42.3.06.75-.2.85A16.07,16.07,0,0,0,270.35,83.28Z" transform="translate(149.72)"/><path class="cls-4" d="M281.48,94.5a2.13,2.13,0,0,1-1.37-.26,2.54,2.54,0,0,1-.82-1.66,36.54,36.54,0,0,1,0-8c-.45.85-.91,1.63-1.4,2.45a17,17,0,0,1-2,2.64,1.49,1.49,0,0,1-.65.33.6.6,0,0,1-.33-.1.22.22,0,0,1,0-.33,21,21,0,0,0,2.51-3.65c.72-1.27,1.34-2.54,2.16-3.78.16-.27.65-.14.88,0a1,1,0,0,1,.16.84c-.42,3.3-.78,7.7-.13,9.92a.94.94,0,0,0,.62.56,1.52,1.52,0,0,0,1-.46,5.34,5.34,0,0,0,.88-1.08,7.33,7.33,0,0,0,.3-.72,2,2,0,0,1,.49-.71.64.64,0,0,1,.23.65l-.14.59a4.45,4.45,0,0,1-1.07,2A2.82,2.82,0,0,1,281.48,94.5Zm.81-19.28A19.2,19.2,0,0,0,278.22,74c-.33,0-.36-.68,0-.94a7.55,7.55,0,0,1,5.12,2,.9.9,0,0,1,.36.85,4.59,4.59,0,0,1-.75-.33Z" transform="translate(149.72)"/><path class="cls-4" d="M298.41,90.2c-1.27,2.28-3.43,4.34-6.46,4.3a3.16,3.16,0,0,1-2.71-1.89,31.42,31.42,0,0,1-.39-8.91c-1,.23-1.92.59-2.94.88a1.1,1.1,0,0,1-1-.62.42.42,0,0,1,.46-.48,1.16,1.16,0,0,0,.68-.07c.72-.2,2.19-.65,2.91-.88l.55-5.06a2.28,2.28,0,0,1,.23-.81.57.57,0,0,1,.88-.17,2.44,2.44,0,0,1,.62.62l.16.2a4,4,0,0,1,.46.62,3.29,3.29,0,0,1,.39.78c-.62-.06-.85-.39-1.27-.71a.8.8,0,0,0-.29-.2,2.25,2.25,0,0,0-.17.55l-.1,1.21c-.06,1-.22,2-.32,2.68.75-.07,1.56-.23,2.35-.33a5.73,5.73,0,0,1,2.38.2c.26.19.06.58-.13.68-.65,0-1.5.1-2.35.2a11.8,11.8,0,0,0-2.35.45,33.79,33.79,0,0,0,.2,8.35,2,2,0,0,0,1.72,1.6,6.13,6.13,0,0,0,5.65-3.19c.23-.36.42-.69.65-1s.39-.68.56-1c.06-.16.22-.1.29-.07a.33.33,0,0,1,.16.23,2.69,2.69,0,0,1-.26,1C298.77,89.61,298.57,89.94,298.41,90.2Z" transform="translate(149.72)"/><path class="cls-4" d="M301,94.44a2.12,2.12,0,0,1-1.11-1,3.82,3.82,0,0,1,0-1.47,1.58,1.58,0,0,1,.49-.78.42.42,0,0,1,.26-.07c.13,0,.2.13.2.2,0,.39-.16.88-.16,1.31s.09.58.42.68a3.62,3.62,0,0,0,1.79,0,8.4,8.4,0,0,0,4.28-1.89.59.59,0,0,0,.13-.59,2.58,2.58,0,0,0-1.31-.52c-.91-.23-1.86-.33-2.8-.49a5.61,5.61,0,0,1-2.06-.62,1.85,1.85,0,0,1-.62-2A11.43,11.43,0,0,1,303.27,83a4.68,4.68,0,0,1,2.32-1.15,2.05,2.05,0,0,1,1.14.36,1.76,1.76,0,0,1,.72,1.24.59.59,0,0,1-.43.49c-.16-.16-.26-.32-.39-.45a2.05,2.05,0,0,0-.42-.36,1,1,0,0,0-.66-.2,1.34,1.34,0,0,0-.84.33,9,9,0,0,0-2.26,2.61,7.84,7.84,0,0,0-.78,1.79.54.54,0,0,0,.13.62,1.65,1.65,0,0,0,.88.39l2.35.39a14.07,14.07,0,0,1,2.29.53,1.89,1.89,0,0,1,1.1,1,1.4,1.4,0,0,1,0,1.15,6.7,6.7,0,0,1-3.23,2.22A8.65,8.65,0,0,1,301,94.44Z" transform="translate(149.72)"/><line class="cls-5" y1="68" x2="640" y2="68"/></g></g></svg>