<svg id="レイヤー_2" data-name="レイヤー 2" xmlns="http://www.w3.org/2000/svg" xmlns:xlink="http://www.w3.org/1999/xlink" viewBox="0 0 1300 721"><defs><style>.cls-1{fill:url(#名称未設定グラデーション_5);}.cls-2{fill-opacity:0.8;fill:url(#名称未設定グラデーション_123);}.cls-3{fill:url(#名称未設定グラデーション_14);}.cls-4{fill:url(#名称未設定グラデーション_14-2);}.cls-5{fill:url(#名称未設定グラデーション_14-3);}.cls-6{fill:url(#名称未設定グラデーション_14-4);}.cls-7{fill:url(#名称未設定グラデーション_14-5);}.cls-8{fill:url(#名称未設定グラデーション_275);}.cls-9{fill:url(#名称未設定グラデーション_275-2);}.cls-10{fill:url(#名称未設定グラデーション_275-3);}.cls-11{fill:url(#名称未設定グラデーション_275-4);}.cls-12{fill:url(#名称未設定グラデーション_295);}.cls-13{fill:url(#名称未設定グラデーション_295-2);}.cls-14{fill:url(#名称未設定グラデーション_275-5);}.cls-15{fill:url(#名称未設定グラデーション_275-6);}.cls-16{fill:url(#名称未設定グラデーション_275-7);}.cls-17{fill:url(#名称未設定グラデーション_275-8);}.cls-18{fill:url(#名称未設定グラデーション_295-3);}.cls-19{fill:url(#名称未設定グラデーション_295-4);}.cls-20{fill:url(#名称未設定グラデーション_14-6);}.cls-21{fill:url(#名称未設定グラデーション_14-7);}.cls-22{fill:url(#名称未設定グラデーション_14-8);}.cls-23{fill:url(#名称未設定グラデーション_14-9);}.cls-24{fill:url(#名称未設定グラデーション_14-10);}.cls-25{fill:url(#名称未設定グラデーション_275-9);}.cls-26{fill:url(#名称未設定グラデーション_275-10);}.cls-27{fill:url(#名称未設定グラデーション_275-11);}.cls-28{fill:url(#名称未設定グラデーション_275-12);}.cls-29{fill:url(#名称未設定グラデーション_295-5);}.cls-30{fill:url(#名称未設定グラデーション_295-6);}.cls-31{fill:url(#名称未設定グラデーション_275-13);}.cls-32{fill:url(#名称未設定グラデーション_275-14);}.cls-33{fill:url(#名称未設定グラデーション_275-15);}.cls-34{fill:url(#名称未設定グラデーション_275-16);}.cls-35{fill:url(#名称未設定グラデーション_295-7);}.cls-36{fill:url(#名称未設定グラデーション_295-8);}.cls-37,.cls-38{font-size:26.57px;}.cls-37,.cls-41{fill:red;}.cls-37,.cls-38,.cls-40,.cls-41,.cls-42{font-family:HanziPenSC-W5-GBpc-EUC-H, HanziPen SC;}.cls-38,.cls-42{fill:none;stroke:red;stroke-miterlimit:10;}.cls-39{fill:url(#名称未設定グラデーション_3);}.cls-40,.cls-41,.cls-42{font-size:33.42px;letter-spacing:-0.1em;}.cls-42{stroke-width:1.5px;}</style><linearGradient id="名称未設定グラデーション_5" x1="402.3" y1="480.09" x2="898.82" y2="391.84" gradientUnits="userSpaceOnUse"><stop offset="0" stop-color="#eb758d"/><stop offset="0.56" stop-color="#f6c3b7"/><stop offset="1" stop-color="#eb758d"/></linearGradient><linearGradient id="名称未設定グラデーション_123" x1="650.56" y1="248.08" x2="650.56" y2="612.87" gradientUnits="userSpaceOnUse"><stop offset="0.81" stop-color="#fff"/><stop offset="1" stop-color="#fcefea"/></linearGradient><linearGradient id="名称未設定グラデーション_14" x1="-1693.5" y1="5808.46" x2="-1693.78" y2="5813.18" gradientTransform="matrix(0.77, -0.64, -0.64, -0.77, 5868.65, 4005.69)" gradientUnits="userSpaceOnUse"><stop offset="0" stop-color="#fff"/><stop offset="0.13" stop-color="#fcebe9"/><stop offset="0.37" stop-color="#f8cdc7"/><stop offset="0.56" stop-color="#f5bbb3"/><stop offset="0.69" stop-color="#f4b4ab"/><stop offset="1" stop-color="#ea6887"/></linearGradient><linearGradient id="名称未設定グラデーション_14-2" x1="4359.71" y1="4146.19" x2="4359.42" y2="4150.91" gradientTransform="matrix(-0.16, -0.99, -0.99, 0.16, 5677.35, 4211.05)" xlink:href="#名称未設定グラデーション_14"/><linearGradient id="名称未設定グラデーション_14-3" x1="5515.16" y1="2528.09" x2="5514.87" y2="2532.8" gradientTransform="translate(5887.86 4000.55) rotate(-170.53)" xlink:href="#名称未設定グラデーション_14"/><linearGradient id="名称未設定グラデーション_14-4" x1="4453.11" y1="-4577.39" x2="4452.82" y2="-4572.68" gradientTransform="translate(6175.8 4133.98) rotate(-100.56)" xlink:href="#名称未設定グラデーション_14"/><linearGradient id="名称未設定グラデーション_14-5" x1="5577.52" y1="-2937.87" x2="5577.24" y2="-2933.16" gradientTransform="matrix(-0.98, -0.18, -0.18, 0.98, 5810.6, 4499.17)" xlink:href="#名称未設定グラデーション_14"/><linearGradient id="名称未設定グラデーション_275" x1="838.88" y1="596.97" x2="855.28" y2="596.81" gradientUnits="userSpaceOnUse"><stop offset="0.31" stop-color="#f6c3b7"/><stop offset="1" stop-color="#eb758d"/></linearGradient><linearGradient id="名称未設定グラデーション_275-2" x1="850.7" y1="590.75" x2="859.63" y2="590" xlink:href="#名称未設定グラデーション_275"/><linearGradient id="名称未設定グラデーション_275-3" x1="862.26" y1="594.9" x2="854.63" y2="595.54" xlink:href="#名称未設定グラデーション_275"/><linearGradient id="名称未設定グラデーション_275-4" x1="841.92" y1="600.87" x2="852.27" y2="593.38" xlink:href="#名称未設定グラデーション_275"/><linearGradient id="名称未設定グラデーション_295" x1="839.54" y1="596.4" x2="828.38" y2="598.09" gradientUnits="userSpaceOnUse"><stop offset="0" stop-color="#f6c3b7"/><stop offset="1" stop-color="#eb758d"/></linearGradient><linearGradient id="名称未設定グラデーション_295-2" x1="832.22" y1="596.66" x2="822.57" y2="598.12" xlink:href="#名称未設定グラデーション_295"/><linearGradient id="名称未設定グラデーション_275-5" x1="867.17" y1="568.74" x2="867" y2="585.14" xlink:href="#名称未設定グラデーション_275"/><linearGradient id="名称未設定グラデーション_275-6" x1="860.95" y1="580.56" x2="860.19" y2="589.5" xlink:href="#名称未設定グラデーション_275"/><linearGradient id="名称未設定グラデーション_275-7" x1="865.09" y1="592.13" x2="865.74" y2="584.49" xlink:href="#名称未設定グラデーション_275"/><linearGradient id="名称未設定グラデーション_275-8" x1="871.06" y1="571.78" x2="863.58" y2="582.13" xlink:href="#名称未設定グラデーション_275"/><linearGradient id="名称未設定グラデーション_295-3" x1="866.59" y1="569.4" x2="868.29" y2="558.23" xlink:href="#名称未設定グラデーション_295"/><linearGradient id="名称未設定グラデーション_295-4" x1="866.86" y1="562.08" x2="868.32" y2="552.43" xlink:href="#名称未設定グラデーション_295"/><linearGradient id="名称未設定グラデーション_14-6" x1="682.21" y1="6654.47" x2="681.93" y2="6659.18" gradientTransform="matrix(-0.77, 0.64, 0.64, 0.77, -3272.61, -5298.94)" xlink:href="#名称未設定グラデーション_14"/><linearGradient id="名称未設定グラデーション_14-7" x1="6280.23" y1="2511.77" x2="6279.94" y2="2516.49" gradientTransform="matrix(0.16, 0.99, 0.99, -0.16, -3081.31, -5504.31)" xlink:href="#名称未設定グラデーション_14"/><linearGradient id="名称未設定グラデーション_14-8" x1="4592.6" y1="4875.13" x2="4592.32" y2="4879.84" gradientTransform="translate(-3291.82 -5293.8) rotate(9.47)" xlink:href="#名称未設定グラデーション_14"/><linearGradient id="名称未設定グラデーション_14-9" x1="6342.29" y1="-2906.85" x2="6342" y2="-2902.13" gradientTransform="translate(-3579.76 -5427.23) rotate(79.44)" xlink:href="#名称未設定グラデーション_14"/><linearGradient id="名称未設定グラデーション_14-10" x1="4699.65" y1="-5301.99" x2="4699.36" y2="-5297.28" gradientTransform="matrix(0.98, 0.18, 0.18, -0.98, -3214.57, -5792.42)" xlink:href="#名称未設定グラデーション_14"/><linearGradient id="名称未設定グラデーション_275-9" x1="2135.03" y1="-1566.29" x2="2151.43" y2="-1566.46" gradientTransform="translate(2596.04 -1293.25) rotate(180)" xlink:href="#名称未設定グラデーション_275"/><linearGradient id="名称未設定グラデーション_275-10" x1="2146.85" y1="-1572.51" x2="2155.78" y2="-1573.27" gradientTransform="translate(2596.04 -1293.25) rotate(180)" xlink:href="#名称未設定グラデーション_275"/><linearGradient id="名称未設定グラデーション_275-11" x1="2158.41" y1="-1568.37" x2="2150.78" y2="-1567.72" gradientTransform="translate(2596.04 -1293.25) rotate(180)" xlink:href="#名称未設定グラデーション_275"/><linearGradient id="名称未設定グラデーション_275-12" x1="2138.07" y1="-1562.4" x2="2148.42" y2="-1569.88" gradientTransform="translate(2596.04 -1293.25) rotate(180)" xlink:href="#名称未設定グラデーション_275"/><linearGradient id="名称未設定グラデーション_295-5" x1="2135.69" y1="-1566.87" x2="2124.53" y2="-1565.17" gradientTransform="translate(2596.04 -1293.25) rotate(180)" xlink:href="#名称未設定グラデーション_295"/><linearGradient id="名称未設定グラデーション_295-6" x1="2128.37" y1="-1566.6" x2="2118.72" y2="-1565.14" gradientTransform="translate(2596.04 -1293.25) rotate(180)" xlink:href="#名称未設定グラデーション_295"/><linearGradient id="名称未設定グラデーション_275-13" x1="2163.32" y1="-1594.52" x2="2163.15" y2="-1578.12" gradientTransform="translate(2596.04 -1293.25) rotate(180)" xlink:href="#名称未設定グラデーション_275"/><linearGradient id="名称未設定グラデーション_275-14" x1="2157.1" y1="-1582.7" x2="2156.34" y2="-1573.77" gradientTransform="translate(2596.04 -1293.25) rotate(180)" xlink:href="#名称未設定グラデーション_275"/><linearGradient id="名称未設定グラデーション_275-15" x1="2161.24" y1="-1571.14" x2="2161.89" y2="-1578.77" gradientTransform="translate(2596.04 -1293.25) rotate(180)" xlink:href="#名称未設定グラデーション_275"/><linearGradient id="名称未設定グラデーション_275-16" x1="2167.21" y1="-1591.48" x2="2159.73" y2="-1581.13" gradientTransform="translate(2596.04 -1293.25) rotate(180)" xlink:href="#名称未設定グラデーション_275"/><linearGradient id="名称未設定グラデーション_295-7" x1="2162.74" y1="-1593.87" x2="2164.44" y2="-1605.03" gradientTransform="translate(2596.04 -1293.25) rotate(180)" xlink:href="#名称未設定グラデーション_295"/><linearGradient id="名称未設定グラデーション_295-8" x1="2163.01" y1="-1601.19" x2="2164.47" y2="-1610.84" gradientTransform="translate(2596.04 -1293.25) rotate(180)" xlink:href="#名称未設定グラデーション_295"/><radialGradient id="名称未設定グラデーション_3" cx="569.41" cy="417.72" r="78.38" gradientTransform="matrix(1.34, 0.23, -0.24, 1.29, -11.77, -316.14)" gradientUnits="userSpaceOnUse"><stop offset="0" stop-color="#fff"/><stop offset="1" stop-color="#fdefef"/></radialGradient></defs><path class="cls-1" d="M424.86,607h451.4V264.93H424.86Zm4.67-337.72h442.9V602.71H429.53Z"/><rect class="cls-2" x="429.15" y="269.29" width="442.83" height="333.43"/><path class="cls-3" d="M865.63,594.77c.06.43.13,1.33.16,1.48a1.34,1.34,0,0,0,.32.68c.21.21,1.43.89,1.66.72s0-.37.13-.54.47,0,.62-.2-.51-1.46-.73-1.66a1.27,1.27,0,0,0-.68-.32C867,594.89,866.06,594.82,865.63,594.77Z"/><path class="cls-4" d="M865.55,594.13c.4.17,1.22.56,1.36.6a1.37,1.37,0,0,0,.75.07c.28-.07,1.48-.8,1.45-1.08s-.3-.22-.4-.38.24-.41.13-.64-1.51-.28-1.8-.2a1.29,1.29,0,0,0-.62.43C866.32,593,865.81,593.78,865.55,594.13Z"/><path class="cls-5" d="M865,594.68c.18.4.57,1.22.61,1.36a1.28,1.28,0,0,1,.06.75c-.07.29-.79,1.49-1.08,1.46s-.22-.31-.38-.41-.4.24-.63.14-.29-1.52-.2-1.8a1.28,1.28,0,0,1,.42-.62C863.9,595.46,864.65,594.94,865,594.68Z"/><path class="cls-6" d="M864.93,594.33c-.32.29-.95.94-1.07,1a1.22,1.22,0,0,1-.68.31c-.3,0-1.67-.23-1.74-.51s.21-.31.25-.49-.36-.3-.34-.55,1.32-.79,1.62-.81a1.25,1.25,0,0,1,.73.19C863.83,593.57,864.57,594.09,864.93,594.33Z"/><path class="cls-7" d="M865.19,594.07c.3-.32.95-1,1-1.07a1.3,1.3,0,0,0,.32-.69c0-.29-.24-1.66-.51-1.74s-.32.22-.5.26-.3-.37-.55-.35-.79,1.33-.81,1.63a1.32,1.32,0,0,0,.19.72C864.43,593,865,593.7,865.19,594.07Z"/><path class="cls-8" d="M855,598.14h0l-.14,0a1.8,1.8,0,0,1-.51-.25,5.49,5.49,0,0,1-.68-.54c-.13-.11-.26-.23-.41-.34l-.23-.17-.25-.16a5.32,5.32,0,0,0-2.59-.81,3.9,3.9,0,0,0-1.5.24,9.66,9.66,0,0,0-1.43.73c-.48.27-1,.53-1.46.77a7.31,7.31,0,0,1-1.55.54,5.16,5.16,0,0,1-.79.09h-.38l-.38,0a4.81,4.81,0,0,1-1.33-.39,6.14,6.14,0,0,1-1-.56,5.72,5.72,0,0,1-.69-.55,4.32,4.32,0,0,1-.41-.38l-.14-.14a0,0,0,0,1,0,0h0l.16.11c.11.08.26.19.46.31s.45.28.74.43a7.84,7.84,0,0,0,1,.45,5.13,5.13,0,0,0,1.24.27l.33,0h.35a6,6,0,0,0,.71-.09,7.68,7.68,0,0,0,1.46-.46c.49-.2,1-.44,1.46-.69a12.25,12.25,0,0,1,1.51-.7,4.32,4.32,0,0,1,1.62-.2,5.06,5.06,0,0,1,1.49.32,6.65,6.65,0,0,1,1.19.63l.25.18.23.18c.15.12.27.25.39.36a5.08,5.08,0,0,0,.65.57,1.79,1.79,0,0,0,.48.26l.14,0h0s0,0,0,0S855.05,598.14,855,598.14Z"/><path class="cls-9" d="M856.52,591.35a.5.5,0,0,0,.15-.32.56.56,0,0,0-.13-.4.69.69,0,0,0-.52-.21.65.65,0,0,0-.32.11.76.76,0,0,0-.25.28.82.82,0,0,0,0,.8,1,1,0,0,0,.81.44,1,1,0,0,0,.49-.11,1,1,0,0,0,.39-.37,1.23,1.23,0,0,0,.16-1.09A1.26,1.26,0,0,0,857,590l-.12-.1-.12-.09-.13-.08-.15-.07a1.6,1.6,0,0,0-1.25,0,1.83,1.83,0,0,0-.88,1,2,2,0,0,0,0,1.37,1.7,1.7,0,0,0,.35.61,2.16,2.16,0,0,0,.54.46A2.45,2.45,0,0,0,858,593a3.22,3.22,0,0,0,.28-.24l0,0,0,0,.06-.07.13-.15a2.82,2.82,0,0,0,.37-.63,2.88,2.88,0,0,0,.28-1.41,3.06,3.06,0,0,0-.39-1.37,2.52,2.52,0,0,0-.41-.56l-.11-.13-.13-.12c-.1-.08-.19-.17-.28-.23a3.81,3.81,0,0,0-1.2-.62,4.06,4.06,0,0,0-1.29-.18,3.77,3.77,0,0,0-1.22.23l-.28.11a1.26,1.26,0,0,0-.26.13l-.26.14-.23.16a1.92,1.92,0,0,0-.22.18l-.2.18a1.89,1.89,0,0,0-.2.2l-.17.19a5.69,5.69,0,0,0-.56.82,5.51,5.51,0,0,0-.35.81,6.1,6.1,0,0,0-.2.72,5.8,5.8,0,0,0-.09,1c0,.12,0,.22,0,.28v.1h0s0,0,0,0l0,0v-.09c0-.07,0-.16,0-.28a5.15,5.15,0,0,1,.48-2.72,4.83,4.83,0,0,1,.54-.91l.18-.22.18-.21.22-.22.23-.2a4.31,4.31,0,0,1,5.32-.05,2.62,2.62,0,0,1,.3.24l.15.14.13.15a3.5,3.5,0,0,1,.53,3.88,3.21,3.21,0,0,1-.45.72l-.14.15-.07.07,0,0,0,.05c-.11.09-.22.19-.34.27a2.74,2.74,0,0,1-1.59.51,2.82,2.82,0,0,1-1.58-.45,3,3,0,0,1-.62-.55,2.32,2.32,0,0,1-.4-.72,2.26,2.26,0,0,1,.06-1.58,2,2,0,0,1,1-1.12,1.83,1.83,0,0,1,1.45,0l.17.08.15.1.15.11.12.12a1.48,1.48,0,0,1,.36.6,1.47,1.47,0,0,1-.21,1.26,1.26,1.26,0,0,1-.46.4,1.21,1.21,0,0,1-.58.12,1.06,1.06,0,0,1-.53-.16.69.69,0,0,1-.21-.16,1.06,1.06,0,0,1-.17-.2.94.94,0,0,1,0-.92.79.79,0,0,1,.29-.31.69.69,0,0,1,.36-.11.74.74,0,0,1,.58.25.59.59,0,0,1,.14.45.57.57,0,0,1-.11.27l-.06.08h0A0,0,0,0,1,856.52,591.35Z"/><path class="cls-10" d="M856.51,598.66l-.12.06a1.21,1.21,0,0,1-.37.08,1.1,1.1,0,0,1-.58-.12.89.89,0,0,1-.29-.26A1,1,0,0,1,855,598a1.15,1.15,0,0,1,.25-.91,2.78,2.78,0,0,1,.79-.65,8.67,8.67,0,0,1,1-.47c.33-.14.68-.27,1-.42a9.25,9.25,0,0,0,.92-.54c.29-.2.56-.4.82-.61a8.75,8.75,0,0,0,.71-.62,5.28,5.28,0,0,0,.56-.63l.21-.31c.06-.1.11-.2.17-.29l.12-.27a1.68,1.68,0,0,0,.08-.24,1.86,1.86,0,0,0,.09-.36l0-.12h0l0,0s0,0,0,0v.13a2.36,2.36,0,0,1,0,.38c0,.08,0,.18,0,.27l-.08.32-.13.35a4,4,0,0,1-.18.36,4.55,4.55,0,0,1-.54.75,6.21,6.21,0,0,1-.74.7,8.22,8.22,0,0,1-.9.59,10.2,10.2,0,0,1-1,.5c-.36.16-.7.26-1,.39a7.53,7.53,0,0,0-.95.4,2.54,2.54,0,0,0-.75.54.91.91,0,0,0-.26.73.9.9,0,0,0,.1.34.77.77,0,0,0,.22.22.93.93,0,0,0,.52.15,1,1,0,0,0,.35-.05l.12,0s0,0,0,0,0,0,0,0Z"/><path class="cls-11" d="M839.4,597l.12-.15.15-.18.23-.23c.08-.08.19-.16.3-.25l.18-.13.21-.13a3.42,3.42,0,0,1,1-.38,4.85,4.85,0,0,1,1.33,0,9.63,9.63,0,0,1,1.45.26c1,.25,2,.6,3.05.82a6.35,6.35,0,0,0,1.55.17h.19l.18,0,.37,0h.08l.09,0,.09,0,.08,0a1.73,1.73,0,0,0,.32-.14c.43-.2.85-.47,1.3-.66a3,3,0,0,1,.71-.19,2.1,2.1,0,0,1,.71,0l.14,0,.16.06a1.22,1.22,0,0,1,.28.14,1.8,1.8,0,0,1,.44.37,1.62,1.62,0,0,1,.35.84,1.84,1.84,0,0,1,0,.57l-.06.19s0,0,0,0,0,0,0,0h0v-.2a1.78,1.78,0,0,0,0-.52,1.47,1.47,0,0,0-.39-.67,1.57,1.57,0,0,0-.89-.41,2,2,0,0,0-1.13.2c-.39.19-.79.46-1.28.69a2.15,2.15,0,0,1-.38.15l-.11,0-.09,0-.1,0h-.11a2.85,2.85,0,0,1-.41,0l-.21,0H849a7.46,7.46,0,0,1-1.64-.24c-1.06-.27-2.07-.66-3-.94a11,11,0,0,0-1.4-.3,4.6,4.6,0,0,0-1.28,0,3.22,3.22,0,0,0-1,.32,1.43,1.43,0,0,0-.21.12l-.18.11c-.11.09-.22.16-.31.24l-.22.21a1.2,1.2,0,0,0-.16.17l-.13.14h0A0,0,0,0,1,839.4,597Z"/><path class="cls-12" d="M839.39,597l-.1.08-.3.21-.22.14-.26.15a7.19,7.19,0,0,1-.67.31l-.4.14-.44.11a5.16,5.16,0,0,1-1,.11,6.22,6.22,0,0,1-1-.06,7.64,7.64,0,0,1-1.06-.21l-1-.29-1-.3-.9-.27a7.92,7.92,0,0,0-.81-.2l-.37-.07-.33,0-.55,0h-.49a0,0,0,0,1,0,0l0,0,.12,0a2.31,2.31,0,0,1,.36-.09l.26,0,.31,0a6.24,6.24,0,0,1,.75,0l.43.05.45.08a9.41,9.41,0,0,1,.94.25c.32.1.65.23,1,.35s.65.24,1,.35a7.36,7.36,0,0,0,1,.26,7,7,0,0,0,1,.11,5.8,5.8,0,0,0,.94,0l.43-.08.39-.11a6.27,6.27,0,0,0,.67-.26l.27-.13.23-.12.31-.18.1-.07s0,0,0,0S839.4,597,839.39,597Z"/><path class="cls-13" d="M832.08,597.33s-.12.11-.34.28a5,5,0,0,1-1,.61,3.47,3.47,0,0,1-.73.28l-.2,0-.22,0a2.12,2.12,0,0,1-.44,0,5.06,5.06,0,0,1-1.88-.35c-.31-.11-.6-.23-.89-.36l-.83-.36-.76-.35a6.74,6.74,0,0,0-.69-.26l-.16-.06-.15,0-.29-.08-.48-.07-.43,0h0s0,0,0,0l0,0s.15,0,.43-.11l.52,0,.31,0H824l.17,0,.38.08.39.12a6.89,6.89,0,0,1,.81.33c.54.26,1.08.58,1.65.82a4.76,4.76,0,0,0,1.71.44,2.06,2.06,0,0,0,.43,0l.2,0,.2,0a4.26,4.26,0,0,0,.71-.21,5.93,5.93,0,0,0,1-.52l.36-.25h0a0,0,0,0,1,0,0Z"/><path class="cls-14" d="M868.29,584.91v0l0-.14a1.79,1.79,0,0,0-.26-.48,7.16,7.16,0,0,0-.57-.64,4.81,4.81,0,0,1-.36-.4l-.18-.22-.18-.26a5.37,5.37,0,0,1-1-2.67,4.31,4.31,0,0,1,.21-1.62,9.46,9.46,0,0,1,.7-1.51c.25-.49.49-1,.69-1.47a8.21,8.21,0,0,0,.46-1.46,5.74,5.74,0,0,0,.09-.71c0-.06,0-.12,0-.18v-.16c0-.11,0-.23,0-.34a5.35,5.35,0,0,0-.28-1.24,6.11,6.11,0,0,0-.44-1c-.15-.29-.3-.54-.43-.74l-.31-.46-.11-.16s0,0,0,0h0l.15.14.38.41a6.78,6.78,0,0,1,1.11,1.7,5,5,0,0,1,.39,1.32c0,.13,0,.25,0,.38v.39a5.51,5.51,0,0,1-.1.79,7.2,7.2,0,0,1-.53,1.54c-.24.5-.51,1-.78,1.47a10.64,10.64,0,0,0-.72,1.43A3.9,3.9,0,0,0,866,580a5.25,5.25,0,0,0,.81,2.59l.16.25.17.23a4.69,4.69,0,0,0,.33.4,6.58,6.58,0,0,1,.55.68,1.88,1.88,0,0,1,.24.52l0,.14v0s0,0,0,0S868.29,584.92,868.29,584.91Z"/><path class="cls-15" d="M861.58,586.42l-.07.07a.61.61,0,0,1-.72,0,.72.72,0,0,1-.25-.58.75.75,0,0,1,.11-.37.77.77,0,0,1,.31-.28.9.9,0,0,1,.91,0,.65.65,0,0,1,.21.16,1.66,1.66,0,0,1,.16.21,1.1,1.1,0,0,1,.16.54,1.15,1.15,0,0,1-.12.57,1.21,1.21,0,0,1-.41.46,1.46,1.46,0,0,1-1.26.21,1.58,1.58,0,0,1-.6-.35l-.11-.13-.12-.14-.09-.16c0-.05-.05-.11-.08-.16a1.81,1.81,0,0,1,0-1.46,2.13,2.13,0,0,1,1.11-1,2.34,2.34,0,0,1,1.59-.05,2.29,2.29,0,0,1,.72.39,3,3,0,0,1,.55.62,2.88,2.88,0,0,1,.45,1.59,2.85,2.85,0,0,1-.52,1.59,2.69,2.69,0,0,1-.26.33l0,.05,0,0-.08.07-.14.13a4,4,0,0,1-.72.46,3.54,3.54,0,0,1-3.21-.07,3.46,3.46,0,0,1-.67-.46l-.15-.14-.14-.15a2.49,2.49,0,0,1-.25-.29,4.33,4.33,0,0,1-.88-2.84,4.24,4.24,0,0,1,.94-2.48,1.5,1.5,0,0,1,.2-.23,2.18,2.18,0,0,1,.21-.22l.22-.19.22-.18a5.43,5.43,0,0,1,.91-.54,5.11,5.11,0,0,1,1.63-.47,4.75,4.75,0,0,1,1.08,0l.29,0,.09,0s0,0,0,0l0,0h-.38a5.09,5.09,0,0,0-1.05.1,3.83,3.83,0,0,0-.73.2,4.23,4.23,0,0,0-.8.35,4.59,4.59,0,0,0-.82.56l-.2.17-.2.19-.17.21a1.92,1.92,0,0,0-.18.22l-.16.23-.15.25a2.21,2.21,0,0,0-.12.27,1.36,1.36,0,0,0-.11.28,3.48,3.48,0,0,0-.23,1.22,4.14,4.14,0,0,0,.18,1.29,3.81,3.81,0,0,0,.62,1.2,2.76,2.76,0,0,0,.23.27l.12.13.12.12a3.3,3.3,0,0,0,.57.41,3.13,3.13,0,0,0,2.78.11,3.76,3.76,0,0,0,.62-.37l.15-.13.08-.07,0,0,0,0a2,2,0,0,0,.23-.28,2.31,2.31,0,0,0,.47-1.36,2.42,2.42,0,0,0-.37-1.39,2.45,2.45,0,0,0-.47-.55,2,2,0,0,0-2-.33,1.89,1.89,0,0,0-1,.88,1.58,1.58,0,0,0,0,1.26.61.61,0,0,0,.07.14,1,1,0,0,0,.08.14l.08.12.11.12a1.31,1.31,0,0,0,.5.31,1.25,1.25,0,0,0,1.1-.15,1.12,1.12,0,0,0,.36-.39,1,1,0,0,0-.32-1.31.79.79,0,0,0-.8,0,.67.67,0,0,0-.28.24.65.65,0,0,0-.11.32.68.68,0,0,0,.21.52.51.51,0,0,0,.4.13.45.45,0,0,0,.32-.15h0S861.59,586.41,861.58,586.42Z"/><path class="cls-16" d="M868.81,586.35l.05-.12a1,1,0,0,0-.1-.86.54.54,0,0,0-.23-.22.72.72,0,0,0-.34-.1.89.89,0,0,0-.72.25,2.7,2.7,0,0,0-.55.75,9,9,0,0,0-.4,1c-.12.34-.22.67-.38,1s-.32.66-.5,1a7,7,0,0,1-.6.9,5.5,5.5,0,0,1-.7.74,4.33,4.33,0,0,1-.74.54l-.37.19-.34.13-.32.07-.27,0a2.33,2.33,0,0,1-.38,0h-.14s0,0,0,0l0,0h0l.13,0a3,3,0,0,0,.35-.09l.24-.09.28-.12.29-.16.31-.22a7.49,7.49,0,0,0,.63-.55c.21-.22.41-.46.62-.72s.41-.53.61-.82a10.12,10.12,0,0,0,.54-.92c.15-.29.28-.65.42-1a7.76,7.76,0,0,1,.47-1,2.65,2.65,0,0,1,.65-.79,1.1,1.1,0,0,1,.9-.25,1,1,0,0,1,.4.15.74.74,0,0,1,.25.28,1,1,0,0,1,.13.58,1.37,1.37,0,0,1-.08.38l-.06.12h0S868.81,586.37,868.81,586.35Z"/><path class="cls-17" d="M867.19,569.3l-.14.13-.18.16-.21.23-.23.3-.12.19a1.28,1.28,0,0,0-.11.2,3.37,3.37,0,0,0-.32,1,4.52,4.52,0,0,0,0,1.27,9.58,9.58,0,0,0,.31,1.4c.28,1,.67,2,.94,3a7.46,7.46,0,0,1,.24,1.64v.41a3,3,0,0,1,0,.42v0h0v0l0,.09s0,.06,0,.1l0,.1a2.89,2.89,0,0,1-.15.39c-.23.48-.51.88-.69,1.27a1.89,1.89,0,0,0-.2,1.14,1.51,1.51,0,0,0,.41.88,1.4,1.4,0,0,0,.67.4,2.22,2.22,0,0,0,.52,0l.19,0h0l0,0s0,0,0,0l-.19.06a1.8,1.8,0,0,1-.56,0,1.47,1.47,0,0,1-.84-.35,1.56,1.56,0,0,1-.37-.43,1.47,1.47,0,0,1-.14-.28l-.06-.16a.83.83,0,0,1,0-.15,1.82,1.82,0,0,1,0-.7,2.58,2.58,0,0,1,.19-.71c.18-.46.46-.87.66-1.31a2.12,2.12,0,0,0,.14-.31l0-.08s0-.06,0-.09l0-.1v0s0,0,0,0h0v0c0-.12,0-.24.06-.36l0-.19v-.18a6.88,6.88,0,0,0-.17-1.55c-.22-1-.57-2.06-.82-3.05a9.63,9.63,0,0,1-.26-1.45,4.49,4.49,0,0,1,.05-1.33,3.16,3.16,0,0,1,.38-1.06,1.37,1.37,0,0,1,.13-.2l.12-.19.26-.3.23-.22.18-.15.15-.13s0,0,0,0A0,0,0,0,1,867.19,569.3Z"/><path class="cls-18" d="M867.19,569.22l.06-.11a2.21,2.21,0,0,0,.19-.31l.12-.22.13-.27a6.27,6.27,0,0,0,.26-.67c0-.13.07-.26.11-.4s.06-.28.07-.43a5.59,5.59,0,0,0,.06-.93,7,7,0,0,0-.11-1c-.07-.34-.16-.67-.26-1s-.23-.67-.35-1-.25-.65-.35-1a8.91,8.91,0,0,1-.25-.95c0-.15-.06-.3-.08-.45s0-.29,0-.42a4.68,4.68,0,0,1,0-.75l0-.31c0-.1,0-.19,0-.26a2.13,2.13,0,0,1,.1-.36l0-.13s0,0,0,0,0,0,0,0h0v.13c0,.09,0,.21,0,.36s0,.34,0,.55l.05.34.06.36c.06.26.12.53.21.82s.17.59.27.9.2.64.3,1,.2.69.29,1a9.63,9.63,0,0,1,.21,1.07,7.4,7.4,0,0,1,.06,1,5,5,0,0,1-.11,1c0,.16-.08.3-.11.45s-.09.27-.14.4a6.93,6.93,0,0,1-.31.66l-.15.27-.15.22c-.08.13-.16.23-.21.3l-.07.1h0S867.18,569.23,867.19,569.22Z"/><path class="cls-19" d="M867.49,561.9s.09-.12.24-.35a5.55,5.55,0,0,0,.53-1,4.69,4.69,0,0,0,.21-.72l0-.19s0-.14,0-.2a3.09,3.09,0,0,0,0-.43,4.81,4.81,0,0,0-.44-1.72c-.24-.56-.57-1.1-.82-1.64a7.67,7.67,0,0,1-.33-.81l-.12-.39c0-.13-.05-.26-.08-.38l0-.18v-.17c0-.11,0-.22,0-.32a3.52,3.52,0,0,1,0-.51c.06-.28.11-.43.11-.43s0,0,0,0l0,0h0s0,.17,0,.43.05.3.07.48l.07.29,0,.16.06.16a6.62,6.62,0,0,0,.26.68l.34.76c.13.27.25.55.37.84s.25.58.36.88a5.13,5.13,0,0,1,.35,1.88,2.06,2.06,0,0,1,0,.44,1.66,1.66,0,0,1,0,.22c0,.07,0,.14,0,.21a4.44,4.44,0,0,1-.28.73,5.69,5.69,0,0,1-.61,1c-.18.22-.29.33-.29.33h0A0,0,0,0,1,867.49,561.9Z"/><path class="cls-20" d="M434.25,275.24c-.05-.43-.12-1.33-.15-1.47a1.27,1.27,0,0,0-.32-.68c-.21-.22-1.43-.89-1.67-.73s0,.38-.12.54-.47,0-.62.2.51,1.46.73,1.67a1.39,1.39,0,0,0,.68.32C432.92,275.12,433.82,275.19,434.25,275.24Z"/><path class="cls-21" d="M434.34,275.88c-.4-.17-1.22-.56-1.36-.6a1.28,1.28,0,0,0-.75-.06c-.29.07-1.48.79-1.46,1.08s.31.21.41.37-.24.41-.13.64,1.51.29,1.8.2a1.32,1.32,0,0,0,.62-.43C433.57,277,434.08,276.23,434.34,275.88Z"/><path class="cls-22" d="M434.89,275.33c-.17-.4-.56-1.22-.6-1.36a1.28,1.28,0,0,1-.06-.75c.07-.29.79-1.48,1.08-1.46s.22.31.37.41.41-.24.64-.14.29,1.52.2,1.81a1.29,1.29,0,0,1-.42.61C436,274.56,435.24,275.07,434.89,275.33Z"/><path class="cls-23" d="M435,275.68c.31-.29,1-.94,1.07-1a1.29,1.29,0,0,1,.68-.31c.3,0,1.67.23,1.74.51s-.21.31-.25.49.36.3.34.56-1.33.79-1.62.8a1.25,1.25,0,0,1-.73-.19C436.06,276.45,435.32,275.92,435,275.68Z"/><path class="cls-24" d="M434.7,276c-.3.31-.95.95-1,1.07a1.29,1.29,0,0,0-.31.68c0,.29.24,1.67.51,1.74s.31-.22.5-.25.3.36.55.34.79-1.33.81-1.62a1.34,1.34,0,0,0-.2-.73C435.46,277.05,434.93,276.31,434.7,276Z"/><path class="cls-25" d="M444.85,271.87h0l.15,0a1.84,1.84,0,0,1,.51.24,6.58,6.58,0,0,1,.68.55c.12.11.26.22.4.33l.24.17.25.16a5.22,5.22,0,0,0,2.59.81,3.85,3.85,0,0,0,1.49-.24,10.74,10.74,0,0,0,1.44-.72c.47-.27,1-.54,1.46-.78a7.39,7.39,0,0,1,1.54-.53,5.47,5.47,0,0,1,.8-.1h.38c.13,0,.26,0,.38,0a5.18,5.18,0,0,1,1.33.39,5.48,5.48,0,0,1,1,.57,5.55,5.55,0,0,1,.69.54c.19.16.32.29.41.38l.14.15a0,0,0,0,1,0,0h0l-.16-.11-.46-.31c-.2-.13-.45-.28-.74-.43a6.67,6.67,0,0,0-1-.44,5.23,5.23,0,0,0-1.24-.28l-.33,0h-.35a6,6,0,0,0-.71.09,8.47,8.47,0,0,0-1.46.46c-.49.2-1,.44-1.46.69a9.88,9.88,0,0,1-1.51.7,4.39,4.39,0,0,1-1.63.21,5.37,5.37,0,0,1-2.67-1l-.25-.18-.23-.18c-.15-.12-.27-.24-.4-.36a7.16,7.16,0,0,0-.64-.57A1.79,1.79,0,0,0,445,272l-.14,0h-.05s0,0,0,0Z"/><path class="cls-26" d="M443.37,278.66a.5.5,0,0,0-.15.32.55.55,0,0,0,.13.4.69.69,0,0,0,.52.21.65.65,0,0,0,.32-.11.69.69,0,0,0,.25-.28.82.82,0,0,0,0-.8,1,1,0,0,0-.81-.44.94.94,0,0,0-.49.12,1.15,1.15,0,0,0-.4.36,1.28,1.28,0,0,0-.15,1.1,1.31,1.31,0,0,0,.31.5l.12.11.13.08.13.08.14.07a1.58,1.58,0,0,0,1.26,0,1.81,1.81,0,0,0,.88-1,2,2,0,0,0,0-1.37,2.06,2.06,0,0,0-.35-.61,2.45,2.45,0,0,0-.55-.47,2.51,2.51,0,0,0-1.39-.38,2.41,2.41,0,0,0-1.36.48,2,2,0,0,0-.28.23l0,0,0,0-.06.08-.13.15a3.21,3.21,0,0,0-.38.62,3.13,3.13,0,0,0,.11,2.78,3.3,3.3,0,0,0,.41.57l.12.12.13.12a2.83,2.83,0,0,0,.28.23,3.66,3.66,0,0,0,1.19.62,4.17,4.17,0,0,0,1.3.18,3.57,3.57,0,0,0,1.22-.23,1.36,1.36,0,0,0,.28-.11,2.06,2.06,0,0,0,.26-.12l.26-.15.23-.16a1.92,1.92,0,0,0,.22-.18l.2-.17.2-.2.17-.2a5.11,5.11,0,0,0,.55-.82,4.3,4.3,0,0,0,.36-.8,4.64,4.64,0,0,0,.19-.73,5.09,5.09,0,0,0,.1-1c0-.12,0-.22,0-.28v-.1h0s0,0,0,0a0,0,0,0,1,0,0l0,.09c0,.07,0,.16,0,.29a5.13,5.13,0,0,1-.48,2.71,5.43,5.43,0,0,1-.54.91l-.18.22-.18.22-.22.21-.23.2a4.3,4.3,0,0,1-2.48.94,4.37,4.37,0,0,1-2.85-.88,3.74,3.74,0,0,1-.29-.25l-.15-.14-.13-.15a3.11,3.11,0,0,1-.47-.67,3.49,3.49,0,0,1-.42-1.59,3.4,3.4,0,0,1,.36-1.62,3.45,3.45,0,0,1,.45-.72l.14-.14.06-.08,0,0,0-.05a3.75,3.75,0,0,1,.33-.26,2.87,2.87,0,0,1,1.59-.52,2.83,2.83,0,0,1,1.59.45,3,3,0,0,1,.62.55,2.32,2.32,0,0,1,.34,2.31,2.06,2.06,0,0,1-1,1.11,1.81,1.81,0,0,1-1.46,0l-.16-.08-.15-.09-.15-.12-.12-.11a1.48,1.48,0,0,1-.36-.6,1.46,1.46,0,0,1,.21-1.26,1.29,1.29,0,0,1,.46-.41,1.21,1.21,0,0,1,.58-.12,1.06,1.06,0,0,1,.53.16.89.89,0,0,1,.21.16.87.87,0,0,1,.17.21.92.92,0,0,1,0,.91.87.87,0,0,1-.29.31.69.69,0,0,1-.36.11.7.7,0,0,1-.58-.25.58.58,0,0,1-.14-.44.68.68,0,0,1,.11-.28l.06-.07s0,0,0,0A0,0,0,0,1,443.37,278.66Z"/><path class="cls-27" d="M443.38,271.35l.12-.06a1.21,1.21,0,0,1,.37-.08,1,1,0,0,1,.58.13.76.76,0,0,1,.29.25,1.11,1.11,0,0,1-.1,1.3,2.82,2.82,0,0,1-.8.65,7.76,7.76,0,0,1-1,.47c-.33.14-.68.27-1,.42s-.62.35-.92.54-.57.4-.82.61a9,9,0,0,0-.71.62,6.2,6.2,0,0,0-.56.63l-.21.31c-.06.1-.11.2-.17.29l-.12.28a1.13,1.13,0,0,0-.08.24,3.51,3.51,0,0,0-.1.35l0,.13h0s0,0,0,0,0,0,0,0v-.13a1.17,1.17,0,0,1,0-.38c0-.08,0-.17,0-.27l.08-.32a2.92,2.92,0,0,1,.13-.34,3.14,3.14,0,0,1,.18-.37,5,5,0,0,1,.54-.74,5.5,5.5,0,0,1,.74-.7,7,7,0,0,1,.9-.6,10.2,10.2,0,0,1,1-.5c.36-.16.7-.26,1-.38a7.53,7.53,0,0,0,.95-.4,2.7,2.7,0,0,0,.75-.55.9.9,0,0,0,.26-.72.85.85,0,0,0-.1-.34.7.7,0,0,0-.22-.23,1,1,0,0,0-.52-.15,1,1,0,0,0-.35.05l-.12,0h0s0,0,0,0Z"/><path class="cls-28" d="M460.49,273.05l-.12.15-.15.18-.23.23c-.08.08-.19.16-.3.26l-.18.12-.21.13a3.16,3.16,0,0,1-1.06.38,4.41,4.41,0,0,1-1.32.05,10,10,0,0,1-1.46-.26c-1-.25-2-.6-3-.82a6.79,6.79,0,0,0-1.54-.17h-.19l-.19,0-.36.06h-.08l-.09,0-.09,0-.08,0a2.22,2.22,0,0,0-.32.14c-.43.2-.85.48-1.31.66a2.4,2.4,0,0,1-.71.19,2.05,2.05,0,0,1-.7,0l-.15,0-.15-.06a1.22,1.22,0,0,1-.28-.14,1.47,1.47,0,0,1-.44-.37,1.62,1.62,0,0,1-.35-.84,1.74,1.74,0,0,1,0-.56l.05-.19s0,0,0,0,0,0,0,0h0v.19a1.78,1.78,0,0,0,.05.52,1.37,1.37,0,0,0,.39.67,1.54,1.54,0,0,0,.89.41,1.87,1.87,0,0,0,1.13-.2c.39-.18.79-.46,1.27-.69.13-.05.25-.11.39-.15l.11,0,.09,0,.1,0H450a2.7,2.7,0,0,1,.41-.05h.42a7.46,7.46,0,0,1,1.63.24c1.07.27,2.08.66,3,.94a9.58,9.58,0,0,0,1.4.31,4.58,4.58,0,0,0,1.28,0,3.22,3.22,0,0,0,1-.32l.2-.11.19-.12.3-.23.23-.21.16-.18.13-.14h0A0,0,0,0,1,460.49,273.05Z"/><path class="cls-29" d="M460.5,273l.1-.07a2.81,2.81,0,0,1,.3-.21l.21-.15.27-.15a7.19,7.19,0,0,1,.67-.31l.4-.14.44-.11a5.16,5.16,0,0,1,1-.11,7.57,7.57,0,0,1,1.05.06A9.46,9.46,0,0,1,466,272l1,.29,1,.3.91.27c.29.09.56.15.81.21l.37.06.33.05.55,0h.49s0,0,0,0l0,0-.12,0a2.13,2.13,0,0,1-.36.1l-.26,0-.31,0a4.68,4.68,0,0,1-.75,0l-.43-.05-.45-.08a8.74,8.74,0,0,1-.94-.25c-.33-.1-.65-.22-1-.35s-.65-.24-1-.35-.67-.19-1-.26a6.81,6.81,0,0,0-1-.11,5.72,5.72,0,0,0-.94.06c-.15,0-.29.05-.43.07l-.39.11a5.54,5.54,0,0,0-.67.26l-.27.13-.23.12-.31.19-.11.06s0,0,0,0S460.49,273,460.5,273Z"/><path class="cls-30" d="M467.81,272.69l.33-.29a5.69,5.69,0,0,1,1-.61,4.56,4.56,0,0,1,.74-.28l.2-.05.22,0a2.06,2.06,0,0,1,.44,0,5.13,5.13,0,0,1,1.88.35c.31.11.6.24.89.36s.57.24.83.37l.76.34a6,6,0,0,0,.69.26l.16.06.15,0,.29.07.48.07.43,0h0l0,0,0,0s-.15.05-.43.11a3.67,3.67,0,0,1-.52,0l-.32,0h-.17l-.18,0-.37-.08-.39-.12a6.89,6.89,0,0,1-.81-.33c-.54-.25-1.08-.58-1.65-.82a4.76,4.76,0,0,0-1.71-.44,3.09,3.09,0,0,0-.43,0l-.2,0-.2,0a4.26,4.26,0,0,0-.71.21,5.22,5.22,0,0,0-1,.53l-.36.24h0a0,0,0,0,1,0,0Z"/><path class="cls-31" d="M431.6,285.1v0l0,.14a1.79,1.79,0,0,0,.26.48,5.87,5.87,0,0,0,.57.64c.11.12.24.25.36.4l.18.23.18.25a6.33,6.33,0,0,1,.63,1.19,5,5,0,0,1,.32,1.48,4.18,4.18,0,0,1-.2,1.63,12.25,12.25,0,0,1-.7,1.51c-.25.48-.49,1-.69,1.46a8.47,8.47,0,0,0-.46,1.46,6,6,0,0,0-.09.71c0,.06,0,.12,0,.18v.17c0,.11,0,.22,0,.33a5.24,5.24,0,0,0,.27,1.24,7.84,7.84,0,0,0,.45,1c.15.29.3.53.43.74s.24.35.31.45l.11.17a0,0,0,0,1,0,0h0l-.14-.14-.38-.41a6.64,6.64,0,0,1-.55-.69,6.14,6.14,0,0,1-.56-1,5.18,5.18,0,0,1-.39-1.33c0-.13,0-.25,0-.38v-.39a4.38,4.38,0,0,1,.1-.79,7.39,7.39,0,0,1,.53-1.54c.24-.5.5-1,.77-1.47a9.66,9.66,0,0,0,.73-1.43,3.85,3.85,0,0,0,.24-1.49,5.32,5.32,0,0,0-.81-2.59l-.16-.25-.17-.24c-.11-.14-.22-.28-.33-.4a5.47,5.47,0,0,1-.55-.68,2,2,0,0,1-.24-.51l0-.15v-.05l0,0S431.6,285.09,431.6,285.1Z"/><path class="cls-32" d="M438.3,283.59l.08-.06a.57.57,0,0,1,.27-.11.59.59,0,0,1,.45.14.74.74,0,0,1,.25.58.69.69,0,0,1-.11.36.87.87,0,0,1-.31.29,1,1,0,0,1-.92,0,1.06,1.06,0,0,1-.2-.17.69.69,0,0,1-.16-.21,1.1,1.1,0,0,1-.16-.53,1.17,1.17,0,0,1,.12-.58,1.26,1.26,0,0,1,.4-.46,1.48,1.48,0,0,1,1.27-.21,1.55,1.55,0,0,1,.6.36l.11.12.11.15.1.15c0,.05.05.11.08.16a1.85,1.85,0,0,1,0,1.46,2.08,2.08,0,0,1-1.12,1,2.26,2.26,0,0,1-1.58.05,2.29,2.29,0,0,1-.72-.39,3,3,0,0,1-.55-.62,2.87,2.87,0,0,1,.06-3.18c.08-.12.18-.22.27-.33l.05,0,0,0,.08-.06.14-.14a3.66,3.66,0,0,1,.72-.46,3.54,3.54,0,0,1,3.21.07,3.11,3.11,0,0,1,.67.47l.15.13.14.15a3.74,3.74,0,0,1,.25.29,4.36,4.36,0,0,1,.88,2.85,4.24,4.24,0,0,1-.94,2.47,2.31,2.31,0,0,1-.2.24l-.22.21a1.9,1.9,0,0,1-.21.19l-.22.18a5.43,5.43,0,0,1-.91.54,5.15,5.15,0,0,1-2.72.48l-.28,0-.09,0s0,0,0,0,0,0,0,0h.38a5.15,5.15,0,0,0,1.05-.1,4.64,4.64,0,0,0,.73-.19,5.52,5.52,0,0,0,.8-.36,5.6,5.6,0,0,0,.82-.55l.2-.18.19-.19.18-.2a1.92,1.92,0,0,0,.18-.22l.16-.24.14-.25a1.26,1.26,0,0,0,.13-.26,2,2,0,0,0,.11-.28,3.83,3.83,0,0,0,.23-1.22,4.17,4.17,0,0,0-.18-1.3,3.66,3.66,0,0,0-.62-1.19,2.83,2.83,0,0,0-.23-.28l-.12-.13-.13-.12a2.88,2.88,0,0,0-.56-.41,3,3,0,0,0-1.36-.38,3,3,0,0,0-1.42.27,3.3,3.3,0,0,0-.63.38.86.86,0,0,0-.14.13l-.08.06,0,0,0,0a3.22,3.22,0,0,0-.24.28,2.45,2.45,0,0,0-.47,1.36,2.51,2.51,0,0,0,.38,1.39,2.69,2.69,0,0,0,.46.55,2.11,2.11,0,0,0,.62.35,1.93,1.93,0,0,0,1.36,0,1.83,1.83,0,0,0,1-.88,1.58,1.58,0,0,0,0-1.26l-.07-.14-.08-.13-.09-.13-.1-.12a1.28,1.28,0,0,0-.51-.31,1.26,1.26,0,0,0-1.09.15,1.18,1.18,0,0,0-.37.4.93.93,0,0,0-.11.49,1,1,0,0,0,.44.81.82.82,0,0,0,.8,0,.69.69,0,0,0,.28-.25.65.65,0,0,0,.11-.32.68.68,0,0,0-.21-.52.55.55,0,0,0-.4-.13.5.5,0,0,0-.32.15h0A0,0,0,0,1,438.3,283.59Z"/><path class="cls-33" d="M431.08,283.66l-.05.12a1,1,0,0,0,0,.35,1,1,0,0,0,.15.51.69.69,0,0,0,.22.23,1.22,1.22,0,0,0,.34.1.91.91,0,0,0,.73-.26A2.49,2.49,0,0,0,433,284a8.23,8.23,0,0,0,.41-.95c.12-.33.22-.67.38-1a10.2,10.2,0,0,1,.5-1,8.22,8.22,0,0,1,.59-.9,5.56,5.56,0,0,1,.71-.74,4.49,4.49,0,0,1,.74-.54l.37-.19.34-.12.32-.08.27,0a1.68,1.68,0,0,1,.38,0h.13a0,0,0,0,1,0,0l0,0h0l-.12,0c-.09,0-.21,0-.35.09l-.25.09-.27.12-.29.17-.31.21a6.2,6.2,0,0,0-.63.56,9,9,0,0,0-.62.71c-.21.25-.41.53-.61.82a10.12,10.12,0,0,0-.54.92c-.15.3-.28.65-.42,1a7.76,7.76,0,0,1-.47,1,2.82,2.82,0,0,1-.65.8,1.1,1.1,0,0,1-.91.24.92.92,0,0,1-.39-.14.76.76,0,0,1-.25-.29,1,1,0,0,1-.13-.58,1.21,1.21,0,0,1,.08-.37l.06-.12h0S431.08,283.65,431.08,283.66Z"/><path class="cls-34" d="M432.7,300.71l.14-.13a1.2,1.2,0,0,0,.17-.16l.21-.23c.08-.08.15-.19.24-.3l.12-.19a1.28,1.28,0,0,0,.11-.2,3.37,3.37,0,0,0,.32-1,4.92,4.92,0,0,0,0-1.27,11.09,11.09,0,0,0-.31-1.4c-.28-1-.67-2-.94-3a7.46,7.46,0,0,1-.24-1.63v-.42a2.7,2.7,0,0,1,.05-.41v-.06h0v-.05l0-.09s0-.06,0-.1l0-.1a2.62,2.62,0,0,1,.15-.39c.23-.48.51-.88.69-1.27a1.87,1.87,0,0,0,.2-1.13,1.54,1.54,0,0,0-.41-.89,1.47,1.47,0,0,0-.67-.39,1.78,1.78,0,0,0-.52-.05h-.2l0,0s0,0,0,0l.19-.05a1.84,1.84,0,0,1,.57,0,1.62,1.62,0,0,1,.84.35,1.47,1.47,0,0,1,.37.44,1.22,1.22,0,0,1,.14.28l.06.15a1.13,1.13,0,0,1,0,.15,2.05,2.05,0,0,1,0,.7,2.86,2.86,0,0,1-.19.71c-.19.46-.46.88-.66,1.31a2.22,2.22,0,0,0-.14.32l0,.07a.36.36,0,0,0,0,.1l0,.09v0h0v.05c0,.12,0,.24-.05.36l0,.19v.19a6.79,6.79,0,0,0,.17,1.54c.22,1,.57,2.06.82,3.05a9.86,9.86,0,0,1,.26,1.45,4.83,4.83,0,0,1-.05,1.33,3.16,3.16,0,0,1-.38,1.06,1.37,1.37,0,0,1-.13.2,1.27,1.27,0,0,1-.13.19c-.09.11-.17.22-.25.3l-.23.23-.18.15-.15.12h0A0,0,0,0,1,432.7,300.71Z"/><path class="cls-35" d="M432.7,300.79l-.07.11c0,.07-.11.17-.18.31l-.12.23-.13.27a5.54,5.54,0,0,0-.26.67c0,.12-.07.25-.11.39s-.06.28-.07.43a5.72,5.72,0,0,0-.06.94,6.81,6.81,0,0,0,.11,1c.07.34.16.67.26,1s.23.66.35,1,.25.65.35,1a9.58,9.58,0,0,1,.25.95c0,.15.05.3.08.45s0,.29,0,.42a6.41,6.41,0,0,1,0,.76l0,.31a2,2,0,0,1-.05.26,2.45,2.45,0,0,1-.09.35l0,.13s0,0,0,0l0,0h0v-.13c0-.08,0-.2,0-.36s0-.34,0-.55l-.05-.33-.06-.37c-.06-.25-.12-.53-.21-.81s-.17-.59-.27-.91-.2-.64-.3-1-.2-.68-.29-1a9.93,9.93,0,0,1-.21-1.06,6.28,6.28,0,0,1-.06-1.05,5,5,0,0,1,.11-1c0-.16.08-.3.11-.44s.09-.28.14-.4a6.16,6.16,0,0,1,.31-.67l.15-.27.14-.22c.09-.13.17-.22.21-.29l.08-.11h0A0,0,0,0,1,432.7,300.79Z"/><path class="cls-36" d="M432.4,308.11l-.25.35a6.36,6.36,0,0,0-.52,1,4.69,4.69,0,0,0-.21.72l0,.2s0,.13,0,.2a3,3,0,0,0,0,.42,4.75,4.75,0,0,0,.44,1.72c.24.57.57,1.11.82,1.65a7.53,7.53,0,0,1,.33.8l.12.4c0,.12.05.25.08.37l0,.18v.17c0,.11,0,.22,0,.32s0,.37,0,.51a4.3,4.3,0,0,1-.11.44,0,0,0,0,1,0,0l0,0h0s0-.16,0-.43-.05-.3-.07-.48l-.07-.29,0-.15-.06-.16a6,6,0,0,0-.26-.69c-.11-.24-.22-.5-.35-.76s-.24-.54-.36-.83-.25-.59-.36-.89a5.13,5.13,0,0,1-.35-1.88,2.06,2.06,0,0,1,0-.44,1.92,1.92,0,0,1,0-.22,1.6,1.6,0,0,1,.05-.21,3.69,3.69,0,0,1,.28-.73,5.69,5.69,0,0,1,.61-1l.28-.33h0A0,0,0,0,1,432.4,308.11Z"/><text class="cls-37" transform="translate(485.56 483.86)">豪華なインストラクターの<tspan x="0" y="37.72">オンラインレッスンを１回</tspan><tspan x="0" y="75.43">から気軽に受けられる</tspan></text><text class="cls-37" transform="translate(485.56 483.86)">豪華なインストラクターの<tspan x="0" y="37.72">オンラインレッスンを１回</tspan><tspan x="0" y="75.43">から気軽に受けられる</tspan></text><text class="cls-38" transform="translate(485.56 483.86)">豪華なインストラクターの<tspan x="0" y="37.72">オンラインレッスンを１回</tspan><tspan x="0" y="75.43">から気軽に受けられる</tspan></text><ellipse class="cls-39" cx="651.28" cy="355.4" rx="139.96" ry="54.04" transform="translate(-54.99 128.12) rotate(-10.78)"/><text class="cls-40" transform="translate(548.05 348.42)">人気の女性限定<tspan x="-66.2" y="49.45">オンライン ヨガスタジオ</tspan></text><text class="cls-41" transform="translate(548.05 348.42)">人気の女性限定<tspan x="-66.2" y="49.45">オンライン ヨガスタジオ</tspan></text><text class="cls-42" transform="translate(548.05 348.42)">人気の女性限定<tspan x="-66.2" y="49.45">オンライン ヨガスタジオ</tspan></text></svg>