<svg xmlns="http://www.w3.org/2000/svg" viewBox="0 0 1300 721"><defs><style>.cls-1{fill:none;}.cls-2{fill:#fff;fill-opacity:0.7;}.cls-3{fill:red;}</style></defs><g id="レイヤー_2" data-name="レイヤー 2"><g id="レイヤー_2-2" data-name="レイヤー 2"><rect class="cls-1" width="1300" height="721"/><rect class="cls-2" x="369" y="287" width="562" height="287"/><path class="cls-3" d="M448.16,382.83c-.27.27-.43.39-.62.39a.94.94,0,0,1-.51-.16c-6.72-3.75-10-8.52-11.8-14.73-.62.36-1.29.63-1.91.94,3.36,2.42,4.76,5.24,4.76,8.52,0,1.79-.31,3.63-1.6,4.72s-3,1.25-6.4,1.25c-.39,0-.55-.11-.67-.39l-1.6-3.2a72.74,72.74,0,0,1-10.12,3.36.81.81,0,0,1-1-.27l-2.39-2.89a71.79,71.79,0,0,0,18.29-5.86c-.16-.28-.32-.55-.51-.82a65.44,65.44,0,0,1-13.75,4.84,2,2,0,0,1-.43.08.65.65,0,0,1-.59-.32L415,375.56a68.7,68.7,0,0,0,15.12-4l-.82-.59A70.27,70.27,0,0,1,419,374a.86.86,0,0,1-1-.31L415.78,371a75.4,75.4,0,0,0,12.58-2.85H426l-4.45.11-.23-.19v-2.93l.23-.2,4.45.12h13.48l4.45-.12.24.2v2.93l-.24.19-4.21-.11a21,21,0,0,0,1.36,2.93,25.37,25.37,0,0,0,3.17-2.66l.35,0,3.9,2.85,0,.39c-1.68,1.1-3.24,2.07-4.8,2.93a23,23,0,0,0,7.66,4.77ZM429.8,346.61l.28-.31h5.23l.27.28v2.11h9.65l5.51-.08.27.23V352l-.27.28-5.51-.12h-25l-5.47.12-.27-.31V348.8l.31-.19,5.43.08h9.57Zm-14.64,17.15-.12-3,.27-.27,6.56.12h21.92l6.56-.12.27.27-.11,3v1.84l.19,3.09h-5.58v-4.61H420.39v4.68H415l.2-3.16Zm5.62-4-.27-.27,0-2.39v-1.64l-.08-2.07.27-.27,4.22.08h15.82l4.22-.08.27.27-.08,2.07v1.76l.08,2.23-.31.31-4.45-.08H425.19Zm19-2.74v-1.13H425.82V357Zm-8.32,22.7c1.06-.08,1.64-.59,1.76-2.23a44.42,44.42,0,0,1-4.57,2.31C429.69,379.82,430.78,379.78,431.44,379.74Z"/><path class="cls-3" d="M483.71,349.39l6.49-.12.27.27v3.72l-.27.27-6.49-.12h-2.89l.08,1.6h-5.63l.08-1.6h-6.91l.08,1.6h-5.47l.07-1.6H460l-6.48.12-.28-.27v-3.72l.28-.27,6.48.12h3.28v-2.78l.28-.27h4.57l.23.27v2.78h7.15v-2.78l.27-.27h4.73l.23.27v2.78ZM469,373.22h-6.72l-6.49.11-.27-.27v-3.52l.27-.27,4.42.08v-2.93l-6.53.12-.27-.28v-3.63l.27-.27,6.53.11v-2.69l-4.42.08-.27-.28v-3.51l.27-.28,6.49.12h19.41l6.48-.12.28.28v3.51l-.28.28-4.53-.08v2.69h.08l6.49-.11.27.27v3.63l-.27.28-6.49-.12h-.08v2.93l4.53-.08.28.27v3.52l-.28.27-6.48-.11h-7.11v1.87h9.14l6.49-.12.27.28v3.67l-.27.27-6.49-.11h-9.06l.08,4.8h-5.9l.08-4.8h-8.75l-6.49.11-.27-.27v-3.67l.27-.28,6.49.12H469Zm0-10.75v-2.73h-3.71v2.73Zm-3.71,3.95v3H469v-3Zm13.09-3.95v-2.73h-3.87v2.73Zm-3.87,3.95v3h3.87v-3Z"/><path class="cls-3" d="M511.41,348.57c-.35,1.56-.78,3.08-1.14,4.49,1.37-.27,2.74-.59,4.11-.94l.35.16.74,3.44a32.62,32.62,0,0,1,12.07,3l.12.39-1.6,4.34-.32.16a6.38,6.38,0,0,0-3.16-.67c-2.5,0-4.65,1-4.65,2.74,0,1.21.59,3,1.72,5.82a37.18,37.18,0,0,1,8.52,5v.39l-3.29,4.22-.35,0a37.55,37.55,0,0,0-4.57-3.72c-.12,3.17-3.55,5.24-8,5.24-5.07,0-8.2-2-8.2-6.09,0-3.68,3.13-6.25,7.3-6.25a13.15,13.15,0,0,1,2.54.19,14,14,0,0,1-.86-4.77c.08-2.1,2.07-3.9,5.32-4.88a51.41,51.41,0,0,0-5.32-.55l-.19-.27,1-2.23c-1.68.36-3.4.71-5.12.94A68.65,68.65,0,0,1,499.22,376l-.39.08-4.61-3v-.35a51.48,51.48,0,0,0,7.89-13.21c-2,.2-4.1.32-6.25.36l-.31-.24-.12-4.8.27-.28c3-.07,5.75-.27,8.4-.54a56,56,0,0,0,1.49-6.49l.35-.23,5.23.9Zm-.47,26.33c-1.33,0-2.11.82-2.11,1.48,0,.94.86,1.56,2.26,1.56,2.23,0,3.52-.78,3.48-2.34A6.84,6.84,0,0,0,510.94,374.9Z"/><path class="cls-3" d="M549.34,364.27c-3,2.11-6.06,4.1-9.49,6.1-.79.42-1,.42-1.68-.16L534,366.58c9.18-4.46,16.44-9.3,23.55-17.62H558l4.88,3.4,0,.47c-2.5,2.57-4.92,4.8-7.22,6.75v9l.19,12.26h-6.76l.2-12.15Z"/><path class="cls-3" d="M575,357.16l3.79-4.26.39-.07a41,41,0,0,1,7.93,5.39v.39L583,363.33l-.35,0a45.76,45.76,0,0,0-7.66-5.86Zm30.28,3.24a2.29,2.29,0,0,1,.15.75c0,.27-.11.43-.39.7-7,7.66-15.43,13.36-25.74,18l-.39-.08-3.52-5.28.08-.39a70.7,70.7,0,0,0,27.66-19.88Z"/><path class="cls-3" d="M638.91,379a70.58,70.58,0,0,0-8.67-9.26,46,46,0,0,1-13.4,9.8,2,2,0,0,1-.86.28,1.08,1.08,0,0,1-.62-.28L610.75,376c9-4.18,16.83-10.08,20.43-18.2h-9.3l-5.82.11-.27-.31v-5.31l.35-.24,5.86.12h11l4-.19,2.38,2.34c.27.27.43.47.43.7a2.19,2.19,0,0,1-.35.94,80.16,80.16,0,0,1-5.39,9,82.92,82.92,0,0,1,9.88,9.34l0,.43-4.61,4.3Z"/><path class="cls-3" d="M667.11,366.26l.2,14.93h-6.8l.2-15V349.35l.31-.27h5.78l.31.31v13.05l3.36-3.75.39,0a48.09,48.09,0,0,1,8.79,6l0,.39-3.78,4.73-.4,0a43.8,43.8,0,0,0-8.32-6.13Z"/><path class="cls-3" d="M692.9,363.84v-5.12l.35-.23,5.35.12h15l5.47-.12.27.31c-1.37,12.39-7.26,18.95-18.12,22.7a2.86,2.86,0,0,1-.82.19,1.24,1.24,0,0,1-.9-.43l-4.42-3.67c9-2.73,14.85-6.83,16.57-13.55H698.56l-5.39.11Zm17.54-8.2h-9l-4.76.12-.28-.32v-5l.35-.23,4.73.12h8.83l5.39-.12.31.27v5l-.27.32Z"/><path class="cls-3" d="M744.34,358.69a46.33,46.33,0,0,1-7.77,8.08c-.43.31-.66.47-.94.47A1.44,1.44,0,0,1,735,367l-4.65-2.82a39.59,39.59,0,0,0,12.93-15.74l.35-.12,5.59,2.07.07.39c-.5,1-1,1.88-1.6,2.82l5-.08,3-.24,3.4,3.17c.35.31.55.55.55.82a2,2,0,0,1-.24.78C754.46,368.65,748.13,375.87,737,381a3.21,3.21,0,0,1-1,.31,1,1,0,0,1-.66-.31l-4.85-3.75a35.25,35.25,0,0,0,21.29-18.55Z"/><path class="cls-3" d="M798,356c.27.31.43.47.43.7a1.44,1.44,0,0,1-.2.67,61.76,61.76,0,0,1-6.17,10.62c1.25,1.06,2.5,2.19,3.71,3.44v.43L792,376l-.35,0c-1.13-1.25-2.27-2.38-3.44-3.52a48.26,48.26,0,0,1-13.16,9.34,1.78,1.78,0,0,1-.75.27,1.58,1.58,0,0,1-.89-.39l-4.57-3.12a47.24,47.24,0,0,0,15-9.85,53,53,0,0,0-4.38-3v-.39l3.32-3.63.43,0c1.45.86,2.85,1.72,4.18,2.62a32.73,32.73,0,0,0,3.48-6.13l-7.58,0a59.6,59.6,0,0,1-8,9c-.74.55-.94.51-1.64,0l-4.26-2.74a42.31,42.31,0,0,0,12.66-16l.39-.12,5.31,1.91.08.43c-.43.86-.9,1.68-1.37,2.5l5.35-.07,3.21-.24Z"/><path class="cls-3" d="M832.12,368.49H814.66l-5.82.12-.28-.32v-5.58l.36-.24,5.58.12h17.42l6-.12.31.28v5.54l-.27.32Z"/><path class="cls-3" d="M861.22,377.2c8.4-1.41,12.19-5.43,12.19-10.12,0-5.93-3.28-9.68-7.27-10.5-.78,7.38-3.32,14.25-6,18.2-2.11,3.09-4.3,4.22-7.35,4.22-2.34,0-4-1.13-5.5-3.48a12.31,12.31,0,0,1-1.92-7.07c0-9.45,7.07-17.11,17.81-17.11s16.37,7.15,16.37,15.82c0,7.11-5,12.5-13.28,14.46a1.3,1.3,0,0,1-1.25-.4Zm-10.47-8.75a5.75,5.75,0,0,0,.67,3c.43.78,1,1.29,1.6,1.29.9,0,2-.9,3.08-3A39,39,0,0,0,860,356.42C854.27,357.4,850.75,362.44,850.75,368.45Z"/><path class="cls-3" d="M424.92,429.43l-5.35.12-.27-.32v-5l.35-.23,5.31.12h9.1l-.12-5.9.28-.28h5.58l.32.28.11,5.9h2.15L448,424l.35.23v5l-.27.32-5.71-.12h-2l.27,14.84c0,2.93-1,5.2-7.92,5.39-1,0-1,0-1.33-.7l-2.46-5.23c2.38,0,3.75,0,4.88-.12.39,0,.66-.31.66-1.25l0-5.74.16-2.93a50.81,50.81,0,0,1-13.83,12.07c-.58.35-.86.39-1.29,0l-4.06-3.56c6.41-3.75,11.33-7.73,15.2-12.81Z"/><path class="cls-3" d="M457.77,425.52l3.79-4.26.39-.07a41,41,0,0,1,7.93,5.39V427l-4.06,4.72-.35,0a46.17,46.17,0,0,0-7.66-5.86Zm30.28,3.24a2.29,2.29,0,0,1,.15.75c0,.27-.11.43-.39.7-6.95,7.66-15.43,13.36-25.74,18.05l-.39-.08-3.52-5.27.08-.4a70.7,70.7,0,0,0,27.66-19.88Z"/><path class="cls-3" d="M497.58,432.2v-5.12l.35-.23,5.35.12h15l5.47-.12.27.31c-1.36,12.39-7.26,18.95-18.12,22.7a2.86,2.86,0,0,1-.82.19,1.25,1.25,0,0,1-.9-.43L499.77,446c9-2.73,14.84-6.83,16.56-13.55H503.24l-5.39.11Zm17.54-8.2h-9l-4.76.12-.27-.32v-5l.35-.23,4.72.12H515l5.39-.12.32.27v5l-.28.32Z"/><path class="cls-3" d="M549.34,432.63c-3,2.11-6.06,4.1-9.49,6.1-.79.43-1,.43-1.68-.16L534,434.94c9.18-4.46,16.44-9.3,23.55-17.62H558l4.88,3.4,0,.47c-2.5,2.57-4.92,4.8-7.22,6.75v9l.19,12.26h-6.76l.2-12.15Z"/><path class="cls-3" d="M575,425.52l3.79-4.26.39-.07a41,41,0,0,1,7.93,5.39V427L583,431.69l-.35,0a45.76,45.76,0,0,0-7.66-5.86Zm30.28,3.24a2.29,2.29,0,0,1,.15.75c0,.27-.11.43-.39.7-7,7.66-15.43,13.36-25.74,18.05l-.39-.08-3.52-5.27.08-.4a70.7,70.7,0,0,0,27.66-19.88Z"/><path class="cls-3" d="M622.23,440.05c6-2.22,13.32-7.26,19.34-15.47l2.57,5.47a1.36,1.36,0,0,1,.24.67,1.19,1.19,0,0,1-.31.74c-5.75,7.15-13.28,12.38-23.68,16.41a2.22,2.22,0,0,1-.82.19c-.23,0-.39-.12-.66-.35l-3.09-2.77.2-3.71V421l.31-.27h5.59l.31.31Z"/><path class="cls-3" d="M659.5,428.49a24.1,24.1,0,0,1,3.55,6.37l-.15.35-4.22,2-.35-.11a24.36,24.36,0,0,0-3.44-6.45l.15-.31,4.11-1.8Zm19.14.51c-1.6,5.78-3,8.63-5.43,12.19a28,28,0,0,1-9.57,8.47,1.39,1.39,0,0,1-.63.24,1,1,0,0,1-.58-.24L658.29,447c5-2.66,7.38-4.53,10-8s3.83-6.33,5.08-11.95l.35-.16,4.76,1.76Zm-11.92-2.54a20.58,20.58,0,0,1,3.6,6.09l-.16.36L666,434.86l-.35-.08a26.58,26.58,0,0,0-3.52-6.29l.12-.31,4.1-1.8Z"/><path class="cls-3" d="M717,447.36a71.26,71.26,0,0,0-8.67-9.26,46.34,46.34,0,0,1-13.4,9.81,2.16,2.16,0,0,1-.86.27,1.16,1.16,0,0,1-.63-.27l-4.61-3.56c9-4.18,16.84-10.08,20.43-18.2H700l-5.82.11-.28-.31v-5.31l.35-.23,5.86.11h11.06l4-.19,2.38,2.34c.28.27.43.47.43.7a2.07,2.07,0,0,1-.35.94,77.27,77.27,0,0,1-5.39,9,83.77,83.77,0,0,1,9.89,9.34l0,.43-4.61,4.3Z"/><path class="cls-3" d="M731.22,425.52l3.79-4.26.39-.07a41.28,41.28,0,0,1,7.93,5.39V427l-4.07,4.72-.35,0a46.1,46.1,0,0,0-7.65-5.86Zm30.27,3.24a2.1,2.1,0,0,1,.16.75c0,.27-.12.43-.39.7-7,7.66-15.43,13.36-25.75,18.05l-.39-.08-3.51-5.27.08-.4a70.74,70.74,0,0,0,27.65-19.88Z"/><path class="cls-3" d="M767.23,436.62c4.38-3.56,7.47-6.57,9.73-10-1.87.15-3.83.19-5.66.19l-.24-.23-.15-4.81.27-.23c2.93,0,5.82-.08,8.71-.28a41.93,41.93,0,0,0,1.84-5.23l.31-.2,5.35.79.23.27c-.46,1.37-.93,2.54-1.36,3.67,2-.31,3.9-.66,5.86-1.13l.35.19.39,4.61-.24.35c-2.85.59-6,1.1-9.29,1.49-.63.94-1.49,2.15-2.27,3.08a11.47,11.47,0,0,1,3.67-.5,4.79,4.79,0,0,1,4.77,3.75c2.46-.94,5.23-1.92,8.28-2.93l.39.15,2.42,4.81-.19.35a106.14,106.14,0,0,0-10.2,3.09c.08,1.52.12,3.43.16,5.31l-.27.23-5.16.2-.31-.24v-3.2c-2.39,1.13-3.71,2.23-3.71,3.55s1.56,1.68,5,1.72a69.49,69.49,0,0,0,10.19-.82l.39.24.35,5.19-.23.32c-3.71.31-7,.5-11.56.5-7.89,0-10-3.32-10-6.68,0-3.75,3.17-6.36,6.8-8.43.7-.39,1.49-.79,2.35-1.18a1.73,1.73,0,0,0-2-1.48,7.46,7.46,0,0,0-4.45,1.37,57.92,57.92,0,0,0-6.8,6.32l-.39,0-3.44-3.82Z"/><path class="cls-3" d="M834.27,443.8v4.89H813.72V443.8h6.87V424.86l-7.53,2.85v-5.39l10.86-4.06h3.51V443.8Z"/><path class="cls-3" d="M851.49,449.12v2.93h-5.66l.2-17v-11l-.12-6.68.31-.24,6.56.12H872l6.56-.12.32.24-.12,6.68v10.39l.19,17.54h-5.86v-2.93Zm21.64-4.77V422.08H851.49v22.27Zm-3-18.4.27.28-.12,4.21v4.34l.12,5.55-.27.27-4.81-.12h-6.17l-4.81.12-.27-.27.12-5.71v-4.18l-.12-4.21.24-.28,4.84.12h6.17Zm-10.94,4.34v5.9h5.94v-5.9Z"/><path class="cls-3" d="M416.25,517.24c2.11-6.79,4.06-12.73,6.05-18.71-1.79.27-3.9.55-5.86.78l-.31-.23-.86-4.73.24-.27c3.08-.24,6-.59,8.67-1,.94-2.69,1.83-5.47,2.85-8.48l.39-.19,5.27,1.29.12.43q-1.23,3.35-2.23,6.21c.79,0,1.53-.08,2.27-.08,3.24,0,6.29,2,6.25,7.7a46.61,46.61,0,0,1-1.8,13.36c-1.4,4.41-4,5.35-6.05,5.35a18.55,18.55,0,0,1-4.81-.71c-.27-.07-.39-.15-.43-.7l-.46-5.55a13.55,13.55,0,0,0,3.9.86c1.25,0,1.8-.23,2.38-2.07a42.92,42.92,0,0,0,1.41-10.19c0-2.35-.27-2.81-2-2.81-.7,0-1.6.07-2.58.15-2.62,7.42-4.57,13.48-6.72,21.06l-.43.11-5.15-1.29Zm23.28-23.47,4.14-2.62h.39a38.63,38.63,0,0,1,7.5,12.3l-.15.39-4.89,2.82-.35-.08a36.61,36.61,0,0,0-6.72-12.42Z"/><path class="cls-3" d="M461.48,493.92l4.89.94.23.35a54.69,54.69,0,0,0-1.56,8.32,15.34,15.34,0,0,1,11.17-4.76c6.52,0,10.08,4.06,10.08,9,0,7.62-7.38,10.9-18.28,11.48-.71,0-.94,0-1.25-.5L463.52,514c10.46-.31,16.28-2.38,16.28-6.13,0-2.35-.82-4.06-4.06-4.06-3.51,0-7.85,2-11,7.5l-.39.19-4.77-.43-.27-.35a76.23,76.23,0,0,1,1.79-16.6Zm2.93-5,2.43-4.26.39-.19a44.31,44.31,0,0,1,9.45,3.63l.08.39L474.1,493l-.39.08a40.55,40.55,0,0,0-9.18-3.9Z"/><path class="cls-3" d="M521.6,486.81l5.16-.11.23.19v4.38l-.23.19-5.16-.12H501.52c-.35.47-.74.94-1.13,1.37l5.08.12h12l5.16-.12.23.2v3.9l-.23.2-5.16-.12h-12l-5.12.12-.27-.24V493.1c-.82.94-1.64,1.76-2.42,2.5a.93.93,0,0,1-.67.31.9.9,0,0,1-.58-.23L492.77,493a32.42,32.42,0,0,0,8-10.11l.35-.08,4.69,1.68.08.43c-.35.62-.74,1.25-1.13,1.87ZM515,504.94l.08.39a36.91,36.91,0,0,1-4.26,5.47c2.07,1.56,4,3.16,5.74,4.68l0,.4-3.47,3.63h-.39c-1.64-1.64-3.6-3.4-5.71-5.16a35.65,35.65,0,0,1-10,5.7,1.59,1.59,0,0,1-.39.08,1,1,0,0,1-.78-.47L492.89,516a33,33,0,0,0,10-4.84,55.13,55.13,0,0,0-5.94-4v-.39l2.74-3,.39,0c2.15,1.17,4.41,2.57,6.6,4.06.63-.67,1.21-1.33,1.76-2a27.41,27.41,0,0,0,1.87-2.81h-9.92l-5.51.11-.27-.23v-4.3l.23-.23,5.55.11h17.66l4.41-.11.28.27-.12,4.22a30.77,30.77,0,0,0,1.09,9c.43,1.57.78,2,1.29,2s1.09-.75,1.29-5.12l3.09,2.54c.5.43.5.55.46,1-.42,6.06-2.18,7.89-5,7.89-3,0-5.46-1.91-6.83-8a37.3,37.3,0,0,1-.86-9.06h-5.74Z"/><path class="cls-3" d="M555.55,510.6h-.2l-5.66.12-.27-.27v-4.38l.27-.27,5.66.11h.2v-4l.27-.27h4.69l.27.27v4h.35l5.67-.11.27.27v4.38l-.27.27-5.67-.12h-.35v3.6h2.11l5.71-.12.23.27v4.45l-.23.28-5.71-.12h-9.8l-6.1.12-.23-.28v-4.45l-2.19-.08h-1.76l.12,6.06h-5.08l.12-6.06H535.9l-4.18.12-.31-.27v-4.07l.27-.23,4.22.12H538v-1.76h-.51l-4.57.12-.23-.28.19-4.22v-6.56l-.11-3.83.31-.27,4.18.16h.82v-1.68h-2l-4,.11-.31-.27V487.4l.27-.24,4,.12h2v-3.87l.27-.31h4.26l.16.35v3.83h1.28l3.91-.12.27.28v4l-.27.27-3.91-.11h-1.28v1.68h.93l4.26-.16.2.27,0,3.83v2.7a28.54,28.54,0,0,0,6.48-3.44,29.43,29.43,0,0,1-3.59-4.69v-.43l2.81-1.68h-.23l-4.57.08-.24-.31v-4.06l.24-.24,4.57.12H562l3.12-.16,2.11,2c.23.24.47.43.47.79a1.79,1.79,0,0,1-.2.62,31.72,31.72,0,0,1-5.08,7.58,26.26,26.26,0,0,0,6.92,2.65l-2.62,4.11c-.19.31-.35.43-.62.43a1,1,0,0,1-.47-.08,27.53,27.53,0,0,1-7.15-3.52,26.11,26.11,0,0,1-7.27,4.1,1.2,1.2,0,0,1-.39.12c-.19,0-.31-.12-.54-.43l-2.11-2.73v3l0,4.18-.2.32-4.53-.12h-.66v1.76h1.79l4.1-.12.28.27v4l4.14.08h2.46Zm-17.11-13.79h-1.68V499h1.68Zm-1.68,5.51v2.34h1.68v-2.34Zm7.3-3.32v-2.19h-1.64V499Zm-1.64,5.66h1.64v-2.34h-1.64Zm13.17-15a36.48,36.48,0,0,0,2.81,3.36,15.71,15.71,0,0,0,2.34-3.36Z"/><path class="cls-3" d="M576.57,486.73l5.39.75.23.31a36.09,36.09,0,0,1-1.8,8.48,36.17,36.17,0,0,0-1.44,9.06,19,19,0,0,0,.23,3.94c.12.51.51.55,1.1,0s1.44-1.75,2-2.53l1.13.58a26.69,26.69,0,0,0-1.83,8.24c0,1.76-.9,2.86-2.7,2.89-1.56,0-2.5-.82-3.4-2.38s-2-4.61-2-10.23a54.78,54.78,0,0,1,1.72-11.88,33.32,33.32,0,0,0,1-6.95Zm28.24,28.91a60.89,60.89,0,0,1-9.18.63c-7.85,0-9.92-3.95-10.86-8.29l.19-.35,4.18-1.91.36.12c.74,3.67,2.26,4.84,7.5,4.8a45.38,45.38,0,0,0,7.3-.82l.35.23.35,5.24Zm-17-25c1.29,0,2.54.08,3.75.08a63.56,63.56,0,0,0,11-.94l.28.23.23,4.93-.23.31a58.23,58.23,0,0,1-11.29,1c-1.25,0-2.46,0-3.71-.08l-.28-.35V491Z"/><path class="cls-3" d="M623.25,507.32a27.18,27.18,0,0,0,4.64,3.63,16.4,16.4,0,0,0,4.38-4h-8.79l-6.33.08-.23-.32V502.4l.23-.2,6.33.12h11.6l2.38-.12,2.08,1.88c.27.23.39.39.39.58a1.35,1.35,0,0,1-.24.63,23.41,23.41,0,0,1-6.68,8c3.44,1.09,7.54,1.6,13.13,1.76l-2.89,4.72c-.24.39-.63.47-1.21.43a38.49,38.49,0,0,1-14.38-3.55,43,43,0,0,1-14,3.86,1.12,1.12,0,0,1-1.22-.46l-2.57-4a51.15,51.15,0,0,0,12.77-2.54,39.53,39.53,0,0,1-3.91-3.55v-.43l4.07-2.19Zm18.39-17.77.12.35a46.06,46.06,0,0,1-3.16,5.23h.23l6.49-.11.27.27-.12,3v1.13l.2,4.57H640v-4.14H616.06V504h-5.59l.2-4.57v-1.13l-.12-3,.27-.27,6.29.11a17.22,17.22,0,0,0-1.87-3.51l.12-.35,3-1.25-4.37.23a.9.9,0,0,1-.9-.31l-2.3-4.18a206.27,206.27,0,0,0,29.06-2.66l.39.08a29.4,29.4,0,0,1,4.22,3.87l-.12.39c-2.46.31-4.73.58-6.84.82Zm-13.82-.28c-2.62.24-5.24.47-7.86.63a14.32,14.32,0,0,1,2.31,3.48l-.12.39-3,1.36h7.61l-.23-.08a17.07,17.07,0,0,0-2-4.29l.11-.31Zm5,5.86a38.67,38.67,0,0,0,3.12-6.72c-2.23.28-4.49.51-6.76.75a12.13,12.13,0,0,1,2.35,3.9l-.12.35-4.3,1.72Z"/><path class="cls-3" d="M654.46,486.11l5.19.59.28.31a56.44,56.44,0,0,1-1.21,8.9,43.14,43.14,0,0,0-1.22,8.95,20.2,20.2,0,0,0,.47,4.57c.12.47.39.51.86,0a26.5,26.5,0,0,0,2.62-3l1,.59c-1.32,4.18-1.75,5.35-1.67,7.11.15,2.46-.86,3.63-2.9,3.63a4.49,4.49,0,0,1-3.59-2.42c-1.09-1.84-2.34-5.28-2.34-10.59a72.6,72.6,0,0,1,1.36-11.56,43.75,43.75,0,0,0,.79-6.88Zm9.88,30.19a13.54,13.54,0,0,0,7-5.62c.86-1.41,1.33-3.56,1.33-7.23,0-1.21,0-3-.08-4.76-2.58.11-5.27.15-8.12.19l-.24-.35-.11-4.76.31-.2c2.62,0,5.35-.08,7.93-.23-.08-2.23-.24-4.61-.39-7.11l.31-.24,5.35-.11.28.27c.11,2.3.23,4.53.31,6.76,2-.16,3.79-.39,5.43-.59l.27.23.24,4.85-.24.27c-1.72.24-3.55.47-5.55.63.08,2,.12,4,.12,5.27,0,5.55-.74,8.52-2.15,10.63a14.51,14.51,0,0,1-6.6,5.54,1.18,1.18,0,0,1-.31.08.91.91,0,0,1-.51-.2Z"/><path class="cls-3" d="M695.87,493.92l4.88.94.23.35a54.69,54.69,0,0,0-1.56,8.32,15.34,15.34,0,0,1,11.17-4.76c6.53,0,10.08,4.06,10.08,9,0,7.62-7.38,10.9-18.28,11.48-.7,0-.94,0-1.25-.5L697.9,514c10.47-.31,16.29-2.38,16.29-6.13,0-2.35-.82-4.06-4.07-4.06-3.51,0-7.85,2-11,7.5l-.39.19L694,511l-.27-.35a76.23,76.23,0,0,1,1.79-16.6Zm2.92-5,2.43-4.26.39-.19a44.31,44.31,0,0,1,9.45,3.63l.08.39L708.48,493l-.39.08a40.55,40.55,0,0,0-9.18-3.9Z"/><path class="cls-3" d="M741.41,496.23c3.91-3.83,6.68-5.35,9.85-5.35s6,1.36,6,6.28a65.19,65.19,0,0,1-.47,6.92c-.15,1.76-.31,4-.31,5s.12,1.41.9,1.41,2.85-1,4.88-3.68l1.6,5.24c.24.7.08,1-.42,1.44a10.61,10.61,0,0,1-7.43,3.21c-3,0-5.43-1.45-5.43-6.14,0-1.79.2-4.1.39-6.36.16-1.76.36-3.83.36-5.51,0-1.88-.28-2.35-1.37-2.35s-2.62.86-4,2-3,2.73-4.72,4.37c-.08,4.1,0,8.44.23,14a3,3,0,0,1-3.12,3.08c-1.57,0-2.39-1.13-2.85-2.46a16.93,16.93,0,0,0-3.05-4.8c-.59.82-1.17,1.72-1.88,2.73h-.43L727,511v-.43c3.08-4.14,5.82-7.42,8.83-11.13,0-.86,0-1.72,0-2.58a32.15,32.15,0,0,0-5.24,2.54l-.43-.12L728.05,495l.12-.43a56.58,56.58,0,0,1,7.89-3.36c.08-1.84.16-3.75.27-5.78l.28-.24,5.12,0,.27.31c-.12,1.8-.24,3.56-.31,5.16a2.55,2.55,0,0,1,1.09,1.87c0,.71-.27,1.33-1.33,2.86Zm-6.13,15.82c.47.15.66,0,.66-.78V507.4c-.82,1.17-1.83,2.65-2.65,3.83A17.38,17.38,0,0,0,735.28,512.05Z"/><path class="cls-3" d="M774,493.61l-1-5,.23-.35c5.94-1.33,11.95-2.27,16.21-2.81a3.52,3.52,0,0,1,3.6,3.39,2.72,2.72,0,0,1-.71,2c-3.16,3.12-5.35,5.11-8.59,8.32a9.62,9.62,0,0,1,4.88-1c5.9,0,9.85,4,9.85,10.08,0,7.11-5.36,11.13-14.38,11.13-4.61,0-8.52-1.91-8.52-6.37,0-2.54,2.82-5.43,6-5.43,4.65,0,6.88,3.05,7.93,5.79,2.31-1.1,3-2.93,3-5.67s-2.07-4.92-5.31-4.92c-5.59,0-9.61,3.67-13.75,9l-.39,0-4.18-3.36,0-.43c5.39-6.17,10.31-11.56,15.5-16.72-3,.63-6.4,1.45-10,2.46Zm7.93,18.55c-.78,0-1.48.32-1.48,1s.9,1.56,2.89,1.56a5,5,0,0,0,1.25-.12A3,3,0,0,0,781.92,512.16Z"/></g></g></svg>