<svg xmlns="http://www.w3.org/2000/svg" xmlns:xlink="http://www.w3.org/1999/xlink" viewBox="0 0 577.8 566.02"><defs><style>.cls-1{fill:#4b4b4b;}.cls-2,.cls-7{fill:none;}.cls-2{stroke:#231815;}.cls-3{fill:url(#名称未設定グラデーション_3);}.cls-4{isolation:isolate;}.cls-5{fill:#707070;}.cls-6{fill:red;}.cls-7{stroke:red;stroke-miterlimit:10;stroke-width:1.5px;}</style><radialGradient id="名称未設定グラデーション_3" cx="266.43" cy="140.45" r="164.91" gradientTransform="translate(45.42 -83.74) rotate(10.07)" gradientUnits="userSpaceOnUse"><stop offset="0" stop-color="#fff"/><stop offset="1" stop-color="#fdefef"/></radialGradient></defs><g id="レイヤー_2" data-name="レイヤー 2"><g id="レイヤー_1-2" data-name="レイヤー 1"><path class="cls-1" d="M386.34,533.87c-2.91-3.41-9.73-17-9.73-17s1.13-1.45,0-6.33c-1.46-6.33-7.78-5.84-9.24-7.3s-14.12-24.58-15.09-27.26-11.68-33.09-11.68-33.09c-3.6-15.82-10.23-22.39-19-24.34s-13.38-1.46-17.28-4.87c-2.43-2.12-2.34-3.7-2.34-10.12a27.83,27.83,0,0,0,4.54-5.94,38.37,38.37,0,0,0,3.25-9.64c2.2-.87,2.22-2,3.17-5.45,1.31-4.82,1.22-8.13-2.28-8.13.82-15.72-7.07-23.74-19.72-23.74s-20.54,8-19.71,23.74c-3.51,0-3.61,3.31-2.29,8.13.95,3.48,1,4.58,3.16,5.45a37.91,37.91,0,0,0,3.27,9.64,27.61,27.61,0,0,0,4.53,5.94c0,6.42.08,8-2.35,10.12-3.89,3.41-8.6,2.94-17.27,4.87s-15.39,8.52-19,24.34c0,0-10.71,30.41-11.69,33.09S216,501.74,214.53,503.2s-7.78,1-9.24,7.3c-1.13,4.88,0,6.33,0,6.33s-6.82,13.63-9.74,17,2.44,5.83,5.84,1.45c.4.6,1.75,1,3.28,1.23C192.8,549.7,199.57,566.82,218,566c15.06-.69,73-11.2,73-11.2s57.93,10.51,73,11.2c18.38.83,25.15-16.29,13.26-29.44,1.54-.21,2.89-.63,3.29-1.23C383.91,539.7,389.26,537.27,386.34,533.87Zm-126-21.77s-24.94,7.42-40.47,14.41c3.2-6,6.88-14.06,6.88-14.06l15.58-22.39,12.41-27s3.9,14.61,5.11,16.8S260.29,512.1,260.29,512.1Zm61.32,0s-.73-30.08.49-32.26,5.11-16.8,5.11-16.8l12.41,27,15.57,22.39s3.69,8.1,6.89,14.06C346.55,519.52,321.61,512.1,321.61,512.1Z"/><path d="M126.6,335.7c0,3.87-.32,7.68-.2,11.32a84.17,84.17,0,0,0,.8,9.73,34.35,34.35,0,0,0,2.21,8.09c.06.4-.67.73-1.22.46a5.45,5.45,0,0,1-1.56-2.65c-.32-1.18-.49-2.33-.77-3.47a43.62,43.62,0,0,1-.94-6.19c-.13-2-.15-4-.21-6.15-2.89-.49-8.26-2.21-11.13-4.34a15.74,15.74,0,0,1-4.44-4.9,2.26,2.26,0,0,1-.2-1.39c.32-.39.7-.19,1,0a17.62,17.62,0,0,0,4.61,4.86,33.11,33.11,0,0,0,10.12,4c0-2.81.26-6.2.18-9a45.17,45.17,0,0,1,.17-6.83,3,3,0,0,1,.84-1.73,1.11,1.11,0,0,1,.84-.16c.27,0,.57.2.49.57a16.63,16.63,0,0,0-.55,3.87Z"/><path d="M162,345.39a15.2,15.2,0,0,1-6.18,4.4,13.58,13.58,0,0,1-6.63.9,10.88,10.88,0,0,1-6.46-3.53,15.87,15.87,0,0,1-3.46-6.93A31.69,31.69,0,0,1,139,327.1a31.12,31.12,0,0,1,4-10.28,1.57,1.57,0,0,1,1.87,0,20.82,20.82,0,0,1,9.62,2.6,21.26,21.26,0,0,1,9.42,10.52,16.1,16.1,0,0,1,1.07,8.55A14.14,14.14,0,0,1,162,345.39Zm-18-26.88a31.91,31.91,0,0,0-3.26,9.11,27.72,27.72,0,0,0,.12,11,15.79,15.79,0,0,0,2.75,6.8,9.1,9.1,0,0,0,6.33,3.6,11.67,11.67,0,0,0,6.11-1.25,12.74,12.74,0,0,0,5.33-4.68,13.62,13.62,0,0,0,2-6.45,16.25,16.25,0,0,0-2.74-9.21,21.92,21.92,0,0,0-7.44-6.65A16.83,16.83,0,0,0,144,318.51Z"/><path d="M177.85,339.68a7.23,7.23,0,0,1-5.7-2.35,9.26,9.26,0,0,1-2.18-5.19c-.21-1.89-.09-3.84-.3-5.73a55.82,55.82,0,0,1,1.21-11.92,27.48,27.48,0,0,1,3.26-8.41,12.6,12.6,0,0,1,2-2.1,3,3,0,0,1,2.39-.72.6.6,0,0,1,.24,1,8,8,0,0,0-3,2.55c-2.2,2.89-3.2,7-3.76,10.21a54,54,0,0,0-.3,15.19,6.37,6.37,0,0,0,3.69,5.18,6.23,6.23,0,0,0,5-.23,19.21,19.21,0,0,0,5.34-3.69c.61-.67,1.16-1.36,1.7-2.05s1-1.54,1.62-2.3c.21-.19.59.25.52.55a19.38,19.38,0,0,1-5.66,7.62A12.48,12.48,0,0,1,177.85,339.68Zm19.25-8.4a.57.57,0,0,1-.84.52,3.59,3.59,0,0,1-1.6-2.2,48.93,48.93,0,0,1-3.14-12.82c-4.3,3.79-8.42,7.12-12.84,10.38a4.57,4.57,0,0,1-1.84.53,1.26,1.26,0,0,1-1.08-.69,144.93,144.93,0,0,0,15.9-12.74,1.14,1.14,0,0,1,1.19.21c.47,1.69.51,3.41.81,5.1A63.13,63.13,0,0,0,197.1,331.28Z"/><path d="M219.71,319.21a13.12,13.12,0,0,1,1,4.4c-.11.24-.1.51-.2.76a1.63,1.63,0,0,1-.52.78c-.26.28-.91.06-.9-.33a11.24,11.24,0,0,0-1.15-5.17c-1-2.17-2.34-4.18-3.34-6.28-4.19,2.06-8.24,4.47-12.23,6.87-.41,4.14-.55,8.26-.59,12.53a1.17,1.17,0,0,1-.9.33,1.65,1.65,0,0,1-.86-1.48c.08-3.46.27-6.94.46-10.37a2.59,2.59,0,0,1-.63.1,1,1,0,0,1-.77-.47,1.17,1.17,0,0,1,.38-1.13l.72-.39c.19-.16.38-.26.51-.4a173.74,173.74,0,0,1,2.76-23.7c.16-.7,1-.58,1.38-.4a1.18,1.18,0,0,1,.3.8l0,.67c3.61,4.74,7.1,9.61,10.3,14.67.79-.36,2.26-1.05,3.49-1.57.26-.06.39.67.24.76a14.22,14.22,0,0,1-2.89,2.24C217.19,314.7,218.69,316.84,219.71,319.21Zm-17.23-1.3c3.68-2.1,7.27-4.18,11.12-6.05a129.12,129.12,0,0,0-8.91-13A184.53,184.53,0,0,0,202.48,317.91Z"/><path d="M240.36,324.14a3.39,3.39,0,0,1-2-1.28,6,6,0,0,1-.27-2.37,2.57,2.57,0,0,1,.62-1.37.67.67,0,0,1,.41-.16.39.39,0,0,1,.36.27c.08.63-.08,1.46,0,2.14.13.52.29.92.84,1a6,6,0,0,0,2.88-.38,13.59,13.59,0,0,0,6.48-4,.9.9,0,0,0,.08-1,4.14,4.14,0,0,0-2.21-.56c-1.52-.18-3.06-.13-4.62-.19a9.12,9.12,0,0,1-3.45-.55,3,3,0,0,1-1.42-3.08,18.4,18.4,0,0,1,3.44-7.46,7.67,7.67,0,0,1,3.48-2.34,3.36,3.36,0,0,1,1.92.33,2.82,2.82,0,0,1,1.42,1.85,1,1,0,0,1-.58.88c-.29-.23-.49-.47-.73-.66a3.27,3.27,0,0,0-.76-.48,1.47,1.47,0,0,0-1.09-.18,2.22,2.22,0,0,0-1.29.71,14.72,14.72,0,0,0-3.07,4.69,12.64,12.64,0,0,0-.87,3.06.88.88,0,0,0,.34,1,2.84,2.84,0,0,0,1.5.44l3.87.12a21.81,21.81,0,0,1,3.79.35,3.12,3.12,0,0,1,2,1.34,2.27,2.27,0,0,1,.19,1.84,10.84,10.84,0,0,1-4.72,4.27A13.75,13.75,0,0,1,240.36,324.14Z"/><path d="M274.58,313.79c-1.78,3.86-5,7.45-9.94,7.77a5.15,5.15,0,0,1-4.62-2.73c-1.4-4.51-1.67-9.44-1.73-14.38-1.55.49-3,1.19-4.64,1.79a1.81,1.81,0,0,1-1.77-.87.69.69,0,0,1,.68-.85,1.94,1.94,0,0,0,1.1-.19c1.14-.41,3.46-1.33,4.6-1.79l.27-8.25a3.82,3.82,0,0,1,.27-1.35.92.92,0,0,1,1.41-.38,3.79,3.79,0,0,1,1.08.93l.29.3a7.5,7.5,0,0,1,.81.95,5.12,5.12,0,0,1,.73,1.22c-1,0-1.42-.53-2.15-1a1.15,1.15,0,0,0-.5-.28,3.93,3.93,0,0,0-.19.92v2c0,1.59-.12,3.3-.2,4.37,1.21-.2,2.51-.56,3.76-.82a9.58,9.58,0,0,1,3.88,0c.45.28.18.94-.12,1.12-1.06.13-2.42.34-3.78.61a19.89,19.89,0,0,0-3.75,1,55.11,55.11,0,0,0,1.34,13.5,3.34,3.34,0,0,0,3,2.38c4.2-.06,7.13-2.72,8.75-5.88.32-.61.6-1.16.93-1.77s.55-1.16.77-1.76c.08-.27.35-.18.46-.14s.29.19.3.35a4.53,4.53,0,0,1-.3,1.67C275.08,312.8,274.81,313.35,274.58,313.79Z"/><path d="M294.34,318.91a4.6,4.6,0,0,1-2.63-2.18c-1-2.58-1.27-6.29-1.22-9.58a32.36,32.36,0,0,1-3.78,8.76,14.86,14.86,0,0,1-3.86,3.93,3.54,3.54,0,0,1-3.87-.2,5.62,5.62,0,0,1-1.39-4.11c0-2.12.19-4.19.32-6.26a57.52,57.52,0,0,0,.11-9c.84-.6,1.54.24,1.76.76a48.72,48.72,0,0,1-.12,8.38,53.57,53.57,0,0,0-.2,7.16,2.18,2.18,0,0,0,1.46,1.88,3.2,3.2,0,0,0,2.53-1,12.85,12.85,0,0,0,1.3-1.51c.36-.54.72-1.13,1.09-1.61a21.64,21.64,0,0,0,2.45-5.13c.87-2.29,1.46-4.74,2.16-7.14a.36.36,0,0,0,.11-.21c.15-.27.3-.59.68-.6a.81.81,0,0,1,.91.62c-.07,2.34-.18,5.1-.09,7.59a20.73,20.73,0,0,0,.85,6.13,5.3,5.3,0,0,0,1.95,2.62c.21.15.06.42,0,.53A.81.81,0,0,1,294.34,318.91Z"/><path d="M309.51,312.73c-.25-1.91-.13-3.92-.27-5.94a46,46,0,0,1-5.92,11.46c-1,1.34-2.47,2.56-4.16,2.34a3.81,3.81,0,0,1-2.79-2,14.1,14.1,0,0,1-.29-7,20.94,20.94,0,0,1,3.4-7.94c1.18-1.76,3-3.45,5.26-3.21a4.79,4.79,0,0,1,3.28,1.81,4.44,4.44,0,0,1,.73,1.77,11,11,0,0,0,.75-3.31c.17-1.64.23-3.33.49-5s.54-3.27.81-4.85a29,29,0,0,1,1.12-4.68c.61-.88,1.53.06,1.46.58-.74,4.48-1.79,8.8-2.11,13.4a60.36,60.36,0,0,0,.29,14.54,9.09,9.09,0,0,0,.58,1.61,3.87,3.87,0,0,1,.19.64,1.13,1.13,0,0,1-1.37-.31A8.22,8.22,0,0,1,309.51,312.73Zm-2.76-9.05a2.66,2.66,0,0,0-1.6-1.33,2.35,2.35,0,0,0-2.07.19,13.4,13.4,0,0,0-2.54,2.78,23.5,23.5,0,0,0-2.86,7.53c0,.69-.1,1.43-.13,2.17a6.49,6.49,0,0,0,.25,2.08,2.38,2.38,0,0,0,1.16,1.58c1,.35,1.86-.2,2.64-1.08a34.9,34.9,0,0,0,5.71-10.14.9.9,0,0,1-.4-.76A7.31,7.31,0,0,0,306.75,303.68Z"/><path d="M324,322a3.53,3.53,0,0,1-2.18-.61,4.13,4.13,0,0,1-1.1-2.8,59.69,59.69,0,0,1,1.1-13c-.86,1.31-1.7,2.52-2.61,3.77a25.31,25.31,0,0,1-3.53,4,2.44,2.44,0,0,1-1.1.44,1,1,0,0,1-.51-.2.34.34,0,0,1,0-.53,33.68,33.68,0,0,0,4.56-5.57c1.34-2,2.52-3.94,4-5.84.3-.4,1.08-.12,1.43.12a1.64,1.64,0,0,1,.15,1.4c-1.14,5.27-2.32,12.36-1.56,16a1.53,1.53,0,0,0,.93,1,2.49,2.49,0,0,0,1.75-.6,9.24,9.24,0,0,0,1.57-1.62,11.82,11.82,0,0,0,.57-1.12,3,3,0,0,1,.89-1.1,1,1,0,0,1,.28,1.09l-.29.93a7.26,7.26,0,0,1-2,3A4.61,4.61,0,0,1,324,322Zm3.95-31.1a30.89,30.89,0,0,0-6.44-2.56c-.52-.1-.48-1.16.08-1.54a12.33,12.33,0,0,1,8,4,1.47,1.47,0,0,1,.47,1.42,6.43,6.43,0,0,1-1.17-.63Z"/><path d="M334.71,323.29a5.54,5.54,0,0,1-3.4-3.77,12.69,12.69,0,0,1,.9-7.9,16.19,16.19,0,0,1,5.23-6.36,9.32,9.32,0,0,1,4.5-2,1,1,0,0,1,.93.6,4.46,4.46,0,0,1,1.73,1,6.63,6.63,0,0,1,1.75,2.9,12.62,12.62,0,0,1-.11,7.69,14.07,14.07,0,0,1-4.2,6.23A7.66,7.66,0,0,1,334.71,323.29Zm6.77-18.24a6.8,6.8,0,0,1-.86.42l-.8.37a12.4,12.4,0,0,0-5.72,6,13,13,0,0,0-1.18,6.79,3.67,3.67,0,0,0,2.41,2.84,5.22,5.22,0,0,0,4.78-.59,10.46,10.46,0,0,0,4.2-5.43,14.28,14.28,0,0,0,.85-5.56,6.62,6.62,0,0,0-2.24-4.41A1.12,1.12,0,0,0,341.48,305.05Z"/><path d="M386.59,317.14a93.15,93.15,0,0,0-5.08,14.68.83.83,0,0,1-.82.44,1,1,0,0,1-.88-1,92.55,92.55,0,0,0-.28-13.86c-.47-5.65-2-13-4-17.06a3.81,3.81,0,0,1-.43-1.1c-5.07,6.58-8.77,18.88-10,26.71-.07.48-.72.47-.93.2a1.87,1.87,0,0,1-.48-1.33l.06-1.51a86.4,86.4,0,0,1,5.56-17.84,35.19,35.19,0,0,1,6.76-10c1,.2.87,1.54.53,2l-.66.65a2.61,2.61,0,0,1,.91.95c2,3.25,4.08,12.7,4.5,17.67.24,2.69.48,5.38.49,8.12a94.06,94.06,0,0,1,6.43-15.26,29.43,29.43,0,0,1,6.18-7.89,6.17,6.17,0,0,1,3.38-1.65.72.72,0,0,1-.05,1,16.24,16.24,0,0,0-4.46,4.17A46.31,46.31,0,0,0,386.59,317.14Z"/><path d="M408.45,340a15.16,15.16,0,0,1-7.45-1.41,13.57,13.57,0,0,1-5.25-4.15,10.92,10.92,0,0,1-1.94-7.11,15.88,15.88,0,0,1,2.59-7.29,31.65,31.65,0,0,1,9.32-9.26,31.13,31.13,0,0,1,10.17-4.26,1.58,1.58,0,0,1,1.31,1.34,20.78,20.78,0,0,1,4.79,8.73,21.21,21.21,0,0,1-1,14.08,16.16,16.16,0,0,1-5.42,6.7A14.12,14.12,0,0,1,408.45,340Zm6.91-31.59a32.21,32.21,0,0,0-8.82,4,27.71,27.71,0,0,0-7.84,7.72,15.5,15.5,0,0,0-3,6.69,9,9,0,0,0,1.79,7.06,11.74,11.74,0,0,0,5.13,3.54,12.69,12.69,0,0,0,7.08.59,13.49,13.49,0,0,0,6-3,16.3,16.3,0,0,0,4.75-8.36,22.17,22.17,0,0,0-.38-10A16.92,16.92,0,0,0,415.36,308.44Z"/><path d="M432.33,348.81A29.74,29.74,0,0,1,421,347.6a1.34,1.34,0,0,1-.78-1.4,66.5,66.5,0,0,1,6.66-15.63,47,47,0,0,1,10.31-12.39,8.78,8.78,0,0,0-1.12.1l-1.51.43c-.52,0-.45-.64-.31-.93a3.58,3.58,0,0,1,3.17-1.26l1.12,0c2.22.4,5.71,1.72,7.18,3.41a5.78,5.78,0,0,1,1.53,4.07,7.41,7.41,0,0,1-2.86,5.38,15.58,15.58,0,0,1-5.73,2.6,14.3,14.3,0,0,1,4.72,2.64,6.77,6.77,0,0,1,2,4.46c.24,2-1.36,5-3.28,6.23A25.51,25.51,0,0,1,432.33,348.81Zm8.72-13.71a12.46,12.46,0,0,0-5.57-2,11.9,11.9,0,0,0-3.7.06c-1.23.21-1.31-1.42-.55-1.76.95-.12,1.85-.14,2.82-.19a14.48,14.48,0,0,0,2.7-.31,18.37,18.37,0,0,0,6-2.36,6.65,6.65,0,0,0,2.63-3.73,4,4,0,0,0-.86-3.5c-1-1.14-3.66-2.29-5.18-2.81a50.15,50.15,0,0,0-11,13.29,64.47,64.47,0,0,0-6.24,14.42,29.88,29.88,0,0,0,9.75.88A20,20,0,0,0,442,343a5,5,0,0,0,1.65-4.15A5.83,5.83,0,0,0,441.05,335.1Z"/><path d="M465.49,351c.69-1.07,1.47-2.08,2.16-3.15a92.42,92.42,0,0,1-7.91,6,59.62,59.62,0,0,1-9.24,4.95,10.12,10.12,0,0,1-3.9.77,5.05,5.05,0,0,1-3.3-1.24,5.43,5.43,0,0,1-.75-4.9c.46-1.6,1.3-3.2,1.8-4.76a65,65,0,0,1,6.39-10.2,47.61,47.61,0,0,1,9.69-9.65,2.49,2.49,0,0,1,1.52-.41.75.75,0,0,1,.47.93,7.79,7.79,0,0,1-1.42,1.23,17,17,0,0,0-1.44,1.16,60.56,60.56,0,0,0-7.65,8.25,59.65,59.65,0,0,0-5.45,8.65,26.37,26.37,0,0,0-2.27,5.86,3.31,3.31,0,0,0,.4,2.52,3.37,3.37,0,0,0,3,.85,11.44,11.44,0,0,0,1.93-.45l1.77-.69a47.06,47.06,0,0,0,8.88-4.87,116.25,116.25,0,0,0,11.55-9.21,1,1,0,0,1,1,.09,1.07,1.07,0,0,1,.24,1.1,84.79,84.79,0,0,0-7.08,10,46.67,46.67,0,0,0-4.38,9.54c-.17.46-.66.14-.66-.05-.39-3,1.07-5.49,2.27-8.12A28.56,28.56,0,0,1,465.49,351Z"/><path class="cls-2" d="M126.6,335.7c0,3.87-.32,7.68-.2,11.32a84.17,84.17,0,0,0,.8,9.73,34.35,34.35,0,0,0,2.21,8.09c.06.4-.67.73-1.22.46a5.45,5.45,0,0,1-1.56-2.65c-.32-1.18-.49-2.33-.77-3.47a43.62,43.62,0,0,1-.94-6.19c-.13-2-.15-4-.21-6.15-2.89-.49-8.26-2.21-11.13-4.34a15.74,15.74,0,0,1-4.44-4.9,2.26,2.26,0,0,1-.2-1.39c.32-.39.7-.19,1,0a17.62,17.62,0,0,0,4.61,4.86,33.11,33.11,0,0,0,10.12,4c0-2.81.26-6.2.18-9a45.17,45.17,0,0,1,.17-6.83,3,3,0,0,1,.84-1.73,1.11,1.11,0,0,1,.84-.16c.27,0,.57.2.49.57a16.63,16.63,0,0,0-.55,3.87Z"/><path class="cls-2" d="M162,345.39a15.2,15.2,0,0,1-6.18,4.4,13.58,13.58,0,0,1-6.63.9,10.88,10.88,0,0,1-6.46-3.53,15.87,15.87,0,0,1-3.46-6.93A31.69,31.69,0,0,1,139,327.1a31.12,31.12,0,0,1,4-10.28,1.57,1.57,0,0,1,1.87,0,20.82,20.82,0,0,1,9.62,2.6,21.26,21.26,0,0,1,9.42,10.52,16.1,16.1,0,0,1,1.07,8.55A14.14,14.14,0,0,1,162,345.39Zm-18-26.88a31.91,31.91,0,0,0-3.26,9.11,27.72,27.72,0,0,0,.12,11,15.79,15.79,0,0,0,2.75,6.8,9.1,9.1,0,0,0,6.33,3.6,11.67,11.67,0,0,0,6.11-1.25,12.74,12.74,0,0,0,5.33-4.68,13.62,13.62,0,0,0,2-6.45,16.25,16.25,0,0,0-2.74-9.21,21.92,21.92,0,0,0-7.44-6.65A16.83,16.83,0,0,0,144,318.51Z"/><path class="cls-2" d="M177.85,339.68a7.23,7.23,0,0,1-5.7-2.35,9.26,9.26,0,0,1-2.18-5.19c-.21-1.89-.09-3.84-.3-5.73a55.82,55.82,0,0,1,1.21-11.92,27.48,27.48,0,0,1,3.26-8.41,12.6,12.6,0,0,1,2-2.1,3,3,0,0,1,2.39-.72.6.6,0,0,1,.24,1,8,8,0,0,0-3,2.55c-2.2,2.89-3.2,7-3.76,10.21a54,54,0,0,0-.3,15.19,6.37,6.37,0,0,0,3.69,5.18,6.23,6.23,0,0,0,5-.23,19.21,19.21,0,0,0,5.34-3.69c.61-.67,1.16-1.36,1.7-2.05s1-1.54,1.62-2.3c.21-.19.59.25.52.55a19.38,19.38,0,0,1-5.66,7.62A12.48,12.48,0,0,1,177.85,339.68Zm19.25-8.4a.57.57,0,0,1-.84.52,3.59,3.59,0,0,1-1.6-2.2,48.93,48.93,0,0,1-3.14-12.82c-4.3,3.79-8.42,7.12-12.84,10.38a4.57,4.57,0,0,1-1.84.53,1.26,1.26,0,0,1-1.08-.69,144.93,144.93,0,0,0,15.9-12.74,1.14,1.14,0,0,1,1.19.21c.47,1.69.51,3.41.81,5.1A63.13,63.13,0,0,0,197.1,331.28Z"/><path class="cls-2" d="M219.71,319.21a13.12,13.12,0,0,1,1,4.4c-.11.24-.1.51-.2.76a1.63,1.63,0,0,1-.52.78c-.26.28-.91.06-.9-.33a11.24,11.24,0,0,0-1.15-5.17c-1-2.17-2.34-4.18-3.34-6.28-4.19,2.06-8.24,4.47-12.23,6.87-.41,4.14-.55,8.26-.59,12.53a1.17,1.17,0,0,1-.9.33,1.65,1.65,0,0,1-.86-1.48c.08-3.46.27-6.94.46-10.37a2.59,2.59,0,0,1-.63.1,1,1,0,0,1-.77-.47,1.17,1.17,0,0,1,.38-1.13l.72-.39c.19-.16.38-.26.51-.4a173.74,173.74,0,0,1,2.76-23.7c.16-.7,1-.58,1.38-.4a1.18,1.18,0,0,1,.3.8l0,.67c3.61,4.74,7.1,9.61,10.3,14.67.79-.36,2.26-1.05,3.49-1.57.26-.06.39.67.24.76a14.22,14.22,0,0,1-2.89,2.24C217.19,314.7,218.69,316.84,219.71,319.21Zm-17.23-1.3c3.68-2.1,7.27-4.18,11.12-6.05a129.12,129.12,0,0,0-8.91-13A184.53,184.53,0,0,0,202.48,317.91Z"/><path class="cls-2" d="M240.36,324.14a3.39,3.39,0,0,1-2-1.28,6,6,0,0,1-.27-2.37,2.57,2.57,0,0,1,.62-1.37.67.67,0,0,1,.41-.16.39.39,0,0,1,.36.27c.08.63-.08,1.46,0,2.14.13.52.29.92.84,1a6,6,0,0,0,2.88-.38,13.59,13.59,0,0,0,6.48-4,.9.9,0,0,0,.08-1,4.14,4.14,0,0,0-2.21-.56c-1.52-.18-3.06-.13-4.62-.19a9.12,9.12,0,0,1-3.45-.55,3,3,0,0,1-1.42-3.08,18.4,18.4,0,0,1,3.44-7.46,7.67,7.67,0,0,1,3.48-2.34,3.36,3.36,0,0,1,1.92.33,2.82,2.82,0,0,1,1.42,1.85,1,1,0,0,1-.58.88c-.29-.23-.49-.47-.73-.66a3.27,3.27,0,0,0-.76-.48,1.47,1.47,0,0,0-1.09-.18,2.22,2.22,0,0,0-1.29.71,14.72,14.72,0,0,0-3.07,4.69,12.64,12.64,0,0,0-.87,3.06.88.88,0,0,0,.34,1,2.84,2.84,0,0,0,1.5.44l3.87.12a21.81,21.81,0,0,1,3.79.35,3.12,3.12,0,0,1,2,1.34,2.27,2.27,0,0,1,.19,1.84,10.84,10.84,0,0,1-4.72,4.27A13.75,13.75,0,0,1,240.36,324.14Z"/><path class="cls-2" d="M274.58,313.79c-1.78,3.86-5,7.45-9.94,7.77a5.15,5.15,0,0,1-4.62-2.73c-1.4-4.51-1.67-9.44-1.73-14.38-1.55.49-3,1.19-4.64,1.79a1.81,1.81,0,0,1-1.77-.87.69.69,0,0,1,.68-.85,1.94,1.94,0,0,0,1.1-.19c1.14-.41,3.46-1.33,4.6-1.79l.27-8.25a3.82,3.82,0,0,1,.27-1.35.92.92,0,0,1,1.41-.38,3.79,3.79,0,0,1,1.08.93l.29.3a7.5,7.5,0,0,1,.81.95,5.12,5.12,0,0,1,.73,1.22c-1,0-1.42-.53-2.15-1a1.15,1.15,0,0,0-.5-.28,3.93,3.93,0,0,0-.19.92v2c0,1.59-.12,3.3-.2,4.37,1.21-.2,2.51-.56,3.76-.82a9.58,9.58,0,0,1,3.88,0c.45.28.18.94-.12,1.12-1.06.13-2.42.34-3.78.61a19.89,19.89,0,0,0-3.75,1,55.11,55.11,0,0,0,1.34,13.5,3.34,3.34,0,0,0,3,2.38c4.2-.06,7.13-2.72,8.75-5.88.32-.61.6-1.16.93-1.77s.55-1.16.77-1.76c.08-.27.35-.18.46-.14s.29.19.3.35a4.53,4.53,0,0,1-.3,1.67C275.08,312.8,274.81,313.35,274.58,313.79Z"/><path class="cls-2" d="M294.34,318.91a4.6,4.6,0,0,1-2.63-2.18c-1-2.58-1.27-6.29-1.22-9.58a32.36,32.36,0,0,1-3.78,8.76,14.86,14.86,0,0,1-3.86,3.93,3.54,3.54,0,0,1-3.87-.2,5.62,5.62,0,0,1-1.39-4.11c0-2.12.19-4.19.32-6.26a57.52,57.52,0,0,0,.11-9c.84-.6,1.54.24,1.76.76a48.72,48.72,0,0,1-.12,8.38,53.57,53.57,0,0,0-.2,7.16,2.18,2.18,0,0,0,1.46,1.88,3.2,3.2,0,0,0,2.53-1,12.85,12.85,0,0,0,1.3-1.51c.36-.54.72-1.13,1.09-1.61a21.64,21.64,0,0,0,2.45-5.13c.87-2.29,1.46-4.74,2.16-7.14a.36.36,0,0,0,.11-.21c.15-.27.3-.59.68-.6a.81.81,0,0,1,.91.62c-.07,2.34-.18,5.1-.09,7.59a20.73,20.73,0,0,0,.85,6.13,5.3,5.3,0,0,0,1.95,2.62c.21.15.06.42,0,.53A.81.81,0,0,1,294.34,318.91Z"/><path class="cls-2" d="M309.51,312.73c-.25-1.91-.13-3.92-.27-5.94a46,46,0,0,1-5.92,11.46c-1,1.34-2.47,2.56-4.16,2.34a3.81,3.81,0,0,1-2.79-2,14.1,14.1,0,0,1-.29-7,20.94,20.94,0,0,1,3.4-7.94c1.18-1.76,3-3.45,5.26-3.21a4.79,4.79,0,0,1,3.28,1.81,4.44,4.44,0,0,1,.73,1.77,11,11,0,0,0,.75-3.31c.17-1.64.23-3.33.49-5s.54-3.27.81-4.85a29,29,0,0,1,1.12-4.68c.61-.88,1.53.06,1.46.58-.74,4.48-1.79,8.8-2.11,13.4a60.36,60.36,0,0,0,.29,14.54,9.09,9.09,0,0,0,.58,1.61,3.87,3.87,0,0,1,.19.64,1.13,1.13,0,0,1-1.37-.31A8.22,8.22,0,0,1,309.51,312.73Zm-2.76-9.05a2.66,2.66,0,0,0-1.6-1.33,2.35,2.35,0,0,0-2.07.19,13.4,13.4,0,0,0-2.54,2.78,23.5,23.5,0,0,0-2.86,7.53c0,.69-.1,1.43-.13,2.17a6.49,6.49,0,0,0,.25,2.08,2.38,2.38,0,0,0,1.16,1.58c1,.35,1.86-.2,2.64-1.08a34.9,34.9,0,0,0,5.71-10.14.9.9,0,0,1-.4-.76A7.31,7.31,0,0,0,306.75,303.68Z"/><path class="cls-2" d="M324,322a3.53,3.53,0,0,1-2.18-.61,4.13,4.13,0,0,1-1.1-2.8,59.69,59.69,0,0,1,1.1-13c-.86,1.31-1.7,2.52-2.61,3.77a25.31,25.31,0,0,1-3.53,4,2.44,2.44,0,0,1-1.1.44,1,1,0,0,1-.51-.2.34.34,0,0,1,0-.53,33.68,33.68,0,0,0,4.56-5.57c1.34-2,2.52-3.94,4-5.84.3-.4,1.08-.12,1.43.12a1.64,1.64,0,0,1,.15,1.4c-1.14,5.27-2.32,12.36-1.56,16a1.53,1.53,0,0,0,.93,1,2.49,2.49,0,0,0,1.75-.6,9.24,9.24,0,0,0,1.57-1.62,11.82,11.82,0,0,0,.57-1.12,3,3,0,0,1,.89-1.1,1,1,0,0,1,.28,1.09l-.29.93a7.26,7.26,0,0,1-2,3A4.61,4.61,0,0,1,324,322Zm3.95-31.1a30.89,30.89,0,0,0-6.44-2.56c-.52-.1-.48-1.16.08-1.54a12.33,12.33,0,0,1,8,4,1.47,1.47,0,0,1,.47,1.42,6.43,6.43,0,0,1-1.17-.63Z"/><path class="cls-2" d="M334.71,323.29a5.54,5.54,0,0,1-3.4-3.77,12.69,12.69,0,0,1,.9-7.9,16.19,16.19,0,0,1,5.23-6.36,9.32,9.32,0,0,1,4.5-2,1,1,0,0,1,.93.6,4.46,4.46,0,0,1,1.73,1,6.63,6.63,0,0,1,1.75,2.9,12.62,12.62,0,0,1-.11,7.69,14.07,14.07,0,0,1-4.2,6.23A7.66,7.66,0,0,1,334.71,323.29Zm6.77-18.24a6.8,6.8,0,0,1-.86.42l-.8.37a12.4,12.4,0,0,0-5.72,6,13,13,0,0,0-1.18,6.79,3.67,3.67,0,0,0,2.41,2.84,5.22,5.22,0,0,0,4.78-.59,10.46,10.46,0,0,0,4.2-5.43,14.28,14.28,0,0,0,.85-5.56,6.62,6.62,0,0,0-2.24-4.41A1.12,1.12,0,0,0,341.48,305.05Z"/><path class="cls-2" d="M386.59,317.14a93.15,93.15,0,0,0-5.08,14.68.83.83,0,0,1-.82.44,1,1,0,0,1-.88-1,92.55,92.55,0,0,0-.28-13.86c-.47-5.65-2-13-4-17.06a3.81,3.81,0,0,1-.43-1.1c-5.07,6.58-8.77,18.88-10,26.71-.07.48-.72.47-.93.2a1.87,1.87,0,0,1-.48-1.33l.06-1.51a86.4,86.4,0,0,1,5.56-17.84,35.19,35.19,0,0,1,6.76-10c1,.2.87,1.54.53,2l-.66.65a2.61,2.61,0,0,1,.91.95c2,3.25,4.08,12.7,4.5,17.67.24,2.69.48,5.38.49,8.12a94.06,94.06,0,0,1,6.43-15.26,29.43,29.43,0,0,1,6.18-7.89,6.17,6.17,0,0,1,3.38-1.65.72.72,0,0,1-.05,1,16.24,16.24,0,0,0-4.46,4.17A46.31,46.31,0,0,0,386.59,317.14Z"/><path class="cls-2" d="M408.45,340a15.16,15.16,0,0,1-7.45-1.41,13.57,13.57,0,0,1-5.25-4.15,10.92,10.92,0,0,1-1.94-7.11,15.88,15.88,0,0,1,2.59-7.29,31.65,31.65,0,0,1,9.32-9.26,31.13,31.13,0,0,1,10.17-4.26,1.58,1.58,0,0,1,1.31,1.34,20.78,20.78,0,0,1,4.79,8.73,21.21,21.21,0,0,1-1,14.08,16.16,16.16,0,0,1-5.42,6.7A14.12,14.12,0,0,1,408.45,340Zm6.91-31.59a32.21,32.21,0,0,0-8.82,4,27.71,27.71,0,0,0-7.84,7.72,15.5,15.5,0,0,0-3,6.69,9,9,0,0,0,1.79,7.06,11.74,11.74,0,0,0,5.13,3.54,12.69,12.69,0,0,0,7.08.59,13.49,13.49,0,0,0,6-3,16.3,16.3,0,0,0,4.75-8.36,22.17,22.17,0,0,0-.38-10A16.92,16.92,0,0,0,415.36,308.44Z"/><path class="cls-2" d="M432.33,348.81A29.74,29.74,0,0,1,421,347.6a1.34,1.34,0,0,1-.78-1.4,66.5,66.5,0,0,1,6.66-15.63,47,47,0,0,1,10.31-12.39,8.78,8.78,0,0,0-1.12.1l-1.51.43c-.52,0-.45-.64-.31-.93a3.58,3.58,0,0,1,3.17-1.26l1.12,0c2.22.4,5.71,1.72,7.18,3.41a5.78,5.78,0,0,1,1.53,4.07,7.41,7.41,0,0,1-2.86,5.38,15.58,15.58,0,0,1-5.73,2.6,14.3,14.3,0,0,1,4.72,2.64,6.77,6.77,0,0,1,2,4.46c.24,2-1.36,5-3.28,6.23A25.51,25.51,0,0,1,432.33,348.81Zm8.72-13.71a12.46,12.46,0,0,0-5.57-2,11.9,11.9,0,0,0-3.7.06c-1.23.21-1.31-1.42-.55-1.76.95-.12,1.85-.14,2.82-.19a14.48,14.48,0,0,0,2.7-.31,18.37,18.37,0,0,0,6-2.36,6.65,6.65,0,0,0,2.63-3.73,4,4,0,0,0-.86-3.5c-1-1.14-3.66-2.29-5.18-2.81a50.15,50.15,0,0,0-11,13.29,64.47,64.47,0,0,0-6.24,14.42,29.88,29.88,0,0,0,9.75.88A20,20,0,0,0,442,343a5,5,0,0,0,1.65-4.15A5.83,5.83,0,0,0,441.05,335.1Z"/><path class="cls-2" d="M465.49,351c.69-1.07,1.47-2.08,2.16-3.15a92.42,92.42,0,0,1-7.91,6,59.62,59.62,0,0,1-9.24,4.95,10.12,10.12,0,0,1-3.9.77,5.05,5.05,0,0,1-3.3-1.24,5.43,5.43,0,0,1-.75-4.9c.46-1.6,1.3-3.2,1.8-4.76a65,65,0,0,1,6.39-10.2,47.61,47.61,0,0,1,9.69-9.65,2.49,2.49,0,0,1,1.52-.41.75.75,0,0,1,.47.93,7.79,7.79,0,0,1-1.42,1.23,17,17,0,0,0-1.44,1.16,60.56,60.56,0,0,0-7.65,8.25,59.65,59.65,0,0,0-5.45,8.65,26.37,26.37,0,0,0-2.27,5.86,3.31,3.31,0,0,0,.4,2.52,3.37,3.37,0,0,0,3,.85,11.44,11.44,0,0,0,1.93-.45l1.77-.69a47.06,47.06,0,0,0,8.88-4.87,116.25,116.25,0,0,0,11.55-9.21,1,1,0,0,1,1,.09,1.07,1.07,0,0,1,.24,1.1,84.79,84.79,0,0,0-7.08,10,46.67,46.67,0,0,0-4.38,9.54c-.17.46-.66.14-.66-.05-.39-3,1.07-5.49,2.27-8.12A28.56,28.56,0,0,1,465.49,351Z"/><ellipse class="cls-3" cx="283.2" cy="101.13" rx="216.57" ry="86.49" transform="translate(-16.65 78.3) rotate(-15.3)"/><g id="オンラインのヨガレッスンなら_ヨガスタジオ_NOBUへ" data-name="オンラインのヨガレッスンなら ヨガスタジオ NOBUへ" class="cls-4"><g class="cls-4"><path class="cls-5" d="M23.82,118.29l-4.08.86c.25,5.78.37,10.18.37,13.15,0,6.31-1.34,9.44-3.95,9.44a4.22,4.22,0,0,1-2.77-1.38c-1.26-1.18-1.87-2.08-1.87-2.77a1.56,1.56,0,0,1,.57-1.22,1.55,1.55,0,0,1,1.06-.53,2,2,0,0,1,1.59,1,4.48,4.48,0,0,0,1.3,1.34c.45-1.06.69-4.11.69-9.08,0-1.1-.12-4.07-.28-8.87A38.67,38.67,0,0,1,8,132.38c-3.38,3.42-5.46,5.13-6.19,5.21-1.14,0-1.71-.69-1.79-1.91.08-1.31,1-2.53,2.61-3.71a2.37,2.37,0,0,1,1.5-.45c4.15-4,7.09-7.77,8.71-11.31-4.07.49-6.55.73-7.53.73q-2.07,0-2.07-1.71a1.52,1.52,0,0,1,1.62-1.75,92.27,92.27,0,0,0,11.61-1.3,25.59,25.59,0,0,0-.21-2.77,3.38,3.38,0,0,1,.57-2,2,2,0,0,1,1-.89c.9,0,1.43.2,1.67.53a2.22,2.22,0,0,1,.37,1.14l0,1.58v1.8c.93-.17,2.4-.41,4.43-.82a1.83,1.83,0,0,1,2,1.38C26.26,117.23,25.44,118,23.82,118.29Z"/><path class="cls-5" d="M68.8,127a51.18,51.18,0,0,1-7.24,6.89,30.54,30.54,0,0,1-8.71,4.43,2.73,2.73,0,0,1-1.63.9,13.68,13.68,0,0,1-2.12.32c-1.55,0-2.32-.61-2.32-1.79A1.56,1.56,0,0,1,48,136a31.56,31.56,0,0,0,10.3-3.95,40.52,40.52,0,0,0,8.3-7.37,1.53,1.53,0,0,1,1.19-.61c1,0,1.58.61,1.58,1.75A1.79,1.79,0,0,1,68.8,127Zm-12.37-4.84a3,3,0,0,1-1.51-.85c-.32-.25-1.26-.82-2.81-1.71a2.73,2.73,0,0,1-1.63-2.45c0-1.14.66-1.75,2-1.75,1,0,2.64,1.22,5,3.63a1.82,1.82,0,0,1,.77,1.42Q58.26,122.16,56.43,122.16Z"/><path class="cls-5" d="M105.94,133.07a40.45,40.45,0,0,1-6.11,6.43c-2.85,2.41-5.09,3.63-6.72,3.63-1.14,0-1.67-.61-1.67-1.75s.57-1.67,1.75-1.67a7.44,7.44,0,0,0,2.61-1.26c4.6-3.34,7.77-7,9.52-10.92a5.12,5.12,0,0,0,.62-2.07c0-1.51-1.1-2.28-3.26-2.28-.65,0-2.65.24-6,.65a6,6,0,0,1-1.83.94,7.68,7.68,0,0,1-2.85.69c-1.67,0-2.48-.65-2.48-2,0-1,1-1.79,3-2.28a42.68,42.68,0,0,1,10.14-1.42,8.14,8.14,0,0,1,4.44,1.18,4.56,4.56,0,0,1,2.07,4C109.23,127.41,108.13,130.1,105.94,133.07ZM106,115.2a55.94,55.94,0,0,1-9.49.94,19.46,19.46,0,0,1-2.89-.13c-1.18-.24-1.75-.85-1.75-1.83a2.08,2.08,0,0,1,.61-1.42,1.92,1.92,0,0,1,1.34-.65,3.11,3.11,0,0,1,1.88.61c.53,0,.89,0,1.14,0,1,0,4-.29,8.75-.94,1.06,0,1.63.61,1.63,1.75A1.45,1.45,0,0,1,106,115.2Z"/><path class="cls-5" d="M145.55,114.18a47.42,47.42,0,0,1-2.89,3.79,24.72,24.72,0,0,1,1.06,8c0,1.71-.12,4.47-.37,8.22-.32,4.23-.49,6.64-.49,7.29,0,1.18-.57,1.79-1.63,1.79s-1.58-1-1.87-2.85c-.24-1.34-.36-2.08-.36-2.24,0-.41.28-.81.85-1.3.41-5.82.61-9.33.61-10.51A37,37,0,0,0,140,121q-1.22,1.22-6.35,6a3.49,3.49,0,0,1-1.79,1.1c-1.14,0-1.67-.57-1.67-1.71a2.17,2.17,0,0,1,.86-1.5A81.6,81.6,0,0,0,142,113.57a1.85,1.85,0,0,1,.36-1.14c1.23-1.75,2.2-2.64,2.94-2.64a1.88,1.88,0,0,1,1.14.44,1.69,1.69,0,0,1,.44,1.14A6.56,6.56,0,0,1,145.55,114.18Z"/><path class="cls-5" d="M194.61,127a51.18,51.18,0,0,1-7.25,6.89,30.28,30.28,0,0,1-8.71,4.43,2.73,2.73,0,0,1-1.63.9,13.68,13.68,0,0,1-2.12.32c-1.54,0-2.32-.61-2.32-1.79a1.56,1.56,0,0,1,1.18-1.75,31.38,31.38,0,0,0,10.3-3.95,40.27,40.27,0,0,0,8.31-7.37,1.49,1.49,0,0,1,1.18-.61c1.06,0,1.59.61,1.59,1.75A1.84,1.84,0,0,1,194.61,127Zm-12.38-4.84a3,3,0,0,1-1.5-.85c-.33-.25-1.27-.82-2.81-1.71a2.73,2.73,0,0,1-1.63-2.45c0-1.14.65-1.75,2-1.75,1,0,2.65,1.22,5,3.63a1.79,1.79,0,0,1,.77,1.42Q184.06,122.16,182.23,122.16Z"/><path class="cls-5" d="M233.45,133c-2.2,3.38-4.64,5.62-7.29,6.68a2.64,2.64,0,0,1-.93.24c-1.06,0-1.59-.65-1.59-1.91,0-.65.57-1.43,1.71-2.32a2.24,2.24,0,0,1,1.46-.49,22.64,22.64,0,0,0,4.52-5.13,12,12,0,0,0,2.2-6.47c0-2.12-1.55-3.38-4.6-3.83a39.59,39.59,0,0,1-5.9,11.11c-1.71,2.28-3.5,3.38-5.29,3.38a3.94,3.94,0,0,1-3.38-1.95,6.84,6.84,0,0,1-1.27-4c0-2.77,2-5.54,6.07-8.35,3.5-2.4,6.6-3.62,9.2-3.62a9.62,9.62,0,0,1,5.86,1.75,6.66,6.66,0,0,1,2.53,5.54Q236.75,128,233.45,133Zm-13.64-9.36c-2.28,1.79-3.42,3.42-3.42,4.92a3.07,3.07,0,0,0,.49,1.55c.33.53.65.77.94.77,1.14,0,3-2.07,5.45-6.27a31.19,31.19,0,0,0,1.87-4.11A21.53,21.53,0,0,0,219.81,123.63Z"/><path class="cls-5" d="M272.21,133.44a3.73,3.73,0,0,1,.2.81c0,1.14-.53,1.71-1.5,1.71,0,0-.45,0-1.27-.08s-1.34,0-1.58,0c-4.16,0-7,.37-8.47,1a3,3,0,0,1-.9.32,2,2,0,0,1-2.11-1.22,1.9,1.9,0,0,1-.25-.77c0-1.06,1-1.75,3.06-2.08a68.58,68.58,0,0,1,9.48-.73,37.11,37.11,0,0,0,3-4.76c-.49,0-1.14,0-2,0a41.5,41.5,0,0,0-9.57.85,4.44,4.44,0,0,1-.81.12c-1.1,0-1.63-.69-1.63-2.11,0-.66.41-1.06,1.22-1.27a38.2,38.2,0,0,1,9.24-1c.9,0,2.65,0,5.17.12a10.91,10.91,0,0,0,.61-3.14c0-1.54-.85-2.36-2.56-2.36a52.42,52.42,0,0,0-8.1.82c-.53.61-1.55.89-3,.89-1.71,0-2.52-.73-2.52-2.24a1.27,1.27,0,0,1,1.1-1.38,76.26,76.26,0,0,1,11.93-1.59c2.76,0,4.68,1,5.74,2.93a6.86,6.86,0,0,1,.65,2.93C277.3,124.32,275.59,128.43,272.21,133.44Z"/><path class="cls-5" d="M317.81,131.28a29.45,29.45,0,0,1-3.34,5.78c-1.75,2.28-3.3,3.46-4.6,3.46a3.38,3.38,0,0,1-3.26-2.48,10,10,0,0,1-.81-3.63,1.66,1.66,0,0,1,.49-1.22,2,2,0,0,1,1.22-.4,1.43,1.43,0,0,1,1.5,1.34,7.42,7.42,0,0,0,.78,2.85c1.14-.41,2.4-2,3.87-4.85a37.83,37.83,0,0,0,2.89-6.84,15.42,15.42,0,0,0,.85-4c0-.66-.45-1.14-1.34-1.51a7.45,7.45,0,0,0-2.81-.53,30.68,30.68,0,0,0-4.52.37c-1.34,2.93-2.85,6-4.56,9.28-1.34,2.44-3,5.49-4.84,9.16a5.6,5.6,0,0,1,.08.77,3.27,3.27,0,0,1-1,2,3,3,0,0,1-1.95,1.06,1.68,1.68,0,0,1-1.19-.49,1.83,1.83,0,0,1-.48-1.22c0-.49,2.32-5.13,7-14,1.26-2.44,2.24-4.4,3-5.9-.41.08-.94.2-1.59.28a6.62,6.62,0,0,1-3.13,1.18c-1.3,0-2-.57-2-1.79a2,2,0,0,1,1.71-2.15c1.47-.29,3.63-.74,6.52-1.31a51.83,51.83,0,0,0,1.5-5c.41-1.63,1.1-2.49,2.16-2.49s1.71.65,1.71,2a3.93,3.93,0,0,1-.61,2.4c-.16.61-.49,1.5-.9,2.64,1.06-.08,2-.12,2.77-.12,5.09,0,7.66,1.87,7.66,5.58Q320.62,124.56,317.81,131.28Zm5.9-13.35a1.79,1.79,0,0,1-1.3-.61,1.83,1.83,0,0,1-.78-1.14c-.24-.29-.65-.74-1.14-1.39a3.67,3.67,0,0,1-1.18-2.07c0-1,.45-1.51,1.43-1.51.41,0,.85.33,1.3.9.73.89,1.59,2,2.65,3.33a2.28,2.28,0,0,1,.28,1C325,117.44,324.52,117.93,323.71,117.93Zm3.14-4a1.35,1.35,0,0,1-1.06-.57,7.42,7.42,0,0,0-2-1.31,1.69,1.69,0,0,1-1.06-1.71,1.14,1.14,0,0,1,.45-.89,1.62,1.62,0,0,1,1-.37,4.83,4.83,0,0,1,2.52,1.18c1,.78,1.51,1.51,1.51,2.2A1.28,1.28,0,0,1,326.85,113.9Z"/><path class="cls-5" d="M361.13,127.13c-2.45,2.16-4,3.54-4.73,4.11-1.83,1.55-3.5,2.81-5,3.87a8.23,8.23,0,0,1-4.72,1.71c-3.47,0-5.18-3.1-5.18-9.29a53.42,53.42,0,0,1,2-14.2,1.6,1.6,0,0,1,1.59-1.39,2.33,2.33,0,0,1,1.26.57,2.15,2.15,0,0,1,.61,1.59,4.42,4.42,0,0,1-.37,1.43,27.49,27.49,0,0,0-1.38,6.67,52.38,52.38,0,0,0-.41,6.23c0,3.38.61,5,1.83,5s3.14-1.1,6-3.3c1.1-.89,3-2.65,5.9-5.17a2.73,2.73,0,0,1,1.75-.81c1,0,1.51.57,1.51,1.71A1.62,1.62,0,0,1,361.13,127.13Z"/><path class="cls-5" d="M388.9,130.67a.94.94,0,0,1-.9-.45c-.73-1-1.71-2.28-3-4a2.06,2.06,0,0,1-.53-1.46c0-.86.49-1.31,1.46-1.31a2.06,2.06,0,0,1,1.59,1.06c1.91,2.69,2.89,4.24,2.89,4.6A1.34,1.34,0,0,1,388.9,130.67Zm10.87.28a45,45,0,0,1-4.69,7.74c-1.34,1.67-2.28,2.52-2.77,2.52-1.09,0-1.62-.49-1.62-1.38a2.44,2.44,0,0,1,1.22-1.87,42.4,42.4,0,0,0,4.84-7.33c1.92-3.58,2.89-6.27,2.89-8.06a1.76,1.76,0,0,1-.08-.57c0-1,.45-1.51,1.43-1.51s1.54.73,1.54,2.16C402.53,124.52,401.6,127.29,399.77,131Zm-4.61-4.19a1.19,1.19,0,0,1-.89.41,1.77,1.77,0,0,1-1.55-.9,11.65,11.65,0,0,1-.89-1.83,2.62,2.62,0,0,1-.7-1.79,1.25,1.25,0,0,1,1.39-1.43,1.71,1.71,0,0,1,1.14.41,12,12,0,0,1,1.3,2.16,6,6,0,0,1,.57,2.08A1.3,1.3,0,0,1,395.16,126.76Z"/><path class="cls-5" d="M443.73,136.41a1.32,1.32,0,0,1-1.18.69c-1.14,0-1.7-.41-1.7-1.26a7.76,7.76,0,0,1,.12-1.22c-.25-.82-1.18-1.63-2.81-2.53a22.4,22.4,0,0,0-3.75-1.5,40.65,40.65,0,0,1-8,7.24,4.55,4.55,0,0,1-2.48.9,1.69,1.69,0,0,1-1.26-.45,1.63,1.63,0,0,1-.49-1.22,1.47,1.47,0,0,1,1.67-1.67c1.34-.57,3.26-2.12,5.74-4.64a63.46,63.46,0,0,0,5.09-5.82,28.63,28.63,0,0,0,2.44-3.87,10.14,10.14,0,0,0,1.47-4.23c0-.45-.66-.69-1.92-.69a20.17,20.17,0,0,0-7.37,1.34,2.75,2.75,0,0,1-1.83.89,2.43,2.43,0,0,1-1.75-.73,2.26,2.26,0,0,1-.77-1.75c0-.77.49-1.26,1.46-1.51a83.83,83.83,0,0,1,10.63-1.71c3.21,0,4.84,1.43,4.84,4.24s-1.75,6.43-5.21,10.75c5.05,1.83,7.57,4.15,7.57,7A2.87,2.87,0,0,1,443.73,136.41Z"/><path class="cls-5" d="M488.15,127a51.18,51.18,0,0,1-7.24,6.89,30.47,30.47,0,0,1-8.72,4.43,2.67,2.67,0,0,1-1.62.9,13.68,13.68,0,0,1-2.12.32c-1.55,0-2.32-.61-2.32-1.79a1.56,1.56,0,0,1,1.18-1.75,31.56,31.56,0,0,0,10.3-3.95,40.52,40.52,0,0,0,8.3-7.37,1.52,1.52,0,0,1,1.18-.61c1.06,0,1.59.61,1.59,1.75A1.79,1.79,0,0,1,488.15,127Zm-12.37-4.84a3,3,0,0,1-1.51-.85c-.33-.25-1.26-.82-2.81-1.71a2.73,2.73,0,0,1-1.63-2.45c0-1.14.65-1.75,2-1.75,1,0,2.64,1.22,5,3.63a1.82,1.82,0,0,1,.77,1.42Q477.61,122.16,475.78,122.16Z"/><path class="cls-5" d="M529.68,114.63a54.7,54.7,0,0,1-12.42,2.24A97,97,0,0,1,510,131.61a1.46,1.46,0,0,1-1.59,1,1.14,1.14,0,0,1-1.06-.57,1.58,1.58,0,0,1-.45-1.14,1.92,1.92,0,0,1,.29-.93,112.51,112.51,0,0,0,6.51-13,23.38,23.38,0,0,1-4.84-.41,1.42,1.42,0,0,1-1.26-1.58c0-1.18.44-1.8,1.42-1.8a41.54,41.54,0,0,0,4.85.25h1c.17-.57.49-1.55.9-3a1.62,1.62,0,0,1,1.67-1.27,1.6,1.6,0,0,1,1.1.53,1.87,1.87,0,0,1,.49,1.27,11.86,11.86,0,0,1-.57,2.23,80.5,80.5,0,0,0,10.58-2.11c1.22,0,1.83.65,1.87,2A1.55,1.55,0,0,1,529.68,114.63Zm-1.59,26.62c-1.06,0-1.58-.61-1.58-1.75,0-2.64-.61-4.39-1.8-5.25a9.15,9.15,0,0,1-2.4,3.83,5.91,5.91,0,0,1-4.07,1.91q-5.37,0-5.37-4c0-1.55,1.06-2.93,3.21-4.23a11,11,0,0,1,5.7-1.79c.17,0,.45,0,.78.08.08-1.18.12-2,.12-2.53a7.71,7.71,0,0,0-.65-2.81,1.87,1.87,0,0,1-.78-1.42,2.29,2.29,0,0,1,.49-1.43,1.62,1.62,0,0,1,1.22-.57c.82,0,1.51.7,2.12,2.08A13,13,0,0,1,526,128a20.36,20.36,0,0,1-.29,2.73c2.69,1.63,4,4.56,4,8.75A1.53,1.53,0,0,1,528.09,141.25Zm-10.26-7.61c-1.46.61-2.15,1.3-2.15,2s.49,1,1.54,1a4.37,4.37,0,0,0,3-1.22,4.52,4.52,0,0,0,1.5-2.52A10.86,10.86,0,0,0,517.83,133.64Zm14.33-9.52a1.63,1.63,0,0,1-1.22.61,1.81,1.81,0,0,1-1.3-.49,1.38,1.38,0,0,1-.57-1.14,2.64,2.64,0,0,1,.08-.65c-.24-.29-.61-.7-1-1.19-1-.81-1.54-1.54-1.54-2.11,0-1.22.57-1.87,1.71-1.87.44,0,1.3.65,2.6,1.87a4.84,4.84,0,0,1,1.71,3.34A2.83,2.83,0,0,1,532.16,124.12Z"/><path class="cls-5" d="M569.7,131.32a20.9,20.9,0,0,1-8.79,9.69,8.94,8.94,0,0,1-4.15.9c-2.16,0-3.22-.66-3.22-2a1.77,1.77,0,0,1,1.1-1.87,10.15,10.15,0,0,1,1.18.2,4.31,4.31,0,0,0,1.34.21,7.34,7.34,0,0,0,4.48-2,19,19,0,0,0,4-4.68,11.33,11.33,0,0,0,2-5.9c0-2.49-1.1-3.75-3.3-3.75a9.58,9.58,0,0,0-5.46,1.83c-2.85,1.88-4.6,3.54-5.29,4.93a2.15,2.15,0,0,1-2.16,1.79,1.11,1.11,0,0,1-1-.45,1.37,1.37,0,0,1-.45-1.06,4.24,4.24,0,0,1,.28-1.34c.33-1.22.94-3.54,1.79-7-.08-.33-.16-.73-.32-1.26a2.34,2.34,0,0,1-.41-1.43,3.54,3.54,0,0,1,.61-2,1.9,1.9,0,0,1,1.63-.86c1.26,0,1.91,1.18,1.91,3.5a17.84,17.84,0,0,1-1.14,5c3-3.5,6.32-5.29,9.9-5.29a6.4,6.4,0,0,1,4.88,2.24,7.49,7.49,0,0,1,1.88,5A14.2,14.2,0,0,1,569.7,131.32Zm-12.94-17.1a3,3,0,0,1-1.35-.49l-2.15-1.26a2.22,2.22,0,0,1-1.55-.45,2.88,2.88,0,0,1-1.18-1.91q0-2,1.59-2c.48,0,2,.73,4.39,2.19,1.22.49,1.88,1.1,1.88,1.8C558.39,113.53,557.81,114.22,556.76,114.22Z"/><path class="cls-5" d="M108.15,182.29a3.53,3.53,0,0,1,.21.82c0,1.14-.53,1.71-1.51,1.71,0,0-.45,0-1.26-.08s-1.34,0-1.59,0c-4.15,0-7,.36-8.47,1a2.75,2.75,0,0,1-.89.33,2.27,2.27,0,0,1-2.36-2c0-1,1-1.75,3-2.07a68.72,68.72,0,0,1,9.49-.73,37.64,37.64,0,0,0,3-4.77c-.49,0-1.14,0-2,0a41.31,41.31,0,0,0-9.56.86,4.41,4.41,0,0,1-.82.12c-1.1,0-1.63-.69-1.63-2.12,0-.65.41-1.06,1.23-1.26a38.1,38.1,0,0,1,9.24-1c.89,0,2.64,0,5.17.12A11.2,11.2,0,0,0,110,170c0-1.55-.86-2.36-2.57-2.36a52.46,52.46,0,0,0-8.1.81,3.92,3.92,0,0,1-3,.9c-1.71,0-2.53-.73-2.53-2.24a1.29,1.29,0,0,1,1.1-1.39,77.14,77.14,0,0,1,11.93-1.58c2.77,0,4.68,1,5.74,2.93a6.68,6.68,0,0,1,.65,2.93C113.24,173.17,111.53,177.29,108.15,182.29Z"/><path class="cls-5" d="M153.75,180.14a29.19,29.19,0,0,1-3.33,5.78c-1.75,2.28-3.3,3.46-4.6,3.46a3.38,3.38,0,0,1-3.26-2.49,10,10,0,0,1-.82-3.62,1.67,1.67,0,0,1,.49-1.22,2.05,2.05,0,0,1,1.22-.41A1.44,1.44,0,0,1,145,183a7.56,7.56,0,0,0,.77,2.85c1.14-.41,2.41-2,3.87-4.85a37.72,37.72,0,0,0,2.89-6.84,15.53,15.53,0,0,0,.86-4c0-.65-.45-1.14-1.35-1.5a7.41,7.41,0,0,0-2.81-.53,31.86,31.86,0,0,0-4.51.36c-1.35,2.93-2.85,6-4.56,9.29-1.35,2.44-3,5.49-4.85,9.15a5.74,5.74,0,0,1,.08.78,3.17,3.17,0,0,1-1,2,2.91,2.91,0,0,1-2,1.06,1.62,1.62,0,0,1-1.18-.49,1.76,1.76,0,0,1-.49-1.22c0-.49,2.32-5.13,7-14,1.27-2.44,2.24-4.4,3-5.9-.41.08-.94.2-1.59.28a6.72,6.72,0,0,1-3.14,1.18c-1.3,0-1.95-.57-1.95-1.79a2,2,0,0,1,1.71-2.16c1.47-.28,3.62-.73,6.51-1.3.61-1.71,1.1-3.38,1.51-5s1.1-2.48,2.16-2.48,1.71.65,1.71,2a4,4,0,0,1-.61,2.4c-.17.61-.49,1.51-.9,2.65,1.06-.08,2-.12,2.77-.12,5.09,0,7.65,1.87,7.65,5.58Q156.56,173.42,153.75,180.14Zm5.91-13.36a1.79,1.79,0,0,1-1.31-.61,1.77,1.77,0,0,1-.77-1.14c-.24-.28-.65-.73-1.14-1.38a3.69,3.69,0,0,1-1.18-2.08c0-1,.45-1.5,1.43-1.5a1.9,1.9,0,0,1,1.3.89c.73.9,1.59,2,2.64,3.34a2.16,2.16,0,0,1,.29,1C160.92,166.29,160.47,166.78,159.66,166.78Zm3.13-4a1.34,1.34,0,0,1-1.06-.57,7.51,7.51,0,0,0-1.95-1.3,1.71,1.71,0,0,1-1.06-1.71,1.13,1.13,0,0,1,.45-.9,1.65,1.65,0,0,1,1-.36,4.86,4.86,0,0,1,2.52,1.18c1,.77,1.51,1.51,1.51,2.2A1.28,1.28,0,0,1,162.79,162.75Z"/><path class="cls-5" d="M195.81,185.27a1.34,1.34,0,0,1-1.18.69c-1.14,0-1.71-.41-1.71-1.26a7.87,7.87,0,0,1,.12-1.23c-.24-.81-1.18-1.62-2.81-2.52a23.58,23.58,0,0,0-3.74-1.51,40.7,40.7,0,0,1-8,7.25,4.66,4.66,0,0,1-2.48.9,1.77,1.77,0,0,1-1.27-.45,1.67,1.67,0,0,1-.48-1.22,1.46,1.46,0,0,1,1.66-1.67q2-.85,5.74-4.64a60.55,60.55,0,0,0,5.09-5.82,29.29,29.29,0,0,0,2.45-3.87,10.23,10.23,0,0,0,1.46-4.24c0-.44-.65-.69-1.91-.69a20.13,20.13,0,0,0-7.37,1.35,2.75,2.75,0,0,1-1.83.89,2.43,2.43,0,0,1-1.75-.73,2.27,2.27,0,0,1-.78-1.75c0-.78.49-1.26,1.47-1.51a83.79,83.79,0,0,1,10.62-1.71c3.22,0,4.85,1.43,4.85,4.24s-1.75,6.43-5.21,10.74q7.57,2.75,7.57,7A2.87,2.87,0,0,1,195.81,185.27Z"/><path class="cls-5" d="M231.92,179.53c-2.64,2.84-5.29,5.53-7.89,8.06-1.22,1.14-2,1.75-2.53,1.75a1.53,1.53,0,0,1-1.18-.49,1.66,1.66,0,0,1-.49-1.18c0-.57.74-1.75,2.28-3.5a1.31,1.31,0,0,1,1-.33c2.53-2.44,4.76-4.76,6.64-7a56.62,56.62,0,0,1-5.34-4,1.52,1.52,0,0,1-.69-1.26,1.77,1.77,0,0,1,.53-1.22,1.73,1.73,0,0,1,1.3-.53,3,3,0,0,1,1.27.65,38.87,38.87,0,0,0,5,3.66c2.24-3.13,3.38-5.66,3.38-7.53,0-1.55-.89-2.36-2.6-2.36a9.79,9.79,0,0,0-5,1.55,5.33,5.33,0,0,1-1.59.73,1.38,1.38,0,0,1-.61-.16,38.38,38.38,0,0,1-3.62,4.92,1.63,1.63,0,0,1-1.22.61c-1.06,0-1.55-.57-1.55-1.79a2,2,0,0,1,.49-1.3,27.71,27.71,0,0,0,5.29-9.12c.33-.9.85-1.38,1.55-1.38,1.1,0,1.75,1.14,1.91,3.38a10.59,10.59,0,0,1,4-.82,6.84,6.84,0,0,1,4.4,1.51,5.18,5.18,0,0,1,1.75,4.15C238.36,170.61,236.2,174.93,231.92,179.53Z"/><path class="cls-5" d="M284.69,174.07Q276.5,185,268.12,188.16a14.88,14.88,0,0,1-3.83,1.1c-1.26,0-1.87-.57-1.87-1.71a2.08,2.08,0,0,1,1-1.8,2.63,2.63,0,0,1,1.54-.53h1.22c4.52-1.14,9.86-5.57,16-13.23a2,2,0,0,1,1.43-.93,1.59,1.59,0,0,1,1.18.53,1.87,1.87,0,0,1,0,2.48Zm-11-.77a1.47,1.47,0,0,1-1,.49c-.37,0-1.59-.13-3.71-.41-2.2,0-3.54-.25-4-.82a2.12,2.12,0,0,1-.53-1.62,1.33,1.33,0,0,1,.53-1,1.42,1.42,0,0,1,1.06-.49c.57,0,2.85.33,6.8.94.9.12,1.34.69,1.34,1.71A1.52,1.52,0,0,1,273.66,173.3Zm.36-6.48a1.8,1.8,0,0,1-1.06-.57c-.32-.24-1.34-.93-3-2a7.65,7.65,0,0,1-2.48-.41,1.73,1.73,0,0,1-1.27-1.75c0-1.14.53-1.75,1.67-1.75,2.61,0,5.05,1.18,7.37,3.5a1.79,1.79,0,0,1,.61,1.31C275.81,166.29,275.2,166.82,274,166.82Zm11-1.34c-.48,0-1.22-.57-2.19-1.75-1.47-1.71-2.16-2.77-2.16-3.13,0-1.06.49-1.63,1.46-1.63a1.92,1.92,0,0,1,1.23.61,1.63,1.63,0,0,1,.73,1.1l1.67,2a2.75,2.75,0,0,1,.69,1.3C286.48,165,286,165.48,285.05,165.48Zm4.12-2.28a1.68,1.68,0,0,1-1.31-.73,9.23,9.23,0,0,0-1.83-1.83,1.81,1.81,0,0,1-.69-1.31c0-.93.49-1.42,1.55-1.42.57,0,1.3.53,2.19,1.5a4.12,4.12,0,0,1,1.35,2.45C290.43,162.75,290,163.2,289.17,163.2Z"/><path class="cls-5" d="M321.05,167.15,317,168q.36,8.69.36,13.15c0,6.31-1.34,9.45-3.95,9.45a4.2,4.2,0,0,1-2.77-1.39c-1.26-1.18-1.87-2.07-1.87-2.76a1.9,1.9,0,0,1,1.63-1.75,2,2,0,0,1,1.59,1,4.51,4.51,0,0,0,1.3,1.35c.45-1.06.69-4.12.69-9.08,0-1.1-.12-4.07-.28-8.88a38.82,38.82,0,0,1-8.47,12.18c-3.38,3.42-5.46,5.13-6.19,5.21-1.14,0-1.71-.7-1.79-1.92.08-1.3,1-2.52,2.61-3.7a2.31,2.31,0,0,1,1.5-.45c4.15-4,7.09-7.78,8.71-11.32-4.07.49-6.55.74-7.53.74q-2.07,0-2.07-1.71a1.52,1.52,0,0,1,1.62-1.75A92.59,92.59,0,0,0,313.68,165a25.77,25.77,0,0,0-.21-2.77,3.37,3.37,0,0,1,.57-2,2,2,0,0,1,1-.9,2,2,0,0,1,1.67.53,2.28,2.28,0,0,1,.37,1.14l0,1.59v1.79c.93-.16,2.4-.41,4.43-.81a1.83,1.83,0,0,1,2,1.38C323.49,166.09,322.67,166.82,321.05,167.15Z"/><path class="cls-5" d="M372.87,160.92a55.77,55.77,0,0,0-2.4,16.86,55,55,0,0,0,.82,6.59c.08.57.12.85.12.9a1.46,1.46,0,0,1-1.67,1.66,1.68,1.68,0,0,1-1-.44c-.32,0-.73-.37-1.3-.94-.16-.16-1.26-1.42-3.34-3.87-2.44-2.81-4-4.68-4.76-5.66a41.84,41.84,0,0,1-4-6.14,102.5,102.5,0,0,0-1.67,14.61H354a2.18,2.18,0,0,1,.29,1,26.6,26.6,0,0,1-.86,5.17A1.36,1.36,0,0,1,352,191.9a1.61,1.61,0,0,1-1.14-.57,1.47,1.47,0,0,1-.57-1.14v-3.42q0-8.55,2.69-22.31a.94.94,0,0,1-.17-.57,1.91,1.91,0,0,1,.7-1.26,2,2,0,0,1,1.26-.69,1.67,1.67,0,0,1,1.71,1.71,4.08,4.08,0,0,1-.16.69c1.46,4.15,5.21,9.57,11.15,16.24-.16-2-.2-3.54-.2-4.56a57.22,57.22,0,0,1,.77-8.59,36.87,36.87,0,0,1,1.95-8.34,1.7,1.7,0,0,1,1.59-1.26,1.54,1.54,0,0,1,1.1.53,1.65,1.65,0,0,1,.49,1.14A6.49,6.49,0,0,1,372.87,160.92Z"/><path class="cls-5" d="M398.24,183.35A12.81,12.81,0,0,1,389,187a13.43,13.43,0,0,1-8.84-3.14A10.25,10.25,0,0,1,376,175.7a12.73,12.73,0,0,1,3.09-8.22,22,22,0,0,1,7.33-5.58,2.19,2.19,0,0,1,1.55-1.47,12.19,12.19,0,0,1,2.2-.16,10.82,10.82,0,0,1,8.71,4.07A15,15,0,0,1,402,174,12.42,12.42,0,0,1,398.24,183.35Zm-6.31-19.42a1.66,1.66,0,0,1-.82.21,14.63,14.63,0,0,0-7.69,3.82c-2.73,2.37-4.07,4.73-4.07,7.17a7.27,7.27,0,0,0,3.21,6.19,11,11,0,0,0,6.88,2.15,9,9,0,0,0,9.25-9.2C398.69,168.66,396.41,165.24,391.93,163.93Z"/><path class="cls-5" d="M423.2,184.25a23.11,23.11,0,0,1-6.23,2.68,100.26,100.26,0,0,1-9.86,2.65,1.39,1.39,0,0,1-1.13-.49,1.57,1.57,0,0,1-.45-1.18,1.66,1.66,0,0,1,.77-1.54,7.87,7.87,0,0,1,2.08-.53c0-.66,0-3.26,0-7.82v-7.21c0-.57,0-1.95.08-4.19s.08-3.3.08-3.38c-1.06.12-1.63.16-1.71.16-1.3,0-1.91-.53-1.91-1.66a1.49,1.49,0,0,1,.61-1.43,3.89,3.89,0,0,1,1.5-.37c4.08-.32,7.37-.53,9.9-.53a10.32,10.32,0,0,1,4.76,1,4.37,4.37,0,0,1,2.4,4c0,1.63-1,3.26-3,4.89a35.76,35.76,0,0,1-6,3.82,40.93,40.93,0,0,1,7.41,1.1c2.6.9,3.9,2.36,3.9,4.4A6.55,6.55,0,0,1,423.2,184.25Zm-3.71-7.17c-1.22-.2-3.83-.49-7.82-.85v8.59c7.58-2,11.4-3.91,11.4-5.62C423.07,178.3,421.85,177.57,419.49,177.08Zm-2.81-14.29c-.65,0-1.42,0-2.4.08-1.3.09-2.08.13-2.36.13-.08,1.87-.12,3.38-.12,4.6v3.74c5.86-2.93,8.83-5.17,8.83-6.71C420.63,163.4,419.29,162.79,416.68,162.79Z"/><path class="cls-5" d="M450.47,168c0,.08,0,.94,0,2.49v3.13a17.77,17.77,0,0,1-2.93,9.49c-2.24,3.62-4.88,5.41-7.9,5.41a7.59,7.59,0,0,1-7.08-4.35,18.82,18.82,0,0,1-2-9.08c0-1.1.08-2.77.24-5s.2-3.91.2-5.05c0-.24,0-.69,0-1.3a8.39,8.39,0,0,1-.08-1.26,1.36,1.36,0,0,1,.53-1,1.56,1.56,0,0,1,1-.41c1.3,0,2,1.1,2,3.22,0,.9-.12,2.89-.28,6s-.37,5-.37,5.62a11.92,11.92,0,0,0,1.87,7,4.59,4.59,0,0,0,3.83,2.37c2.44,0,4.44-1.59,6-4.81a21.35,21.35,0,0,0,2-9.2,53.65,53.65,0,0,0-.85-8.51c-.17-1-.41-2.36-.7-4a1.62,1.62,0,0,1,1.75-1.63,1.46,1.46,0,0,1,1.39,1.06,21,21,0,0,1,1.55,7.94A17.29,17.29,0,0,1,450.47,168Z"/><path class="cls-5" d="M486.22,186.85c-1.14,0-2.61-1.22-4.44-3.7a39.82,39.82,0,0,1-3.83-6.27c-1.1-2.12-2.52-4.64-4.31-7.61-.94-1.51-1.95-2.28-3.09-2.28-1.92,0-4.52,2.11-7.86,6.27a2.16,2.16,0,0,1-1.67.93q-1.59,0-1.59-1.83a1.5,1.5,0,0,1,.41-1.14c4.44-5.21,8-7.86,10.66-7.86,2.12,0,4.16,1.39,6.07,4.07a43.77,43.77,0,0,1,2.44,4.12c.74,1.42,1.51,2.85,2.28,4.27a56.79,56.79,0,0,0,3.71,4.85c1.95,2.48,3,3.94,3,4.39A1.56,1.56,0,0,1,486.22,186.85Z"/></g></g><path class="cls-6" d="M13.86,77.2a1.66,1.66,0,0,1,.85-1.55,32.19,32.19,0,0,0,4.08-2.32c-.29-.29-.53-.57-.78-.86q-4.52-4.57-4.52-8.42a23.3,23.3,0,0,1,.37-3.79c.16-1.1.32-2.2.53-3.26-2.69.66-5.42,1.39-8.27,2.24A2.79,2.79,0,0,1,5,59.57a1,1,0,0,1-1-.65,2.32,2.32,0,0,1-.17-1.06c0-.41.37-.86,1-1.26A49.86,49.86,0,0,1,12,54.28C13,54,14.06,53.75,15,53.54a54.54,54.54,0,0,0,.77-6c0-.37,0-.77-.08-1.26a6.48,6.48,0,0,1-.2-1.39,2.34,2.34,0,0,1,.57-1.58,2,2,0,0,1,1.1-.41,1.43,1.43,0,0,1,1,.49,6.38,6.38,0,0,1,.65,3.38,51.08,51.08,0,0,1-.45,5.41,4.27,4.27,0,0,0-.08.61c.08,0,.12-.08.16-.08q3.91-.85,7.57-1.47c2-.32,3.91-.61,5.91-.85s3.25-.33,4.07-.33a1.52,1.52,0,0,1,1.62,1.47,1.6,1.6,0,0,1-1.42,1.67c-1.22.16-2.4.28-3.54.41-1.55.2-3.1.4-4.72.65.12.48.24,1,.36,1.63a36.27,36.27,0,0,1,.29,3.82A19.83,19.83,0,0,1,26,70a28,28,0,0,1-2.36,3.14c.33.24.69.48,1,.77,1.18.81,2.15,1.51,2.89,2.12a1,1,0,0,1,.36.73c0,.89-.4,1.34-1.18,1.42h-.36a6.56,6.56,0,0,1-3-1.14c-.73-.52-1.46-1-2.11-1.62a23.52,23.52,0,0,1-3.63,2.44,3.69,3.69,0,0,1-1.79.61A1.72,1.72,0,0,1,13.86,77.2Zm3.83-20.93c-.21.9-.41,1.83-.57,2.81A28.81,28.81,0,0,0,16.34,64c0,1.71,1.43,3.9,4.28,6.55.24.25.45.45.69.69a15.82,15.82,0,0,0,3-4.23A17.15,17.15,0,0,0,25.83,61a24.77,24.77,0,0,0-.41-4.84c-.12-.49-.24-.94-.32-1.35C22.86,55.17,20.37,55.66,17.69,56.27Z"/><path class="cls-6" d="M46.72,62.38a16.66,16.66,0,0,1-.57,2,3.57,3.57,0,0,1-.37.9,1.6,1.6,0,0,1-1.26.57c-.57,0-.86-.33-.86-.86a3.6,3.6,0,0,1,.17-1c.08-.66.2-1.35.28-2.12,0-.57,0-1.14,0-1.67a20.2,20.2,0,0,0-.24-3.54,4.46,4.46,0,0,1-.17-1.06,1.8,1.8,0,0,1,.45-1.34,1.59,1.59,0,0,1,.9-.29,1.63,1.63,0,0,1,.93.29,7.94,7.94,0,0,1,.74,1A30.64,30.64,0,0,1,47,59.57,19.7,19.7,0,0,1,46.72,62.38ZM52.54,74.1c-.08,1.06-.17,2.08-.21,3.06-.24,1-.73,1.62-1.54,1.62s-1.35-.57-1.35-1.66V71.58c.08-3.26.13-5.38.13-6.43,0-3.75,0-6.72-.09-9a72.86,72.86,0,0,0-.77-9.61,1.47,1.47,0,0,1,.77-1.34,2.3,2.3,0,0,1,1-.29,1.19,1.19,0,0,1,1,.49,2.77,2.77,0,0,1,.45,1.35q.3,3.66.61,9v.37a7.34,7.34,0,0,1,.73-.24,14.49,14.49,0,0,0,2.08-.7l.77-.2a2,2,0,0,1,.65-.12.89.89,0,0,1,.85.45,2.18,2.18,0,0,1,.09.53,2.4,2.4,0,0,1-.7,1.22,5.22,5.22,0,0,1-1.46.93,8.67,8.67,0,0,1-2.08.9,2.41,2.41,0,0,1-.85.2c0,2,0,4,0,6.19S52.58,70.36,52.54,74.1ZM76.68,60.51Q75.21,62,69.35,64.05c0,1.87-.12,3.74-.28,5.57-.13,1.51-.25,2.77-.37,3.79,1.55-.2,3-.37,4.48-.53s2.73-.28,4-.45c1.06-.08,2.07-.12,3-.12,1.14.08,1.79.49,2,1.26a1.43,1.43,0,0,1-1.3,1.51c-.89.12-1.87.24-2.85.41-1.22.08-2.56.24-4,.4-2.72.33-5.49.7-8.3,1.14-2.61.41-5,.82-7.21,1.31-.73.08-1.3.16-1.75.16s-.61-.29-.77-.77A4.87,4.87,0,0,1,56,76.5c.12-.48.89-.89,2.32-1.22a40.08,40.08,0,0,1,5.25-1.1c.89-.16,1.79-.28,2.69-.4.08-.78.16-1.75.28-3,.2-2.37.33-4.36.37-5.91-1.59.49-3.06,1-4.4,1.39-.57.16-1,.24-1.26.32a13.57,13.57,0,0,1-1.63.12c-.77,0-1.22-.57-1.38-1.67,0-.48.4-1,1.22-1.38.45-.16,1.06-.33,1.79-.53,1.95-.45,3.83-.93,5.62-1.46-.13-2.24-.33-4.89-.66-7.94a14.32,14.32,0,0,1-3.42.53H61.09a2.21,2.21,0,0,1-1.43-.49,2.48,2.48,0,0,1-.81-2c0-.61,0-1.34.12-2.24.12-.65.24-1.3.37-1.91a1.21,1.21,0,0,1,1.26-.81h.28a1.43,1.43,0,0,1,1.39,1.54c-.17,1.55-.21,2.45-.21,2.65s.21.28.61.28a11.34,11.34,0,0,0,3.14-.77,3.63,3.63,0,0,1-.08-.69c-.25-1.79-.49-3.5-.74-5.21a8.06,8.06,0,0,1-.28-1.75c0-.45.28-.86.94-1.22A3.46,3.46,0,0,1,67,41.33c.53,0,.9.61,1.14,1.79.08,1,.16,2.12.33,3.3.08,1,.12,2,.2,3a32.13,32.13,0,0,0,6.11-2.89c.89.2,1.34.65,1.42,1.39a1.44,1.44,0,0,1-.61,1.18,24.89,24.89,0,0,1-5.82,3.38,6.71,6.71,0,0,1-.86.36c.08,1.14.13,2.24.21,3.3.12,1.71.2,3.3.24,4.72a71.93,71.93,0,0,0,6.92-2.36.92.92,0,0,1,.86.45.8.8,0,0,1,.08.36A1.92,1.92,0,0,1,76.68,60.51Z"/><path class="cls-6" d="M93.5,59.24a2.41,2.41,0,0,0,2-.81,2.44,2.44,0,0,0,.77-1.59c0-.53-1.42-1.26-4.27-2.16a1.71,1.71,0,0,1-1.1-1,2.81,2.81,0,0,1-.24-1.23,4.39,4.39,0,0,1,.77-1.54c.89-1.22,2-2.73,3.17-4.48a6.24,6.24,0,0,0,.9-1.67,12.23,12.23,0,0,0-3.22-.61c-.69-.16-1-.73-1-1.67A1.47,1.47,0,0,1,92.64,41,14.76,14.76,0,0,1,97.16,42a2.13,2.13,0,0,1,1.22,1.79c0,2-1.67,4.89-4.88,8.63.57.13,1.18.29,1.75.45,2.44.78,3.66,1.79,3.66,3.1a5.48,5.48,0,0,1-.2,1.54,5.19,5.19,0,0,1-1.43,2.85,5.25,5.25,0,0,1-3.78,1.47,4.58,4.58,0,0,1-3.06-1.1c0,1.87.08,3.91.12,6.15v7.2c0,1.59,0,2.85,0,3.79-.08,1.79-.48,2.73-1.18,2.73s-1.22-.9-1.3-2.69a33.14,33.14,0,0,1-.16-3.5c0-2.53-.17-5.78-.33-9.73-.08-2.77-.16-6-.32-9.69,0-.69-.09-2.12-.09-4.23a1.69,1.69,0,0,1,.74-1.27,1.63,1.63,0,0,1,.93-.32c.9,0,1.39.53,1.47,1.5s0,2.08.08,3.46,0,2.85.08,4.08l.12.12A5.11,5.11,0,0,0,93.5,59.24Zm11-6.39c1-.57,2.28-1.22,3.86-2a25.3,25.3,0,0,1,3.91-1.39,10.27,10.27,0,0,0,.7-2.32.29.29,0,0,0-.29-.32,7,7,0,0,0-1.14-.08c-.9,0-1.67,0-2.32.08l-2.16.2c-1.06,0-1.63-.45-1.71-1.38A1.8,1.8,0,0,1,106,44.3a3.33,3.33,0,0,1,1.47-.4c1.06,0,2.08-.09,3-.09a11,11,0,0,1,4,.53,2,2,0,0,1,1.34,2,15.48,15.48,0,0,1-1.26,5.45c-.57,1.18-1.1,2.28-1.67,3.26a.59.59,0,0,0,.29.12,1.22,1.22,0,0,1,.61.74,2.18,2.18,0,0,1-.65,1.46,10.07,10.07,0,0,1-2.36,1.75,58.43,58.43,0,0,1-5.87,3.1,4.59,4.59,0,0,1-1,.32c0,.45-.08.86-.08,1.26q-.25,5.07-.25,8.55a20,20,0,0,0,.12,2.73,24,24,0,0,0,4.56-4,.88.88,0,0,1,.74-.41c.36.08.57.37.57.94a4.41,4.41,0,0,1-.74,2.2,17.09,17.09,0,0,1-3.25,3.38,5.17,5.17,0,0,1-2.89,1.14c-1.14,0-1.75-1.27-1.79-3.79,0-3.34.08-7,.28-11,.24-5.13.41-9.53.45-13.23a16.1,16.1,0,0,0-.12-1.67c0-1,.65-1.47,1.83-1.55.81,0,1.26.53,1.34,1.47C104.61,50,104.53,51.51,104.49,52.85Zm6.76-.77c-2,1-4.32,2-6.93,3.21-.08,1.51-.12,2.85-.2,4a42.34,42.34,0,0,0,5-2.56C109.86,55.33,110.55,53.79,111.25,52.08Zm7.65,9.36a3.54,3.54,0,0,1-1,1.59c-2.6,3-4.52,4.8-5.78,5.37l0,0a48,48,0,0,0,4.52,4.81,45.13,45.13,0,0,0,6.39,5c.61.33.94.66.94,1.06,0,.74-.57,1.1-1.67,1.1-2-.24-4.44-1.75-7.37-4.48a52,52,0,0,1-8-9.44,3.2,3.2,0,0,1-.94-2.16,1.39,1.39,0,0,1,1.22-1.42,1.92,1.92,0,0,1,1.06.32,6.13,6.13,0,0,1,1,1.18,14.78,14.78,0,0,0,1.51,2.32,24.77,24.77,0,0,0,5.08-5.82,1.81,1.81,0,0,1,.66-.85,1.5,1.5,0,0,1,.89-.29h.33C118.45,59.89,118.86,60.46,118.9,61.44Z"/><path class="cls-6" d="M138.48,69.79a2.52,2.52,0,0,1,.53-.08,2.32,2.32,0,0,1,.9.24c.61.41,1.38,1,2.36,1.71a5.88,5.88,0,0,0,.81.57A23.34,23.34,0,0,0,143.9,67c0-1.1,0-2.24,0-3.42,0-1,0-2.08-.08-3.18-1.88.61-3.59,1.14-5.21,1.55a14,14,0,0,1-1.59.37,10.09,10.09,0,0,1-1.47.08c-.73,0-1.18-.53-1.26-1.55,0-.45.37-.85,1.1-1.26a11.32,11.32,0,0,0,1.63-.49c1.1-.24,2.2-.53,3.26-.85.08-.09.16-.21.24-.29A87.37,87.37,0,0,0,152.24,48c-1.62.24-5.74,1.18-12.33,2.81a4.78,4.78,0,0,1-.9.16,32.28,32.28,0,0,1,.21,3.5,1.89,1.89,0,0,1-.86,1.63,2.64,2.64,0,0,1-1.14.28c-.49,0-.69-.24-.69-.73.08-1,.12-1.79.12-2.52a6.81,6.81,0,0,0-.61-2.49,9.52,9.52,0,0,0-1.22-2.56,2.15,2.15,0,0,1-.61-1.18,1.76,1.76,0,0,1,.73-1.39,2.3,2.3,0,0,1,.9-.28,1.82,1.82,0,0,1,1.3.65,11.56,11.56,0,0,1,1.18,2.28,5.47,5.47,0,0,1,.61-.2c2.44-.65,6-1.47,10.75-2.36a28,28,0,0,1,4.72-.7c.33,0,.57,0,.82,0a1.64,1.64,0,0,1,.77,1.43q0,4-11.24,10.54a4.5,4.5,0,0,0,1.06-.32,92.89,92.89,0,0,0,9.53-3.3.83.83,0,0,1,.81.53,1,1,0,0,1,.16.41,1.84,1.84,0,0,1-.61,1.26q-1.77,1.77-9,4c.08,1.22.16,2.56.16,4.11,0,.57-.08,1.1-.08,1.59.45-.12.81-.25,1.1-.33a30.3,30.3,0,0,0,3.33-1.42,7.62,7.62,0,0,1,1.23-.41,4,4,0,0,1,.65-.08,1,1,0,0,1,.85.41A1.35,1.35,0,0,1,154,64a2.27,2.27,0,0,1-.74,1.22,7.88,7.88,0,0,1-2.4,1.5,16,16,0,0,1-3.54,1.35,2.77,2.77,0,0,1-.94.28,2.59,2.59,0,0,0-.12.65,29.64,29.64,0,0,1-1,4.6,1.78,1.78,0,0,0,.33.25,39.08,39.08,0,0,0,8.47,3.46,29.82,29.82,0,0,0,3.74.69,21.33,21.33,0,0,0,3.05.24,11.64,11.64,0,0,0,1.47-.16,6.8,6.8,0,0,0,1.34-.45,2.68,2.68,0,0,1,.82-.24c.69,0,1.06.16,1.14.57a1.81,1.81,0,0,1-.29.81,3.79,3.79,0,0,1-.73.66,12,12,0,0,1-6.15,1.46c-4.76,0-10.22-1.75-16.4-5.17a27.17,27.17,0,0,1-2.94-2,12.71,12.71,0,0,1-1-1c-.16.77-.33,1.46-.53,2.12A18.37,18.37,0,0,1,136,79.19a1.79,1.79,0,0,1-1.63.94,1,1,0,0,1-1-1,2.76,2.76,0,0,1,.17-.9,18.78,18.78,0,0,0,1.87-8.55c0-.48,0-.93,0-1.38s-.08-1-.08-1.3a1.42,1.42,0,0,1-.25-.82,1.74,1.74,0,0,1,.61-1.1,1.65,1.65,0,0,1,1-.32,2.9,2.9,0,0,1,.69.08,1.71,1.71,0,0,1,.86.86,13.09,13.09,0,0,1,.28,2.8C138.52,68.93,138.48,69.38,138.48,69.79ZM141.33,42a1.21,1.21,0,0,1,.45-.77,3,3,0,0,1,1.87-.86c0,.33.33.49,1,.53s2.24.37,4.36.65a.65.65,0,0,1,.57.7,1.54,1.54,0,0,1-.74,1.34,2.83,2.83,0,0,1-1.38.37,47.41,47.41,0,0,1-5.17-.29C141.66,43.45,141.33,42.88,141.33,42Z"/><path class="cls-6" d="M196,67.87c-2.2,3.38-4.64,5.62-7.29,6.68a2.64,2.64,0,0,1-.93.24c-1.06,0-1.59-.65-1.59-1.91,0-.65.57-1.42,1.71-2.32a2.32,2.32,0,0,1,1.47-.49,22.18,22.18,0,0,0,4.51-5.13,12,12,0,0,0,2.2-6.47c0-2.12-1.54-3.38-4.6-3.83a39.65,39.65,0,0,1-5.9,11.12c-1.71,2.28-3.5,3.38-5.29,3.38a4,4,0,0,1-3.38-2,6.8,6.8,0,0,1-1.26-4c0-2.77,2-5.54,6.06-8.34,3.5-2.41,6.6-3.63,9.2-3.63a9.62,9.62,0,0,1,5.86,1.75,6.68,6.68,0,0,1,2.53,5.54Q199.31,62.86,196,67.87Zm-13.64-9.36c-2.28,1.79-3.42,3.42-3.42,4.93a3.17,3.17,0,0,0,.49,1.54c.33.53.65.78.94.78,1.14,0,3-2.08,5.45-6.27a33.1,33.1,0,0,0,1.88-4.11A21.67,21.67,0,0,0,182.37,58.51Z"/><path class="cls-6" d="M238,53.18l-4.07.85c.24,5.78.36,10.18.36,13.15,0,6.31-1.34,9.45-3.95,9.45a4.2,4.2,0,0,1-2.77-1.39c-1.26-1.18-1.87-2.07-1.87-2.77a1.93,1.93,0,0,1,1.63-1.75,2,2,0,0,1,1.59,1,4.37,4.37,0,0,0,1.3,1.34c.45-1.05.69-4.11.69-9.07,0-1.1-.12-4.08-.28-8.88a38.67,38.67,0,0,1-8.47,12.17c-3.38,3.42-5.46,5.13-6.19,5.21-1.14,0-1.71-.69-1.79-1.91.08-1.3,1-2.52,2.61-3.7a2.31,2.31,0,0,1,1.5-.45c4.15-4,7.09-7.78,8.71-11.32-4.07.49-6.55.73-7.53.73q-2.07,0-2.07-1.71A1.52,1.52,0,0,1,219,52.36a92.35,92.35,0,0,0,11.6-1.3,25.77,25.77,0,0,0-.21-2.77,3.37,3.37,0,0,1,.57-2,2,2,0,0,1,1-.9c.9,0,1.43.2,1.67.53A2.16,2.16,0,0,1,234,47l0,1.59v1.79c.93-.16,2.4-.41,4.43-.82a1.83,1.83,0,0,1,2,1.39C240.43,52.12,239.61,52.85,238,53.18Z"/><path class="cls-6" d="M283,61.89a51.61,51.61,0,0,1-7.25,6.88A30.56,30.56,0,0,1,267,73.21a2.78,2.78,0,0,1-1.63.89,12.86,12.86,0,0,1-2.12.33c-1.55,0-2.32-.61-2.32-1.79,0-1,.37-1.55,1.18-1.75a31.79,31.79,0,0,0,10.3-4,41.1,41.1,0,0,0,8.31-7.37,1.46,1.46,0,0,1,1.18-.61c1.06,0,1.58.61,1.58,1.75A1.85,1.85,0,0,1,283,61.89ZM270.6,57a3,3,0,0,1-1.51-.85c-.32-.24-1.26-.81-2.81-1.71A2.72,2.72,0,0,1,264.65,52c0-1.14.66-1.75,2-1.75,1,0,2.65,1.22,5,3.62a1.81,1.81,0,0,1,.77,1.42Q272.43,57,270.6,57Z"/><path class="cls-6" d="M320.1,68a40.76,40.76,0,0,1-6.1,6.43c-2.85,2.4-5.09,3.62-6.72,3.62-1.14,0-1.67-.61-1.67-1.75s.57-1.67,1.75-1.67A7.27,7.27,0,0,0,310,73.33c4.6-3.34,7.77-7,9.52-10.91a5.15,5.15,0,0,0,.61-2.08c0-1.5-1.09-2.28-3.25-2.28-.65,0-2.65.25-6,.65a6,6,0,0,1-1.83.94,7.45,7.45,0,0,1-2.85.69c-1.67,0-2.48-.65-2.48-2,0-1,1-1.79,3.05-2.28a42.23,42.23,0,0,1,10.14-1.43,8.16,8.16,0,0,1,4.44,1.18,4.56,4.56,0,0,1,2.07,4C323.4,62.3,322.3,65,320.1,68Zm.09-17.88a55.94,55.94,0,0,1-9.49.94,20,20,0,0,1-2.89-.12c-1.18-.25-1.75-.86-1.75-1.83a2.12,2.12,0,0,1,.61-1.43A1.92,1.92,0,0,1,308,47a3.11,3.11,0,0,1,1.88.61c.53,0,.89,0,1.14,0,1,0,4-.28,8.75-.94,1.06,0,1.63.62,1.63,1.75A1.45,1.45,0,0,1,320.19,50.08Z"/><path class="cls-6" d="M359.72,49.07c-.82,1.18-1.75,2.44-2.89,3.78a24.77,24.77,0,0,1,1.06,8c0,1.71-.12,4.48-.37,8.22-.32,4.24-.49,6.64-.49,7.29,0,1.18-.57,1.79-1.63,1.79s-1.58-1-1.87-2.85c-.24-1.34-.36-2.07-.36-2.24,0-.4.28-.81.85-1.3q.62-8.73.61-10.5a37.12,37.12,0,0,0-.45-5.38q-1.21,1.23-6.35,6A3.57,3.57,0,0,1,346,63c-1.14,0-1.67-.57-1.67-1.71a2.17,2.17,0,0,1,.86-1.51,81,81,0,0,0,10.95-11.28,1.82,1.82,0,0,1,.36-1.13c1.23-1.76,2.2-2.65,2.94-2.65a1.79,1.79,0,0,1,1.13.45,1.64,1.64,0,0,1,.45,1.14A6.75,6.75,0,0,1,359.72,49.07Z"/><path class="cls-6" d="M408.78,61.89a51.61,51.61,0,0,1-7.25,6.88,30.3,30.3,0,0,1-8.71,4.44,2.71,2.71,0,0,1-1.63.89,12.94,12.94,0,0,1-2.11.33c-1.55,0-2.32-.61-2.32-1.79,0-1,.36-1.55,1.18-1.75a31.64,31.64,0,0,0,10.29-4,40.57,40.57,0,0,0,8.31-7.37,1.48,1.48,0,0,1,1.18-.61c1.06,0,1.59.61,1.59,1.75A1.86,1.86,0,0,1,408.78,61.89ZM396.4,57a3,3,0,0,1-1.5-.85c-.33-.24-1.26-.81-2.81-1.71A2.72,2.72,0,0,1,390.46,52c0-1.14.65-1.75,2-1.75,1,0,2.65,1.22,5,3.62a1.81,1.81,0,0,1,.77,1.42Q398.23,57,396.4,57Z"/><path class="cls-6" d="M449.49,62c-2.44,2.16-4,3.54-4.72,4.11-1.83,1.55-3.5,2.81-5,3.87A8.2,8.2,0,0,1,435,71.7c-3.46,0-5.17-3.09-5.17-9.28a53.48,53.48,0,0,1,1.95-14.21,1.61,1.61,0,0,1,1.59-1.38,2.2,2.2,0,0,1,1.26.57,2.11,2.11,0,0,1,.61,1.58,4.55,4.55,0,0,1-.36,1.43,27.89,27.89,0,0,0-1.39,6.68,54.17,54.17,0,0,0-.4,6.22c0,3.38.61,5,1.83,5s3.13-1.1,5.94-3.3c1.1-.89,3.06-2.64,5.91-5.17a2.78,2.78,0,0,1,1.75-.81c1,0,1.5.57,1.5,1.71A1.56,1.56,0,0,1,449.49,62Z"/><path class="cls-6" d="M477.26,65.55a.94.94,0,0,1-.89-.44c-.74-1-1.71-2.28-3-4a2.14,2.14,0,0,1-.53-1.47c0-.85.49-1.3,1.47-1.3a2,2,0,0,1,1.59,1.06c1.91,2.68,2.89,4.23,2.89,4.6A1.34,1.34,0,0,1,477.26,65.55Zm10.87.29a45.3,45.3,0,0,1-4.68,7.73c-1.34,1.67-2.28,2.53-2.77,2.53-1.1,0-1.63-.49-1.63-1.39a2.46,2.46,0,0,1,1.22-1.87,41.06,41.06,0,0,0,4.85-7.33C487,61.93,488,59.24,488,57.45a1.73,1.73,0,0,1-.08-.57c0-1,.44-1.5,1.42-1.5s1.55.73,1.55,2.15C490.9,59.41,490,62.17,488.13,65.84Zm-4.6-4.19a1.22,1.22,0,0,1-.9.4,1.73,1.73,0,0,1-1.54-.89,13.25,13.25,0,0,1-.9-1.84,2.61,2.61,0,0,1-.69-1.79,1.24,1.24,0,0,1,1.38-1.42,1.65,1.65,0,0,1,1.14.41,12.27,12.27,0,0,1,1.31,2.15,6.35,6.35,0,0,1,.57,2.08A1.37,1.37,0,0,1,483.53,61.65Z"/><path class="cls-6" d="M532.1,71.29a1.34,1.34,0,0,1-1.18.7c-1.14,0-1.71-.41-1.71-1.27a7.87,7.87,0,0,1,.12-1.22c-.24-.81-1.18-1.63-2.81-2.52a23.58,23.58,0,0,0-3.74-1.51,40.7,40.7,0,0,1-8,7.25,4.64,4.64,0,0,1-2.49.89,1.75,1.75,0,0,1-1.26-.44,1.71,1.71,0,0,1-.49-1.23,1.47,1.47,0,0,1,1.67-1.66q2-.86,5.74-4.65a58.23,58.23,0,0,0,5.09-5.82A29.15,29.15,0,0,0,525.51,56,10.27,10.27,0,0,0,527,51.71c0-.45-.65-.69-1.91-.69a20.34,20.34,0,0,0-7.37,1.34,2.76,2.76,0,0,1-1.83.9,2.47,2.47,0,0,1-1.75-.73,2.27,2.27,0,0,1-.78-1.75c0-.78.49-1.27,1.47-1.51a83.79,83.79,0,0,1,10.62-1.71c3.22,0,4.85,1.42,4.85,4.23s-1.75,6.44-5.21,10.75c5.05,1.83,7.57,4.15,7.57,7A2.83,2.83,0,0,1,532.1,71.29Z"/><path class="cls-6" d="M576.52,61.89a51.61,51.61,0,0,1-7.25,6.88,30.3,30.3,0,0,1-8.71,4.44,2.71,2.71,0,0,1-1.63.89,12.94,12.94,0,0,1-2.11.33c-1.55,0-2.32-.61-2.32-1.79,0-1,.36-1.55,1.18-1.75a31.79,31.79,0,0,0,10.3-4,40.82,40.82,0,0,0,8.3-7.37,1.48,1.48,0,0,1,1.18-.61c1.06,0,1.59.61,1.59,1.75A1.81,1.81,0,0,1,576.52,61.89ZM564.14,57a3,3,0,0,1-1.5-.85c-.33-.24-1.26-.81-2.81-1.71A2.72,2.72,0,0,1,558.2,52c0-1.14.65-1.75,2-1.75,1,0,2.65,1.22,5,3.62a1.82,1.82,0,0,1,.78,1.42C566,56.47,565.36,57,564.14,57Z"/><path class="cls-6" d="M13.86,77.2a1.66,1.66,0,0,1,.85-1.55,32.19,32.19,0,0,0,4.08-2.32c-.29-.29-.53-.57-.78-.86q-4.52-4.57-4.52-8.42a23.3,23.3,0,0,1,.37-3.79c.16-1.1.32-2.2.53-3.26-2.69.66-5.42,1.39-8.27,2.24A2.79,2.79,0,0,1,5,59.57a1,1,0,0,1-1-.65,2.32,2.32,0,0,1-.17-1.06c0-.41.37-.86,1-1.26A49.86,49.86,0,0,1,12,54.28C13,54,14.06,53.75,15,53.54a54.54,54.54,0,0,0,.77-6c0-.37,0-.77-.08-1.26a6.48,6.48,0,0,1-.2-1.39,2.34,2.34,0,0,1,.57-1.58,2,2,0,0,1,1.1-.41,1.43,1.43,0,0,1,1,.49,6.38,6.38,0,0,1,.65,3.38,51.08,51.08,0,0,1-.45,5.41,4.27,4.27,0,0,0-.08.61c.08,0,.12-.08.16-.08q3.91-.85,7.57-1.47c2-.32,3.91-.61,5.91-.85s3.25-.33,4.07-.33a1.52,1.52,0,0,1,1.62,1.47,1.6,1.6,0,0,1-1.42,1.67c-1.22.16-2.4.28-3.54.41-1.55.2-3.1.4-4.72.65.12.48.24,1,.36,1.63a36.27,36.27,0,0,1,.29,3.82A19.83,19.83,0,0,1,26,70a28,28,0,0,1-2.36,3.14c.33.24.69.48,1,.77,1.18.81,2.15,1.51,2.89,2.12a1,1,0,0,1,.36.73c0,.89-.4,1.34-1.18,1.42h-.36a6.56,6.56,0,0,1-3-1.14c-.73-.52-1.46-1-2.11-1.62a23.52,23.52,0,0,1-3.63,2.44,3.69,3.69,0,0,1-1.79.61A1.72,1.72,0,0,1,13.86,77.2Zm3.83-20.93c-.21.9-.41,1.83-.57,2.81A28.81,28.81,0,0,0,16.34,64c0,1.71,1.43,3.9,4.28,6.55.24.25.45.45.69.69a15.82,15.82,0,0,0,3-4.23A17.15,17.15,0,0,0,25.83,61a24.77,24.77,0,0,0-.41-4.84c-.12-.49-.24-.94-.32-1.35C22.86,55.17,20.37,55.66,17.69,56.27Z"/><path class="cls-6" d="M46.72,62.38a16.66,16.66,0,0,1-.57,2,3.57,3.57,0,0,1-.37.9,1.6,1.6,0,0,1-1.26.57c-.57,0-.86-.33-.86-.86a3.6,3.6,0,0,1,.17-1c.08-.66.2-1.35.28-2.12,0-.57,0-1.14,0-1.67a20.2,20.2,0,0,0-.24-3.54,4.46,4.46,0,0,1-.17-1.06,1.8,1.8,0,0,1,.45-1.34,1.59,1.59,0,0,1,.9-.29,1.63,1.63,0,0,1,.93.29,7.94,7.94,0,0,1,.74,1A30.64,30.64,0,0,1,47,59.57,19.7,19.7,0,0,1,46.72,62.38ZM52.54,74.1c-.08,1.06-.17,2.08-.21,3.06-.24,1-.73,1.62-1.54,1.62s-1.35-.57-1.35-1.66V71.58c.08-3.26.13-5.38.13-6.43,0-3.75,0-6.72-.09-9a72.86,72.86,0,0,0-.77-9.61,1.47,1.47,0,0,1,.77-1.34,2.3,2.3,0,0,1,1-.29,1.19,1.19,0,0,1,1,.49,2.77,2.77,0,0,1,.45,1.35q.3,3.66.61,9v.37a7.34,7.34,0,0,1,.73-.24,14.49,14.49,0,0,0,2.08-.7l.77-.2a2,2,0,0,1,.65-.12.89.89,0,0,1,.85.45,2.18,2.18,0,0,1,.09.53,2.4,2.4,0,0,1-.7,1.22,5.22,5.22,0,0,1-1.46.93,8.67,8.67,0,0,1-2.08.9,2.41,2.41,0,0,1-.85.2c0,2,0,4,0,6.19S52.58,70.36,52.54,74.1ZM76.68,60.51Q75.21,62,69.35,64.05c0,1.87-.12,3.74-.28,5.57-.13,1.51-.25,2.77-.37,3.79,1.55-.2,3-.37,4.48-.53s2.73-.28,4-.45c1.06-.08,2.07-.12,3-.12,1.14.08,1.79.49,2,1.26a1.43,1.43,0,0,1-1.3,1.51c-.89.12-1.87.24-2.85.41-1.22.08-2.56.24-4,.4-2.72.33-5.49.7-8.3,1.14-2.61.41-5,.82-7.21,1.31-.73.08-1.3.16-1.75.16s-.61-.29-.77-.77A4.87,4.87,0,0,1,56,76.5c.12-.48.89-.89,2.32-1.22a40.08,40.08,0,0,1,5.25-1.1c.89-.16,1.79-.28,2.69-.4.08-.78.16-1.75.28-3,.2-2.37.33-4.36.37-5.91-1.59.49-3.06,1-4.4,1.39-.57.16-1,.24-1.26.32a13.57,13.57,0,0,1-1.63.12c-.77,0-1.22-.57-1.38-1.67,0-.48.4-1,1.22-1.38.45-.16,1.06-.33,1.79-.53,1.95-.45,3.83-.93,5.62-1.46-.13-2.24-.33-4.89-.66-7.94a14.32,14.32,0,0,1-3.42.53H61.09a2.21,2.21,0,0,1-1.43-.49,2.48,2.48,0,0,1-.81-2c0-.61,0-1.34.12-2.24.12-.65.24-1.3.37-1.91a1.21,1.21,0,0,1,1.26-.81h.28a1.43,1.43,0,0,1,1.39,1.54c-.17,1.55-.21,2.45-.21,2.65s.21.28.61.28a11.34,11.34,0,0,0,3.14-.77,3.63,3.63,0,0,1-.08-.69c-.25-1.79-.49-3.5-.74-5.21a8.06,8.06,0,0,1-.28-1.75c0-.45.28-.86.94-1.22A3.46,3.46,0,0,1,67,41.33c.53,0,.9.61,1.14,1.79.08,1,.16,2.12.33,3.3.08,1,.12,2,.2,3a32.13,32.13,0,0,0,6.11-2.89c.89.2,1.34.65,1.42,1.39a1.44,1.44,0,0,1-.61,1.18,24.89,24.89,0,0,1-5.82,3.38,6.71,6.71,0,0,1-.86.36c.08,1.14.13,2.24.21,3.3.12,1.71.2,3.3.24,4.72a71.93,71.93,0,0,0,6.92-2.36.92.92,0,0,1,.86.45.8.8,0,0,1,.08.36A1.92,1.92,0,0,1,76.68,60.51Z"/><path class="cls-6" d="M93.5,59.24a2.41,2.41,0,0,0,2-.81,2.44,2.44,0,0,0,.77-1.59c0-.53-1.42-1.26-4.27-2.16a1.71,1.71,0,0,1-1.1-1,2.81,2.81,0,0,1-.24-1.23,4.39,4.39,0,0,1,.77-1.54c.89-1.22,2-2.73,3.17-4.48a6.24,6.24,0,0,0,.9-1.67,12.23,12.23,0,0,0-3.22-.61c-.69-.16-1-.73-1-1.67A1.47,1.47,0,0,1,92.64,41,14.76,14.76,0,0,1,97.16,42a2.13,2.13,0,0,1,1.22,1.79c0,2-1.67,4.89-4.88,8.63.57.13,1.18.29,1.75.45,2.44.78,3.66,1.79,3.66,3.1a5.48,5.48,0,0,1-.2,1.54,5.19,5.19,0,0,1-1.43,2.85,5.25,5.25,0,0,1-3.78,1.47,4.58,4.58,0,0,1-3.06-1.1c0,1.87.08,3.91.12,6.15v7.2c0,1.59,0,2.85,0,3.79-.08,1.79-.48,2.73-1.18,2.73s-1.22-.9-1.3-2.69a33.14,33.14,0,0,1-.16-3.5c0-2.53-.17-5.78-.33-9.73-.08-2.77-.16-6-.32-9.69,0-.69-.09-2.12-.09-4.23a1.69,1.69,0,0,1,.74-1.27,1.63,1.63,0,0,1,.93-.32c.9,0,1.39.53,1.47,1.5s0,2.08.08,3.46,0,2.85.08,4.08l.12.12A5.11,5.11,0,0,0,93.5,59.24Zm11-6.39c1-.57,2.28-1.22,3.86-2a25.3,25.3,0,0,1,3.91-1.39,10.27,10.27,0,0,0,.7-2.32.29.29,0,0,0-.29-.32,7,7,0,0,0-1.14-.08c-.9,0-1.67,0-2.32.08l-2.16.2c-1.06,0-1.63-.45-1.71-1.38A1.8,1.8,0,0,1,106,44.3a3.33,3.33,0,0,1,1.47-.4c1.06,0,2.08-.09,3-.09a11,11,0,0,1,4,.53,2,2,0,0,1,1.34,2,15.48,15.48,0,0,1-1.26,5.45c-.57,1.18-1.1,2.28-1.67,3.26a.59.59,0,0,0,.29.12,1.22,1.22,0,0,1,.61.74,2.18,2.18,0,0,1-.65,1.46,10.07,10.07,0,0,1-2.36,1.75,58.43,58.43,0,0,1-5.87,3.1,4.59,4.59,0,0,1-1,.32c0,.45-.08.86-.08,1.26q-.25,5.07-.25,8.55a20,20,0,0,0,.12,2.73,24,24,0,0,0,4.56-4,.88.88,0,0,1,.74-.41c.36.08.57.37.57.94a4.41,4.41,0,0,1-.74,2.2,17.09,17.09,0,0,1-3.25,3.38,5.17,5.17,0,0,1-2.89,1.14c-1.14,0-1.75-1.27-1.79-3.79,0-3.34.08-7,.28-11,.24-5.13.41-9.53.45-13.23a16.1,16.1,0,0,0-.12-1.67c0-1,.65-1.47,1.83-1.55.81,0,1.26.53,1.34,1.47C104.61,50,104.53,51.51,104.49,52.85Zm6.76-.77c-2,1-4.32,2-6.93,3.21-.08,1.51-.12,2.85-.2,4a42.34,42.34,0,0,0,5-2.56C109.86,55.33,110.55,53.79,111.25,52.08Zm7.65,9.36a3.54,3.54,0,0,1-1,1.59c-2.6,3-4.52,4.8-5.78,5.37l0,0a48,48,0,0,0,4.52,4.81,45.13,45.13,0,0,0,6.39,5c.61.33.94.66.94,1.06,0,.74-.57,1.1-1.67,1.1-2-.24-4.44-1.75-7.37-4.48a52,52,0,0,1-8-9.44,3.2,3.2,0,0,1-.94-2.16,1.39,1.39,0,0,1,1.22-1.42,1.92,1.92,0,0,1,1.06.32,6.13,6.13,0,0,1,1,1.18,14.78,14.78,0,0,0,1.51,2.32,24.77,24.77,0,0,0,5.08-5.82,1.81,1.81,0,0,1,.66-.85,1.5,1.5,0,0,1,.89-.29h.33C118.45,59.89,118.86,60.46,118.9,61.44Z"/><path class="cls-6" d="M138.48,69.79a2.52,2.52,0,0,1,.53-.08,2.32,2.32,0,0,1,.9.24c.61.41,1.38,1,2.36,1.71a5.88,5.88,0,0,0,.81.57A23.34,23.34,0,0,0,143.9,67c0-1.1,0-2.24,0-3.42,0-1,0-2.08-.08-3.18-1.88.61-3.59,1.14-5.21,1.55a14,14,0,0,1-1.59.37,10.09,10.09,0,0,1-1.47.08c-.73,0-1.18-.53-1.26-1.55,0-.45.37-.85,1.1-1.26a11.32,11.32,0,0,0,1.63-.49c1.1-.24,2.2-.53,3.26-.85.08-.09.16-.21.24-.29A87.37,87.37,0,0,0,152.24,48c-1.62.24-5.74,1.18-12.33,2.81a4.78,4.78,0,0,1-.9.16,32.28,32.28,0,0,1,.21,3.5,1.89,1.89,0,0,1-.86,1.63,2.64,2.64,0,0,1-1.14.28c-.49,0-.69-.24-.69-.73.08-1,.12-1.79.12-2.52a6.81,6.81,0,0,0-.61-2.49,9.52,9.52,0,0,0-1.22-2.56,2.15,2.15,0,0,1-.61-1.18,1.76,1.76,0,0,1,.73-1.39,2.3,2.3,0,0,1,.9-.28,1.82,1.82,0,0,1,1.3.65,11.56,11.56,0,0,1,1.18,2.28,5.47,5.47,0,0,1,.61-.2c2.44-.65,6-1.47,10.75-2.36a28,28,0,0,1,4.72-.7c.33,0,.57,0,.82,0a1.64,1.64,0,0,1,.77,1.43q0,4-11.24,10.54a4.5,4.5,0,0,0,1.06-.32,92.89,92.89,0,0,0,9.53-3.3.83.83,0,0,1,.81.53,1,1,0,0,1,.16.41,1.84,1.84,0,0,1-.61,1.26q-1.77,1.77-9,4c.08,1.22.16,2.56.16,4.11,0,.57-.08,1.1-.08,1.59.45-.12.81-.25,1.1-.33a30.3,30.3,0,0,0,3.33-1.42,7.62,7.62,0,0,1,1.23-.41,4,4,0,0,1,.65-.08,1,1,0,0,1,.85.41A1.35,1.35,0,0,1,154,64a2.27,2.27,0,0,1-.74,1.22,7.88,7.88,0,0,1-2.4,1.5,16,16,0,0,1-3.54,1.35,2.77,2.77,0,0,1-.94.28,2.59,2.59,0,0,0-.12.65,29.64,29.64,0,0,1-1,4.6,1.78,1.78,0,0,0,.33.25,39.08,39.08,0,0,0,8.47,3.46,29.82,29.82,0,0,0,3.74.69,21.33,21.33,0,0,0,3.05.24,11.64,11.64,0,0,0,1.47-.16,6.8,6.8,0,0,0,1.34-.45,2.68,2.68,0,0,1,.82-.24c.69,0,1.06.16,1.14.57a1.81,1.81,0,0,1-.29.81,3.79,3.79,0,0,1-.73.66,12,12,0,0,1-6.15,1.46c-4.76,0-10.22-1.75-16.4-5.17a27.17,27.17,0,0,1-2.94-2,12.71,12.71,0,0,1-1-1c-.16.77-.33,1.46-.53,2.12A18.37,18.37,0,0,1,136,79.19a1.79,1.79,0,0,1-1.63.94,1,1,0,0,1-1-1,2.76,2.76,0,0,1,.17-.9,18.78,18.78,0,0,0,1.87-8.55c0-.48,0-.93,0-1.38s-.08-1-.08-1.3a1.42,1.42,0,0,1-.25-.82,1.74,1.74,0,0,1,.61-1.1,1.65,1.65,0,0,1,1-.32,2.9,2.9,0,0,1,.69.08,1.71,1.71,0,0,1,.86.86,13.09,13.09,0,0,1,.28,2.8C138.52,68.93,138.48,69.38,138.48,69.79ZM141.33,42a1.21,1.21,0,0,1,.45-.77,3,3,0,0,1,1.87-.86c0,.33.33.49,1,.53s2.24.37,4.36.65a.65.65,0,0,1,.57.7,1.54,1.54,0,0,1-.74,1.34,2.83,2.83,0,0,1-1.38.37,47.41,47.41,0,0,1-5.17-.29C141.66,43.45,141.33,42.88,141.33,42Z"/><path class="cls-6" d="M196,67.87c-2.2,3.38-4.64,5.62-7.29,6.68a2.64,2.64,0,0,1-.93.24c-1.06,0-1.59-.65-1.59-1.91,0-.65.57-1.42,1.71-2.32a2.32,2.32,0,0,1,1.47-.49,22.18,22.18,0,0,0,4.51-5.13,12,12,0,0,0,2.2-6.47c0-2.12-1.54-3.38-4.6-3.83a39.65,39.65,0,0,1-5.9,11.12c-1.71,2.28-3.5,3.38-5.29,3.38a4,4,0,0,1-3.38-2,6.8,6.8,0,0,1-1.26-4c0-2.77,2-5.54,6.06-8.34,3.5-2.41,6.6-3.63,9.2-3.63a9.62,9.62,0,0,1,5.86,1.75,6.68,6.68,0,0,1,2.53,5.54Q199.31,62.86,196,67.87Zm-13.64-9.36c-2.28,1.79-3.42,3.42-3.42,4.93a3.17,3.17,0,0,0,.49,1.54c.33.53.65.78.94.78,1.14,0,3-2.08,5.45-6.27a33.1,33.1,0,0,0,1.88-4.11A21.67,21.67,0,0,0,182.37,58.51Z"/><path class="cls-6" d="M238,53.18l-4.07.85c.24,5.78.36,10.18.36,13.15,0,6.31-1.34,9.45-3.95,9.45a4.2,4.2,0,0,1-2.77-1.39c-1.26-1.18-1.87-2.07-1.87-2.77a1.93,1.93,0,0,1,1.63-1.75,2,2,0,0,1,1.59,1,4.37,4.37,0,0,0,1.3,1.34c.45-1.05.69-4.11.69-9.07,0-1.1-.12-4.08-.28-8.88a38.67,38.67,0,0,1-8.47,12.17c-3.38,3.42-5.46,5.13-6.19,5.21-1.14,0-1.71-.69-1.79-1.91.08-1.3,1-2.52,2.61-3.7a2.31,2.31,0,0,1,1.5-.45c4.15-4,7.09-7.78,8.71-11.32-4.07.49-6.55.73-7.53.73q-2.07,0-2.07-1.71A1.52,1.52,0,0,1,219,52.36a92.35,92.35,0,0,0,11.6-1.3,25.77,25.77,0,0,0-.21-2.77,3.37,3.37,0,0,1,.57-2,2,2,0,0,1,1-.9c.9,0,1.43.2,1.67.53A2.16,2.16,0,0,1,234,47l0,1.59v1.79c.93-.16,2.4-.41,4.43-.82a1.83,1.83,0,0,1,2,1.39C240.43,52.12,239.61,52.85,238,53.18Z"/><path class="cls-6" d="M283,61.89a51.61,51.61,0,0,1-7.25,6.88A30.56,30.56,0,0,1,267,73.21a2.78,2.78,0,0,1-1.63.89,12.86,12.86,0,0,1-2.12.33c-1.55,0-2.32-.61-2.32-1.79,0-1,.37-1.55,1.18-1.75a31.79,31.79,0,0,0,10.3-4,41.1,41.1,0,0,0,8.31-7.37,1.46,1.46,0,0,1,1.18-.61c1.06,0,1.58.61,1.58,1.75A1.85,1.85,0,0,1,283,61.89ZM270.6,57a3,3,0,0,1-1.51-.85c-.32-.24-1.26-.81-2.81-1.71A2.72,2.72,0,0,1,264.65,52c0-1.14.66-1.75,2-1.75,1,0,2.65,1.22,5,3.62a1.81,1.81,0,0,1,.77,1.42Q272.43,57,270.6,57Z"/><path class="cls-6" d="M320.1,68a40.76,40.76,0,0,1-6.1,6.43c-2.85,2.4-5.09,3.62-6.72,3.62-1.14,0-1.67-.61-1.67-1.75s.57-1.67,1.75-1.67A7.27,7.27,0,0,0,310,73.33c4.6-3.34,7.77-7,9.52-10.91a5.15,5.15,0,0,0,.61-2.08c0-1.5-1.09-2.28-3.25-2.28-.65,0-2.65.25-6,.65a6,6,0,0,1-1.83.94,7.45,7.45,0,0,1-2.85.69c-1.67,0-2.48-.65-2.48-2,0-1,1-1.79,3.05-2.28a42.23,42.23,0,0,1,10.14-1.43,8.16,8.16,0,0,1,4.44,1.18,4.56,4.56,0,0,1,2.07,4C323.4,62.3,322.3,65,320.1,68Zm.09-17.88a55.94,55.94,0,0,1-9.49.94,20,20,0,0,1-2.89-.12c-1.18-.25-1.75-.86-1.75-1.83a2.12,2.12,0,0,1,.61-1.43A1.92,1.92,0,0,1,308,47a3.11,3.11,0,0,1,1.88.61c.53,0,.89,0,1.14,0,1,0,4-.28,8.75-.94,1.06,0,1.63.62,1.63,1.75A1.45,1.45,0,0,1,320.19,50.08Z"/><path class="cls-6" d="M359.72,49.07c-.82,1.18-1.75,2.44-2.89,3.78a24.77,24.77,0,0,1,1.06,8c0,1.71-.12,4.48-.37,8.22-.32,4.24-.49,6.64-.49,7.29,0,1.18-.57,1.79-1.63,1.79s-1.58-1-1.87-2.85c-.24-1.34-.36-2.07-.36-2.24,0-.4.28-.81.85-1.3q.62-8.73.61-10.5a37.12,37.12,0,0,0-.45-5.38q-1.21,1.23-6.35,6A3.57,3.57,0,0,1,346,63c-1.14,0-1.67-.57-1.67-1.71a2.17,2.17,0,0,1,.86-1.51,81,81,0,0,0,10.95-11.28,1.82,1.82,0,0,1,.36-1.13c1.23-1.76,2.2-2.65,2.94-2.65a1.79,1.79,0,0,1,1.13.45,1.64,1.64,0,0,1,.45,1.14A6.75,6.75,0,0,1,359.72,49.07Z"/><path class="cls-6" d="M408.78,61.89a51.61,51.61,0,0,1-7.25,6.88,30.3,30.3,0,0,1-8.71,4.44,2.71,2.71,0,0,1-1.63.89,12.94,12.94,0,0,1-2.11.33c-1.55,0-2.32-.61-2.32-1.79,0-1,.36-1.55,1.18-1.75a31.64,31.64,0,0,0,10.29-4,40.57,40.57,0,0,0,8.31-7.37,1.48,1.48,0,0,1,1.18-.61c1.06,0,1.59.61,1.59,1.75A1.86,1.86,0,0,1,408.78,61.89ZM396.4,57a3,3,0,0,1-1.5-.85c-.33-.24-1.26-.81-2.81-1.71A2.72,2.72,0,0,1,390.46,52c0-1.14.65-1.75,2-1.75,1,0,2.65,1.22,5,3.62a1.81,1.81,0,0,1,.77,1.42Q398.23,57,396.4,57Z"/><path class="cls-6" d="M449.49,62c-2.44,2.16-4,3.54-4.72,4.11-1.83,1.55-3.5,2.81-5,3.87A8.2,8.2,0,0,1,435,71.7c-3.46,0-5.17-3.09-5.17-9.28a53.48,53.48,0,0,1,1.95-14.21,1.61,1.61,0,0,1,1.59-1.38,2.2,2.2,0,0,1,1.26.57,2.11,2.11,0,0,1,.61,1.58,4.55,4.55,0,0,1-.36,1.43,27.89,27.89,0,0,0-1.39,6.68,54.17,54.17,0,0,0-.4,6.22c0,3.38.61,5,1.83,5s3.13-1.1,5.94-3.3c1.1-.89,3.06-2.64,5.91-5.17a2.78,2.78,0,0,1,1.75-.81c1,0,1.5.57,1.5,1.71A1.56,1.56,0,0,1,449.49,62Z"/><path class="cls-6" d="M477.26,65.55a.94.94,0,0,1-.89-.44c-.74-1-1.71-2.28-3-4a2.14,2.14,0,0,1-.53-1.47c0-.85.49-1.3,1.47-1.3a2,2,0,0,1,1.59,1.06c1.91,2.68,2.89,4.23,2.89,4.6A1.34,1.34,0,0,1,477.26,65.55Zm10.87.29a45.3,45.3,0,0,1-4.68,7.73c-1.34,1.67-2.28,2.53-2.77,2.53-1.1,0-1.63-.49-1.63-1.39a2.46,2.46,0,0,1,1.22-1.87,41.06,41.06,0,0,0,4.85-7.33C487,61.93,488,59.24,488,57.45a1.73,1.73,0,0,1-.08-.57c0-1,.44-1.5,1.42-1.5s1.55.73,1.55,2.15C490.9,59.41,490,62.17,488.13,65.84Zm-4.6-4.19a1.22,1.22,0,0,1-.9.4,1.73,1.73,0,0,1-1.54-.89,13.25,13.25,0,0,1-.9-1.84,2.61,2.61,0,0,1-.69-1.79,1.24,1.24,0,0,1,1.38-1.42,1.65,1.65,0,0,1,1.14.41,12.27,12.27,0,0,1,1.31,2.15,6.35,6.35,0,0,1,.57,2.08A1.37,1.37,0,0,1,483.53,61.65Z"/><path class="cls-6" d="M532.1,71.29a1.34,1.34,0,0,1-1.18.7c-1.14,0-1.71-.41-1.71-1.27a7.87,7.87,0,0,1,.12-1.22c-.24-.81-1.18-1.63-2.81-2.52a23.58,23.58,0,0,0-3.74-1.51,40.7,40.7,0,0,1-8,7.25,4.64,4.64,0,0,1-2.49.89,1.75,1.75,0,0,1-1.26-.44,1.71,1.71,0,0,1-.49-1.23,1.47,1.47,0,0,1,1.67-1.66q2-.86,5.74-4.65a58.23,58.23,0,0,0,5.09-5.82A29.15,29.15,0,0,0,525.51,56,10.27,10.27,0,0,0,527,51.71c0-.45-.65-.69-1.91-.69a20.34,20.34,0,0,0-7.37,1.34,2.76,2.76,0,0,1-1.83.9,2.47,2.47,0,0,1-1.75-.73,2.27,2.27,0,0,1-.78-1.75c0-.78.49-1.27,1.47-1.51a83.79,83.79,0,0,1,10.62-1.71c3.22,0,4.85,1.42,4.85,4.23s-1.75,6.44-5.21,10.75c5.05,1.83,7.57,4.15,7.57,7A2.83,2.83,0,0,1,532.1,71.29Z"/><path class="cls-6" d="M576.52,61.89a51.61,51.61,0,0,1-7.25,6.88,30.3,30.3,0,0,1-8.71,4.44,2.71,2.71,0,0,1-1.63.89,12.94,12.94,0,0,1-2.11.33c-1.55,0-2.32-.61-2.32-1.79,0-1,.36-1.55,1.18-1.75a31.79,31.79,0,0,0,10.3-4,40.82,40.82,0,0,0,8.3-7.37,1.48,1.48,0,0,1,1.18-.61c1.06,0,1.59.61,1.59,1.75A1.81,1.81,0,0,1,576.52,61.89ZM564.14,57a3,3,0,0,1-1.5-.85c-.33-.24-1.26-.81-2.81-1.71A2.72,2.72,0,0,1,558.2,52c0-1.14.65-1.75,2-1.75,1,0,2.65,1.22,5,3.62a1.82,1.82,0,0,1,.78,1.42C566,56.47,565.36,57,564.14,57Z"/><path class="cls-7" d="M13.86,77.2a1.66,1.66,0,0,1,.85-1.55,32.19,32.19,0,0,0,4.08-2.32c-.29-.29-.53-.57-.78-.86q-4.52-4.57-4.52-8.42a23.3,23.3,0,0,1,.37-3.79c.16-1.1.32-2.2.53-3.26-2.69.66-5.42,1.39-8.27,2.24A2.79,2.79,0,0,1,5,59.57a1,1,0,0,1-1-.65,2.32,2.32,0,0,1-.17-1.06c0-.41.37-.86,1-1.26A49.86,49.86,0,0,1,12,54.28C13,54,14.06,53.75,15,53.54a54.54,54.54,0,0,0,.77-6c0-.37,0-.77-.08-1.26a6.48,6.48,0,0,1-.2-1.39,2.34,2.34,0,0,1,.57-1.58,2,2,0,0,1,1.1-.41,1.43,1.43,0,0,1,1,.49,6.38,6.38,0,0,1,.65,3.38,51.08,51.08,0,0,1-.45,5.41,4.27,4.27,0,0,0-.08.61c.08,0,.12-.08.16-.08q3.91-.85,7.57-1.47c2-.32,3.91-.61,5.91-.85s3.25-.33,4.07-.33a1.52,1.52,0,0,1,1.62,1.47,1.6,1.6,0,0,1-1.42,1.67c-1.22.16-2.4.28-3.54.41-1.55.2-3.1.4-4.72.65.12.48.24,1,.36,1.63a36.27,36.27,0,0,1,.29,3.82A19.83,19.83,0,0,1,26,70a28,28,0,0,1-2.36,3.14c.33.24.69.48,1,.77,1.18.81,2.15,1.51,2.89,2.12a1,1,0,0,1,.36.73c0,.89-.4,1.34-1.18,1.42h-.36a6.56,6.56,0,0,1-3-1.14c-.73-.52-1.46-1-2.11-1.62a23.52,23.52,0,0,1-3.63,2.44,3.69,3.69,0,0,1-1.79.61A1.72,1.72,0,0,1,13.86,77.2Zm3.83-20.93c-.21.9-.41,1.83-.57,2.81A28.81,28.81,0,0,0,16.34,64c0,1.71,1.43,3.9,4.28,6.55.24.25.45.45.69.69a15.82,15.82,0,0,0,3-4.23A17.15,17.15,0,0,0,25.83,61a24.77,24.77,0,0,0-.41-4.84c-.12-.49-.24-.94-.32-1.35C22.86,55.17,20.37,55.66,17.69,56.27Z"/><path class="cls-7" d="M46.72,62.38a16.66,16.66,0,0,1-.57,2,3.57,3.57,0,0,1-.37.9,1.6,1.6,0,0,1-1.26.57c-.57,0-.86-.33-.86-.86a3.6,3.6,0,0,1,.17-1c.08-.66.2-1.35.28-2.12,0-.57,0-1.14,0-1.67a20.2,20.2,0,0,0-.24-3.54,4.46,4.46,0,0,1-.17-1.06,1.8,1.8,0,0,1,.45-1.34,1.59,1.59,0,0,1,.9-.29,1.63,1.63,0,0,1,.93.29,7.94,7.94,0,0,1,.74,1A30.64,30.64,0,0,1,47,59.57,19.7,19.7,0,0,1,46.72,62.38ZM52.54,74.1c-.08,1.06-.17,2.08-.21,3.06-.24,1-.73,1.62-1.54,1.62s-1.35-.57-1.35-1.66V71.58c.08-3.26.13-5.38.13-6.43,0-3.75,0-6.72-.09-9a72.86,72.86,0,0,0-.77-9.61,1.47,1.47,0,0,1,.77-1.34,2.3,2.3,0,0,1,1-.29,1.19,1.19,0,0,1,1,.49,2.77,2.77,0,0,1,.45,1.35q.3,3.66.61,9v.37a7.34,7.34,0,0,1,.73-.24,14.49,14.49,0,0,0,2.08-.7l.77-.2a2,2,0,0,1,.65-.12.89.89,0,0,1,.85.45,2.18,2.18,0,0,1,.09.53,2.4,2.4,0,0,1-.7,1.22,5.22,5.22,0,0,1-1.46.93,8.67,8.67,0,0,1-2.08.9,2.41,2.41,0,0,1-.85.2c0,2,0,4,0,6.19S52.58,70.36,52.54,74.1ZM76.68,60.51Q75.21,62,69.35,64.05c0,1.87-.12,3.74-.28,5.57-.13,1.51-.25,2.77-.37,3.79,1.55-.2,3-.37,4.48-.53s2.73-.28,4-.45c1.06-.08,2.07-.12,3-.12,1.14.08,1.79.49,2,1.26a1.43,1.43,0,0,1-1.3,1.51c-.89.12-1.87.24-2.85.41-1.22.08-2.56.24-4,.4-2.72.33-5.49.7-8.3,1.14-2.61.41-5,.82-7.21,1.31-.73.08-1.3.16-1.75.16s-.61-.29-.77-.77A4.87,4.87,0,0,1,56,76.5c.12-.48.89-.89,2.32-1.22a40.08,40.08,0,0,1,5.25-1.1c.89-.16,1.79-.28,2.69-.4.08-.78.16-1.75.28-3,.2-2.37.33-4.36.37-5.91-1.59.49-3.06,1-4.4,1.39-.57.16-1,.24-1.26.32a13.57,13.57,0,0,1-1.63.12c-.77,0-1.22-.57-1.38-1.67,0-.48.4-1,1.22-1.38.45-.16,1.06-.33,1.79-.53,1.95-.45,3.83-.93,5.62-1.46-.13-2.24-.33-4.89-.66-7.94a14.32,14.32,0,0,1-3.42.53H61.09a2.21,2.21,0,0,1-1.43-.49,2.48,2.48,0,0,1-.81-2c0-.61,0-1.34.12-2.24.12-.65.24-1.3.37-1.91a1.21,1.21,0,0,1,1.26-.81h.28a1.43,1.43,0,0,1,1.39,1.54c-.17,1.55-.21,2.45-.21,2.65s.21.28.61.28a11.34,11.34,0,0,0,3.14-.77,3.63,3.63,0,0,1-.08-.69c-.25-1.79-.49-3.5-.74-5.21a8.06,8.06,0,0,1-.28-1.75c0-.45.28-.86.94-1.22A3.46,3.46,0,0,1,67,41.33c.53,0,.9.61,1.14,1.79.08,1,.16,2.12.33,3.3.08,1,.12,2,.2,3a32.13,32.13,0,0,0,6.11-2.89c.89.2,1.34.65,1.42,1.39a1.44,1.44,0,0,1-.61,1.18,24.89,24.89,0,0,1-5.82,3.38,6.71,6.71,0,0,1-.86.36c.08,1.14.13,2.24.21,3.3.12,1.71.2,3.3.24,4.72a71.93,71.93,0,0,0,6.92-2.36.92.92,0,0,1,.86.45.8.8,0,0,1,.08.36A1.92,1.92,0,0,1,76.68,60.51Z"/><path class="cls-7" d="M93.5,59.24a2.41,2.41,0,0,0,2-.81,2.44,2.44,0,0,0,.77-1.59c0-.53-1.42-1.26-4.27-2.16a1.71,1.71,0,0,1-1.1-1,2.81,2.81,0,0,1-.24-1.23,4.39,4.39,0,0,1,.77-1.54c.89-1.22,2-2.73,3.17-4.48a6.24,6.24,0,0,0,.9-1.67,12.23,12.23,0,0,0-3.22-.61c-.69-.16-1-.73-1-1.67A1.47,1.47,0,0,1,92.64,41,14.76,14.76,0,0,1,97.16,42a2.13,2.13,0,0,1,1.22,1.79c0,2-1.67,4.89-4.88,8.63.57.13,1.18.29,1.75.45,2.44.78,3.66,1.79,3.66,3.1a5.48,5.48,0,0,1-.2,1.54,5.19,5.19,0,0,1-1.43,2.85,5.25,5.25,0,0,1-3.78,1.47,4.58,4.58,0,0,1-3.06-1.1c0,1.87.08,3.91.12,6.15v7.2c0,1.59,0,2.85,0,3.79-.08,1.79-.48,2.73-1.18,2.73s-1.22-.9-1.3-2.69a33.14,33.14,0,0,1-.16-3.5c0-2.53-.17-5.78-.33-9.73-.08-2.77-.16-6-.32-9.69,0-.69-.09-2.12-.09-4.23a1.69,1.69,0,0,1,.74-1.27,1.63,1.63,0,0,1,.93-.32c.9,0,1.39.53,1.47,1.5s0,2.08.08,3.46,0,2.85.08,4.08l.12.12A5.11,5.11,0,0,0,93.5,59.24Zm11-6.39c1-.57,2.28-1.22,3.86-2a25.3,25.3,0,0,1,3.91-1.39,10.27,10.27,0,0,0,.7-2.32.29.29,0,0,0-.29-.32,7,7,0,0,0-1.14-.08c-.9,0-1.67,0-2.32.08l-2.16.2c-1.06,0-1.63-.45-1.71-1.38A1.8,1.8,0,0,1,106,44.3a3.33,3.33,0,0,1,1.47-.4c1.06,0,2.08-.09,3-.09a11,11,0,0,1,4,.53,2,2,0,0,1,1.34,2,15.48,15.48,0,0,1-1.26,5.45c-.57,1.18-1.1,2.28-1.67,3.26a.59.59,0,0,0,.29.12,1.22,1.22,0,0,1,.61.74,2.18,2.18,0,0,1-.65,1.46,10.07,10.07,0,0,1-2.36,1.75,58.43,58.43,0,0,1-5.87,3.1,4.59,4.59,0,0,1-1,.32c0,.45-.08.86-.08,1.26q-.25,5.07-.25,8.55a20,20,0,0,0,.12,2.73,24,24,0,0,0,4.56-4,.88.88,0,0,1,.74-.41c.36.08.57.37.57.94a4.41,4.41,0,0,1-.74,2.2,17.09,17.09,0,0,1-3.25,3.38,5.17,5.17,0,0,1-2.89,1.14c-1.14,0-1.75-1.27-1.79-3.79,0-3.34.08-7,.28-11,.24-5.13.41-9.53.45-13.23a16.1,16.1,0,0,0-.12-1.67c0-1,.65-1.47,1.83-1.55.81,0,1.26.53,1.34,1.47C104.61,50,104.53,51.51,104.49,52.85Zm6.76-.77c-2,1-4.32,2-6.93,3.21-.08,1.51-.12,2.85-.2,4a42.34,42.34,0,0,0,5-2.56C109.86,55.33,110.55,53.79,111.25,52.08Zm7.65,9.36a3.54,3.54,0,0,1-1,1.59c-2.6,3-4.52,4.8-5.78,5.37l0,0a48,48,0,0,0,4.52,4.81,45.13,45.13,0,0,0,6.39,5c.61.33.94.66.94,1.06,0,.74-.57,1.1-1.67,1.1-2-.24-4.44-1.75-7.37-4.48a52,52,0,0,1-8-9.44,3.2,3.2,0,0,1-.94-2.16,1.39,1.39,0,0,1,1.22-1.42,1.92,1.92,0,0,1,1.06.32,6.13,6.13,0,0,1,1,1.18,14.78,14.78,0,0,0,1.51,2.32,24.77,24.77,0,0,0,5.08-5.82,1.81,1.81,0,0,1,.66-.85,1.5,1.5,0,0,1,.89-.29h.33C118.45,59.89,118.86,60.46,118.9,61.44Z"/><path class="cls-7" d="M138.48,69.79a2.52,2.52,0,0,1,.53-.08,2.32,2.32,0,0,1,.9.24c.61.41,1.38,1,2.36,1.71a5.88,5.88,0,0,0,.81.57A23.34,23.34,0,0,0,143.9,67c0-1.1,0-2.24,0-3.42,0-1,0-2.08-.08-3.18-1.88.61-3.59,1.14-5.21,1.55a14,14,0,0,1-1.59.37,10.09,10.09,0,0,1-1.47.08c-.73,0-1.18-.53-1.26-1.55,0-.45.37-.85,1.1-1.26a11.32,11.32,0,0,0,1.63-.49c1.1-.24,2.2-.53,3.26-.85.08-.09.16-.21.24-.29A87.37,87.37,0,0,0,152.24,48c-1.62.24-5.74,1.18-12.33,2.81a4.78,4.78,0,0,1-.9.16,32.28,32.28,0,0,1,.21,3.5,1.89,1.89,0,0,1-.86,1.63,2.64,2.64,0,0,1-1.14.28c-.49,0-.69-.24-.69-.73.08-1,.12-1.79.12-2.52a6.81,6.81,0,0,0-.61-2.49,9.52,9.52,0,0,0-1.22-2.56,2.15,2.15,0,0,1-.61-1.18,1.76,1.76,0,0,1,.73-1.39,2.3,2.3,0,0,1,.9-.28,1.82,1.82,0,0,1,1.3.65,11.56,11.56,0,0,1,1.18,2.28,5.47,5.47,0,0,1,.61-.2c2.44-.65,6-1.47,10.75-2.36a28,28,0,0,1,4.72-.7c.33,0,.57,0,.82,0a1.64,1.64,0,0,1,.77,1.43q0,4-11.24,10.54a4.5,4.5,0,0,0,1.06-.32,92.89,92.89,0,0,0,9.53-3.3.83.83,0,0,1,.81.53,1,1,0,0,1,.16.41,1.84,1.84,0,0,1-.61,1.26q-1.77,1.77-9,4c.08,1.22.16,2.56.16,4.11,0,.57-.08,1.1-.08,1.59.45-.12.81-.25,1.1-.33a30.3,30.3,0,0,0,3.33-1.42,7.62,7.62,0,0,1,1.23-.41,4,4,0,0,1,.65-.08,1,1,0,0,1,.85.41A1.35,1.35,0,0,1,154,64a2.27,2.27,0,0,1-.74,1.22,7.88,7.88,0,0,1-2.4,1.5,16,16,0,0,1-3.54,1.35,2.77,2.77,0,0,1-.94.28,2.59,2.59,0,0,0-.12.65,29.64,29.64,0,0,1-1,4.6,1.78,1.78,0,0,0,.33.25,39.08,39.08,0,0,0,8.47,3.46,29.82,29.82,0,0,0,3.74.69,21.33,21.33,0,0,0,3.05.24,11.64,11.64,0,0,0,1.47-.16,6.8,6.8,0,0,0,1.34-.45,2.68,2.68,0,0,1,.82-.24c.69,0,1.06.16,1.14.57a1.81,1.81,0,0,1-.29.81,3.79,3.79,0,0,1-.73.66,12,12,0,0,1-6.15,1.46c-4.76,0-10.22-1.75-16.4-5.17a27.17,27.17,0,0,1-2.94-2,12.71,12.71,0,0,1-1-1c-.16.77-.33,1.46-.53,2.12A18.37,18.37,0,0,1,136,79.19a1.79,1.79,0,0,1-1.63.94,1,1,0,0,1-1-1,2.76,2.76,0,0,1,.17-.9,18.78,18.78,0,0,0,1.87-8.55c0-.48,0-.93,0-1.38s-.08-1-.08-1.3a1.42,1.42,0,0,1-.25-.82,1.74,1.74,0,0,1,.61-1.1,1.65,1.65,0,0,1,1-.32,2.9,2.9,0,0,1,.69.08,1.71,1.71,0,0,1,.86.86,13.09,13.09,0,0,1,.28,2.8C138.52,68.93,138.48,69.38,138.48,69.79ZM141.33,42a1.21,1.21,0,0,1,.45-.77,3,3,0,0,1,1.87-.86c0,.33.33.49,1,.53s2.24.37,4.36.65a.65.65,0,0,1,.57.7,1.54,1.54,0,0,1-.74,1.34,2.83,2.83,0,0,1-1.38.37,47.41,47.41,0,0,1-5.17-.29C141.66,43.45,141.33,42.88,141.33,42Z"/><path class="cls-7" d="M196,67.87c-2.2,3.38-4.64,5.62-7.29,6.68a2.64,2.64,0,0,1-.93.24c-1.06,0-1.59-.65-1.59-1.91,0-.65.57-1.42,1.71-2.32a2.32,2.32,0,0,1,1.47-.49,22.18,22.18,0,0,0,4.51-5.13,12,12,0,0,0,2.2-6.47c0-2.12-1.54-3.38-4.6-3.83a39.65,39.65,0,0,1-5.9,11.12c-1.71,2.28-3.5,3.38-5.29,3.38a4,4,0,0,1-3.38-2,6.8,6.8,0,0,1-1.26-4c0-2.77,2-5.54,6.06-8.34,3.5-2.41,6.6-3.63,9.2-3.63a9.62,9.62,0,0,1,5.86,1.75,6.68,6.68,0,0,1,2.53,5.54Q199.31,62.86,196,67.87Zm-13.64-9.36c-2.28,1.79-3.42,3.42-3.42,4.93a3.17,3.17,0,0,0,.49,1.54c.33.53.65.78.94.78,1.14,0,3-2.08,5.45-6.27a33.1,33.1,0,0,0,1.88-4.11A21.67,21.67,0,0,0,182.37,58.51Z"/><path class="cls-7" d="M238,53.18l-4.07.85c.24,5.78.36,10.18.36,13.15,0,6.31-1.34,9.45-3.95,9.45a4.2,4.2,0,0,1-2.77-1.39c-1.26-1.18-1.87-2.07-1.87-2.77a1.93,1.93,0,0,1,1.63-1.75,2,2,0,0,1,1.59,1,4.37,4.37,0,0,0,1.3,1.34c.45-1.05.69-4.11.69-9.07,0-1.1-.12-4.08-.28-8.88a38.67,38.67,0,0,1-8.47,12.17c-3.38,3.42-5.46,5.13-6.19,5.21-1.14,0-1.71-.69-1.79-1.91.08-1.3,1-2.52,2.61-3.7a2.31,2.31,0,0,1,1.5-.45c4.15-4,7.09-7.78,8.71-11.32-4.07.49-6.55.73-7.53.73q-2.07,0-2.07-1.71A1.52,1.52,0,0,1,219,52.36a92.35,92.35,0,0,0,11.6-1.3,25.77,25.77,0,0,0-.21-2.77,3.37,3.37,0,0,1,.57-2,2,2,0,0,1,1-.9c.9,0,1.43.2,1.67.53A2.16,2.16,0,0,1,234,47l0,1.59v1.79c.93-.16,2.4-.41,4.43-.82a1.83,1.83,0,0,1,2,1.39C240.43,52.12,239.61,52.85,238,53.18Z"/><path class="cls-7" d="M283,61.89a51.61,51.61,0,0,1-7.25,6.88A30.56,30.56,0,0,1,267,73.21a2.78,2.78,0,0,1-1.63.89,12.86,12.86,0,0,1-2.12.33c-1.55,0-2.32-.61-2.32-1.79,0-1,.37-1.55,1.18-1.75a31.79,31.79,0,0,0,10.3-4,41.1,41.1,0,0,0,8.31-7.37,1.46,1.46,0,0,1,1.18-.61c1.06,0,1.58.61,1.58,1.75A1.85,1.85,0,0,1,283,61.89ZM270.6,57a3,3,0,0,1-1.51-.85c-.32-.24-1.26-.81-2.81-1.71A2.72,2.72,0,0,1,264.65,52c0-1.14.66-1.75,2-1.75,1,0,2.65,1.22,5,3.62a1.81,1.81,0,0,1,.77,1.42Q272.43,57,270.6,57Z"/><path class="cls-7" d="M320.1,68a40.76,40.76,0,0,1-6.1,6.43c-2.85,2.4-5.09,3.62-6.72,3.62-1.14,0-1.67-.61-1.67-1.75s.57-1.67,1.75-1.67A7.27,7.27,0,0,0,310,73.33c4.6-3.34,7.77-7,9.52-10.91a5.15,5.15,0,0,0,.61-2.08c0-1.5-1.09-2.28-3.25-2.28-.65,0-2.65.25-6,.65a6,6,0,0,1-1.83.94,7.45,7.45,0,0,1-2.85.69c-1.67,0-2.48-.65-2.48-2,0-1,1-1.79,3.05-2.28a42.23,42.23,0,0,1,10.14-1.43,8.16,8.16,0,0,1,4.44,1.18,4.56,4.56,0,0,1,2.07,4C323.4,62.3,322.3,65,320.1,68Zm.09-17.88a55.94,55.94,0,0,1-9.49.94,20,20,0,0,1-2.89-.12c-1.18-.25-1.75-.86-1.75-1.83a2.12,2.12,0,0,1,.61-1.43A1.92,1.92,0,0,1,308,47a3.11,3.11,0,0,1,1.88.61c.53,0,.89,0,1.14,0,1,0,4-.28,8.75-.94,1.06,0,1.63.62,1.63,1.75A1.45,1.45,0,0,1,320.19,50.08Z"/><path class="cls-7" d="M359.72,49.07c-.82,1.18-1.75,2.44-2.89,3.78a24.77,24.77,0,0,1,1.06,8c0,1.71-.12,4.48-.37,8.22-.32,4.24-.49,6.64-.49,7.29,0,1.18-.57,1.79-1.63,1.79s-1.58-1-1.87-2.85c-.24-1.34-.36-2.07-.36-2.24,0-.4.28-.81.85-1.3q.62-8.73.61-10.5a37.12,37.12,0,0,0-.45-5.38q-1.21,1.23-6.35,6A3.57,3.57,0,0,1,346,63c-1.14,0-1.67-.57-1.67-1.71a2.17,2.17,0,0,1,.86-1.51,81,81,0,0,0,10.95-11.28,1.82,1.82,0,0,1,.36-1.13c1.23-1.76,2.2-2.65,2.94-2.65a1.79,1.79,0,0,1,1.13.45,1.64,1.64,0,0,1,.45,1.14A6.75,6.75,0,0,1,359.72,49.07Z"/><path class="cls-7" d="M408.78,61.89a51.61,51.61,0,0,1-7.25,6.88,30.3,30.3,0,0,1-8.71,4.44,2.71,2.71,0,0,1-1.63.89,12.94,12.94,0,0,1-2.11.33c-1.55,0-2.32-.61-2.32-1.79,0-1,.36-1.55,1.18-1.75a31.64,31.64,0,0,0,10.29-4,40.57,40.57,0,0,0,8.31-7.37,1.48,1.48,0,0,1,1.18-.61c1.06,0,1.59.61,1.59,1.75A1.86,1.86,0,0,1,408.78,61.89ZM396.4,57a3,3,0,0,1-1.5-.85c-.33-.24-1.26-.81-2.81-1.71A2.72,2.72,0,0,1,390.46,52c0-1.14.65-1.75,2-1.75,1,0,2.65,1.22,5,3.62a1.81,1.81,0,0,1,.77,1.42Q398.23,57,396.4,57Z"/><path class="cls-7" d="M449.49,62c-2.44,2.16-4,3.54-4.72,4.11-1.83,1.55-3.5,2.81-5,3.87A8.2,8.2,0,0,1,435,71.7c-3.46,0-5.17-3.09-5.17-9.28a53.48,53.48,0,0,1,1.95-14.21,1.61,1.61,0,0,1,1.59-1.38,2.2,2.2,0,0,1,1.26.57,2.11,2.11,0,0,1,.61,1.58,4.55,4.55,0,0,1-.36,1.43,27.89,27.89,0,0,0-1.39,6.68,54.17,54.17,0,0,0-.4,6.22c0,3.38.61,5,1.83,5s3.13-1.1,5.94-3.3c1.1-.89,3.06-2.64,5.91-5.17a2.78,2.78,0,0,1,1.75-.81c1,0,1.5.57,1.5,1.71A1.56,1.56,0,0,1,449.49,62Z"/><path class="cls-7" d="M477.26,65.55a.94.94,0,0,1-.89-.44c-.74-1-1.71-2.28-3-4a2.14,2.14,0,0,1-.53-1.47c0-.85.49-1.3,1.47-1.3a2,2,0,0,1,1.59,1.06c1.91,2.68,2.89,4.23,2.89,4.6A1.34,1.34,0,0,1,477.26,65.55Zm10.87.29a45.3,45.3,0,0,1-4.68,7.73c-1.34,1.67-2.28,2.53-2.77,2.53-1.1,0-1.63-.49-1.63-1.39a2.46,2.46,0,0,1,1.22-1.87,41.06,41.06,0,0,0,4.85-7.33C487,61.93,488,59.24,488,57.45a1.73,1.73,0,0,1-.08-.57c0-1,.44-1.5,1.42-1.5s1.55.73,1.55,2.15C490.9,59.41,490,62.17,488.13,65.84Zm-4.6-4.19a1.22,1.22,0,0,1-.9.4,1.73,1.73,0,0,1-1.54-.89,13.25,13.25,0,0,1-.9-1.84,2.61,2.61,0,0,1-.69-1.79,1.24,1.24,0,0,1,1.38-1.42,1.65,1.65,0,0,1,1.14.41,12.27,12.27,0,0,1,1.31,2.15,6.35,6.35,0,0,1,.57,2.08A1.37,1.37,0,0,1,483.53,61.65Z"/><path class="cls-7" d="M532.1,71.29a1.34,1.34,0,0,1-1.18.7c-1.14,0-1.71-.41-1.71-1.27a7.87,7.87,0,0,1,.12-1.22c-.24-.81-1.18-1.63-2.81-2.52a23.58,23.58,0,0,0-3.74-1.51,40.7,40.7,0,0,1-8,7.25,4.64,4.64,0,0,1-2.49.89,1.75,1.75,0,0,1-1.26-.44,1.71,1.71,0,0,1-.49-1.23,1.47,1.47,0,0,1,1.67-1.66q2-.86,5.74-4.65a58.23,58.23,0,0,0,5.09-5.82A29.15,29.15,0,0,0,525.51,56,10.27,10.27,0,0,0,527,51.71c0-.45-.65-.69-1.91-.69a20.34,20.34,0,0,0-7.37,1.34,2.76,2.76,0,0,1-1.83.9,2.47,2.47,0,0,1-1.75-.73,2.27,2.27,0,0,1-.78-1.75c0-.78.49-1.27,1.47-1.51a83.79,83.79,0,0,1,10.62-1.71c3.22,0,4.85,1.42,4.85,4.23s-1.75,6.44-5.21,10.75c5.05,1.83,7.57,4.15,7.57,7A2.83,2.83,0,0,1,532.1,71.29Z"/><path class="cls-7" d="M576.52,61.89a51.61,51.61,0,0,1-7.25,6.88,30.3,30.3,0,0,1-8.71,4.44,2.71,2.71,0,0,1-1.63.89,12.94,12.94,0,0,1-2.11.33c-1.55,0-2.32-.61-2.32-1.79,0-1,.36-1.55,1.18-1.75a31.79,31.79,0,0,0,10.3-4,40.82,40.82,0,0,0,8.3-7.37,1.48,1.48,0,0,1,1.18-.61c1.06,0,1.59.61,1.59,1.75A1.81,1.81,0,0,1,576.52,61.89ZM564.14,57a3,3,0,0,1-1.5-.85c-.33-.24-1.26-.81-2.81-1.71A2.72,2.72,0,0,1,558.2,52c0-1.14.65-1.75,2-1.75,1,0,2.65,1.22,5,3.62a1.82,1.82,0,0,1,.78,1.42C566,56.47,565.36,57,564.14,57Z"/></g></g></svg>