<svg xmlns="http://www.w3.org/2000/svg" xmlns:xlink="http://www.w3.org/1999/xlink" viewBox="0 0 1001.43 426.62"><defs><style>.cls-1{fill:#4b4b4b;}.cls-2,.cls-7{fill:none;}.cls-2{stroke:#231815;}.cls-3{fill:url(#名称未設定グラデーション_3);}.cls-4{isolation:isolate;}.cls-5{fill:#707070;}.cls-6{fill:red;}.cls-7{stroke:red;stroke-miterlimit:10;stroke-width:1.5px;}</style><radialGradient id="名称未設定グラデーション_3" cx="457.96" cy="137.17" r="164.91" gradientTransform="translate(64.72 -113.98) rotate(10.07)" gradientUnits="userSpaceOnUse"><stop offset="0" stop-color="#fff"/><stop offset="1" stop-color="#fdefef"/></radialGradient></defs><g id="レイヤー_2" data-name="レイヤー 2"><g id="レイヤー_1-2" data-name="レイヤー 1"><path class="cls-1" d="M560.47,406.79c-1.79-2.1-6-10.5-6-10.5s.7-.9,0-3.91c-.9-3.9-4.8-3.6-5.7-4.5s-8.7-15.15-9.3-16.8-7.21-20.41-7.21-20.41c-2.21-9.75-6.3-13.81-11.7-15s-8.25-.9-10.66-3c-1.49-1.31-1.44-2.28-1.44-6.24a17.18,17.18,0,0,0,2.8-3.66,24,24,0,0,0,2-5.94c1.35-.55,1.36-1.22,2-3.37.81-3,.75-5-1.41-5,.51-9.69-4.35-14.64-12.16-14.64S489,298.75,489.5,308.44c-2.16,0-2.22,2-1.41,5,.58,2.15.6,2.82,2,3.37a23.53,23.53,0,0,0,2,5.94,17.18,17.18,0,0,0,2.8,3.66c0,4,0,4.93-1.45,6.24-2.4,2.1-5.3,1.82-10.65,3s-9.49,5.26-11.71,15c0,0-6.6,18.75-7.2,20.41s-8.41,15.9-9.31,16.8-4.8.6-5.7,4.5c-.69,3,0,3.91,0,3.91s-4.2,8.4-6,10.5,1.5,3.6,3.6.9a3.29,3.29,0,0,0,2,.76c-7.32,8.1-3.14,18.66,8.19,18.15,9.29-.42,45-6.91,45-6.91s35.72,6.49,45,6.91c11.33.51,15.51-10.05,8.18-18.15a3.23,3.23,0,0,0,2-.76C559,410.39,562.27,408.89,560.47,406.79Zm-77.72-13.42s-15.38,4.58-25,8.88c2-3.67,4.25-8.67,4.25-8.67l9.6-13.8,7.66-16.66s2.4,9,3.14,10.36S482.75,393.37,482.75,393.37Zm37.81,0s-.45-18.54.3-19.89S524,363.12,524,363.12l7.65,16.66,9.61,13.8s2.27,5,4.24,8.67C535.94,398,520.56,393.37,520.56,393.37Z"/><path d="M400.31,284.6c0,2.39-.19,4.74-.12,7a51.46,51.46,0,0,0,.5,6,21.1,21.1,0,0,0,1.35,5c0,.24-.4.45-.74.28a3.36,3.36,0,0,1-1-1.63c-.19-.73-.3-1.44-.47-2.14a26.6,26.6,0,0,1-.58-3.82c-.08-1.22-.09-2.46-.13-3.79a19.11,19.11,0,0,1-6.86-2.68,9.71,9.71,0,0,1-2.74-3,1.27,1.27,0,0,1-.12-.85c.19-.24.43-.12.61,0a10.9,10.9,0,0,0,2.84,3,20.41,20.41,0,0,0,6.25,2.49c0-1.73.15-3.82.11-5.54a28.13,28.13,0,0,1,.1-4.21,1.81,1.81,0,0,1,.52-1.07.72.72,0,0,1,.52-.1c.16,0,.35.13.3.35a10,10,0,0,0-.34,2.39Z"/><path d="M422.12,290.58a9.36,9.36,0,0,1-3.81,2.71,8.23,8.23,0,0,1-4.09.55,6.67,6.67,0,0,1-4-2.17,9.84,9.84,0,0,1-2.13-4.27,19.53,19.53,0,0,1-.13-8.1,19,19,0,0,1,2.46-6.34,1,1,0,0,1,1.15,0,12.9,12.9,0,0,1,5.93,1.6,13.1,13.1,0,0,1,5.81,6.49,10,10,0,0,1,.66,5.27A8.67,8.67,0,0,1,422.12,290.58ZM411,274a19.78,19.78,0,0,0-2,5.61,17,17,0,0,0,.08,6.78,9.67,9.67,0,0,0,1.69,4.19,5.54,5.54,0,0,0,3.9,2.22,7.19,7.19,0,0,0,3.77-.76,7.9,7.9,0,0,0,3.29-2.89,8.48,8.48,0,0,0,1.24-4,10,10,0,0,0-1.69-5.68,13.51,13.51,0,0,0-4.59-4.1A10.42,10.42,0,0,0,411,274Z"/><path d="M431.91,287.06a4.46,4.46,0,0,1-3.51-1.45,5.7,5.7,0,0,1-1.34-3.2c-.13-1.17-.06-2.37-.19-3.54a34.38,34.38,0,0,1,.75-7.34,16.78,16.78,0,0,1,2-5.19,8.06,8.06,0,0,1,1.24-1.3,1.86,1.86,0,0,1,1.48-.44.37.37,0,0,1,.15.64,5.13,5.13,0,0,0-1.85,1.57,15,15,0,0,0-2.31,6.3,33.41,33.41,0,0,0-.19,9.37,3.94,3.94,0,0,0,2.28,3.19,3.86,3.86,0,0,0,3.1-.14,11.78,11.78,0,0,0,3.29-2.28c.38-.41.72-.84,1.05-1.26s.64-.95,1-1.42c.13-.11.36.15.32.34a11.92,11.92,0,0,1-3.49,4.7A7.77,7.77,0,0,1,431.91,287.06Zm11.87-5.18c0,.3-.33.43-.51.32a2.25,2.25,0,0,1-1-1.36,29.8,29.8,0,0,1-1.93-7.9c-2.66,2.33-5.2,4.38-7.92,6.4a2.75,2.75,0,0,1-1.14.32.77.77,0,0,1-.66-.42,89.83,89.83,0,0,0,9.8-7.85.69.69,0,0,1,.74.12c.29,1,.31,2.11.5,3.15A38.77,38.77,0,0,0,443.78,281.88Z"/><path d="M457.73,274.43a8.14,8.14,0,0,1,.59,2.72c-.06.15-.05.31-.12.46a1,1,0,0,1-.32.49c-.16.17-.56,0-.55-.2a6.87,6.87,0,0,0-.72-3.19c-.59-1.34-1.43-2.58-2.05-3.87-2.59,1.27-5.08,2.75-7.55,4.23-.25,2.55-.33,5.1-.36,7.73a.75.75,0,0,1-.56.2,1,1,0,0,1-.52-.91c.05-2.14.16-4.28.28-6.4a1.59,1.59,0,0,1-.39.06.59.59,0,0,1-.47-.28.7.7,0,0,1,.23-.7l.45-.24c.11-.1.23-.16.31-.25a108.37,108.37,0,0,1,1.7-14.62c.1-.42.62-.35.85-.24a.75.75,0,0,1,.19.5l0,.41c2.23,2.92,4.37,5.92,6.35,9,.48-.22,1.39-.64,2.15-1,.16,0,.24.41.15.47a9.26,9.26,0,0,1-1.78,1.37C456.17,271.65,457.1,273,457.73,274.43Zm-10.63-.79c2.27-1.3,4.48-2.58,6.86-3.74a77.59,77.59,0,0,0-5.5-8A116.45,116.45,0,0,0,447.1,273.64Z"/><path d="M470.46,277.48a2.1,2.1,0,0,1-1.23-.8,3.63,3.63,0,0,1-.16-1.46,1.58,1.58,0,0,1,.38-.84.45.45,0,0,1,.25-.1.24.24,0,0,1,.22.17c.05.39,0,.9,0,1.32s.18.57.51.62a3.65,3.65,0,0,0,1.79-.24,8.37,8.37,0,0,0,4-2.44.57.57,0,0,0,0-.6,2.52,2.52,0,0,0-1.37-.35c-.93-.1-1.88-.08-2.85-.11a5.43,5.43,0,0,1-2.12-.35,1.83,1.83,0,0,1-.88-1.89,11.45,11.45,0,0,1,2.12-4.6,4.66,4.66,0,0,1,2.15-1.44,2,2,0,0,1,1.18.2,1.75,1.75,0,0,1,.88,1.14.57.57,0,0,1-.36.54c-.18-.14-.3-.29-.45-.4a2,2,0,0,0-.46-.3.94.94,0,0,0-.68-.11,1.39,1.39,0,0,0-.8.44,9.21,9.21,0,0,0-1.89,2.89,8.17,8.17,0,0,0-.54,1.88.55.55,0,0,0,.22.6,1.61,1.61,0,0,0,.92.27l2.39.08a15.17,15.17,0,0,1,2.33.21,2,2,0,0,1,1.24.83,1.37,1.37,0,0,1,.11,1.14,6.59,6.59,0,0,1-2.91,2.63A8.52,8.52,0,0,1,470.46,277.48Z"/><path d="M491.56,271.1c-1.1,2.37-3.1,4.59-6.13,4.79a3.2,3.2,0,0,1-2.85-1.69,31.2,31.2,0,0,1-1.06-8.86c-1,.3-1.88.73-2.87,1.1a1.12,1.12,0,0,1-1.09-.54.42.42,0,0,1,.42-.52,1.24,1.24,0,0,0,.68-.12c.7-.25,2.13-.82,2.83-1.1l.17-5.09a2.62,2.62,0,0,1,.17-.84.58.58,0,0,1,.87-.23,2.26,2.26,0,0,1,.66.58l.18.18a3.93,3.93,0,0,1,.5.58,3.16,3.16,0,0,1,.45.76c-.62,0-.87-.33-1.32-.62a.92.92,0,0,0-.31-.18,2.55,2.55,0,0,0-.12.57v1.21c0,1-.07,2-.12,2.7.75-.12,1.55-.35,2.32-.51a6.07,6.07,0,0,1,2.4,0c.27.18.11.58-.08.69-.65.09-1.49.22-2.33.38a12.65,12.65,0,0,0-2.32.63,34.7,34.7,0,0,0,.83,8.33,2.05,2.05,0,0,0,1.85,1.46,6.14,6.14,0,0,0,5.4-3.62c.2-.37.37-.71.57-1.09s.34-.71.47-1.08c.06-.17.22-.12.29-.09s.18.12.18.21a2.76,2.76,0,0,1-.18,1C491.87,270.48,491.7,270.82,491.56,271.1Z"/><path d="M503.74,274.25a2.78,2.78,0,0,1-1.62-1.35,16.26,16.26,0,0,1-.75-5.9,19.8,19.8,0,0,1-2.33,5.4,9.31,9.31,0,0,1-2.38,2.43,2.21,2.21,0,0,1-2.39-.13,3.54,3.54,0,0,1-.86-2.53c0-1.31.12-2.59.2-3.86a35.52,35.52,0,0,0,.07-5.56c.52-.37.95.15,1.09.47a30.71,30.71,0,0,1-.08,5.17,32.49,32.49,0,0,0-.12,4.41,1.33,1.33,0,0,0,.9,1.16,2,2,0,0,0,1.56-.64,8.12,8.12,0,0,0,.8-.93c.22-.33.45-.7.67-1a13.63,13.63,0,0,0,1.52-3.17c.53-1.41.89-2.92,1.33-4.4a.25.25,0,0,0,.06-.13c.1-.17.19-.36.42-.37a.49.49,0,0,1,.56.39c0,1.43-.11,3.13-.05,4.67a12.55,12.55,0,0,0,.52,3.78,3.37,3.37,0,0,0,1.2,1.62c.14.09,0,.26,0,.32A.5.5,0,0,1,503.74,274.25Z"/><path d="M513.1,270.44c-.16-1.18-.08-2.42-.17-3.67a28.24,28.24,0,0,1-3.65,7.07,3,3,0,0,1-2.56,1.45,2.36,2.36,0,0,1-1.73-1.24,8.7,8.7,0,0,1-.17-4.29,12.82,12.82,0,0,1,2.1-4.9,3.71,3.71,0,0,1,3.24-2,2.92,2.92,0,0,1,2,1.11,2.79,2.79,0,0,1,.45,1.1,6.82,6.82,0,0,0,.46-2.05c.1-1,.14-2.05.31-3.06s.33-2,.49-3a17.87,17.87,0,0,1,.69-2.89c.38-.54.95,0,.9.36-.45,2.76-1.1,5.42-1.3,8.26a37.33,37.33,0,0,0,.18,9,4.88,4.88,0,0,0,.36,1,2.85,2.85,0,0,1,.12.4.71.71,0,0,1-.85-.2A5.06,5.06,0,0,1,513.1,270.44Zm-1.71-5.58a1.61,1.61,0,0,0-1-.82,1.44,1.44,0,0,0-1.28.12,8,8,0,0,0-1.56,1.71,14.73,14.73,0,0,0-1.77,4.64c0,.43-.06.89-.08,1.34a4.25,4.25,0,0,0,.15,1.28,1.51,1.51,0,0,0,.72,1c.62.21,1.15-.13,1.63-.67a21.55,21.55,0,0,0,3.52-6.25.59.59,0,0,1-.25-.47A4.32,4.32,0,0,0,511.39,264.86Z"/><path d="M522,276.17a2.14,2.14,0,0,1-1.35-.38,2.54,2.54,0,0,1-.67-1.73,36.48,36.48,0,0,1,.67-8c-.53.81-1,1.55-1.61,2.33a16.56,16.56,0,0,1-2.17,2.47,1.5,1.5,0,0,1-.68.27.66.66,0,0,1-.32-.12.22.22,0,0,1,0-.33,21.15,21.15,0,0,0,2.81-3.44c.82-1.21,1.55-2.43,2.47-3.6.18-.24.66-.07.88.08a1.06,1.06,0,0,1,.09.86c-.7,3.25-1.43,7.62-1,9.89a.92.92,0,0,0,.57.6,1.47,1.47,0,0,0,1.08-.37,5.4,5.4,0,0,0,1-1,6.38,6.38,0,0,0,.35-.69,1.85,1.85,0,0,1,.55-.67.63.63,0,0,1,.17.67l-.18.57a4.44,4.44,0,0,1-1.24,1.87A2.88,2.88,0,0,1,522,276.17ZM524.46,257a18.79,18.79,0,0,0-4-1.58c-.32-.06-.3-.71,0-.95a7.64,7.64,0,0,1,4.94,2.45.92.92,0,0,1,.29.88,4.49,4.49,0,0,1-.72-.39Z"/><path d="M528.64,277a3.41,3.41,0,0,1-2.1-2.33,7.9,7.9,0,0,1,.55-4.87,10.08,10.08,0,0,1,3.23-3.92,5.79,5.79,0,0,1,2.77-1.24.61.61,0,0,1,.58.37,2.83,2.83,0,0,1,1.07.64,4.29,4.29,0,0,1,1.08,1.79,7.75,7.75,0,0,1-.08,4.74,8.58,8.58,0,0,1-2.59,3.84A4.7,4.7,0,0,1,528.64,277Zm4.17-11.25a3.24,3.24,0,0,1-.53.26l-.49.23a7.68,7.68,0,0,0-3.53,3.72,8,8,0,0,0-.73,4.19,2.28,2.28,0,0,0,1.48,1.75,3.22,3.22,0,0,0,3-.37,6.45,6.45,0,0,0,2.6-3.35,9,9,0,0,0,.52-3.42,4,4,0,0,0-1.39-2.72A.7.7,0,0,0,532.81,265.7Z"/><path d="M560.62,273.16a58.91,58.91,0,0,0-3.13,9,.52.52,0,0,1-.5.27.61.61,0,0,1-.55-.64,56.52,56.52,0,0,0-.17-8.55,33.86,33.86,0,0,0-2.47-10.52,2.37,2.37,0,0,1-.26-.67c-3.13,4-5.41,11.64-6.18,16.47,0,.29-.44.29-.57.12a1.2,1.2,0,0,1-.3-.82l0-.93a53.18,53.18,0,0,1,3.43-11,21.3,21.3,0,0,1,4.17-6.15c.61.12.53.94.32,1.23l-.4.4a1.74,1.74,0,0,1,.56.58c1.24,2,2.51,7.83,2.77,10.9.15,1.66.3,3.32.31,5a57.22,57.22,0,0,1,4-9.41,18,18,0,0,1,3.81-4.87,3.72,3.72,0,0,1,2.08-1,.43.43,0,0,1,0,.63,10.09,10.09,0,0,0-2.75,2.57A28.72,28.72,0,0,0,560.62,273.16Z"/><path d="M574.1,287.27a9.33,9.33,0,0,1-4.59-.87,8.29,8.29,0,0,1-3.23-2.55,6.73,6.73,0,0,1-1.2-4.39,9.63,9.63,0,0,1,1.6-4.49,19.44,19.44,0,0,1,5.74-5.72,19.17,19.17,0,0,1,6.27-2.62,1,1,0,0,1,.81.82,12.78,12.78,0,0,1,3,5.39,13,13,0,0,1-.64,8.68,10,10,0,0,1-3.34,4.13A8.68,8.68,0,0,1,574.1,287.27Zm4.26-19.47a19.85,19.85,0,0,0-5.44,2.44,17.1,17.1,0,0,0-4.83,4.76,9.56,9.56,0,0,0-1.84,4.13,5.57,5.57,0,0,0,1.1,4.35,7.15,7.15,0,0,0,3.17,2.18,7.85,7.85,0,0,0,4.36.37,8.4,8.4,0,0,0,3.72-1.87,10,10,0,0,0,2.92-5.15,13.61,13.61,0,0,0-.22-6.15A10.42,10.42,0,0,0,578.36,267.8Z"/><path d="M588.83,292.69a18.49,18.49,0,0,1-7-.75.84.84,0,0,1-.48-.86,41,41,0,0,1,4.11-9.64,29.08,29.08,0,0,1,6.35-7.64,5.52,5.52,0,0,0-.68.06l-.94.27c-.32,0-.28-.4-.19-.57a2.18,2.18,0,0,1,2-.78h.69a9,9,0,0,1,4.43,2.1,3.62,3.62,0,0,1,.94,2.51,4.57,4.57,0,0,1-1.77,3.32,9.7,9.7,0,0,1-3.53,1.6,8.75,8.75,0,0,1,2.91,1.63,4.14,4.14,0,0,1,1.26,2.75,4.74,4.74,0,0,1-2,3.84A15.79,15.79,0,0,1,588.83,292.69Zm5.37-8.46a8.19,8.19,0,0,0-5.71-1.2c-.76.13-.81-.88-.34-1.08s1.14-.09,1.74-.12a8.77,8.77,0,0,0,1.66-.2,11,11,0,0,0,3.68-1.45,4,4,0,0,0,1.62-2.3,2.43,2.43,0,0,0-.53-2.16,8.94,8.94,0,0,0-3.19-1.73,31.06,31.06,0,0,0-6.78,8.19,40.17,40.17,0,0,0-3.84,8.9,18.67,18.67,0,0,0,6,.54,12.39,12.39,0,0,0,6.25-2.51,3.17,3.17,0,0,0,1-2.56A3.64,3.64,0,0,0,594.2,284.23Z"/><path d="M609.27,294c.43-.66.91-1.28,1.33-1.94a55.74,55.74,0,0,1-4.87,3.7,37.46,37.46,0,0,1-5.7,3.06,6.39,6.39,0,0,1-2.41.47,3.11,3.11,0,0,1-2-.77,3.35,3.35,0,0,1-.46-3c.28-1,.8-2,1.11-2.94a40.94,40.94,0,0,1,3.94-6.28,29,29,0,0,1,6-5.95,1.53,1.53,0,0,1,.94-.25.46.46,0,0,1,.29.57,5,5,0,0,1-.88.76,9.44,9.44,0,0,0-.88.71,37.78,37.78,0,0,0-4.72,5.09,37.33,37.33,0,0,0-3.36,5.33,16.4,16.4,0,0,0-1.4,3.62,2,2,0,0,0,.25,1.55,2.11,2.11,0,0,0,1.83.53,7.69,7.69,0,0,0,1.2-.28l1.09-.43a29.11,29.11,0,0,0,5.47-3,71.17,71.17,0,0,0,7.12-5.68.63.63,0,0,1,.63.05.66.66,0,0,1,.14.68,51.94,51.94,0,0,0-4.36,6.17,28.32,28.32,0,0,0-2.7,5.88c-.11.28-.41.09-.41,0-.24-1.86.66-3.38,1.4-5A18.77,18.77,0,0,1,609.27,294Z"/><path class="cls-2" d="M400.31,284.6c0,2.39-.19,4.74-.12,7a51.46,51.46,0,0,0,.5,6,21.1,21.1,0,0,0,1.35,5c0,.24-.4.45-.74.28a3.36,3.36,0,0,1-1-1.63c-.19-.73-.3-1.44-.47-2.14a26.6,26.6,0,0,1-.58-3.82c-.08-1.22-.09-2.46-.13-3.79a19.11,19.11,0,0,1-6.86-2.68,9.71,9.71,0,0,1-2.74-3,1.27,1.27,0,0,1-.12-.85c.19-.24.43-.12.61,0a10.9,10.9,0,0,0,2.84,3,20.41,20.41,0,0,0,6.25,2.49c0-1.73.15-3.82.11-5.54a28.13,28.13,0,0,1,.1-4.21,1.81,1.81,0,0,1,.52-1.07.72.72,0,0,1,.52-.1c.16,0,.35.13.3.35a10,10,0,0,0-.34,2.39Z"/><path class="cls-2" d="M422.12,290.58a9.36,9.36,0,0,1-3.81,2.71,8.23,8.23,0,0,1-4.09.55,6.67,6.67,0,0,1-4-2.17,9.84,9.84,0,0,1-2.13-4.27,19.53,19.53,0,0,1-.13-8.1,19,19,0,0,1,2.46-6.34,1,1,0,0,1,1.15,0,12.9,12.9,0,0,1,5.93,1.6,13.1,13.1,0,0,1,5.81,6.49,10,10,0,0,1,.66,5.27A8.67,8.67,0,0,1,422.12,290.58ZM411,274a19.78,19.78,0,0,0-2,5.61,17,17,0,0,0,.08,6.78,9.67,9.67,0,0,0,1.69,4.19,5.54,5.54,0,0,0,3.9,2.22,7.19,7.19,0,0,0,3.77-.76,7.9,7.9,0,0,0,3.29-2.89,8.48,8.48,0,0,0,1.24-4,10,10,0,0,0-1.69-5.68,13.51,13.51,0,0,0-4.59-4.1A10.42,10.42,0,0,0,411,274Z"/><path class="cls-2" d="M431.91,287.06a4.46,4.46,0,0,1-3.51-1.45,5.7,5.7,0,0,1-1.34-3.2c-.13-1.17-.06-2.37-.19-3.54a34.38,34.38,0,0,1,.75-7.34,16.78,16.78,0,0,1,2-5.19,8.06,8.06,0,0,1,1.24-1.3,1.86,1.86,0,0,1,1.48-.44.37.37,0,0,1,.15.64,5.13,5.13,0,0,0-1.85,1.57,15,15,0,0,0-2.31,6.3,33.41,33.41,0,0,0-.19,9.37,3.94,3.94,0,0,0,2.28,3.19,3.86,3.86,0,0,0,3.1-.14,11.78,11.78,0,0,0,3.29-2.28c.38-.41.72-.84,1.05-1.26s.64-.95,1-1.42c.13-.11.36.15.32.34a11.92,11.92,0,0,1-3.49,4.7A7.77,7.77,0,0,1,431.91,287.06Zm11.87-5.18c0,.3-.33.43-.51.32a2.25,2.25,0,0,1-1-1.36,29.8,29.8,0,0,1-1.93-7.9c-2.66,2.33-5.2,4.38-7.92,6.4a2.75,2.75,0,0,1-1.14.32.77.77,0,0,1-.66-.42,89.83,89.83,0,0,0,9.8-7.85.69.69,0,0,1,.74.12c.29,1,.31,2.11.5,3.15A38.77,38.77,0,0,0,443.78,281.88Z"/><path class="cls-2" d="M457.73,274.43a8.14,8.14,0,0,1,.59,2.72c-.06.15-.05.31-.12.46a1,1,0,0,1-.32.49c-.16.17-.56,0-.55-.2a6.87,6.87,0,0,0-.72-3.19c-.59-1.34-1.43-2.58-2.05-3.87-2.59,1.27-5.08,2.75-7.55,4.23-.25,2.55-.33,5.1-.36,7.73a.75.75,0,0,1-.56.2,1,1,0,0,1-.52-.91c.05-2.14.16-4.28.28-6.4a1.59,1.59,0,0,1-.39.06.59.59,0,0,1-.47-.28.7.7,0,0,1,.23-.7l.45-.24c.11-.1.23-.16.31-.25a108.37,108.37,0,0,1,1.7-14.62c.1-.42.62-.35.85-.24a.75.75,0,0,1,.19.5l0,.41c2.23,2.92,4.37,5.92,6.35,9,.48-.22,1.39-.64,2.15-1,.16,0,.24.41.15.47a9.26,9.26,0,0,1-1.78,1.37C456.17,271.65,457.1,273,457.73,274.43Zm-10.63-.79c2.27-1.3,4.48-2.58,6.86-3.74a77.59,77.59,0,0,0-5.5-8A116.45,116.45,0,0,0,447.1,273.64Z"/><path class="cls-2" d="M470.46,277.48a2.1,2.1,0,0,1-1.23-.8,3.63,3.63,0,0,1-.16-1.46,1.58,1.58,0,0,1,.38-.84.45.45,0,0,1,.25-.1.24.24,0,0,1,.22.17c.05.39,0,.9,0,1.32s.18.57.51.62a3.65,3.65,0,0,0,1.79-.24,8.37,8.37,0,0,0,4-2.44.57.57,0,0,0,0-.6,2.52,2.52,0,0,0-1.37-.35c-.93-.1-1.88-.08-2.85-.11a5.43,5.43,0,0,1-2.12-.35,1.83,1.83,0,0,1-.88-1.89,11.45,11.45,0,0,1,2.12-4.6,4.66,4.66,0,0,1,2.15-1.44,2,2,0,0,1,1.18.2,1.75,1.75,0,0,1,.88,1.14.57.57,0,0,1-.36.54c-.18-.14-.3-.29-.45-.4a2,2,0,0,0-.46-.3.94.94,0,0,0-.68-.11,1.39,1.39,0,0,0-.8.44,9.21,9.21,0,0,0-1.89,2.89,8.17,8.17,0,0,0-.54,1.88.55.55,0,0,0,.22.6,1.61,1.61,0,0,0,.92.27l2.39.08a15.17,15.17,0,0,1,2.33.21,2,2,0,0,1,1.24.83,1.37,1.37,0,0,1,.11,1.14,6.59,6.59,0,0,1-2.91,2.63A8.52,8.52,0,0,1,470.46,277.48Z"/><path class="cls-2" d="M491.56,271.1c-1.1,2.37-3.1,4.59-6.13,4.79a3.2,3.2,0,0,1-2.85-1.69,31.2,31.2,0,0,1-1.06-8.86c-1,.3-1.88.73-2.87,1.1a1.12,1.12,0,0,1-1.09-.54.42.42,0,0,1,.42-.52,1.24,1.24,0,0,0,.68-.12c.7-.25,2.13-.82,2.83-1.1l.17-5.09a2.62,2.62,0,0,1,.17-.84.58.58,0,0,1,.87-.23,2.26,2.26,0,0,1,.66.58l.18.18a3.93,3.93,0,0,1,.5.58,3.16,3.16,0,0,1,.45.76c-.62,0-.87-.33-1.32-.62a.92.92,0,0,0-.31-.18,2.55,2.55,0,0,0-.12.57v1.21c0,1-.07,2-.12,2.7.75-.12,1.55-.35,2.32-.51a6.07,6.07,0,0,1,2.4,0c.27.18.11.58-.08.69-.65.09-1.49.22-2.33.38a12.65,12.65,0,0,0-2.32.63,34.7,34.7,0,0,0,.83,8.33,2.05,2.05,0,0,0,1.85,1.46,6.14,6.14,0,0,0,5.4-3.62c.2-.37.37-.71.57-1.09s.34-.71.47-1.08c.06-.17.22-.12.29-.09s.18.12.18.21a2.76,2.76,0,0,1-.18,1C491.87,270.48,491.7,270.82,491.56,271.1Z"/><path class="cls-2" d="M503.74,274.25a2.78,2.78,0,0,1-1.62-1.35,16.26,16.26,0,0,1-.75-5.9,19.8,19.8,0,0,1-2.33,5.4,9.31,9.31,0,0,1-2.38,2.43,2.21,2.21,0,0,1-2.39-.13,3.54,3.54,0,0,1-.86-2.53c0-1.31.12-2.59.2-3.86a35.52,35.52,0,0,0,.07-5.56c.52-.37.95.15,1.09.47a30.71,30.71,0,0,1-.08,5.17,32.49,32.49,0,0,0-.12,4.41,1.33,1.33,0,0,0,.9,1.16,2,2,0,0,0,1.56-.64,8.12,8.12,0,0,0,.8-.93c.22-.33.45-.7.67-1a13.63,13.63,0,0,0,1.52-3.17c.53-1.41.89-2.92,1.33-4.4a.25.25,0,0,0,.06-.13c.1-.17.19-.36.42-.37a.49.49,0,0,1,.56.39c0,1.43-.11,3.13-.05,4.67a12.55,12.55,0,0,0,.52,3.78,3.37,3.37,0,0,0,1.2,1.62c.14.09,0,.26,0,.32A.5.5,0,0,1,503.74,274.25Z"/><path class="cls-2" d="M513.1,270.44c-.16-1.18-.08-2.42-.17-3.67a28.24,28.24,0,0,1-3.65,7.07,3,3,0,0,1-2.56,1.45,2.36,2.36,0,0,1-1.73-1.24,8.7,8.7,0,0,1-.17-4.29,12.82,12.82,0,0,1,2.1-4.9,3.71,3.71,0,0,1,3.24-2,2.92,2.92,0,0,1,2,1.11,2.79,2.79,0,0,1,.45,1.1,6.82,6.82,0,0,0,.46-2.05c.1-1,.14-2.05.31-3.06s.33-2,.49-3a17.87,17.87,0,0,1,.69-2.89c.38-.54.95,0,.9.36-.45,2.76-1.1,5.42-1.3,8.26a37.33,37.33,0,0,0,.18,9,4.88,4.88,0,0,0,.36,1,2.85,2.85,0,0,1,.12.4.71.71,0,0,1-.85-.2A5.06,5.06,0,0,1,513.1,270.44Zm-1.71-5.58a1.61,1.61,0,0,0-1-.82,1.44,1.44,0,0,0-1.28.12,8,8,0,0,0-1.56,1.71,14.73,14.73,0,0,0-1.77,4.64c0,.43-.06.89-.08,1.34a4.25,4.25,0,0,0,.15,1.28,1.51,1.51,0,0,0,.72,1c.62.21,1.15-.13,1.63-.67a21.55,21.55,0,0,0,3.52-6.25.59.59,0,0,1-.25-.47A4.32,4.32,0,0,0,511.39,264.86Z"/><path class="cls-2" d="M522,276.17a2.14,2.14,0,0,1-1.35-.38,2.54,2.54,0,0,1-.67-1.73,36.48,36.48,0,0,1,.67-8c-.53.81-1,1.55-1.61,2.33a16.56,16.56,0,0,1-2.17,2.47,1.5,1.5,0,0,1-.68.27.66.66,0,0,1-.32-.12.22.22,0,0,1,0-.33,21.15,21.15,0,0,0,2.81-3.44c.82-1.21,1.55-2.43,2.47-3.6.18-.24.66-.07.88.08a1.06,1.06,0,0,1,.09.86c-.7,3.25-1.43,7.62-1,9.89a.92.92,0,0,0,.57.6,1.47,1.47,0,0,0,1.08-.37,5.4,5.4,0,0,0,1-1,6.38,6.38,0,0,0,.35-.69,1.85,1.85,0,0,1,.55-.67.63.63,0,0,1,.17.67l-.18.57a4.44,4.44,0,0,1-1.24,1.87A2.88,2.88,0,0,1,522,276.17ZM524.46,257a18.79,18.79,0,0,0-4-1.58c-.32-.06-.3-.71,0-.95a7.64,7.64,0,0,1,4.94,2.45.92.92,0,0,1,.29.88,4.49,4.49,0,0,1-.72-.39Z"/><path class="cls-2" d="M528.64,277a3.41,3.41,0,0,1-2.1-2.33,7.9,7.9,0,0,1,.55-4.87,10.08,10.08,0,0,1,3.23-3.92,5.79,5.79,0,0,1,2.77-1.24.61.61,0,0,1,.58.37,2.83,2.83,0,0,1,1.07.64,4.29,4.29,0,0,1,1.08,1.79,7.75,7.75,0,0,1-.08,4.74,8.58,8.58,0,0,1-2.59,3.84A4.7,4.7,0,0,1,528.64,277Zm4.17-11.25a3.24,3.24,0,0,1-.53.26l-.49.23a7.68,7.68,0,0,0-3.53,3.72,8,8,0,0,0-.73,4.19,2.28,2.28,0,0,0,1.48,1.75,3.22,3.22,0,0,0,3-.37,6.45,6.45,0,0,0,2.6-3.35,9,9,0,0,0,.52-3.42,4,4,0,0,0-1.39-2.72A.7.7,0,0,0,532.81,265.7Z"/><path class="cls-2" d="M560.62,273.16a58.91,58.91,0,0,0-3.13,9,.52.52,0,0,1-.5.27.61.61,0,0,1-.55-.64,56.52,56.52,0,0,0-.17-8.55,33.86,33.86,0,0,0-2.47-10.52,2.37,2.37,0,0,1-.26-.67c-3.13,4-5.41,11.64-6.18,16.47,0,.29-.44.29-.57.12a1.2,1.2,0,0,1-.3-.82l0-.93a53.18,53.18,0,0,1,3.43-11,21.3,21.3,0,0,1,4.17-6.15c.61.12.53.94.32,1.23l-.4.4a1.74,1.74,0,0,1,.56.58c1.24,2,2.51,7.83,2.77,10.9.15,1.66.3,3.32.31,5a57.22,57.22,0,0,1,4-9.41,18,18,0,0,1,3.81-4.87,3.72,3.72,0,0,1,2.08-1,.43.43,0,0,1,0,.63,10.09,10.09,0,0,0-2.75,2.57A28.72,28.72,0,0,0,560.62,273.16Z"/><path class="cls-2" d="M574.1,287.27a9.33,9.33,0,0,1-4.59-.87,8.29,8.29,0,0,1-3.23-2.55,6.73,6.73,0,0,1-1.2-4.39,9.63,9.63,0,0,1,1.6-4.49,19.44,19.44,0,0,1,5.74-5.72,19.17,19.17,0,0,1,6.27-2.62,1,1,0,0,1,.81.82,12.78,12.78,0,0,1,3,5.39,13,13,0,0,1-.64,8.68,10,10,0,0,1-3.34,4.13A8.68,8.68,0,0,1,574.1,287.27Zm4.26-19.47a19.85,19.85,0,0,0-5.44,2.44,17.1,17.1,0,0,0-4.83,4.76,9.56,9.56,0,0,0-1.84,4.13,5.57,5.57,0,0,0,1.1,4.35,7.15,7.15,0,0,0,3.17,2.18,7.85,7.85,0,0,0,4.36.37,8.4,8.4,0,0,0,3.72-1.87,10,10,0,0,0,2.92-5.15,13.61,13.61,0,0,0-.22-6.15A10.42,10.42,0,0,0,578.36,267.8Z"/><path class="cls-2" d="M588.83,292.69a18.49,18.49,0,0,1-7-.75.84.84,0,0,1-.48-.86,41,41,0,0,1,4.11-9.64,29.08,29.08,0,0,1,6.35-7.64,5.52,5.52,0,0,0-.68.06l-.94.27c-.32,0-.28-.4-.19-.57a2.18,2.18,0,0,1,2-.78h.69a9,9,0,0,1,4.43,2.1,3.62,3.62,0,0,1,.94,2.51,4.57,4.57,0,0,1-1.77,3.32,9.7,9.7,0,0,1-3.53,1.6,8.75,8.75,0,0,1,2.91,1.63,4.14,4.14,0,0,1,1.26,2.75,4.74,4.74,0,0,1-2,3.84A15.79,15.79,0,0,1,588.83,292.69Zm5.37-8.46a8.19,8.19,0,0,0-5.71-1.2c-.76.13-.81-.88-.34-1.08s1.14-.09,1.74-.12a8.77,8.77,0,0,0,1.66-.2,11,11,0,0,0,3.68-1.45,4,4,0,0,0,1.62-2.3,2.43,2.43,0,0,0-.53-2.16,8.94,8.94,0,0,0-3.19-1.73,31.06,31.06,0,0,0-6.78,8.19,40.17,40.17,0,0,0-3.84,8.9,18.67,18.67,0,0,0,6,.54,12.39,12.39,0,0,0,6.25-2.51,3.17,3.17,0,0,0,1-2.56A3.64,3.64,0,0,0,594.2,284.23Z"/><path class="cls-2" d="M609.27,294c.43-.66.91-1.28,1.33-1.94a55.74,55.74,0,0,1-4.87,3.7,37.46,37.46,0,0,1-5.7,3.06,6.39,6.39,0,0,1-2.41.47,3.11,3.11,0,0,1-2-.77,3.35,3.35,0,0,1-.46-3c.28-1,.8-2,1.11-2.94a40.94,40.94,0,0,1,3.94-6.28,29,29,0,0,1,6-5.95,1.53,1.53,0,0,1,.94-.25.46.46,0,0,1,.29.57,5,5,0,0,1-.88.76,9.44,9.44,0,0,0-.88.71,37.78,37.78,0,0,0-4.72,5.09,37.33,37.33,0,0,0-3.36,5.33,16.4,16.4,0,0,0-1.4,3.62,2,2,0,0,0,.25,1.55,2.11,2.11,0,0,0,1.83.53,7.69,7.69,0,0,0,1.2-.28l1.09-.43a29.11,29.11,0,0,0,5.47-3,71.17,71.17,0,0,0,7.12-5.68.63.63,0,0,1,.63.05.66.66,0,0,1,.14.68,51.94,51.94,0,0,0-4.36,6.17,28.32,28.32,0,0,0-2.7,5.88c-.11.28-.41.09-.41,0-.24-1.86.66-3.38,1.4-5A18.77,18.77,0,0,1,609.27,294Z"/><ellipse class="cls-3" cx="491.65" cy="101.13" rx="216.57" ry="86.49" transform="translate(-9.26 133.29) rotate(-15.3)"/><g id="オンラインのヨガレッスンなら_ヨガスタジオ_NOBUへ" data-name="オンラインのヨガレッスンなら ヨガスタジオ NOBUへ" class="cls-4"><g class="cls-4"><path class="cls-5" d="M23.82,139.29l-4.08.86c.25,5.78.37,10.18.37,13.15,0,6.31-1.34,9.44-3.95,9.44a4.22,4.22,0,0,1-2.77-1.38c-1.26-1.18-1.87-2.08-1.87-2.77a1.56,1.56,0,0,1,.57-1.22,1.55,1.55,0,0,1,1.06-.53,2,2,0,0,1,1.59,1,4.48,4.48,0,0,0,1.3,1.34c.45-1.06.69-4.11.69-9.08,0-1.1-.12-4.07-.28-8.87A38.67,38.67,0,0,1,8,153.38c-3.38,3.42-5.46,5.13-6.19,5.21-1.14,0-1.71-.69-1.79-1.91.08-1.31,1-2.53,2.61-3.71a2.37,2.37,0,0,1,1.5-.45c4.15-4,7.09-7.77,8.71-11.31-4.07.49-6.55.73-7.53.73q-2.07,0-2.07-1.71a1.52,1.52,0,0,1,1.62-1.75,92.27,92.27,0,0,0,11.61-1.3,25.59,25.59,0,0,0-.21-2.77,3.38,3.38,0,0,1,.57-2,2,2,0,0,1,1-.89c.9,0,1.43.2,1.67.53a2.22,2.22,0,0,1,.37,1.14l0,1.58v1.8c.93-.17,2.4-.41,4.43-.82a1.83,1.83,0,0,1,2,1.38C26.26,138.23,25.44,139,23.82,139.29Z"/><path class="cls-5" d="M68.8,148a51.18,51.18,0,0,1-7.24,6.89,30.54,30.54,0,0,1-8.71,4.43,2.73,2.73,0,0,1-1.63.9,13.68,13.68,0,0,1-2.12.32c-1.55,0-2.32-.61-2.32-1.79A1.56,1.56,0,0,1,48,157a31.56,31.56,0,0,0,10.3-3.95,40.52,40.52,0,0,0,8.3-7.37,1.53,1.53,0,0,1,1.19-.61c1,0,1.58.61,1.58,1.75A1.79,1.79,0,0,1,68.8,148Zm-12.37-4.84a3,3,0,0,1-1.51-.85c-.32-.25-1.26-.82-2.81-1.71a2.73,2.73,0,0,1-1.63-2.45c0-1.14.66-1.75,2-1.75,1,0,2.64,1.22,5,3.63a1.82,1.82,0,0,1,.77,1.42Q58.26,143.16,56.43,143.16Z"/><path class="cls-5" d="M105.94,154.07a40.45,40.45,0,0,1-6.11,6.43c-2.85,2.41-5.09,3.63-6.72,3.63-1.14,0-1.67-.61-1.67-1.75s.57-1.67,1.75-1.67a7.44,7.44,0,0,0,2.61-1.26c4.6-3.34,7.77-7,9.52-10.92a5.12,5.12,0,0,0,.62-2.07c0-1.51-1.1-2.28-3.26-2.28-.65,0-2.65.24-6,.65a6,6,0,0,1-1.83.94,7.68,7.68,0,0,1-2.85.69c-1.67,0-2.48-.65-2.48-2,0-1,1-1.79,3-2.28a42.68,42.68,0,0,1,10.14-1.42,8.14,8.14,0,0,1,4.44,1.18,4.56,4.56,0,0,1,2.07,4C109.23,148.41,108.13,151.1,105.94,154.07ZM106,136.2a55.94,55.94,0,0,1-9.49.94,19.46,19.46,0,0,1-2.89-.13c-1.18-.24-1.75-.85-1.75-1.83a2.08,2.08,0,0,1,.61-1.42,1.92,1.92,0,0,1,1.34-.65,3.11,3.11,0,0,1,1.88.61c.53,0,.89,0,1.14,0,1,0,4-.29,8.75-.94,1.06,0,1.63.61,1.63,1.75A1.45,1.45,0,0,1,106,136.2Z"/><path class="cls-5" d="M145.55,135.18a47.42,47.42,0,0,1-2.89,3.79,24.72,24.72,0,0,1,1.06,8c0,1.71-.12,4.47-.37,8.22-.32,4.23-.49,6.64-.49,7.29,0,1.18-.57,1.79-1.63,1.79s-1.58-1-1.87-2.85c-.24-1.34-.36-2.08-.36-2.24,0-.41.28-.81.85-1.3.41-5.82.61-9.33.61-10.51A37,37,0,0,0,140,142q-1.22,1.22-6.35,6a3.49,3.49,0,0,1-1.79,1.1c-1.14,0-1.67-.57-1.67-1.71a2.17,2.17,0,0,1,.86-1.5A81.6,81.6,0,0,0,142,134.57a1.85,1.85,0,0,1,.36-1.14c1.23-1.75,2.2-2.64,2.94-2.64a1.88,1.88,0,0,1,1.14.44,1.69,1.69,0,0,1,.44,1.14A6.56,6.56,0,0,1,145.55,135.18Z"/><path class="cls-5" d="M194.61,148a51.18,51.18,0,0,1-7.25,6.89,30.28,30.28,0,0,1-8.71,4.43,2.73,2.73,0,0,1-1.63.9,13.68,13.68,0,0,1-2.12.32c-1.54,0-2.32-.61-2.32-1.79a1.56,1.56,0,0,1,1.18-1.75,31.38,31.38,0,0,0,10.3-3.95,40.27,40.27,0,0,0,8.31-7.37,1.49,1.49,0,0,1,1.18-.61c1.06,0,1.59.61,1.59,1.75A1.84,1.84,0,0,1,194.61,148Zm-12.38-4.84a3,3,0,0,1-1.5-.85c-.33-.25-1.27-.82-2.81-1.71a2.73,2.73,0,0,1-1.63-2.45c0-1.14.65-1.75,2-1.75,1,0,2.65,1.22,5,3.63a1.79,1.79,0,0,1,.77,1.42Q184.06,143.16,182.23,143.16Z"/><path class="cls-5" d="M233.45,154c-2.2,3.38-4.64,5.62-7.29,6.68a2.64,2.64,0,0,1-.93.24c-1.06,0-1.59-.65-1.59-1.91,0-.65.57-1.43,1.71-2.32a2.24,2.24,0,0,1,1.46-.49,22.64,22.64,0,0,0,4.52-5.13,12,12,0,0,0,2.2-6.47c0-2.12-1.55-3.38-4.6-3.83a39.59,39.59,0,0,1-5.9,11.11c-1.71,2.28-3.5,3.38-5.29,3.38a3.94,3.94,0,0,1-3.38-1.95,6.84,6.84,0,0,1-1.27-4c0-2.77,2-5.54,6.07-8.35,3.5-2.4,6.6-3.62,9.2-3.62a9.62,9.62,0,0,1,5.86,1.75,6.66,6.66,0,0,1,2.53,5.54Q236.75,149,233.45,154Zm-13.64-9.36c-2.28,1.79-3.42,3.42-3.42,4.92a3.07,3.07,0,0,0,.49,1.55c.33.53.65.77.94.77,1.14,0,3-2.07,5.45-6.27a31.19,31.19,0,0,0,1.87-4.11A21.53,21.53,0,0,0,219.81,144.63Z"/><path class="cls-5" d="M272.21,154.44a3.73,3.73,0,0,1,.2.81c0,1.14-.53,1.71-1.5,1.71,0,0-.45,0-1.27-.08s-1.34,0-1.58,0c-4.16,0-7,.37-8.47,1a3,3,0,0,1-.9.32,2,2,0,0,1-2.11-1.22,1.9,1.9,0,0,1-.25-.77c0-1.06,1-1.75,3.06-2.08a68.58,68.58,0,0,1,9.48-.73,37.11,37.11,0,0,0,3-4.76c-.49,0-1.14,0-2,0a41.5,41.5,0,0,0-9.57.85,4.44,4.44,0,0,1-.81.12c-1.1,0-1.63-.69-1.63-2.11,0-.66.41-1.06,1.22-1.27a38.26,38.26,0,0,1,9.24-1c.9,0,2.65,0,5.17.12a10.91,10.91,0,0,0,.61-3.14c0-1.54-.85-2.36-2.56-2.36a52.42,52.42,0,0,0-8.1.82c-.53.61-1.55.89-3,.89-1.71,0-2.52-.73-2.52-2.24a1.27,1.27,0,0,1,1.1-1.38,76.26,76.26,0,0,1,11.93-1.59c2.76,0,4.68,1,5.74,2.93a6.86,6.86,0,0,1,.65,2.93C277.3,145.32,275.59,149.43,272.21,154.44Z"/><path class="cls-5" d="M317.81,152.28a29.45,29.45,0,0,1-3.34,5.78c-1.75,2.28-3.3,3.46-4.6,3.46a3.38,3.38,0,0,1-3.26-2.48,10,10,0,0,1-.81-3.63,1.66,1.66,0,0,1,.49-1.22,2,2,0,0,1,1.22-.4,1.43,1.43,0,0,1,1.5,1.34,7.42,7.42,0,0,0,.78,2.85c1.14-.41,2.4-2,3.87-4.85a37.83,37.83,0,0,0,2.89-6.84,15.42,15.42,0,0,0,.85-4c0-.66-.45-1.14-1.34-1.51a7.45,7.45,0,0,0-2.81-.53,30.79,30.79,0,0,0-4.52.37c-1.34,2.93-2.85,6-4.56,9.28-1.34,2.44-3,5.49-4.84,9.16a5.6,5.6,0,0,1,.08.77,3.27,3.27,0,0,1-1,2,3,3,0,0,1-1.95,1.06,1.68,1.68,0,0,1-1.19-.49,1.83,1.83,0,0,1-.48-1.22c0-.49,2.32-5.13,7-14,1.26-2.44,2.24-4.4,3-5.9-.41.08-.94.2-1.59.28a6.62,6.62,0,0,1-3.13,1.18c-1.3,0-2-.57-2-1.79a2,2,0,0,1,1.71-2.15c1.47-.29,3.63-.74,6.52-1.31a51.83,51.83,0,0,0,1.5-5c.41-1.63,1.1-2.49,2.16-2.49s1.71.65,1.71,2a3.93,3.93,0,0,1-.61,2.4c-.16.61-.49,1.5-.89,2.64,1.05-.08,2-.12,2.76-.12,5.09,0,7.66,1.87,7.66,5.58Q320.62,145.56,317.81,152.28Zm5.9-13.35a1.81,1.81,0,0,1-1.3-.61,1.83,1.83,0,0,1-.78-1.14c-.24-.29-.65-.74-1.13-1.39a3.64,3.64,0,0,1-1.19-2.07c0-1,.45-1.51,1.43-1.51.41,0,.85.33,1.3.9.73.89,1.59,2,2.65,3.33a2.28,2.28,0,0,1,.28,1C325,138.44,324.53,138.93,323.71,138.93Zm3.14-4a1.35,1.35,0,0,1-1.06-.57,7.42,7.42,0,0,0-2-1.31,1.69,1.69,0,0,1-1.06-1.71,1.14,1.14,0,0,1,.45-.89,1.62,1.62,0,0,1,1-.37,4.83,4.83,0,0,1,2.52,1.18c1,.78,1.51,1.51,1.51,2.2A1.28,1.28,0,0,1,326.85,134.9Z"/><path class="cls-5" d="M361.13,148.13c-2.45,2.16-4,3.54-4.73,4.11-1.83,1.55-3.5,2.81-5,3.87a8.23,8.23,0,0,1-4.72,1.71c-3.47,0-5.18-3.1-5.18-9.29a53.42,53.42,0,0,1,2-14.2,1.6,1.6,0,0,1,1.59-1.39,2.33,2.33,0,0,1,1.26.57,2.15,2.15,0,0,1,.61,1.59,4.42,4.42,0,0,1-.37,1.43,27.49,27.49,0,0,0-1.38,6.67,52.38,52.38,0,0,0-.41,6.23c0,3.38.61,5,1.83,5s3.14-1.1,6-3.3c1.1-.89,3-2.65,5.9-5.17a2.73,2.73,0,0,1,1.75-.81c1,0,1.51.57,1.51,1.71A1.62,1.62,0,0,1,361.13,148.13Z"/><path class="cls-5" d="M388.9,151.67a.94.94,0,0,1-.9-.45c-.73-1-1.71-2.28-3-3.95a2.06,2.06,0,0,1-.53-1.46c0-.86.49-1.31,1.46-1.31a2.06,2.06,0,0,1,1.59,1.06c1.91,2.69,2.89,4.24,2.89,4.6A1.34,1.34,0,0,1,388.9,151.67Zm10.87.28a45,45,0,0,1-4.69,7.74c-1.34,1.67-2.28,2.52-2.77,2.52-1.09,0-1.62-.49-1.62-1.38a2.44,2.44,0,0,1,1.22-1.87,42.4,42.4,0,0,0,4.84-7.33c1.92-3.58,2.89-6.27,2.89-8.06a1.76,1.76,0,0,1-.08-.57c0-1,.45-1.51,1.43-1.51s1.54.73,1.54,2.16C402.53,145.52,401.6,148.29,399.77,152Zm-4.61-4.19a1.19,1.19,0,0,1-.89.41,1.77,1.77,0,0,1-1.55-.9,11.65,11.65,0,0,1-.89-1.83,2.62,2.62,0,0,1-.7-1.79,1.25,1.25,0,0,1,1.39-1.43,1.71,1.71,0,0,1,1.14.41,12,12,0,0,1,1.3,2.16,6,6,0,0,1,.57,2.08A1.3,1.3,0,0,1,395.16,147.76Z"/><path class="cls-5" d="M443.74,157.41a1.34,1.34,0,0,1-1.19.69c-1.13,0-1.7-.41-1.7-1.26a7.76,7.76,0,0,1,.12-1.22c-.25-.82-1.18-1.63-2.81-2.53a22.4,22.4,0,0,0-3.75-1.5,40.65,40.65,0,0,1-8,7.24,4.55,4.55,0,0,1-2.48.9,1.69,1.69,0,0,1-1.26-.45,1.63,1.63,0,0,1-.49-1.22,1.47,1.47,0,0,1,1.67-1.67c1.34-.57,3.26-2.12,5.74-4.64a63.46,63.46,0,0,0,5.09-5.82,28.63,28.63,0,0,0,2.44-3.87,10.14,10.14,0,0,0,1.47-4.23c0-.45-.66-.69-1.92-.69a20.17,20.17,0,0,0-7.37,1.34,2.75,2.75,0,0,1-1.83.89,2.43,2.43,0,0,1-1.75-.73,2.26,2.26,0,0,1-.77-1.75c0-.77.49-1.26,1.46-1.51a83.83,83.83,0,0,1,10.63-1.71c3.21,0,4.84,1.43,4.84,4.24s-1.75,6.43-5.21,10.75c5.05,1.83,7.57,4.15,7.57,7A2.93,2.93,0,0,1,443.74,157.41Z"/><path class="cls-5" d="M488.15,148a51.18,51.18,0,0,1-7.24,6.89,30.47,30.47,0,0,1-8.72,4.43,2.67,2.67,0,0,1-1.62.9,13.68,13.68,0,0,1-2.12.32c-1.55,0-2.32-.61-2.32-1.79a1.56,1.56,0,0,1,1.18-1.75,31.56,31.56,0,0,0,10.3-3.95,40.52,40.52,0,0,0,8.3-7.37,1.53,1.53,0,0,1,1.19-.61c1,0,1.58.61,1.58,1.75A1.79,1.79,0,0,1,488.15,148Zm-12.37-4.84a3,3,0,0,1-1.51-.85c-.32-.25-1.26-.82-2.81-1.71a2.73,2.73,0,0,1-1.63-2.45c0-1.14.65-1.75,2-1.75,1,0,2.64,1.22,5,3.63a1.82,1.82,0,0,1,.77,1.42Q477.61,143.16,475.78,143.16Z"/><path class="cls-5" d="M529.68,135.63a54.71,54.71,0,0,1-12.41,2.24A98,98,0,0,1,510,152.61a1.45,1.45,0,0,1-1.59,1,1.14,1.14,0,0,1-1.06-.57,1.58,1.58,0,0,1-.45-1.14,2,2,0,0,1,.29-.93A112.51,112.51,0,0,0,513.68,138a23.38,23.38,0,0,1-4.84-.41,1.42,1.42,0,0,1-1.26-1.58c0-1.18.44-1.8,1.42-1.8a41.54,41.54,0,0,0,4.85.25h1c.17-.57.49-1.55.9-3a1.62,1.62,0,0,1,1.67-1.27,1.6,1.6,0,0,1,1.1.53,1.87,1.87,0,0,1,.49,1.27,11.86,11.86,0,0,1-.57,2.23,80.5,80.5,0,0,0,10.58-2.11c1.22,0,1.83.65,1.87,2A1.55,1.55,0,0,1,529.68,135.63Zm-1.59,26.62c-1.05,0-1.58-.61-1.58-1.75,0-2.64-.61-4.39-1.79-5.25a9.27,9.27,0,0,1-2.41,3.83,5.91,5.91,0,0,1-4.07,1.91q-5.37,0-5.37-4c0-1.55,1.06-2.93,3.21-4.23a11,11,0,0,1,5.7-1.79c.17,0,.45,0,.78.08.08-1.18.12-2,.12-2.53a7.71,7.71,0,0,0-.65-2.81,1.87,1.87,0,0,1-.78-1.42,2.29,2.29,0,0,1,.49-1.43,1.62,1.62,0,0,1,1.22-.57c.82,0,1.51.7,2.12,2.08A13,13,0,0,1,526,149a20.36,20.36,0,0,1-.29,2.73c2.69,1.63,4,4.56,4,8.75A1.53,1.53,0,0,1,528.09,162.25Zm-10.25-7.61c-1.47.61-2.16,1.3-2.16,2s.49,1,1.54,1a4.37,4.37,0,0,0,3-1.22,4.52,4.52,0,0,0,1.5-2.52A10.77,10.77,0,0,0,517.84,154.64Zm14.33-9.52a1.66,1.66,0,0,1-1.23.61,1.81,1.81,0,0,1-1.3-.49,1.38,1.38,0,0,1-.57-1.14,2.64,2.64,0,0,1,.08-.65c-.24-.29-.61-.7-1-1.19-1.06-.81-1.55-1.54-1.55-2.11,0-1.22.57-1.87,1.71-1.87.45,0,1.3.65,2.6,1.87a4.84,4.84,0,0,1,1.71,3.34A2.9,2.9,0,0,1,532.17,145.12Z"/><path class="cls-5" d="M569.7,152.32a20.9,20.9,0,0,1-8.79,9.69,8.94,8.94,0,0,1-4.15.9c-2.16,0-3.22-.66-3.22-2a1.77,1.77,0,0,1,1.1-1.87,10.15,10.15,0,0,1,1.18.2,4.31,4.31,0,0,0,1.34.21,7.34,7.34,0,0,0,4.48-2,19,19,0,0,0,4-4.68,11.33,11.33,0,0,0,2-5.9c0-2.49-1.1-3.75-3.3-3.75a9.58,9.58,0,0,0-5.46,1.83c-2.85,1.88-4.6,3.54-5.29,4.93a2.15,2.15,0,0,1-2.16,1.79,1.11,1.11,0,0,1-1-.45,1.37,1.37,0,0,1-.45-1.06,4.24,4.24,0,0,1,.28-1.34c.33-1.22.94-3.54,1.8-7-.09-.33-.17-.73-.33-1.26a2.34,2.34,0,0,1-.41-1.43,3.54,3.54,0,0,1,.61-2,1.9,1.9,0,0,1,1.63-.86c1.26,0,1.91,1.18,1.91,3.5a17.84,17.84,0,0,1-1.14,5c3-3.5,6.32-5.29,9.9-5.29a6.4,6.4,0,0,1,4.88,2.24,7.49,7.49,0,0,1,1.88,5A14.2,14.2,0,0,1,569.7,152.32Zm-12.94-17.1a3,3,0,0,1-1.35-.49l-2.15-1.26a2.22,2.22,0,0,1-1.55-.45,2.88,2.88,0,0,1-1.18-1.91q0-2,1.59-2c.48,0,2,.73,4.39,2.19,1.22.49,1.88,1.1,1.88,1.8C558.39,134.53,557.82,135.22,556.76,135.22Z"/><path class="cls-5" d="M621.61,154.44a3.37,3.37,0,0,1,.21.81c0,1.14-.53,1.71-1.51,1.71,0,0-.45,0-1.26-.08s-1.34,0-1.59,0c-4.15,0-7,.37-8.47,1a3,3,0,0,1-.89.32,2.27,2.27,0,0,1-2.36-2c0-1.06,1-1.75,3-2.08a68.69,68.69,0,0,1,9.48-.73,37.2,37.2,0,0,0,3-4.76c-.49,0-1.14,0-2,0a41.41,41.41,0,0,0-9.56.85,4.52,4.52,0,0,1-.82.12c-1.1,0-1.63-.69-1.63-2.11,0-.66.41-1.06,1.22-1.27a38.29,38.29,0,0,1,9.25-1c.89,0,2.64,0,5.17.12a11.26,11.26,0,0,0,.61-3.14c0-1.54-.86-2.36-2.57-2.36a52.53,52.53,0,0,0-8.1.82,3.92,3.92,0,0,1-3,.89c-1.71,0-2.53-.73-2.53-2.24a1.27,1.27,0,0,1,1.1-1.38,76.26,76.26,0,0,1,11.93-1.59q4.16,0,5.74,2.93a6.72,6.72,0,0,1,.65,2.93C626.7,145.32,625,149.43,621.61,154.44Z"/><path class="cls-5" d="M667.21,152.28a28.48,28.48,0,0,1-3.34,5.78c-1.75,2.28-3.29,3.46-4.6,3.46A3.37,3.37,0,0,1,656,159a10.06,10.06,0,0,1-.82-3.63,1.66,1.66,0,0,1,.49-1.22,2,2,0,0,1,1.22-.4,1.43,1.43,0,0,1,1.51,1.34,7.5,7.5,0,0,0,.77,2.85c1.14-.41,2.4-2,3.87-4.85a37.13,37.13,0,0,0,2.89-6.84,15.56,15.56,0,0,0,.86-4c0-.66-.45-1.14-1.35-1.51a7.41,7.41,0,0,0-2.81-.53,30.79,30.79,0,0,0-4.52.37c-1.34,2.93-2.85,6-4.56,9.28-1.34,2.44-3,5.49-4.84,9.16a5.6,5.6,0,0,1,.08.77,3.27,3.27,0,0,1-1,2,3,3,0,0,1-1.95,1.06,1.64,1.64,0,0,1-1.18-.49,1.79,1.79,0,0,1-.49-1.22c0-.49,2.32-5.13,7-14,1.27-2.44,2.24-4.4,3-5.9-.41.08-.94.2-1.59.28a6.68,6.68,0,0,1-3.14,1.18c-1.3,0-2-.57-2-1.79a2,2,0,0,1,1.71-2.15c1.46-.29,3.62-.74,6.51-1.31.61-1.71,1.1-3.38,1.51-5s1.1-2.49,2.16-2.49,1.7.65,1.7,2a3.93,3.93,0,0,1-.61,2.4c-.16.61-.48,1.5-.89,2.64,1.06-.08,2-.12,2.77-.12,5.09,0,7.65,1.87,7.65,5.58Q670,145.56,667.21,152.28Zm5.9-13.35a1.82,1.82,0,0,1-1.3-.61,1.78,1.78,0,0,1-.77-1.14c-.25-.29-.65-.74-1.14-1.39a3.61,3.61,0,0,1-1.18-2.07c0-1,.45-1.51,1.42-1.51a1.92,1.92,0,0,1,1.31.9c.73.89,1.58,2,2.64,3.33a2.16,2.16,0,0,1,.29,1C674.38,138.44,673.93,138.93,673.11,138.93Zm3.14-4a1.36,1.36,0,0,1-1.06-.57,7.52,7.52,0,0,0-2-1.31,1.68,1.68,0,0,1-1.06-1.71,1.11,1.11,0,0,1,.45-.89,1.6,1.6,0,0,1,1-.37,4.85,4.85,0,0,1,2.53,1.18c1,.78,1.5,1.51,1.5,2.2A1.28,1.28,0,0,1,676.25,134.9Z"/><path class="cls-5" d="M709.27,157.41a1.33,1.33,0,0,1-1.18.69c-1.14,0-1.71-.41-1.71-1.26a7.76,7.76,0,0,1,.12-1.22c-.24-.82-1.18-1.63-2.81-2.53a22.64,22.64,0,0,0-3.74-1.5,40.94,40.94,0,0,1-8,7.24,4.58,4.58,0,0,1-2.49.9,1.7,1.7,0,0,1-1.26-.45,1.67,1.67,0,0,1-.49-1.22,1.47,1.47,0,0,1,1.67-1.67q2-.85,5.74-4.64a60.55,60.55,0,0,0,5.09-5.82,27.68,27.68,0,0,0,2.44-3.87,10.14,10.14,0,0,0,1.47-4.23c0-.45-.65-.69-1.91-.69a20.13,20.13,0,0,0-7.37,1.34,2.75,2.75,0,0,1-1.84.89,2.43,2.43,0,0,1-1.75-.73,2.29,2.29,0,0,1-.77-1.75c0-.77.49-1.26,1.47-1.51a83.79,83.79,0,0,1,10.62-1.71c3.22,0,4.85,1.43,4.85,4.24s-1.75,6.43-5.21,10.75c5,1.83,7.57,4.15,7.57,7A2.94,2.94,0,0,1,709.27,157.41Z"/><path class="cls-5" d="M745.38,151.67c-2.64,2.85-5.29,5.54-7.9,8.06-1.22,1.14-2,1.75-2.52,1.75a1.48,1.48,0,0,1-1.18-.49,1.6,1.6,0,0,1-.49-1.18c0-.57.73-1.75,2.28-3.5a1.33,1.33,0,0,1,1-.33c2.52-2.44,4.76-4.76,6.64-7a54.94,54.94,0,0,1-5.34-4,1.48,1.48,0,0,1-.69-1.26,1.79,1.79,0,0,1,.53-1.22A1.73,1.73,0,0,1,739,142a2.93,2.93,0,0,1,1.26.65,37.45,37.45,0,0,0,5,3.67c2.24-3.14,3.38-5.66,3.38-7.54,0-1.54-.9-2.36-2.61-2.36a9.79,9.79,0,0,0-5,1.55,5.33,5.33,0,0,1-1.59.73,1.38,1.38,0,0,1-.61-.16,38.3,38.3,0,0,1-3.63,4.93,1.63,1.63,0,0,1-1.22.61c-1.05,0-1.54-.57-1.54-1.79a2,2,0,0,1,.49-1.31,27.78,27.78,0,0,0,5.29-9.12c.32-.89.85-1.38,1.54-1.38,1.1,0,1.76,1.14,1.92,3.38a10.55,10.55,0,0,1,4-.82,6.81,6.81,0,0,1,4.39,1.51,5.2,5.2,0,0,1,1.75,4.15Q751.81,144.76,745.38,151.67Z"/><path class="cls-5" d="M798.15,146.21Q790,157.14,781.58,160.3a14.88,14.88,0,0,1-3.83,1.1c-1.26,0-1.87-.57-1.87-1.71a2.09,2.09,0,0,1,1-1.79,2.61,2.61,0,0,1,1.55-.53h1.22c4.52-1.14,9.86-5.58,16-13.23a2,2,0,0,1,1.43-.94,1.64,1.64,0,0,1,1.18.53,2,2,0,0,1,.44,1.26A2,2,0,0,1,798.15,146.21Zm-11-.77a1.39,1.39,0,0,1-1,.49c-.37,0-1.59-.12-3.71-.41-2.2,0-3.54-.24-4-.81a2.12,2.12,0,0,1-.53-1.63,1.32,1.32,0,0,1,.53-1,1.46,1.46,0,0,1,1.06-.49c.57,0,2.85.33,6.8.94a1.76,1.76,0,0,1,.89,2.89Zm.37-6.47a1.86,1.86,0,0,1-1.06-.57c-.32-.25-1.34-.94-3-2a8,8,0,0,1-2.48-.4,1.75,1.75,0,0,1-1.27-1.76c0-1.13.53-1.75,1.67-1.75,2.61,0,5.05,1.18,7.37,3.51a1.75,1.75,0,0,1,.61,1.3C789.27,138.44,788.66,139,787.48,139Zm11-1.35c-.49,0-1.22-.57-2.2-1.75-1.46-1.71-2.15-2.76-2.15-3.13,0-1.06.49-1.63,1.46-1.63a1.88,1.88,0,0,1,1.22.61c.49.41.74.77.74,1.1l1.67,2a2.67,2.67,0,0,1,.69,1.3C799.94,137.14,799.45,137.62,798.51,137.62Zm4.11-2.28a1.68,1.68,0,0,1-1.3-.73,9.81,9.81,0,0,0-1.83-1.83,1.81,1.81,0,0,1-.69-1.3c0-.94.49-1.43,1.54-1.43.57,0,1.31.53,2.2,1.51a4.1,4.1,0,0,1,1.35,2.44C803.89,134.9,803.44,135.34,802.62,135.34Z"/><path class="cls-5" d="M834.5,139.29l-4.07.86c.25,5.78.37,10.18.37,13.15,0,6.31-1.34,9.44-3.95,9.44a4.22,4.22,0,0,1-2.77-1.38c-1.26-1.18-1.87-2.08-1.87-2.77a1.56,1.56,0,0,1,.57-1.22,1.53,1.53,0,0,1,1.06-.53,2,2,0,0,1,1.59,1,4.48,4.48,0,0,0,1.3,1.34c.45-1.06.69-4.11.69-9.08,0-1.1-.12-4.07-.28-8.87a38.67,38.67,0,0,1-8.47,12.17c-3.38,3.42-5.46,5.13-6.19,5.21-1.14,0-1.71-.69-1.79-1.91.08-1.31,1-2.53,2.6-3.71a2.42,2.42,0,0,1,1.51-.45c4.15-4,7.08-7.77,8.71-11.31-4.07.49-6.55.73-7.53.73-1.38,0-2.08-.57-2.08-1.71a1.52,1.52,0,0,1,1.63-1.75,92.27,92.27,0,0,0,11.61-1.3c0-.74-.09-1.63-.21-2.77a3.38,3.38,0,0,1,.57-2,1.93,1.93,0,0,1,1-.89,2,2,0,0,1,1.67.53,2.22,2.22,0,0,1,.37,1.14l0,1.58v1.8c.94-.17,2.41-.41,4.44-.82a1.83,1.83,0,0,1,2,1.38C837,138.23,836.13,139,834.5,139.29Z"/><path class="cls-5" d="M886.33,133.06a55.45,55.45,0,0,0-2.4,16.86,56.37,56.37,0,0,0,.81,6.59c.09.57.13.86.13.9a1.47,1.47,0,0,1-1.67,1.67,1.64,1.64,0,0,1-1-.45c-.33,0-.73-.37-1.3-.94-.17-.16-1.27-1.42-3.34-3.86-2.44-2.81-4-4.68-4.76-5.66a41.93,41.93,0,0,1-4-6.15,102.61,102.61,0,0,0-1.67,14.62h.36a2.14,2.14,0,0,1,.29,1,26.6,26.6,0,0,1-.86,5.17,1.35,1.35,0,0,1-1.38,1.22,1.63,1.63,0,0,1-1.14-.56,1.49,1.49,0,0,1-.57-1.15v-3.41a121.05,121.05,0,0,1,2.69-22.31.91.91,0,0,1-.17-.57,1.93,1.93,0,0,1,.69-1.27,2.12,2.12,0,0,1,1.27-.69,1.64,1.64,0,0,1,1.22.49,1.68,1.68,0,0,1,.49,1.22,3.32,3.32,0,0,1-.17.69c1.47,4.16,5.22,9.57,11.16,16.25-.16-2-.2-3.54-.2-4.56a57.22,57.22,0,0,1,.77-8.59,37,37,0,0,1,2-8.35,1.71,1.71,0,0,1,1.59-1.26,1.56,1.56,0,0,1,1.1.53,1.66,1.66,0,0,1,.49,1.14A6.49,6.49,0,0,1,886.33,133.06Z"/><path class="cls-5" d="M911.7,155.5a12.8,12.8,0,0,1-9.2,3.66,13.47,13.47,0,0,1-8.84-3.13,10.24,10.24,0,0,1-4.19-8.19,12.73,12.73,0,0,1,3.09-8.22,21.87,21.87,0,0,1,7.33-5.58,2.16,2.16,0,0,1,1.55-1.46,11.09,11.09,0,0,1,2.2-.17,10.85,10.85,0,0,1,8.71,4.07,15,15,0,0,1,3.13,9.65A12.45,12.45,0,0,1,911.7,155.5Zm-6.31-19.42a1.77,1.77,0,0,1-.82.2,14.65,14.65,0,0,0-7.69,3.83c-2.73,2.36-4.07,4.72-4.07,7.16a7.26,7.26,0,0,0,3.21,6.19,10.93,10.93,0,0,0,6.88,2.16,9.05,9.05,0,0,0,9.25-9.2C912.15,140.8,909.87,137.38,905.39,136.08Z"/><path class="cls-5" d="M936.65,156.39a22.86,22.86,0,0,1-6.22,2.69,98.78,98.78,0,0,1-9.86,2.64,1.45,1.45,0,0,1-1.14-.48,1.63,1.63,0,0,1-.44-1.18,1.67,1.67,0,0,1,.77-1.55,7.87,7.87,0,0,1,2.08-.53c0-.65,0-3.26,0-7.82V143c0-.57,0-2,.08-4.2s.08-3.29.08-3.38c-1.06.13-1.63.17-1.71.17-1.3,0-1.91-.53-1.91-1.67a1.51,1.51,0,0,1,.61-1.43,3.75,3.75,0,0,1,1.5-.36c4.07-.33,7.37-.53,9.9-.53a10.2,10.2,0,0,1,4.76,1,4.36,4.36,0,0,1,2.4,4c0,1.62-1,3.25-3,4.88a36.07,36.07,0,0,1-6,3.83,38.91,38.91,0,0,1,7.41,1.1c2.61.89,3.91,2.36,3.91,4.39A6.53,6.53,0,0,1,936.65,156.39Zm-3.7-7.16c-1.22-.21-3.83-.49-7.82-.86V157c7.58-2,11.4-3.91,11.4-5.62C936.53,150.45,935.31,149.71,933,149.23Zm-2.81-14.29c-.65,0-1.42,0-2.4.08-1.3.08-2.08.12-2.36.12-.08,1.87-.12,3.38-.12,4.6v3.75c5.86-2.93,8.83-5.17,8.83-6.72C934.09,135.55,932.75,134.94,930.14,134.94Z"/><path class="cls-5" d="M963.93,140.11c0,.08,0,.93,0,2.48v3.14a17.83,17.83,0,0,1-2.93,9.48c-2.24,3.62-4.88,5.41-7.9,5.41a7.59,7.59,0,0,1-7.08-4.35,18.76,18.76,0,0,1-2-9.08c0-1.1.09-2.77.25-5s.2-3.9.2-5c0-.25,0-.7,0-1.31a8.32,8.32,0,0,1-.08-1.26,1.33,1.33,0,0,1,.53-1,1.53,1.53,0,0,1,1-.4c1.3,0,1.95,1.1,1.95,3.21,0,.9-.12,2.89-.28,6s-.37,5-.37,5.61a11.93,11.93,0,0,0,1.87,7.05,4.57,4.57,0,0,0,3.83,2.36c2.44,0,4.44-1.59,6-4.8a21.24,21.24,0,0,0,2-9.2,53.83,53.83,0,0,0-.86-8.51c-.16-1-.4-2.36-.69-4a1.61,1.61,0,0,1,1.75-1.63,1.46,1.46,0,0,1,1.39,1.06,21.18,21.18,0,0,1,1.54,7.94A17.48,17.48,0,0,1,963.93,140.11Z"/><path class="cls-5" d="M999.68,159c-1.14,0-2.61-1.22-4.44-3.71a39.09,39.09,0,0,1-3.83-6.27c-1.1-2.11-2.52-4.64-4.31-7.61-.94-1.51-2-2.28-3.1-2.28-1.91,0-4.52,2.12-7.85,6.27a2.18,2.18,0,0,1-1.67.94c-1.06,0-1.59-.61-1.59-1.84a1.51,1.51,0,0,1,.41-1.14c4.43-5.21,8-7.85,10.66-7.85,2.12,0,4.15,1.38,6.07,4.07a45.7,45.7,0,0,1,2.44,4.11c.73,1.43,1.51,2.85,2.28,4.27a55.43,55.43,0,0,0,3.7,4.85c2,2.48,3,3.95,3,4.4A1.56,1.56,0,0,1,999.68,159Z"/></g></g><path class="cls-6" d="M222.31,77.2a1.67,1.67,0,0,1,.86-1.55,32.08,32.08,0,0,0,4.07-2.32c-.28-.29-.53-.57-.77-.86q-4.53-4.57-4.52-8.42a23.19,23.19,0,0,1,.36-3.79c.17-1.1.33-2.2.53-3.26-2.68.66-5.41,1.39-8.26,2.24a2.83,2.83,0,0,1-1.14.33,1,1,0,0,1-1-.65,2.34,2.34,0,0,1-.16-1.06c0-.41.37-.86,1-1.26a50.1,50.1,0,0,1,7.08-2.32c1.06-.29,2.12-.53,3.1-.74a57.31,57.31,0,0,0,.77-6c0-.37,0-.77-.08-1.26a6.07,6.07,0,0,1-.21-1.39,2.39,2.39,0,0,1,.57-1.58,2,2,0,0,1,1.1-.41,1.41,1.41,0,0,1,1,.49,6.29,6.29,0,0,1,.65,3.38,48.51,48.51,0,0,1-.45,5.41,4.27,4.27,0,0,0-.08.61c.08,0,.13-.08.17-.08q3.9-.85,7.57-1.47c1.95-.32,3.91-.61,5.9-.85s3.26-.33,4.07-.33a1.53,1.53,0,0,1,1.63,1.47,1.61,1.61,0,0,1-1.42,1.67c-1.23.16-2.41.28-3.55.41-1.54.2-3.09.4-4.72.65.12.48.25,1,.37,1.63a36.39,36.39,0,0,1,.28,3.82A19.83,19.83,0,0,1,234.41,70,28,28,0,0,1,232,73.17a11.86,11.86,0,0,1,1,.77c1.18.81,2.16,1.51,2.89,2.12a1,1,0,0,1,.37.73,1.23,1.23,0,0,1-1.18,1.42h-.37a6.57,6.57,0,0,1-3-1.14c-.73-.52-1.47-1-2.12-1.62A23.92,23.92,0,0,1,226,77.89a3.69,3.69,0,0,1-1.79.61A1.73,1.73,0,0,1,222.31,77.2Zm3.83-20.93c-.2.9-.41,1.83-.57,2.81A28.45,28.45,0,0,0,224.8,64c0,1.71,1.42,3.9,4.27,6.55l.69.69a15.85,15.85,0,0,0,3-4.23,17.32,17.32,0,0,0,1.5-6.07,25.69,25.69,0,0,0-.4-4.84c-.13-.49-.25-.94-.33-1.35C231.31,55.17,228.83,55.66,226.14,56.27Z"/><path class="cls-6" d="M255.17,62.38a15,15,0,0,1-.57,2,3,3,0,0,1-.37.9,1.58,1.58,0,0,1-1.26.57.79.79,0,0,1-.85-.86,3.91,3.91,0,0,1,.16-1c.08-.66.2-1.35.29-2.12,0-.57,0-1.14,0-1.67a20,20,0,0,0-.25-3.54,4.87,4.87,0,0,1-.16-1.06,1.76,1.76,0,0,1,.45-1.34,1.56,1.56,0,0,1,.89-.29,1.66,1.66,0,0,1,.94.29,7.94,7.94,0,0,1,.73,1,30.43,30.43,0,0,1,.25,4.24A19.85,19.85,0,0,1,255.17,62.38ZM261,74.1c-.08,1.06-.16,2.08-.2,3.06-.25,1-.73,1.62-1.55,1.62s-1.34-.57-1.34-1.66V71.58c.08-3.26.12-5.38.12-6.43,0-3.75,0-6.72-.08-9a74.61,74.61,0,0,0-.77-9.61,1.47,1.47,0,0,1,.77-1.34,2.26,2.26,0,0,1,1-.29,1.17,1.17,0,0,1,1,.49,2.58,2.58,0,0,1,.45,1.35c.2,2.44.41,5.45.61,9v.37c.33-.12.57-.2.73-.24a14.09,14.09,0,0,0,2.08-.7l.77-.2a2.1,2.1,0,0,1,.66-.12.9.9,0,0,1,.85.45,2.73,2.73,0,0,1,.08.53,2.36,2.36,0,0,1-.69,1.22,5.43,5.43,0,0,1-1.47.93,8.61,8.61,0,0,1-2.07.9,2.45,2.45,0,0,1-.86.2c0,2,0,4,0,6.19S261,70.36,261,74.1Zm24.14-13.59c-1,1-3.42,2.15-7.32,3.54-.05,1.87-.13,3.74-.29,5.57-.12,1.51-.24,2.77-.37,3.79,1.55-.2,3.06-.37,4.48-.53s2.73-.28,4-.45c1.06-.08,2.08-.12,3-.12,1.15.08,1.8.49,2,1.26a1.43,1.43,0,0,1-1.3,1.51c-.9.12-1.88.24-2.85.41-1.22.08-2.57.24-4,.4-2.73.33-5.5.7-8.31,1.14-2.6.41-5,.82-7.2,1.31-.74.08-1.31.16-1.75.16s-.61-.29-.78-.77a4.87,4.87,0,0,1-.08-1.23c.12-.48.9-.89,2.32-1.22a40.81,40.81,0,0,1,5.25-1.1c.9-.16,1.8-.28,2.69-.4.08-.78.16-1.75.29-3,.2-2.37.32-4.36.36-5.91-1.59.49-3.05,1-4.39,1.39-.57.16-1,.24-1.27.32a13.56,13.56,0,0,1-1.62.12c-.78,0-1.23-.57-1.39-1.67,0-.48.41-1,1.22-1.38.45-.16,1.06-.33,1.79-.53,2-.45,3.83-.93,5.62-1.46-.12-2.24-.32-4.89-.65-7.94a14.48,14.48,0,0,1-3.42.53h-1.67a2.17,2.17,0,0,1-1.42-.49,2.48,2.48,0,0,1-.82-2c0-.61,0-1.34.12-2.24.13-.65.25-1.3.37-1.91a1.21,1.21,0,0,1,1.26-.81h.29a1.43,1.43,0,0,1,1.38,1.54c-.16,1.55-.2,2.45-.2,2.65s.2.28.61.28a11.22,11.22,0,0,0,3.13-.77,3.63,3.63,0,0,1-.08-.69c-.24-1.79-.49-3.5-.73-5.21a8.06,8.06,0,0,1-.28-1.75c0-.45.28-.86.93-1.22a3.55,3.55,0,0,1,1.39-.29c.52,0,.89.61,1.13,1.79.09,1,.17,2.12.33,3.3.08,1,.12,2,.2,3a31.85,31.85,0,0,0,6.11-2.89,1.56,1.56,0,0,1,1.43,1.39,1.47,1.47,0,0,1-.61,1.18,24.77,24.77,0,0,1-5.83,3.38,6.65,6.65,0,0,1-.85.36c.08,1.14.12,2.24.2,3.3.12,1.71.21,3.3.25,4.72a71.93,71.93,0,0,0,6.92-2.36.9.9,0,0,1,.85.45.8.8,0,0,1,.08.36A1.87,1.87,0,0,1,285.13,60.51Z"/><path class="cls-6" d="M302,59.24a2.4,2.4,0,0,0,1.95-.81,2.46,2.46,0,0,0,.78-1.59c0-.53-1.43-1.26-4.28-2.16a1.73,1.73,0,0,1-1.1-1,2.81,2.81,0,0,1-.24-1.23,4.39,4.39,0,0,1,.77-1.54c.9-1.22,2-2.73,3.18-4.48a6.06,6.06,0,0,0,.89-1.67,12,12,0,0,0-3.21-.61c-.69-.16-1-.73-1-1.67A1.47,1.47,0,0,1,301.1,41,14.64,14.64,0,0,1,305.61,42a2.12,2.12,0,0,1,1.23,1.79c0,2-1.67,4.89-4.89,8.63.57.13,1.18.29,1.75.45,2.44.78,3.67,1.79,3.67,3.1a5.45,5.45,0,0,1-.21,1.54,5.12,5.12,0,0,1-1.42,2.85A5.25,5.25,0,0,1,302,61.85a4.54,4.54,0,0,1-3.05-1.1c0,1.87.08,3.91.12,6.15v7.2c0,1.59,0,2.85,0,3.79-.08,1.79-.49,2.73-1.18,2.73s-1.22-.9-1.3-2.69a30.62,30.62,0,0,1-.17-3.5c0-2.53-.16-5.78-.32-9.73-.08-2.77-.17-6-.33-9.69,0-.69-.08-2.12-.08-4.23a1.75,1.75,0,0,1,1.67-1.59c.9,0,1.38.53,1.46,1.5s0,2.08.09,3.46,0,2.85.08,4.08l.12.12A5.08,5.08,0,0,0,302,59.24Zm11-6.39c1-.57,2.28-1.22,3.87-2a24.93,24.93,0,0,1,3.91-1.39,10,10,0,0,0,.69-2.32.29.29,0,0,0-.29-.32,6.94,6.94,0,0,0-1.13-.08c-.9,0-1.67,0-2.32.08l-2.16.2c-1.06,0-1.63-.45-1.71-1.38a1.77,1.77,0,0,1,.61-1.39,3.28,3.28,0,0,1,1.46-.4c1.06,0,2.08-.09,3.06-.09a11.06,11.06,0,0,1,4,.53,2.06,2.06,0,0,1,1.34,2A15.71,15.71,0,0,1,323,51.79c-.57,1.18-1.1,2.28-1.67,3.26a.53.53,0,0,0,.28.12,1.22,1.22,0,0,1,.61.74,2.18,2.18,0,0,1-.65,1.46,10.07,10.07,0,0,1-2.36,1.75,58.27,58.27,0,0,1-5.86,3.1,4.67,4.67,0,0,1-1,.32c0,.45-.08.86-.08,1.26q-.24,5.07-.24,8.55a20,20,0,0,0,.12,2.73,24.29,24.29,0,0,0,4.56-4,.87.87,0,0,1,.73-.41c.37.08.57.37.57.94a4.39,4.39,0,0,1-.73,2.2A17.43,17.43,0,0,1,314,77.16a5.14,5.14,0,0,1-2.89,1.14c-1.14,0-1.75-1.27-1.79-3.79,0-3.34.08-7,.28-11,.25-5.13.41-9.53.45-13.23a16.1,16.1,0,0,0-.12-1.67c0-1,.65-1.47,1.83-1.55.82,0,1.26.53,1.35,1.47C313.06,50,313,51.51,312.94,52.85Zm6.76-.77c-2,1-4.32,2-6.92,3.21-.08,1.51-.12,2.85-.2,4a41.42,41.42,0,0,0,5-2.56C318.32,55.33,319,53.79,319.7,52.08Zm7.65,9.36a3.49,3.49,0,0,1-1,1.59c-2.61,3-4.52,4.8-5.78,5.37l0,0a47.83,47.83,0,0,0,4.51,4.81,45.78,45.78,0,0,0,6.4,5c.61.33.93.66.93,1.06,0,.74-.57,1.1-1.67,1.1-2-.24-4.43-1.75-7.37-4.48a52.4,52.4,0,0,1-8-9.44,3.18,3.18,0,0,1-.93-2.16,1.39,1.39,0,0,1,1.22-1.42,1.94,1.94,0,0,1,1.06.32,6.51,6.51,0,0,1,1,1.18,14,14,0,0,0,1.5,2.32,24.58,24.58,0,0,0,5.09-5.82,1.79,1.79,0,0,1,.65-.85,1.53,1.53,0,0,1,.9-.29h.32C326.91,59.89,327.31,60.46,327.35,61.44Z"/><path class="cls-6" d="M346.94,69.79a2.34,2.34,0,0,1,.53-.08,2.28,2.28,0,0,1,.89.24c.61.41,1.39,1,2.36,1.71a6,6,0,0,0,.82.57,23.4,23.4,0,0,0,.81-5.25c0-1.1,0-2.24,0-3.42,0-1,0-2.08-.08-3.18-1.87.61-3.58,1.14-5.21,1.55a13.12,13.12,0,0,1-1.59.37,10,10,0,0,1-1.46.08c-.73,0-1.18-.53-1.26-1.55,0-.45.36-.85,1.09-1.26a11.32,11.32,0,0,0,1.63-.49c1.1-.24,2.2-.53,3.26-.85.08-.09.16-.21.24-.29A88.12,88.12,0,0,0,360.7,48q-2.44.36-12.34,2.81a4.69,4.69,0,0,1-.89.16,32.35,32.35,0,0,1,.2,3.5,1.88,1.88,0,0,1-.85,1.63,2.67,2.67,0,0,1-1.14.28c-.49,0-.7-.24-.7-.73.09-1,.13-1.79.13-2.52a7,7,0,0,0-.61-2.49,9.53,9.53,0,0,0-1.23-2.56,2.23,2.23,0,0,1-.61-1.18,1.78,1.78,0,0,1,.74-1.39,2.26,2.26,0,0,1,.89-.28,1.8,1.8,0,0,1,1.3.65,11.53,11.53,0,0,1,1.19,2.28,4.86,4.86,0,0,1,.61-.2c2.44-.65,6-1.47,10.74-2.36a28,28,0,0,1,4.73-.7c.32,0,.57,0,.81,0a1.62,1.62,0,0,1,.77,1.43q0,4-11.23,10.54a4.81,4.81,0,0,0,1.06-.32,92.57,92.57,0,0,0,9.52-3.3.86.86,0,0,1,.82.53,1,1,0,0,1,.16.41,1.84,1.84,0,0,1-.61,1.26q-1.77,1.77-9,4c.08,1.22.16,2.56.16,4.11,0,.57-.08,1.1-.08,1.59.45-.12.82-.25,1.1-.33a29.54,29.54,0,0,0,3.34-1.42,7.9,7.9,0,0,1,1.22-.41,4.25,4.25,0,0,1,.65-.08,1,1,0,0,1,.86.41,1.35,1.35,0,0,1,.12.61,2.23,2.23,0,0,1-.73,1.22,8,8,0,0,1-2.4,1.5,16.3,16.3,0,0,1-3.55,1.35,2.68,2.68,0,0,1-.93.28,2.7,2.7,0,0,0-.13.65,29.84,29.84,0,0,1-1,4.6,1.69,1.69,0,0,0,.32.25,39.5,39.5,0,0,0,8.47,3.46,29.66,29.66,0,0,0,3.75.69,21.22,21.22,0,0,0,3.05.24,11.51,11.51,0,0,0,1.46-.16,6.88,6.88,0,0,0,1.35-.45,2.64,2.64,0,0,1,.81-.24c.69,0,1.06.16,1.14.57a1.79,1.79,0,0,1-.28.81,4.24,4.24,0,0,1-.74.66,12,12,0,0,1-6.14,1.46c-4.77,0-10.22-1.75-16.41-5.17a27,27,0,0,1-2.93-2,12.93,12.93,0,0,1-1-1,21.16,21.16,0,0,1-.53,2.12,18,18,0,0,1-1.58,4.35,1.8,1.8,0,0,1-1.63.94,1,1,0,0,1-1-1,2.72,2.72,0,0,1,.16-.9,18.78,18.78,0,0,0,1.87-8.55c0-.48,0-.93,0-1.38s-.08-1-.08-1.3a1.41,1.41,0,0,1-.24-.82,1.69,1.69,0,0,1,.61-1.1,1.61,1.61,0,0,1,1-.32,3,3,0,0,1,.69.08,1.7,1.7,0,0,1,.85.86,12.4,12.4,0,0,1,.29,2.8C347,68.93,346.94,69.38,346.94,69.79ZM349.79,42a1.17,1.17,0,0,1,.45-.77,2.93,2.93,0,0,1,1.87-.86c0,.33.32.49,1,.53s2.24.37,4.35.65a.65.65,0,0,1,.57.7,1.53,1.53,0,0,1-.73,1.34,2.88,2.88,0,0,1-1.38.37,47.41,47.41,0,0,1-5.17-.29C350.11,43.45,349.79,42.88,349.79,42Z"/><path class="cls-6" d="M404.47,67.87c-2.2,3.38-4.64,5.62-7.29,6.68a2.68,2.68,0,0,1-.94.24c-1.06,0-1.58-.65-1.58-1.91,0-.65.56-1.42,1.7-2.32a2.32,2.32,0,0,1,1.47-.49,22.22,22.22,0,0,0,4.52-5.13,12.11,12.11,0,0,0,2.2-6.47c0-2.12-1.55-3.38-4.6-3.83A39.68,39.68,0,0,1,394,65.76c-1.71,2.28-3.5,3.38-5.29,3.38a4,4,0,0,1-3.38-2,6.87,6.87,0,0,1-1.26-4c0-2.77,2-5.54,6.07-8.34,3.5-2.41,6.59-3.63,9.2-3.63a9.64,9.64,0,0,1,5.86,1.75,6.68,6.68,0,0,1,2.52,5.54Q407.76,62.86,404.47,67.87Zm-13.64-9.36c-2.28,1.79-3.42,3.42-3.42,4.93A3.06,3.06,0,0,0,387.9,65c.32.53.65.78.93.78,1.14,0,3-2.08,5.46-6.27a31.81,31.81,0,0,0,1.87-4.11A21.8,21.8,0,0,0,390.83,58.51Z"/><path class="cls-6" d="M446.44,53.18l-4.07.85c.24,5.78.37,10.18.37,13.15,0,6.31-1.35,9.45-3.95,9.45A4.18,4.18,0,0,1,436,75.24c-1.26-1.18-1.87-2.07-1.87-2.77a1.93,1.93,0,0,1,1.63-1.75,2,2,0,0,1,1.58,1A4.52,4.52,0,0,0,438.67,73c.44-1.05.69-4.11.69-9.07,0-1.1-.12-4.08-.29-8.88a38.79,38.79,0,0,1-8.46,12.17c-3.38,3.42-5.46,5.13-6.19,5.21-1.14,0-1.71-.69-1.79-1.91.08-1.3,1-2.52,2.6-3.7a2.36,2.36,0,0,1,1.51-.45c4.15-4,7.08-7.78,8.71-11.32-4.07.49-6.55.73-7.53.73-1.39,0-2.08-.57-2.08-1.71a1.52,1.52,0,0,1,1.63-1.75,92.15,92.15,0,0,0,11.6-1.3c0-.73-.08-1.63-.2-2.77a3.3,3.3,0,0,1,.57-2,1.94,1.94,0,0,1,1-.9c.89,0,1.42.2,1.66.53a2.16,2.16,0,0,1,.37,1.14l0,1.59v1.79c.94-.16,2.4-.41,4.44-.82a1.82,1.82,0,0,1,2,1.39C448.88,52.12,448.07,52.85,446.44,53.18Z"/><path class="cls-6" d="M491.43,61.89a51.61,51.61,0,0,1-7.25,6.88,30.3,30.3,0,0,1-8.71,4.44,2.71,2.71,0,0,1-1.63.89,12.78,12.78,0,0,1-2.11.33c-1.55,0-2.32-.61-2.32-1.79,0-1,.36-1.55,1.18-1.75a31.79,31.79,0,0,0,10.3-4,40.82,40.82,0,0,0,8.3-7.37,1.48,1.48,0,0,1,1.18-.61c1.06,0,1.59.61,1.59,1.75A1.81,1.81,0,0,1,491.43,61.89ZM479.05,57a3,3,0,0,1-1.5-.85c-.33-.24-1.26-.81-2.81-1.71A2.72,2.72,0,0,1,473.11,52c0-1.14.65-1.75,2-1.75,1,0,2.64,1.22,5,3.62a1.82,1.82,0,0,1,.78,1.42C480.89,56.47,480.28,57,479.05,57Z"/><path class="cls-6" d="M528.56,68a40.85,40.85,0,0,1-6.11,6.43c-2.85,2.4-5.08,3.62-6.71,3.62-1.14,0-1.67-.61-1.67-1.75s.57-1.67,1.75-1.67a7.23,7.23,0,0,0,2.6-1.26c4.6-3.34,7.78-7,9.53-10.91a5.15,5.15,0,0,0,.61-2.08c0-1.5-1.1-2.28-3.26-2.28-.65,0-2.64.25-6,.65a6.22,6.22,0,0,1-1.83.94,7.49,7.49,0,0,1-2.85.69c-1.67,0-2.49-.65-2.49-2,0-1,1-1.79,3.06-2.28a42.1,42.1,0,0,1,10.14-1.43,8.1,8.1,0,0,1,4.43,1.18,4.55,4.55,0,0,1,2.08,4C531.86,62.3,530.76,65,528.56,68Zm.08-17.88a55.83,55.83,0,0,1-9.48.94,20,20,0,0,1-2.89-.12c-1.18-.25-1.75-.86-1.75-1.83a2.12,2.12,0,0,1,.61-1.43,1.88,1.88,0,0,1,1.34-.65,3.1,3.1,0,0,1,1.87.61c.53,0,.9,0,1.14,0,1,0,3.95-.28,8.76-.94,1,0,1.62.62,1.62,1.75A1.44,1.44,0,0,1,528.64,50.08Z"/><path class="cls-6" d="M568.18,49.07a45.92,45.92,0,0,1-2.9,3.78,24.49,24.49,0,0,1,1.06,8c0,1.71-.12,4.48-.36,8.22-.33,4.24-.49,6.64-.49,7.29,0,1.18-.57,1.79-1.63,1.79s-1.59-1-1.87-2.85c-.25-1.34-.37-2.07-.37-2.24,0-.4.29-.81.86-1.3.4-5.82.61-9.32.61-10.5a38.58,38.58,0,0,0-.45-5.38q-1.23,1.23-6.35,6A3.65,3.65,0,0,1,554.5,63c-1.14,0-1.67-.57-1.67-1.71a2.15,2.15,0,0,1,.85-1.51,79.9,79.9,0,0,0,11-11.28,1.82,1.82,0,0,1,.37-1.13c1.22-1.76,2.2-2.65,2.93-2.65a1.81,1.81,0,0,1,1.14.45,1.64,1.64,0,0,1,.45,1.14A6.75,6.75,0,0,1,568.18,49.07Z"/><path class="cls-6" d="M617.24,61.89A51.61,51.61,0,0,1,610,68.77a30.43,30.43,0,0,1-8.71,4.44,2.78,2.78,0,0,1-1.63.89,12.86,12.86,0,0,1-2.12.33c-1.55,0-2.32-.61-2.32-1.79,0-1,.37-1.55,1.18-1.75a31.79,31.79,0,0,0,10.3-4A41.1,41.1,0,0,0,615,59.57a1.46,1.46,0,0,1,1.18-.61c1.06,0,1.59.61,1.59,1.75A1.86,1.86,0,0,1,617.24,61.89ZM604.86,57a3,3,0,0,1-1.51-.85c-.32-.24-1.26-.81-2.81-1.71A2.71,2.71,0,0,1,598.92,52c0-1.14.65-1.75,2-1.75,1,0,2.65,1.22,5,3.62a1.81,1.81,0,0,1,.77,1.42Q606.69,57,604.86,57Z"/><path class="cls-6" d="M658,62c-2.44,2.16-4,3.54-4.72,4.11-1.84,1.55-3.5,2.81-5,3.87a8.23,8.23,0,0,1-4.72,1.71c-3.46,0-5.17-3.09-5.17-9.28a53.48,53.48,0,0,1,1.95-14.21,1.6,1.6,0,0,1,1.59-1.38,2.26,2.26,0,0,1,1.26.57,2.11,2.11,0,0,1,.61,1.58,4.36,4.36,0,0,1-.37,1.43A28,28,0,0,0,642,57.09a54.43,54.43,0,0,0-.41,6.22c0,3.38.61,5,1.84,5s3.13-1.1,5.94-3.3c1.1-.89,3-2.64,5.9-5.17a2.78,2.78,0,0,1,1.75-.81c1,0,1.51.57,1.51,1.71A1.59,1.59,0,0,1,658,62Z"/><path class="cls-6" d="M685.72,65.55a1,1,0,0,1-.9-.44c-.73-1-1.71-2.28-3-4a2.1,2.1,0,0,1-.53-1.47c0-.85.49-1.3,1.47-1.3a2,2,0,0,1,1.58,1.06c1.92,2.68,2.89,4.23,2.89,4.6A1.33,1.33,0,0,1,685.72,65.55Zm10.87.29a45.28,45.28,0,0,1-4.69,7.73c-1.34,1.67-2.27,2.53-2.76,2.53-1.1,0-1.63-.49-1.63-1.39a2.46,2.46,0,0,1,1.22-1.87,41.08,41.08,0,0,0,4.84-7.33c1.92-3.58,2.89-6.27,2.89-8.06a1.73,1.73,0,0,1-.08-.57c0-1,.45-1.5,1.43-1.5s1.54.73,1.54,2.15C699.35,59.41,698.42,62.17,696.59,65.84ZM692,61.65a1.24,1.24,0,0,1-.9.4,1.76,1.76,0,0,1-1.55-.89,13.72,13.72,0,0,1-.89-1.84,2.61,2.61,0,0,1-.69-1.79,1.24,1.24,0,0,1,1.38-1.42,1.67,1.67,0,0,1,1.14.41,11.68,11.68,0,0,1,1.3,2.15,6.11,6.11,0,0,1,.57,2.08A1.36,1.36,0,0,1,692,61.65Z"/><path class="cls-6" d="M740.56,71.29a1.35,1.35,0,0,1-1.18.7c-1.14,0-1.71-.41-1.71-1.27a7.87,7.87,0,0,1,.12-1.22c-.25-.81-1.18-1.63-2.81-2.52a23.31,23.31,0,0,0-3.75-1.51,40.15,40.15,0,0,1-8,7.25,4.61,4.61,0,0,1-2.48.89,1.74,1.74,0,0,1-1.26-.44,1.67,1.67,0,0,1-.49-1.23,1.47,1.47,0,0,1,1.67-1.66c1.34-.57,3.26-2.12,5.74-4.65a58.23,58.23,0,0,0,5.09-5.82A29.14,29.14,0,0,0,734,56a10.18,10.18,0,0,0,1.47-4.24c0-.45-.65-.69-1.92-.69a20.32,20.32,0,0,0-7.36,1.34,2.8,2.8,0,0,1-1.84.9,2.47,2.47,0,0,1-1.75-.73,2.26,2.26,0,0,1-.77-1.75c0-.78.49-1.27,1.46-1.51a84.11,84.11,0,0,1,10.63-1.71c3.22,0,4.85,1.42,4.85,4.23s-1.76,6.44-5.22,10.75c5,1.83,7.58,4.15,7.58,7A2.89,2.89,0,0,1,740.56,71.29Z"/><path class="cls-6" d="M785,61.89a51.61,51.61,0,0,1-7.25,6.88A30.43,30.43,0,0,1,769,73.21a2.78,2.78,0,0,1-1.63.89,12.86,12.86,0,0,1-2.12.33c-1.54,0-2.32-.61-2.32-1.79,0-1,.37-1.55,1.18-1.75a31.79,31.79,0,0,0,10.3-4,41.1,41.1,0,0,0,8.31-7.37,1.46,1.46,0,0,1,1.18-.61c1.06,0,1.59.61,1.59,1.75A1.86,1.86,0,0,1,785,61.89ZM772.6,57a3,3,0,0,1-1.51-.85c-.32-.24-1.26-.81-2.81-1.71A2.72,2.72,0,0,1,766.66,52c0-1.14.65-1.75,2-1.75,1,0,2.65,1.22,5,3.62a1.81,1.81,0,0,1,.77,1.42Q774.43,57,772.6,57Z"/><path class="cls-6" d="M222.31,77.2a1.67,1.67,0,0,1,.86-1.55,32.08,32.08,0,0,0,4.07-2.32c-.28-.29-.53-.57-.77-.86q-4.53-4.57-4.52-8.42a23.19,23.19,0,0,1,.36-3.79c.17-1.1.33-2.2.53-3.26-2.68.66-5.41,1.39-8.26,2.24a2.83,2.83,0,0,1-1.14.33,1,1,0,0,1-1-.65,2.34,2.34,0,0,1-.16-1.06c0-.41.37-.86,1-1.26a50.1,50.1,0,0,1,7.08-2.32c1.06-.29,2.12-.53,3.1-.74a57.31,57.31,0,0,0,.77-6c0-.37,0-.77-.08-1.26a6.07,6.07,0,0,1-.21-1.39,2.39,2.39,0,0,1,.57-1.58,2,2,0,0,1,1.1-.41,1.41,1.41,0,0,1,1,.49,6.29,6.29,0,0,1,.65,3.38,48.51,48.51,0,0,1-.45,5.41,4.27,4.27,0,0,0-.08.61c.08,0,.13-.08.17-.08q3.9-.85,7.57-1.47c1.95-.32,3.91-.61,5.9-.85s3.26-.33,4.07-.33a1.53,1.53,0,0,1,1.63,1.47,1.61,1.61,0,0,1-1.42,1.67c-1.23.16-2.41.28-3.55.41-1.54.2-3.09.4-4.72.65.12.48.25,1,.37,1.63a36.39,36.39,0,0,1,.28,3.82A19.83,19.83,0,0,1,234.41,70,28,28,0,0,1,232,73.17a11.86,11.86,0,0,1,1,.77c1.18.81,2.16,1.51,2.89,2.12a1,1,0,0,1,.37.73,1.23,1.23,0,0,1-1.18,1.42h-.37a6.57,6.57,0,0,1-3-1.14c-.73-.52-1.47-1-2.12-1.62A23.92,23.92,0,0,1,226,77.89a3.69,3.69,0,0,1-1.79.61A1.73,1.73,0,0,1,222.31,77.2Zm3.83-20.93c-.2.9-.41,1.83-.57,2.81A28.45,28.45,0,0,0,224.8,64c0,1.71,1.42,3.9,4.27,6.55l.69.69a15.85,15.85,0,0,0,3-4.23,17.32,17.32,0,0,0,1.5-6.07,25.69,25.69,0,0,0-.4-4.84c-.13-.49-.25-.94-.33-1.35C231.31,55.17,228.83,55.66,226.14,56.27Z"/><path class="cls-6" d="M255.17,62.38a15,15,0,0,1-.57,2,3,3,0,0,1-.37.9,1.58,1.58,0,0,1-1.26.57.79.79,0,0,1-.85-.86,3.91,3.91,0,0,1,.16-1c.08-.66.2-1.35.29-2.12,0-.57,0-1.14,0-1.67a20,20,0,0,0-.25-3.54,4.87,4.87,0,0,1-.16-1.06,1.76,1.76,0,0,1,.45-1.34,1.56,1.56,0,0,1,.89-.29,1.66,1.66,0,0,1,.94.29,7.94,7.94,0,0,1,.73,1,30.43,30.43,0,0,1,.25,4.24A19.85,19.85,0,0,1,255.17,62.38ZM261,74.1c-.08,1.06-.16,2.08-.2,3.06-.25,1-.73,1.62-1.55,1.62s-1.34-.57-1.34-1.66V71.58c.08-3.26.12-5.38.12-6.43,0-3.75,0-6.72-.08-9a74.61,74.61,0,0,0-.77-9.61,1.47,1.47,0,0,1,.77-1.34,2.26,2.26,0,0,1,1-.29,1.17,1.17,0,0,1,1,.49,2.58,2.58,0,0,1,.45,1.35c.2,2.44.41,5.45.61,9v.37c.33-.12.57-.2.73-.24a14.09,14.09,0,0,0,2.08-.7l.77-.2a2.1,2.1,0,0,1,.66-.12.9.9,0,0,1,.85.45,2.73,2.73,0,0,1,.08.53,2.36,2.36,0,0,1-.69,1.22,5.43,5.43,0,0,1-1.47.93,8.61,8.61,0,0,1-2.07.9,2.45,2.45,0,0,1-.86.2c0,2,0,4,0,6.19S261,70.36,261,74.1Zm24.14-13.59c-1,1-3.42,2.15-7.32,3.54-.05,1.87-.13,3.74-.29,5.57-.12,1.51-.24,2.77-.37,3.79,1.55-.2,3.06-.37,4.48-.53s2.73-.28,4-.45c1.06-.08,2.08-.12,3-.12,1.15.08,1.8.49,2,1.26a1.43,1.43,0,0,1-1.3,1.51c-.9.12-1.88.24-2.85.41-1.22.08-2.57.24-4,.4-2.73.33-5.5.7-8.31,1.14-2.6.41-5,.82-7.2,1.31-.74.08-1.31.16-1.75.16s-.61-.29-.78-.77a4.87,4.87,0,0,1-.08-1.23c.12-.48.9-.89,2.32-1.22a40.81,40.81,0,0,1,5.25-1.1c.9-.16,1.8-.28,2.69-.4.08-.78.16-1.75.29-3,.2-2.37.32-4.36.36-5.91-1.59.49-3.05,1-4.39,1.39-.57.16-1,.24-1.27.32a13.56,13.56,0,0,1-1.62.12c-.78,0-1.23-.57-1.39-1.67,0-.48.41-1,1.22-1.38.45-.16,1.06-.33,1.79-.53,2-.45,3.83-.93,5.62-1.46-.12-2.24-.32-4.89-.65-7.94a14.48,14.48,0,0,1-3.42.53h-1.67a2.17,2.17,0,0,1-1.42-.49,2.48,2.48,0,0,1-.82-2c0-.61,0-1.34.12-2.24.13-.65.25-1.3.37-1.91a1.21,1.21,0,0,1,1.26-.81h.29a1.43,1.43,0,0,1,1.38,1.54c-.16,1.55-.2,2.45-.2,2.65s.2.28.61.28a11.22,11.22,0,0,0,3.13-.77,3.63,3.63,0,0,1-.08-.69c-.24-1.79-.49-3.5-.73-5.21a8.06,8.06,0,0,1-.28-1.75c0-.45.28-.86.93-1.22a3.55,3.55,0,0,1,1.39-.29c.52,0,.89.61,1.13,1.79.09,1,.17,2.12.33,3.3.08,1,.12,2,.2,3a31.85,31.85,0,0,0,6.11-2.89,1.56,1.56,0,0,1,1.43,1.39,1.47,1.47,0,0,1-.61,1.18,24.77,24.77,0,0,1-5.83,3.38,6.65,6.65,0,0,1-.85.36c.08,1.14.12,2.24.2,3.3.12,1.71.21,3.3.25,4.72a71.93,71.93,0,0,0,6.92-2.36.9.9,0,0,1,.85.45.8.8,0,0,1,.08.36A1.87,1.87,0,0,1,285.13,60.51Z"/><path class="cls-6" d="M302,59.24a2.4,2.4,0,0,0,1.95-.81,2.46,2.46,0,0,0,.78-1.59c0-.53-1.43-1.26-4.28-2.16a1.73,1.73,0,0,1-1.1-1,2.81,2.81,0,0,1-.24-1.23,4.39,4.39,0,0,1,.77-1.54c.9-1.22,2-2.73,3.18-4.48a6.06,6.06,0,0,0,.89-1.67,12,12,0,0,0-3.21-.61c-.69-.16-1-.73-1-1.67A1.47,1.47,0,0,1,301.1,41,14.64,14.64,0,0,1,305.61,42a2.12,2.12,0,0,1,1.23,1.79c0,2-1.67,4.89-4.89,8.63.57.13,1.18.29,1.75.45,2.44.78,3.67,1.79,3.67,3.1a5.45,5.45,0,0,1-.21,1.54,5.12,5.12,0,0,1-1.42,2.85A5.25,5.25,0,0,1,302,61.85a4.54,4.54,0,0,1-3.05-1.1c0,1.87.08,3.91.12,6.15v7.2c0,1.59,0,2.85,0,3.79-.08,1.79-.49,2.73-1.18,2.73s-1.22-.9-1.3-2.69a30.62,30.62,0,0,1-.17-3.5c0-2.53-.16-5.78-.32-9.73-.08-2.77-.17-6-.33-9.69,0-.69-.08-2.12-.08-4.23a1.75,1.75,0,0,1,1.67-1.59c.9,0,1.38.53,1.46,1.5s0,2.08.09,3.46,0,2.85.08,4.08l.12.12A5.08,5.08,0,0,0,302,59.24Zm11-6.39c1-.57,2.28-1.22,3.87-2a24.93,24.93,0,0,1,3.91-1.39,10,10,0,0,0,.69-2.32.29.29,0,0,0-.29-.32,6.94,6.94,0,0,0-1.13-.08c-.9,0-1.67,0-2.32.08l-2.16.2c-1.06,0-1.63-.45-1.71-1.38a1.77,1.77,0,0,1,.61-1.39,3.28,3.28,0,0,1,1.46-.4c1.06,0,2.08-.09,3.06-.09a11.06,11.06,0,0,1,4,.53,2.06,2.06,0,0,1,1.34,2A15.71,15.71,0,0,1,323,51.79c-.57,1.18-1.1,2.28-1.67,3.26a.53.53,0,0,0,.28.12,1.22,1.22,0,0,1,.61.74,2.18,2.18,0,0,1-.65,1.46,10.07,10.07,0,0,1-2.36,1.75,58.27,58.27,0,0,1-5.86,3.1,4.67,4.67,0,0,1-1,.32c0,.45-.08.86-.08,1.26q-.24,5.07-.24,8.55a20,20,0,0,0,.12,2.73,24.29,24.29,0,0,0,4.56-4,.87.87,0,0,1,.73-.41c.37.08.57.37.57.94a4.39,4.39,0,0,1-.73,2.2A17.43,17.43,0,0,1,314,77.16a5.14,5.14,0,0,1-2.89,1.14c-1.14,0-1.75-1.27-1.79-3.79,0-3.34.08-7,.28-11,.25-5.13.41-9.53.45-13.23a16.1,16.1,0,0,0-.12-1.67c0-1,.65-1.47,1.83-1.55.82,0,1.26.53,1.35,1.47C313.06,50,313,51.51,312.94,52.85Zm6.76-.77c-2,1-4.32,2-6.92,3.21-.08,1.51-.12,2.85-.2,4a41.42,41.42,0,0,0,5-2.56C318.32,55.33,319,53.79,319.7,52.08Zm7.65,9.36a3.49,3.49,0,0,1-1,1.59c-2.61,3-4.52,4.8-5.78,5.37l0,0a47.83,47.83,0,0,0,4.51,4.81,45.78,45.78,0,0,0,6.4,5c.61.33.93.66.93,1.06,0,.74-.57,1.1-1.67,1.1-2-.24-4.43-1.75-7.37-4.48a52.4,52.4,0,0,1-8-9.44,3.18,3.18,0,0,1-.93-2.16,1.39,1.39,0,0,1,1.22-1.42,1.94,1.94,0,0,1,1.06.32,6.51,6.51,0,0,1,1,1.18,14,14,0,0,0,1.5,2.32,24.58,24.58,0,0,0,5.09-5.82,1.79,1.79,0,0,1,.65-.85,1.53,1.53,0,0,1,.9-.29h.32C326.91,59.89,327.31,60.46,327.35,61.44Z"/><path class="cls-6" d="M346.94,69.79a2.34,2.34,0,0,1,.53-.08,2.28,2.28,0,0,1,.89.24c.61.41,1.39,1,2.36,1.71a6,6,0,0,0,.82.57,23.4,23.4,0,0,0,.81-5.25c0-1.1,0-2.24,0-3.42,0-1,0-2.08-.08-3.18-1.87.61-3.58,1.14-5.21,1.55a13.12,13.12,0,0,1-1.59.37,10,10,0,0,1-1.46.08c-.73,0-1.18-.53-1.26-1.55,0-.45.36-.85,1.09-1.26a11.32,11.32,0,0,0,1.63-.49c1.1-.24,2.2-.53,3.26-.85.08-.09.16-.21.24-.29A88.12,88.12,0,0,0,360.7,48q-2.44.36-12.34,2.81a4.69,4.69,0,0,1-.89.16,32.35,32.35,0,0,1,.2,3.5,1.88,1.88,0,0,1-.85,1.63,2.67,2.67,0,0,1-1.14.28c-.49,0-.7-.24-.7-.73.09-1,.13-1.79.13-2.52a7,7,0,0,0-.61-2.49,9.53,9.53,0,0,0-1.23-2.56,2.23,2.23,0,0,1-.61-1.18,1.78,1.78,0,0,1,.74-1.39,2.26,2.26,0,0,1,.89-.28,1.8,1.8,0,0,1,1.3.65,11.53,11.53,0,0,1,1.19,2.28,4.86,4.86,0,0,1,.61-.2c2.44-.65,6-1.47,10.74-2.36a28,28,0,0,1,4.73-.7c.32,0,.57,0,.81,0a1.62,1.62,0,0,1,.77,1.43q0,4-11.23,10.54a4.81,4.81,0,0,0,1.06-.32,92.57,92.57,0,0,0,9.52-3.3.86.86,0,0,1,.82.53,1,1,0,0,1,.16.41,1.84,1.84,0,0,1-.61,1.26q-1.77,1.77-9,4c.08,1.22.16,2.56.16,4.11,0,.57-.08,1.1-.08,1.59.45-.12.82-.25,1.1-.33a29.54,29.54,0,0,0,3.34-1.42,7.9,7.9,0,0,1,1.22-.41,4.25,4.25,0,0,1,.65-.08,1,1,0,0,1,.86.41,1.35,1.35,0,0,1,.12.61,2.23,2.23,0,0,1-.73,1.22,8,8,0,0,1-2.4,1.5,16.3,16.3,0,0,1-3.55,1.35,2.68,2.68,0,0,1-.93.28,2.7,2.7,0,0,0-.13.65,29.84,29.84,0,0,1-1,4.6,1.69,1.69,0,0,0,.32.25,39.5,39.5,0,0,0,8.47,3.46,29.66,29.66,0,0,0,3.75.69,21.22,21.22,0,0,0,3.05.24,11.51,11.51,0,0,0,1.46-.16,6.88,6.88,0,0,0,1.35-.45,2.64,2.64,0,0,1,.81-.24c.69,0,1.06.16,1.14.57a1.79,1.79,0,0,1-.28.81,4.24,4.24,0,0,1-.74.66,12,12,0,0,1-6.14,1.46c-4.77,0-10.22-1.75-16.41-5.17a27,27,0,0,1-2.93-2,12.93,12.93,0,0,1-1-1,21.16,21.16,0,0,1-.53,2.12,18,18,0,0,1-1.58,4.35,1.8,1.8,0,0,1-1.63.94,1,1,0,0,1-1-1,2.72,2.72,0,0,1,.16-.9,18.78,18.78,0,0,0,1.87-8.55c0-.48,0-.93,0-1.38s-.08-1-.08-1.3a1.41,1.41,0,0,1-.24-.82,1.69,1.69,0,0,1,.61-1.1,1.61,1.61,0,0,1,1-.32,3,3,0,0,1,.69.08,1.7,1.7,0,0,1,.85.86,12.4,12.4,0,0,1,.29,2.8C347,68.93,346.94,69.38,346.94,69.79ZM349.79,42a1.17,1.17,0,0,1,.45-.77,2.93,2.93,0,0,1,1.87-.86c0,.33.32.49,1,.53s2.24.37,4.35.65a.65.65,0,0,1,.57.7,1.53,1.53,0,0,1-.73,1.34,2.88,2.88,0,0,1-1.38.37,47.41,47.41,0,0,1-5.17-.29C350.11,43.45,349.79,42.88,349.79,42Z"/><path class="cls-6" d="M404.47,67.87c-2.2,3.38-4.64,5.62-7.29,6.68a2.68,2.68,0,0,1-.94.24c-1.06,0-1.58-.65-1.58-1.91,0-.65.56-1.42,1.7-2.32a2.32,2.32,0,0,1,1.47-.49,22.22,22.22,0,0,0,4.52-5.13,12.11,12.11,0,0,0,2.2-6.47c0-2.12-1.55-3.38-4.6-3.83A39.68,39.68,0,0,1,394,65.76c-1.71,2.28-3.5,3.38-5.29,3.38a4,4,0,0,1-3.38-2,6.87,6.87,0,0,1-1.26-4c0-2.77,2-5.54,6.07-8.34,3.5-2.41,6.59-3.63,9.2-3.63a9.64,9.64,0,0,1,5.86,1.75,6.68,6.68,0,0,1,2.52,5.54Q407.76,62.86,404.47,67.87Zm-13.64-9.36c-2.28,1.79-3.42,3.42-3.42,4.93A3.06,3.06,0,0,0,387.9,65c.32.53.65.78.93.78,1.14,0,3-2.08,5.46-6.27a31.81,31.81,0,0,0,1.87-4.11A21.8,21.8,0,0,0,390.83,58.51Z"/><path class="cls-6" d="M446.44,53.18l-4.07.85c.24,5.78.37,10.18.37,13.15,0,6.31-1.35,9.45-3.95,9.45A4.18,4.18,0,0,1,436,75.24c-1.26-1.18-1.87-2.07-1.87-2.77a1.93,1.93,0,0,1,1.63-1.75,2,2,0,0,1,1.58,1A4.52,4.52,0,0,0,438.67,73c.44-1.05.69-4.11.69-9.07,0-1.1-.12-4.08-.29-8.88a38.79,38.79,0,0,1-8.46,12.17c-3.38,3.42-5.46,5.13-6.19,5.21-1.14,0-1.71-.69-1.79-1.91.08-1.3,1-2.52,2.6-3.7a2.36,2.36,0,0,1,1.51-.45c4.15-4,7.08-7.78,8.71-11.32-4.07.49-6.55.73-7.53.73-1.39,0-2.08-.57-2.08-1.71a1.52,1.52,0,0,1,1.63-1.75,92.15,92.15,0,0,0,11.6-1.3c0-.73-.08-1.63-.2-2.77a3.3,3.3,0,0,1,.57-2,1.94,1.94,0,0,1,1-.9c.89,0,1.42.2,1.66.53a2.16,2.16,0,0,1,.37,1.14l0,1.59v1.79c.94-.16,2.4-.41,4.44-.82a1.82,1.82,0,0,1,2,1.39C448.88,52.12,448.07,52.85,446.44,53.18Z"/><path class="cls-6" d="M491.43,61.89a51.61,51.61,0,0,1-7.25,6.88,30.3,30.3,0,0,1-8.71,4.44,2.71,2.71,0,0,1-1.63.89,12.78,12.78,0,0,1-2.11.33c-1.55,0-2.32-.61-2.32-1.79,0-1,.36-1.55,1.18-1.75a31.79,31.79,0,0,0,10.3-4,40.82,40.82,0,0,0,8.3-7.37,1.48,1.48,0,0,1,1.18-.61c1.06,0,1.59.61,1.59,1.75A1.81,1.81,0,0,1,491.43,61.89ZM479.05,57a3,3,0,0,1-1.5-.85c-.33-.24-1.26-.81-2.81-1.71A2.72,2.72,0,0,1,473.11,52c0-1.14.65-1.75,2-1.75,1,0,2.64,1.22,5,3.62a1.82,1.82,0,0,1,.78,1.42C480.89,56.47,480.28,57,479.05,57Z"/><path class="cls-6" d="M528.56,68a40.85,40.85,0,0,1-6.11,6.43c-2.85,2.4-5.08,3.62-6.71,3.62-1.14,0-1.67-.61-1.67-1.75s.57-1.67,1.75-1.67a7.23,7.23,0,0,0,2.6-1.26c4.6-3.34,7.78-7,9.53-10.91a5.15,5.15,0,0,0,.61-2.08c0-1.5-1.1-2.28-3.26-2.28-.65,0-2.64.25-6,.65a6.22,6.22,0,0,1-1.83.94,7.49,7.49,0,0,1-2.85.69c-1.67,0-2.49-.65-2.49-2,0-1,1-1.79,3.06-2.28a42.1,42.1,0,0,1,10.14-1.43,8.1,8.1,0,0,1,4.43,1.18,4.55,4.55,0,0,1,2.08,4C531.86,62.3,530.76,65,528.56,68Zm.08-17.88a55.83,55.83,0,0,1-9.48.94,20,20,0,0,1-2.89-.12c-1.18-.25-1.75-.86-1.75-1.83a2.12,2.12,0,0,1,.61-1.43,1.88,1.88,0,0,1,1.34-.65,3.1,3.1,0,0,1,1.87.61c.53,0,.9,0,1.14,0,1,0,3.95-.28,8.76-.94,1,0,1.62.62,1.62,1.75A1.44,1.44,0,0,1,528.64,50.08Z"/><path class="cls-6" d="M568.18,49.07a45.92,45.92,0,0,1-2.9,3.78,24.49,24.49,0,0,1,1.06,8c0,1.71-.12,4.48-.36,8.22-.33,4.24-.49,6.64-.49,7.29,0,1.18-.57,1.79-1.63,1.79s-1.59-1-1.87-2.85c-.25-1.34-.37-2.07-.37-2.24,0-.4.29-.81.86-1.3.4-5.82.61-9.32.61-10.5a38.58,38.58,0,0,0-.45-5.38q-1.23,1.23-6.35,6A3.65,3.65,0,0,1,554.5,63c-1.14,0-1.67-.57-1.67-1.71a2.15,2.15,0,0,1,.85-1.51,79.9,79.9,0,0,0,11-11.28,1.82,1.82,0,0,1,.37-1.13c1.22-1.76,2.2-2.65,2.93-2.65a1.81,1.81,0,0,1,1.14.45,1.64,1.64,0,0,1,.45,1.14A6.75,6.75,0,0,1,568.18,49.07Z"/><path class="cls-6" d="M617.24,61.89A51.61,51.61,0,0,1,610,68.77a30.43,30.43,0,0,1-8.71,4.44,2.78,2.78,0,0,1-1.63.89,12.86,12.86,0,0,1-2.12.33c-1.55,0-2.32-.61-2.32-1.79,0-1,.37-1.55,1.18-1.75a31.79,31.79,0,0,0,10.3-4A41.1,41.1,0,0,0,615,59.57a1.46,1.46,0,0,1,1.18-.61c1.06,0,1.59.61,1.59,1.75A1.86,1.86,0,0,1,617.24,61.89ZM604.86,57a3,3,0,0,1-1.51-.85c-.32-.24-1.26-.81-2.81-1.71A2.71,2.71,0,0,1,598.92,52c0-1.14.65-1.75,2-1.75,1,0,2.65,1.22,5,3.62a1.81,1.81,0,0,1,.77,1.42Q606.69,57,604.86,57Z"/><path class="cls-6" d="M658,62c-2.44,2.16-4,3.54-4.72,4.11-1.84,1.55-3.5,2.81-5,3.87a8.23,8.23,0,0,1-4.72,1.71c-3.46,0-5.17-3.09-5.17-9.28a53.48,53.48,0,0,1,1.95-14.21,1.6,1.6,0,0,1,1.59-1.38,2.26,2.26,0,0,1,1.26.57,2.11,2.11,0,0,1,.61,1.58,4.36,4.36,0,0,1-.37,1.43A28,28,0,0,0,642,57.09a54.43,54.43,0,0,0-.41,6.22c0,3.38.61,5,1.84,5s3.13-1.1,5.94-3.3c1.1-.89,3-2.64,5.9-5.17a2.78,2.78,0,0,1,1.75-.81c1,0,1.51.57,1.51,1.71A1.59,1.59,0,0,1,658,62Z"/><path class="cls-6" d="M685.72,65.55a1,1,0,0,1-.9-.44c-.73-1-1.71-2.28-3-4a2.1,2.1,0,0,1-.53-1.47c0-.85.49-1.3,1.47-1.3a2,2,0,0,1,1.58,1.06c1.92,2.68,2.89,4.23,2.89,4.6A1.33,1.33,0,0,1,685.72,65.55Zm10.87.29a45.28,45.28,0,0,1-4.69,7.73c-1.34,1.67-2.27,2.53-2.76,2.53-1.1,0-1.63-.49-1.63-1.39a2.46,2.46,0,0,1,1.22-1.87,41.08,41.08,0,0,0,4.84-7.33c1.92-3.58,2.89-6.27,2.89-8.06a1.73,1.73,0,0,1-.08-.57c0-1,.45-1.5,1.43-1.5s1.54.73,1.54,2.15C699.35,59.41,698.42,62.17,696.59,65.84ZM692,61.65a1.24,1.24,0,0,1-.9.4,1.76,1.76,0,0,1-1.55-.89,13.72,13.72,0,0,1-.89-1.84,2.61,2.61,0,0,1-.69-1.79,1.24,1.24,0,0,1,1.38-1.42,1.67,1.67,0,0,1,1.14.41,11.68,11.68,0,0,1,1.3,2.15,6.11,6.11,0,0,1,.57,2.08A1.36,1.36,0,0,1,692,61.65Z"/><path class="cls-6" d="M740.56,71.29a1.35,1.35,0,0,1-1.18.7c-1.14,0-1.71-.41-1.71-1.27a7.87,7.87,0,0,1,.12-1.22c-.25-.81-1.18-1.63-2.81-2.52a23.31,23.31,0,0,0-3.75-1.51,40.15,40.15,0,0,1-8,7.25,4.61,4.61,0,0,1-2.48.89,1.74,1.74,0,0,1-1.26-.44,1.67,1.67,0,0,1-.49-1.23,1.47,1.47,0,0,1,1.67-1.66c1.34-.57,3.26-2.12,5.74-4.65a58.23,58.23,0,0,0,5.09-5.82A29.14,29.14,0,0,0,734,56a10.18,10.18,0,0,0,1.47-4.24c0-.45-.65-.69-1.92-.69a20.32,20.32,0,0,0-7.36,1.34,2.8,2.8,0,0,1-1.84.9,2.47,2.47,0,0,1-1.75-.73,2.26,2.26,0,0,1-.77-1.75c0-.78.49-1.27,1.46-1.51a84.11,84.11,0,0,1,10.63-1.71c3.22,0,4.85,1.42,4.85,4.23s-1.76,6.44-5.22,10.75c5,1.83,7.58,4.15,7.58,7A2.89,2.89,0,0,1,740.56,71.29Z"/><path class="cls-6" d="M785,61.89a51.61,51.61,0,0,1-7.25,6.88A30.43,30.43,0,0,1,769,73.21a2.78,2.78,0,0,1-1.63.89,12.86,12.86,0,0,1-2.12.33c-1.54,0-2.32-.61-2.32-1.79,0-1,.37-1.55,1.18-1.75a31.79,31.79,0,0,0,10.3-4,41.1,41.1,0,0,0,8.31-7.37,1.46,1.46,0,0,1,1.18-.61c1.06,0,1.59.61,1.59,1.75A1.86,1.86,0,0,1,785,61.89ZM772.6,57a3,3,0,0,1-1.51-.85c-.32-.24-1.26-.81-2.81-1.71A2.72,2.72,0,0,1,766.66,52c0-1.14.65-1.75,2-1.75,1,0,2.65,1.22,5,3.62a1.81,1.81,0,0,1,.77,1.42Q774.43,57,772.6,57Z"/><path class="cls-7" d="M222.31,77.2a1.67,1.67,0,0,1,.86-1.55,32.08,32.08,0,0,0,4.07-2.32c-.28-.29-.53-.57-.77-.86q-4.53-4.57-4.52-8.42a23.19,23.19,0,0,1,.36-3.79c.17-1.1.33-2.2.53-3.26-2.68.66-5.41,1.39-8.26,2.24a2.83,2.83,0,0,1-1.14.33,1,1,0,0,1-1-.65,2.34,2.34,0,0,1-.16-1.06c0-.41.37-.86,1-1.26a50.1,50.1,0,0,1,7.08-2.32c1.06-.29,2.12-.53,3.1-.74a57.31,57.31,0,0,0,.77-6c0-.37,0-.77-.08-1.26a6.07,6.07,0,0,1-.21-1.39,2.39,2.39,0,0,1,.57-1.58,2,2,0,0,1,1.1-.41,1.41,1.41,0,0,1,1,.49,6.29,6.29,0,0,1,.65,3.38,48.51,48.51,0,0,1-.45,5.41,4.27,4.27,0,0,0-.08.61c.08,0,.13-.08.17-.08q3.9-.85,7.57-1.47c1.95-.32,3.91-.61,5.9-.85s3.26-.33,4.07-.33a1.53,1.53,0,0,1,1.63,1.47,1.61,1.61,0,0,1-1.42,1.67c-1.23.16-2.41.28-3.55.41-1.54.2-3.09.4-4.72.65.12.48.25,1,.37,1.63a36.39,36.39,0,0,1,.28,3.82A19.83,19.83,0,0,1,234.41,70,28,28,0,0,1,232,73.17a11.86,11.86,0,0,1,1,.77c1.18.81,2.16,1.51,2.89,2.12a1,1,0,0,1,.37.73,1.23,1.23,0,0,1-1.18,1.42h-.37a6.57,6.57,0,0,1-3-1.14c-.73-.52-1.47-1-2.12-1.62A23.92,23.92,0,0,1,226,77.89a3.69,3.69,0,0,1-1.79.61A1.73,1.73,0,0,1,222.31,77.2Zm3.83-20.93c-.2.9-.41,1.83-.57,2.81A28.45,28.45,0,0,0,224.8,64c0,1.71,1.42,3.9,4.27,6.55l.69.69a15.85,15.85,0,0,0,3-4.23,17.32,17.32,0,0,0,1.5-6.07,25.69,25.69,0,0,0-.4-4.84c-.13-.49-.25-.94-.33-1.35C231.31,55.17,228.83,55.66,226.14,56.27Z"/><path class="cls-7" d="M255.17,62.38a15,15,0,0,1-.57,2,3,3,0,0,1-.37.9,1.58,1.58,0,0,1-1.26.57.79.79,0,0,1-.85-.86,3.91,3.91,0,0,1,.16-1c.08-.66.2-1.35.29-2.12,0-.57,0-1.14,0-1.67a20,20,0,0,0-.25-3.54,4.87,4.87,0,0,1-.16-1.06,1.76,1.76,0,0,1,.45-1.34,1.56,1.56,0,0,1,.89-.29,1.66,1.66,0,0,1,.94.29,7.94,7.94,0,0,1,.73,1,30.43,30.43,0,0,1,.25,4.24A19.85,19.85,0,0,1,255.17,62.38ZM261,74.1c-.08,1.06-.16,2.08-.2,3.06-.25,1-.73,1.62-1.55,1.62s-1.34-.57-1.34-1.66V71.58c.08-3.26.12-5.38.12-6.43,0-3.75,0-6.72-.08-9a74.61,74.61,0,0,0-.77-9.61,1.47,1.47,0,0,1,.77-1.34,2.26,2.26,0,0,1,1-.29,1.17,1.17,0,0,1,1,.49,2.58,2.58,0,0,1,.45,1.35c.2,2.44.41,5.45.61,9v.37c.33-.12.57-.2.73-.24a14.09,14.09,0,0,0,2.08-.7l.77-.2a2.1,2.1,0,0,1,.66-.12.9.9,0,0,1,.85.45,2.73,2.73,0,0,1,.08.53,2.36,2.36,0,0,1-.69,1.22,5.43,5.43,0,0,1-1.47.93,8.61,8.61,0,0,1-2.07.9,2.45,2.45,0,0,1-.86.2c0,2,0,4,0,6.19S261,70.36,261,74.1Zm24.14-13.59c-1,1-3.42,2.15-7.32,3.54-.05,1.87-.13,3.74-.29,5.57-.12,1.51-.24,2.77-.37,3.79,1.55-.2,3.06-.37,4.48-.53s2.73-.28,4-.45c1.06-.08,2.08-.12,3-.12,1.15.08,1.8.49,2,1.26a1.43,1.43,0,0,1-1.3,1.51c-.9.12-1.88.24-2.85.41-1.22.08-2.57.24-4,.4-2.73.33-5.5.7-8.31,1.14-2.6.41-5,.82-7.2,1.31-.74.08-1.31.16-1.75.16s-.61-.29-.78-.77a4.87,4.87,0,0,1-.08-1.23c.12-.48.9-.89,2.32-1.22a40.81,40.81,0,0,1,5.25-1.1c.9-.16,1.8-.28,2.69-.4.08-.78.16-1.75.29-3,.2-2.37.32-4.36.36-5.91-1.59.49-3.05,1-4.39,1.39-.57.16-1,.24-1.27.32a13.56,13.56,0,0,1-1.62.12c-.78,0-1.23-.57-1.39-1.67,0-.48.41-1,1.22-1.38.45-.16,1.06-.33,1.79-.53,2-.45,3.83-.93,5.62-1.46-.12-2.24-.32-4.89-.65-7.94a14.48,14.48,0,0,1-3.42.53h-1.67a2.17,2.17,0,0,1-1.42-.49,2.48,2.48,0,0,1-.82-2c0-.61,0-1.34.12-2.24.13-.65.25-1.3.37-1.91a1.21,1.21,0,0,1,1.26-.81h.29a1.43,1.43,0,0,1,1.38,1.54c-.16,1.55-.2,2.45-.2,2.65s.2.28.61.28a11.22,11.22,0,0,0,3.13-.77,3.63,3.63,0,0,1-.08-.69c-.24-1.79-.49-3.5-.73-5.21a8.06,8.06,0,0,1-.28-1.75c0-.45.28-.86.93-1.22a3.55,3.55,0,0,1,1.39-.29c.52,0,.89.61,1.13,1.79.09,1,.17,2.12.33,3.3.08,1,.12,2,.2,3a31.85,31.85,0,0,0,6.11-2.89,1.56,1.56,0,0,1,1.43,1.39,1.47,1.47,0,0,1-.61,1.18,24.77,24.77,0,0,1-5.83,3.38,6.65,6.65,0,0,1-.85.36c.08,1.14.12,2.24.2,3.3.12,1.71.21,3.3.25,4.72a71.93,71.93,0,0,0,6.92-2.36.9.9,0,0,1,.85.45.8.8,0,0,1,.08.36A1.87,1.87,0,0,1,285.13,60.51Z"/><path class="cls-7" d="M302,59.24a2.4,2.4,0,0,0,1.95-.81,2.46,2.46,0,0,0,.78-1.59c0-.53-1.43-1.26-4.28-2.16a1.73,1.73,0,0,1-1.1-1,2.81,2.81,0,0,1-.24-1.23,4.39,4.39,0,0,1,.77-1.54c.9-1.22,2-2.73,3.18-4.48a6.06,6.06,0,0,0,.89-1.67,12,12,0,0,0-3.21-.61c-.69-.16-1-.73-1-1.67A1.47,1.47,0,0,1,301.1,41,14.64,14.64,0,0,1,305.61,42a2.12,2.12,0,0,1,1.23,1.79c0,2-1.67,4.89-4.89,8.63.57.13,1.18.29,1.75.45,2.44.78,3.67,1.79,3.67,3.1a5.45,5.45,0,0,1-.21,1.54,5.12,5.12,0,0,1-1.42,2.85A5.25,5.25,0,0,1,302,61.85a4.54,4.54,0,0,1-3.05-1.1c0,1.87.08,3.91.12,6.15v7.2c0,1.59,0,2.85,0,3.79-.08,1.79-.49,2.73-1.18,2.73s-1.22-.9-1.3-2.69a30.62,30.62,0,0,1-.17-3.5c0-2.53-.16-5.78-.32-9.73-.08-2.77-.17-6-.33-9.69,0-.69-.08-2.12-.08-4.23a1.75,1.75,0,0,1,1.67-1.59c.9,0,1.38.53,1.46,1.5s0,2.08.09,3.46,0,2.85.08,4.08l.12.12A5.08,5.08,0,0,0,302,59.24Zm11-6.39c1-.57,2.28-1.22,3.87-2a24.93,24.93,0,0,1,3.91-1.39,10,10,0,0,0,.69-2.32.29.29,0,0,0-.29-.32,6.94,6.94,0,0,0-1.13-.08c-.9,0-1.67,0-2.32.08l-2.16.2c-1.06,0-1.63-.45-1.71-1.38a1.77,1.77,0,0,1,.61-1.39,3.28,3.28,0,0,1,1.46-.4c1.06,0,2.08-.09,3.06-.09a11.06,11.06,0,0,1,4,.53,2.06,2.06,0,0,1,1.34,2A15.71,15.71,0,0,1,323,51.79c-.57,1.18-1.1,2.28-1.67,3.26a.53.53,0,0,0,.28.12,1.22,1.22,0,0,1,.61.74,2.18,2.18,0,0,1-.65,1.46,10.07,10.07,0,0,1-2.36,1.75,58.27,58.27,0,0,1-5.86,3.1,4.67,4.67,0,0,1-1,.32c0,.45-.08.86-.08,1.26q-.24,5.07-.24,8.55a20,20,0,0,0,.12,2.73,24.29,24.29,0,0,0,4.56-4,.87.87,0,0,1,.73-.41c.37.08.57.37.57.94a4.39,4.39,0,0,1-.73,2.2A17.43,17.43,0,0,1,314,77.16a5.14,5.14,0,0,1-2.89,1.14c-1.14,0-1.75-1.27-1.79-3.79,0-3.34.08-7,.28-11,.25-5.13.41-9.53.45-13.23a16.1,16.1,0,0,0-.12-1.67c0-1,.65-1.47,1.83-1.55.82,0,1.26.53,1.35,1.47C313.06,50,313,51.51,312.94,52.85Zm6.76-.77c-2,1-4.32,2-6.92,3.21-.08,1.51-.12,2.85-.2,4a41.42,41.42,0,0,0,5-2.56C318.32,55.33,319,53.79,319.7,52.08Zm7.65,9.36a3.49,3.49,0,0,1-1,1.59c-2.61,3-4.52,4.8-5.78,5.37l0,0a47.83,47.83,0,0,0,4.51,4.81,45.78,45.78,0,0,0,6.4,5c.61.33.93.66.93,1.06,0,.74-.57,1.1-1.67,1.1-2-.24-4.43-1.75-7.37-4.48a52.4,52.4,0,0,1-8-9.44,3.18,3.18,0,0,1-.93-2.16,1.39,1.39,0,0,1,1.22-1.42,1.94,1.94,0,0,1,1.06.32,6.51,6.51,0,0,1,1,1.18,14,14,0,0,0,1.5,2.32,24.58,24.58,0,0,0,5.09-5.82,1.79,1.79,0,0,1,.65-.85,1.53,1.53,0,0,1,.9-.29h.32C326.91,59.89,327.31,60.46,327.35,61.44Z"/><path class="cls-7" d="M346.94,69.79a2.34,2.34,0,0,1,.53-.08,2.28,2.28,0,0,1,.89.24c.61.41,1.39,1,2.36,1.71a6,6,0,0,0,.82.57,23.4,23.4,0,0,0,.81-5.25c0-1.1,0-2.24,0-3.42,0-1,0-2.08-.08-3.18-1.87.61-3.58,1.14-5.21,1.55a13.12,13.12,0,0,1-1.59.37,10,10,0,0,1-1.46.08c-.73,0-1.18-.53-1.26-1.55,0-.45.36-.85,1.09-1.26a11.32,11.32,0,0,0,1.63-.49c1.1-.24,2.2-.53,3.26-.85.08-.09.16-.21.24-.29A88.12,88.12,0,0,0,360.7,48q-2.44.36-12.34,2.81a4.69,4.69,0,0,1-.89.16,32.35,32.35,0,0,1,.2,3.5,1.88,1.88,0,0,1-.85,1.63,2.67,2.67,0,0,1-1.14.28c-.49,0-.7-.24-.7-.73.09-1,.13-1.79.13-2.52a7,7,0,0,0-.61-2.49,9.53,9.53,0,0,0-1.23-2.56,2.23,2.23,0,0,1-.61-1.18,1.78,1.78,0,0,1,.74-1.39,2.26,2.26,0,0,1,.89-.28,1.8,1.8,0,0,1,1.3.65,11.53,11.53,0,0,1,1.19,2.28,4.86,4.86,0,0,1,.61-.2c2.44-.65,6-1.47,10.74-2.36a28,28,0,0,1,4.73-.7c.32,0,.57,0,.81,0a1.62,1.62,0,0,1,.77,1.43q0,4-11.23,10.54a4.81,4.81,0,0,0,1.06-.32,92.57,92.57,0,0,0,9.52-3.3.86.86,0,0,1,.82.53,1,1,0,0,1,.16.41,1.84,1.84,0,0,1-.61,1.26q-1.77,1.77-9,4c.08,1.22.16,2.56.16,4.11,0,.57-.08,1.1-.08,1.59.45-.12.82-.25,1.1-.33a29.54,29.54,0,0,0,3.34-1.42,7.9,7.9,0,0,1,1.22-.41,4.25,4.25,0,0,1,.65-.08,1,1,0,0,1,.86.41,1.35,1.35,0,0,1,.12.61,2.23,2.23,0,0,1-.73,1.22,8,8,0,0,1-2.4,1.5,16.3,16.3,0,0,1-3.55,1.35,2.68,2.68,0,0,1-.93.28,2.7,2.7,0,0,0-.13.65,29.84,29.84,0,0,1-1,4.6,1.69,1.69,0,0,0,.32.25,39.5,39.5,0,0,0,8.47,3.46,29.66,29.66,0,0,0,3.75.69,21.22,21.22,0,0,0,3.05.24,11.51,11.51,0,0,0,1.46-.16,6.88,6.88,0,0,0,1.35-.45,2.64,2.64,0,0,1,.81-.24c.69,0,1.06.16,1.14.57a1.79,1.79,0,0,1-.28.81,4.24,4.24,0,0,1-.74.66,12,12,0,0,1-6.14,1.46c-4.77,0-10.22-1.75-16.41-5.17a27,27,0,0,1-2.93-2,12.93,12.93,0,0,1-1-1,21.16,21.16,0,0,1-.53,2.12,18,18,0,0,1-1.58,4.35,1.8,1.8,0,0,1-1.63.94,1,1,0,0,1-1-1,2.72,2.72,0,0,1,.16-.9,18.78,18.78,0,0,0,1.87-8.55c0-.48,0-.93,0-1.38s-.08-1-.08-1.3a1.41,1.41,0,0,1-.24-.82,1.69,1.69,0,0,1,.61-1.1,1.61,1.61,0,0,1,1-.32,3,3,0,0,1,.69.08,1.7,1.7,0,0,1,.85.86,12.4,12.4,0,0,1,.29,2.8C347,68.93,346.94,69.38,346.94,69.79ZM349.79,42a1.17,1.17,0,0,1,.45-.77,2.93,2.93,0,0,1,1.87-.86c0,.33.32.49,1,.53s2.24.37,4.35.65a.65.65,0,0,1,.57.7,1.53,1.53,0,0,1-.73,1.34,2.88,2.88,0,0,1-1.38.37,47.41,47.41,0,0,1-5.17-.29C350.11,43.45,349.79,42.88,349.79,42Z"/><path class="cls-7" d="M404.47,67.87c-2.2,3.38-4.64,5.62-7.29,6.68a2.68,2.68,0,0,1-.94.24c-1.06,0-1.58-.65-1.58-1.91,0-.65.56-1.42,1.7-2.32a2.32,2.32,0,0,1,1.47-.49,22.22,22.22,0,0,0,4.52-5.13,12.11,12.11,0,0,0,2.2-6.47c0-2.12-1.55-3.38-4.6-3.83A39.68,39.68,0,0,1,394,65.76c-1.71,2.28-3.5,3.38-5.29,3.38a4,4,0,0,1-3.38-2,6.87,6.87,0,0,1-1.26-4c0-2.77,2-5.54,6.07-8.34,3.5-2.41,6.59-3.63,9.2-3.63a9.64,9.64,0,0,1,5.86,1.75,6.68,6.68,0,0,1,2.52,5.54Q407.76,62.86,404.47,67.87Zm-13.64-9.36c-2.28,1.79-3.42,3.42-3.42,4.93A3.06,3.06,0,0,0,387.9,65c.32.53.65.78.93.78,1.14,0,3-2.08,5.46-6.27a31.81,31.81,0,0,0,1.87-4.11A21.8,21.8,0,0,0,390.83,58.51Z"/><path class="cls-7" d="M446.44,53.18l-4.07.85c.24,5.78.37,10.18.37,13.15,0,6.31-1.35,9.45-3.95,9.45A4.18,4.18,0,0,1,436,75.24c-1.26-1.18-1.87-2.07-1.87-2.77a1.93,1.93,0,0,1,1.63-1.75,2,2,0,0,1,1.58,1A4.52,4.52,0,0,0,438.67,73c.44-1.05.69-4.11.69-9.07,0-1.1-.12-4.08-.29-8.88a38.79,38.79,0,0,1-8.46,12.17c-3.38,3.42-5.46,5.13-6.19,5.21-1.14,0-1.71-.69-1.79-1.91.08-1.3,1-2.52,2.6-3.7a2.36,2.36,0,0,1,1.51-.45c4.15-4,7.08-7.78,8.71-11.32-4.07.49-6.55.73-7.53.73-1.39,0-2.08-.57-2.08-1.71a1.52,1.52,0,0,1,1.63-1.75,92.15,92.15,0,0,0,11.6-1.3c0-.73-.08-1.63-.2-2.77a3.3,3.3,0,0,1,.57-2,1.94,1.94,0,0,1,1-.9c.89,0,1.42.2,1.66.53a2.16,2.16,0,0,1,.37,1.14l0,1.59v1.79c.94-.16,2.4-.41,4.44-.82a1.82,1.82,0,0,1,2,1.39C448.88,52.12,448.07,52.85,446.44,53.18Z"/><path class="cls-7" d="M491.43,61.89a51.61,51.61,0,0,1-7.25,6.88,30.3,30.3,0,0,1-8.71,4.44,2.71,2.71,0,0,1-1.63.89,12.78,12.78,0,0,1-2.11.33c-1.55,0-2.32-.61-2.32-1.79,0-1,.36-1.55,1.18-1.75a31.79,31.79,0,0,0,10.3-4,40.82,40.82,0,0,0,8.3-7.37,1.48,1.48,0,0,1,1.18-.61c1.06,0,1.59.61,1.59,1.75A1.81,1.81,0,0,1,491.43,61.89ZM479.05,57a3,3,0,0,1-1.5-.85c-.33-.24-1.26-.81-2.81-1.71A2.72,2.72,0,0,1,473.11,52c0-1.14.65-1.75,2-1.75,1,0,2.64,1.22,5,3.62a1.82,1.82,0,0,1,.78,1.42C480.89,56.47,480.28,57,479.05,57Z"/><path class="cls-7" d="M528.56,68a40.85,40.85,0,0,1-6.11,6.43c-2.85,2.4-5.08,3.62-6.71,3.62-1.14,0-1.67-.61-1.67-1.75s.57-1.67,1.75-1.67a7.23,7.23,0,0,0,2.6-1.26c4.6-3.34,7.78-7,9.53-10.91a5.15,5.15,0,0,0,.61-2.08c0-1.5-1.1-2.28-3.26-2.28-.65,0-2.64.25-6,.65a6.22,6.22,0,0,1-1.83.94,7.49,7.49,0,0,1-2.85.69c-1.67,0-2.49-.65-2.49-2,0-1,1-1.79,3.06-2.28a42.1,42.1,0,0,1,10.14-1.43,8.1,8.1,0,0,1,4.43,1.18,4.55,4.55,0,0,1,2.08,4C531.86,62.3,530.76,65,528.56,68Zm.08-17.88a55.83,55.83,0,0,1-9.48.94,20,20,0,0,1-2.89-.12c-1.18-.25-1.75-.86-1.75-1.83a2.12,2.12,0,0,1,.61-1.43,1.88,1.88,0,0,1,1.34-.65,3.1,3.1,0,0,1,1.87.61c.53,0,.9,0,1.14,0,1,0,3.95-.28,8.76-.94,1,0,1.62.62,1.62,1.75A1.44,1.44,0,0,1,528.64,50.08Z"/><path class="cls-7" d="M568.18,49.07a45.92,45.92,0,0,1-2.9,3.78,24.49,24.49,0,0,1,1.06,8c0,1.71-.12,4.48-.36,8.22-.33,4.24-.49,6.64-.49,7.29,0,1.18-.57,1.79-1.63,1.79s-1.59-1-1.87-2.85c-.25-1.34-.37-2.07-.37-2.24,0-.4.29-.81.86-1.3.4-5.82.61-9.32.61-10.5a38.58,38.58,0,0,0-.45-5.38q-1.23,1.23-6.35,6A3.65,3.65,0,0,1,554.5,63c-1.14,0-1.67-.57-1.67-1.71a2.15,2.15,0,0,1,.85-1.51,79.9,79.9,0,0,0,11-11.28,1.82,1.82,0,0,1,.37-1.13c1.22-1.76,2.2-2.65,2.93-2.65a1.81,1.81,0,0,1,1.14.45,1.64,1.64,0,0,1,.45,1.14A6.75,6.75,0,0,1,568.18,49.07Z"/><path class="cls-7" d="M617.24,61.89A51.61,51.61,0,0,1,610,68.77a30.43,30.43,0,0,1-8.71,4.44,2.78,2.78,0,0,1-1.63.89,12.86,12.86,0,0,1-2.12.33c-1.55,0-2.32-.61-2.32-1.79,0-1,.37-1.55,1.18-1.75a31.79,31.79,0,0,0,10.3-4A41.1,41.1,0,0,0,615,59.57a1.46,1.46,0,0,1,1.18-.61c1.06,0,1.59.61,1.59,1.75A1.86,1.86,0,0,1,617.24,61.89ZM604.86,57a3,3,0,0,1-1.51-.85c-.32-.24-1.26-.81-2.81-1.71A2.71,2.71,0,0,1,598.92,52c0-1.14.65-1.75,2-1.75,1,0,2.65,1.22,5,3.62a1.81,1.81,0,0,1,.77,1.42Q606.69,57,604.86,57Z"/><path class="cls-7" d="M658,62c-2.44,2.16-4,3.54-4.72,4.11-1.84,1.55-3.5,2.81-5,3.87a8.23,8.23,0,0,1-4.72,1.71c-3.46,0-5.17-3.09-5.17-9.28a53.48,53.48,0,0,1,1.95-14.21,1.6,1.6,0,0,1,1.59-1.38,2.26,2.26,0,0,1,1.26.57,2.11,2.11,0,0,1,.61,1.58,4.36,4.36,0,0,1-.37,1.43A28,28,0,0,0,642,57.09a54.43,54.43,0,0,0-.41,6.22c0,3.38.61,5,1.84,5s3.13-1.1,5.94-3.3c1.1-.89,3-2.64,5.9-5.17a2.78,2.78,0,0,1,1.75-.81c1,0,1.51.57,1.51,1.71A1.59,1.59,0,0,1,658,62Z"/><path class="cls-7" d="M685.72,65.55a1,1,0,0,1-.9-.44c-.73-1-1.71-2.28-3-4a2.1,2.1,0,0,1-.53-1.47c0-.85.49-1.3,1.47-1.3a2,2,0,0,1,1.58,1.06c1.92,2.68,2.89,4.23,2.89,4.6A1.33,1.33,0,0,1,685.72,65.55Zm10.87.29a45.28,45.28,0,0,1-4.69,7.73c-1.34,1.67-2.27,2.53-2.76,2.53-1.1,0-1.63-.49-1.63-1.39a2.46,2.46,0,0,1,1.22-1.87,41.08,41.08,0,0,0,4.84-7.33c1.92-3.58,2.89-6.27,2.89-8.06a1.73,1.73,0,0,1-.08-.57c0-1,.45-1.5,1.43-1.5s1.54.73,1.54,2.15C699.35,59.41,698.42,62.17,696.59,65.84ZM692,61.65a1.24,1.24,0,0,1-.9.4,1.76,1.76,0,0,1-1.55-.89,13.72,13.72,0,0,1-.89-1.84,2.61,2.61,0,0,1-.69-1.79,1.24,1.24,0,0,1,1.38-1.42,1.67,1.67,0,0,1,1.14.41,11.68,11.68,0,0,1,1.3,2.15,6.11,6.11,0,0,1,.57,2.08A1.36,1.36,0,0,1,692,61.65Z"/><path class="cls-7" d="M740.56,71.29a1.35,1.35,0,0,1-1.18.7c-1.14,0-1.71-.41-1.71-1.27a7.87,7.87,0,0,1,.12-1.22c-.25-.81-1.18-1.63-2.81-2.52a23.31,23.31,0,0,0-3.75-1.51,40.15,40.15,0,0,1-8,7.25,4.61,4.61,0,0,1-2.48.89,1.74,1.74,0,0,1-1.26-.44,1.67,1.67,0,0,1-.49-1.23,1.47,1.47,0,0,1,1.67-1.66c1.34-.57,3.26-2.12,5.74-4.65a58.23,58.23,0,0,0,5.09-5.82A29.14,29.14,0,0,0,734,56a10.18,10.18,0,0,0,1.47-4.24c0-.45-.65-.69-1.92-.69a20.32,20.32,0,0,0-7.36,1.34,2.8,2.8,0,0,1-1.84.9,2.47,2.47,0,0,1-1.75-.73,2.26,2.26,0,0,1-.77-1.75c0-.78.49-1.27,1.46-1.51a84.11,84.11,0,0,1,10.63-1.71c3.22,0,4.85,1.42,4.85,4.23s-1.76,6.44-5.22,10.75c5,1.83,7.58,4.15,7.58,7A2.89,2.89,0,0,1,740.56,71.29Z"/><path class="cls-7" d="M785,61.89a51.61,51.61,0,0,1-7.25,6.88A30.43,30.43,0,0,1,769,73.21a2.78,2.78,0,0,1-1.63.89,12.86,12.86,0,0,1-2.12.33c-1.54,0-2.32-.61-2.32-1.79,0-1,.37-1.55,1.18-1.75a31.79,31.79,0,0,0,10.3-4,41.1,41.1,0,0,0,8.31-7.37,1.46,1.46,0,0,1,1.18-.61c1.06,0,1.59.61,1.59,1.75A1.86,1.86,0,0,1,785,61.89ZM772.6,57a3,3,0,0,1-1.51-.85c-.32-.24-1.26-.81-2.81-1.71A2.72,2.72,0,0,1,766.66,52c0-1.14.65-1.75,2-1.75,1,0,2.65,1.22,5,3.62a1.81,1.81,0,0,1,.77,1.42Q774.43,57,772.6,57Z"/></g></g></svg>