<svg xmlns="http://www.w3.org/2000/svg" xmlns:xlink="http://www.w3.org/1999/xlink" viewBox="0 0 640 120.01"><defs><style>.cls-1{fill:url(#名称未設定グラデーション_3);}.cls-2{fill:#231815;}.cls-3,.cls-5{fill:none;}.cls-3{stroke:#000;stroke-miterlimit:10;}.cls-4{fill:#606060;}</style><radialGradient id="名称未設定グラデーション_3" cx="265.3" cy="-58.8" r="97.85" gradientTransform="translate(-27.66 71.52) rotate(10.07)" gradientUnits="userSpaceOnUse"><stop offset="0" stop-color="#fff"/><stop offset="1" stop-color="#fdefef"/></radialGradient></defs><g id="レイヤー_2" data-name="レイヤー 2"><g id="レイヤー_2-2" data-name="レイヤー 2"><ellipse class="cls-1" cx="243.84" cy="60.01" rx="128.51" ry="51.32" transform="translate(72.84 66.45) rotate(-15.3)"/><path d="M15.49,36a45.71,45.71,0,0,1-2.82,3.7,24.28,24.28,0,0,1,1,7.79c0,1.67-.12,4.38-.36,8-.31,4.14-.47,6.49-.47,7.12,0,1.15-.56,1.75-1.59,1.75s-1.55-1-1.83-2.78c-.24-1.31-.36-2-.36-2.19,0-.4.28-.79.83-1.27q.6-8.54.6-10.26a36.63,36.63,0,0,0-.44-5.25c-.79.8-2.86,2.74-6.2,5.85a3.53,3.53,0,0,1-1.75,1.07C1,49.54.5,49,.5,47.87a2.1,2.1,0,0,1,.83-1.47,78.51,78.51,0,0,0,10.7-11,1.78,1.78,0,0,1,.36-1.11c1.19-1.71,2.15-2.58,2.86-2.58a1.79,1.79,0,0,1,1.12.43,1.68,1.68,0,0,1,.43,1.12A6.44,6.44,0,0,1,15.49,36Z" transform="translate(80.03)"/><path d="M63.41,48.51a51,51,0,0,1-7.08,6.72,29.8,29.8,0,0,1-8.51,4.33,2.6,2.6,0,0,1-1.59.87,13,13,0,0,1-2.07.32c-1.51,0-2.26-.59-2.26-1.75,0-1,.35-1.51,1.15-1.71a30.9,30.9,0,0,0,10.06-3.85,39.93,39.93,0,0,0,8.11-7.2,1.46,1.46,0,0,1,1.15-.6c1,0,1.55.6,1.55,1.71A1.79,1.79,0,0,1,63.41,48.51ZM51.32,43.77a2.88,2.88,0,0,1-1.47-.83c-.32-.24-1.23-.8-2.75-1.67a2.67,2.67,0,0,1-1.59-2.39c0-1.11.64-1.71,2-1.71,1,0,2.59,1.2,4.89,3.54a1.79,1.79,0,0,1,.76,1.39C53.11,43.22,52.51,43.77,51.32,43.77Z" transform="translate(80.03)"/><path d="M101.94,57.69a1.3,1.3,0,0,1-1.15.68c-1.12,0-1.67-.4-1.67-1.24a7.54,7.54,0,0,1,.12-1.19c-.24-.79-1.16-1.59-2.75-2.46A22.23,22.23,0,0,0,92.83,52,39.18,39.18,0,0,1,85,59.08a4.5,4.5,0,0,1-2.42.88,1.69,1.69,0,0,1-1.24-.44,1.61,1.61,0,0,1-.47-1.19,1.43,1.43,0,0,1,1.63-1.63q2-.84,5.6-4.54a58.06,58.06,0,0,0,5-5.68A28.58,28.58,0,0,0,95.5,42.7a10,10,0,0,0,1.43-4.14c0-.43-.64-.67-1.87-.67a19.91,19.91,0,0,0-7.2,1.31,2.67,2.67,0,0,1-1.79.88,2.39,2.39,0,0,1-1.71-.72,2.23,2.23,0,0,1-.75-1.71c0-.76.48-1.23,1.43-1.47a80.68,80.68,0,0,1,10.38-1.67c3.14,0,4.73,1.39,4.73,4.13s-1.71,6.29-5.09,10.5c4.93,1.79,7.4,4.06,7.4,6.84A2.81,2.81,0,0,1,101.94,57.69Z" transform="translate(80.03)"/><path d="M142.5,49.78a1.29,1.29,0,0,1-1,.51,2,2,0,0,1-1-.31c-.43-.24-.83-.44-1.23-.68-1.11-.52-2.7-1.27-4.69-2.27,0,2.71-.24,7.12-.68,13.32-.16,1.79-.75,2.71-1.83,2.71s-1.63-.6-1.63-1.75a3.29,3.29,0,0,1,.24-.91c.2-1.28.4-4.5.64-9.67s.32-9.42.32-12.88c0-1.12-.08-2.35-.2-3.7a3.91,3.91,0,0,1-.16-.83,1.54,1.54,0,0,1,.44-1.12,1.34,1.34,0,0,1,1-.51A1.7,1.7,0,0,1,134.43,33a31.3,31.3,0,0,1,.28,5.33c0,1.27,0,2.82-.12,4.69a39,39,0,0,0,6.8,3.46,2.26,2.26,0,0,1,1.51,2.1A1.85,1.85,0,0,1,142.5,49.78Z" transform="translate(80.03)"/><path d="M181.59,54.43a39.4,39.4,0,0,1-6,6.28c-2.79,2.35-5,3.54-6.57,3.54-1.11,0-1.63-.59-1.63-1.71s.56-1.63,1.71-1.63a7.1,7.1,0,0,0,2.55-1.23c4.49-3.26,7.59-6.84,9.3-10.66a5,5,0,0,0,.6-2c0-1.47-1.07-2.22-3.18-2.22-.64,0-2.59.24-5.85.63a5.82,5.82,0,0,1-1.79.92A7.22,7.22,0,0,1,168,47c-1.63,0-2.43-.63-2.43-1.9,0-1,1-1.75,3-2.23a41.07,41.07,0,0,1,9.9-1.39,7.85,7.85,0,0,1,4.33,1.15,4.45,4.45,0,0,1,2,3.9C184.81,48.9,183.74,51.53,181.59,54.43ZM181.67,37a54.11,54.11,0,0,1-9.27.92,19.12,19.12,0,0,1-2.82-.12c-1.15-.24-1.71-.84-1.71-1.79a2.06,2.06,0,0,1,.6-1.39,1.87,1.87,0,0,1,1.31-.64,3,3,0,0,1,1.83.6c.52,0,.87,0,1.11,0,1,0,3.86-.28,8.55-.92,1,0,1.59.6,1.59,1.71A1.41,1.41,0,0,1,181.67,37Z" transform="translate(80.03)"/><path d="M223.78,47.31a40.74,40.74,0,0,1-4.93,7.48,35.2,35.2,0,0,1-6.32,6.12c-2.23,1.63-3.62,2.47-4.26,2.47-1.19,0-1.79-.56-1.79-1.63a3.79,3.79,0,0,1,1.24-2.23c.83-1,1.47-1.47,1.9-1.47.12,0,.4.08.88.16a33.33,33.33,0,0,0,10.06-11.73,12.44,12.44,0,0,0,1.83-5.33,2.24,2.24,0,0,0-1-1.91,4.64,4.64,0,0,0-2.66-.76,30.91,30.91,0,0,0-5.84,1,47.13,47.13,0,0,1-6.09,7,2.34,2.34,0,0,1-1.59.83,1.29,1.29,0,0,1-1.07-.51,1.57,1.57,0,0,1-.44-1.16c0-.71.91-2.26,2.82-4.65a1.71,1.71,0,0,1,1.4-.44,18.26,18.26,0,0,0,2.62-3.7,15.36,15.36,0,0,0,1.75-3.93c.32-1.08.91-1.63,1.87-1.63a1.53,1.53,0,0,1,1.11.55,2,2,0,0,1,.52,1.24,16.06,16.06,0,0,1-.6,2.46,32.41,32.41,0,0,1,3.54-.36c4.53,0,6.84,2,6.84,5.77A15.42,15.42,0,0,1,223.78,47.31Z" transform="translate(80.03)"/><path d="M260.09,52.08q-3.88,4.19-7.72,7.88c-1.19,1.11-2,1.71-2.46,1.71a1.48,1.48,0,0,1-1.16-.48,1.63,1.63,0,0,1-.47-1.15c0-.56.71-1.71,2.22-3.42a1.29,1.29,0,0,1,1-.32c2.46-2.39,4.65-4.65,6.48-6.8a55.16,55.16,0,0,1-5.21-3.9,1.46,1.46,0,0,1-.68-1.23,1.74,1.74,0,0,1,.52-1.19,1.71,1.71,0,0,1,1.27-.52,3,3,0,0,1,1.24.64A35.32,35.32,0,0,0,260,46.87c2.18-3.06,3.3-5.52,3.3-7.35,0-1.51-.88-2.31-2.55-2.31a9.61,9.61,0,0,0-4.89,1.51,5.11,5.11,0,0,1-1.55.72,1.34,1.34,0,0,1-.6-.16,37.32,37.32,0,0,1-3.53,4.81,1.59,1.59,0,0,1-1.2.6c-1,0-1.51-.56-1.51-1.75a1.92,1.92,0,0,1,.48-1.27,27.17,27.17,0,0,0,5.17-8.91c.32-.88.83-1.35,1.51-1.35,1.07,0,1.71,1.11,1.87,3.3a10.26,10.26,0,0,1,3.89-.8,6.72,6.72,0,0,1,4.3,1.47,5.1,5.1,0,0,1,1.71,4.06C266.37,43.38,264.26,47.59,260.09,52.08Z" transform="translate(80.03)"/><path d="M311.38,49c-.24,0-2.26-.16-6.12-.4-4.61-.23-7.36-.39-8.27-.39a47.6,47.6,0,0,0-5.89.35,3.76,3.76,0,0,1-1.63.56,9,9,0,0,1-2.18.2,2.34,2.34,0,0,1-1.75-.68,1.84,1.84,0,0,1-.76-1.47c0-.63,1-1.11,2.86-1.51a44.51,44.51,0,0,1,8.12-.59q5.83,0,11.81.55a8,8,0,0,1,1.19-.16,4.93,4.93,0,0,1,2.58.72A2.05,2.05,0,0,1,312.5,48C312.5,48.58,312.1,48.94,311.38,49Z" transform="translate(80.03)"/><path d="M347.09,54.35c-2.15,3.3-4.53,5.49-7.12,6.52a2.5,2.5,0,0,1-.91.24c-1,0-1.55-.64-1.55-1.87,0-.63.56-1.39,1.67-2.26a2.21,2.21,0,0,1,1.43-.48,21.82,21.82,0,0,0,4.41-5,11.75,11.75,0,0,0,2.15-6.32c0-2.07-1.51-3.31-4.49-3.74a38.57,38.57,0,0,1-5.77,10.85c-1.67,2.23-3.42,3.3-5.17,3.3a3.85,3.85,0,0,1-3.3-1.91,6.71,6.71,0,0,1-1.23-3.93c0-2.71,2-5.41,5.92-8.15,3.42-2.35,6.45-3.54,9-3.54a9.37,9.37,0,0,1,5.73,1.71,6.5,6.5,0,0,1,2.46,5.41A16.88,16.88,0,0,1,347.09,54.35Zm-13.32-9.14c-2.23,1.74-3.34,3.33-3.34,4.81a3,3,0,0,0,.48,1.51c.32.51.63.75.91.75,1.12,0,2.91-2,5.33-6.12a30.41,30.41,0,0,0,1.83-4A21.19,21.19,0,0,0,333.77,45.21Z" transform="translate(80.03)"/><path d="M383.4,43.53c-2.15,1.75-3.42,2.63-3.9,2.63a1.42,1.42,0,0,1-1.63-1.63,1.84,1.84,0,0,1,.76-1.55c1.67-1.23,3.42-2.63,5.25-4.18h-3a19.15,19.15,0,0,1-5.29-.75c-2.58-.72-3.85-1.75-3.85-3.1,0-1.12.51-1.71,1.55-1.71a1.82,1.82,0,0,1,1.11.43c.8,1.24,3,1.83,6.64,1.83.16,0,1,0,2.43-.08l2.18-.08c2.47,0,3.7.6,3.7,1.71S387.33,40.27,383.4,43.53Zm5.41,15.91a11.44,11.44,0,0,1-6.72,2.07,12.66,12.66,0,0,1-6.76-1.75,5.7,5.7,0,0,1-3.19-5,7.35,7.35,0,0,1,2.11-4.61,1.35,1.35,0,0,1,1.12-.56,1.8,1.8,0,0,1,1.15.52,1.89,1.89,0,0,1,.48,1.23,3.93,3.93,0,0,1-1.28,2.15,4.18,4.18,0,0,0-.35,1.51c0,.95.63,1.71,1.9,2.3a10.66,10.66,0,0,0,4.93,1,8.67,8.67,0,0,0,4.42-1.16,2.55,2.55,0,0,1,1.07-.63c1.16,0,1.75.55,1.75,1.63A1.56,1.56,0,0,1,388.81,59.44Zm4.33-22.94a1,1,0,0,1-1-.68,11.23,11.23,0,0,0-2.31-2.9,1,1,0,0,1-.36-.8c0-.87.36-1.31,1.16-1.31a1.46,1.46,0,0,1,.91.4c.64.71,1.19,1.35,1.63,1.87a4.84,4.84,0,0,1,1,2.14C394.17,36.1,393.82,36.5,393.14,36.5ZM396,33.32a1.22,1.22,0,0,1-1.15-.72,4.16,4.16,0,0,0-1.15-1.27,1.28,1.28,0,0,1-.68-1.2A1,1,0,0,1,394.09,29,3,3,0,0,1,396,30.13,3.1,3.1,0,0,1,397,32C397,32.88,396.64,33.32,396,33.32Z" transform="translate(80.03)"/><path d="M404.63,55.74a1.51,1.51,0,0,1,1.12.48c.27.36.71,1,1.31,1.83.95,1.35,1.95,2.82,3.06,4.45a2.4,2.4,0,0,1,.28,1.08,1,1,0,0,1-.76,1,1.59,1.59,0,0,1-1.07-.36c-.88-.55-2.35-2.34-4.34-5.37a5.16,5.16,0,0,1-.67-1.15,1.64,1.64,0,0,1-.2-.75C403.4,56.3,403.84,55.9,404.63,55.74ZM408.29,40c2.23-1.71,4-2.59,5.33-2.59.32.08.52.4.6.88,0,1.94-1.87,5.28-5.57,10,1.67-.8,3.66-1.79,6-3a4.9,4.9,0,0,1,1.71-.64,1.09,1.09,0,0,1,1.24,1.15,6.76,6.76,0,0,1-1.28,3.66,8.73,8.73,0,0,1-1.95,2.19,1.62,1.62,0,0,1-.83.24c-.4,0-.6-.2-.6-.56a1.28,1.28,0,0,1,.28-.68c.64-1.35,1.2-2.5,1.59-3.42q-6.07,4.77-8.87,5.13c-.71,0-1.11-.39-1.11-1.07a3.39,3.39,0,0,1,.72-1.71q2.39-4.23,5.72-9.46a11.52,11.52,0,0,1-6,3.57c-.64-.08-1-.55-1-1.43,3-4.85,4.78-9,5.33-12.4a1.69,1.69,0,0,1,1.67-1.08,1.2,1.2,0,0,1,1,1.2C412,32.36,410.64,35.7,408.29,40Zm1.07,13.87a1.49,1.49,0,0,1,1.08.48c.24.32.55.8,1,1.47.72,1.12,1.47,2.31,2.35,3.62a2.54,2.54,0,0,1,.2.92,1.08,1.08,0,0,1-.64.83,1.43,1.43,0,0,1-.95-.32c-.72-.43-1.91-1.79-3.58-4.17a6.84,6.84,0,0,1-.48-.92,1.41,1.41,0,0,1-.2-.75C408.21,54.39,408.61,54,409.36,53.83Zm9.63,4.5c-.12.24-.24.36-.4.39a1.52,1.52,0,0,1-.64.12,4.49,4.49,0,0,1-2.42-1.35,8.54,8.54,0,0,1-2.31-2.58,1.2,1.2,0,0,1-.32-.88,1.19,1.19,0,0,1,.36-.67,2.58,2.58,0,0,1,.64-.44c.08,0,.24,0,.4,0a1.38,1.38,0,0,1,.67.28,4.42,4.42,0,0,1,.8.87,8.7,8.7,0,0,0,3.14,3.1.83.83,0,0,1,.28.68A2,2,0,0,1,419,58.33Zm20.12-27.16a23.05,23.05,0,0,1-.56,3.42A69.9,69.9,0,0,1,436.29,42a22.54,22.54,0,0,1-1.56,3.62,2.5,2.5,0,0,1-2.22,1.67,4.34,4.34,0,0,1-2.43-.79,5.42,5.42,0,0,1-2.42-3.66.91.91,0,0,1,.91-1,.79.79,0,0,1,.68.36c1.55,1.39,2.58,2.11,3.14,2.11a6.91,6.91,0,0,0,.75-1.51c.28-.8.64-1.79,1-2.94.51-1.75,1.11-4,1.75-6.68l.16-.88a28.25,28.25,0,0,1-6.92,1.39,9.72,9.72,0,0,1-.72,3.06,27,27,0,0,1-1.87,4.06A18.78,18.78,0,0,1,424,44.65a18.65,18.65,0,0,1-2.79,2.66,2.21,2.21,0,0,1-1.51.68c-.55,0-.83-.4-.83-1.19,0-.24.24-.6.71-1.08a21.45,21.45,0,0,0,4.18-5.21,30.61,30.61,0,0,0,2-4.29c.08-.4.2-.84.28-1.23s.08-.76.08-1v-.08c-.8,0-1.56,0-2.31,0-1.59,0-2.39-.63-2.39-1.83,0-.63.48-1.07,1.36-1.31.27,0,.75,0,1.39,0a18.34,18.34,0,0,0,2.26.12A47.75,47.75,0,0,0,437,29.5C438.39,29.5,439.11,30.05,439.11,31.17ZM427.5,50.77a28.45,28.45,0,0,1,3.5-.28,25,25,0,0,1,3.34.2,5.8,5.8,0,0,1,3.1,1.55,3.7,3.7,0,0,1,.79,2.23,12,12,0,0,1-.63,3.14c-.2.48-.36.92-.52,1.27a1.22,1.22,0,0,1,.72.52,1.66,1.66,0,0,1,.12.64,2.74,2.74,0,0,1-.56,1.19,27,27,0,0,1-4.65,2,49.6,49.6,0,0,1-6.25,1.75c-.12.91-.55,1.39-1.35,1.43a1.09,1.09,0,0,1-1.23-1.15,44.34,44.34,0,0,0-.76-5.49c-.71-3.18-1.31-5.85-1.83-7.95a1.86,1.86,0,0,1,.48-.92,1.12,1.12,0,0,1,.92-.48,5,5,0,0,1,.83.08,1.87,1.87,0,0,1,.92.92.41.41,0,0,0,0,.16C425.27,51.29,426.3,51,427.5,50.77Zm1.23,10.62c1.79-.48,3.42-1,4.93-1.47a10.6,10.6,0,0,0,.88-1.75,12.63,12.63,0,0,0,.87-3.22c0-1-1.11-1.47-3.26-1.55a18.73,18.73,0,0,0-4.18.47c-1,.24-1.94.48-2.82.72.16.87.32,1.83.52,2.86.28,1.83.48,3.3.59,4.5C427.22,61.71,428,61.51,428.73,61.39Z" transform="translate(80.03)"/><path d="M474.94,41.27,469,37.13c-1.79-1.43-3.7-3-5.76-4.77a6.71,6.71,0,0,1-1.24-1c-.24.32-.43.63-.67.91-1.16,1.43-2.71,3.1-4.69,5.09-1.75,2-3.7,4-5.81,6.09-1.19,1.19-2.55,2.62-4,4.29a1.49,1.49,0,0,1-1,.6c-.64,0-1-.28-1-.92a1.69,1.69,0,0,1,.35-1c.72-.8,1.63-1.87,2.83-3.14,1.31-1.59,3.06-3.62,5.29-6.09,1.74-2.07,3.61-4.21,5.56-6.44.56-.72,1.16-1.55,1.75-2.42a10,10,0,0,0,.56-1,3.1,3.1,0,0,1,1.39-.24,1.18,1.18,0,0,1,.91,1.2c0,.15,0,.27,0,.35.6.4,1.24.92,1.91,1.47,1.79,1.44,4.58,3.62,8.31,6.64,2,1.52,3.62,2.79,4.82,3.82.35.32.67.6,1,.92a1.72,1.72,0,0,1,.52,1,1.05,1.05,0,0,1-1.2,1.19.88.88,0,0,1-.43-.12A23.43,23.43,0,0,1,474.94,41.27ZM457.12,55.42c-.12,2.07-.24,3.7-.36,4.93s-.35,2.43-.51,3.38c-.6.68-1.12,1-1.59,1-.72,0-1.12-.28-1.12-.8a1,1,0,0,1,.24-.71c.08-.68.12-1.31.2-1.95.2-1.87.36-4.93.44-9.23,0-.47,0-4.13.12-11,0-.88.4-1.31,1.15-1.39h.56c.75.08,1.15.51,1.15,1.39C457.4,44.49,457.28,49.3,457.12,55.42ZM471,40.55v2.11c0,2,0,4.1,0,6.4V53a35.21,35.21,0,0,1-.95,8,36.64,36.64,0,0,1-1.71,5c-.32,1.12-.8,1.67-1.44,1.67a1,1,0,0,1-1.15-1.15c.28-1,.68-2.31,1.23-4.14a30,30,0,0,0,1.32-7.59c0-2.31,0-5.45-.08-9.47,0-1.15,0-2.3,0-3.46a6.21,6.21,0,0,1-.28-1.59c0-.39.28-.79.87-1.11a3.52,3.52,0,0,1,1.32-.24C470.52,38.92,470.84,39.48,471,40.55Z" transform="translate(80.03)"/><path class="cls-2" d="M15.49,36a45.71,45.71,0,0,1-2.82,3.7,24.28,24.28,0,0,1,1,7.79c0,1.67-.12,4.38-.36,8-.31,4.14-.47,6.49-.47,7.12,0,1.15-.56,1.75-1.59,1.75s-1.55-1-1.83-2.78c-.24-1.31-.36-2-.36-2.19,0-.4.28-.79.83-1.27q.6-8.54.6-10.26a36.63,36.63,0,0,0-.44-5.25c-.79.8-2.86,2.74-6.2,5.85a3.53,3.53,0,0,1-1.75,1.07C1,49.54.5,49,.5,47.87a2.1,2.1,0,0,1,.83-1.47,78.51,78.51,0,0,0,10.7-11,1.78,1.78,0,0,1,.36-1.11c1.19-1.71,2.15-2.58,2.86-2.58a1.79,1.79,0,0,1,1.12.43,1.68,1.68,0,0,1,.43,1.12A6.44,6.44,0,0,1,15.49,36Z" transform="translate(80.03)"/><path class="cls-2" d="M63.41,48.51a51,51,0,0,1-7.08,6.72,29.8,29.8,0,0,1-8.51,4.33,2.6,2.6,0,0,1-1.59.87,13,13,0,0,1-2.07.32c-1.51,0-2.26-.59-2.26-1.75,0-1,.35-1.51,1.15-1.71a30.9,30.9,0,0,0,10.06-3.85,39.93,39.93,0,0,0,8.11-7.2,1.46,1.46,0,0,1,1.15-.6c1,0,1.55.6,1.55,1.71A1.79,1.79,0,0,1,63.41,48.51ZM51.32,43.77a2.88,2.88,0,0,1-1.47-.83c-.32-.24-1.23-.8-2.75-1.67a2.67,2.67,0,0,1-1.59-2.39c0-1.11.64-1.71,2-1.71,1,0,2.59,1.2,4.89,3.54a1.79,1.79,0,0,1,.76,1.39C53.11,43.22,52.51,43.77,51.32,43.77Z" transform="translate(80.03)"/><path class="cls-2" d="M101.94,57.69a1.3,1.3,0,0,1-1.15.68c-1.12,0-1.67-.4-1.67-1.24a7.54,7.54,0,0,1,.12-1.19c-.24-.79-1.16-1.59-2.75-2.46A22.23,22.23,0,0,0,92.83,52,39.18,39.18,0,0,1,85,59.08a4.5,4.5,0,0,1-2.42.88,1.69,1.69,0,0,1-1.24-.44,1.61,1.61,0,0,1-.47-1.19,1.43,1.43,0,0,1,1.63-1.63q2-.84,5.6-4.54a58.06,58.06,0,0,0,5-5.68A28.58,28.58,0,0,0,95.5,42.7a10,10,0,0,0,1.43-4.14c0-.43-.64-.67-1.87-.67a19.91,19.91,0,0,0-7.2,1.31,2.67,2.67,0,0,1-1.79.88,2.39,2.39,0,0,1-1.71-.72,2.23,2.23,0,0,1-.75-1.71c0-.76.48-1.23,1.43-1.47a80.68,80.68,0,0,1,10.38-1.67c3.14,0,4.73,1.39,4.73,4.13s-1.71,6.29-5.09,10.5c4.93,1.79,7.4,4.06,7.4,6.84A2.81,2.81,0,0,1,101.94,57.69Z" transform="translate(80.03)"/><path class="cls-2" d="M142.5,49.78a1.29,1.29,0,0,1-1,.51,2,2,0,0,1-1-.31c-.43-.24-.83-.44-1.23-.68-1.11-.52-2.7-1.27-4.69-2.27,0,2.71-.24,7.12-.68,13.32-.16,1.79-.75,2.71-1.83,2.71s-1.63-.6-1.63-1.75a3.29,3.29,0,0,1,.24-.91c.2-1.28.4-4.5.64-9.67s.32-9.42.32-12.88c0-1.12-.08-2.35-.2-3.7a3.91,3.91,0,0,1-.16-.83,1.54,1.54,0,0,1,.44-1.12,1.34,1.34,0,0,1,1-.51A1.7,1.7,0,0,1,134.43,33a31.3,31.3,0,0,1,.28,5.33c0,1.27,0,2.82-.12,4.69a39,39,0,0,0,6.8,3.46,2.26,2.26,0,0,1,1.51,2.1A1.85,1.85,0,0,1,142.5,49.78Z" transform="translate(80.03)"/><path class="cls-2" d="M181.59,54.43a39.4,39.4,0,0,1-6,6.28c-2.79,2.35-5,3.54-6.57,3.54-1.11,0-1.63-.59-1.63-1.71s.56-1.63,1.71-1.63a7.1,7.1,0,0,0,2.55-1.23c4.49-3.26,7.59-6.84,9.3-10.66a5,5,0,0,0,.6-2c0-1.47-1.07-2.22-3.18-2.22-.64,0-2.59.24-5.85.63a5.82,5.82,0,0,1-1.79.92A7.22,7.22,0,0,1,168,47c-1.63,0-2.43-.63-2.43-1.9,0-1,1-1.75,3-2.23a41.07,41.07,0,0,1,9.9-1.39,7.85,7.85,0,0,1,4.33,1.15,4.45,4.45,0,0,1,2,3.9C184.81,48.9,183.74,51.53,181.59,54.43ZM181.67,37a54.11,54.11,0,0,1-9.27.92,19.12,19.12,0,0,1-2.82-.12c-1.15-.24-1.71-.84-1.71-1.79a2.06,2.06,0,0,1,.6-1.39,1.87,1.87,0,0,1,1.31-.64,3,3,0,0,1,1.83.6c.52,0,.87,0,1.11,0,1,0,3.86-.28,8.55-.92,1,0,1.59.6,1.59,1.71A1.41,1.41,0,0,1,181.67,37Z" transform="translate(80.03)"/><path class="cls-2" d="M223.78,47.31a40.74,40.74,0,0,1-4.93,7.48,35.2,35.2,0,0,1-6.32,6.12c-2.23,1.63-3.62,2.47-4.26,2.47-1.19,0-1.79-.56-1.79-1.63a3.79,3.79,0,0,1,1.24-2.23c.83-1,1.47-1.47,1.9-1.47.12,0,.4.08.88.16a33.33,33.33,0,0,0,10.06-11.73,12.44,12.44,0,0,0,1.83-5.33,2.24,2.24,0,0,0-1-1.91,4.64,4.64,0,0,0-2.66-.76,30.91,30.91,0,0,0-5.84,1,47.13,47.13,0,0,1-6.09,7,2.34,2.34,0,0,1-1.59.83,1.29,1.29,0,0,1-1.07-.51,1.57,1.57,0,0,1-.44-1.16c0-.71.91-2.26,2.82-4.65a1.71,1.71,0,0,1,1.4-.44,18.26,18.26,0,0,0,2.62-3.7,15.36,15.36,0,0,0,1.75-3.93c.32-1.08.91-1.63,1.87-1.63a1.53,1.53,0,0,1,1.11.55,2,2,0,0,1,.52,1.24,16.06,16.06,0,0,1-.6,2.46,32.41,32.41,0,0,1,3.54-.36c4.53,0,6.84,2,6.84,5.77A15.42,15.42,0,0,1,223.78,47.31Z" transform="translate(80.03)"/><path class="cls-2" d="M260.09,52.08q-3.88,4.19-7.72,7.88c-1.19,1.11-2,1.71-2.46,1.71a1.48,1.48,0,0,1-1.16-.48,1.63,1.63,0,0,1-.47-1.15c0-.56.71-1.71,2.22-3.42a1.29,1.29,0,0,1,1-.32c2.46-2.39,4.65-4.65,6.48-6.8a55.16,55.16,0,0,1-5.21-3.9,1.46,1.46,0,0,1-.68-1.23,1.74,1.74,0,0,1,.52-1.19,1.71,1.71,0,0,1,1.27-.52,3,3,0,0,1,1.24.64A35.32,35.32,0,0,0,260,46.87c2.18-3.06,3.3-5.52,3.3-7.35,0-1.51-.88-2.31-2.55-2.31a9.61,9.61,0,0,0-4.89,1.51,5.11,5.11,0,0,1-1.55.72,1.34,1.34,0,0,1-.6-.16,37.32,37.32,0,0,1-3.53,4.81,1.59,1.59,0,0,1-1.2.6c-1,0-1.51-.56-1.51-1.75a1.92,1.92,0,0,1,.48-1.27,27.17,27.17,0,0,0,5.17-8.91c.32-.88.83-1.35,1.51-1.35,1.07,0,1.71,1.11,1.87,3.3a10.26,10.26,0,0,1,3.89-.8,6.72,6.72,0,0,1,4.3,1.47,5.1,5.1,0,0,1,1.71,4.06C266.37,43.38,264.26,47.59,260.09,52.08Z" transform="translate(80.03)"/><path class="cls-2" d="M311.38,49c-.24,0-2.26-.16-6.12-.4-4.61-.23-7.36-.39-8.27-.39a47.6,47.6,0,0,0-5.89.35,3.76,3.76,0,0,1-1.63.56,9,9,0,0,1-2.18.2,2.34,2.34,0,0,1-1.75-.68,1.84,1.84,0,0,1-.76-1.47c0-.63,1-1.11,2.86-1.51a44.51,44.51,0,0,1,8.12-.59q5.83,0,11.81.55a8,8,0,0,1,1.19-.16,4.93,4.93,0,0,1,2.58.72A2.05,2.05,0,0,1,312.5,48C312.5,48.58,312.1,48.94,311.38,49Z" transform="translate(80.03)"/><path class="cls-2" d="M347.09,54.35c-2.15,3.3-4.53,5.49-7.12,6.52a2.5,2.5,0,0,1-.91.24c-1,0-1.55-.64-1.55-1.87,0-.63.56-1.39,1.67-2.26a2.21,2.21,0,0,1,1.43-.48,21.82,21.82,0,0,0,4.41-5,11.75,11.75,0,0,0,2.15-6.32c0-2.07-1.51-3.31-4.49-3.74a38.57,38.57,0,0,1-5.77,10.85c-1.67,2.23-3.42,3.3-5.17,3.3a3.85,3.85,0,0,1-3.3-1.91,6.71,6.71,0,0,1-1.23-3.93c0-2.71,2-5.41,5.92-8.15,3.42-2.35,6.45-3.54,9-3.54a9.37,9.37,0,0,1,5.73,1.71,6.5,6.5,0,0,1,2.46,5.41A16.88,16.88,0,0,1,347.09,54.35Zm-13.32-9.14c-2.23,1.74-3.34,3.33-3.34,4.81a3,3,0,0,0,.48,1.51c.32.51.63.75.91.75,1.12,0,2.91-2,5.33-6.12a30.41,30.41,0,0,0,1.83-4A21.19,21.19,0,0,0,333.77,45.21Z" transform="translate(80.03)"/><path class="cls-2" d="M383.4,43.53c-2.15,1.75-3.42,2.63-3.9,2.63a1.42,1.42,0,0,1-1.63-1.63,1.84,1.84,0,0,1,.76-1.55c1.67-1.23,3.42-2.63,5.25-4.18h-3a19.15,19.15,0,0,1-5.29-.75c-2.58-.72-3.85-1.75-3.85-3.1,0-1.12.51-1.71,1.55-1.71a1.82,1.82,0,0,1,1.11.43c.8,1.24,3,1.83,6.64,1.83.16,0,1,0,2.43-.08l2.18-.08c2.47,0,3.7.6,3.7,1.71S387.33,40.27,383.4,43.53Zm5.41,15.91a11.44,11.44,0,0,1-6.72,2.07,12.66,12.66,0,0,1-6.76-1.75,5.7,5.7,0,0,1-3.19-5,7.35,7.35,0,0,1,2.11-4.61,1.35,1.35,0,0,1,1.12-.56,1.8,1.8,0,0,1,1.15.52,1.89,1.89,0,0,1,.48,1.23,3.93,3.93,0,0,1-1.28,2.15,4.18,4.18,0,0,0-.35,1.51c0,.95.63,1.71,1.9,2.3a10.66,10.66,0,0,0,4.93,1,8.67,8.67,0,0,0,4.42-1.16,2.55,2.55,0,0,1,1.07-.63c1.16,0,1.75.55,1.75,1.63A1.56,1.56,0,0,1,388.81,59.44Zm4.33-22.94a1,1,0,0,1-1-.68,11.23,11.23,0,0,0-2.31-2.9,1,1,0,0,1-.36-.8c0-.87.36-1.31,1.16-1.31a1.46,1.46,0,0,1,.91.4c.64.71,1.19,1.35,1.63,1.87a4.84,4.84,0,0,1,1,2.14C394.17,36.1,393.82,36.5,393.14,36.5ZM396,33.32a1.22,1.22,0,0,1-1.15-.72,4.16,4.16,0,0,0-1.15-1.27,1.28,1.28,0,0,1-.68-1.2A1,1,0,0,1,394.09,29,3,3,0,0,1,396,30.13,3.1,3.1,0,0,1,397,32C397,32.88,396.64,33.32,396,33.32Z" transform="translate(80.03)"/><path class="cls-2" d="M404.63,55.74a1.51,1.51,0,0,1,1.12.48c.27.36.71,1,1.31,1.83.95,1.35,1.95,2.82,3.06,4.45a2.4,2.4,0,0,1,.28,1.08,1,1,0,0,1-.76,1,1.59,1.59,0,0,1-1.07-.36c-.88-.55-2.35-2.34-4.34-5.37a5.16,5.16,0,0,1-.67-1.15,1.64,1.64,0,0,1-.2-.75C403.4,56.3,403.84,55.9,404.63,55.74ZM408.29,40c2.23-1.71,4-2.59,5.33-2.59.32.08.52.4.6.88,0,1.94-1.87,5.28-5.57,10,1.67-.8,3.66-1.79,6-3a4.9,4.9,0,0,1,1.71-.64,1.09,1.09,0,0,1,1.24,1.15,6.76,6.76,0,0,1-1.28,3.66,8.73,8.73,0,0,1-1.95,2.19,1.62,1.62,0,0,1-.83.24c-.4,0-.6-.2-.6-.56a1.28,1.28,0,0,1,.28-.68c.64-1.35,1.2-2.5,1.59-3.42q-6.07,4.77-8.87,5.13c-.71,0-1.11-.39-1.11-1.07a3.39,3.39,0,0,1,.72-1.71q2.39-4.23,5.72-9.46a11.52,11.52,0,0,1-6,3.57c-.64-.08-1-.55-1-1.43,3-4.85,4.78-9,5.33-12.4a1.69,1.69,0,0,1,1.67-1.08,1.2,1.2,0,0,1,1,1.2C412,32.36,410.64,35.7,408.29,40Zm1.07,13.87a1.49,1.49,0,0,1,1.08.48c.24.32.55.8,1,1.47.72,1.12,1.47,2.31,2.35,3.62a2.54,2.54,0,0,1,.2.92,1.08,1.08,0,0,1-.64.83,1.43,1.43,0,0,1-.95-.32c-.72-.43-1.91-1.79-3.58-4.17a6.84,6.84,0,0,1-.48-.92,1.41,1.41,0,0,1-.2-.75C408.21,54.39,408.61,54,409.36,53.83Zm9.63,4.5c-.12.24-.24.36-.4.39a1.52,1.52,0,0,1-.64.12,4.49,4.49,0,0,1-2.42-1.35,8.54,8.54,0,0,1-2.31-2.58,1.2,1.2,0,0,1-.32-.88,1.19,1.19,0,0,1,.36-.67,2.58,2.58,0,0,1,.64-.44c.08,0,.24,0,.4,0a1.38,1.38,0,0,1,.67.28,4.42,4.42,0,0,1,.8.87,8.7,8.7,0,0,0,3.14,3.1.83.83,0,0,1,.28.68A2,2,0,0,1,419,58.33Zm20.12-27.16a23.05,23.05,0,0,1-.56,3.42A69.9,69.9,0,0,1,436.29,42a22.54,22.54,0,0,1-1.56,3.62,2.5,2.5,0,0,1-2.22,1.67,4.34,4.34,0,0,1-2.43-.79,5.42,5.42,0,0,1-2.42-3.66.91.91,0,0,1,.91-1,.79.79,0,0,1,.68.36c1.55,1.39,2.58,2.11,3.14,2.11a6.91,6.91,0,0,0,.75-1.51c.28-.8.64-1.79,1-2.94.51-1.75,1.11-4,1.75-6.68l.16-.88a28.25,28.25,0,0,1-6.92,1.39,9.72,9.72,0,0,1-.72,3.06,27,27,0,0,1-1.87,4.06A18.78,18.78,0,0,1,424,44.65a18.65,18.65,0,0,1-2.79,2.66,2.21,2.21,0,0,1-1.51.68c-.55,0-.83-.4-.83-1.19,0-.24.24-.6.71-1.08a21.45,21.45,0,0,0,4.18-5.21,30.61,30.61,0,0,0,2-4.29c.08-.4.2-.84.28-1.23s.08-.76.08-1v-.08c-.8,0-1.56,0-2.31,0-1.59,0-2.39-.63-2.39-1.83,0-.63.48-1.07,1.36-1.31.27,0,.75,0,1.39,0a18.34,18.34,0,0,0,2.26.12A47.75,47.75,0,0,0,437,29.5C438.39,29.5,439.11,30.05,439.11,31.17ZM427.5,50.77a28.45,28.45,0,0,1,3.5-.28,25,25,0,0,1,3.34.2,5.8,5.8,0,0,1,3.1,1.55,3.7,3.7,0,0,1,.79,2.23,12,12,0,0,1-.63,3.14c-.2.48-.36.92-.52,1.27a1.22,1.22,0,0,1,.72.52,1.66,1.66,0,0,1,.12.64,2.74,2.74,0,0,1-.56,1.19,27,27,0,0,1-4.65,2,49.6,49.6,0,0,1-6.25,1.75c-.12.91-.55,1.39-1.35,1.43a1.09,1.09,0,0,1-1.23-1.15,44.34,44.34,0,0,0-.76-5.49c-.71-3.18-1.31-5.85-1.83-7.95a1.86,1.86,0,0,1,.48-.92,1.12,1.12,0,0,1,.92-.48,5,5,0,0,1,.83.08,1.87,1.87,0,0,1,.92.92.41.41,0,0,0,0,.16C425.27,51.29,426.3,51,427.5,50.77Zm1.23,10.62c1.79-.48,3.42-1,4.93-1.47a10.6,10.6,0,0,0,.88-1.75,12.63,12.63,0,0,0,.87-3.22c0-1-1.11-1.47-3.26-1.55a18.73,18.73,0,0,0-4.18.47c-1,.24-1.94.48-2.82.72.16.87.32,1.83.52,2.86.28,1.83.48,3.3.59,4.5C427.22,61.71,428,61.51,428.73,61.39Z" transform="translate(80.03)"/><path class="cls-2" d="M474.94,41.27,469,37.13c-1.79-1.43-3.7-3-5.76-4.77a6.71,6.71,0,0,1-1.24-1c-.24.32-.43.63-.67.91-1.16,1.43-2.71,3.1-4.69,5.09-1.75,2-3.7,4-5.81,6.09-1.19,1.19-2.55,2.62-4,4.29a1.49,1.49,0,0,1-1,.6c-.64,0-1-.28-1-.92a1.69,1.69,0,0,1,.35-1c.72-.8,1.63-1.87,2.83-3.14,1.31-1.59,3.06-3.62,5.29-6.09,1.74-2.07,3.61-4.21,5.56-6.44.56-.72,1.16-1.55,1.75-2.42a10,10,0,0,0,.56-1,3.1,3.1,0,0,1,1.39-.24,1.18,1.18,0,0,1,.91,1.2c0,.15,0,.27,0,.35.6.4,1.24.92,1.91,1.47,1.79,1.44,4.58,3.62,8.31,6.64,2,1.52,3.62,2.79,4.82,3.82.35.32.67.6,1,.92a1.72,1.72,0,0,1,.52,1,1.05,1.05,0,0,1-1.2,1.19.88.88,0,0,1-.43-.12A23.43,23.43,0,0,1,474.94,41.27ZM457.12,55.42c-.12,2.07-.24,3.7-.36,4.93s-.35,2.43-.51,3.38c-.6.68-1.12,1-1.59,1-.72,0-1.12-.28-1.12-.8a1,1,0,0,1,.24-.71c.08-.68.12-1.31.2-1.95.2-1.87.36-4.93.44-9.23,0-.47,0-4.13.12-11,0-.88.4-1.31,1.15-1.39h.56c.75.08,1.15.51,1.15,1.39C457.4,44.49,457.28,49.3,457.12,55.42ZM471,40.55v2.11c0,2,0,4.1,0,6.4V53a35.21,35.21,0,0,1-.95,8,36.64,36.64,0,0,1-1.71,5c-.32,1.12-.8,1.67-1.44,1.67a1,1,0,0,1-1.15-1.15c.28-1,.68-2.31,1.23-4.14a30,30,0,0,0,1.32-7.59c0-2.31,0-5.45-.08-9.47,0-1.15,0-2.3,0-3.46a6.21,6.21,0,0,1-.28-1.59c0-.39.28-.79.87-1.11a3.52,3.52,0,0,1,1.32-.24C470.52,38.92,470.84,39.48,471,40.55Z" transform="translate(80.03)"/><path class="cls-3" d="M15.49,36a45.71,45.71,0,0,1-2.82,3.7,24.28,24.28,0,0,1,1,7.79c0,1.67-.12,4.38-.36,8-.31,4.14-.47,6.49-.47,7.12,0,1.15-.56,1.75-1.59,1.75s-1.55-1-1.83-2.78c-.24-1.31-.36-2-.36-2.19,0-.4.28-.79.83-1.27q.6-8.54.6-10.26a36.63,36.63,0,0,0-.44-5.25c-.79.8-2.86,2.74-6.2,5.85a3.53,3.53,0,0,1-1.75,1.07C1,49.54.5,49,.5,47.87a2.1,2.1,0,0,1,.83-1.47,78.51,78.51,0,0,0,10.7-11,1.78,1.78,0,0,1,.36-1.11c1.19-1.71,2.15-2.58,2.86-2.58a1.79,1.79,0,0,1,1.12.43,1.68,1.68,0,0,1,.43,1.12A6.44,6.44,0,0,1,15.49,36Z" transform="translate(80.03)"/><path class="cls-3" d="M63.41,48.51a51,51,0,0,1-7.08,6.72,29.8,29.8,0,0,1-8.51,4.33,2.6,2.6,0,0,1-1.59.87,13,13,0,0,1-2.07.32c-1.51,0-2.26-.59-2.26-1.75,0-1,.35-1.51,1.15-1.71a30.9,30.9,0,0,0,10.06-3.85,39.93,39.93,0,0,0,8.11-7.2,1.46,1.46,0,0,1,1.15-.6c1,0,1.55.6,1.55,1.71A1.79,1.79,0,0,1,63.41,48.51ZM51.32,43.77a2.88,2.88,0,0,1-1.47-.83c-.32-.24-1.23-.8-2.75-1.67a2.67,2.67,0,0,1-1.59-2.39c0-1.11.64-1.71,2-1.71,1,0,2.59,1.2,4.89,3.54a1.79,1.79,0,0,1,.76,1.39C53.11,43.22,52.51,43.77,51.32,43.77Z" transform="translate(80.03)"/><path class="cls-3" d="M101.94,57.69a1.3,1.3,0,0,1-1.15.68c-1.12,0-1.67-.4-1.67-1.24a7.54,7.54,0,0,1,.12-1.19c-.24-.79-1.16-1.59-2.75-2.46A22.23,22.23,0,0,0,92.83,52,39.18,39.18,0,0,1,85,59.08a4.5,4.5,0,0,1-2.42.88,1.69,1.69,0,0,1-1.24-.44,1.61,1.61,0,0,1-.47-1.19,1.43,1.43,0,0,1,1.63-1.63q2-.84,5.6-4.54a58.06,58.06,0,0,0,5-5.68A28.58,28.58,0,0,0,95.5,42.7a10,10,0,0,0,1.43-4.14c0-.43-.64-.67-1.87-.67a19.91,19.91,0,0,0-7.2,1.31,2.67,2.67,0,0,1-1.79.88,2.39,2.39,0,0,1-1.71-.72,2.23,2.23,0,0,1-.75-1.71c0-.76.48-1.23,1.43-1.47a80.68,80.68,0,0,1,10.38-1.67c3.14,0,4.73,1.39,4.73,4.13s-1.71,6.29-5.09,10.5c4.93,1.79,7.4,4.06,7.4,6.84A2.81,2.81,0,0,1,101.94,57.69Z" transform="translate(80.03)"/><path class="cls-3" d="M142.5,49.78a1.29,1.29,0,0,1-1,.51,2,2,0,0,1-1-.31c-.43-.24-.83-.44-1.23-.68-1.11-.52-2.7-1.27-4.69-2.27,0,2.71-.24,7.12-.68,13.32-.16,1.79-.75,2.71-1.83,2.71s-1.63-.6-1.63-1.75a3.29,3.29,0,0,1,.24-.91c.2-1.28.4-4.5.64-9.67s.32-9.42.32-12.88c0-1.12-.08-2.35-.2-3.7a3.91,3.91,0,0,1-.16-.83,1.54,1.54,0,0,1,.44-1.12,1.34,1.34,0,0,1,1-.51A1.7,1.7,0,0,1,134.43,33a31.3,31.3,0,0,1,.28,5.33c0,1.27,0,2.82-.12,4.69a39,39,0,0,0,6.8,3.46,2.26,2.26,0,0,1,1.51,2.1A1.85,1.85,0,0,1,142.5,49.78Z" transform="translate(80.03)"/><path class="cls-3" d="M181.59,54.43a39.4,39.4,0,0,1-6,6.28c-2.79,2.35-5,3.54-6.57,3.54-1.11,0-1.63-.59-1.63-1.71s.56-1.63,1.71-1.63a7.1,7.1,0,0,0,2.55-1.23c4.49-3.26,7.59-6.84,9.3-10.66a5,5,0,0,0,.6-2c0-1.47-1.07-2.22-3.18-2.22-.64,0-2.59.24-5.85.63a5.82,5.82,0,0,1-1.79.92A7.22,7.22,0,0,1,168,47c-1.63,0-2.43-.63-2.43-1.9,0-1,1-1.75,3-2.23a41.07,41.07,0,0,1,9.9-1.39,7.85,7.85,0,0,1,4.33,1.15,4.45,4.45,0,0,1,2,3.9C184.81,48.9,183.74,51.53,181.59,54.43ZM181.67,37a54.11,54.11,0,0,1-9.27.92,19.12,19.12,0,0,1-2.82-.12c-1.15-.24-1.71-.84-1.71-1.79a2.06,2.06,0,0,1,.6-1.39,1.87,1.87,0,0,1,1.31-.64,3,3,0,0,1,1.83.6c.52,0,.87,0,1.11,0,1,0,3.86-.28,8.55-.92,1,0,1.59.6,1.59,1.71A1.41,1.41,0,0,1,181.67,37Z" transform="translate(80.03)"/><path class="cls-3" d="M223.78,47.31a40.74,40.74,0,0,1-4.93,7.48,35.2,35.2,0,0,1-6.32,6.12c-2.23,1.63-3.62,2.47-4.26,2.47-1.19,0-1.79-.56-1.79-1.63a3.79,3.79,0,0,1,1.24-2.23c.83-1,1.47-1.47,1.9-1.47.12,0,.4.08.88.16a33.33,33.33,0,0,0,10.06-11.73,12.44,12.44,0,0,0,1.83-5.33,2.24,2.24,0,0,0-1-1.91,4.64,4.64,0,0,0-2.66-.76,30.91,30.91,0,0,0-5.84,1,47.13,47.13,0,0,1-6.09,7,2.34,2.34,0,0,1-1.59.83,1.29,1.29,0,0,1-1.07-.51,1.57,1.57,0,0,1-.44-1.16c0-.71.91-2.26,2.82-4.65a1.71,1.71,0,0,1,1.4-.44,18.26,18.26,0,0,0,2.62-3.7,15.36,15.36,0,0,0,1.75-3.93c.32-1.08.91-1.63,1.87-1.63a1.53,1.53,0,0,1,1.11.55,2,2,0,0,1,.52,1.24,16.06,16.06,0,0,1-.6,2.46,32.41,32.41,0,0,1,3.54-.36c4.53,0,6.84,2,6.84,5.77A15.42,15.42,0,0,1,223.78,47.31Z" transform="translate(80.03)"/><path class="cls-3" d="M260.09,52.08q-3.88,4.19-7.72,7.88c-1.19,1.11-2,1.71-2.46,1.71a1.48,1.48,0,0,1-1.16-.48,1.63,1.63,0,0,1-.47-1.15c0-.56.71-1.71,2.22-3.42a1.29,1.29,0,0,1,1-.32c2.46-2.39,4.65-4.65,6.48-6.8a55.16,55.16,0,0,1-5.21-3.9,1.46,1.46,0,0,1-.68-1.23,1.74,1.74,0,0,1,.52-1.19,1.71,1.71,0,0,1,1.27-.52,3,3,0,0,1,1.24.64A35.32,35.32,0,0,0,260,46.87c2.18-3.06,3.3-5.52,3.3-7.35,0-1.51-.88-2.31-2.55-2.31a9.61,9.61,0,0,0-4.89,1.51,5.11,5.11,0,0,1-1.55.72,1.34,1.34,0,0,1-.6-.16,37.32,37.32,0,0,1-3.53,4.81,1.59,1.59,0,0,1-1.2.6c-1,0-1.51-.56-1.51-1.75a1.92,1.92,0,0,1,.48-1.27,27.17,27.17,0,0,0,5.17-8.91c.32-.88.83-1.35,1.51-1.35,1.07,0,1.71,1.11,1.87,3.3a10.26,10.26,0,0,1,3.89-.8,6.72,6.72,0,0,1,4.3,1.47,5.1,5.1,0,0,1,1.71,4.06C266.37,43.38,264.26,47.59,260.09,52.08Z" transform="translate(80.03)"/><path class="cls-3" d="M311.38,49c-.24,0-2.26-.16-6.12-.4-4.61-.23-7.36-.39-8.27-.39a47.6,47.6,0,0,0-5.89.35,3.76,3.76,0,0,1-1.63.56,9,9,0,0,1-2.18.2,2.34,2.34,0,0,1-1.75-.68,1.84,1.84,0,0,1-.76-1.47c0-.63,1-1.11,2.86-1.51a44.51,44.51,0,0,1,8.12-.59q5.83,0,11.81.55a8,8,0,0,1,1.19-.16,4.93,4.93,0,0,1,2.58.72A2.05,2.05,0,0,1,312.5,48C312.5,48.58,312.1,48.94,311.38,49Z" transform="translate(80.03)"/><path class="cls-3" d="M347.09,54.35c-2.15,3.3-4.53,5.49-7.12,6.52a2.5,2.5,0,0,1-.91.24c-1,0-1.55-.64-1.55-1.87,0-.63.56-1.39,1.67-2.26a2.21,2.21,0,0,1,1.43-.48,21.82,21.82,0,0,0,4.41-5,11.75,11.75,0,0,0,2.15-6.32c0-2.07-1.51-3.31-4.49-3.74a38.57,38.57,0,0,1-5.77,10.85c-1.67,2.23-3.42,3.3-5.17,3.3a3.85,3.85,0,0,1-3.3-1.91,6.71,6.71,0,0,1-1.23-3.93c0-2.71,2-5.41,5.92-8.15,3.42-2.35,6.45-3.54,9-3.54a9.37,9.37,0,0,1,5.73,1.71,6.5,6.5,0,0,1,2.46,5.41A16.88,16.88,0,0,1,347.09,54.35Zm-13.32-9.14c-2.23,1.74-3.34,3.33-3.34,4.81a3,3,0,0,0,.48,1.51c.32.51.63.75.91.75,1.12,0,2.91-2,5.33-6.12a30.41,30.41,0,0,0,1.83-4A21.19,21.19,0,0,0,333.77,45.21Z" transform="translate(80.03)"/><path class="cls-3" d="M383.4,43.53c-2.15,1.75-3.42,2.63-3.9,2.63a1.42,1.42,0,0,1-1.63-1.63,1.84,1.84,0,0,1,.76-1.55c1.67-1.23,3.42-2.63,5.25-4.18h-3a19.15,19.15,0,0,1-5.29-.75c-2.58-.72-3.85-1.75-3.85-3.1,0-1.12.51-1.71,1.55-1.71a1.82,1.82,0,0,1,1.11.43c.8,1.24,3,1.83,6.64,1.83.16,0,1,0,2.43-.08l2.18-.08c2.47,0,3.7.6,3.7,1.71S387.33,40.27,383.4,43.53Zm5.41,15.91a11.44,11.44,0,0,1-6.72,2.07,12.66,12.66,0,0,1-6.76-1.75,5.7,5.7,0,0,1-3.19-5,7.35,7.35,0,0,1,2.11-4.61,1.35,1.35,0,0,1,1.12-.56,1.8,1.8,0,0,1,1.15.52,1.89,1.89,0,0,1,.48,1.23,3.93,3.93,0,0,1-1.28,2.15,4.18,4.18,0,0,0-.35,1.51c0,.95.63,1.71,1.9,2.3a10.66,10.66,0,0,0,4.93,1,8.67,8.67,0,0,0,4.42-1.16,2.55,2.55,0,0,1,1.07-.63c1.16,0,1.75.55,1.75,1.63A1.56,1.56,0,0,1,388.81,59.44Zm4.33-22.94a1,1,0,0,1-1-.68,11.23,11.23,0,0,0-2.31-2.9,1,1,0,0,1-.36-.8c0-.87.36-1.31,1.16-1.31a1.46,1.46,0,0,1,.91.4c.64.71,1.19,1.35,1.63,1.87a4.84,4.84,0,0,1,1,2.14C394.17,36.1,393.82,36.5,393.14,36.5ZM396,33.32a1.22,1.22,0,0,1-1.15-.72,4.16,4.16,0,0,0-1.15-1.27,1.28,1.28,0,0,1-.68-1.2A1,1,0,0,1,394.09,29,3,3,0,0,1,396,30.13,3.1,3.1,0,0,1,397,32C397,32.88,396.64,33.32,396,33.32Z" transform="translate(80.03)"/><path class="cls-3" d="M404.63,55.74a1.51,1.51,0,0,1,1.12.48c.27.36.71,1,1.31,1.83.95,1.35,1.95,2.82,3.06,4.45a2.4,2.4,0,0,1,.28,1.08,1,1,0,0,1-.76,1,1.59,1.59,0,0,1-1.07-.36c-.88-.55-2.35-2.34-4.34-5.37a5.16,5.16,0,0,1-.67-1.15,1.64,1.64,0,0,1-.2-.75C403.4,56.3,403.84,55.9,404.63,55.74ZM408.29,40c2.23-1.71,4-2.59,5.33-2.59.32.08.52.4.6.88,0,1.94-1.87,5.28-5.57,10,1.67-.8,3.66-1.79,6-3a4.9,4.9,0,0,1,1.71-.64,1.09,1.09,0,0,1,1.24,1.15,6.76,6.76,0,0,1-1.28,3.66,8.73,8.73,0,0,1-1.95,2.19,1.62,1.62,0,0,1-.83.24c-.4,0-.6-.2-.6-.56a1.28,1.28,0,0,1,.28-.68c.64-1.35,1.2-2.5,1.59-3.42q-6.07,4.77-8.87,5.13c-.71,0-1.11-.39-1.11-1.07a3.39,3.39,0,0,1,.72-1.71q2.39-4.23,5.72-9.46a11.52,11.52,0,0,1-6,3.57c-.64-.08-1-.55-1-1.43,3-4.85,4.78-9,5.33-12.4a1.69,1.69,0,0,1,1.67-1.08,1.2,1.2,0,0,1,1,1.2C412,32.36,410.64,35.7,408.29,40Zm1.07,13.87a1.49,1.49,0,0,1,1.08.48c.24.32.55.8,1,1.47.72,1.12,1.47,2.31,2.35,3.62a2.54,2.54,0,0,1,.2.92,1.08,1.08,0,0,1-.64.83,1.43,1.43,0,0,1-.95-.32c-.72-.43-1.91-1.79-3.58-4.17a6.84,6.84,0,0,1-.48-.92,1.41,1.41,0,0,1-.2-.75C408.21,54.39,408.61,54,409.36,53.83Zm9.63,4.5c-.12.24-.24.36-.4.39a1.52,1.52,0,0,1-.64.12,4.49,4.49,0,0,1-2.42-1.35,8.54,8.54,0,0,1-2.31-2.58,1.2,1.2,0,0,1-.32-.88,1.19,1.19,0,0,1,.36-.67,2.58,2.58,0,0,1,.64-.44c.08,0,.24,0,.4,0a1.38,1.38,0,0,1,.67.28,4.42,4.42,0,0,1,.8.87,8.7,8.7,0,0,0,3.14,3.1.83.83,0,0,1,.28.68A2,2,0,0,1,419,58.33Zm20.12-27.16a23.05,23.05,0,0,1-.56,3.42A69.9,69.9,0,0,1,436.29,42a22.54,22.54,0,0,1-1.56,3.62,2.5,2.5,0,0,1-2.22,1.67,4.34,4.34,0,0,1-2.43-.79,5.42,5.42,0,0,1-2.42-3.66.91.91,0,0,1,.91-1,.79.79,0,0,1,.68.36c1.55,1.39,2.58,2.11,3.14,2.11a6.91,6.91,0,0,0,.75-1.51c.28-.8.64-1.79,1-2.94.51-1.75,1.11-4,1.75-6.68l.16-.88a28.25,28.25,0,0,1-6.92,1.39,9.72,9.72,0,0,1-.72,3.06,27,27,0,0,1-1.87,4.06A18.78,18.78,0,0,1,424,44.65a18.65,18.65,0,0,1-2.79,2.66,2.21,2.21,0,0,1-1.51.68c-.55,0-.83-.4-.83-1.19,0-.24.24-.6.71-1.08a21.45,21.45,0,0,0,4.18-5.21,30.61,30.61,0,0,0,2-4.29c.08-.4.2-.84.28-1.23s.08-.76.08-1v-.08c-.8,0-1.56,0-2.31,0-1.59,0-2.39-.63-2.39-1.83,0-.63.48-1.07,1.36-1.31.27,0,.75,0,1.39,0a18.34,18.34,0,0,0,2.26.12A47.75,47.75,0,0,0,437,29.5C438.39,29.5,439.11,30.05,439.11,31.17ZM427.5,50.77a28.45,28.45,0,0,1,3.5-.28,25,25,0,0,1,3.34.2,5.8,5.8,0,0,1,3.1,1.55,3.7,3.7,0,0,1,.79,2.23,12,12,0,0,1-.63,3.14c-.2.48-.36.92-.52,1.27a1.22,1.22,0,0,1,.72.52,1.66,1.66,0,0,1,.12.64,2.74,2.74,0,0,1-.56,1.19,27,27,0,0,1-4.65,2,49.6,49.6,0,0,1-6.25,1.75c-.12.91-.55,1.39-1.35,1.43a1.09,1.09,0,0,1-1.23-1.15,44.34,44.34,0,0,0-.76-5.49c-.71-3.18-1.31-5.85-1.83-7.95a1.86,1.86,0,0,1,.48-.92,1.12,1.12,0,0,1,.92-.48,5,5,0,0,1,.83.08,1.87,1.87,0,0,1,.92.92.41.41,0,0,0,0,.16C425.27,51.29,426.3,51,427.5,50.77Zm1.23,10.62c1.79-.48,3.42-1,4.93-1.47a10.6,10.6,0,0,0,.88-1.75,12.63,12.63,0,0,0,.87-3.22c0-1-1.11-1.47-3.26-1.55a18.73,18.73,0,0,0-4.18.47c-1,.24-1.94.48-2.82.72.16.87.32,1.83.52,2.86.28,1.83.48,3.3.59,4.5C427.22,61.71,428,61.51,428.73,61.39Z" transform="translate(80.03)"/><path class="cls-3" d="M474.94,41.27,469,37.13c-1.79-1.43-3.7-3-5.76-4.77a6.71,6.71,0,0,1-1.24-1c-.24.32-.43.63-.67.91-1.16,1.43-2.71,3.1-4.69,5.09-1.75,2-3.7,4-5.81,6.09-1.19,1.19-2.55,2.62-4,4.29a1.49,1.49,0,0,1-1,.6c-.64,0-1-.28-1-.92a1.69,1.69,0,0,1,.35-1c.72-.8,1.63-1.87,2.83-3.14,1.31-1.59,3.06-3.62,5.29-6.09,1.74-2.07,3.61-4.21,5.56-6.44.56-.72,1.16-1.55,1.75-2.42a10,10,0,0,0,.56-1,3.1,3.1,0,0,1,1.39-.24,1.18,1.18,0,0,1,.91,1.2c0,.15,0,.27,0,.35.6.4,1.24.92,1.91,1.47,1.79,1.44,4.58,3.62,8.31,6.64,2,1.52,3.62,2.79,4.82,3.82.35.32.67.6,1,.92a1.72,1.72,0,0,1,.52,1,1.05,1.05,0,0,1-1.2,1.19.88.88,0,0,1-.43-.12A23.43,23.43,0,0,1,474.94,41.27ZM457.12,55.42c-.12,2.07-.24,3.7-.36,4.93s-.35,2.43-.51,3.38c-.6.68-1.12,1-1.59,1-.72,0-1.12-.28-1.12-.8a1,1,0,0,1,.24-.71c.08-.68.12-1.31.2-1.95.2-1.87.36-4.93.44-9.23,0-.47,0-4.13.12-11,0-.88.4-1.31,1.15-1.39h.56c.75.08,1.15.51,1.15,1.39C457.4,44.49,457.28,49.3,457.12,55.42ZM471,40.55v2.11c0,2,0,4.1,0,6.4V53a35.21,35.21,0,0,1-.95,8,36.64,36.64,0,0,1-1.71,5c-.32,1.12-.8,1.67-1.44,1.67a1,1,0,0,1-1.15-1.15c.28-1,.68-2.31,1.23-4.14a30,30,0,0,0,1.32-7.59c0-2.31,0-5.45-.08-9.47,0-1.15,0-2.3,0-3.46a6.21,6.21,0,0,1-.28-1.59c0-.39.28-.79.87-1.11a3.52,3.52,0,0,1,1.32-.24C470.52,38.92,470.84,39.48,471,40.55Z" transform="translate(80.03)"/><path d="M111,88.76l-.3.29a49.05,49.05,0,0,1-9.88,5.39,2.44,2.44,0,0,0-.52.16.71.71,0,0,1-.56-.06.49.49,0,0,1-.13-.69,9.71,9.71,0,0,0,2.06-1.47,4.24,4.24,0,0,0,1.2-1.82,11.62,11.62,0,0,0,.46-2.78c.13-1.4.1-2.87.13-4.27l.13-8a5.72,5.72,0,0,1,.33-1.31c-2,.56-3.95,1.11-6,1.53a.94.94,0,0,1-.91-.42c-.07-.1-.16-.39.06-.46,2.91-.65,5.78-1.43,8.62-2.25a1.72,1.72,0,0,1,1,.26c.16.1.26.43,0,.53a1.8,1.8,0,0,1-.71.29,2.22,2.22,0,0,0-.66.26,2,2,0,0,0-.52.88,10.18,10.18,0,0,0-.19,1.08l-.1,8.81c0,.81,0,1.66,0,2.47a16.81,16.81,0,0,1-.23,2.48,7,7,0,0,1-1.21,2.61,54.17,54.17,0,0,0,7.63-4.3c.26-.17.66,0,.53.42Z" transform="translate(80.03)"/><path d="M120.27,94.11a3,3,0,0,1,0-.94,1,1,0,0,0,0-.3,53.16,53.16,0,0,0-.16-8.74,3.29,3.29,0,0,0-.13-.52.91.91,0,0,0-.27-.43.78.78,0,0,0-1-.06,5.8,5.8,0,0,0-1.11,1.2A17.14,17.14,0,0,0,115,89.41a23.84,23.84,0,0,0-1.07,4.6.5.5,0,0,1-.92,0c0-.59,0-1.73,0-2.35-.07-2.15-.36-5-.46-6.65a8.27,8.27,0,0,0-.49-2.71.53.53,0,0,1,.33-.59,1.12,1.12,0,0,1,.81.75l.17.33c.29,2.28.42,4.6.65,6.88a27.8,27.8,0,0,1,1.73-4,14.12,14.12,0,0,1,2.54-3.39,1.79,1.79,0,0,1,1.18-.39,2,2,0,0,1,1.17.52,6.35,6.35,0,0,1,.79,2.35,39.47,39.47,0,0,1,.13,4.21c0,1.3,0,2.64-.13,4a9.15,9.15,0,0,0,1.24-1.18l1.2-1.56c.17-.17.39.13.36.26a11.28,11.28,0,0,1-3,4C120.82,94.76,120.37,94.4,120.27,94.11Z" transform="translate(80.03)"/><path d="M126,94.44a2.08,2.08,0,0,1-1.11-1,3.82,3.82,0,0,1,0-1.47,1.58,1.58,0,0,1,.49-.78.42.42,0,0,1,.26-.07.26.26,0,0,1,.2.2c0,.39-.16.88-.16,1.31s.09.58.42.68a3.62,3.62,0,0,0,1.79,0,8.4,8.4,0,0,0,4.28-1.89.59.59,0,0,0,.13-.59,2.58,2.58,0,0,0-1.31-.52c-.91-.23-1.86-.33-2.8-.49a5.61,5.61,0,0,1-2.06-.62,1.85,1.85,0,0,1-.62-2A11.43,11.43,0,0,1,128.23,83a4.76,4.76,0,0,1,2.32-1.15,2.13,2.13,0,0,1,1.14.36,1.76,1.76,0,0,1,.72,1.24.59.59,0,0,1-.43.49c-.16-.16-.26-.32-.39-.45a2.05,2.05,0,0,0-.42-.36,1,1,0,0,0-.66-.2,1.34,1.34,0,0,0-.84.33,9,9,0,0,0-2.26,2.61,7.84,7.84,0,0,0-.78,1.79.54.54,0,0,0,.13.62,1.65,1.65,0,0,0,.88.39l2.35.39a13.71,13.71,0,0,1,2.28.53,1.86,1.86,0,0,1,1.11,1,1.38,1.38,0,0,1,0,1.14,6.7,6.7,0,0,1-3.23,2.22A8.65,8.65,0,0,1,126,94.44Z" transform="translate(80.03)"/><path d="M147.67,90.2c-1.27,2.28-3.42,4.34-6.46,4.3a3.15,3.15,0,0,1-2.7-1.89,31.06,31.06,0,0,1-.4-8.91c-1,.23-1.92.59-2.93.88a1.11,1.11,0,0,1-1.05-.62.42.42,0,0,1,.46-.48,1.21,1.21,0,0,0,.69-.07c.71-.2,2.18-.65,2.9-.88l.55-5.06a2.51,2.51,0,0,1,.23-.81.57.57,0,0,1,.88-.17,2.29,2.29,0,0,1,.62.62l.17.2a4.68,4.68,0,0,1,.45.62,3.5,3.5,0,0,1,.39.78c-.62-.06-.84-.39-1.27-.71a.72.72,0,0,0-.29-.2,2,2,0,0,0-.16.55l-.1,1.21c-.07,1-.23,2-.33,2.68.75-.07,1.57-.23,2.35-.33a5.72,5.72,0,0,1,2.38.2c.26.19.07.58-.13.68-.65,0-1.5.1-2.35.2a11.94,11.94,0,0,0-2.35.45,33.79,33.79,0,0,0,.2,8.35,2,2,0,0,0,1.73,1.6,6.11,6.11,0,0,0,5.64-3.19c.23-.36.43-.69.65-1s.4-.68.56-1c.06-.16.23-.1.29-.07a.31.31,0,0,1,.17.23,2.53,2.53,0,0,1-.27,1A8.62,8.62,0,0,1,147.67,90.2Z" transform="translate(80.03)"/><path d="M155.89,83.77a9,9,0,0,0-2.64,2,8,8,0,0,0-2.05,3,14.32,14.32,0,0,0,.58,2.77c.26.92.59,1.8.85,2.74a.37.37,0,0,1-.62.2l-.39-.42a28.54,28.54,0,0,1-1.76-6.46,10.64,10.64,0,0,1,.32-4.18c.17-.29.3-.65.46-1a1.45,1.45,0,0,1,.82-.75.77.77,0,0,1,.68.3c0,.45-.32.72-.52,1a.65.65,0,0,0-.13.33,7.92,7.92,0,0,0-.52,3.46,11,11,0,0,1,2.09-2.35,9.77,9.77,0,0,1,2.51-1.5,10.53,10.53,0,0,1,2.05-.62,2.28,2.28,0,0,1,1.31.06.39.39,0,0,1-.36.52A12.48,12.48,0,0,0,155.89,83.77Z" transform="translate(80.03)"/><path d="M169.53,93.56a2.87,2.87,0,0,1-1.6-1.37,16.21,16.21,0,0,1-.65-5.91,19.59,19.59,0,0,1-2.42,5.35A9.25,9.25,0,0,1,162.45,94a2.17,2.17,0,0,1-2.38-.16,3.5,3.5,0,0,1-.82-2.54c0-1.31.17-2.58.26-3.85a34.12,34.12,0,0,0,.17-5.55c.52-.36.94.16,1.07.49a30.35,30.35,0,0,1-.16,5.15A32.54,32.54,0,0,0,160.4,92a1.32,1.32,0,0,0,.88,1.17,1.93,1.93,0,0,0,1.56-.62,6.54,6.54,0,0,0,.82-.91c.23-.33.45-.69.68-1a13.5,13.5,0,0,0,1.57-3.13c.55-1.4.94-2.91,1.4-4.37a.33.33,0,0,0,.07-.13c.09-.17.19-.36.42-.36a.48.48,0,0,1,.55.39c-.06,1.43-.16,3.13-.13,4.66a13,13,0,0,0,.46,3.79,3.29,3.29,0,0,0,1.18,1.63c.13.1,0,.26,0,.33A.55.55,0,0,1,169.53,93.56Z" transform="translate(80.03)"/><path d="M172.07,93.65A4.33,4.33,0,0,1,170.54,91a8.78,8.78,0,0,1,.36-4,10.41,10.41,0,0,1,1.89-3.66,4.41,4.41,0,0,1,2.51-1.53,2.6,2.6,0,0,1,2.52,1,2.19,2.19,0,0,1,.09,2,4.75,4.75,0,0,1-.42.49.88.88,0,0,1-.65.26,1.18,1.18,0,0,1,.06-.39l.17-.26a.91.91,0,0,0,.16-.46,1.52,1.52,0,0,0-.33-1.24,1.62,1.62,0,0,0-1.6-.42,4.21,4.21,0,0,0-1.86,1.4,11.31,11.31,0,0,0-1.86,5.26,5,5,0,0,0,.49,2.61,3,3,0,0,0,2.39,1.4,3.14,3.14,0,0,0,2.18-.59,5.27,5.27,0,0,0,1.5-1.56,10.86,10.86,0,0,0,1-2,.26.26,0,0,1,.46.16,7.1,7.1,0,0,1-1.7,3.46A4.28,4.28,0,0,1,172.07,93.65Z" transform="translate(80.03)"/><path d="M193.51,90.2c-1.28,2.28-3.43,4.34-6.46,4.3a3.16,3.16,0,0,1-2.71-1.89A31.06,31.06,0,0,1,184,83.7c-1,.23-1.93.59-2.94.88a1.09,1.09,0,0,1-1-.62.42.42,0,0,1,.46-.48,1.17,1.17,0,0,0,.68-.07c.72-.2,2.19-.65,2.9-.88l.56-5.06a2.28,2.28,0,0,1,.23-.81.57.57,0,0,1,.88-.17,2.44,2.44,0,0,1,.62.62l.16.2a4.74,4.74,0,0,1,.46.62,3.5,3.5,0,0,1,.39.78c-.62-.06-.85-.39-1.27-.71a.75.75,0,0,0-.3-.2,3,3,0,0,0-.16.55l-.1,1.21c-.06,1-.23,2-.32,2.68.75-.07,1.56-.23,2.34-.33a5.76,5.76,0,0,1,2.39.2c.26.19.06.58-.13.68-.66,0-1.51.1-2.35.2a11.66,11.66,0,0,0-2.35.45,34.29,34.29,0,0,0,.19,8.35,2,2,0,0,0,1.73,1.6,6.14,6.14,0,0,0,5.65-3.19c.22-.36.42-.69.65-1s.39-.68.55-1c.07-.16.23-.1.3-.07a.33.33,0,0,1,.16.23,2.69,2.69,0,0,1-.26,1C193.87,89.61,193.67,89.94,193.51,90.2Z" transform="translate(80.03)"/><path d="M197.91,94.57a3.4,3.4,0,0,1-2.38-2,7.8,7.8,0,0,1-.1-4.89,9.87,9.87,0,0,1,2.68-4.3,5.84,5.84,0,0,1,2.57-1.6.59.59,0,0,1,.62.29,2.83,2.83,0,0,1,1.15.49,4.13,4.13,0,0,1,1.3,1.63,7.74,7.74,0,0,1,.56,4.7A8.68,8.68,0,0,1,202.25,93,4.71,4.71,0,0,1,197.91,94.57Zm2.64-11.68a2.94,2.94,0,0,1-.49.32l-.45.3a7.59,7.59,0,0,0-3,4.14,8.08,8.08,0,0,0-.17,4.24,2.27,2.27,0,0,0,1.7,1.54,3.22,3.22,0,0,0,2.87-.75A6.48,6.48,0,0,0,203.13,89a8.94,8.94,0,0,0,.07-3.46,4.07,4.07,0,0,0-1.73-2.51A.71.71,0,0,0,200.55,82.89Z" transform="translate(80.03)"/><path d="M212.49,83.77a9,9,0,0,0-2.64,2,8,8,0,0,0-2,3,14.32,14.32,0,0,0,.58,2.77c.26.92.59,1.8.85,2.74a.37.37,0,0,1-.62.2l-.39-.42a28.54,28.54,0,0,1-1.76-6.46,10.64,10.64,0,0,1,.32-4.18c.17-.29.3-.65.46-1a1.45,1.45,0,0,1,.82-.75.78.78,0,0,1,.68.3c0,.45-.32.72-.52,1a.65.65,0,0,0-.13.33,7.92,7.92,0,0,0-.52,3.46,11.22,11.22,0,0,1,2.08-2.35,10,10,0,0,1,2.52-1.5,10.53,10.53,0,0,1,2.05-.62,2.28,2.28,0,0,1,1.31.06.39.39,0,0,1-.36.52A12.48,12.48,0,0,0,212.49,83.77Z" transform="translate(80.03)"/><path d="M218,76.69a9.28,9.28,0,0,1-.13,1.34c-.09.26-.52.26-.58,0l-.1-1.14-.1-1.27c0-.62-.07-2-.16-2.84a.61.61,0,0,1,.85-.62.76.76,0,0,1,.39.55c0,.75-.07,1.63-.1,2.32Z" transform="translate(80.03)"/><path d="M221.89,94.44a2.08,2.08,0,0,1-1.11-1,3.82,3.82,0,0,1,0-1.47,1.58,1.58,0,0,1,.49-.78.42.42,0,0,1,.26-.07.26.26,0,0,1,.2.2c0,.39-.17.88-.17,1.31s.1.58.43.68a3.62,3.62,0,0,0,1.79,0,8.4,8.4,0,0,0,4.28-1.89.59.59,0,0,0,.13-.59,2.58,2.58,0,0,0-1.31-.52c-.91-.23-1.86-.33-2.8-.49a5.61,5.61,0,0,1-2.06-.62,1.85,1.85,0,0,1-.62-2A11.43,11.43,0,0,1,224.14,83a4.72,4.72,0,0,1,2.32-1.15,2.13,2.13,0,0,1,1.14.36,1.71,1.71,0,0,1,.71,1.24.57.57,0,0,1-.42.49c-.16-.16-.26-.32-.39-.45a1.87,1.87,0,0,0-.43-.36.92.92,0,0,0-.65-.2,1.37,1.37,0,0,0-.85.33,9.11,9.11,0,0,0-2.25,2.61,7.84,7.84,0,0,0-.78,1.79.54.54,0,0,0,.13.62,1.65,1.65,0,0,0,.88.39l2.35.39a13.71,13.71,0,0,1,2.28.53,1.89,1.89,0,0,1,1.11,1,1.38,1.38,0,0,1,0,1.14A6.7,6.7,0,0,1,226,93.92,8.65,8.65,0,0,1,221.89,94.44Z" transform="translate(80.03)"/><path d="M245.83,94.5a2.14,2.14,0,0,1-1.37-.26,2.55,2.55,0,0,1-.81-1.66,36.54,36.54,0,0,1,0-8c-.46.85-.92,1.63-1.41,2.45a16.31,16.31,0,0,1-2,2.64,1.58,1.58,0,0,1-.66.33.6.6,0,0,1-.32-.1.22.22,0,0,1,0-.33,21,21,0,0,0,2.51-3.65c.72-1.27,1.33-2.54,2.15-3.78.16-.27.65-.13.88,0A1,1,0,0,1,245,83c-.42,3.3-.78,7.7-.13,9.92a1,1,0,0,0,.62.56,1.54,1.54,0,0,0,1.05-.46,5.34,5.34,0,0,0,.88-1.08,7.22,7.22,0,0,0,.29-.72,2,2,0,0,1,.49-.71.64.64,0,0,1,.23.65l-.13.59a4.38,4.38,0,0,1-1.08,2A2.82,2.82,0,0,1,245.83,94.5Zm.82-19.28A19.28,19.28,0,0,0,242.57,74c-.33,0-.36-.68,0-.94a7.57,7.57,0,0,1,5.12,2,.92.92,0,0,1,.36.85,3.93,3.93,0,0,1-.75-.33Z" transform="translate(80.03)"/><path d="M257.87,94.11a3.29,3.29,0,0,1,0-.94,1,1,0,0,0,0-.3,52.08,52.08,0,0,0-.16-8.74,2.47,2.47,0,0,0-.13-.52,1,1,0,0,0-.26-.43.79.79,0,0,0-1-.06,5.3,5.3,0,0,0-1.11,1.2,16.94,16.94,0,0,0-2.65,5.09,24.61,24.61,0,0,0-1.07,4.6.5.5,0,0,1-.92,0c0-.59,0-1.73,0-2.35-.06-2.15-.36-5-.46-6.65a8.27,8.27,0,0,0-.49-2.71.53.53,0,0,1,.33-.59,1.15,1.15,0,0,1,.82.75l.16.33c.29,2.28.42,4.6.65,6.88a29,29,0,0,1,1.73-4,14.16,14.16,0,0,1,2.55-3.39,1.74,1.74,0,0,1,1.17-.39,2,2,0,0,1,1.17.52,6.35,6.35,0,0,1,.79,2.35,37,37,0,0,1,.13,4.21c0,1.3,0,2.64-.13,4a8.6,8.6,0,0,0,1.24-1.18l1.2-1.56c.17-.17.4.13.36.26a11.28,11.28,0,0,1-3,4C258.43,94.76,258,94.4,257.87,94.11Z" transform="translate(80.03)"/><path d="M275.49,90.2c-1.27,2.28-3.43,4.34-6.46,4.3a3.16,3.16,0,0,1-2.71-1.89,31.06,31.06,0,0,1-.39-8.91c-1,.23-1.93.59-2.94.88a1.09,1.09,0,0,1-1-.62.42.42,0,0,1,.46-.48,1.17,1.17,0,0,0,.68-.07c.72-.2,2.19-.65,2.9-.88l.56-5.06a2.28,2.28,0,0,1,.23-.81.57.57,0,0,1,.88-.17,2.44,2.44,0,0,1,.62.62l.16.2a4.74,4.74,0,0,1,.46.62,3.5,3.5,0,0,1,.39.78c-.62-.06-.85-.39-1.27-.71a.75.75,0,0,0-.3-.2,3,3,0,0,0-.16.55l-.1,1.21c-.06,1-.23,2-.32,2.68.75-.07,1.56-.23,2.34-.33a5.76,5.76,0,0,1,2.39.2c.26.19.06.58-.13.68-.66,0-1.5.1-2.35.2a11.66,11.66,0,0,0-2.35.45,34.29,34.29,0,0,0,.19,8.35,2,2,0,0,0,1.73,1.6,6.14,6.14,0,0,0,5.65-3.19c.22-.36.42-.69.65-1s.39-.68.55-1c.07-.16.23-.1.3-.07a.33.33,0,0,1,.16.23,2.69,2.69,0,0,1-.26,1C275.85,89.61,275.65,89.94,275.49,90.2Z" transform="translate(80.03)"/><path d="M283.71,83.77a8.82,8.82,0,0,0-2.64,2,8,8,0,0,0-2.06,3,15.11,15.11,0,0,0,.59,2.77c.26.92.59,1.8.85,2.74a.37.37,0,0,1-.62.2l-.4-.42a28.54,28.54,0,0,1-1.76-6.46,10.84,10.84,0,0,1,.33-4.18c.16-.29.29-.65.46-1a1.47,1.47,0,0,1,.81-.75.8.8,0,0,1,.69.3c0,.45-.33.72-.53,1-.06.13-.13.2-.13.33a8.22,8.22,0,0,0-.52,3.46,11.54,11.54,0,0,1,2.09-2.35,10,10,0,0,1,2.51-1.5,10.84,10.84,0,0,1,2.06-.62,2.24,2.24,0,0,1,1.3.06.39.39,0,0,1-.36.52A12.4,12.4,0,0,0,283.71,83.77Z" transform="translate(80.03)"/><path d="M289.68,94.57a3.4,3.4,0,0,1-2.38-2,7.8,7.8,0,0,1-.1-4.89,9.94,9.94,0,0,1,2.67-4.3,5.81,5.81,0,0,1,2.58-1.6.6.6,0,0,1,.62.29,2.73,2.73,0,0,1,1.14.49,4.07,4.07,0,0,1,1.31,1.63,7.74,7.74,0,0,1,.55,4.7A8.58,8.58,0,0,1,294,93,4.71,4.71,0,0,1,289.68,94.57Zm2.64-11.68a3.41,3.41,0,0,1-.49.32l-.46.3a7.69,7.69,0,0,0-3,4.14,8.08,8.08,0,0,0-.16,4.24,2.27,2.27,0,0,0,1.7,1.54,3.23,3.23,0,0,0,2.87-.75A6.54,6.54,0,0,0,294.9,89a8.75,8.75,0,0,0,.06-3.46,4,4,0,0,0-1.73-2.51A.7.7,0,0,0,292.32,82.89Z" transform="translate(80.03)"/><path d="M305.86,89.45c-.2-1.18-.16-2.42-.3-3.66A27.91,27.91,0,0,1,302.17,93a3,3,0,0,1-2.51,1.53,2.33,2.33,0,0,1-1.76-1.17,8.72,8.72,0,0,1-.33-4.28,12.76,12.76,0,0,1,1.93-5A3.7,3.7,0,0,1,302.66,82a2.93,2.93,0,0,1,2.06,1,2.78,2.78,0,0,1,.49,1.08,7.53,7.53,0,0,0,.39-2.06c.06-1,.06-2,.19-3.06s.26-2,.4-3a18.16,18.16,0,0,1,.58-2.9c.36-.55,1,0,.92.33-.36,2.77-.92,5.45-1,8.28a37.51,37.51,0,0,0,.49,8.94,4.69,4.69,0,0,0,.4,1c0,.1.09.23.13.39a.69.69,0,0,1-.85-.16A5,5,0,0,1,305.86,89.45ZM304,83.93a1.66,1.66,0,0,0-1-.78,1.48,1.48,0,0,0-1.28.16,8.36,8.36,0,0,0-1.5,1.76,14.7,14.7,0,0,0-1.6,4.7c0,.43,0,.88,0,1.34a3.85,3.85,0,0,0,.2,1.27,1.47,1.47,0,0,0,.75,1c.62.19,1.14-.16,1.6-.72a21.38,21.38,0,0,0,3.29-6.36.58.58,0,0,1-.26-.46A4.49,4.49,0,0,0,304,83.93Z" transform="translate(80.03)"/><path d="M319.53,93.56a2.84,2.84,0,0,1-1.6-1.37,16.21,16.21,0,0,1-.65-5.91,19.89,19.89,0,0,1-2.42,5.35A9.25,9.25,0,0,1,312.45,94a2.17,2.17,0,0,1-2.38-.16,3.46,3.46,0,0,1-.82-2.54c0-1.31.16-2.58.26-3.85a34.12,34.12,0,0,0,.17-5.55c.52-.36.94.16,1.07.49a30.35,30.35,0,0,1-.16,5.15,34.26,34.26,0,0,0-.2,4.41,1.35,1.35,0,0,0,.88,1.17,2,2,0,0,0,1.57-.62,8.11,8.11,0,0,0,.82-.91c.22-.33.45-.69.68-1a13.5,13.5,0,0,0,1.57-3.13c.55-1.4.94-2.91,1.4-4.37a.3.3,0,0,0,.06-.13c.1-.17.2-.36.43-.36a.48.48,0,0,1,.55.39c-.06,1.43-.16,3.13-.13,4.66a13,13,0,0,0,.46,3.79,3.34,3.34,0,0,0,1.17,1.63c.13.1,0,.26,0,.33A.5.5,0,0,1,319.53,93.56Z" transform="translate(80.03)"/><path d="M322.07,93.65A4.28,4.28,0,0,1,320.54,91a8.78,8.78,0,0,1,.36-4,10.41,10.41,0,0,1,1.89-3.66,4.41,4.41,0,0,1,2.51-1.53,2.58,2.58,0,0,1,2.51,1,2.16,2.16,0,0,1,.1,2,4.75,4.75,0,0,1-.42.49.88.88,0,0,1-.66.26,1.13,1.13,0,0,1,.07-.39l.16-.26a.84.84,0,0,0,.17-.46,1.56,1.56,0,0,0-.33-1.24,1.62,1.62,0,0,0-1.6-.42,4.21,4.21,0,0,0-1.86,1.4,11.31,11.31,0,0,0-1.86,5.26,5,5,0,0,0,.49,2.61,3,3,0,0,0,2.38,1.4,3.15,3.15,0,0,0,2.19-.59,5.27,5.27,0,0,0,1.5-1.56,11.56,11.56,0,0,0,1-2,.26.26,0,0,1,.46.16,7.1,7.1,0,0,1-1.7,3.46A4.28,4.28,0,0,1,322.07,93.65Z" transform="translate(80.03)"/><path d="M343.5,90.2c-1.27,2.28-3.42,4.34-6.45,4.3a3.15,3.15,0,0,1-2.71-1.89A31.06,31.06,0,0,1,334,83.7c-1,.23-1.93.59-2.94.88a1.09,1.09,0,0,1-1-.62.41.41,0,0,1,.45-.48,1.2,1.2,0,0,0,.69-.07c.72-.2,2.18-.65,2.9-.88l.56-5.06a2.27,2.27,0,0,1,.22-.81.58.58,0,0,1,.89-.17,2.44,2.44,0,0,1,.62.62l.16.2a5.86,5.86,0,0,1,.46.62,3.5,3.5,0,0,1,.39.78c-.62-.06-.85-.39-1.28-.71a.66.66,0,0,0-.29-.2,2.36,2.36,0,0,0-.16.55l-.1,1.21c-.07,1-.23,2-.33,2.68.75-.07,1.57-.23,2.35-.33a5.7,5.7,0,0,1,2.38.2c.27.19.07.58-.13.68-.65,0-1.5.1-2.35.2a11.7,11.7,0,0,0-2.34.45,33.79,33.79,0,0,0,.19,8.35,2,2,0,0,0,1.73,1.6,6.11,6.11,0,0,0,5.64-3.19l.66-1c.19-.36.39-.68.55-1,.07-.16.23-.1.29-.07a.31.31,0,0,1,.17.23,2.69,2.69,0,0,1-.26,1C343.86,89.61,343.67,89.94,343.5,90.2Z" transform="translate(80.03)"/><path d="M351.2,94.5a2.14,2.14,0,0,1-1.37-.26,2.55,2.55,0,0,1-.81-1.66,36.54,36.54,0,0,1,0-8c-.46.85-.92,1.63-1.4,2.45a17,17,0,0,1-2,2.64A1.61,1.61,0,0,1,345,90a.6.6,0,0,1-.33-.1.22.22,0,0,1,0-.33,21,21,0,0,0,2.51-3.65c.72-1.27,1.34-2.54,2.15-3.78.17-.27.65-.13.88,0a1,1,0,0,1,.17.84c-.43,3.3-.79,7.7-.13,9.92a.94.94,0,0,0,.62.56,1.54,1.54,0,0,0,1-.46,5.34,5.34,0,0,0,.88-1.08,5.42,5.42,0,0,0,.29-.72,2,2,0,0,1,.49-.71.64.64,0,0,1,.23.65l-.13.59a4.38,4.38,0,0,1-1.08,2A2.73,2.73,0,0,1,351.2,94.5ZM352,75.22A19.28,19.28,0,0,0,347.94,74c-.32,0-.36-.68,0-.94a7.55,7.55,0,0,1,5.12,2,.9.9,0,0,1,.36.85,3.93,3.93,0,0,1-.75-.33Z" transform="translate(80.03)"/><path d="M358,94.57a3.4,3.4,0,0,1-2.38-2,7.88,7.88,0,0,1-.1-4.89,10,10,0,0,1,2.68-4.3,5.81,5.81,0,0,1,2.58-1.6.6.6,0,0,1,.62.29,2.85,2.85,0,0,1,1.14.49,4.13,4.13,0,0,1,1.3,1.63,7.74,7.74,0,0,1,.56,4.7A8.59,8.59,0,0,1,362.36,93,4.71,4.71,0,0,1,358,94.57Zm2.64-11.68a3.34,3.34,0,0,1-.48.32l-.46.3a7.64,7.64,0,0,0-3,4.14,8.08,8.08,0,0,0-.17,4.24,2.27,2.27,0,0,0,1.7,1.54,3.22,3.22,0,0,0,2.87-.75A6.48,6.48,0,0,0,363.24,89a8.94,8.94,0,0,0,.07-3.46,4.07,4.07,0,0,0-1.73-2.51A.71.71,0,0,0,360.66,82.89Z" transform="translate(80.03)"/><path d="M374,94.11a3,3,0,0,1,0-.94,1,1,0,0,0,0-.3,52.09,52.09,0,0,0-.17-8.74,2,2,0,0,0-.13-.52.89.89,0,0,0-.26-.43.78.78,0,0,0-1-.06,5.8,5.8,0,0,0-1.11,1.2,16.91,16.91,0,0,0-2.64,5.09,24.63,24.63,0,0,0-1.08,4.6.49.49,0,0,1-.91,0c0-.59,0-1.73,0-2.35-.07-2.15-.36-5-.46-6.65a8.27,8.27,0,0,0-.49-2.71.52.52,0,0,1,.33-.59,1.12,1.12,0,0,1,.81.75l.17.33c.29,2.28.42,4.6.65,6.88a27.8,27.8,0,0,1,1.73-4A14.12,14.12,0,0,1,372,82.3a1.79,1.79,0,0,1,1.18-.39,2,2,0,0,1,1.17.52,6.52,6.52,0,0,1,.78,2.35,34.83,34.83,0,0,1,.13,4.21,37.32,37.32,0,0,1-.13,4,8.11,8.11,0,0,0,1.24-1.18l1.21-1.56c.16-.17.39.13.36.26a11.4,11.4,0,0,1-3,4C374.56,94.76,374.1,94.4,374,94.11Z" transform="translate(80.03)"/><path class="cls-4" d="M111,88.76l-.3.29a49.05,49.05,0,0,1-9.88,5.39,2.44,2.44,0,0,0-.52.16.71.71,0,0,1-.56-.06.49.49,0,0,1-.13-.69,9.71,9.71,0,0,0,2.06-1.47,4.24,4.24,0,0,0,1.2-1.82,11.62,11.62,0,0,0,.46-2.78c.13-1.4.1-2.87.13-4.27l.13-8a5.72,5.72,0,0,1,.33-1.31c-2,.56-3.95,1.11-6,1.53a.94.94,0,0,1-.91-.42c-.07-.1-.16-.39.06-.46,2.91-.65,5.78-1.43,8.62-2.25a1.72,1.72,0,0,1,1,.26c.16.1.26.43,0,.53a1.8,1.8,0,0,1-.71.29,2.22,2.22,0,0,0-.66.26,2,2,0,0,0-.52.88,10.18,10.18,0,0,0-.19,1.08l-.1,8.81c0,.81,0,1.66,0,2.47a16.81,16.81,0,0,1-.23,2.48,7,7,0,0,1-1.21,2.61,54.17,54.17,0,0,0,7.63-4.3c.26-.17.66,0,.53.42Z" transform="translate(80.03)"/><path class="cls-4" d="M120.27,94.11a3,3,0,0,1,0-.94,1,1,0,0,0,0-.3,53.16,53.16,0,0,0-.16-8.74,3.29,3.29,0,0,0-.13-.52.91.91,0,0,0-.27-.43.78.78,0,0,0-1-.06,5.8,5.8,0,0,0-1.11,1.2A17.14,17.14,0,0,0,115,89.41a23.84,23.84,0,0,0-1.07,4.6.5.5,0,0,1-.92,0c0-.59,0-1.73,0-2.35-.07-2.15-.36-5-.46-6.65a8.27,8.27,0,0,0-.49-2.71.53.53,0,0,1,.33-.59,1.12,1.12,0,0,1,.81.75l.17.33c.29,2.28.42,4.6.65,6.88a27.8,27.8,0,0,1,1.73-4,14.12,14.12,0,0,1,2.54-3.39,1.79,1.79,0,0,1,1.18-.39,2,2,0,0,1,1.17.52,6.35,6.35,0,0,1,.79,2.35,39.47,39.47,0,0,1,.13,4.21c0,1.3,0,2.64-.13,4a9.15,9.15,0,0,0,1.24-1.18l1.2-1.56c.17-.17.39.13.36.26a11.28,11.28,0,0,1-3,4C120.82,94.76,120.37,94.4,120.27,94.11Z" transform="translate(80.03)"/><path class="cls-4" d="M126,94.44a2.08,2.08,0,0,1-1.11-1,3.82,3.82,0,0,1,0-1.47,1.58,1.58,0,0,1,.49-.78.42.42,0,0,1,.26-.07.26.26,0,0,1,.2.2c0,.39-.16.88-.16,1.31s.09.58.42.68a3.62,3.62,0,0,0,1.79,0,8.4,8.4,0,0,0,4.28-1.89.59.59,0,0,0,.13-.59,2.58,2.58,0,0,0-1.31-.52c-.91-.23-1.86-.33-2.8-.49a5.61,5.61,0,0,1-2.06-.62,1.85,1.85,0,0,1-.62-2A11.43,11.43,0,0,1,128.23,83a4.76,4.76,0,0,1,2.32-1.15,2.13,2.13,0,0,1,1.14.36,1.76,1.76,0,0,1,.72,1.24.59.59,0,0,1-.43.49c-.16-.16-.26-.32-.39-.45a2.05,2.05,0,0,0-.42-.36,1,1,0,0,0-.66-.2,1.34,1.34,0,0,0-.84.33,9,9,0,0,0-2.26,2.61,7.84,7.84,0,0,0-.78,1.79.54.54,0,0,0,.13.62,1.65,1.65,0,0,0,.88.39l2.35.39a13.71,13.71,0,0,1,2.28.53,1.86,1.86,0,0,1,1.11,1,1.38,1.38,0,0,1,0,1.14,6.7,6.7,0,0,1-3.23,2.22A8.65,8.65,0,0,1,126,94.44Z" transform="translate(80.03)"/><path class="cls-4" d="M147.67,90.2c-1.27,2.28-3.42,4.34-6.46,4.3a3.15,3.15,0,0,1-2.7-1.89,31.06,31.06,0,0,1-.4-8.91c-1,.23-1.92.59-2.93.88a1.11,1.11,0,0,1-1.05-.62.42.42,0,0,1,.46-.48,1.21,1.21,0,0,0,.69-.07c.71-.2,2.18-.65,2.9-.88l.55-5.06a2.51,2.51,0,0,1,.23-.81.57.57,0,0,1,.88-.17,2.29,2.29,0,0,1,.62.62l.17.2a4.68,4.68,0,0,1,.45.62,3.5,3.5,0,0,1,.39.78c-.62-.06-.84-.39-1.27-.71a.72.72,0,0,0-.29-.2,2,2,0,0,0-.16.55l-.1,1.21c-.07,1-.23,2-.33,2.68.75-.07,1.57-.23,2.35-.33a5.72,5.72,0,0,1,2.38.2c.26.19.07.58-.13.68-.65,0-1.5.1-2.35.2a11.94,11.94,0,0,0-2.35.45,33.79,33.79,0,0,0,.2,8.35,2,2,0,0,0,1.73,1.6,6.11,6.11,0,0,0,5.64-3.19c.23-.36.43-.69.65-1s.4-.68.56-1c.06-.16.23-.1.29-.07a.31.31,0,0,1,.17.23,2.53,2.53,0,0,1-.27,1A8.62,8.62,0,0,1,147.67,90.2Z" transform="translate(80.03)"/><path class="cls-4" d="M155.89,83.77a9,9,0,0,0-2.64,2,8,8,0,0,0-2.05,3,14.32,14.32,0,0,0,.58,2.77c.26.92.59,1.8.85,2.74a.37.37,0,0,1-.62.2l-.39-.42a28.54,28.54,0,0,1-1.76-6.46,10.64,10.64,0,0,1,.32-4.18c.17-.29.3-.65.46-1a1.45,1.45,0,0,1,.82-.75.77.77,0,0,1,.68.3c0,.45-.32.72-.52,1a.65.65,0,0,0-.13.33,7.92,7.92,0,0,0-.52,3.46,11,11,0,0,1,2.09-2.35,9.77,9.77,0,0,1,2.51-1.5,10.53,10.53,0,0,1,2.05-.62,2.28,2.28,0,0,1,1.31.06.39.39,0,0,1-.36.52A12.48,12.48,0,0,0,155.89,83.77Z" transform="translate(80.03)"/><path class="cls-4" d="M169.53,93.56a2.87,2.87,0,0,1-1.6-1.37,16.21,16.21,0,0,1-.65-5.91,19.59,19.59,0,0,1-2.42,5.35A9.25,9.25,0,0,1,162.45,94a2.17,2.17,0,0,1-2.38-.16,3.5,3.5,0,0,1-.82-2.54c0-1.31.17-2.58.26-3.85a34.12,34.12,0,0,0,.17-5.55c.52-.36.94.16,1.07.49a30.35,30.35,0,0,1-.16,5.15A32.54,32.54,0,0,0,160.4,92a1.32,1.32,0,0,0,.88,1.17,1.93,1.93,0,0,0,1.56-.62,6.54,6.54,0,0,0,.82-.91c.23-.33.45-.69.68-1a13.5,13.5,0,0,0,1.57-3.13c.55-1.4.94-2.91,1.4-4.37a.33.33,0,0,0,.07-.13c.09-.17.19-.36.42-.36a.48.48,0,0,1,.55.39c-.06,1.43-.16,3.13-.13,4.66a13,13,0,0,0,.46,3.79,3.29,3.29,0,0,0,1.18,1.63c.13.1,0,.26,0,.33A.55.55,0,0,1,169.53,93.56Z" transform="translate(80.03)"/><path class="cls-4" d="M172.07,93.65A4.33,4.33,0,0,1,170.54,91a8.78,8.78,0,0,1,.36-4,10.41,10.41,0,0,1,1.89-3.66,4.41,4.41,0,0,1,2.51-1.53,2.6,2.6,0,0,1,2.52,1,2.19,2.19,0,0,1,.09,2,4.75,4.75,0,0,1-.42.49.88.88,0,0,1-.65.26,1.18,1.18,0,0,1,.06-.39l.17-.26a.91.91,0,0,0,.16-.46,1.52,1.52,0,0,0-.33-1.24,1.62,1.62,0,0,0-1.6-.42,4.21,4.21,0,0,0-1.86,1.4,11.31,11.31,0,0,0-1.86,5.26,5,5,0,0,0,.49,2.61,3,3,0,0,0,2.39,1.4,3.14,3.14,0,0,0,2.18-.59,5.27,5.27,0,0,0,1.5-1.56,10.86,10.86,0,0,0,1-2,.26.26,0,0,1,.46.16,7.1,7.1,0,0,1-1.7,3.46A4.28,4.28,0,0,1,172.07,93.65Z" transform="translate(80.03)"/><path class="cls-4" d="M193.51,90.2c-1.28,2.28-3.43,4.34-6.46,4.3a3.16,3.16,0,0,1-2.71-1.89A31.06,31.06,0,0,1,184,83.7c-1,.23-1.93.59-2.94.88a1.09,1.09,0,0,1-1-.62.42.42,0,0,1,.46-.48,1.17,1.17,0,0,0,.68-.07c.72-.2,2.19-.65,2.9-.88l.56-5.06a2.28,2.28,0,0,1,.23-.81.57.57,0,0,1,.88-.17,2.44,2.44,0,0,1,.62.62l.16.2a4.74,4.74,0,0,1,.46.62,3.5,3.5,0,0,1,.39.78c-.62-.06-.85-.39-1.27-.71a.75.75,0,0,0-.3-.2,3,3,0,0,0-.16.55l-.1,1.21c-.06,1-.23,2-.32,2.68.75-.07,1.56-.23,2.34-.33a5.76,5.76,0,0,1,2.39.2c.26.19.06.58-.13.68-.66,0-1.51.1-2.35.2a11.66,11.66,0,0,0-2.35.45,34.29,34.29,0,0,0,.19,8.35,2,2,0,0,0,1.73,1.6,6.14,6.14,0,0,0,5.65-3.19c.22-.36.42-.69.65-1s.39-.68.55-1c.07-.16.23-.1.3-.07a.33.33,0,0,1,.16.23,2.69,2.69,0,0,1-.26,1C193.87,89.61,193.67,89.94,193.51,90.2Z" transform="translate(80.03)"/><path class="cls-4" d="M197.91,94.57a3.4,3.4,0,0,1-2.38-2,7.8,7.8,0,0,1-.1-4.89,9.87,9.87,0,0,1,2.68-4.3,5.84,5.84,0,0,1,2.57-1.6.59.59,0,0,1,.62.29,2.83,2.83,0,0,1,1.15.49,4.13,4.13,0,0,1,1.3,1.63,7.74,7.74,0,0,1,.56,4.7A8.68,8.68,0,0,1,202.25,93,4.71,4.71,0,0,1,197.91,94.57Zm2.64-11.68a2.94,2.94,0,0,1-.49.32l-.45.3a7.59,7.59,0,0,0-3,4.14,8.08,8.08,0,0,0-.17,4.24,2.27,2.27,0,0,0,1.7,1.54,3.22,3.22,0,0,0,2.87-.75A6.48,6.48,0,0,0,203.13,89a8.94,8.94,0,0,0,.07-3.46,4.07,4.07,0,0,0-1.73-2.51A.71.71,0,0,0,200.55,82.89Z" transform="translate(80.03)"/><path class="cls-4" d="M212.49,83.77a9,9,0,0,0-2.64,2,8,8,0,0,0-2,3,14.32,14.32,0,0,0,.58,2.77c.26.92.59,1.8.85,2.74a.37.37,0,0,1-.62.2l-.39-.42a28.54,28.54,0,0,1-1.76-6.46,10.64,10.64,0,0,1,.32-4.18c.17-.29.3-.65.46-1a1.45,1.45,0,0,1,.82-.75.78.78,0,0,1,.68.3c0,.45-.32.72-.52,1a.65.65,0,0,0-.13.33,7.92,7.92,0,0,0-.52,3.46,11.22,11.22,0,0,1,2.08-2.35,10,10,0,0,1,2.52-1.5,10.53,10.53,0,0,1,2.05-.62,2.28,2.28,0,0,1,1.31.06.39.39,0,0,1-.36.52A12.48,12.48,0,0,0,212.49,83.77Z" transform="translate(80.03)"/><path class="cls-4" d="M218,76.69a9.28,9.28,0,0,1-.13,1.34c-.09.26-.52.26-.58,0l-.1-1.14-.1-1.27c0-.62-.07-2-.16-2.84a.61.61,0,0,1,.85-.62.76.76,0,0,1,.39.55c0,.75-.07,1.63-.1,2.32Z" transform="translate(80.03)"/><path class="cls-4" d="M221.89,94.44a2.08,2.08,0,0,1-1.11-1,3.82,3.82,0,0,1,0-1.47,1.58,1.58,0,0,1,.49-.78.42.42,0,0,1,.26-.07.26.26,0,0,1,.2.2c0,.39-.17.88-.17,1.31s.1.58.43.68a3.62,3.62,0,0,0,1.79,0,8.4,8.4,0,0,0,4.28-1.89.59.59,0,0,0,.13-.59,2.58,2.58,0,0,0-1.31-.52c-.91-.23-1.86-.33-2.8-.49a5.61,5.61,0,0,1-2.06-.62,1.85,1.85,0,0,1-.62-2A11.43,11.43,0,0,1,224.14,83a4.72,4.72,0,0,1,2.32-1.15,2.13,2.13,0,0,1,1.14.36,1.71,1.71,0,0,1,.71,1.24.57.57,0,0,1-.42.49c-.16-.16-.26-.32-.39-.45a1.87,1.87,0,0,0-.43-.36.92.92,0,0,0-.65-.2,1.37,1.37,0,0,0-.85.33,9.11,9.11,0,0,0-2.25,2.61,7.84,7.84,0,0,0-.78,1.79.54.54,0,0,0,.13.62,1.65,1.65,0,0,0,.88.39l2.35.39a13.71,13.71,0,0,1,2.28.53,1.89,1.89,0,0,1,1.11,1,1.38,1.38,0,0,1,0,1.14A6.7,6.7,0,0,1,226,93.92,8.65,8.65,0,0,1,221.89,94.44Z" transform="translate(80.03)"/><path class="cls-4" d="M245.83,94.5a2.14,2.14,0,0,1-1.37-.26,2.55,2.55,0,0,1-.81-1.66,36.54,36.54,0,0,1,0-8c-.46.85-.92,1.63-1.41,2.45a16.31,16.31,0,0,1-2,2.64,1.58,1.58,0,0,1-.66.33.6.6,0,0,1-.32-.1.22.22,0,0,1,0-.33,21,21,0,0,0,2.51-3.65c.72-1.27,1.33-2.54,2.15-3.78.16-.27.65-.13.88,0A1,1,0,0,1,245,83c-.42,3.3-.78,7.7-.13,9.92a1,1,0,0,0,.62.56,1.54,1.54,0,0,0,1.05-.46,5.34,5.34,0,0,0,.88-1.08,7.22,7.22,0,0,0,.29-.72,2,2,0,0,1,.49-.71.64.64,0,0,1,.23.65l-.13.59a4.38,4.38,0,0,1-1.08,2A2.82,2.82,0,0,1,245.83,94.5Zm.82-19.28A19.28,19.28,0,0,0,242.57,74c-.33,0-.36-.68,0-.94a7.57,7.57,0,0,1,5.12,2,.92.92,0,0,1,.36.85,3.93,3.93,0,0,1-.75-.33Z" transform="translate(80.03)"/><path class="cls-4" d="M257.87,94.11a3.29,3.29,0,0,1,0-.94,1,1,0,0,0,0-.3,52.08,52.08,0,0,0-.16-8.74,2.47,2.47,0,0,0-.13-.52,1,1,0,0,0-.26-.43.79.79,0,0,0-1-.06,5.3,5.3,0,0,0-1.11,1.2,16.94,16.94,0,0,0-2.65,5.09,24.61,24.61,0,0,0-1.07,4.6.5.5,0,0,1-.92,0c0-.59,0-1.73,0-2.35-.06-2.15-.36-5-.46-6.65a8.27,8.27,0,0,0-.49-2.71.53.53,0,0,1,.33-.59,1.15,1.15,0,0,1,.82.75l.16.33c.29,2.28.42,4.6.65,6.88a29,29,0,0,1,1.73-4,14.16,14.16,0,0,1,2.55-3.39,1.74,1.74,0,0,1,1.17-.39,2,2,0,0,1,1.17.52,6.35,6.35,0,0,1,.79,2.35,37,37,0,0,1,.13,4.21c0,1.3,0,2.64-.13,4a8.6,8.6,0,0,0,1.24-1.18l1.2-1.56c.17-.17.4.13.36.26a11.28,11.28,0,0,1-3,4C258.43,94.76,258,94.4,257.87,94.11Z" transform="translate(80.03)"/><path class="cls-4" d="M275.49,90.2c-1.27,2.28-3.43,4.34-6.46,4.3a3.16,3.16,0,0,1-2.71-1.89,31.06,31.06,0,0,1-.39-8.91c-1,.23-1.93.59-2.94.88a1.09,1.09,0,0,1-1-.62.42.42,0,0,1,.46-.48,1.17,1.17,0,0,0,.68-.07c.72-.2,2.19-.65,2.9-.88l.56-5.06a2.28,2.28,0,0,1,.23-.81.57.57,0,0,1,.88-.17,2.44,2.44,0,0,1,.62.62l.16.2a4.74,4.74,0,0,1,.46.62,3.5,3.5,0,0,1,.39.78c-.62-.06-.85-.39-1.27-.71a.75.75,0,0,0-.3-.2,3,3,0,0,0-.16.55l-.1,1.21c-.06,1-.23,2-.32,2.68.75-.07,1.56-.23,2.34-.33a5.76,5.76,0,0,1,2.39.2c.26.19.06.58-.13.68-.66,0-1.5.1-2.35.2a11.66,11.66,0,0,0-2.35.45,34.29,34.29,0,0,0,.19,8.35,2,2,0,0,0,1.73,1.6,6.14,6.14,0,0,0,5.65-3.19c.22-.36.42-.69.65-1s.39-.68.55-1c.07-.16.23-.1.3-.07a.33.33,0,0,1,.16.23,2.69,2.69,0,0,1-.26,1C275.85,89.61,275.65,89.94,275.49,90.2Z" transform="translate(80.03)"/><path class="cls-4" d="M283.71,83.77a8.82,8.82,0,0,0-2.64,2,8,8,0,0,0-2.06,3,15.11,15.11,0,0,0,.59,2.77c.26.92.59,1.8.85,2.74a.37.37,0,0,1-.62.2l-.4-.42a28.54,28.54,0,0,1-1.76-6.46,10.84,10.84,0,0,1,.33-4.18c.16-.29.29-.65.46-1a1.47,1.47,0,0,1,.81-.75.8.8,0,0,1,.69.3c0,.45-.33.72-.53,1-.06.13-.13.2-.13.33a8.22,8.22,0,0,0-.52,3.46,11.54,11.54,0,0,1,2.09-2.35,10,10,0,0,1,2.51-1.5,10.84,10.84,0,0,1,2.06-.62,2.24,2.24,0,0,1,1.3.06.39.39,0,0,1-.36.52A12.4,12.4,0,0,0,283.71,83.77Z" transform="translate(80.03)"/><path class="cls-4" d="M289.68,94.57a3.4,3.4,0,0,1-2.38-2,7.8,7.8,0,0,1-.1-4.89,9.94,9.94,0,0,1,2.67-4.3,5.81,5.81,0,0,1,2.58-1.6.6.6,0,0,1,.62.29,2.73,2.73,0,0,1,1.14.49,4.07,4.07,0,0,1,1.31,1.63,7.74,7.74,0,0,1,.55,4.7A8.58,8.58,0,0,1,294,93,4.71,4.71,0,0,1,289.68,94.57Zm2.64-11.68a3.41,3.41,0,0,1-.49.32l-.46.3a7.69,7.69,0,0,0-3,4.14,8.08,8.08,0,0,0-.16,4.24,2.27,2.27,0,0,0,1.7,1.54,3.23,3.23,0,0,0,2.87-.75A6.54,6.54,0,0,0,294.9,89a8.75,8.75,0,0,0,.06-3.46,4,4,0,0,0-1.73-2.51A.7.7,0,0,0,292.32,82.89Z" transform="translate(80.03)"/><path class="cls-4" d="M305.86,89.45c-.2-1.18-.16-2.42-.3-3.66A27.91,27.91,0,0,1,302.17,93a3,3,0,0,1-2.51,1.53,2.33,2.33,0,0,1-1.76-1.17,8.72,8.72,0,0,1-.33-4.28,12.76,12.76,0,0,1,1.93-5A3.7,3.7,0,0,1,302.66,82a2.93,2.93,0,0,1,2.06,1,2.78,2.78,0,0,1,.49,1.08,7.53,7.53,0,0,0,.39-2.06c.06-1,.06-2,.19-3.06s.26-2,.4-3a18.16,18.16,0,0,1,.58-2.9c.36-.55,1,0,.92.33-.36,2.77-.92,5.45-1,8.28a37.51,37.51,0,0,0,.49,8.94,4.69,4.69,0,0,0,.4,1c0,.1.09.23.13.39a.69.69,0,0,1-.85-.16A5,5,0,0,1,305.86,89.45ZM304,83.93a1.66,1.66,0,0,0-1-.78,1.48,1.48,0,0,0-1.28.16,8.36,8.36,0,0,0-1.5,1.76,14.7,14.7,0,0,0-1.6,4.7c0,.43,0,.88,0,1.34a3.85,3.85,0,0,0,.2,1.27,1.47,1.47,0,0,0,.75,1c.62.19,1.14-.16,1.6-.72a21.38,21.38,0,0,0,3.29-6.36.58.58,0,0,1-.26-.46A4.49,4.49,0,0,0,304,83.93Z" transform="translate(80.03)"/><path class="cls-4" d="M319.53,93.56a2.84,2.84,0,0,1-1.6-1.37,16.21,16.21,0,0,1-.65-5.91,19.89,19.89,0,0,1-2.42,5.35A9.25,9.25,0,0,1,312.45,94a2.17,2.17,0,0,1-2.38-.16,3.46,3.46,0,0,1-.82-2.54c0-1.31.16-2.58.26-3.85a34.12,34.12,0,0,0,.17-5.55c.52-.36.94.16,1.07.49a30.35,30.35,0,0,1-.16,5.15,34.26,34.26,0,0,0-.2,4.41,1.35,1.35,0,0,0,.88,1.17,2,2,0,0,0,1.57-.62,8.11,8.11,0,0,0,.82-.91c.22-.33.45-.69.68-1a13.5,13.5,0,0,0,1.57-3.13c.55-1.4.94-2.91,1.4-4.37a.3.3,0,0,0,.06-.13c.1-.17.2-.36.43-.36a.48.48,0,0,1,.55.39c-.06,1.43-.16,3.13-.13,4.66a13,13,0,0,0,.46,3.79,3.34,3.34,0,0,0,1.17,1.63c.13.1,0,.26,0,.33A.5.5,0,0,1,319.53,93.56Z" transform="translate(80.03)"/><path class="cls-4" d="M322.07,93.65A4.28,4.28,0,0,1,320.54,91a8.78,8.78,0,0,1,.36-4,10.41,10.41,0,0,1,1.89-3.66,4.41,4.41,0,0,1,2.51-1.53,2.58,2.58,0,0,1,2.51,1,2.16,2.16,0,0,1,.1,2,4.75,4.75,0,0,1-.42.49.88.88,0,0,1-.66.26,1.13,1.13,0,0,1,.07-.39l.16-.26a.84.84,0,0,0,.17-.46,1.56,1.56,0,0,0-.33-1.24,1.62,1.62,0,0,0-1.6-.42,4.21,4.21,0,0,0-1.86,1.4,11.31,11.31,0,0,0-1.86,5.26,5,5,0,0,0,.49,2.61,3,3,0,0,0,2.38,1.4,3.15,3.15,0,0,0,2.19-.59,5.27,5.27,0,0,0,1.5-1.56,11.56,11.56,0,0,0,1-2,.26.26,0,0,1,.46.16,7.1,7.1,0,0,1-1.7,3.46A4.28,4.28,0,0,1,322.07,93.65Z" transform="translate(80.03)"/><path class="cls-4" d="M343.5,90.2c-1.27,2.28-3.42,4.34-6.45,4.3a3.15,3.15,0,0,1-2.71-1.89A31.06,31.06,0,0,1,334,83.7c-1,.23-1.93.59-2.94.88a1.09,1.09,0,0,1-1-.62.41.41,0,0,1,.45-.48,1.2,1.2,0,0,0,.69-.07c.72-.2,2.18-.65,2.9-.88l.56-5.06a2.27,2.27,0,0,1,.22-.81.58.58,0,0,1,.89-.17,2.44,2.44,0,0,1,.62.62l.16.2a5.86,5.86,0,0,1,.46.62,3.5,3.5,0,0,1,.39.78c-.62-.06-.85-.39-1.28-.71a.66.66,0,0,0-.29-.2,2.36,2.36,0,0,0-.16.55l-.1,1.21c-.07,1-.23,2-.33,2.68.75-.07,1.57-.23,2.35-.33a5.7,5.7,0,0,1,2.38.2c.27.19.07.58-.13.68-.65,0-1.5.1-2.35.2a11.7,11.7,0,0,0-2.34.45,33.79,33.79,0,0,0,.19,8.35,2,2,0,0,0,1.73,1.6,6.11,6.11,0,0,0,5.64-3.19l.66-1c.19-.36.39-.68.55-1,.07-.16.23-.1.29-.07a.31.31,0,0,1,.17.23,2.69,2.69,0,0,1-.26,1C343.86,89.61,343.67,89.94,343.5,90.2Z" transform="translate(80.03)"/><path class="cls-4" d="M351.2,94.5a2.14,2.14,0,0,1-1.37-.26,2.55,2.55,0,0,1-.81-1.66,36.54,36.54,0,0,1,0-8c-.46.85-.92,1.63-1.4,2.45a17,17,0,0,1-2,2.64A1.61,1.61,0,0,1,345,90a.6.6,0,0,1-.33-.1.22.22,0,0,1,0-.33,21,21,0,0,0,2.51-3.65c.72-1.27,1.34-2.54,2.15-3.78.17-.27.65-.13.88,0a1,1,0,0,1,.17.84c-.43,3.3-.79,7.7-.13,9.92a.94.94,0,0,0,.62.56,1.54,1.54,0,0,0,1-.46,5.34,5.34,0,0,0,.88-1.08,5.42,5.42,0,0,0,.29-.72,2,2,0,0,1,.49-.71.64.64,0,0,1,.23.65l-.13.59a4.38,4.38,0,0,1-1.08,2A2.73,2.73,0,0,1,351.2,94.5ZM352,75.22A19.28,19.28,0,0,0,347.94,74c-.32,0-.36-.68,0-.94a7.55,7.55,0,0,1,5.12,2,.9.9,0,0,1,.36.85,3.93,3.93,0,0,1-.75-.33Z" transform="translate(80.03)"/><path class="cls-4" d="M358,94.57a3.4,3.4,0,0,1-2.38-2,7.88,7.88,0,0,1-.1-4.89,10,10,0,0,1,2.68-4.3,5.81,5.81,0,0,1,2.58-1.6.6.6,0,0,1,.62.29,2.85,2.85,0,0,1,1.14.49,4.13,4.13,0,0,1,1.3,1.63,7.74,7.74,0,0,1,.56,4.7A8.59,8.59,0,0,1,362.36,93,4.71,4.71,0,0,1,358,94.57Zm2.64-11.68a3.34,3.34,0,0,1-.48.32l-.46.3a7.64,7.64,0,0,0-3,4.14,8.08,8.08,0,0,0-.17,4.24,2.27,2.27,0,0,0,1.7,1.54,3.22,3.22,0,0,0,2.87-.75A6.48,6.48,0,0,0,363.24,89a8.94,8.94,0,0,0,.07-3.46,4.07,4.07,0,0,0-1.73-2.51A.71.71,0,0,0,360.66,82.89Z" transform="translate(80.03)"/><path class="cls-4" d="M374,94.11a3,3,0,0,1,0-.94,1,1,0,0,0,0-.3,52.09,52.09,0,0,0-.17-8.74,2,2,0,0,0-.13-.52.89.89,0,0,0-.26-.43.78.78,0,0,0-1-.06,5.8,5.8,0,0,0-1.11,1.2,16.91,16.91,0,0,0-2.64,5.09,24.63,24.63,0,0,0-1.08,4.6.49.49,0,0,1-.91,0c0-.59,0-1.73,0-2.35-.07-2.15-.36-5-.46-6.65a8.27,8.27,0,0,0-.49-2.71.52.52,0,0,1,.33-.59,1.12,1.12,0,0,1,.81.75l.17.33c.29,2.28.42,4.6.65,6.88a27.8,27.8,0,0,1,1.73-4A14.12,14.12,0,0,1,372,82.3a1.79,1.79,0,0,1,1.18-.39,2,2,0,0,1,1.17.52,6.52,6.52,0,0,1,.78,2.35,34.83,34.83,0,0,1,.13,4.21,37.32,37.32,0,0,1-.13,4,8.11,8.11,0,0,0,1.24-1.18l1.21-1.56c.16-.17.39.13.36.26a11.4,11.4,0,0,1-3,4C374.56,94.76,374.1,94.4,374,94.11Z" transform="translate(80.03)"/><line class="cls-5" y1="68" x2="640" y2="68"/></g></g></svg>