<svg xmlns="http://www.w3.org/2000/svg" xmlns:xlink="http://www.w3.org/1999/xlink" viewBox="0 0 1300 721"><defs><style>.cls-1,.cls-4{fill:none;}.cls-2{fill:url(#名称未設定グラデーション_3);}.cls-3{fill:red;}.cls-4{stroke:red;stroke-miterlimit:10;stroke-width:1.5px;}.cls-5{fill:#fff;fill-opacity:0.7;}</style><radialGradient id="名称未設定グラデーション_3" cx="289.22" cy="131.5" r="60.47" gradientTransform="translate(41.58 -52.72) rotate(10.07)" gradientUnits="userSpaceOnUse"><stop offset="0" stop-color="#fff"/><stop offset="1" stop-color="#fdefef"/></radialGradient></defs><g id="レイヤー_2" data-name="レイヤー 2"><g id="レイヤー_2-2" data-name="レイヤー 2"><rect class="cls-1" width="1300" height="721"/><ellipse class="cls-2" cx="303.35" cy="127.31" rx="79.41" ry="31.71" transform="translate(-22.84 84.54) rotate(-15.3)"/><path d="M195.1,121.24c-.43,1.75-.9,3.43-1.44,5,.62.74,1.28,1.48,1.91,2.18a91.9,91.9,0,0,0,10.17,10.76c2.34,2,4.49,3.82,6.51,5.58a2.12,2.12,0,0,1,1,1.71,1,1,0,0,1-.74,1h-.27a3.36,3.36,0,0,1-1.37-.42,51.37,51.37,0,0,1-5.73-4.33,62.94,62.94,0,0,1-12.28-13.1,1.46,1.46,0,0,1-.35-.51c-.16.47-.35.9-.51,1.29-.86,1.83-1.87,4-3.08,6.39-.74,1.44-1.44,2.73-2.07,3.82A9.75,9.75,0,0,1,185,143a1.77,1.77,0,0,1-1,.31,1.07,1.07,0,0,1-1-1.05,1.68,1.68,0,0,1,.32-1.09c.43-.7.89-1.52,1.4-2.38.94-1.64,2-3.47,3-5.57.74-1.72,1.52-3.59,2.34-5.7a56.57,56.57,0,0,0,2.11-7,45.25,45.25,0,0,0,.66-6.28,1.11,1.11,0,0,1,1-1c.24,0,.51,0,.86,0,.74,0,1.13.7,1.17,2A28.08,28.08,0,0,1,195.1,121.24Z"/><path d="M220.64,127.05c.46-.12,1-.24,1.55-.35,3.05-.71,5.93-1.45,8.7-2.23a68.23,68.23,0,0,0,10.06-3.9c1.09,0,1.67.36,1.75,1a20.79,20.79,0,0,0-2,6,34.33,34.33,0,0,0-.23,4.06c.16,6.74,2.53,11.42,7.13,14.15a15.38,15.38,0,0,0,.75-2.88,1.14,1.14,0,0,1,1.24-1.25,1.36,1.36,0,0,1,1.17,1.05,17,17,0,0,1-.5,3.63c-.47,2.18-1.13,3.31-2,3.31q-1.76-.06-4.33-2.34a20.29,20.29,0,0,1-4.8-7.56,22.83,22.83,0,0,1-1.4-8.27,15.77,15.77,0,0,1,.27-3.08,20.44,20.44,0,0,1,.9-4.25,85.09,85.09,0,0,1-15.71,5.15,12,12,0,0,1-2.22.43c-.59-.08-.94-.47-1.09-1.21A1.42,1.42,0,0,1,220.64,127.05Zm14.23,19.68-5.23-3.39c-.23-.15-.43-.31-.66-.46-.63.93-1.29,1.87-2,2.8a27.45,27.45,0,0,1-3.62,3.55,2.13,2.13,0,0,1-1.37.66c-.58,0-.86-.39-.86-1.09,0-.23.24-.58.74-1a33.08,33.08,0,0,0,5.07-6.47c-.82-.55-1.64-1.17-2.41-1.8a5.42,5.42,0,0,1-1.41-1.13,1.89,1.89,0,0,1-.54-.78v-.35a2.54,2.54,0,0,1,.31-.9,1.19,1.19,0,0,1,1.17-.81,3.7,3.7,0,0,1,.7.15,8.79,8.79,0,0,1,1.91,1.33c.47.39,1.09.89,1.79,1.44a36.82,36.82,0,0,0,1.68-4.25c.16-.58.31-1.17.43-1.79a10.83,10.83,0,0,0,.15-1.37,2.76,2.76,0,0,0-.11-.74c0-.54.11-.93.35-1.09a2,2,0,0,1,.89-.2,2.75,2.75,0,0,1,1.33.51,1.32,1.32,0,0,1,.58,1.21,14.43,14.43,0,0,1-1,4.25,26.48,26.48,0,0,1-2.26,5.11c1,.82,2.14,1.67,3.35,2.61,1.72,1.29,3.08,2.38,4.13,3.23a8.54,8.54,0,0,1,.9.78,1.64,1.64,0,0,1,.39.86.92.92,0,0,1-1,1.06,1.71,1.71,0,0,0-.43-.08A19.84,19.84,0,0,1,234.87,146.73Zm2-28.1c-.7.7-2.49,1.48-5.3,2.37-1.64.47-3.12.9-4.44,1.25l-.94.24a9.93,9.93,0,0,1-1.4.07c-.7,0-1.13-.5-1.21-1.48q0-.64,1.05-1.17c.43-.15.94-.31,1.56-.5,1.72-.32,3.35-.71,5-1.1,2.26-.58,4.06-1.09,5.38-1.56a1,1,0,0,1,.82.39,1.18,1.18,0,0,1,.08.39A1.51,1.51,0,0,1,236.85,118.63Zm-2.76-4.1a30.71,30.71,0,0,1-6.32,1.52h-.51a1.78,1.78,0,0,1-1.24-.31,1.61,1.61,0,0,1-.75-1.48,7,7,0,0,1,.2-1.68,10.57,10.57,0,0,1,.58-1.44A1.41,1.41,0,0,1,227.3,110h.24a1.35,1.35,0,0,1,1.28,1.44,4.88,4.88,0,0,0-.66,1.76,25.83,25.83,0,0,0,4.21-.82A32.06,32.06,0,0,0,236,111.3a5.52,5.52,0,0,1,1.44-.35,1,1,0,0,1,.86.89,1.4,1.4,0,0,1-.35,1A15.29,15.29,0,0,1,234.09,114.53Z"/><path d="M276.89,136.91c-2.1,3.24-4.44,5.38-7,6.39a2.47,2.47,0,0,1-.89.24c-1,0-1.52-.63-1.52-1.83,0-.63.54-1.37,1.63-2.23a2.19,2.19,0,0,1,1.41-.46,21.67,21.67,0,0,0,4.32-4.92,11.51,11.51,0,0,0,2.11-6.2c0-2-1.48-3.23-4.41-3.66a37.57,37.57,0,0,1-5.65,10.64c-1.64,2.19-3.35,3.24-5.07,3.24a3.79,3.79,0,0,1-3.23-1.87,6.57,6.57,0,0,1-1.21-3.86c0-2.65,1.91-5.3,5.81-8,3.35-2.3,6.31-3.47,8.81-3.47a9.22,9.22,0,0,1,5.61,1.67,6.38,6.38,0,0,1,2.42,5.3A16.56,16.56,0,0,1,276.89,136.91Zm-13.06-9c-2.18,1.72-3.27,3.28-3.27,4.72a2.94,2.94,0,0,0,.46,1.48c.32.51.63.74.9.74,1.09,0,2.85-2,5.23-6a31.19,31.19,0,0,0,1.79-3.94A21,21,0,0,0,263.83,127.94Z"/><path d="M299.35,145.84a1.59,1.59,0,0,1,.82-1.48,30.58,30.58,0,0,0,3.89-2.23c-.27-.27-.5-.54-.74-.81q-4.32-4.4-4.32-8.07a21,21,0,0,1,.35-3.63c.15-1.05.31-2.11.5-3.12-2.57.62-5.18,1.33-7.91,2.15a2.85,2.85,0,0,1-1.09.31,1,1,0,0,1-.94-.63,2.13,2.13,0,0,1-.15-1c0-.39.35-.82,1-1.21a49.83,49.83,0,0,1,6.78-2.22c1-.27,2-.51,3-.7a55.55,55.55,0,0,0,.74-5.73c0-.36,0-.74-.08-1.21a6,6,0,0,1-.2-1.33,2.3,2.3,0,0,1,.55-1.52,2,2,0,0,1,1.05-.39,1.38,1.38,0,0,1,1,.47,6,6,0,0,1,.62,3.24,46,46,0,0,1-.43,5.18,3.88,3.88,0,0,0-.08.59c.08,0,.12-.08.16-.08,2.5-.55,4.91-1,7.25-1.41,1.87-.31,3.75-.58,5.66-.81s3.11-.32,3.89-.32c1,.08,1.49.55,1.56,1.41a1.53,1.53,0,0,1-1.36,1.6c-1.17.15-2.3.27-3.39.38-1.48.2-3,.39-4.53.63.12.47.24,1,.36,1.56a36.27,36.27,0,0,1,.27,3.66,19.07,19.07,0,0,1-2.57,9.87,27.69,27.69,0,0,1-2.27,3c.32.23.67.47,1,.74,1.13.78,2.07,1.44,2.77,2a1,1,0,0,1,.35.7,1.17,1.17,0,0,1-1.13,1.36h-.35a6.41,6.41,0,0,1-2.89-1.09c-.7-.51-1.4-1-2-1.56a22,22,0,0,1-3.47,2.34,3.56,3.56,0,0,1-1.71.59A1.64,1.64,0,0,1,299.35,145.84Zm3.66-20c-.19.86-.39,1.75-.54,2.69a27.56,27.56,0,0,0-.75,4.72c0,1.63,1.37,3.74,4.1,6.27l.66.67a15.32,15.32,0,0,0,2.89-4.06,16.59,16.59,0,0,0,1.44-5.81,24.55,24.55,0,0,0-.39-4.64c-.12-.46-.24-.89-.31-1.28C308,124.75,305.58,125.21,303,125.8Z"/><path d="M326.91,131.65a14.27,14.27,0,0,1-.55,1.95,2.73,2.73,0,0,1-.35.85,1.54,1.54,0,0,1-1.21.55c-.54,0-.82-.31-.82-.82a3.67,3.67,0,0,1,.16-1c.08-.63.2-1.29.27-2,0-.55,0-1.09,0-1.6a19.76,19.76,0,0,0-.23-3.39,4.46,4.46,0,0,1-.16-1,1.73,1.73,0,0,1,.43-1.29,1.51,1.51,0,0,1,.86-.27,1.62,1.62,0,0,1,.9.27,8.35,8.35,0,0,1,.7,1,29.89,29.89,0,0,1,.23,4.06A19.37,19.37,0,0,1,326.91,131.65Zm5.57,11.23c-.07,1-.15,2-.19,2.92-.23,1-.7,1.56-1.48,1.56s-1.29-.55-1.29-1.6v-5.3c.08-3.12.12-5.15.12-6.16,0-3.59,0-6.43-.08-8.58a69.94,69.94,0,0,0-.74-9.2,1.43,1.43,0,0,1,.74-1.29,2.2,2.2,0,0,1,.94-.27,1.1,1.1,0,0,1,.93.47,2.44,2.44,0,0,1,.43,1.29c.2,2.33.39,5.22.58,8.65v.35a6.71,6.71,0,0,1,.71-.23,12.82,12.82,0,0,0,2-.67c.32-.07.59-.15.75-.19a1.83,1.83,0,0,1,.62-.12.89.89,0,0,1,.82.43,2.66,2.66,0,0,1,.08.51,2.31,2.31,0,0,1-.67,1.17,4.93,4.93,0,0,1-1.4.89,8.15,8.15,0,0,1-2,.86,2.25,2.25,0,0,1-.82.2c0,1.87,0,3.82,0,5.92S332.52,139.29,332.48,142.88Zm23.12-13q-1.39,1.41-7,3.4c0,1.79-.11,3.58-.27,5.34-.11,1.44-.23,2.65-.35,3.62,1.48-.19,2.93-.35,4.29-.5s2.61-.28,3.86-.43c1-.08,2-.12,2.88-.12,1.1.08,1.72.47,1.88,1.21a1.37,1.37,0,0,1-1.25,1.44c-.86.12-1.8.23-2.73.39-1.17.08-2.46.23-3.78.39-2.61.31-5.27.66-8,1.09-2.49.39-4.79.78-6.9,1.25-.7.08-1.24.16-1.67.16s-.59-.28-.74-.75a4.31,4.31,0,0,1-.08-1.16q.18-.7,2.22-1.17a36.44,36.44,0,0,1,5-1.06c.86-.15,1.72-.27,2.57-.39.08-.74.16-1.67.28-2.84.19-2.26.31-4.17.35-5.66-1.52.47-2.93.94-4.21,1.33-.55.16-1,.23-1.21.31a12.56,12.56,0,0,1-1.56.12c-.74,0-1.17-.55-1.33-1.6,0-.47.39-.94,1.17-1.33.43-.15,1-.31,1.72-.5q2.81-.64,5.38-1.41c-.12-2.14-.31-4.67-.63-7.6a13.73,13.73,0,0,1-3.27.51h-1.6a2.06,2.06,0,0,1-1.36-.47,2.36,2.36,0,0,1-.78-2c0-.58,0-1.28.11-2.14l.35-1.83a1.17,1.17,0,0,1,1.21-.78h.28a1.37,1.37,0,0,1,1.32,1.48c-.15,1.48-.19,2.34-.19,2.53s.19.27.58.27a10.7,10.7,0,0,0,3-.74,3.34,3.34,0,0,1-.07-.66c-.24-1.72-.47-3.35-.71-5a7.79,7.79,0,0,1-.27-1.68c0-.43.27-.82.9-1.17a3.61,3.61,0,0,1,1.32-.27c.51,0,.86.59,1.09,1.72.08,1,.16,2,.32,3.15s.11,2,.19,2.89a30.64,30.64,0,0,0,5.85-2.77c.86.2,1.29.62,1.36,1.33a1.37,1.37,0,0,1-.58,1.13,23.47,23.47,0,0,1-5.58,3.23,5.07,5.07,0,0,1-.81.35c.07,1.1.11,2.15.19,3.16.12,1.64.19,3.16.23,4.52a65.33,65.33,0,0,0,6.63-2.26.89.89,0,0,1,.82.43.79.79,0,0,1,.08.35A1.81,1.81,0,0,1,355.6,129.85Z"/><path d="M367.8,128.65a2.35,2.35,0,0,0,1.88-.78,2.4,2.4,0,0,0,.74-1.53c0-.5-1.37-1.2-4.1-2.06a1.68,1.68,0,0,1-1.05-1,2.54,2.54,0,0,1-.23-1.17,4.23,4.23,0,0,1,.74-1.48c.85-1.17,1.87-2.61,3-4.29a6,6,0,0,0,.86-1.59,11.56,11.56,0,0,0-3.08-.59c-.67-.16-1-.7-1-1.6a1.41,1.41,0,0,1,1.37-1.44,14,14,0,0,1,4.32,1,2,2,0,0,1,1.17,1.72c0,1.91-1.6,4.68-4.68,8.26.55.12,1.14.28,1.68.43,2.34.74,3.51,1.72,3.51,3a5.14,5.14,0,0,1-.2,1.48,4.92,4.92,0,0,1-1.36,2.73,5,5,0,0,1-3.63,1.4,4.35,4.35,0,0,1-2.92-1c0,1.79.08,3.74.12,5.88v6.91c0,1.52,0,2.72,0,3.62-.08,1.72-.47,2.61-1.13,2.61s-1.17-.86-1.25-2.57a30.33,30.33,0,0,1-.16-3.35c0-2.42-.15-5.54-.31-9.32-.08-2.65-.15-5.73-.31-9.28,0-.66-.08-2-.08-4a1.62,1.62,0,0,1,.7-1.21,1.55,1.55,0,0,1,.9-.31c.86,0,1.33.5,1.4,1.44s0,2,.08,3.31,0,2.73.08,3.9l.12.12A4.89,4.89,0,0,0,367.8,128.65Zm10.53-6.13c.94-.54,2.18-1.17,3.7-1.87a22.63,22.63,0,0,1,3.75-1.32,9.61,9.61,0,0,0,.66-2.23.28.28,0,0,0-.27-.31,6.82,6.82,0,0,0-1.09-.07c-.86,0-1.6,0-2.23.07l-2.06.2c-1,0-1.56-.43-1.64-1.33a1.68,1.68,0,0,1,.58-1.32,3.07,3.07,0,0,1,1.41-.39c1,0,2-.08,2.92-.08a10.24,10.24,0,0,1,3.82.51,2,2,0,0,1,1.29,1.91,15,15,0,0,1-1.21,5.22c-.55,1.13-1,2.18-1.6,3.12a.54.54,0,0,0,.27.12,1.13,1.13,0,0,1,.59.7,2.08,2.08,0,0,1-.62,1.4,9.72,9.72,0,0,1-2.27,1.68,55.3,55.3,0,0,1-5.61,3,4.23,4.23,0,0,1-.93.31c0,.43-.08.82-.08,1.21q-.24,4.86-.24,8.19a18.41,18.41,0,0,0,.12,2.61A22.71,22.71,0,0,0,382,140a.82.82,0,0,1,.7-.39c.35.08.54.35.54.9a4.16,4.16,0,0,1-.7,2.1,16.26,16.26,0,0,1-3.12,3.24,4.91,4.91,0,0,1-2.76,1.09c-1.1,0-1.68-1.21-1.72-3.63,0-3.19.08-6.7.27-10.56.24-4.91.39-9.12.43-12.67a14.85,14.85,0,0,0-.12-1.6c0-.93.63-1.4,1.76-1.48.78,0,1.21.51,1.29,1.4C378.45,119.83,378.37,121.24,378.33,122.52Zm6.47-.74c-1.91.94-4.13,2-6.63,3.08-.07,1.45-.11,2.73-.19,3.82a39.43,39.43,0,0,0,4.83-2.45Q383.82,124.24,384.8,121.78Zm7.33,9a3.42,3.42,0,0,1-.93,1.52c-2.5,2.89-4.33,4.6-5.54,5.15l0,0a46.25,46.25,0,0,0,4.33,4.6,43.93,43.93,0,0,0,6.12,4.75c.58.31.9.63.9,1,0,.7-.55,1-1.6,1-1.87-.23-4.25-1.68-7.06-4.29a49.76,49.76,0,0,1-7.68-9,3.09,3.09,0,0,1-.9-2.07,1.35,1.35,0,0,1,1.17-1.37,1.81,1.81,0,0,1,1,.32,5.61,5.61,0,0,1,.93,1.13,14,14,0,0,0,1.45,2.22,23.82,23.82,0,0,0,4.87-5.58,1.68,1.68,0,0,1,.62-.81,1.5,1.5,0,0,1,.86-.28H391C391.7,129.27,392.09,129.81,392.13,130.75Z"/><path d="M407,138.74a2.35,2.35,0,0,1,.51-.08,2.12,2.12,0,0,1,.86.24c.58.39,1.32.93,2.26,1.64a5.4,5.4,0,0,0,.78.54,22.85,22.85,0,0,0,.78-5c0-1.05,0-2.14,0-3.27,0-1,0-2-.08-3-1.79.58-3.43,1.09-5,1.48a13.29,13.29,0,0,1-1.52.35,9.21,9.21,0,0,1-1.4.08c-.7,0-1.13-.51-1.21-1.48,0-.43.35-.82,1.05-1.21a11.3,11.3,0,0,0,1.56-.47c1.05-.24,2.11-.51,3.12-.82.08-.08.16-.19.23-.27a83.22,83.22,0,0,0,11.19-9.52q-2.34.36-11.81,2.69a4.32,4.32,0,0,1-.86.16,29.58,29.58,0,0,1,.2,3.35,1.81,1.81,0,0,1-.82,1.56,2.44,2.44,0,0,1-1.09.28c-.47,0-.67-.24-.67-.71.08-.93.12-1.71.12-2.41a6.47,6.47,0,0,0-.58-2.38,9.54,9.54,0,0,0-1.17-2.46,2.07,2.07,0,0,1-.59-1.13,1.68,1.68,0,0,1,.7-1.32,2.14,2.14,0,0,1,.86-.28,1.77,1.77,0,0,1,1.25.63,10.82,10.82,0,0,1,1.13,2.18,3.59,3.59,0,0,1,.58-.19c2.34-.63,5.77-1.41,10.3-2.27a27.56,27.56,0,0,1,4.52-.66c.31,0,.54,0,.78,0a1.53,1.53,0,0,1,.74,1.37c0,2.53-3.59,5.88-10.76,10.09a4.23,4.23,0,0,0,1-.31,88.3,88.3,0,0,0,9.12-3.16.8.8,0,0,1,.78.51,1,1,0,0,1,.16.39,1.76,1.76,0,0,1-.58,1.21q-1.69,1.69-8.66,3.86c.08,1.17.16,2.45.16,3.94,0,.54-.08,1-.08,1.52.43-.12.78-.24,1.05-.32a30.05,30.05,0,0,0,3.2-1.36,7.92,7.92,0,0,1,1.17-.39,3.77,3.77,0,0,1,.62-.08,1,1,0,0,1,.82.39,1.29,1.29,0,0,1,.12.59,2.2,2.2,0,0,1-.7,1.17,8,8,0,0,1-2.3,1.44,15.47,15.47,0,0,1-3.4,1.28,2.49,2.49,0,0,1-.89.28,2.34,2.34,0,0,0-.12.62,29,29,0,0,1-1,4.41,2.27,2.27,0,0,0,.31.23,36.21,36.21,0,0,0,8.11,3.31,27.57,27.57,0,0,0,3.58.67,21,21,0,0,0,2.93.23,12.25,12.25,0,0,0,1.4-.15,7.78,7.78,0,0,0,1.29-.43,2.46,2.46,0,0,1,.78-.24c.66,0,1,.16,1.09.55a1.78,1.78,0,0,1-.27.78,3.9,3.9,0,0,1-.71.62,11.35,11.35,0,0,1-5.88,1.41c-4.56,0-9.79-1.68-15.71-5a23.63,23.63,0,0,1-2.81-2,11.84,11.84,0,0,1-.94-.93c-.15.74-.31,1.4-.5,2a17.8,17.8,0,0,1-1.52,4.17,1.73,1.73,0,0,1-1.56.9,1,1,0,0,1-1-1,2.47,2.47,0,0,1,.16-.86,18,18,0,0,0,1.79-8.18c0-.47,0-.9,0-1.33s-.08-.94-.08-1.25a1.35,1.35,0,0,1-.23-.78,1.6,1.6,0,0,1,.58-1.05,1.53,1.53,0,0,1,1-.31,2.69,2.69,0,0,1,.66.08,1.65,1.65,0,0,1,.82.81,12.27,12.27,0,0,1,.27,2.69C407,137.92,407,138.35,407,138.74Zm2.73-26.63a1.18,1.18,0,0,1,.43-.74,2.87,2.87,0,0,1,1.8-.81c0,.31.31.46,1,.5s2.15.35,4.17.63a.61.61,0,0,1,.55.66,1.51,1.51,0,0,1-.7,1.29,2.75,2.75,0,0,1-1.33.35,43.36,43.36,0,0,1-5-.28C410,113.52,409.71,113,409.71,112.11Z"/><path d="M127.19,180.53l-3.9.82c.23,5.53.35,9.74.35,12.59,0,6-1.29,9-3.78,9a4,4,0,0,1-2.65-1.32c-1.21-1.13-1.8-2-1.8-2.65a1.51,1.51,0,0,1,.55-1.17,1.46,1.46,0,0,1,1-.51,1.92,1.92,0,0,1,1.52.94,4.48,4.48,0,0,0,1.25,1.28c.43-1,.66-3.94.66-8.69,0-1.05-.11-3.9-.27-8.5A37.08,37.08,0,0,1,112,194c-3.23,3.27-5.22,4.91-5.92,5-1.1,0-1.64-.67-1.72-1.84.08-1.24.94-2.41,2.5-3.54a2.21,2.21,0,0,1,1.44-.43c4-3.82,6.78-7.45,8.34-10.84-3.9.47-6.28.7-7.21.7-1.33,0-2-.54-2-1.64a1.45,1.45,0,0,1,1.56-1.67,88.49,88.49,0,0,0,11.11-1.25c0-.7-.08-1.56-.19-2.65a3.2,3.2,0,0,1,.54-1.95,1.86,1.86,0,0,1,.94-.86,2,2,0,0,1,1.6.51,2.14,2.14,0,0,1,.35,1.09l0,1.52v1.72c.9-.16,2.3-.39,4.25-.78a1.75,1.75,0,0,1,2,1.32C129.53,179.51,128.75,180.21,127.19,180.53Z"/><path d="M166.37,188.87a49.11,49.11,0,0,1-6.94,6.59,29.4,29.4,0,0,1-8.34,4.25,2.66,2.66,0,0,1-1.56.86,13.54,13.54,0,0,1-2,.31c-1.48,0-2.22-.59-2.22-1.72,0-.93.35-1.48,1.13-1.67a30.3,30.3,0,0,0,9.86-3.79,38.93,38.93,0,0,0,7.95-7,1.45,1.45,0,0,1,1.13-.59c1,0,1.53.59,1.53,1.68A1.76,1.76,0,0,1,166.37,188.87Zm-11.85-4.64a2.88,2.88,0,0,1-1.45-.82c-.31-.23-1.2-.78-2.69-1.64a2.6,2.6,0,0,1-1.56-2.33c0-1.1.63-1.68,1.91-1.68.94,0,2.54,1.17,4.8,3.47a1.74,1.74,0,0,1,.74,1.36C156.27,183.68,155.69,184.23,154.52,184.23Z"/><path d="M198,194.68a39.15,39.15,0,0,1-5.84,6.16c-2.73,2.3-4.88,3.47-6.44,3.47-1.09,0-1.59-.59-1.59-1.68s.54-1.6,1.67-1.6a7,7,0,0,0,2.5-1.2c4.4-3.2,7.44-6.71,9.12-10.45a4.93,4.93,0,0,0,.58-2c0-1.44-1.05-2.18-3.11-2.18-.63,0-2.54.23-5.74.62a6,6,0,0,1-1.75.9,7.34,7.34,0,0,1-2.73.66c-1.6,0-2.38-.63-2.38-1.87,0-1,1-1.72,2.93-2.19a40.77,40.77,0,0,1,9.7-1.36,7.76,7.76,0,0,1,4.25,1.13,4.35,4.35,0,0,1,2,3.82C201.18,189.26,200.13,191.83,198,194.68Zm.08-17.12a52.78,52.78,0,0,1-9.08.9,18.45,18.45,0,0,1-2.77-.12c-1.13-.23-1.68-.82-1.68-1.75a2,2,0,0,1,.59-1.37,1.84,1.84,0,0,1,1.29-.62,3,3,0,0,1,1.79.59c.51,0,.86,0,1.09,0,1,0,3.78-.27,8.38-.89,1,0,1.56.58,1.56,1.67A1.38,1.38,0,0,1,198.1,177.56Z"/><path d="M232.06,176.59a44.59,44.59,0,0,1-2.77,3.62,23.82,23.82,0,0,1,1,7.65c0,1.63-.11,4.29-.35,7.87-.31,4.06-.47,6.36-.47,7,0,1.13-.54,1.72-1.55,1.72s-1.53-.94-1.8-2.73c-.23-1.29-.35-2-.35-2.15,0-.39.27-.78.82-1.25q.59-8.36.58-10.05a36.45,36.45,0,0,0-.42-5.15q-1.17,1.17-6.09,5.73a3.42,3.42,0,0,1-1.71,1,1.42,1.42,0,0,1-1.6-1.63,2.07,2.07,0,0,1,.82-1.45A77.2,77.2,0,0,0,228.67,176a1.72,1.72,0,0,1,.35-1.09c1.17-1.67,2.1-2.53,2.8-2.53a1.76,1.76,0,0,1,1.1.43,1.6,1.6,0,0,1,.42,1.09A6.31,6.31,0,0,1,232.06,176.59Z"/><path d="M275.14,188.87a50.22,50.22,0,0,1-6.94,6.59,29.33,29.33,0,0,1-8.35,4.25,2.6,2.6,0,0,1-1.56.86,13.29,13.29,0,0,1-2,.31c-1.48,0-2.22-.59-2.22-1.72,0-.93.35-1.48,1.13-1.67A30.3,30.3,0,0,0,265,193.7a38.93,38.93,0,0,0,7.95-7,1.42,1.42,0,0,1,1.13-.59c1,0,1.52.59,1.52,1.68A1.75,1.75,0,0,1,275.14,188.87Zm-11.85-4.64a2.88,2.88,0,0,1-1.45-.82c-.31-.23-1.21-.78-2.69-1.64a2.6,2.6,0,0,1-1.56-2.33c0-1.1.63-1.68,1.91-1.68.94,0,2.54,1.17,4.8,3.47a1.74,1.74,0,0,1,.74,1.36C265,183.68,264.45,184.23,263.29,184.23Z"/><path d="M314.82,195a3.47,3.47,0,0,1,.2.78c0,1.09-.51,1.64-1.44,1.64,0,0-.43,0-1.21-.08s-1.29,0-1.52,0c-4,0-6.71.35-8.11,1a2.75,2.75,0,0,1-.86.32,2,2,0,0,1-2-1.17,2,2,0,0,1-.23-.74c0-1,1-1.68,2.92-2a65.81,65.81,0,0,1,9.09-.7,36.29,36.29,0,0,0,2.84-4.57c-.46,0-1.09,0-1.91,0a40,40,0,0,0-9.16.81,4,4,0,0,1-.78.12c-1.05,0-1.56-.66-1.56-2,0-.62.39-1,1.17-1.2a36.23,36.23,0,0,1,8.85-1c.86,0,2.54,0,4.95.12a10.54,10.54,0,0,0,.59-3c0-1.49-.82-2.27-2.46-2.27a51.16,51.16,0,0,0-7.76.78,3.71,3.71,0,0,1-2.88.86c-1.64,0-2.42-.7-2.42-2.14a1.22,1.22,0,0,1,1-1.33,73.52,73.52,0,0,1,11.43-1.52q4,0,5.49,2.81a6.46,6.46,0,0,1,.63,2.81C319.7,186.3,318.06,190.23,314.82,195Z"/><path d="M354.59,193a28.09,28.09,0,0,1-3.2,5.54c-1.67,2.18-3.16,3.31-4.4,3.31a3.24,3.24,0,0,1-3.12-2.37,9.54,9.54,0,0,1-.78-3.47,1.55,1.55,0,0,1,.47-1.17,1.87,1.87,0,0,1,1.17-.39,1.37,1.37,0,0,1,1.44,1.28,6.93,6.93,0,0,0,.74,2.73c1.09-.39,2.3-1.91,3.7-4.64a35.67,35.67,0,0,0,2.77-6.55,14.66,14.66,0,0,0,.82-3.82c0-.62-.43-1.09-1.29-1.44a7.2,7.2,0,0,0-2.69-.51,30.6,30.6,0,0,0-4.32.35c-1.29,2.81-2.73,5.77-4.37,8.89-1.29,2.34-2.85,5.27-4.64,8.77a5.36,5.36,0,0,1,.08.74,3.1,3.1,0,0,1-1,1.92,2.81,2.81,0,0,1-1.87,1,1.56,1.56,0,0,1-1.13-.47,1.73,1.73,0,0,1-.47-1.17c0-.47,2.23-4.91,6.75-13.37,1.21-2.34,2.14-4.21,2.84-5.65-.39.07-.89.19-1.52.27a6.39,6.39,0,0,1-3,1.13c-1.25,0-1.87-.55-1.87-1.72a2,2,0,0,1,1.64-2.06c1.4-.27,3.47-.7,6.23-1.25.59-1.64,1.06-3.24,1.45-4.79s1-2.38,2.06-2.38,1.64.62,1.64,1.87a3.79,3.79,0,0,1-.58,2.3c-.16.58-.47,1.44-.86,2.53,1-.08,1.91-.11,2.65-.11,4.87,0,7.33,1.79,7.33,5.34Q357.28,186.54,354.59,193Zm5.65-12.78a2.56,2.56,0,0,1-2-1.68c-.23-.27-.62-.7-1.09-1.33a3.48,3.48,0,0,1-1.13-2c0-.94.43-1.45,1.37-1.45.39,0,.81.32,1.24.86.71.86,1.52,2,2.54,3.2a2.19,2.19,0,0,1,.27.93C361.45,179.71,361,180.18,360.24,180.18Zm3-3.86a1.28,1.28,0,0,1-1-.55,7.07,7.07,0,0,0-1.87-1.25,1.61,1.61,0,0,1-1-1.63,1.07,1.07,0,0,1,.42-.86,1.57,1.57,0,0,1,1-.35,4.67,4.67,0,0,1,2.42,1.13c.93.74,1.44,1.44,1.44,2.1A1.23,1.23,0,0,1,363.24,176.32Z"/><path d="M391,197.88a1.28,1.28,0,0,1-1.13.66c-1.09,0-1.64-.39-1.64-1.21a7.22,7.22,0,0,1,.12-1.17c-.23-.78-1.13-1.56-2.69-2.42A22.61,22.61,0,0,0,382,192.3a38.88,38.88,0,0,1-7.64,6.94,4.37,4.37,0,0,1-2.38.86,1.65,1.65,0,0,1-1.2-.43,1.55,1.55,0,0,1-.47-1.17,1.41,1.41,0,0,1,1.6-1.6c1.28-.54,3.12-2,5.49-4.44a58.69,58.69,0,0,0,4.88-5.58,27.39,27.39,0,0,0,2.34-3.7,9.81,9.81,0,0,0,1.4-4.06c0-.43-.62-.66-1.83-.66a19.32,19.32,0,0,0-7.06,1.29,2.65,2.65,0,0,1-1.75.85,2.32,2.32,0,0,1-1.68-.7,2.13,2.13,0,0,1-.74-1.67c0-.74.47-1.21,1.4-1.45a80,80,0,0,1,10.18-1.63c3.08,0,4.64,1.36,4.64,4s-1.68,6.16-5,10.29c4.83,1.76,7.25,4,7.25,6.71A2.8,2.8,0,0,1,391,197.88Z"/><path d="M421.64,192.38c-2.53,2.73-5.07,5.3-7.56,7.72-1.17,1.09-1.95,1.67-2.42,1.67a1.45,1.45,0,0,1-1.13-.46,1.6,1.6,0,0,1-.47-1.13c0-.55.71-1.68,2.19-3.36a1.26,1.26,0,0,1,1-.31c2.42-2.34,4.56-4.56,6.36-6.67a52.65,52.65,0,0,1-5.11-3.82,1.43,1.43,0,0,1-.66-1.2,1.73,1.73,0,0,1,.5-1.17,1.67,1.67,0,0,1,1.25-.51,2.85,2.85,0,0,1,1.21.62,35.58,35.58,0,0,0,4.76,3.51c2.14-3,3.23-5.42,3.23-7.21,0-1.48-.86-2.26-2.49-2.26a9.36,9.36,0,0,0-4.8,1.48,5,5,0,0,1-1.52.7,1.38,1.38,0,0,1-.58-.15,38.5,38.5,0,0,1-3.47,4.71,1.56,1.56,0,0,1-1.17.59c-1,0-1.48-.55-1.48-1.72a1.92,1.92,0,0,1,.46-1.25,26.38,26.38,0,0,0,5.07-8.73c.31-.86.82-1.32,1.48-1.32,1.06,0,1.68,1.09,1.84,3.23a10,10,0,0,1,3.82-.78,6.6,6.6,0,0,1,4.21,1.44,5,5,0,0,1,1.67,4Q427.8,185.77,421.64,192.38Z"/><path d="M468.27,187.15c-5.22,7-10.53,11.47-15.87,13.49a13.85,13.85,0,0,1-3.66,1.06c-1.21,0-1.8-.55-1.8-1.64a2,2,0,0,1,.94-1.72,2.53,2.53,0,0,1,1.48-.5h1.17c4.33-1.09,9.44-5.34,15.28-12.67a1.94,1.94,0,0,1,1.37-.9,1.5,1.5,0,0,1,1.13.51,1.91,1.91,0,0,1,.43,1.2A1.87,1.87,0,0,1,468.27,187.15Zm-10.57-.74a1.32,1.32,0,0,1-1,.47c-.35,0-1.52-.12-3.55-.39-2.1,0-3.39-.23-3.86-.78a2,2,0,0,1-.5-1.56,1.25,1.25,0,0,1,.5-.93,1.39,1.39,0,0,1,1-.47c.54,0,2.73.31,6.51.9.85.11,1.28.66,1.28,1.63A1.4,1.4,0,0,1,457.7,186.41Zm.36-6.2a1.7,1.7,0,0,1-1-.54c-.31-.23-1.28-.9-2.92-1.91a7.86,7.86,0,0,1-2.38-.39,1.66,1.66,0,0,1-1.21-1.68c0-1.09.51-1.67,1.6-1.67,2.49,0,4.83,1.13,7.06,3.35a1.7,1.7,0,0,1,.58,1.25C459.77,179.71,459.19,180.21,458.06,180.21Zm10.56-1.28c-.47,0-1.17-.55-2.1-1.68-1.41-1.64-2.07-2.65-2.07-3,0-1,.47-1.56,1.4-1.56a1.86,1.86,0,0,1,1.17.59c.47.39.7.74.7,1.05l1.6,1.91a2.53,2.53,0,0,1,.67,1.25C470,178.46,469.52,178.93,468.62,178.93Zm3.94-2.18a1.61,1.61,0,0,1-1.25-.71,9.26,9.26,0,0,0-1.75-1.75,1.74,1.74,0,0,1-.67-1.25c0-.89.47-1.36,1.49-1.36.54,0,1.24.5,2.1,1.44a3.92,3.92,0,0,1,1.29,2.34C473.77,176.32,473.34,176.75,472.56,176.75Z"/><path d="M499.19,180.53l-3.9.82c.23,5.53.35,9.74.35,12.59,0,6-1.29,9-3.78,9a4,4,0,0,1-2.66-1.32c-1.2-1.13-1.79-2-1.79-2.65a1.51,1.51,0,0,1,.55-1.17,1.46,1.46,0,0,1,1-.51,1.93,1.93,0,0,1,1.52.94,4.35,4.35,0,0,0,1.25,1.28c.43-1,.66-3.94.66-8.69,0-1.05-.12-3.9-.27-8.5A37.08,37.08,0,0,1,484,194c-3.24,3.27-5.22,4.91-5.93,5-1.09,0-1.63-.67-1.71-1.84.08-1.24.93-2.41,2.49-3.54a2.24,2.24,0,0,1,1.45-.43c4-3.82,6.78-7.45,8.34-10.84-3.9.47-6.28.7-7.21.7-1.33,0-2-.54-2-1.64a1.45,1.45,0,0,1,1.56-1.67,88.68,88.68,0,0,0,11.11-1.25,25.76,25.76,0,0,0-.2-2.65,3.2,3.2,0,0,1,.55-1.95,1.86,1.86,0,0,1,.94-.86,1.92,1.92,0,0,1,1.59.51,2.05,2.05,0,0,1,.35,1.09l0,1.52v1.72c.89-.16,2.3-.39,4.24-.78,1.1,0,1.76.46,1.95,1.32C501.52,179.51,500.74,180.21,499.19,180.53Z"/><path class="cls-3" d="M195.1,121.24c-.43,1.75-.9,3.43-1.44,5,.62.74,1.28,1.48,1.91,2.18a91.9,91.9,0,0,0,10.17,10.76c2.34,2,4.49,3.82,6.51,5.58a2.12,2.12,0,0,1,1,1.71,1,1,0,0,1-.74,1h-.27a3.36,3.36,0,0,1-1.37-.42,51.37,51.37,0,0,1-5.73-4.33,62.94,62.94,0,0,1-12.28-13.1,1.46,1.46,0,0,1-.35-.51c-.16.47-.35.9-.51,1.29-.86,1.83-1.87,4-3.08,6.39-.74,1.44-1.44,2.73-2.07,3.82A9.75,9.75,0,0,1,185,143a1.77,1.77,0,0,1-1,.31,1.07,1.07,0,0,1-1-1.05,1.68,1.68,0,0,1,.32-1.09c.43-.7.89-1.52,1.4-2.38.94-1.64,2-3.47,3-5.57.74-1.72,1.52-3.59,2.34-5.7a56.57,56.57,0,0,0,2.11-7,45.25,45.25,0,0,0,.66-6.28,1.11,1.11,0,0,1,1-1c.24,0,.51,0,.86,0,.74,0,1.13.7,1.17,2A28.08,28.08,0,0,1,195.1,121.24Z"/><path class="cls-3" d="M220.64,127.05c.46-.12,1-.24,1.55-.35,3.05-.71,5.93-1.45,8.7-2.23a68.23,68.23,0,0,0,10.06-3.9c1.09,0,1.67.36,1.75,1a20.79,20.79,0,0,0-2,6,34.33,34.33,0,0,0-.23,4.06c.16,6.74,2.53,11.42,7.13,14.15a15.38,15.38,0,0,0,.75-2.88,1.14,1.14,0,0,1,1.24-1.25,1.36,1.36,0,0,1,1.17,1.05,17,17,0,0,1-.5,3.63c-.47,2.18-1.13,3.31-2,3.31q-1.76-.06-4.33-2.34a20.29,20.29,0,0,1-4.8-7.56,22.83,22.83,0,0,1-1.4-8.27,15.77,15.77,0,0,1,.27-3.08,20.44,20.44,0,0,1,.9-4.25,85.09,85.09,0,0,1-15.71,5.15,12,12,0,0,1-2.22.43c-.59-.08-.94-.47-1.09-1.21A1.42,1.42,0,0,1,220.64,127.05Zm14.23,19.68-5.23-3.39c-.23-.15-.43-.31-.66-.46-.63.93-1.29,1.87-2,2.8a27.45,27.45,0,0,1-3.62,3.55,2.13,2.13,0,0,1-1.37.66c-.58,0-.86-.39-.86-1.09,0-.23.24-.58.74-1a33.08,33.08,0,0,0,5.07-6.47c-.82-.55-1.64-1.17-2.41-1.8a5.42,5.42,0,0,1-1.41-1.13,1.89,1.89,0,0,1-.54-.78v-.35a2.54,2.54,0,0,1,.31-.9,1.19,1.19,0,0,1,1.17-.81,3.7,3.7,0,0,1,.7.15,8.79,8.79,0,0,1,1.91,1.33c.47.39,1.09.89,1.79,1.44a36.82,36.82,0,0,0,1.68-4.25c.16-.58.31-1.17.43-1.79a10.83,10.83,0,0,0,.15-1.37,2.76,2.76,0,0,0-.11-.74c0-.54.11-.93.35-1.09a2,2,0,0,1,.89-.2,2.75,2.75,0,0,1,1.33.51,1.32,1.32,0,0,1,.58,1.21,14.43,14.43,0,0,1-1,4.25,26.48,26.48,0,0,1-2.26,5.11c1,.82,2.14,1.67,3.35,2.61,1.72,1.29,3.08,2.38,4.13,3.23a8.54,8.54,0,0,1,.9.78,1.64,1.64,0,0,1,.39.86.92.92,0,0,1-1,1.06,1.71,1.71,0,0,0-.43-.08A19.84,19.84,0,0,1,234.87,146.73Zm2-28.1c-.7.7-2.49,1.48-5.3,2.37-1.64.47-3.12.9-4.44,1.25l-.94.24a9.93,9.93,0,0,1-1.4.07c-.7,0-1.13-.5-1.21-1.48q0-.64,1.05-1.17c.43-.15.94-.31,1.56-.5,1.72-.32,3.35-.71,5-1.1,2.26-.58,4.06-1.09,5.38-1.56a1,1,0,0,1,.82.39,1.18,1.18,0,0,1,.08.39A1.51,1.51,0,0,1,236.85,118.63Zm-2.76-4.1a30.71,30.71,0,0,1-6.32,1.52h-.51a1.78,1.78,0,0,1-1.24-.31,1.61,1.61,0,0,1-.75-1.48,7,7,0,0,1,.2-1.68,10.57,10.57,0,0,1,.58-1.44A1.41,1.41,0,0,1,227.3,110h.24a1.35,1.35,0,0,1,1.28,1.44,4.88,4.88,0,0,0-.66,1.76,25.83,25.83,0,0,0,4.21-.82A32.06,32.06,0,0,0,236,111.3a5.52,5.52,0,0,1,1.44-.35,1,1,0,0,1,.86.89,1.4,1.4,0,0,1-.35,1A15.29,15.29,0,0,1,234.09,114.53Z"/><path class="cls-3" d="M276.89,136.91c-2.1,3.24-4.44,5.38-7,6.39a2.47,2.47,0,0,1-.89.24c-1,0-1.52-.63-1.52-1.83,0-.63.54-1.37,1.63-2.23a2.19,2.19,0,0,1,1.41-.46,21.67,21.67,0,0,0,4.32-4.92,11.51,11.51,0,0,0,2.11-6.2c0-2-1.48-3.23-4.41-3.66a37.57,37.57,0,0,1-5.65,10.64c-1.64,2.19-3.35,3.24-5.07,3.24a3.79,3.79,0,0,1-3.23-1.87,6.57,6.57,0,0,1-1.21-3.86c0-2.65,1.91-5.3,5.81-8,3.35-2.3,6.31-3.47,8.81-3.47a9.22,9.22,0,0,1,5.61,1.67,6.38,6.38,0,0,1,2.42,5.3A16.56,16.56,0,0,1,276.89,136.91Zm-13.06-9c-2.18,1.72-3.27,3.28-3.27,4.72a2.94,2.94,0,0,0,.46,1.48c.32.51.63.74.9.74,1.09,0,2.85-2,5.23-6a31.19,31.19,0,0,0,1.79-3.94A21,21,0,0,0,263.83,127.94Z"/><path class="cls-3" d="M299.35,145.84a1.59,1.59,0,0,1,.82-1.48,30.58,30.58,0,0,0,3.89-2.23c-.27-.27-.5-.54-.74-.81q-4.32-4.4-4.32-8.07a21,21,0,0,1,.35-3.63c.15-1.05.31-2.11.5-3.12-2.57.62-5.18,1.33-7.91,2.15a2.85,2.85,0,0,1-1.09.31,1,1,0,0,1-.94-.63,2.13,2.13,0,0,1-.15-1c0-.39.35-.82,1-1.21a49.83,49.83,0,0,1,6.78-2.22c1-.27,2-.51,3-.7a55.55,55.55,0,0,0,.74-5.73c0-.36,0-.74-.08-1.21a6,6,0,0,1-.2-1.33,2.3,2.3,0,0,1,.55-1.52,2,2,0,0,1,1.05-.39,1.38,1.38,0,0,1,1,.47,6,6,0,0,1,.62,3.24,46,46,0,0,1-.43,5.18,3.88,3.88,0,0,0-.08.59c.08,0,.12-.08.16-.08,2.5-.55,4.91-1,7.25-1.41,1.87-.31,3.75-.58,5.66-.81s3.11-.32,3.89-.32c1,.08,1.49.55,1.56,1.41a1.53,1.53,0,0,1-1.36,1.6c-1.17.15-2.3.27-3.39.38-1.48.2-3,.39-4.53.63.12.47.24,1,.36,1.56a36.27,36.27,0,0,1,.27,3.66,19.07,19.07,0,0,1-2.57,9.87,27.69,27.69,0,0,1-2.27,3c.32.23.67.47,1,.74,1.13.78,2.07,1.44,2.77,2a1,1,0,0,1,.35.7,1.17,1.17,0,0,1-1.13,1.36h-.35a6.41,6.41,0,0,1-2.89-1.09c-.7-.51-1.4-1-2-1.56a22,22,0,0,1-3.47,2.34,3.56,3.56,0,0,1-1.71.59A1.64,1.64,0,0,1,299.35,145.84Zm3.66-20c-.19.86-.39,1.75-.54,2.69a27.56,27.56,0,0,0-.75,4.72c0,1.63,1.37,3.74,4.1,6.27l.66.67a15.32,15.32,0,0,0,2.89-4.06,16.59,16.59,0,0,0,1.44-5.81,24.55,24.55,0,0,0-.39-4.64c-.12-.46-.24-.89-.31-1.28C308,124.75,305.58,125.21,303,125.8Z"/><path class="cls-3" d="M326.91,131.65a14.27,14.27,0,0,1-.55,1.95,2.73,2.73,0,0,1-.35.85,1.54,1.54,0,0,1-1.21.55c-.54,0-.82-.31-.82-.82a3.67,3.67,0,0,1,.16-1c.08-.63.2-1.29.27-2,0-.55,0-1.09,0-1.6a19.76,19.76,0,0,0-.23-3.39,4.46,4.46,0,0,1-.16-1,1.73,1.73,0,0,1,.43-1.29,1.51,1.51,0,0,1,.86-.27,1.62,1.62,0,0,1,.9.27,8.35,8.35,0,0,1,.7,1,29.89,29.89,0,0,1,.23,4.06A19.37,19.37,0,0,1,326.91,131.65Zm5.57,11.23c-.07,1-.15,2-.19,2.92-.23,1-.7,1.56-1.48,1.56s-1.29-.55-1.29-1.6v-5.3c.08-3.12.12-5.15.12-6.16,0-3.59,0-6.43-.08-8.58a69.94,69.94,0,0,0-.74-9.2,1.43,1.43,0,0,1,.74-1.29,2.2,2.2,0,0,1,.94-.27,1.1,1.1,0,0,1,.93.47,2.44,2.44,0,0,1,.43,1.29c.2,2.33.39,5.22.58,8.65v.35a6.71,6.71,0,0,1,.71-.23,12.82,12.82,0,0,0,2-.67c.32-.07.59-.15.75-.19a1.83,1.83,0,0,1,.62-.12.89.89,0,0,1,.82.43,2.66,2.66,0,0,1,.08.51,2.31,2.31,0,0,1-.67,1.17,4.93,4.93,0,0,1-1.4.89,8.15,8.15,0,0,1-2,.86,2.25,2.25,0,0,1-.82.2c0,1.87,0,3.82,0,5.92S332.52,139.29,332.48,142.88Zm23.12-13q-1.39,1.41-7,3.4c0,1.79-.11,3.58-.27,5.34-.11,1.44-.23,2.65-.35,3.62,1.48-.19,2.93-.35,4.29-.5s2.61-.28,3.86-.43c1-.08,2-.12,2.88-.12,1.1.08,1.72.47,1.88,1.21a1.37,1.37,0,0,1-1.25,1.44c-.86.12-1.8.23-2.73.39-1.17.08-2.46.23-3.78.39-2.61.31-5.27.66-8,1.09-2.49.39-4.79.78-6.9,1.25-.7.08-1.24.16-1.67.16s-.59-.28-.74-.75a4.31,4.31,0,0,1-.08-1.16q.18-.7,2.22-1.17a36.44,36.44,0,0,1,5-1.06c.86-.15,1.72-.27,2.57-.39.08-.74.16-1.67.28-2.84.19-2.26.31-4.17.35-5.66-1.52.47-2.93.94-4.21,1.33-.55.16-1,.23-1.21.31a12.56,12.56,0,0,1-1.56.12c-.74,0-1.17-.55-1.33-1.6,0-.47.39-.94,1.17-1.33.43-.15,1-.31,1.72-.5q2.81-.64,5.38-1.41c-.12-2.14-.31-4.67-.63-7.6a13.73,13.73,0,0,1-3.27.51h-1.6a2.06,2.06,0,0,1-1.36-.47,2.36,2.36,0,0,1-.78-2c0-.58,0-1.28.11-2.14l.35-1.83a1.17,1.17,0,0,1,1.21-.78h.28a1.37,1.37,0,0,1,1.32,1.48c-.15,1.48-.19,2.34-.19,2.53s.19.27.58.27a10.7,10.7,0,0,0,3-.74,3.34,3.34,0,0,1-.07-.66c-.24-1.72-.47-3.35-.71-5a7.79,7.79,0,0,1-.27-1.68c0-.43.27-.82.9-1.17a3.61,3.61,0,0,1,1.32-.27c.51,0,.86.59,1.09,1.72.08,1,.16,2,.32,3.15s.11,2,.19,2.89a30.64,30.64,0,0,0,5.85-2.77c.86.2,1.29.62,1.36,1.33a1.37,1.37,0,0,1-.58,1.13,23.47,23.47,0,0,1-5.58,3.23,5.07,5.07,0,0,1-.81.35c.07,1.1.11,2.15.19,3.16.12,1.64.19,3.16.23,4.52a65.33,65.33,0,0,0,6.63-2.26.89.89,0,0,1,.82.43.79.79,0,0,1,.08.35A1.81,1.81,0,0,1,355.6,129.85Z"/><path class="cls-3" d="M367.8,128.65a2.35,2.35,0,0,0,1.88-.78,2.4,2.4,0,0,0,.74-1.53c0-.5-1.37-1.2-4.1-2.06a1.68,1.68,0,0,1-1.05-1,2.54,2.54,0,0,1-.23-1.17,4.23,4.23,0,0,1,.74-1.48c.85-1.17,1.87-2.61,3-4.29a6,6,0,0,0,.86-1.59,11.56,11.56,0,0,0-3.08-.59c-.67-.16-1-.7-1-1.6a1.41,1.41,0,0,1,1.37-1.44,14,14,0,0,1,4.32,1,2,2,0,0,1,1.17,1.72c0,1.91-1.6,4.68-4.68,8.26.55.12,1.14.28,1.68.43,2.34.74,3.51,1.72,3.51,3a5.14,5.14,0,0,1-.2,1.48,4.92,4.92,0,0,1-1.36,2.73,5,5,0,0,1-3.63,1.4,4.35,4.35,0,0,1-2.92-1c0,1.79.08,3.74.12,5.88v6.91c0,1.52,0,2.72,0,3.62-.08,1.72-.47,2.61-1.13,2.61s-1.17-.86-1.25-2.57a30.33,30.33,0,0,1-.16-3.35c0-2.42-.15-5.54-.31-9.32-.08-2.65-.15-5.73-.31-9.28,0-.66-.08-2-.08-4a1.62,1.62,0,0,1,.7-1.21,1.55,1.55,0,0,1,.9-.31c.86,0,1.33.5,1.4,1.44s0,2,.08,3.31,0,2.73.08,3.9l.12.12A4.89,4.89,0,0,0,367.8,128.65Zm10.53-6.13c.94-.54,2.18-1.17,3.7-1.87a22.63,22.63,0,0,1,3.75-1.32,9.61,9.61,0,0,0,.66-2.23.28.28,0,0,0-.27-.31,6.82,6.82,0,0,0-1.09-.07c-.86,0-1.6,0-2.23.07l-2.06.2c-1,0-1.56-.43-1.64-1.33a1.68,1.68,0,0,1,.58-1.32,3.07,3.07,0,0,1,1.41-.39c1,0,2-.08,2.92-.08a10.24,10.24,0,0,1,3.82.51,2,2,0,0,1,1.29,1.91,15,15,0,0,1-1.21,5.22c-.55,1.13-1,2.18-1.6,3.12a.54.54,0,0,0,.27.12,1.13,1.13,0,0,1,.59.7,2.08,2.08,0,0,1-.62,1.4,9.72,9.72,0,0,1-2.27,1.68,55.3,55.3,0,0,1-5.61,3,4.23,4.23,0,0,1-.93.31c0,.43-.08.82-.08,1.21q-.24,4.86-.24,8.19a18.41,18.41,0,0,0,.12,2.61A22.71,22.71,0,0,0,382,140a.82.82,0,0,1,.7-.39c.35.08.54.35.54.9a4.16,4.16,0,0,1-.7,2.1,16.26,16.26,0,0,1-3.12,3.24,4.91,4.91,0,0,1-2.76,1.09c-1.1,0-1.68-1.21-1.72-3.63,0-3.19.08-6.7.27-10.56.24-4.91.39-9.12.43-12.67a14.85,14.85,0,0,0-.12-1.6c0-.93.63-1.4,1.76-1.48.78,0,1.21.51,1.29,1.4C378.45,119.83,378.37,121.24,378.33,122.52Zm6.47-.74c-1.91.94-4.13,2-6.63,3.08-.07,1.45-.11,2.73-.19,3.82a39.43,39.43,0,0,0,4.83-2.45Q383.82,124.24,384.8,121.78Zm7.33,9a3.42,3.42,0,0,1-.93,1.52c-2.5,2.89-4.33,4.6-5.54,5.15l0,0a46.25,46.25,0,0,0,4.33,4.6,43.93,43.93,0,0,0,6.12,4.75c.58.31.9.63.9,1,0,.7-.55,1-1.6,1-1.87-.23-4.25-1.68-7.06-4.29a49.76,49.76,0,0,1-7.68-9,3.09,3.09,0,0,1-.9-2.07,1.35,1.35,0,0,1,1.17-1.37,1.81,1.81,0,0,1,1,.32,5.61,5.61,0,0,1,.93,1.13,14,14,0,0,0,1.45,2.22,23.82,23.82,0,0,0,4.87-5.58,1.68,1.68,0,0,1,.62-.81,1.5,1.5,0,0,1,.86-.28H391C391.7,129.27,392.09,129.81,392.13,130.75Z"/><path class="cls-3" d="M407,138.74a2.35,2.35,0,0,1,.51-.08,2.12,2.12,0,0,1,.86.24c.58.39,1.32.93,2.26,1.64a5.4,5.4,0,0,0,.78.54,22.85,22.85,0,0,0,.78-5c0-1.05,0-2.14,0-3.27,0-1,0-2-.08-3-1.79.58-3.43,1.09-5,1.48a13.29,13.29,0,0,1-1.52.35,9.21,9.21,0,0,1-1.4.08c-.7,0-1.13-.51-1.21-1.48,0-.43.35-.82,1.05-1.21a11.3,11.3,0,0,0,1.56-.47c1.05-.24,2.11-.51,3.12-.82.08-.08.16-.19.23-.27a83.22,83.22,0,0,0,11.19-9.52q-2.34.36-11.81,2.69a4.32,4.32,0,0,1-.86.16,29.58,29.58,0,0,1,.2,3.35,1.81,1.81,0,0,1-.82,1.56,2.44,2.44,0,0,1-1.09.28c-.47,0-.67-.24-.67-.71.08-.93.12-1.71.12-2.41a6.47,6.47,0,0,0-.58-2.38,9.54,9.54,0,0,0-1.17-2.46,2.07,2.07,0,0,1-.59-1.13,1.68,1.68,0,0,1,.7-1.32,2.14,2.14,0,0,1,.86-.28,1.77,1.77,0,0,1,1.25.63,10.82,10.82,0,0,1,1.13,2.18,3.59,3.59,0,0,1,.58-.19c2.34-.63,5.77-1.41,10.3-2.27a27.56,27.56,0,0,1,4.52-.66c.31,0,.54,0,.78,0a1.53,1.53,0,0,1,.74,1.37c0,2.53-3.59,5.88-10.76,10.09a4.23,4.23,0,0,0,1-.31,88.3,88.3,0,0,0,9.12-3.16.8.8,0,0,1,.78.51,1,1,0,0,1,.16.39,1.76,1.76,0,0,1-.58,1.21q-1.69,1.69-8.66,3.86c.08,1.17.16,2.45.16,3.94,0,.54-.08,1-.08,1.52.43-.12.78-.24,1.05-.32a30.05,30.05,0,0,0,3.2-1.36,7.92,7.92,0,0,1,1.17-.39,3.77,3.77,0,0,1,.62-.08,1,1,0,0,1,.82.39,1.29,1.29,0,0,1,.12.59,2.2,2.2,0,0,1-.7,1.17,8,8,0,0,1-2.3,1.44,15.47,15.47,0,0,1-3.4,1.28,2.49,2.49,0,0,1-.89.28,2.34,2.34,0,0,0-.12.62,29,29,0,0,1-1,4.41,2.27,2.27,0,0,0,.31.23,36.21,36.21,0,0,0,8.11,3.31,27.57,27.57,0,0,0,3.58.67,21,21,0,0,0,2.93.23,12.25,12.25,0,0,0,1.4-.15,7.78,7.78,0,0,0,1.29-.43,2.46,2.46,0,0,1,.78-.24c.66,0,1,.16,1.09.55a1.78,1.78,0,0,1-.27.78,3.9,3.9,0,0,1-.71.62,11.35,11.35,0,0,1-5.88,1.41c-4.56,0-9.79-1.68-15.71-5a23.63,23.63,0,0,1-2.81-2,11.84,11.84,0,0,1-.94-.93c-.15.74-.31,1.4-.5,2a17.8,17.8,0,0,1-1.52,4.17,1.73,1.73,0,0,1-1.56.9,1,1,0,0,1-1-1,2.47,2.47,0,0,1,.16-.86,18,18,0,0,0,1.79-8.18c0-.47,0-.9,0-1.33s-.08-.94-.08-1.25a1.35,1.35,0,0,1-.23-.78,1.6,1.6,0,0,1,.58-1.05,1.53,1.53,0,0,1,1-.31,2.69,2.69,0,0,1,.66.08,1.65,1.65,0,0,1,.82.81,12.27,12.27,0,0,1,.27,2.69C407,137.92,407,138.35,407,138.74Zm2.73-26.63a1.18,1.18,0,0,1,.43-.74,2.87,2.87,0,0,1,1.8-.81c0,.31.31.46,1,.5s2.15.35,4.17.63a.61.61,0,0,1,.55.66,1.51,1.51,0,0,1-.7,1.29,2.75,2.75,0,0,1-1.33.35,43.36,43.36,0,0,1-5-.28C410,113.52,409.71,113,409.71,112.11Z"/><path class="cls-3" d="M127.19,180.53l-3.9.82c.23,5.53.35,9.74.35,12.59,0,6-1.29,9-3.78,9a4,4,0,0,1-2.65-1.32c-1.21-1.13-1.8-2-1.8-2.65a1.51,1.51,0,0,1,.55-1.17,1.46,1.46,0,0,1,1-.51,1.92,1.92,0,0,1,1.52.94,4.48,4.48,0,0,0,1.25,1.28c.43-1,.66-3.94.66-8.69,0-1.05-.11-3.9-.27-8.5A37.08,37.08,0,0,1,112,194c-3.23,3.27-5.22,4.91-5.92,5-1.1,0-1.64-.67-1.72-1.84.08-1.24.94-2.41,2.5-3.54a2.21,2.21,0,0,1,1.44-.43c4-3.82,6.78-7.45,8.34-10.84-3.9.47-6.28.7-7.21.7-1.33,0-2-.54-2-1.64a1.45,1.45,0,0,1,1.56-1.67,88.49,88.49,0,0,0,11.11-1.25c0-.7-.08-1.56-.19-2.65a3.2,3.2,0,0,1,.54-1.95,1.86,1.86,0,0,1,.94-.86,2,2,0,0,1,1.6.51,2.14,2.14,0,0,1,.35,1.09l0,1.52v1.72c.9-.16,2.3-.39,4.25-.78a1.75,1.75,0,0,1,2,1.32C129.53,179.51,128.75,180.21,127.19,180.53Z"/><path class="cls-3" d="M166.37,188.87a49.11,49.11,0,0,1-6.94,6.59,29.4,29.4,0,0,1-8.34,4.25,2.66,2.66,0,0,1-1.56.86,13.54,13.54,0,0,1-2,.31c-1.48,0-2.22-.59-2.22-1.72,0-.93.35-1.48,1.13-1.67a30.3,30.3,0,0,0,9.86-3.79,38.93,38.93,0,0,0,7.95-7,1.45,1.45,0,0,1,1.13-.59c1,0,1.53.59,1.53,1.68A1.76,1.76,0,0,1,166.37,188.87Zm-11.85-4.64a2.88,2.88,0,0,1-1.45-.82c-.31-.23-1.2-.78-2.69-1.64a2.6,2.6,0,0,1-1.56-2.33c0-1.1.63-1.68,1.91-1.68.94,0,2.54,1.17,4.8,3.47a1.74,1.74,0,0,1,.74,1.36C156.27,183.68,155.69,184.23,154.52,184.23Z"/><path class="cls-3" d="M198,194.68a39.15,39.15,0,0,1-5.84,6.16c-2.73,2.3-4.88,3.47-6.44,3.47-1.09,0-1.59-.59-1.59-1.68s.54-1.6,1.67-1.6a7,7,0,0,0,2.5-1.2c4.4-3.2,7.44-6.71,9.12-10.45a4.93,4.93,0,0,0,.58-2c0-1.44-1.05-2.18-3.11-2.18-.63,0-2.54.23-5.74.62a6,6,0,0,1-1.75.9,7.34,7.34,0,0,1-2.73.66c-1.6,0-2.38-.63-2.38-1.87,0-1,1-1.72,2.93-2.19a40.77,40.77,0,0,1,9.7-1.36,7.76,7.76,0,0,1,4.25,1.13,4.35,4.35,0,0,1,2,3.82C201.18,189.26,200.13,191.83,198,194.68Zm.08-17.12a52.78,52.78,0,0,1-9.08.9,18.45,18.45,0,0,1-2.77-.12c-1.13-.23-1.68-.82-1.68-1.75a2,2,0,0,1,.59-1.37,1.84,1.84,0,0,1,1.29-.62,3,3,0,0,1,1.79.59c.51,0,.86,0,1.09,0,1,0,3.78-.27,8.38-.89,1,0,1.56.58,1.56,1.67A1.38,1.38,0,0,1,198.1,177.56Z"/><path class="cls-3" d="M232.06,176.59a44.59,44.59,0,0,1-2.77,3.62,23.82,23.82,0,0,1,1,7.65c0,1.63-.11,4.29-.35,7.87-.31,4.06-.47,6.36-.47,7,0,1.13-.54,1.72-1.55,1.72s-1.53-.94-1.8-2.73c-.23-1.29-.35-2-.35-2.15,0-.39.27-.78.82-1.25q.59-8.36.58-10.05a36.45,36.45,0,0,0-.42-5.15q-1.17,1.17-6.09,5.73a3.42,3.42,0,0,1-1.71,1,1.42,1.42,0,0,1-1.6-1.63,2.07,2.07,0,0,1,.82-1.45A77.2,77.2,0,0,0,228.67,176a1.72,1.72,0,0,1,.35-1.09c1.17-1.67,2.1-2.53,2.8-2.53a1.76,1.76,0,0,1,1.1.43,1.6,1.6,0,0,1,.42,1.09A6.31,6.31,0,0,1,232.06,176.59Z"/><path class="cls-3" d="M275.14,188.87a50.22,50.22,0,0,1-6.94,6.59,29.33,29.33,0,0,1-8.35,4.25,2.6,2.6,0,0,1-1.56.86,13.29,13.29,0,0,1-2,.31c-1.48,0-2.22-.59-2.22-1.72,0-.93.35-1.48,1.13-1.67A30.3,30.3,0,0,0,265,193.7a38.93,38.93,0,0,0,7.95-7,1.42,1.42,0,0,1,1.13-.59c1,0,1.52.59,1.52,1.68A1.75,1.75,0,0,1,275.14,188.87Zm-11.85-4.64a2.88,2.88,0,0,1-1.45-.82c-.31-.23-1.21-.78-2.69-1.64a2.6,2.6,0,0,1-1.56-2.33c0-1.1.63-1.68,1.91-1.68.94,0,2.54,1.17,4.8,3.47a1.74,1.74,0,0,1,.74,1.36C265,183.68,264.45,184.23,263.29,184.23Z"/><path class="cls-3" d="M314.82,195a3.47,3.47,0,0,1,.2.78c0,1.09-.51,1.64-1.44,1.64,0,0-.43,0-1.21-.08s-1.29,0-1.52,0c-4,0-6.71.35-8.11,1a2.75,2.75,0,0,1-.86.32,2,2,0,0,1-2-1.17,2,2,0,0,1-.23-.74c0-1,1-1.68,2.92-2a65.81,65.81,0,0,1,9.09-.7,36.29,36.29,0,0,0,2.84-4.57c-.46,0-1.09,0-1.91,0a40,40,0,0,0-9.16.81,4,4,0,0,1-.78.12c-1.05,0-1.56-.66-1.56-2,0-.62.39-1,1.17-1.2a36.23,36.23,0,0,1,8.85-1c.86,0,2.54,0,4.95.12a10.54,10.54,0,0,0,.59-3c0-1.49-.82-2.27-2.46-2.27a51.16,51.16,0,0,0-7.76.78,3.71,3.71,0,0,1-2.88.86c-1.64,0-2.42-.7-2.42-2.14a1.22,1.22,0,0,1,1-1.33,73.52,73.52,0,0,1,11.43-1.52q4,0,5.49,2.81a6.46,6.46,0,0,1,.63,2.81C319.7,186.3,318.06,190.23,314.82,195Z"/><path class="cls-3" d="M354.59,193a28.09,28.09,0,0,1-3.2,5.54c-1.67,2.18-3.16,3.31-4.4,3.31a3.24,3.24,0,0,1-3.12-2.37,9.54,9.54,0,0,1-.78-3.47,1.55,1.55,0,0,1,.47-1.17,1.87,1.87,0,0,1,1.17-.39,1.37,1.37,0,0,1,1.44,1.28,6.93,6.93,0,0,0,.74,2.73c1.09-.39,2.3-1.91,3.7-4.64a35.67,35.67,0,0,0,2.77-6.55,14.66,14.66,0,0,0,.82-3.82c0-.62-.43-1.09-1.29-1.44a7.2,7.2,0,0,0-2.69-.51,30.6,30.6,0,0,0-4.32.35c-1.29,2.81-2.73,5.77-4.37,8.89-1.29,2.34-2.85,5.27-4.64,8.77a5.36,5.36,0,0,1,.08.74,3.1,3.1,0,0,1-1,1.92,2.81,2.81,0,0,1-1.87,1,1.56,1.56,0,0,1-1.13-.47,1.73,1.73,0,0,1-.47-1.17c0-.47,2.23-4.91,6.75-13.37,1.21-2.34,2.14-4.21,2.84-5.65-.39.07-.89.19-1.52.27a6.39,6.39,0,0,1-3,1.13c-1.25,0-1.87-.55-1.87-1.72a2,2,0,0,1,1.64-2.06c1.4-.27,3.47-.7,6.23-1.25.59-1.64,1.06-3.24,1.45-4.79s1-2.38,2.06-2.38,1.64.62,1.64,1.87a3.79,3.79,0,0,1-.58,2.3c-.16.58-.47,1.44-.86,2.53,1-.08,1.91-.11,2.65-.11,4.87,0,7.33,1.79,7.33,5.34Q357.28,186.54,354.59,193Zm5.65-12.78a2.56,2.56,0,0,1-2-1.68c-.23-.27-.62-.7-1.09-1.33a3.48,3.48,0,0,1-1.13-2c0-.94.43-1.45,1.37-1.45.39,0,.81.32,1.24.86.71.86,1.52,2,2.54,3.2a2.19,2.19,0,0,1,.27.93C361.45,179.71,361,180.18,360.24,180.18Zm3-3.86a1.28,1.28,0,0,1-1-.55,7.07,7.07,0,0,0-1.87-1.25,1.61,1.61,0,0,1-1-1.63,1.07,1.07,0,0,1,.42-.86,1.57,1.57,0,0,1,1-.35,4.67,4.67,0,0,1,2.42,1.13c.93.74,1.44,1.44,1.44,2.1A1.23,1.23,0,0,1,363.24,176.32Z"/><path class="cls-3" d="M391,197.88a1.28,1.28,0,0,1-1.13.66c-1.09,0-1.64-.39-1.64-1.21a7.22,7.22,0,0,1,.12-1.17c-.23-.78-1.13-1.56-2.69-2.42A22.61,22.61,0,0,0,382,192.3a38.88,38.88,0,0,1-7.64,6.94,4.37,4.37,0,0,1-2.38.86,1.65,1.65,0,0,1-1.2-.43,1.55,1.55,0,0,1-.47-1.17,1.41,1.41,0,0,1,1.6-1.6c1.28-.54,3.12-2,5.49-4.44a58.69,58.69,0,0,0,4.88-5.58,27.39,27.39,0,0,0,2.34-3.7,9.81,9.81,0,0,0,1.4-4.06c0-.43-.62-.66-1.83-.66a19.32,19.32,0,0,0-7.06,1.29,2.65,2.65,0,0,1-1.75.85,2.32,2.32,0,0,1-1.68-.7,2.13,2.13,0,0,1-.74-1.67c0-.74.47-1.21,1.4-1.45a80,80,0,0,1,10.18-1.63c3.08,0,4.64,1.36,4.64,4s-1.68,6.16-5,10.29c4.83,1.76,7.25,4,7.25,6.71A2.8,2.8,0,0,1,391,197.88Z"/><path class="cls-3" d="M421.64,192.38c-2.53,2.73-5.07,5.3-7.56,7.72-1.17,1.09-1.95,1.67-2.42,1.67a1.45,1.45,0,0,1-1.13-.46,1.6,1.6,0,0,1-.47-1.13c0-.55.71-1.68,2.19-3.36a1.26,1.26,0,0,1,1-.31c2.42-2.34,4.56-4.56,6.36-6.67a52.65,52.65,0,0,1-5.11-3.82,1.43,1.43,0,0,1-.66-1.2,1.73,1.73,0,0,1,.5-1.17,1.67,1.67,0,0,1,1.25-.51,2.85,2.85,0,0,1,1.21.62,35.58,35.58,0,0,0,4.76,3.51c2.14-3,3.23-5.42,3.23-7.21,0-1.48-.86-2.26-2.49-2.26a9.36,9.36,0,0,0-4.8,1.48,5,5,0,0,1-1.52.7,1.38,1.38,0,0,1-.58-.15,38.5,38.5,0,0,1-3.47,4.71,1.56,1.56,0,0,1-1.17.59c-1,0-1.48-.55-1.48-1.72a1.92,1.92,0,0,1,.46-1.25,26.38,26.38,0,0,0,5.07-8.73c.31-.86.82-1.32,1.48-1.32,1.06,0,1.68,1.09,1.84,3.23a10,10,0,0,1,3.82-.78,6.6,6.6,0,0,1,4.21,1.44,5,5,0,0,1,1.67,4Q427.8,185.77,421.64,192.38Z"/><path class="cls-3" d="M468.27,187.15c-5.22,7-10.53,11.47-15.87,13.49a13.85,13.85,0,0,1-3.66,1.06c-1.21,0-1.8-.55-1.8-1.64a2,2,0,0,1,.94-1.72,2.53,2.53,0,0,1,1.48-.5h1.17c4.33-1.09,9.44-5.34,15.28-12.67a1.94,1.94,0,0,1,1.37-.9,1.5,1.5,0,0,1,1.13.51,1.91,1.91,0,0,1,.43,1.2A1.87,1.87,0,0,1,468.27,187.15Zm-10.57-.74a1.32,1.32,0,0,1-1,.47c-.35,0-1.52-.12-3.55-.39-2.1,0-3.39-.23-3.86-.78a2,2,0,0,1-.5-1.56,1.25,1.25,0,0,1,.5-.93,1.39,1.39,0,0,1,1-.47c.54,0,2.73.31,6.51.9.85.11,1.28.66,1.28,1.63A1.4,1.4,0,0,1,457.7,186.41Zm.36-6.2a1.7,1.7,0,0,1-1-.54c-.31-.23-1.28-.9-2.92-1.91a7.86,7.86,0,0,1-2.38-.39,1.66,1.66,0,0,1-1.21-1.68c0-1.09.51-1.67,1.6-1.67,2.49,0,4.83,1.13,7.06,3.35a1.7,1.7,0,0,1,.58,1.25C459.77,179.71,459.19,180.21,458.06,180.21Zm10.56-1.28c-.47,0-1.17-.55-2.1-1.68-1.41-1.64-2.07-2.65-2.07-3,0-1,.47-1.56,1.4-1.56a1.86,1.86,0,0,1,1.17.59c.47.39.7.74.7,1.05l1.6,1.91a2.53,2.53,0,0,1,.67,1.25C470,178.46,469.52,178.93,468.62,178.93Zm3.94-2.18a1.61,1.61,0,0,1-1.25-.71,9.26,9.26,0,0,0-1.75-1.75,1.74,1.74,0,0,1-.67-1.25c0-.89.47-1.36,1.49-1.36.54,0,1.24.5,2.1,1.44a3.92,3.92,0,0,1,1.29,2.34C473.77,176.32,473.34,176.75,472.56,176.75Z"/><path class="cls-3" d="M499.19,180.53l-3.9.82c.23,5.53.35,9.74.35,12.59,0,6-1.29,9-3.78,9a4,4,0,0,1-2.66-1.32c-1.2-1.13-1.79-2-1.79-2.65a1.51,1.51,0,0,1,.55-1.17,1.46,1.46,0,0,1,1-.51,1.93,1.93,0,0,1,1.52.94,4.35,4.35,0,0,0,1.25,1.28c.43-1,.66-3.94.66-8.69,0-1.05-.12-3.9-.27-8.5A37.08,37.08,0,0,1,484,194c-3.24,3.27-5.22,4.91-5.93,5-1.09,0-1.63-.67-1.71-1.84.08-1.24.93-2.41,2.49-3.54a2.24,2.24,0,0,1,1.45-.43c4-3.82,6.78-7.45,8.34-10.84-3.9.47-6.28.7-7.21.7-1.33,0-2-.54-2-1.64a1.45,1.45,0,0,1,1.56-1.67,88.68,88.68,0,0,0,11.11-1.25,25.76,25.76,0,0,0-.2-2.65,3.2,3.2,0,0,1,.55-1.95,1.86,1.86,0,0,1,.94-.86,1.92,1.92,0,0,1,1.59.51,2.05,2.05,0,0,1,.35,1.09l0,1.52v1.72c.89-.16,2.3-.39,4.24-.78,1.1,0,1.76.46,1.95,1.32C501.52,179.51,500.74,180.21,499.19,180.53Z"/><path class="cls-4" d="M195.1,121.24c-.43,1.75-.9,3.43-1.44,5,.62.74,1.28,1.48,1.91,2.18a91.9,91.9,0,0,0,10.17,10.76c2.34,2,4.49,3.82,6.51,5.58a2.12,2.12,0,0,1,1,1.71,1,1,0,0,1-.74,1h-.27a3.36,3.36,0,0,1-1.37-.42,51.37,51.37,0,0,1-5.73-4.33,62.94,62.94,0,0,1-12.28-13.1,1.46,1.46,0,0,1-.35-.51c-.16.47-.35.9-.51,1.29-.86,1.83-1.87,4-3.08,6.39-.74,1.44-1.44,2.73-2.07,3.82A9.75,9.75,0,0,1,185,143a1.77,1.77,0,0,1-1,.31,1.07,1.07,0,0,1-1-1.05,1.68,1.68,0,0,1,.32-1.09c.43-.7.89-1.52,1.4-2.38.94-1.64,2-3.47,3-5.57.74-1.72,1.52-3.59,2.34-5.7a56.57,56.57,0,0,0,2.11-7,45.25,45.25,0,0,0,.66-6.28,1.11,1.11,0,0,1,1-1c.24,0,.51,0,.86,0,.74,0,1.13.7,1.17,2A28.08,28.08,0,0,1,195.1,121.24Z"/><path class="cls-4" d="M220.64,127.05c.46-.12,1-.24,1.55-.35,3.05-.71,5.93-1.45,8.7-2.23a68.23,68.23,0,0,0,10.06-3.9c1.09,0,1.67.36,1.75,1a20.79,20.79,0,0,0-2,6,34.33,34.33,0,0,0-.23,4.06c.16,6.74,2.53,11.42,7.13,14.15a15.38,15.38,0,0,0,.75-2.88,1.14,1.14,0,0,1,1.24-1.25,1.36,1.36,0,0,1,1.17,1.05,17,17,0,0,1-.5,3.63c-.47,2.18-1.13,3.31-2,3.31q-1.76-.06-4.33-2.34a20.29,20.29,0,0,1-4.8-7.56,22.83,22.83,0,0,1-1.4-8.27,15.77,15.77,0,0,1,.27-3.08,20.44,20.44,0,0,1,.9-4.25,85.09,85.09,0,0,1-15.71,5.15,12,12,0,0,1-2.22.43c-.59-.08-.94-.47-1.09-1.21A1.42,1.42,0,0,1,220.64,127.05Zm14.23,19.68-5.23-3.39c-.23-.15-.43-.31-.66-.46-.63.93-1.29,1.87-2,2.8a27.45,27.45,0,0,1-3.62,3.55,2.13,2.13,0,0,1-1.37.66c-.58,0-.86-.39-.86-1.09,0-.23.24-.58.74-1a33.08,33.08,0,0,0,5.07-6.47c-.82-.55-1.64-1.17-2.41-1.8a5.42,5.42,0,0,1-1.41-1.13,1.89,1.89,0,0,1-.54-.78v-.35a2.54,2.54,0,0,1,.31-.9,1.19,1.19,0,0,1,1.17-.81,3.7,3.7,0,0,1,.7.15,8.79,8.79,0,0,1,1.91,1.33c.47.39,1.09.89,1.79,1.44a36.82,36.82,0,0,0,1.68-4.25c.16-.58.31-1.17.43-1.79a10.83,10.83,0,0,0,.15-1.37,2.76,2.76,0,0,0-.11-.74c0-.54.11-.93.35-1.09a2,2,0,0,1,.89-.2,2.75,2.75,0,0,1,1.33.51,1.32,1.32,0,0,1,.58,1.21,14.43,14.43,0,0,1-1,4.25,26.48,26.48,0,0,1-2.26,5.11c1,.82,2.14,1.67,3.35,2.61,1.72,1.29,3.08,2.38,4.13,3.23a8.54,8.54,0,0,1,.9.78,1.64,1.64,0,0,1,.39.86.92.92,0,0,1-1,1.06,1.71,1.71,0,0,0-.43-.08A19.84,19.84,0,0,1,234.87,146.73Zm2-28.1c-.7.7-2.49,1.48-5.3,2.37-1.64.47-3.12.9-4.44,1.25l-.94.24a9.93,9.93,0,0,1-1.4.07c-.7,0-1.13-.5-1.21-1.48q0-.64,1.05-1.17c.43-.15.94-.31,1.56-.5,1.72-.32,3.35-.71,5-1.1,2.26-.58,4.06-1.09,5.38-1.56a1,1,0,0,1,.82.39,1.18,1.18,0,0,1,.08.39A1.51,1.51,0,0,1,236.85,118.63Zm-2.76-4.1a30.71,30.71,0,0,1-6.32,1.52h-.51a1.78,1.78,0,0,1-1.24-.31,1.61,1.61,0,0,1-.75-1.48,7,7,0,0,1,.2-1.68,10.57,10.57,0,0,1,.58-1.44A1.41,1.41,0,0,1,227.3,110h.24a1.35,1.35,0,0,1,1.28,1.44,4.88,4.88,0,0,0-.66,1.76,25.83,25.83,0,0,0,4.21-.82A32.06,32.06,0,0,0,236,111.3a5.52,5.52,0,0,1,1.44-.35,1,1,0,0,1,.86.89,1.4,1.4,0,0,1-.35,1A15.29,15.29,0,0,1,234.09,114.53Z"/><path class="cls-4" d="M276.89,136.91c-2.1,3.24-4.44,5.38-7,6.39a2.47,2.47,0,0,1-.89.24c-1,0-1.52-.63-1.52-1.83,0-.63.54-1.37,1.63-2.23a2.19,2.19,0,0,1,1.41-.46,21.67,21.67,0,0,0,4.32-4.92,11.51,11.51,0,0,0,2.11-6.2c0-2-1.48-3.23-4.41-3.66a37.57,37.57,0,0,1-5.65,10.64c-1.64,2.19-3.35,3.24-5.07,3.24a3.79,3.79,0,0,1-3.23-1.87,6.57,6.57,0,0,1-1.21-3.86c0-2.65,1.91-5.3,5.81-8,3.35-2.3,6.31-3.47,8.81-3.47a9.22,9.22,0,0,1,5.61,1.67,6.38,6.38,0,0,1,2.42,5.3A16.56,16.56,0,0,1,276.89,136.91Zm-13.06-9c-2.18,1.72-3.27,3.28-3.27,4.72a2.94,2.94,0,0,0,.46,1.48c.32.51.63.74.9.74,1.09,0,2.85-2,5.23-6a31.19,31.19,0,0,0,1.79-3.94A21,21,0,0,0,263.83,127.94Z"/><path class="cls-4" d="M299.35,145.84a1.59,1.59,0,0,1,.82-1.48,30.58,30.58,0,0,0,3.89-2.23c-.27-.27-.5-.54-.74-.81q-4.32-4.4-4.32-8.07a21,21,0,0,1,.35-3.63c.15-1.05.31-2.11.5-3.12-2.57.62-5.18,1.33-7.91,2.15a2.85,2.85,0,0,1-1.09.31,1,1,0,0,1-.94-.63,2.13,2.13,0,0,1-.15-1c0-.39.35-.82,1-1.21a49.83,49.83,0,0,1,6.78-2.22c1-.27,2-.51,3-.7a55.55,55.55,0,0,0,.74-5.73c0-.36,0-.74-.08-1.21a6,6,0,0,1-.2-1.33,2.3,2.3,0,0,1,.55-1.52,2,2,0,0,1,1.05-.39,1.38,1.38,0,0,1,1,.47,6,6,0,0,1,.62,3.24,46,46,0,0,1-.43,5.18,3.88,3.88,0,0,0-.08.59c.08,0,.12-.08.16-.08,2.5-.55,4.91-1,7.25-1.41,1.87-.31,3.75-.58,5.66-.81s3.11-.32,3.89-.32c1,.08,1.49.55,1.56,1.41a1.53,1.53,0,0,1-1.36,1.6c-1.17.15-2.3.27-3.39.38-1.48.2-3,.39-4.53.63.12.47.24,1,.36,1.56a36.27,36.27,0,0,1,.27,3.66,19.07,19.07,0,0,1-2.57,9.87,27.69,27.69,0,0,1-2.27,3c.32.23.67.47,1,.74,1.13.78,2.07,1.44,2.77,2a1,1,0,0,1,.35.7,1.17,1.17,0,0,1-1.13,1.36h-.35a6.41,6.41,0,0,1-2.89-1.09c-.7-.51-1.4-1-2-1.56a22,22,0,0,1-3.47,2.34,3.56,3.56,0,0,1-1.71.59A1.64,1.64,0,0,1,299.35,145.84Zm3.66-20c-.19.86-.39,1.75-.54,2.69a27.56,27.56,0,0,0-.75,4.72c0,1.63,1.37,3.74,4.1,6.27l.66.67a15.32,15.32,0,0,0,2.89-4.06,16.59,16.59,0,0,0,1.44-5.81,24.55,24.55,0,0,0-.39-4.64c-.12-.46-.24-.89-.31-1.28C308,124.75,305.58,125.21,303,125.8Z"/><path class="cls-4" d="M326.91,131.65a14.27,14.27,0,0,1-.55,1.95,2.73,2.73,0,0,1-.35.85,1.54,1.54,0,0,1-1.21.55c-.54,0-.82-.31-.82-.82a3.67,3.67,0,0,1,.16-1c.08-.63.2-1.29.27-2,0-.55,0-1.09,0-1.6a19.76,19.76,0,0,0-.23-3.39,4.46,4.46,0,0,1-.16-1,1.73,1.73,0,0,1,.43-1.29,1.51,1.51,0,0,1,.86-.27,1.62,1.62,0,0,1,.9.27,8.35,8.35,0,0,1,.7,1,29.89,29.89,0,0,1,.23,4.06A19.37,19.37,0,0,1,326.91,131.65Zm5.57,11.23c-.07,1-.15,2-.19,2.92-.23,1-.7,1.56-1.48,1.56s-1.29-.55-1.29-1.6v-5.3c.08-3.12.12-5.15.12-6.16,0-3.59,0-6.43-.08-8.58a69.94,69.94,0,0,0-.74-9.2,1.43,1.43,0,0,1,.74-1.29,2.2,2.2,0,0,1,.94-.27,1.1,1.1,0,0,1,.93.47,2.44,2.44,0,0,1,.43,1.29c.2,2.33.39,5.22.58,8.65v.35a6.71,6.71,0,0,1,.71-.23,12.82,12.82,0,0,0,2-.67c.32-.07.59-.15.75-.19a1.83,1.83,0,0,1,.62-.12.89.89,0,0,1,.82.43,2.66,2.66,0,0,1,.08.51,2.31,2.31,0,0,1-.67,1.17,4.93,4.93,0,0,1-1.4.89,8.15,8.15,0,0,1-2,.86,2.25,2.25,0,0,1-.82.2c0,1.87,0,3.82,0,5.92S332.52,139.29,332.48,142.88Zm23.12-13q-1.39,1.41-7,3.4c0,1.79-.11,3.58-.27,5.34-.11,1.44-.23,2.65-.35,3.62,1.48-.19,2.93-.35,4.29-.5s2.61-.28,3.86-.43c1-.08,2-.12,2.88-.12,1.1.08,1.72.47,1.88,1.21a1.37,1.37,0,0,1-1.25,1.44c-.86.12-1.8.23-2.73.39-1.17.08-2.46.23-3.78.39-2.61.31-5.27.66-8,1.09-2.49.39-4.79.78-6.9,1.25-.7.08-1.24.16-1.67.16s-.59-.28-.74-.75a4.31,4.31,0,0,1-.08-1.16q.18-.7,2.22-1.17a36.44,36.44,0,0,1,5-1.06c.86-.15,1.72-.27,2.57-.39.08-.74.16-1.67.28-2.84.19-2.26.31-4.17.35-5.66-1.52.47-2.93.94-4.21,1.33-.55.16-1,.23-1.21.31a12.56,12.56,0,0,1-1.56.12c-.74,0-1.17-.55-1.33-1.6,0-.47.39-.94,1.17-1.33.43-.15,1-.31,1.72-.5q2.81-.64,5.38-1.41c-.12-2.14-.31-4.67-.63-7.6a13.73,13.73,0,0,1-3.27.51h-1.6a2.06,2.06,0,0,1-1.36-.47,2.36,2.36,0,0,1-.78-2c0-.58,0-1.28.11-2.14l.35-1.83a1.17,1.17,0,0,1,1.21-.78h.28a1.37,1.37,0,0,1,1.32,1.48c-.15,1.48-.19,2.34-.19,2.53s.19.27.58.27a10.7,10.7,0,0,0,3-.74,3.34,3.34,0,0,1-.07-.66c-.24-1.72-.47-3.35-.71-5a7.79,7.79,0,0,1-.27-1.68c0-.43.27-.82.9-1.17a3.61,3.61,0,0,1,1.32-.27c.51,0,.86.59,1.09,1.72.08,1,.16,2,.32,3.15s.11,2,.19,2.89a30.64,30.64,0,0,0,5.85-2.77c.86.2,1.29.62,1.36,1.33a1.37,1.37,0,0,1-.58,1.13,23.47,23.47,0,0,1-5.58,3.23,5.07,5.07,0,0,1-.81.35c.07,1.1.11,2.15.19,3.16.12,1.64.19,3.16.23,4.52a65.33,65.33,0,0,0,6.63-2.26.89.89,0,0,1,.82.43.79.79,0,0,1,.08.35A1.81,1.81,0,0,1,355.6,129.85Z"/><path class="cls-4" d="M367.8,128.65a2.35,2.35,0,0,0,1.88-.78,2.4,2.4,0,0,0,.74-1.53c0-.5-1.37-1.2-4.1-2.06a1.68,1.68,0,0,1-1.05-1,2.54,2.54,0,0,1-.23-1.17,4.23,4.23,0,0,1,.74-1.48c.85-1.17,1.87-2.61,3-4.29a6,6,0,0,0,.86-1.59,11.56,11.56,0,0,0-3.08-.59c-.67-.16-1-.7-1-1.6a1.41,1.41,0,0,1,1.37-1.44,14,14,0,0,1,4.32,1,2,2,0,0,1,1.17,1.72c0,1.91-1.6,4.68-4.68,8.26.55.12,1.14.28,1.68.43,2.34.74,3.51,1.72,3.51,3a5.14,5.14,0,0,1-.2,1.48,4.92,4.92,0,0,1-1.36,2.73,5,5,0,0,1-3.63,1.4,4.35,4.35,0,0,1-2.92-1c0,1.79.08,3.74.12,5.88v6.91c0,1.52,0,2.72,0,3.62-.08,1.72-.47,2.61-1.13,2.61s-1.17-.86-1.25-2.57a30.33,30.33,0,0,1-.16-3.35c0-2.42-.15-5.54-.31-9.32-.08-2.65-.15-5.73-.31-9.28,0-.66-.08-2-.08-4a1.62,1.62,0,0,1,.7-1.21,1.55,1.55,0,0,1,.9-.31c.86,0,1.33.5,1.4,1.44s0,2,.08,3.31,0,2.73.08,3.9l.12.12A4.89,4.89,0,0,0,367.8,128.65Zm10.53-6.13c.94-.54,2.18-1.17,3.7-1.87a22.63,22.63,0,0,1,3.75-1.32,9.61,9.61,0,0,0,.66-2.23.28.28,0,0,0-.27-.31,6.82,6.82,0,0,0-1.09-.07c-.86,0-1.6,0-2.23.07l-2.06.2c-1,0-1.56-.43-1.64-1.33a1.68,1.68,0,0,1,.58-1.32,3.07,3.07,0,0,1,1.41-.39c1,0,2-.08,2.92-.08a10.24,10.24,0,0,1,3.82.51,2,2,0,0,1,1.29,1.91,15,15,0,0,1-1.21,5.22c-.55,1.13-1,2.18-1.6,3.12a.54.54,0,0,0,.27.12,1.13,1.13,0,0,1,.59.7,2.08,2.08,0,0,1-.62,1.4,9.72,9.72,0,0,1-2.27,1.68,55.3,55.3,0,0,1-5.61,3,4.23,4.23,0,0,1-.93.31c0,.43-.08.82-.08,1.21q-.24,4.86-.24,8.19a18.41,18.41,0,0,0,.12,2.61A22.71,22.71,0,0,0,382,140a.82.82,0,0,1,.7-.39c.35.08.54.35.54.9a4.16,4.16,0,0,1-.7,2.1,16.26,16.26,0,0,1-3.12,3.24,4.91,4.91,0,0,1-2.76,1.09c-1.1,0-1.68-1.21-1.72-3.63,0-3.19.08-6.7.27-10.56.24-4.91.39-9.12.43-12.67a14.85,14.85,0,0,0-.12-1.6c0-.93.63-1.4,1.76-1.48.78,0,1.21.51,1.29,1.4C378.45,119.83,378.37,121.24,378.33,122.52Zm6.47-.74c-1.91.94-4.13,2-6.63,3.08-.07,1.45-.11,2.73-.19,3.82a39.43,39.43,0,0,0,4.83-2.45Q383.82,124.24,384.8,121.78Zm7.33,9a3.42,3.42,0,0,1-.93,1.52c-2.5,2.89-4.33,4.6-5.54,5.15l0,0a46.25,46.25,0,0,0,4.33,4.6,43.93,43.93,0,0,0,6.12,4.75c.58.31.9.63.9,1,0,.7-.55,1-1.6,1-1.87-.23-4.25-1.68-7.06-4.29a49.76,49.76,0,0,1-7.68-9,3.09,3.09,0,0,1-.9-2.07,1.35,1.35,0,0,1,1.17-1.37,1.81,1.81,0,0,1,1,.32,5.61,5.61,0,0,1,.93,1.13,14,14,0,0,0,1.45,2.22,23.82,23.82,0,0,0,4.87-5.58,1.68,1.68,0,0,1,.62-.81,1.5,1.5,0,0,1,.86-.28H391C391.7,129.27,392.09,129.81,392.13,130.75Z"/><path class="cls-4" d="M407,138.74a2.35,2.35,0,0,1,.51-.08,2.12,2.12,0,0,1,.86.24c.58.39,1.32.93,2.26,1.64a5.4,5.4,0,0,0,.78.54,22.85,22.85,0,0,0,.78-5c0-1.05,0-2.14,0-3.27,0-1,0-2-.08-3-1.79.58-3.43,1.09-5,1.48a13.29,13.29,0,0,1-1.52.35,9.21,9.21,0,0,1-1.4.08c-.7,0-1.13-.51-1.21-1.48,0-.43.35-.82,1.05-1.21a11.3,11.3,0,0,0,1.56-.47c1.05-.24,2.11-.51,3.12-.82.08-.08.16-.19.23-.27a83.22,83.22,0,0,0,11.19-9.52q-2.34.36-11.81,2.69a4.32,4.32,0,0,1-.86.16,29.58,29.58,0,0,1,.2,3.35,1.81,1.81,0,0,1-.82,1.56,2.44,2.44,0,0,1-1.09.28c-.47,0-.67-.24-.67-.71.08-.93.12-1.71.12-2.41a6.47,6.47,0,0,0-.58-2.38,9.54,9.54,0,0,0-1.17-2.46,2.07,2.07,0,0,1-.59-1.13,1.68,1.68,0,0,1,.7-1.32,2.14,2.14,0,0,1,.86-.28,1.77,1.77,0,0,1,1.25.63,10.82,10.82,0,0,1,1.13,2.18,3.59,3.59,0,0,1,.58-.19c2.34-.63,5.77-1.41,10.3-2.27a27.56,27.56,0,0,1,4.52-.66c.31,0,.54,0,.78,0a1.53,1.53,0,0,1,.74,1.37c0,2.53-3.59,5.88-10.76,10.09a4.23,4.23,0,0,0,1-.31,88.3,88.3,0,0,0,9.12-3.16.8.8,0,0,1,.78.51,1,1,0,0,1,.16.39,1.76,1.76,0,0,1-.58,1.21q-1.69,1.69-8.66,3.86c.08,1.17.16,2.45.16,3.94,0,.54-.08,1-.08,1.52.43-.12.78-.24,1.05-.32a30.05,30.05,0,0,0,3.2-1.36,7.92,7.92,0,0,1,1.17-.39,3.77,3.77,0,0,1,.62-.08,1,1,0,0,1,.82.39,1.29,1.29,0,0,1,.12.59,2.2,2.2,0,0,1-.7,1.17,8,8,0,0,1-2.3,1.44,15.47,15.47,0,0,1-3.4,1.28,2.49,2.49,0,0,1-.89.28,2.34,2.34,0,0,0-.12.62,29,29,0,0,1-1,4.41,2.27,2.27,0,0,0,.31.23,36.21,36.21,0,0,0,8.11,3.31,27.57,27.57,0,0,0,3.58.67,21,21,0,0,0,2.93.23,12.25,12.25,0,0,0,1.4-.15,7.78,7.78,0,0,0,1.29-.43,2.46,2.46,0,0,1,.78-.24c.66,0,1,.16,1.09.55a1.78,1.78,0,0,1-.27.78,3.9,3.9,0,0,1-.71.62,11.35,11.35,0,0,1-5.88,1.41c-4.56,0-9.79-1.68-15.71-5a23.63,23.63,0,0,1-2.81-2,11.84,11.84,0,0,1-.94-.93c-.15.74-.31,1.4-.5,2a17.8,17.8,0,0,1-1.52,4.17,1.73,1.73,0,0,1-1.56.9,1,1,0,0,1-1-1,2.47,2.47,0,0,1,.16-.86,18,18,0,0,0,1.79-8.18c0-.47,0-.9,0-1.33s-.08-.94-.08-1.25a1.35,1.35,0,0,1-.23-.78,1.6,1.6,0,0,1,.58-1.05,1.53,1.53,0,0,1,1-.31,2.69,2.69,0,0,1,.66.08,1.65,1.65,0,0,1,.82.81,12.27,12.27,0,0,1,.27,2.69C407,137.92,407,138.35,407,138.74Zm2.73-26.63a1.18,1.18,0,0,1,.43-.74,2.87,2.87,0,0,1,1.8-.81c0,.31.31.46,1,.5s2.15.35,4.17.63a.61.61,0,0,1,.55.66,1.51,1.51,0,0,1-.7,1.29,2.75,2.75,0,0,1-1.33.35,43.36,43.36,0,0,1-5-.28C410,113.52,409.71,113,409.71,112.11Z"/><path class="cls-4" d="M127.19,180.53l-3.9.82c.23,5.53.35,9.74.35,12.59,0,6-1.29,9-3.78,9a4,4,0,0,1-2.65-1.32c-1.21-1.13-1.8-2-1.8-2.65a1.51,1.51,0,0,1,.55-1.17,1.46,1.46,0,0,1,1-.51,1.92,1.92,0,0,1,1.52.94,4.48,4.48,0,0,0,1.25,1.28c.43-1,.66-3.94.66-8.69,0-1.05-.11-3.9-.27-8.5A37.08,37.08,0,0,1,112,194c-3.23,3.27-5.22,4.91-5.92,5-1.1,0-1.64-.67-1.72-1.84.08-1.24.94-2.41,2.5-3.54a2.21,2.21,0,0,1,1.44-.43c4-3.82,6.78-7.45,8.34-10.84-3.9.47-6.28.7-7.21.7-1.33,0-2-.54-2-1.64a1.45,1.45,0,0,1,1.56-1.67,88.49,88.49,0,0,0,11.11-1.25c0-.7-.08-1.56-.19-2.65a3.2,3.2,0,0,1,.54-1.95,1.86,1.86,0,0,1,.94-.86,2,2,0,0,1,1.6.51,2.14,2.14,0,0,1,.35,1.09l0,1.52v1.72c.9-.16,2.3-.39,4.25-.78a1.75,1.75,0,0,1,2,1.32C129.53,179.51,128.75,180.21,127.19,180.53Z"/><path class="cls-4" d="M166.37,188.87a49.11,49.11,0,0,1-6.94,6.59,29.4,29.4,0,0,1-8.34,4.25,2.66,2.66,0,0,1-1.56.86,13.54,13.54,0,0,1-2,.31c-1.48,0-2.22-.59-2.22-1.72,0-.93.35-1.48,1.13-1.67a30.3,30.3,0,0,0,9.86-3.79,38.93,38.93,0,0,0,7.95-7,1.45,1.45,0,0,1,1.13-.59c1,0,1.53.59,1.53,1.68A1.76,1.76,0,0,1,166.37,188.87Zm-11.85-4.64a2.88,2.88,0,0,1-1.45-.82c-.31-.23-1.2-.78-2.69-1.64a2.6,2.6,0,0,1-1.56-2.33c0-1.1.63-1.68,1.91-1.68.94,0,2.54,1.17,4.8,3.47a1.74,1.74,0,0,1,.74,1.36C156.27,183.68,155.69,184.23,154.52,184.23Z"/><path class="cls-4" d="M198,194.68a39.15,39.15,0,0,1-5.84,6.16c-2.73,2.3-4.88,3.47-6.44,3.47-1.09,0-1.59-.59-1.59-1.68s.54-1.6,1.67-1.6a7,7,0,0,0,2.5-1.2c4.4-3.2,7.44-6.71,9.12-10.45a4.93,4.93,0,0,0,.58-2c0-1.44-1.05-2.18-3.11-2.18-.63,0-2.54.23-5.74.62a6,6,0,0,1-1.75.9,7.34,7.34,0,0,1-2.73.66c-1.6,0-2.38-.63-2.38-1.87,0-1,1-1.72,2.93-2.19a40.77,40.77,0,0,1,9.7-1.36,7.76,7.76,0,0,1,4.25,1.13,4.35,4.35,0,0,1,2,3.82C201.18,189.26,200.13,191.83,198,194.68Zm.08-17.12a52.78,52.78,0,0,1-9.08.9,18.45,18.45,0,0,1-2.77-.12c-1.13-.23-1.68-.82-1.68-1.75a2,2,0,0,1,.59-1.37,1.84,1.84,0,0,1,1.29-.62,3,3,0,0,1,1.79.59c.51,0,.86,0,1.09,0,1,0,3.78-.27,8.38-.89,1,0,1.56.58,1.56,1.67A1.38,1.38,0,0,1,198.1,177.56Z"/><path class="cls-4" d="M232.06,176.59a44.59,44.59,0,0,1-2.77,3.62,23.82,23.82,0,0,1,1,7.65c0,1.63-.11,4.29-.35,7.87-.31,4.06-.47,6.36-.47,7,0,1.13-.54,1.72-1.55,1.72s-1.53-.94-1.8-2.73c-.23-1.29-.35-2-.35-2.15,0-.39.27-.78.82-1.25q.59-8.36.58-10.05a36.45,36.45,0,0,0-.42-5.15q-1.17,1.17-6.09,5.73a3.42,3.42,0,0,1-1.71,1,1.42,1.42,0,0,1-1.6-1.63,2.07,2.07,0,0,1,.82-1.45A77.2,77.2,0,0,0,228.67,176a1.72,1.72,0,0,1,.35-1.09c1.17-1.67,2.1-2.53,2.8-2.53a1.76,1.76,0,0,1,1.1.43,1.6,1.6,0,0,1,.42,1.09A6.31,6.31,0,0,1,232.06,176.59Z"/><path class="cls-4" d="M275.14,188.87a50.22,50.22,0,0,1-6.94,6.59,29.33,29.33,0,0,1-8.35,4.25,2.6,2.6,0,0,1-1.56.86,13.29,13.29,0,0,1-2,.31c-1.48,0-2.22-.59-2.22-1.72,0-.93.35-1.48,1.13-1.67A30.3,30.3,0,0,0,265,193.7a38.93,38.93,0,0,0,7.95-7,1.42,1.42,0,0,1,1.13-.59c1,0,1.52.59,1.52,1.68A1.75,1.75,0,0,1,275.14,188.87Zm-11.85-4.64a2.88,2.88,0,0,1-1.45-.82c-.31-.23-1.21-.78-2.69-1.64a2.6,2.6,0,0,1-1.56-2.33c0-1.1.63-1.68,1.91-1.68.94,0,2.54,1.17,4.8,3.47a1.74,1.74,0,0,1,.74,1.36C265,183.68,264.45,184.23,263.29,184.23Z"/><path class="cls-4" d="M314.82,195a3.47,3.47,0,0,1,.2.78c0,1.09-.51,1.64-1.44,1.64,0,0-.43,0-1.21-.08s-1.29,0-1.52,0c-4,0-6.71.35-8.11,1a2.75,2.75,0,0,1-.86.32,2,2,0,0,1-2-1.17,2,2,0,0,1-.23-.74c0-1,1-1.68,2.92-2a65.81,65.81,0,0,1,9.09-.7,36.29,36.29,0,0,0,2.84-4.57c-.46,0-1.09,0-1.91,0a40,40,0,0,0-9.16.81,4,4,0,0,1-.78.12c-1.05,0-1.56-.66-1.56-2,0-.62.39-1,1.17-1.2a36.23,36.23,0,0,1,8.85-1c.86,0,2.54,0,4.95.12a10.54,10.54,0,0,0,.59-3c0-1.49-.82-2.27-2.46-2.27a51.16,51.16,0,0,0-7.76.78,3.71,3.71,0,0,1-2.88.86c-1.64,0-2.42-.7-2.42-2.14a1.22,1.22,0,0,1,1-1.33,73.52,73.52,0,0,1,11.43-1.52q4,0,5.49,2.81a6.46,6.46,0,0,1,.63,2.81C319.7,186.3,318.06,190.23,314.82,195Z"/><path class="cls-4" d="M354.59,193a28.09,28.09,0,0,1-3.2,5.54c-1.67,2.18-3.16,3.31-4.4,3.31a3.24,3.24,0,0,1-3.12-2.37,9.54,9.54,0,0,1-.78-3.47,1.55,1.55,0,0,1,.47-1.17,1.87,1.87,0,0,1,1.17-.39,1.37,1.37,0,0,1,1.44,1.28,6.93,6.93,0,0,0,.74,2.73c1.09-.39,2.3-1.91,3.7-4.64a35.67,35.67,0,0,0,2.77-6.55,14.66,14.66,0,0,0,.82-3.82c0-.62-.43-1.09-1.29-1.44a7.2,7.2,0,0,0-2.69-.51,30.6,30.6,0,0,0-4.32.35c-1.29,2.81-2.73,5.77-4.37,8.89-1.29,2.34-2.85,5.27-4.64,8.77a5.36,5.36,0,0,1,.08.74,3.1,3.1,0,0,1-1,1.92,2.81,2.81,0,0,1-1.87,1,1.56,1.56,0,0,1-1.13-.47,1.73,1.73,0,0,1-.47-1.17c0-.47,2.23-4.91,6.75-13.37,1.21-2.34,2.14-4.21,2.84-5.65-.39.07-.89.19-1.52.27a6.39,6.39,0,0,1-3,1.13c-1.25,0-1.87-.55-1.87-1.72a2,2,0,0,1,1.64-2.06c1.4-.27,3.47-.7,6.23-1.25.59-1.64,1.06-3.24,1.45-4.79s1-2.38,2.06-2.38,1.64.62,1.64,1.87a3.79,3.79,0,0,1-.58,2.3c-.16.58-.47,1.44-.86,2.53,1-.08,1.91-.11,2.65-.11,4.87,0,7.33,1.79,7.33,5.34Q357.28,186.54,354.59,193Zm5.65-12.78a2.56,2.56,0,0,1-2-1.68c-.23-.27-.62-.7-1.09-1.33a3.48,3.48,0,0,1-1.13-2c0-.94.43-1.45,1.37-1.45.39,0,.81.32,1.24.86.71.86,1.52,2,2.54,3.2a2.19,2.19,0,0,1,.27.93C361.45,179.71,361,180.18,360.24,180.18Zm3-3.86a1.28,1.28,0,0,1-1-.55,7.07,7.07,0,0,0-1.87-1.25,1.61,1.61,0,0,1-1-1.63,1.07,1.07,0,0,1,.42-.86,1.57,1.57,0,0,1,1-.35,4.67,4.67,0,0,1,2.42,1.13c.93.74,1.44,1.44,1.44,2.1A1.23,1.23,0,0,1,363.24,176.32Z"/><path class="cls-4" d="M391,197.88a1.28,1.28,0,0,1-1.13.66c-1.09,0-1.64-.39-1.64-1.21a7.22,7.22,0,0,1,.12-1.17c-.23-.78-1.13-1.56-2.69-2.42A22.61,22.61,0,0,0,382,192.3a38.88,38.88,0,0,1-7.64,6.94,4.37,4.37,0,0,1-2.38.86,1.65,1.65,0,0,1-1.2-.43,1.55,1.55,0,0,1-.47-1.17,1.41,1.41,0,0,1,1.6-1.6c1.28-.54,3.12-2,5.49-4.44a58.69,58.69,0,0,0,4.88-5.58,27.39,27.39,0,0,0,2.34-3.7,9.81,9.81,0,0,0,1.4-4.06c0-.43-.62-.66-1.83-.66a19.32,19.32,0,0,0-7.06,1.29,2.65,2.65,0,0,1-1.75.85,2.32,2.32,0,0,1-1.68-.7,2.13,2.13,0,0,1-.74-1.67c0-.74.47-1.21,1.4-1.45a80,80,0,0,1,10.18-1.63c3.08,0,4.64,1.36,4.64,4s-1.68,6.16-5,10.29c4.83,1.76,7.25,4,7.25,6.71A2.8,2.8,0,0,1,391,197.88Z"/><path class="cls-4" d="M421.64,192.38c-2.53,2.73-5.07,5.3-7.56,7.72-1.17,1.09-1.95,1.67-2.42,1.67a1.45,1.45,0,0,1-1.13-.46,1.6,1.6,0,0,1-.47-1.13c0-.55.71-1.68,2.19-3.36a1.26,1.26,0,0,1,1-.31c2.42-2.34,4.56-4.56,6.36-6.67a52.65,52.65,0,0,1-5.11-3.82,1.43,1.43,0,0,1-.66-1.2,1.73,1.73,0,0,1,.5-1.17,1.67,1.67,0,0,1,1.25-.51,2.85,2.85,0,0,1,1.21.62,35.58,35.58,0,0,0,4.76,3.51c2.14-3,3.23-5.42,3.23-7.21,0-1.48-.86-2.26-2.49-2.26a9.36,9.36,0,0,0-4.8,1.48,5,5,0,0,1-1.52.7,1.38,1.38,0,0,1-.58-.15,38.5,38.5,0,0,1-3.47,4.71,1.56,1.56,0,0,1-1.17.59c-1,0-1.48-.55-1.48-1.72a1.92,1.92,0,0,1,.46-1.25,26.38,26.38,0,0,0,5.07-8.73c.31-.86.82-1.32,1.48-1.32,1.06,0,1.68,1.09,1.84,3.23a10,10,0,0,1,3.82-.78,6.6,6.6,0,0,1,4.21,1.44,5,5,0,0,1,1.67,4Q427.8,185.77,421.64,192.38Z"/><path class="cls-4" d="M468.27,187.15c-5.22,7-10.53,11.47-15.87,13.49a13.85,13.85,0,0,1-3.66,1.06c-1.21,0-1.8-.55-1.8-1.64a2,2,0,0,1,.94-1.72,2.53,2.53,0,0,1,1.48-.5h1.17c4.33-1.09,9.44-5.34,15.28-12.67a1.94,1.94,0,0,1,1.37-.9,1.5,1.5,0,0,1,1.13.51,1.91,1.91,0,0,1,.43,1.2A1.87,1.87,0,0,1,468.27,187.15Zm-10.57-.74a1.32,1.32,0,0,1-1,.47c-.35,0-1.52-.12-3.55-.39-2.1,0-3.39-.23-3.86-.78a2,2,0,0,1-.5-1.56,1.25,1.25,0,0,1,.5-.93,1.39,1.39,0,0,1,1-.47c.54,0,2.73.31,6.51.9.85.11,1.28.66,1.28,1.63A1.4,1.4,0,0,1,457.7,186.41Zm.36-6.2a1.7,1.7,0,0,1-1-.54c-.31-.23-1.28-.9-2.92-1.91a7.86,7.86,0,0,1-2.38-.39,1.66,1.66,0,0,1-1.21-1.68c0-1.09.51-1.67,1.6-1.67,2.49,0,4.83,1.13,7.06,3.35a1.7,1.7,0,0,1,.58,1.25C459.77,179.71,459.19,180.21,458.06,180.21Zm10.56-1.28c-.47,0-1.17-.55-2.1-1.68-1.41-1.64-2.07-2.65-2.07-3,0-1,.47-1.56,1.4-1.56a1.86,1.86,0,0,1,1.17.59c.47.39.7.74.7,1.05l1.6,1.91a2.53,2.53,0,0,1,.67,1.25C470,178.46,469.52,178.93,468.62,178.93Zm3.94-2.18a1.61,1.61,0,0,1-1.25-.71,9.26,9.26,0,0,0-1.75-1.75,1.74,1.74,0,0,1-.67-1.25c0-.89.47-1.36,1.49-1.36.54,0,1.24.5,2.1,1.44a3.92,3.92,0,0,1,1.29,2.34C473.77,176.32,473.34,176.75,472.56,176.75Z"/><path class="cls-4" d="M499.19,180.53l-3.9.82c.23,5.53.35,9.74.35,12.59,0,6-1.29,9-3.78,9a4,4,0,0,1-2.66-1.32c-1.2-1.13-1.79-2-1.79-2.65a1.51,1.51,0,0,1,.55-1.17,1.46,1.46,0,0,1,1-.51,1.93,1.93,0,0,1,1.52.94,4.35,4.35,0,0,0,1.25,1.28c.43-1,.66-3.94.66-8.69,0-1.05-.12-3.9-.27-8.5A37.08,37.08,0,0,1,484,194c-3.24,3.27-5.22,4.91-5.93,5-1.09,0-1.63-.67-1.71-1.84.08-1.24.93-2.41,2.49-3.54a2.24,2.24,0,0,1,1.45-.43c4-3.82,6.78-7.45,8.34-10.84-3.9.47-6.28.7-7.21.7-1.33,0-2-.54-2-1.64a1.45,1.45,0,0,1,1.56-1.67,88.68,88.68,0,0,0,11.11-1.25,25.76,25.76,0,0,0-.2-2.65,3.2,3.2,0,0,1,.55-1.95,1.86,1.86,0,0,1,.94-.86,1.92,1.92,0,0,1,1.59.51,2.05,2.05,0,0,1,.35,1.09l0,1.52v1.72c.89-.16,2.3-.39,4.24-.78,1.1,0,1.76.46,1.95,1.32C501.52,179.51,500.74,180.21,499.19,180.53Z"/><rect class="cls-5" x="701" y="287" width="562" height="287"/><path class="cls-3" d="M780.16,382.83c-.27.27-.43.39-.62.39a.94.94,0,0,1-.51-.16c-6.72-3.75-10-8.52-11.8-14.73-.62.36-1.29.63-1.91.94,3.36,2.42,4.76,5.24,4.76,8.52,0,1.79-.31,3.63-1.6,4.72s-3,1.25-6.4,1.25c-.39,0-.55-.11-.67-.39l-1.6-3.2a72.74,72.74,0,0,1-10.12,3.36.81.81,0,0,1-1-.27l-2.39-2.89a71.79,71.79,0,0,0,18.29-5.86c-.16-.28-.32-.55-.51-.82a65.44,65.44,0,0,1-13.75,4.84,2,2,0,0,1-.43.08.65.65,0,0,1-.59-.32L747,375.56a68.7,68.7,0,0,0,15.12-4l-.82-.59A70.27,70.27,0,0,1,751,374a.86.86,0,0,1-1-.31L747.78,371a75.4,75.4,0,0,0,12.58-2.85H758l-4.45.11-.23-.19v-2.93l.23-.2,4.45.12h13.48l4.45-.12.24.2v2.93l-.24.19-4.21-.11a21,21,0,0,0,1.36,2.93,25.37,25.37,0,0,0,3.17-2.66l.35,0,3.9,2.85,0,.39c-1.68,1.1-3.24,2.07-4.8,2.93a23,23,0,0,0,7.66,4.77ZM761.8,346.61l.28-.31h5.23l.27.28v2.11h9.65l5.51-.08.27.23V352l-.27.28-5.51-.12h-25l-5.47.12-.27-.31V348.8l.31-.19,5.43.08h9.57Zm-14.64,17.15-.12-3,.27-.27,6.56.12h21.92l6.56-.12.27.27-.11,3v1.84l.19,3.09h-5.58v-4.61H752.39v4.68H747l.2-3.16Zm5.62-4-.27-.27,0-2.39v-1.64l-.08-2.07.27-.27,4.22.08h15.82l4.22-.08.27.27-.08,2.07v1.76l.08,2.23-.31.31-4.45-.08H757.19Zm19-2.74v-1.13H757.82V357Zm-8.32,22.7c1.06-.08,1.64-.59,1.76-2.23a44.42,44.42,0,0,1-4.57,2.31C761.69,379.82,762.78,379.78,763.44,379.74Z"/><path class="cls-3" d="M815.71,349.39l6.49-.12.27.27v3.72l-.27.27-6.49-.12h-2.89l.08,1.6h-5.63l.08-1.6h-6.91l.08,1.6h-5.47l.07-1.6H792l-6.48.12-.28-.27v-3.72l.28-.27,6.48.12h3.28v-2.78l.28-.27h4.57l.23.27v2.78h7.15v-2.78l.27-.27h4.73l.23.27v2.78ZM801,373.22h-6.72l-6.49.11-.27-.27v-3.52l.27-.27,4.42.08v-2.93l-6.53.12-.27-.28v-3.63l.27-.27,6.53.11v-2.69l-4.42.08-.27-.28v-3.51l.27-.28,6.49.12h19.41l6.48-.12.28.28v3.51l-.28.28-4.53-.08v2.69h.08l6.49-.11.27.27v3.63l-.27.28-6.49-.12h-.08v2.93l4.53-.08.28.27v3.52l-.28.27-6.48-.11h-7.11v1.87h9.14l6.49-.12.27.28v3.67l-.27.27-6.49-.11h-9.06l.08,4.8h-5.9l.08-4.8h-8.75l-6.49.11-.27-.27v-3.67l.27-.28,6.49.12H801Zm0-10.75v-2.73h-3.71v2.73Zm-3.71,3.95v3H801v-3Zm13.09-3.95v-2.73h-3.87v2.73Zm-3.87,3.95v3h3.87v-3Z"/><path class="cls-3" d="M843.41,348.57c-.35,1.56-.78,3.08-1.14,4.49,1.37-.27,2.74-.59,4.11-.94l.35.16.74,3.44a32.62,32.62,0,0,1,12.07,3l.12.39-1.6,4.34-.32.16a6.38,6.38,0,0,0-3.16-.67c-2.5,0-4.65,1-4.65,2.74,0,1.21.59,3,1.72,5.82a37.18,37.18,0,0,1,8.52,5v.39l-3.29,4.22-.35,0a37.55,37.55,0,0,0-4.57-3.72c-.12,3.17-3.55,5.24-8,5.24-5.07,0-8.2-2-8.2-6.09,0-3.68,3.13-6.25,7.3-6.25a13.15,13.15,0,0,1,2.54.19,14,14,0,0,1-.86-4.77c.08-2.1,2.07-3.9,5.32-4.88a51.41,51.41,0,0,0-5.32-.55l-.19-.27,1-2.23c-1.68.36-3.4.71-5.12.94A68.65,68.65,0,0,1,831.22,376l-.39.08-4.61-3v-.35a51.48,51.48,0,0,0,7.89-13.21c-2,.2-4.1.32-6.25.36l-.31-.24-.12-4.8.27-.28c3-.07,5.75-.27,8.4-.54a56,56,0,0,0,1.49-6.49l.35-.23,5.23.9Zm-.47,26.33c-1.33,0-2.11.82-2.11,1.48,0,.94.86,1.56,2.26,1.56,2.23,0,3.52-.78,3.48-2.34A6.84,6.84,0,0,0,842.94,374.9Z"/><path class="cls-3" d="M881.34,364.27c-3,2.11-6.06,4.1-9.49,6.1-.79.42-1,.42-1.68-.16L866,366.58c9.18-4.46,16.44-9.3,23.55-17.62H890l4.88,3.4,0,.47c-2.5,2.57-4.92,4.8-7.22,6.75v9l.19,12.26h-6.76l.2-12.15Z"/><path class="cls-3" d="M907,357.16l3.79-4.26.39-.07a41,41,0,0,1,7.93,5.39v.39L915,363.33l-.35,0a45.76,45.76,0,0,0-7.66-5.86Zm30.28,3.24a2.29,2.29,0,0,1,.15.75c0,.27-.11.43-.39.7-7,7.66-15.43,13.36-25.74,18l-.39-.08-3.52-5.28.08-.39a70.7,70.7,0,0,0,27.66-19.88Z"/><path class="cls-3" d="M970.91,379a70.58,70.58,0,0,0-8.67-9.26,46,46,0,0,1-13.4,9.8,2,2,0,0,1-.86.28,1.08,1.08,0,0,1-.62-.28L942.75,376c9-4.18,16.83-10.08,20.43-18.2h-9.3l-5.82.11-.27-.31v-5.31l.35-.24,5.86.12h11l4-.19,2.38,2.34c.27.27.43.47.43.7a2.19,2.19,0,0,1-.35.94,80.16,80.16,0,0,1-5.39,9,82.92,82.92,0,0,1,9.88,9.34l0,.43-4.61,4.3Z"/><path class="cls-3" d="M999.11,366.26l.2,14.93h-6.8l.2-15V349.35l.31-.27h5.78l.31.31v13.05l3.36-3.75.39,0a48.09,48.09,0,0,1,8.79,6l0,.39-3.78,4.73-.4,0a43.8,43.8,0,0,0-8.32-6.13Z"/><path class="cls-3" d="M1024.9,363.84v-5.12l.35-.23,5.35.12h15l5.47-.12.27.31c-1.37,12.39-7.26,18.95-18.12,22.7a2.86,2.86,0,0,1-.82.19,1.24,1.24,0,0,1-.9-.43l-4.42-3.67c9-2.73,14.85-6.83,16.57-13.55h-13.09l-5.39.11Zm17.54-8.2h-9l-4.76.12-.28-.32v-5l.35-.23,4.73.12h8.83l5.39-.12.31.27v5l-.27.32Z"/><path class="cls-3" d="M1076.34,358.69a46.33,46.33,0,0,1-7.77,8.08c-.43.31-.66.47-.94.47a1.44,1.44,0,0,1-.62-.23l-4.65-2.82a39.59,39.59,0,0,0,12.93-15.74l.35-.12,5.59,2.07.07.39c-.5,1-1,1.88-1.6,2.82l5-.08,3-.24,3.4,3.17c.35.31.55.55.55.82a2,2,0,0,1-.24.78c-4.92,10.59-11.25,17.81-22.34,22.89a3.21,3.21,0,0,1-1,.31,1,1,0,0,1-.66-.31l-4.85-3.75a35.25,35.25,0,0,0,21.29-18.55Z"/><path class="cls-3" d="M1130,356c.27.31.43.47.43.7a1.44,1.44,0,0,1-.2.67,61.76,61.76,0,0,1-6.17,10.62c1.25,1.06,2.5,2.19,3.71,3.44v.43L1124,376l-.35,0c-1.13-1.25-2.27-2.38-3.44-3.52a48.26,48.26,0,0,1-13.16,9.34,1.78,1.78,0,0,1-.75.27,1.58,1.58,0,0,1-.89-.39l-4.57-3.12a47.24,47.24,0,0,0,15-9.85,53,53,0,0,0-4.38-3v-.39l3.32-3.63.43,0c1.45.86,2.85,1.72,4.18,2.62a32.73,32.73,0,0,0,3.48-6.13l-7.58,0a59.6,59.6,0,0,1-8,9c-.74.55-.94.51-1.64,0l-4.26-2.74a42.31,42.31,0,0,0,12.66-16l.39-.12,5.31,1.91.08.43c-.43.86-.9,1.68-1.37,2.5l5.35-.07,3.21-.24Z"/><path class="cls-3" d="M1164.12,368.49h-17.46l-5.82.12-.28-.32v-5.58l.36-.24,5.58.12h17.42l6-.12.31.28v5.54l-.27.32Z"/><path class="cls-3" d="M1193.22,377.2c8.4-1.41,12.19-5.43,12.19-10.12,0-5.93-3.28-9.68-7.27-10.5-.78,7.38-3.32,14.25-6,18.2-2.11,3.09-4.3,4.22-7.35,4.22-2.34,0-4-1.13-5.5-3.48a12.31,12.31,0,0,1-1.92-7.07c0-9.45,7.07-17.11,17.81-17.11s16.37,7.15,16.37,15.82c0,7.11-5,12.5-13.28,14.46a1.3,1.3,0,0,1-1.25-.4Zm-10.47-8.75a5.75,5.75,0,0,0,.67,3c.43.78,1,1.29,1.6,1.29.9,0,2-.9,3.08-3a39,39,0,0,0,3.87-13.28C1186.27,357.4,1182.75,362.44,1182.75,368.45Z"/><path class="cls-3" d="M756.92,429.43l-5.35.12-.27-.32v-5l.35-.23,5.31.12h9.1l-.12-5.9.28-.28h5.58l.32.28.11,5.9h2.15L780,424l.35.23v5l-.27.32-5.71-.12h-2l.27,14.84c0,2.93-1,5.2-7.92,5.39-1,0-1,0-1.33-.7l-2.46-5.23c2.38,0,3.75,0,4.88-.12.39,0,.66-.31.66-1.25l0-5.74.16-2.93a50.81,50.81,0,0,1-13.83,12.07c-.58.35-.86.39-1.29,0l-4.06-3.56c6.41-3.75,11.33-7.73,15.2-12.81Z"/><path class="cls-3" d="M789.77,425.52l3.79-4.26.39-.07a41,41,0,0,1,7.93,5.39V427l-4.06,4.72-.35,0a46.17,46.17,0,0,0-7.66-5.86Zm30.28,3.24a2.29,2.29,0,0,1,.15.75c0,.27-.11.43-.39.7-6.95,7.66-15.43,13.36-25.74,18.05l-.39-.08-3.52-5.27.08-.4a70.7,70.7,0,0,0,27.66-19.88Z"/><path class="cls-3" d="M829.58,432.2v-5.12l.35-.23,5.35.12h15l5.47-.12.27.31c-1.36,12.39-7.26,18.95-18.12,22.7a2.86,2.86,0,0,1-.82.19,1.25,1.25,0,0,1-.9-.43L831.77,446c9-2.73,14.84-6.83,16.56-13.55H835.24l-5.39.11Zm17.54-8.2h-9l-4.76.12-.27-.32v-5l.35-.23,4.72.12H847l5.39-.12.32.27v5l-.28.32Z"/><path class="cls-3" d="M881.34,432.63c-3,2.11-6.06,4.1-9.49,6.1-.79.43-1,.43-1.68-.16L866,434.94c9.18-4.46,16.44-9.3,23.55-17.62H890l4.88,3.4,0,.47c-2.5,2.57-4.92,4.8-7.22,6.75v9l.19,12.26h-6.76l.2-12.15Z"/><path class="cls-3" d="M907,425.52l3.79-4.26.39-.07a41,41,0,0,1,7.93,5.39V427L915,431.69l-.35,0a45.76,45.76,0,0,0-7.66-5.86Zm30.28,3.24a2.29,2.29,0,0,1,.15.75c0,.27-.11.43-.39.7-7,7.66-15.43,13.36-25.74,18.05l-.39-.08-3.52-5.27.08-.4a70.7,70.7,0,0,0,27.66-19.88Z"/><path class="cls-3" d="M954.23,440.05c6-2.22,13.32-7.26,19.34-15.47l2.57,5.47a1.36,1.36,0,0,1,.24.67,1.19,1.19,0,0,1-.31.74c-5.75,7.15-13.28,12.38-23.68,16.41a2.22,2.22,0,0,1-.82.19c-.23,0-.39-.12-.66-.35l-3.09-2.77.2-3.71V421l.31-.27h5.59l.31.31Z"/><path class="cls-3" d="M991.5,428.49a24.1,24.1,0,0,1,3.55,6.37l-.15.35-4.22,2-.35-.11a24.36,24.36,0,0,0-3.44-6.45l.15-.31,4.11-1.8Zm19.14.51c-1.6,5.78-3,8.63-5.43,12.19a28,28,0,0,1-9.57,8.47,1.39,1.39,0,0,1-.63.24,1,1,0,0,1-.58-.24L990.29,447c5-2.66,7.38-4.53,10-8s3.83-6.33,5.08-11.95l.35-.16,4.76,1.76Zm-11.92-2.54a20.58,20.58,0,0,1,3.6,6.09l-.16.36L998,434.86l-.35-.08a26.58,26.58,0,0,0-3.52-6.29l.12-.31,4.1-1.8Z"/><path class="cls-3" d="M1049,447.36a71.26,71.26,0,0,0-8.67-9.26,46.34,46.34,0,0,1-13.4,9.81,2.16,2.16,0,0,1-.86.27,1.16,1.16,0,0,1-.63-.27l-4.61-3.56c9-4.18,16.84-10.08,20.43-18.2H1032l-5.82.11-.28-.31v-5.31l.35-.23,5.86.11h11.06l4-.19,2.38,2.34c.28.27.43.47.43.7a2.07,2.07,0,0,1-.35.94,77.27,77.27,0,0,1-5.39,9,83.77,83.77,0,0,1,9.89,9.34l0,.43-4.61,4.3Z"/><path class="cls-3" d="M1063.22,425.52l3.79-4.26.39-.07a41.28,41.28,0,0,1,7.93,5.39V427l-4.07,4.72-.35,0a46.1,46.1,0,0,0-7.65-5.86Zm30.27,3.24a2.1,2.1,0,0,1,.16.75c0,.27-.12.43-.39.7-7,7.66-15.43,13.36-25.75,18.05l-.39-.08-3.51-5.27.08-.4a70.74,70.74,0,0,0,27.65-19.88Z"/><path class="cls-3" d="M1099.23,436.62c4.38-3.56,7.47-6.57,9.73-10-1.87.15-3.83.19-5.66.19l-.24-.23-.15-4.81.27-.23c2.93,0,5.82-.08,8.71-.28a41.93,41.93,0,0,0,1.84-5.23l.31-.2,5.35.79.23.27c-.46,1.37-.93,2.54-1.36,3.67,2-.31,3.9-.66,5.86-1.13l.35.19.39,4.61-.24.35c-2.85.59-6,1.1-9.29,1.49-.63.94-1.49,2.15-2.27,3.08a11.47,11.47,0,0,1,3.67-.5,4.79,4.79,0,0,1,4.77,3.75c2.46-.94,5.23-1.92,8.28-2.93l.39.15,2.42,4.81-.19.35a106.14,106.14,0,0,0-10.2,3.09c.08,1.52.12,3.43.16,5.31l-.27.23-5.16.2-.31-.24v-3.2c-2.39,1.13-3.71,2.23-3.71,3.55s1.56,1.68,5,1.72a69.49,69.49,0,0,0,10.19-.82l.39.24.35,5.19-.23.32c-3.71.31-7,.5-11.56.5-7.89,0-10-3.32-10-6.68,0-3.75,3.17-6.36,6.8-8.43.7-.39,1.49-.79,2.35-1.18a1.73,1.73,0,0,0-2-1.48,7.46,7.46,0,0,0-4.45,1.37,57.92,57.92,0,0,0-6.8,6.32l-.39,0-3.44-3.82Z"/><path class="cls-3" d="M1166.27,443.8v4.89h-20.55V443.8h6.87V424.86l-7.53,2.85v-5.39l10.86-4.06h3.51V443.8Z"/><path class="cls-3" d="M1183.49,449.12v2.93h-5.66l.2-17v-11l-.12-6.68.31-.24,6.56.12H1204l6.56-.12.32.24-.12,6.68v10.39l.19,17.54h-5.86v-2.93Zm21.64-4.77V422.08h-21.64v22.27Zm-3-18.4.27.28-.12,4.21v4.34l.12,5.55-.27.27-4.81-.12h-6.17l-4.81.12-.27-.27.12-5.71v-4.18l-.12-4.21.24-.28,4.84.12h6.17Zm-10.94,4.34v5.9h5.94v-5.9Z"/><path class="cls-3" d="M748.25,517.24c2.11-6.79,4.06-12.73,6-18.71-1.79.27-3.9.55-5.86.78l-.31-.23-.86-4.73.24-.27c3.08-.24,6-.59,8.67-1,.94-2.69,1.83-5.47,2.85-8.48l.39-.19,5.27,1.29.12.43q-1.23,3.35-2.23,6.21c.79,0,1.53-.08,2.27-.08,3.24,0,6.29,2,6.25,7.7a46.61,46.61,0,0,1-1.8,13.36c-1.4,4.41-4,5.35-6,5.35a18.55,18.55,0,0,1-4.81-.71c-.27-.07-.39-.15-.43-.7l-.46-5.55a13.55,13.55,0,0,0,3.9.86c1.25,0,1.8-.23,2.38-2.07a42.92,42.92,0,0,0,1.41-10.19c0-2.35-.27-2.81-2-2.81-.7,0-1.6.07-2.58.15-2.62,7.42-4.57,13.48-6.72,21.06l-.43.11-5.15-1.29Zm23.28-23.47,4.14-2.62h.39a38.63,38.63,0,0,1,7.5,12.3l-.15.39-4.89,2.82-.35-.08a36.61,36.61,0,0,0-6.72-12.42Z"/><path class="cls-3" d="M793.48,493.92l4.89.94.23.35a54.69,54.69,0,0,0-1.56,8.32,15.34,15.34,0,0,1,11.17-4.76c6.52,0,10.08,4.06,10.08,9,0,7.62-7.38,10.9-18.28,11.48-.71,0-.94,0-1.25-.5L795.52,514c10.46-.31,16.28-2.38,16.28-6.13,0-2.35-.82-4.06-4.06-4.06-3.51,0-7.85,2-11,7.5l-.39.19-4.77-.43-.27-.35a76.23,76.23,0,0,1,1.79-16.6Zm2.93-5,2.43-4.26.39-.19a44.31,44.31,0,0,1,9.45,3.63l.08.39L806.1,493l-.39.08a40.55,40.55,0,0,0-9.18-3.9Z"/><path class="cls-3" d="M853.6,486.81l5.16-.11.23.19v4.38l-.23.19-5.16-.12H833.52c-.35.47-.74.94-1.13,1.37l5.08.12h12l5.16-.12.23.2v3.9l-.23.2-5.16-.12h-12l-5.12.12-.27-.24V493.1c-.82.94-1.64,1.76-2.42,2.5a.93.93,0,0,1-.67.31.9.9,0,0,1-.58-.23L824.77,493a32.42,32.42,0,0,0,8-10.11l.35-.08,4.69,1.68.08.43c-.35.62-.74,1.25-1.13,1.87ZM847,504.94l.08.39a36.91,36.91,0,0,1-4.26,5.47c2.07,1.56,4,3.16,5.74,4.68l0,.4-3.47,3.63h-.39c-1.64-1.64-3.6-3.4-5.71-5.16a35.65,35.65,0,0,1-10,5.7,1.59,1.59,0,0,1-.39.08,1,1,0,0,1-.78-.47L824.89,516a33,33,0,0,0,10-4.84,55.13,55.13,0,0,0-5.94-4v-.39l2.74-3,.39,0c2.15,1.17,4.41,2.57,6.6,4.06.63-.67,1.21-1.33,1.76-2a27.41,27.41,0,0,0,1.87-2.81h-9.92l-5.51.11-.27-.23v-4.3l.23-.23,5.55.11h17.66l4.41-.11.28.27-.12,4.22a30.77,30.77,0,0,0,1.09,9c.43,1.57.78,2,1.29,2s1.09-.75,1.29-5.12l3.09,2.54c.5.43.5.55.46,1-.42,6.06-2.18,7.89-5,7.89-3,0-5.46-1.91-6.83-8a37.3,37.3,0,0,1-.86-9.06h-5.74Z"/><path class="cls-3" d="M887.55,510.6h-.2l-5.66.12-.27-.27v-4.38l.27-.27,5.66.11h.2v-4l.27-.27h4.69l.27.27v4h.35l5.67-.11.27.27v4.38l-.27.27-5.67-.12h-.35v3.6h2.11l5.71-.12.23.27v4.45l-.23.28-5.71-.12h-9.8l-6.1.12-.23-.28v-4.45l-2.19-.08h-1.76l.12,6.06h-5.08l.12-6.06H867.9l-4.18.12-.31-.27v-4.07l.27-.23,4.22.12H870v-1.76h-.51l-4.57.12-.23-.28.19-4.22v-6.56l-.11-3.83.31-.27,4.18.16h.82v-1.68h-2l-4,.11-.31-.27V487.4l.27-.24,4,.12h2v-3.87l.27-.31h4.26l.16.35v3.83h1.28l3.91-.12.27.28v4l-.27.27-3.91-.11h-1.28v1.68h.93l4.26-.16.2.27,0,3.83v2.7a28.54,28.54,0,0,0,6.48-3.44,29.43,29.43,0,0,1-3.59-4.69v-.43l2.81-1.68h-.23l-4.57.08-.24-.31v-4.06l.24-.24,4.57.12H894l3.12-.16,2.11,2c.23.24.47.43.47.79a1.79,1.79,0,0,1-.2.62,31.72,31.72,0,0,1-5.08,7.58,26.26,26.26,0,0,0,6.92,2.65l-2.62,4.11c-.19.31-.35.43-.62.43a1,1,0,0,1-.47-.08,27.53,27.53,0,0,1-7.15-3.52,26.11,26.11,0,0,1-7.27,4.1,1.2,1.2,0,0,1-.39.12c-.19,0-.31-.12-.54-.43l-2.11-2.73v3l0,4.18-.2.32-4.53-.12h-.66v1.76h1.79l4.1-.12.28.27v4l4.14.08h2.46Zm-17.11-13.79h-1.68V499h1.68Zm-1.68,5.51v2.34h1.68v-2.34Zm7.3-3.32v-2.19h-1.64V499Zm-1.64,5.66h1.64v-2.34h-1.64Zm13.17-15a36.48,36.48,0,0,0,2.81,3.36,15.71,15.71,0,0,0,2.34-3.36Z"/><path class="cls-3" d="M908.57,486.73l5.39.75.23.31a36.09,36.09,0,0,1-1.8,8.48,36.17,36.17,0,0,0-1.44,9.06,19,19,0,0,0,.23,3.94c.12.51.51.55,1.1,0s1.44-1.75,2-2.53l1.13.58a26.69,26.69,0,0,0-1.83,8.24c0,1.76-.9,2.86-2.7,2.89-1.56,0-2.5-.82-3.4-2.38s-2-4.61-2-10.23a54.78,54.78,0,0,1,1.72-11.88,33.32,33.32,0,0,0,1-6.95Zm28.24,28.91a60.89,60.89,0,0,1-9.18.63c-7.85,0-9.92-3.95-10.86-8.29l.19-.35,4.18-1.91.36.12c.74,3.67,2.26,4.84,7.5,4.8a45.38,45.38,0,0,0,7.3-.82l.35.23.35,5.24Zm-17-25c1.29,0,2.54.08,3.75.08a63.56,63.56,0,0,0,11-.94l.28.23.23,4.93-.23.31a58.23,58.23,0,0,1-11.29,1c-1.25,0-2.46,0-3.71-.08l-.28-.35V491Z"/><path class="cls-3" d="M955.25,507.32a27.18,27.18,0,0,0,4.64,3.63,16.4,16.4,0,0,0,4.38-4h-8.79l-6.33.08-.23-.32V502.4l.23-.2,6.33.12h11.6l2.38-.12,2.08,1.88c.27.23.39.39.39.58a1.35,1.35,0,0,1-.24.63,23.41,23.41,0,0,1-6.68,8c3.44,1.09,7.54,1.6,13.13,1.76l-2.89,4.72c-.24.39-.63.47-1.21.43a38.49,38.49,0,0,1-14.38-3.55,43,43,0,0,1-14,3.86,1.12,1.12,0,0,1-1.22-.46l-2.57-4a51.15,51.15,0,0,0,12.77-2.54,39.53,39.53,0,0,1-3.91-3.55v-.43l4.07-2.19Zm18.39-17.77.12.35a46.06,46.06,0,0,1-3.16,5.23h.23l6.49-.11.27.27-.12,3v1.13l.2,4.57H972v-4.14H948.06V504h-5.59l.2-4.57v-1.13l-.12-3,.27-.27,6.29.11a17.22,17.22,0,0,0-1.87-3.51l.12-.35,3-1.25-4.37.23a.9.9,0,0,1-.9-.31l-2.3-4.18a206.27,206.27,0,0,0,29.06-2.66l.39.08a29.4,29.4,0,0,1,4.22,3.87l-.12.39c-2.46.31-4.73.58-6.84.82Zm-13.82-.28c-2.62.24-5.24.47-7.86.63a14.32,14.32,0,0,1,2.31,3.48l-.12.39-3,1.36h7.61l-.23-.08a17.07,17.07,0,0,0-2-4.29l.11-.31Zm5,5.86a38.67,38.67,0,0,0,3.12-6.72c-2.23.28-4.49.51-6.76.75a12.13,12.13,0,0,1,2.35,3.9l-.12.35-4.3,1.72Z"/><path class="cls-3" d="M986.46,486.11l5.19.59.28.31a56.44,56.44,0,0,1-1.21,8.9,43.14,43.14,0,0,0-1.22,8.95,20.2,20.2,0,0,0,.47,4.57c.12.47.39.51.86,0a26.5,26.5,0,0,0,2.62-3l1,.59c-1.32,4.18-1.75,5.35-1.67,7.11.15,2.46-.86,3.63-2.9,3.63a4.49,4.49,0,0,1-3.59-2.42c-1.09-1.84-2.34-5.28-2.34-10.59a72.6,72.6,0,0,1,1.36-11.56,43.75,43.75,0,0,0,.79-6.88Zm9.88,30.19a13.54,13.54,0,0,0,7-5.62c.86-1.41,1.33-3.56,1.33-7.23,0-1.21,0-3-.08-4.76-2.58.11-5.27.15-8.12.19l-.24-.35-.11-4.76.31-.2c2.62,0,5.35-.08,7.93-.23-.08-2.23-.24-4.61-.39-7.11l.31-.24,5.35-.11.28.27c.11,2.3.23,4.53.31,6.76,2-.16,3.79-.39,5.43-.59l.27.23.24,4.85-.24.27c-1.72.24-3.55.47-5.55.63.08,2,.12,4,.12,5.27,0,5.55-.74,8.52-2.15,10.63a14.51,14.51,0,0,1-6.6,5.54,1.18,1.18,0,0,1-.31.08.91.91,0,0,1-.51-.2Z"/><path class="cls-3" d="M1027.87,493.92l4.88.94.23.35a54.69,54.69,0,0,0-1.56,8.32,15.34,15.34,0,0,1,11.17-4.76c6.53,0,10.08,4.06,10.08,9,0,7.62-7.38,10.9-18.28,11.48-.7,0-.94,0-1.25-.5L1029.9,514c10.47-.31,16.29-2.38,16.29-6.13,0-2.35-.82-4.06-4.07-4.06-3.51,0-7.85,2-11,7.5l-.39.19L1026,511l-.27-.35a76.23,76.23,0,0,1,1.79-16.6Zm2.92-5,2.43-4.26.39-.19a44.31,44.31,0,0,1,9.45,3.63l.08.39-2.66,4.57-.39.08a40.55,40.55,0,0,0-9.18-3.9Z"/><path class="cls-3" d="M1073.41,496.23c3.91-3.83,6.68-5.35,9.85-5.35s6,1.36,6,6.28a65.19,65.19,0,0,1-.47,6.92c-.15,1.76-.31,4-.31,5s.12,1.41.9,1.41,2.85-1,4.88-3.68l1.6,5.24c.24.7.08,1-.42,1.44a10.61,10.61,0,0,1-7.43,3.21c-3,0-5.43-1.45-5.43-6.14,0-1.79.2-4.1.39-6.36.16-1.76.36-3.83.36-5.51,0-1.88-.28-2.35-1.37-2.35s-2.62.86-4,2-3,2.73-4.72,4.37c-.08,4.1,0,8.44.23,14a3,3,0,0,1-3.12,3.08c-1.57,0-2.39-1.13-2.85-2.46a16.93,16.93,0,0,0-3-4.8c-.59.82-1.17,1.72-1.88,2.73h-.43L1059,511v-.43c3.08-4.14,5.82-7.42,8.83-11.13,0-.86,0-1.72,0-2.58a32.15,32.15,0,0,0-5.24,2.54l-.43-.12-2.15-4.29.12-.43a56.58,56.58,0,0,1,7.89-3.36c.08-1.84.16-3.75.27-5.78l.28-.24,5.12,0,.27.31c-.12,1.8-.24,3.56-.31,5.16a2.55,2.55,0,0,1,1.09,1.87c0,.71-.27,1.33-1.33,2.86Zm-6.13,15.82c.47.15.66,0,.66-.78V507.4c-.82,1.17-1.83,2.65-2.65,3.83A17.38,17.38,0,0,0,1067.28,512.05Z"/><path class="cls-3" d="M1106,493.61l-1-5,.23-.35c5.94-1.33,12-2.27,16.21-2.81a3.52,3.52,0,0,1,3.6,3.39,2.72,2.72,0,0,1-.71,2c-3.16,3.12-5.35,5.11-8.59,8.32a9.62,9.62,0,0,1,4.88-1c5.9,0,9.85,4,9.85,10.08,0,7.11-5.36,11.13-14.38,11.13-4.61,0-8.52-1.91-8.52-6.37,0-2.54,2.82-5.43,6-5.43,4.65,0,6.88,3.05,7.93,5.79,2.31-1.1,3-2.93,3-5.67s-2.07-4.92-5.31-4.92c-5.59,0-9.61,3.67-13.75,9l-.39,0-4.18-3.36,0-.43c5.39-6.17,10.31-11.56,15.5-16.72-3,.63-6.4,1.45-10,2.46Zm7.93,18.55c-.78,0-1.48.32-1.48,1s.9,1.56,2.89,1.56a5,5,0,0,0,1.25-.12A3,3,0,0,0,1113.92,512.16Z"/></g></g></svg>