<svg xmlns="http://www.w3.org/2000/svg" xmlns:xlink="http://www.w3.org/1999/xlink" viewBox="0 0 1300 721"><defs><style>.cls-1{fill:url(#名称未設定グラデーション_5);}.cls-2{fill-opacity:0.8;fill:url(#名称未設定グラデーション_123);}.cls-3{fill:url(#名称未設定グラデーション_14);}.cls-4{fill:url(#名称未設定グラデーション_14-2);}.cls-5{fill:url(#名称未設定グラデーション_14-3);}.cls-6{fill:url(#名称未設定グラデーション_14-4);}.cls-7{fill:url(#名称未設定グラデーション_14-5);}.cls-8{fill:url(#名称未設定グラデーション_275);}.cls-9{fill:url(#名称未設定グラデーション_275-2);}.cls-10{fill:url(#名称未設定グラデーション_275-3);}.cls-11{fill:url(#名称未設定グラデーション_275-4);}.cls-12{fill:url(#名称未設定グラデーション_295);}.cls-13{fill:url(#名称未設定グラデーション_295-2);}.cls-14{fill:url(#名称未設定グラデーション_275-5);}.cls-15{fill:url(#名称未設定グラデーション_275-6);}.cls-16{fill:url(#名称未設定グラデーション_275-7);}.cls-17{fill:url(#名称未設定グラデーション_275-8);}.cls-18{fill:url(#名称未設定グラデーション_295-3);}.cls-19{fill:url(#名称未設定グラデーション_295-4);}.cls-20{fill:url(#名称未設定グラデーション_14-6);}.cls-21{fill:url(#名称未設定グラデーション_14-7);}.cls-22{fill:url(#名称未設定グラデーション_14-8);}.cls-23{fill:url(#名称未設定グラデーション_14-9);}.cls-24{fill:url(#名称未設定グラデーション_14-10);}.cls-25{fill:url(#名称未設定グラデーション_275-9);}.cls-26{fill:url(#名称未設定グラデーション_275-10);}.cls-27{fill:url(#名称未設定グラデーション_275-11);}.cls-28{fill:url(#名称未設定グラデーション_275-12);}.cls-29{fill:url(#名称未設定グラデーション_295-5);}.cls-30{fill:url(#名称未設定グラデーション_295-6);}.cls-31{fill:url(#名称未設定グラデーション_275-13);}.cls-32{fill:url(#名称未設定グラデーション_275-14);}.cls-33{fill:url(#名称未設定グラデーション_275-15);}.cls-34{fill:url(#名称未設定グラデーション_275-16);}.cls-35{fill:url(#名称未設定グラデーション_295-7);}.cls-36{fill:url(#名称未設定グラデーション_295-8);}.cls-37,.cls-41,.cls-43{fill:none;}.cls-38{fill:url(#名称未設定グラデーション_3);}.cls-39,.cls-40,.cls-41{font-size:38.99px;letter-spacing:-0.1em;}.cls-39,.cls-40,.cls-41,.cls-42,.cls-43{font-family:HanziPenSC-W5-GBpc-EUC-H, HanziPen SC;}.cls-40,.cls-42{fill:red;}.cls-41,.cls-43{stroke:red;stroke-miterlimit:10;}.cls-41{stroke-width:1.5px;}.cls-42,.cls-43{font-size:39.06px;}</style><linearGradient id="名称未設定グラデーション_5" x1="705.54" y1="483.03" x2="1259.08" y2="384.64" gradientUnits="userSpaceOnUse"><stop offset="0" stop-color="#eb758d"/><stop offset="0.56" stop-color="#f6c3b7"/><stop offset="1" stop-color="#eb758d"/></linearGradient><linearGradient id="名称未設定グラデーション_123" x1="982.31" y1="298.73" x2="982.31" y2="561.31" gradientUnits="userSpaceOnUse"><stop offset="0.81" stop-color="#fff"/><stop offset="1" stop-color="#fcefea"/></linearGradient><linearGradient id="名称未設定グラデーション_14" x1="-1379.13" y1="5611.07" x2="-1379.46" y2="5616.57" gradientTransform="matrix(0.77, -0.64, -0.64, -0.77, 5868.65, 4005.69)" gradientUnits="userSpaceOnUse"><stop offset="0" stop-color="#fff"/><stop offset="0.13" stop-color="#fcebe9"/><stop offset="0.37" stop-color="#f8cdc7"/><stop offset="0.56" stop-color="#f5bbb3"/><stop offset="0.69" stop-color="#f4b4ab"/><stop offset="1" stop-color="#ea6887"/></linearGradient><linearGradient id="名称未設定グラデーション_14-2" x1="4346.79" y1="3774.89" x2="4346.46" y2="3780.38" gradientTransform="matrix(-0.16, -0.99, -0.99, 0.16, 5677.35, 4211.05)" xlink:href="#名称未設定グラデーション_14"/><linearGradient id="名称未設定グラデーション_14-3" x1="5160.66" y1="2635.14" x2="5160.32" y2="2640.64" gradientTransform="translate(5887.86 4000.55) rotate(-170.53)" xlink:href="#名称未設定グラデーション_14"/><linearGradient id="名称未設定グラデーション_14-4" x1="4433.16" y1="-4208.15" x2="4432.82" y2="-4202.65" gradientTransform="translate(6175.8 4133.98) rotate(-100.56)" xlink:href="#名称未設定グラデーション_14"/><linearGradient id="名称未設定グラデーション_14-5" x1="5225.12" y1="-3053.38" x2="5224.79" y2="-3047.88" gradientTransform="matrix(-0.98, -0.18, -0.18, 0.98, 5810.6, 4499.17)" xlink:href="#名称未設定グラデーション_14"/><linearGradient id="名称未設定グラデーション_275" x1="1202.01" y1="549.28" x2="1221.14" y2="549.09" gradientUnits="userSpaceOnUse"><stop offset="0.31" stop-color="#f6c3b7"/><stop offset="1" stop-color="#eb758d"/></linearGradient><linearGradient id="名称未設定グラデーション_275-2" x1="1215.79" y1="542.03" x2="1226.22" y2="541.15" xlink:href="#名称未設定グラデーション_275"/><linearGradient id="名称未設定グラデーション_275-3" x1="1229.29" y1="546.86" x2="1220.38" y2="547.62" xlink:href="#名称未設定グラデーション_275"/><linearGradient id="名称未設定グラデーション_275-4" x1="1205.55" y1="553.83" x2="1217.63" y2="545.1" xlink:href="#名称未設定グラデーション_275"/><linearGradient id="名称未設定グラデーション_295" x1="1202.78" y1="548.61" x2="1189.75" y2="550.59" gradientUnits="userSpaceOnUse"><stop offset="0" stop-color="#f6c3b7"/><stop offset="1" stop-color="#eb758d"/></linearGradient><linearGradient id="名称未設定グラデーション_295-2" x1="1194.24" y1="548.92" x2="1182.98" y2="550.63" xlink:href="#名称未設定グラデーション_295"/><linearGradient id="名称未設定グラデーション_275-5" x1="1235.01" y1="516.36" x2="1234.82" y2="535.49" xlink:href="#名称未設定グラデーション_275"/><linearGradient id="名称未設定グラデーション_275-6" x1="1227.76" y1="530.14" x2="1226.87" y2="540.57" xlink:href="#名称未設定グラデーション_275"/><linearGradient id="名称未設定グラデーション_275-7" x1="1232.59" y1="543.64" x2="1233.34" y2="534.72" xlink:href="#名称未設定グラデーション_275"/><linearGradient id="名称未設定グラデーション_275-8" x1="1239.55" y1="519.9" x2="1230.82" y2="531.98" xlink:href="#名称未設定グラデーション_275"/><linearGradient id="名称未設定グラデーション_295-3" x1="1234.34" y1="517.12" x2="1236.32" y2="504.09" xlink:href="#名称未設定グラデーション_295"/><linearGradient id="名称未設定グラデーション_295-4" x1="1234.65" y1="508.58" x2="1236.36" y2="497.32" xlink:href="#名称未設定グラデーション_295"/><linearGradient id="名称未設定グラデーション_14-6" x1="483.06" y1="6876.91" x2="482.72" y2="6882.4" gradientTransform="matrix(-0.77, 0.64, 0.64, 0.77, -3272.61, -5298.94)" xlink:href="#名称未設定グラデーション_14"/><linearGradient id="名称未設定グラデーション_14-7" x1="6374.13" y1="2795.11" x2="6373.8" y2="2800.6" gradientTransform="matrix(0.16, 0.99, 0.99, -0.16, -3081.31, -5504.31)" xlink:href="#名称未設定グラデーション_14"/><linearGradient id="名称未設定グラデーション_14-8" x1="4891.97" y1="4870.74" x2="4891.64" y2="4876.23" gradientTransform="translate(-3291.82 -5293.8) rotate(9.47)" xlink:href="#名称未設定グラデーション_14"/><linearGradient id="名称未設定グラデーション_14-9" x1="6441.55" y1="-3190.09" x2="6441.22" y2="-3184.6" gradientTransform="translate(-3579.76 -5427.23) rotate(79.44)" xlink:href="#名称未設定グラデーション_14"/><linearGradient id="名称未設定グラデーション_14-10" x1="4998.87" y1="-5293.66" x2="4998.54" y2="-5288.17" gradientTransform="matrix(0.98, 0.18, 0.18, -0.98, -3214.57, -5792.42)" xlink:href="#名称未設定グラデーション_14"/><linearGradient id="名称未設定グラデーション_275-9" x1="1834.87" y1="-1611.63" x2="1854" y2="-1611.82" gradientTransform="translate(2596.04 -1293.25) rotate(180)" xlink:href="#名称未設定グラデーション_275"/><linearGradient id="名称未設定グラデーション_275-10" x1="1848.65" y1="-1618.88" x2="1859.08" y2="-1619.77" gradientTransform="translate(2596.04 -1293.25) rotate(180)" xlink:href="#名称未設定グラデーション_275"/><linearGradient id="名称未設定グラデーション_275-11" x1="1862.15" y1="-1614.05" x2="1853.24" y2="-1613.3" gradientTransform="translate(2596.04 -1293.25) rotate(180)" xlink:href="#名称未設定グラデーション_275"/><linearGradient id="名称未設定グラデーション_275-12" x1="1838.41" y1="-1607.09" x2="1850.49" y2="-1615.82" gradientTransform="translate(2596.04 -1293.25) rotate(180)" xlink:href="#名称未設定グラデーション_275"/><linearGradient id="名称未設定グラデーション_295-5" x1="1835.64" y1="-1612.3" x2="1822.61" y2="-1610.32" gradientTransform="translate(2596.04 -1293.25) rotate(180)" xlink:href="#名称未設定グラデーション_295"/><linearGradient id="名称未設定グラデーション_295-6" x1="1827.1" y1="-1611.99" x2="1815.84" y2="-1610.29" gradientTransform="translate(2596.04 -1293.25) rotate(180)" xlink:href="#名称未設定グラデーション_295"/><linearGradient id="名称未設定グラデーション_275-13" x1="1867.87" y1="-1644.56" x2="1867.68" y2="-1625.43" gradientTransform="translate(2596.04 -1293.25) rotate(180)" xlink:href="#名称未設定グラデーション_275"/><linearGradient id="名称未設定グラデーション_275-14" x1="1860.62" y1="-1630.77" x2="1859.73" y2="-1620.35" gradientTransform="translate(2596.04 -1293.25) rotate(180)" xlink:href="#名称未設定グラデーション_275"/><linearGradient id="名称未設定グラデーション_275-15" x1="1865.45" y1="-1617.28" x2="1866.2" y2="-1626.19" gradientTransform="translate(2596.04 -1293.25) rotate(180)" xlink:href="#名称未設定グラデーション_275"/><linearGradient id="名称未設定グラデーション_275-16" x1="1872.41" y1="-1641.01" x2="1863.68" y2="-1628.94" gradientTransform="translate(2596.04 -1293.25) rotate(180)" xlink:href="#名称未設定グラデーション_275"/><linearGradient id="名称未設定グラデーション_295-7" x1="1867.2" y1="-1643.8" x2="1869.18" y2="-1656.82" gradientTransform="translate(2596.04 -1293.25) rotate(180)" xlink:href="#名称未設定グラデーション_295"/><linearGradient id="名称未設定グラデーション_295-8" x1="1867.51" y1="-1652.34" x2="1869.21" y2="-1663.6" gradientTransform="translate(2596.04 -1293.25) rotate(180)" xlink:href="#名称未設定グラデーション_295"/><radialGradient id="名称未設定グラデーション_3" cx="289.22" cy="131.5" r="60.47" gradientTransform="translate(41.58 -52.72) rotate(10.07)" gradientUnits="userSpaceOnUse"><stop offset="0" stop-color="#fff"/><stop offset="1" stop-color="#fdefef"/></radialGradient></defs><g id="レイヤー_2" data-name="レイヤー 2"><g id="レイヤー_2-2" data-name="レイヤー 2"><path class="cls-1" d="M719,558.75h526.62V308.91H719Zm5.45-244.63h516.69V553.55H724.45Z"/><rect class="cls-2" x="724" y="314" width="516.62" height="240"/><path class="cls-3" d="M1233.22,546.72c.06.5.14,1.55.18,1.72a1.47,1.47,0,0,0,.38.79c.24.26,1.66,1,1.94.85s0-.44.14-.63.55,0,.72-.24-.59-1.7-.84-1.94a1.6,1.6,0,0,0-.8-.37C1234.78,546.86,1233.72,546.78,1233.22,546.72Z"/><path class="cls-4" d="M1233.12,546c.47.2,1.42.66,1.58.7a1.48,1.48,0,0,0,.88.08c.34-.08,1.73-.93,1.7-1.26s-.36-.26-.47-.44.28-.48.15-.74-1.77-.34-2.1-.24a1.52,1.52,0,0,0-.72.5C1234,544.7,1233.42,545.57,1233.12,546Z"/><path class="cls-5" d="M1232.47,546.62c.2.46.66,1.42.71,1.58a1.55,1.55,0,0,1,.07.88c-.08.33-.92,1.73-1.26,1.7s-.25-.36-.44-.47-.47.27-.74.15-.33-1.77-.24-2.1a1.59,1.59,0,0,1,.5-.72C1231.2,547.52,1232.07,546.92,1232.47,546.62Z"/><path class="cls-6" d="M1232.4,546.2c-.37.35-1.11,1.1-1.25,1.21a1.47,1.47,0,0,1-.79.36c-.35,0-1.95-.27-2-.6s.25-.36.29-.57-.42-.35-.4-.64,1.55-.93,1.89-1a1.49,1.49,0,0,1,.85.23C1231.11,545.31,1232,545.93,1232.4,546.2Z"/><path class="cls-7" d="M1232.71,545.9c.34-.37,1.1-1.11,1.2-1.25a1.56,1.56,0,0,0,.37-.8c0-.34-.28-1.94-.6-2s-.37.25-.58.3-.35-.43-.64-.4-.92,1.54-.94,1.89a1.41,1.41,0,0,0,.22.85C1231.82,544.61,1232.43,545.47,1232.71,545.9Z"/><path class="cls-8" d="M1220.85,550.65h0l-.17,0a2.43,2.43,0,0,1-.6-.29,7.21,7.21,0,0,1-.79-.63c-.15-.13-.3-.27-.47-.4l-.28-.19-.29-.19a6.27,6.27,0,0,0-3-.95,4.83,4.83,0,0,0-1.75.28,15.48,15.48,0,0,0-1.67.85c-.55.32-1.12.63-1.7.9a8.45,8.45,0,0,1-1.81.63,5.77,5.77,0,0,1-.92.11h-.45l-.44-.05a5.75,5.75,0,0,1-1.55-.45,7.07,7.07,0,0,1-1.17-.66,8.28,8.28,0,0,1-.81-.63l-.48-.45-.16-.17a0,0,0,0,1,0,0h0l.19.13q.18.14.54.36c.23.15.52.33.86.51a7.9,7.9,0,0,0,1.16.51,5.91,5.91,0,0,0,1.45.32,2.55,2.55,0,0,0,.39,0h.4a8.22,8.22,0,0,0,.83-.11,9.49,9.49,0,0,0,1.7-.53c.58-.24,1.14-.52,1.71-.81a12.86,12.86,0,0,1,1.76-.82,5.2,5.2,0,0,1,1.9-.24,5.92,5.92,0,0,1,1.72.38,7.1,7.1,0,0,1,1.4.74l.29.21.26.21a5,5,0,0,1,.47.42,6.68,6.68,0,0,0,.75.66,2.24,2.24,0,0,0,.56.3.71.71,0,0,0,.16.05h.06s0,0,0,0Z"/><path class="cls-9" d="M1222.59,542.73a.58.58,0,0,0,.17-.37.64.64,0,0,0-.15-.47.78.78,0,0,0-.61-.24.71.71,0,0,0-.37.12.85.85,0,0,0-.29.33.94.94,0,0,0,0,.93,1.16,1.16,0,0,0,.94.52,1.08,1.08,0,0,0,.58-.14,1.23,1.23,0,0,0,.46-.42,1.46,1.46,0,0,0-.19-1.87L1223,541l-.14-.11-.16-.09-.16-.07a1.84,1.84,0,0,0-1.47,0,2.14,2.14,0,0,0-1,1.15,2.27,2.27,0,0,0,.38,2.31,3.05,3.05,0,0,0,.64.55,3,3,0,0,0,1.62.43,2.85,2.85,0,0,0,1.59-.55c.12-.08.22-.18.33-.27l0,0,0-.05.08-.08.15-.18a4.33,4.33,0,0,0,.44-.72,3.62,3.62,0,0,0-.13-3.25,3.83,3.83,0,0,0-.48-.66l-.14-.15-.15-.13a3.54,3.54,0,0,0-.32-.27,4.36,4.36,0,0,0-1.4-.73,4.9,4.9,0,0,0-1.51-.2,4.21,4.21,0,0,0-1.42.26,1.79,1.79,0,0,0-.32.13,2.23,2.23,0,0,0-.31.15l-.3.16-.27.2a1.57,1.57,0,0,0-.25.2l-.24.21-.23.23-.2.23a5.54,5.54,0,0,0-.65.95,5.37,5.37,0,0,0-.41.94,5.44,5.44,0,0,0-.23.85,5.57,5.57,0,0,0-.11,1.22,2.83,2.83,0,0,0,0,.33v.11h0s0,0,0,0,0,0,0,0V544a3,3,0,0,1,0-.33,6.75,6.75,0,0,1,0-1.27,6.21,6.21,0,0,1,1.18-2.95l.21-.27.22-.25a2.83,2.83,0,0,1,.25-.24,3.08,3.08,0,0,1,.27-.24,5.07,5.07,0,0,1,6.21-.07c.13.1.23.2.34.3l.17.15.16.18a3.91,3.91,0,0,1,.55.78,4.1,4.1,0,0,1,.48,1.85,4,4,0,0,1-.41,1.9,3.88,3.88,0,0,1-.53.83l-.16.17-.08.09,0,0s0,0,0,.05l-.38.32a3.33,3.33,0,0,1-3.71.07,3.4,3.4,0,0,1-.72-.64,2.56,2.56,0,0,1-.46-.84,2.62,2.62,0,0,1,.06-1.85,2.48,2.48,0,0,1,1.21-1.3,2.1,2.1,0,0,1,1.7,0l.19.09.18.11.17.13.15.14a1.78,1.78,0,0,1,.41.7,1.72,1.72,0,0,1-.24,1.47,1.36,1.36,0,0,1-.54.47,1.23,1.23,0,0,1-.67.14,1.28,1.28,0,0,1-.62-.18,1.64,1.64,0,0,1-.25-.19.88.88,0,0,1-.19-.24,1,1,0,0,1,.32-1.43.75.75,0,0,1,.43-.13.84.84,0,0,1,.67.29.65.65,0,0,1,.16.52.76.76,0,0,1-.12.32.38.38,0,0,1-.08.09h0A0,0,0,0,1,1222.59,542.73Z"/><path class="cls-10" d="M1222.58,551.26l-.14.06a1.1,1.1,0,0,1-.44.1,1.22,1.22,0,0,1-.68-.15.9.9,0,0,1-.33-.29,1.31,1.31,0,0,1,.12-1.52,3.25,3.25,0,0,1,.92-.76,9,9,0,0,1,1.13-.54c.38-.17.79-.32,1.14-.49a11.2,11.2,0,0,0,1.07-.64c.34-.23.66-.46,1-.7s.58-.49.83-.73a7.18,7.18,0,0,0,.65-.74l.25-.35.19-.35.15-.32c0-.09.06-.19.09-.28a2.88,2.88,0,0,0,.11-.41l0-.15h0s0,0,0,0,0,0,0,0v.15a1.58,1.58,0,0,1,0,.44,1.87,1.87,0,0,1,0,.32l-.09.37c0,.13-.09.26-.15.41s-.13.28-.21.42a5.45,5.45,0,0,1-.63.87,6.83,6.83,0,0,1-.87.82,10,10,0,0,1-1,.69,12.46,12.46,0,0,1-1.15.59c-.42.18-.81.3-1.2.44a8.61,8.61,0,0,0-1.11.47,3.07,3.07,0,0,0-.88.64,1.11,1.11,0,0,0-.3.84,1,1,0,0,0,.12.4.81.81,0,0,0,.26.26,1.21,1.21,0,0,0,.6.18,1.32,1.32,0,0,0,.41-.06l.14-.06s0,0,0,0,0,0,0,0Z"/><path class="cls-11" d="M1202.61,549.27l.15-.17a2.25,2.25,0,0,1,.17-.21l.26-.27.35-.3.22-.14a1.2,1.2,0,0,1,.24-.15,3.88,3.88,0,0,1,1.23-.45,5.65,5.65,0,0,1,1.55-.06,10.72,10.72,0,0,1,1.7.31c1.15.29,2.34.7,3.55,1a8.07,8.07,0,0,0,1.81.19h.22l.21,0a3,3,0,0,0,.43-.07h.09l.11,0,.11,0,.09,0,.37-.16c.5-.23,1-.55,1.52-.77a3.09,3.09,0,0,1,.83-.22,2.25,2.25,0,0,1,.82,0l.17,0,.19.07a3.18,3.18,0,0,1,.32.16,2,2,0,0,1,.51.44,1.82,1.82,0,0,1,.41,1,2.14,2.14,0,0,1,0,.67l-.07.22,0,0,0,0h0l0-.22a2.09,2.09,0,0,0-.06-.61,1.7,1.7,0,0,0-.45-.78,1.87,1.87,0,0,0-1-.48,2.27,2.27,0,0,0-1.32.23c-.46.22-.92.54-1.49.81a3.83,3.83,0,0,1-.45.18l-.12,0-.11,0-.11,0h-.13a3.87,3.87,0,0,1-.49,0l-.24,0h-.24a8.16,8.16,0,0,1-1.91-.28c-1.24-.31-2.42-.77-3.54-1.09a11.54,11.54,0,0,0-1.64-.36,5.68,5.68,0,0,0-1.48,0,3.68,3.68,0,0,0-1.2.38,1.12,1.12,0,0,0-.24.13l-.21.13c-.13.1-.26.19-.36.28l-.27.24-.18.2-.15.17a0,0,0,0,1,0,0A0,0,0,0,1,1202.61,549.27Z"/><path class="cls-12" d="M1202.61,549.36l-.13.08a3.82,3.82,0,0,1-.34.25l-.25.16-.32.18a5.76,5.76,0,0,1-.78.36l-.46.17-.52.13a6.73,6.73,0,0,1-1.14.13,8.62,8.62,0,0,1-1.23-.07c-.41-.06-.83-.15-1.24-.25l-1.2-.34-1.14-.35-1.06-.32c-.33-.1-.65-.17-1-.23l-.42-.08-.39,0c-.25,0-.47,0-.65,0h-.57a0,0,0,0,1,0,0l0,0,.15,0a2.42,2.42,0,0,1,.42-.11l.3,0,.36,0a6.56,6.56,0,0,1,.88,0l.49.05.53.1a9.43,9.43,0,0,1,1.1.29c.38.12.76.26,1.14.4s.76.29,1.16.41a9.6,9.6,0,0,0,1.17.31,6.62,6.62,0,0,0,1.16.12,5.52,5.52,0,0,0,1.09-.06c.18,0,.34-.06.5-.09l.46-.12a6.87,6.87,0,0,0,.79-.31l.31-.15.26-.14c.16-.08.28-.17.37-.21l.12-.08s0,0,0,0A0,0,0,0,1,1202.61,549.36Z"/><path class="cls-13" d="M1194.07,549.7a4.38,4.38,0,0,1-.39.33,6.18,6.18,0,0,1-1.14.72,5.59,5.59,0,0,1-.85.32l-.24.06-.26,0a2.85,2.85,0,0,1-.51,0,5.8,5.8,0,0,1-2.2-.41l-1-.41-1-.43-.89-.41c-.28-.11-.55-.22-.8-.3l-.19-.07-.18,0-.33-.08-.56-.09-.51,0h0a0,0,0,0,1,0,0l0,0a5.2,5.2,0,0,1,.51-.13c.16,0,.36,0,.6,0l.37,0h.2l.21,0,.44.09.45.14a8.18,8.18,0,0,1,1,.38c.63.3,1.26.68,1.92,1a5.47,5.47,0,0,0,2,.51,2.8,2.8,0,0,0,.5,0l.23,0,.23,0a5.15,5.15,0,0,0,.84-.25,6.39,6.39,0,0,0,1.16-.6c.27-.18.41-.29.41-.29h0s0,0,0,0Z"/><path class="cls-14" d="M1236.32,535.21l0-.05a.71.71,0,0,0,0-.16,1.87,1.87,0,0,0-.29-.56,6.88,6.88,0,0,0-.67-.75c-.13-.15-.28-.29-.42-.47l-.21-.26-.21-.29a7.08,7.08,0,0,1-.73-1.4,5.61,5.61,0,0,1-.38-1.73,5,5,0,0,1,.23-1.89,14.17,14.17,0,0,1,.82-1.76c.29-.57.58-1.14.81-1.71a9.49,9.49,0,0,0,.53-1.7,6.1,6.1,0,0,0,.11-.83c0-.07,0-.14,0-.21v-.19c0-.13,0-.27,0-.4a6.45,6.45,0,0,0-.32-1.44,9.1,9.1,0,0,0-.52-1.16c-.18-.34-.35-.63-.5-.86s-.28-.42-.37-.54l-.13-.19s0,0,0,0h0l.16.16.45.48a8.21,8.21,0,0,1,.64.81,7.74,7.74,0,0,1,.66,1.17,5.75,5.75,0,0,1,.45,1.55c0,.14,0,.29,0,.44v.23c0,.08,0,.15,0,.22a4.81,4.81,0,0,1-.11.92,8.61,8.61,0,0,1-.62,1.81c-.28.58-.59,1.14-.9,1.7a12,12,0,0,0-.85,1.67,4.62,4.62,0,0,0-.28,1.75,6.19,6.19,0,0,0,.94,3l.19.29.2.27a4.78,4.78,0,0,0,.39.48,7.42,7.42,0,0,1,.64.79,2.33,2.33,0,0,1,.28.6.9.9,0,0,1,0,.16v.06s0,0,0,0A0,0,0,0,1,1236.32,535.21Z"/><path class="cls-15" d="M1228.49,537a.3.3,0,0,1-.08.07.69.69,0,0,1-.32.13.68.68,0,0,1-.53-.16.88.88,0,0,1-.29-.68.94.94,0,0,1,.13-.42,1,1,0,0,1,1.43-.32.88.88,0,0,1,.24.19.92.92,0,0,1,.19.24,1.37,1.37,0,0,1,.19.63,1.47,1.47,0,0,1-.14.67,1.64,1.64,0,0,1-.48.54,1.71,1.71,0,0,1-1.47.24,1.85,1.85,0,0,1-.7-.41l-.13-.15a1.09,1.09,0,0,1-.13-.17,3.32,3.32,0,0,1-.21-.37,2.14,2.14,0,0,1,0-1.7,2.47,2.47,0,0,1,1.31-1.21,2.59,2.59,0,0,1,1.84-.06,2.56,2.56,0,0,1,.84.46,3.15,3.15,0,0,1,.64.72,3.31,3.31,0,0,1-.07,3.7,3,3,0,0,1-.31.39l0,.05-.05,0-.08.08-.17.16a4.39,4.39,0,0,1-.84.53,4,4,0,0,1-1.89.41,4.11,4.11,0,0,1-1.86-.48,4.76,4.76,0,0,1-.78-.55l-.17-.16-.16-.17a3.24,3.24,0,0,1-.29-.34,5,5,0,0,1,.07-6.21,2,2,0,0,1,.23-.27l.25-.26.25-.21.26-.21a5.91,5.91,0,0,1,1.06-.63,5.74,5.74,0,0,1,1.9-.55,5.89,5.89,0,0,1,1.26,0,3,3,0,0,1,.33.05h.12a.05.05,0,0,1,0,0s0,0,0,0h-.11a1.64,1.64,0,0,0-.33,0,5.6,5.6,0,0,0-1.23.11,6.59,6.59,0,0,0-1.78.64,5.6,5.6,0,0,0-1,.65l-.23.2-.23.23-.21.23a1.79,1.79,0,0,0-.2.26l-.19.27-.17.29a3.13,3.13,0,0,0-.15.32c0,.1-.09.21-.13.32a4.47,4.47,0,0,0-.26,1.42,4.63,4.63,0,0,0,.21,1.51,4.33,4.33,0,0,0,.72,1.4c.07.1.18.21.27.32l.14.15.15.14a3.19,3.19,0,0,0,.66.48,3.6,3.6,0,0,0,3.24.13,4,4,0,0,0,.73-.44l.17-.15.09-.08,0,0,0,0a2.92,2.92,0,0,0,.28-.32,2.77,2.77,0,0,0,.54-1.59,2.83,2.83,0,0,0-1-2.26,2.2,2.2,0,0,0-.71-.41,2.37,2.37,0,0,0-1.6,0,2.14,2.14,0,0,0-1.14,1,1.84,1.84,0,0,0,0,1.47l.08.16.09.16.1.14.13.14a1.44,1.44,0,0,0,.58.37,1.5,1.5,0,0,0,1.28-.18,1.35,1.35,0,0,0,.43-.46,1.17,1.17,0,0,0,.13-.58,1.14,1.14,0,0,0-.51-.94,1,1,0,0,0-.94,0,.88.88,0,0,0-.32.28.79.79,0,0,0-.13.38.76.76,0,0,0,.25.61.62.62,0,0,0,.46.15.71.71,0,0,0,.38-.17s0,0,0,0A0,0,0,0,1,1228.49,537Z"/><path class="cls-16" d="M1236.93,536.9l0-.14a1.32,1.32,0,0,0,.06-.41,1.1,1.1,0,0,0-.17-.6.84.84,0,0,0-.27-.26.94.94,0,0,0-.39-.12,1.09,1.09,0,0,0-.85.3,3.12,3.12,0,0,0-.64.88,11,11,0,0,0-.46,1.1c-.15.4-.26.79-.45,1.21s-.38.78-.58,1.15a9.58,9.58,0,0,1-.7,1,5.61,5.61,0,0,1-.82.86,5.31,5.31,0,0,1-.86.64l-.43.21-.41.15-.36.09a2.14,2.14,0,0,1-.32,0,2.22,2.22,0,0,1-.45,0h-.15a0,0,0,0,1,0,0l0,0h0l.15,0a3.28,3.28,0,0,0,.41-.11,2.43,2.43,0,0,0,.28-.1l.32-.14.34-.19.36-.25a7.11,7.11,0,0,0,.73-.65,10.05,10.05,0,0,0,.73-.83c.24-.3.48-.62.71-1a11.14,11.14,0,0,0,.63-1.07c.17-.35.32-.76.49-1.14a10.67,10.67,0,0,1,.54-1.13,3.44,3.44,0,0,1,.76-.93,1.31,1.31,0,0,1,1.06-.28,1.07,1.07,0,0,1,.46.17,1,1,0,0,1,.3.33,1.32,1.32,0,0,1,.15.68,1.6,1.6,0,0,1-.1.44.73.73,0,0,1-.07.13h0s0,0,0,0S1236.92,536.91,1236.93,536.9Z"/><path class="cls-17" d="M1235,517l-.16.15-.2.18-.25.27c-.09.1-.17.23-.27.35l-.14.22c0,.08-.09.15-.13.24a3.46,3.46,0,0,0-.37,1.2,5.25,5.25,0,0,0,0,1.48,11.85,11.85,0,0,0,.36,1.64c.32,1.12.78,2.29,1.09,3.54a8.73,8.73,0,0,1,.29,1.91v.48c0,.17,0,.33-.06.49v.06h0v0l0,.11,0,.11,0,.12a2.64,2.64,0,0,1-.18.45c-.27.56-.59,1-.8,1.49a2.2,2.2,0,0,0-.24,1.32,1.91,1.91,0,0,0,.49,1,1.67,1.67,0,0,0,.77.45,2.16,2.16,0,0,0,.62.06l.22,0h0a0,0,0,0,1,0,0s0,0,0,0l-.22.06a2,2,0,0,1-.66.05,1.85,1.85,0,0,1-1-.41,2.43,2.43,0,0,1-.6-.83l-.06-.19,0-.17a2.25,2.25,0,0,1-.05-.82,3.51,3.51,0,0,1,.22-.83c.22-.53.54-1,.78-1.52a3.76,3.76,0,0,0,.16-.37l0-.09,0-.11,0-.11v0s0,0,0,0h0v-.05c0-.14.05-.28.06-.43l0-.21v-.22a7.53,7.53,0,0,0-.19-1.81c-.25-1.21-.67-2.4-1-3.55a10.66,10.66,0,0,1-.3-1.7,5.66,5.66,0,0,1,0-1.55,3.88,3.88,0,0,1,.45-1.23,1.4,1.4,0,0,1,.15-.24l.15-.22c.11-.12.2-.25.3-.35l.26-.26.21-.17.18-.15a0,0,0,0,1,0,0A0,0,0,0,1,1235,517Z"/><path class="cls-18" d="M1235,516.91l.08-.13a3.93,3.93,0,0,0,.21-.36l.15-.26.15-.32a6.74,6.74,0,0,0,.3-.78c0-.14.08-.3.13-.46s.07-.32.09-.5a7.63,7.63,0,0,0,.06-1.09,7.77,7.77,0,0,0-.13-1.16,10.21,10.21,0,0,0-.3-1.18c-.13-.39-.27-.77-.41-1.15s-.29-.76-.41-1.14-.22-.74-.29-1.1c0-.18-.06-.36-.09-.53s0-.33-.06-.49a6.44,6.44,0,0,1,0-.88l0-.36.06-.31c0-.18.08-.32.1-.41l0-.15,0,0s0,0,0,0h0v.15c0,.1,0,.24,0,.42s0,.4,0,.64l.05.39.08.43c.07.3.14.62.24.95s.2.69.32,1.06.23.75.34,1.14.24.8.34,1.2a9.08,9.08,0,0,1,.25,1.24,8.62,8.62,0,0,1,.07,1.23,6.85,6.85,0,0,1-.13,1.14c0,.18-.09.35-.13.52s-.1.32-.16.46a7.31,7.31,0,0,1-.36.78l-.18.31-.17.26-.24.34-.09.12a0,0,0,0,1,0,0S1235,516.92,1235,516.91Z"/><path class="cls-19" d="M1235.38,508.37s.11-.14.29-.41a6.78,6.78,0,0,0,.61-1.17,4.76,4.76,0,0,0,.24-.83,1.57,1.57,0,0,0,0-.23,1.64,1.64,0,0,0,0-.23,2.83,2.83,0,0,0,0-.5,5.68,5.68,0,0,0-.51-2c-.29-.67-.67-1.29-1-1.93-.14-.31-.27-.63-.38-.94l-.14-.45c0-.15-.06-.3-.09-.44s0-.14,0-.21v-.2c0-.13,0-.26,0-.37a4.51,4.51,0,0,1,0-.6c.07-.33.12-.51.12-.51s0,0,0,0l0,0h0s0,.19,0,.5c0,.16,0,.35.08.56l.08.34.05.18.06.19c.08.25.19.52.3.8l.41.88c.14.32.29.64.43,1s.29.68.41,1a6,6,0,0,1,.42,2.19,2.87,2.87,0,0,1,0,.52c0,.09,0,.15,0,.25a1.37,1.37,0,0,1-.07.24,4.81,4.81,0,0,1-.32.86,6,6,0,0,1-.72,1.14c-.2.26-.32.39-.32.39h0A0,0,0,0,1,1235.38,508.37Z"/><path class="cls-20" d="M730,321c-.06-.5-.14-1.56-.18-1.73a1.58,1.58,0,0,0-.38-.79c-.24-.25-1.67-1-1.94-.84s0,.43-.14.63-.55,0-.72.23.59,1.7.84,1.94a1.52,1.52,0,0,0,.79.37C728.4,320.8,729.46,320.89,730,321Z"/><path class="cls-21" d="M730.06,321.69c-.47-.19-1.42-.65-1.59-.7a1.52,1.52,0,0,0-.87-.07c-.34.08-1.73.92-1.7,1.26s.36.25.47.44-.28.47-.15.74,1.77.33,2.1.24a1.65,1.65,0,0,0,.72-.5C729.16,323,729.76,322.1,730.06,321.69Z"/><path class="cls-22" d="M730.71,321.05c-.2-.47-.66-1.42-.71-1.59a1.52,1.52,0,0,1-.07-.87c.08-.34.92-1.73,1.26-1.7s.25.36.44.47.47-.28.74-.16.33,1.77.24,2.11a1.65,1.65,0,0,1-.5.72C732,320.15,731.11,320.74,730.71,321.05Z"/><path class="cls-23" d="M730.78,321.46c.37-.34,1.11-1.1,1.25-1.2a1.49,1.49,0,0,1,.79-.37c.35,0,1.95.28,2,.6s-.25.36-.29.58.42.35.4.64-1.55.92-1.89.94a1.48,1.48,0,0,1-.85-.22C732.06,322.35,731.2,321.74,730.78,321.46Z"/><path class="cls-24" d="M730.47,321.77c-.34.37-1.1,1.11-1.2,1.25a1.56,1.56,0,0,0-.37.79c0,.35.28,1.95.6,2s.37-.25.58-.29.35.42.64.4.92-1.55.94-1.89a1.41,1.41,0,0,0-.22-.85C731.36,323.05,730.75,322.19,730.47,321.77Z"/><path class="cls-25" d="M742.33,317h0a.79.79,0,0,1,.17,0,2.33,2.33,0,0,1,.6.28,7.42,7.42,0,0,1,.79.64c.15.13.3.26.47.39l.28.2.29.19a6.16,6.16,0,0,0,3,.94,4.62,4.62,0,0,0,1.75-.28,11.85,11.85,0,0,0,1.66-.85c.56-.31,1.13-.62,1.71-.9a8.53,8.53,0,0,1,1.8-.62,4.92,4.92,0,0,1,.93-.11h.45c.15,0,.29,0,.44,0a5.86,5.86,0,0,1,1.55.45,7.87,7.87,0,0,1,1.17.66,8.21,8.21,0,0,1,.81.64c.21.18.37.34.48.45l.16.16a0,0,0,0,1,0,0h0l-.19-.13c-.12-.09-.3-.22-.54-.37s-.52-.32-.86-.5a9.27,9.27,0,0,0-1.17-.52,6.21,6.21,0,0,0-1.44-.32l-.39,0h-.4a6.1,6.1,0,0,0-.83.11,9.59,9.59,0,0,0-1.71.53c-.57.23-1.13.52-1.7.81a14.17,14.17,0,0,1-1.76.82,5,5,0,0,1-1.9.23,5.61,5.61,0,0,1-1.72-.38,7.08,7.08,0,0,1-1.4-.73l-.29-.21-.26-.21c-.18-.14-.33-.29-.47-.42a6,6,0,0,0-.75-.67,1.87,1.87,0,0,0-.56-.29l-.16-.05-.06,0s0,0,0,0S742.31,317,742.33,317Z"/><path class="cls-26" d="M740.59,324.93a.63.63,0,0,0,0,.84.77.77,0,0,0,.61.25.72.72,0,0,0,.37-.13.82.82,0,0,0,.29-.32,1,1,0,0,0,0-.94,1.19,1.19,0,0,0-1.52-.38,1.35,1.35,0,0,0-.46.43,1.47,1.47,0,0,0-.18,1.28,1.53,1.53,0,0,0,.36.58l.14.13.15.1.16.09.16.08a1.88,1.88,0,0,0,1.47-.05,2.12,2.12,0,0,0,1-1.14,2.32,2.32,0,0,0,0-1.6,2.2,2.2,0,0,0-.41-.71,2.83,2.83,0,0,0-2.26-1,2.74,2.74,0,0,0-1.59.54,2.88,2.88,0,0,0-.33.28l0,0,0,0-.07.09c0,.06-.11.11-.15.17a3.54,3.54,0,0,0-.44.73,3.5,3.5,0,0,0-.32,1.65,3.61,3.61,0,0,0,.45,1.59,3.19,3.19,0,0,0,.48.66l.13.15.16.14a2.69,2.69,0,0,0,.32.27,4.33,4.33,0,0,0,1.4.72,4.86,4.86,0,0,0,1.5.21,4.48,4.48,0,0,0,1.43-.26l.32-.13a2.23,2.23,0,0,0,.31-.15l.3-.17.27-.19a2.43,2.43,0,0,0,.25-.2l.24-.21.23-.23.2-.23a5.6,5.6,0,0,0,.65-1,6.59,6.59,0,0,0,.64-1.78,5.6,5.6,0,0,0,.11-1.23,3,3,0,0,0,0-.33v-.11h0s0,0,0,0,0,0,0,0l0,.12c0,.07,0,.18,0,.32a6.75,6.75,0,0,1,0,1.27,5.74,5.74,0,0,1-.55,1.9,5.91,5.91,0,0,1-.63,1.06l-.21.26a2.62,2.62,0,0,1-.22.25l-.25.25a3,3,0,0,1-.27.23,5,5,0,0,1-2.89,1.1,5.05,5.05,0,0,1-3.32-1,3.24,3.24,0,0,1-.34-.29l-.17-.16-.16-.17a4.59,4.59,0,0,1-.55-.78A4,4,0,0,1,737,326a3.89,3.89,0,0,1,.41-1.89,4,4,0,0,1,.53-.84l.16-.17.07-.08,0,0,.06-.05a2.85,2.85,0,0,1,.38-.31,3.33,3.33,0,0,1,3.71-.07,3.15,3.15,0,0,1,.72.64,2.56,2.56,0,0,1,.46.84,2.64,2.64,0,0,1-.06,1.84,2.47,2.47,0,0,1-1.21,1.31,2.14,2.14,0,0,1-1.7,0l-.19-.1-.18-.11a1.09,1.09,0,0,1-.17-.13l-.15-.13a1.85,1.85,0,0,1-.41-.7,1.71,1.71,0,0,1,.24-1.47,1.47,1.47,0,0,1,.54-.48,1.44,1.44,0,0,1,.67-.14,1.29,1.29,0,0,1,.62.19,1.18,1.18,0,0,1,.25.19.88.88,0,0,1,.19.24,1.1,1.1,0,0,1,0,1.07,1.07,1.07,0,0,1-.34.36.94.94,0,0,1-.43.13.88.88,0,0,1-.67-.29.68.68,0,0,1-.16-.53.82.82,0,0,1,.12-.32l.08-.09h0A0,0,0,0,1,740.59,324.93Z"/><path class="cls-27" d="M740.6,316.41l.14-.07a1.6,1.6,0,0,1,.44-.1,1.22,1.22,0,0,1,.68.15,1,1,0,0,1,.33.3,1.21,1.21,0,0,1,.17.46,1.32,1.32,0,0,1-.29,1.06,3.06,3.06,0,0,1-.92.75,9.07,9.07,0,0,1-1.13.55c-.38.16-.79.32-1.14.49a11.14,11.14,0,0,0-1.07.63c-.34.23-.66.47-1,.71a10.05,10.05,0,0,0-.83.73,7.11,7.11,0,0,0-.65.73l-.25.36-.19.34-.15.32c0,.1-.06.2-.09.28a2.13,2.13,0,0,0-.11.41l0,.15h0a0,0,0,0,1,0,0l0,0v-.15a1.67,1.67,0,0,1,0-.45,2.14,2.14,0,0,1,0-.32l.08-.36c0-.13.1-.27.16-.41s.13-.28.21-.43a5.88,5.88,0,0,1,.63-.86,6.19,6.19,0,0,1,.87-.82,8,8,0,0,1,1-.7c.37-.2.76-.41,1.15-.58s.81-.3,1.2-.45a10.27,10.27,0,0,0,1.11-.46,3.27,3.27,0,0,0,.88-.64,1.09,1.09,0,0,0,.29-.85.78.78,0,0,0-.11-.39.84.84,0,0,0-.26-.27,1.12,1.12,0,0,0-.6-.17,1.32,1.32,0,0,0-.41.06l-.14,0s0,0,0,0,0,0,0,0Z"/><path class="cls-28" d="M760.57,318.39l-.15.18c0,.05-.1.13-.17.21L760,319l-.36.3-.21.15-.24.15a3.88,3.88,0,0,1-1.23.45,5.67,5.67,0,0,1-1.55.05,10.66,10.66,0,0,1-1.7-.3c-1.15-.29-2.34-.71-3.55-1a7.53,7.53,0,0,0-1.81-.19h-.22l-.22,0-.42.06h-.09l-.11,0-.11,0-.09,0a3,3,0,0,0-.37.16c-.5.24-1,.56-1.52.78a3.51,3.51,0,0,1-.83.22,2.25,2.25,0,0,1-.82-.05l-.17-.05-.19-.06a2,2,0,0,1-.32-.17,1.82,1.82,0,0,1-.51-.43,1.85,1.85,0,0,1-.41-1,2.09,2.09,0,0,1,0-.66l.07-.22s0,0,0,0a0,0,0,0,1,0,0h0l0,.22a2.07,2.07,0,0,0,.06.61,1.57,1.57,0,0,0,.45.78,1.88,1.88,0,0,0,1,.49,2.22,2.22,0,0,0,1.32-.24c.46-.21.92-.53,1.49-.8a2.64,2.64,0,0,1,.45-.18l.12,0,.11,0,.11,0h.13l.48-.06h.49a8.73,8.73,0,0,1,1.91.29c1.24.31,2.42.76,3.54,1.09a11.54,11.54,0,0,0,1.64.36,5.25,5.25,0,0,0,1.48,0,3.46,3.46,0,0,0,1.2-.37l.24-.13c.07-.05.15-.09.21-.14s.26-.18.36-.27l.27-.25.18-.2.15-.16a0,0,0,0,1,0,0S760.58,318.38,760.57,318.39Z"/><path class="cls-29" d="M760.57,318.31l.12-.09c.08-.05.19-.15.35-.24l.25-.17.32-.18a7.31,7.31,0,0,1,.78-.36c.14-.06.3-.11.46-.16s.34-.1.52-.13a5.84,5.84,0,0,1,1.14-.13,8.4,8.4,0,0,1,1.22.07,8.78,8.78,0,0,1,1.24.25c.41.1.81.22,1.21.34l1.14.34c.37.12.72.23,1.06.32s.65.17,1,.24l.42.08.39.05c.25,0,.47,0,.64,0h.58l0,0s0,0,0,0l-.15,0a2.42,2.42,0,0,1-.42.11l-.3.06-.36,0a6.44,6.44,0,0,1-.88,0l-.5-.06-.52-.09c-.36-.07-.73-.18-1.1-.29s-.76-.26-1.14-.41-.76-.28-1.16-.41a10,10,0,0,0-1.17-.3,7.77,7.77,0,0,0-1.16-.13,6.4,6.4,0,0,0-1.09.06c-.18,0-.34.07-.5.09l-.47.13a7.53,7.53,0,0,0-.78.3l-.31.15-.26.14-.37.22-.12.08s0,0,0,0A0,0,0,0,1,760.57,318.31Z"/><path class="cls-30" d="M769.11,318s.13-.12.39-.32a5.69,5.69,0,0,1,1.14-.72,5.58,5.58,0,0,1,.85-.33l.24-.06.26,0a2.84,2.84,0,0,1,.51-.05,6.21,6.21,0,0,1,2.2.41c.35.13.69.28,1,.42s.66.29,1,.43l.89.4c.28.12.55.23.8.31l.19.06.18,0,.33.08c.22,0,.41.07.56.08l.51,0h0a0,0,0,0,1,0,0s0,0,0,0l-.51.12a4.51,4.51,0,0,1-.6.05l-.37,0-.2,0-.21,0a3.93,3.93,0,0,1-.44-.1l-.46-.13c-.3-.11-.62-.24-.94-.38-.63-.3-1.26-.68-1.92-1a5.68,5.68,0,0,0-2-.51,2.79,2.79,0,0,0-.5,0l-.23,0-.23,0a4.32,4.32,0,0,0-.84.24,7,7,0,0,0-1.16.61,5,5,0,0,0-.42.29,0,0,0,0,1,0,0s0,0,0,0Z"/><path class="cls-31" d="M726.86,332.45l0,.06,0,.16a2.24,2.24,0,0,0,.3.56,6.76,6.76,0,0,0,.67.75c.13.14.28.29.42.46l.21.27.21.29a7,7,0,0,1,.73,1.39,6,6,0,0,1,.38,1.73,5.12,5.12,0,0,1-.23,1.89,13.66,13.66,0,0,1-.82,1.77c-.29.56-.58,1.13-.81,1.7a9.49,9.49,0,0,0-.53,1.7,6.1,6.1,0,0,0-.11.83c0,.07,0,.15,0,.22v.19c0,.13,0,.26,0,.39a6.33,6.33,0,0,0,.32,1.44,9.27,9.27,0,0,0,.52,1.17c.18.34.35.63.5.86s.28.41.36.54l.14.18a0,0,0,0,1,0,.05h0l-.16-.16a4.55,4.55,0,0,1-.45-.48,8,8,0,0,1-.64-.8,7.87,7.87,0,0,1-.66-1.17,6,6,0,0,1-.45-1.55c0-.15,0-.29,0-.45v-.23a1.48,1.48,0,0,1,0-.21,4.92,4.92,0,0,1,.11-.93,8.53,8.53,0,0,1,.62-1.8c.28-.58.59-1.15.9-1.71a12,12,0,0,0,.85-1.67,4.54,4.54,0,0,0,.28-1.74,6.2,6.2,0,0,0-.94-3l-.19-.29-.2-.27c-.13-.17-.26-.33-.39-.47a7.42,7.42,0,0,1-.64-.79,2.33,2.33,0,0,1-.28-.6.79.79,0,0,1,0-.17v-.06s0,0,0,0Z"/><path class="cls-32" d="M734.68,330.69l.09-.08a.82.82,0,0,1,.32-.12.69.69,0,0,1,.53.16.86.86,0,0,1,.29.67,1,1,0,0,1-.13.43,1,1,0,0,1-.36.33,1.08,1.08,0,0,1-1.07,0,1.12,1.12,0,0,1-.24-.19,1.18,1.18,0,0,1-.19-.25,1.33,1.33,0,0,1-.19-.62,1.42,1.42,0,0,1,.14-.67,1.47,1.47,0,0,1,.48-.54,1.68,1.68,0,0,1,1.47-.24,1.85,1.85,0,0,1,.7.41l.13.15a1.83,1.83,0,0,1,.13.16,1.74,1.74,0,0,1,.11.18l.1.19a2.14,2.14,0,0,1,0,1.7,2.45,2.45,0,0,1-1.31,1.22,2.7,2.7,0,0,1-1.84.06,2.76,2.76,0,0,1-.84-.46,3.15,3.15,0,0,1-.64-.72,3.33,3.33,0,0,1,.07-3.71,2.85,2.85,0,0,1,.31-.38l0-.06.05,0,.08-.08.17-.15a4.44,4.44,0,0,1,.84-.54,4,4,0,0,1,4.52.63l.18.15.16.18a2,2,0,0,1,.29.34A5,5,0,0,1,739,335l-.23.27c-.09.08-.16.17-.25.25l-.25.22L738,336a6.56,6.56,0,0,1-1.06.63,6,6,0,0,1-1.9.54,5.38,5.38,0,0,1-1.27,0l-.32,0-.12,0s0,0,0,0a0,0,0,0,1,0,0h.44a6.31,6.31,0,0,0,1.23-.11,5.34,5.34,0,0,0,.84-.23,5.95,5.95,0,0,0,1.9-1.06l.22-.2.24-.23c.06-.07.13-.16.21-.24a2.43,2.43,0,0,0,.2-.25l.19-.27.17-.3a3,3,0,0,0,.15-.31c0-.11.09-.21.13-.32a4.53,4.53,0,0,0,.26-1.43,4.92,4.92,0,0,0-.21-1.51,4.41,4.41,0,0,0-.73-1.39,2.5,2.5,0,0,0-.26-.33l-.14-.15-.15-.13a3.19,3.19,0,0,0-.66-.48,3.61,3.61,0,0,0-1.59-.45,3.5,3.5,0,0,0-1.65.32,3.15,3.15,0,0,0-.73.44,1.22,1.22,0,0,0-.17.15l-.09.07,0,0,0,0a2.22,2.22,0,0,0-.28.33,2.83,2.83,0,0,0-.55,1.59,2.89,2.89,0,0,0,.44,1.62,3,3,0,0,0,.54.64,2.35,2.35,0,0,0,.72.41,2.32,2.32,0,0,0,1.6,0,2.1,2.1,0,0,0,1.14-1,1.85,1.85,0,0,0,.05-1.46l-.08-.17-.09-.15-.1-.15-.13-.14a1.42,1.42,0,0,0-.58-.36,1.44,1.44,0,0,0-1.28.18,1.32,1.32,0,0,0-.43.45,1.22,1.22,0,0,0-.13.58,1.14,1.14,0,0,0,.51.94,1,1,0,0,0,.94,0,.9.9,0,0,0,.32-.29.79.79,0,0,0,.13-.37.77.77,0,0,0-.25-.61.59.59,0,0,0-.46-.15.63.63,0,0,0-.38.17h0A0,0,0,0,1,734.68,330.69Z"/><path class="cls-33" d="M726.25,330.77a1,1,0,0,0,0,.14,1.27,1.27,0,0,0-.06.41,1.15,1.15,0,0,0,.17.6.92.92,0,0,0,.26.26,1,1,0,0,0,.4.11,1.09,1.09,0,0,0,.85-.29,3,3,0,0,0,.63-.88,9.25,9.25,0,0,0,.47-1.11c.15-.39.26-.79.45-1.21s.37-.78.58-1.15a9.58,9.58,0,0,1,.7-1,7.4,7.4,0,0,1,.81-.86,5.74,5.74,0,0,1,.87-.63l.43-.22.41-.15.36-.09.32,0a2.26,2.26,0,0,1,.44,0h.16a0,0,0,0,1,0,0,0,0,0,0,1,0,0h0l-.15,0a2.91,2.91,0,0,0-.41.1l-.28.1-.32.14c-.1.07-.22.13-.34.2l-.36.24a6.22,6.22,0,0,0-.73.66,9.87,9.87,0,0,0-.73.82c-.24.3-.48.63-.71,1s-.43.69-.63,1.07-.33.77-.49,1.15a8.31,8.31,0,0,1-.55,1.12,3,3,0,0,1-.75.93,1.32,1.32,0,0,1-1.06.29,1.21,1.21,0,0,1-.46-.17,1,1,0,0,1-.3-.34,1.21,1.21,0,0,1-.15-.68,1.6,1.6,0,0,1,.1-.43,1.42,1.42,0,0,1,.07-.14h0a0,0,0,0,1,0,0S726.26,330.75,726.25,330.77Z"/><path class="cls-34" d="M728.15,350.66l.16-.15a1.7,1.7,0,0,0,.2-.19l.25-.26c.09-.11.17-.23.27-.36l.14-.22.13-.23a3.52,3.52,0,0,0,.37-1.2,5.32,5.32,0,0,0,0-1.49,11.73,11.73,0,0,0-.36-1.63c-.33-1.13-.78-2.3-1.09-3.54a8.73,8.73,0,0,1-.29-1.91V339c0-.16,0-.32.06-.48v-.08h0v-.05l0-.11,0-.11,0-.12a3.14,3.14,0,0,1,.18-.46c.26-.56.59-1,.8-1.48a2.22,2.22,0,0,0,.24-1.32,1.85,1.85,0,0,0-.49-1,1.68,1.68,0,0,0-.78-.46,2.07,2.07,0,0,0-.61-.06l-.22,0h0s0,0,0,0,0,0,0,0l.22-.07a2.09,2.09,0,0,1,.66,0,1.77,1.77,0,0,1,1,.41,1.92,1.92,0,0,1,.43.5,1.71,1.71,0,0,1,.17.33l.06.18c0,.06,0,.12,0,.18a2.23,2.23,0,0,1,.05.82,3.33,3.33,0,0,1-.23.82c-.21.54-.53,1-.77,1.53a3,3,0,0,0-.16.37l0,.09,0,.11,0,.11v0h0v.07c0,.14-.05.28-.06.42l0,.22v.22a7.4,7.4,0,0,0,.19,1.8c.25,1.21.67,2.41,1,3.56a10.75,10.75,0,0,1,.3,1.69,5.64,5.64,0,0,1,0,1.55,3.94,3.94,0,0,1-.45,1.23l-.15.25-.15.21c-.11.13-.2.25-.3.35l-.26.26c-.08.08-.16.13-.21.18l-.18.14h0A0,0,0,0,1,728.15,350.66Z"/><path class="cls-35" d="M728.15,350.75l-.08.13c-.05.08-.13.2-.22.36l-.14.26-.15.32a7.53,7.53,0,0,0-.3.78c0,.15-.08.3-.13.46s-.07.33-.09.5a6.52,6.52,0,0,0-.06,1.09,8.05,8.05,0,0,0,.13,1.17,10,10,0,0,0,.3,1.17c.13.39.27.78.41,1.16s.29.76.41,1.13.22.75.29,1.11c0,.18.06.35.09.52s0,.34.06.5a6.3,6.3,0,0,1,0,.87l0,.37q0,.17-.06.3a3,3,0,0,1-.11.42l0,.14s0,0,0,0,0,0,0,0h0v-.15c0-.1,0-.24,0-.42s0-.39,0-.64l-.05-.39-.08-.43c-.07-.29-.14-.61-.24-1s-.2-.68-.32-1-.23-.75-.34-1.15-.24-.79-.34-1.2a8.78,8.78,0,0,1-.25-1.24,8.48,8.48,0,0,1-.07-1.22,6,6,0,0,1,.13-1.15c0-.18.09-.34.13-.51s.1-.32.16-.47.24-.55.36-.78l.18-.31.17-.25c.09-.16.19-.27.24-.35l.09-.12s0,0,0,0S728.16,350.74,728.15,350.75Z"/><path class="cls-36" d="M727.8,359.29s-.12.15-.29.41a7.18,7.18,0,0,0-.61,1.17,4,4,0,0,0-.24.83,2.23,2.23,0,0,0,0,.23,1.66,1.66,0,0,0,0,.24,2.79,2.79,0,0,0,0,.5,5.79,5.79,0,0,0,.51,2c.29.66.67,1.29,1,1.92.14.32.27.63.38.94l.13.46a3.93,3.93,0,0,1,.1.44,1.62,1.62,0,0,1,0,.2l0,.21c0,.13,0,.25,0,.37a4.83,4.83,0,0,1,0,.6c-.07.33-.12.5-.12.5s0,0,0,0l0,0h0s0-.19,0-.5-.05-.35-.08-.56l-.08-.33-.05-.18-.06-.19c-.08-.25-.19-.52-.31-.8s-.26-.58-.4-.89-.29-.63-.43-1-.29-.68-.42-1a6.16,6.16,0,0,1-.41-2.19,2.67,2.67,0,0,1,0-.51,2.6,2.6,0,0,1,0-.26l.06-.24a5.58,5.58,0,0,1,.33-.85,6.17,6.17,0,0,1,.71-1.15l.33-.38h0A0,0,0,0,1,727.8,359.29Z"/><rect class="cls-37" width="1300" height="721"/><ellipse class="cls-38" cx="303.35" cy="127.31" rx="79.41" ry="31.71" transform="translate(-22.84 84.54) rotate(-15.3)"/><text class="cls-39" transform="translate(176.97 142.33)">人気の女性限定<tspan x="-77.23" y="57.69">オンライン ヨガスタジオ</tspan></text><text class="cls-40" transform="translate(176.97 142.33)">人気の女性限定<tspan x="-77.23" y="57.69">オンライン ヨガスタジオ</tspan></text><text class="cls-41" transform="translate(176.97 142.33)">人気の女性限定<tspan x="-77.23" y="57.69">オンライン ヨガスタジオ</tspan></text><text class="cls-42" transform="translate(742.82 379.33)">豪華なインストラクターの<tspan x="0" y="68.36">オンラインレッスンを１回</tspan><tspan x="0" y="136.72">から気軽に受けられる</tspan></text><text class="cls-42" transform="translate(742.82 379.33)">豪華なインストラクターの<tspan x="0" y="68.36">オンラインレッスンを１回</tspan><tspan x="0" y="136.72">から気軽に受けられる</tspan></text><text class="cls-43" transform="translate(742.82 379.33)">豪華なインストラクターの<tspan x="0" y="68.36">オンラインレッスンを１回</tspan><tspan x="0" y="136.72">から気軽に受けられる</tspan></text></g></g></svg>