<svg xmlns="http://www.w3.org/2000/svg" xmlns:xlink="http://www.w3.org/1999/xlink" viewBox="0 0 640 120.01"><defs><style>.cls-1{fill:url(#名称未設定グラデーション_3);}.cls-2{fill:#231815;}.cls-3,.cls-5{fill:none;}.cls-3{stroke:#000;stroke-miterlimit:10;}.cls-4{fill:#606060;}</style><radialGradient id="名称未設定グラデーション_3" cx="217.07" cy="-60.7" r="97.85" gradientTransform="translate(18.95 81.82) rotate(10.07)" gradientUnits="userSpaceOnUse"><stop offset="0" stop-color="#fff"/><stop offset="1" stop-color="#fdefef"/></radialGradient></defs><g id="レイヤー_2" data-name="レイヤー 2"><g id="レイヤー_2-2" data-name="レイヤー 2"><ellipse class="cls-1" cx="243.28" cy="60.01" rx="128.51" ry="51.32" transform="translate(76.38 66.31) rotate(-15.3)"/><path d="M16,54.79a3.64,3.64,0,0,1,.2.79c0,1.12-.52,1.67-1.47,1.67,0,0-.44,0-1.24-.08s-1.31,0-1.55,0c-4,0-6.84.36-8.27,1a2.86,2.86,0,0,1-.87.32,2,2,0,0,1-2.07-1.2A1.89,1.89,0,0,1,.5,56.5c0-1,1-1.71,3-2a66.94,66.94,0,0,1,9.27-.72,36.93,36.93,0,0,0,2.9-4.65c-.48,0-1.11,0-2,0a40.18,40.18,0,0,0-9.34.84,4.25,4.25,0,0,1-.8.12C2.49,50,2,49.34,2,48c0-.64.4-1,1.19-1.23a37.09,37.09,0,0,1,9-1c.88,0,2.59,0,5,.12a10.67,10.67,0,0,0,.6-3.06c0-1.51-.84-2.31-2.51-2.31a50.93,50.93,0,0,0-7.91.8,3.85,3.85,0,0,1-2.94.87C2.81,42.14,2,41.43,2,40A1.25,1.25,0,0,1,3.08,38.6a75.09,75.09,0,0,1,11.66-1.55q4.05,0,5.6,2.87A6.54,6.54,0,0,1,21,42.78C21,45.88,19.31,49.9,16,54.79Z" transform="translate(83.59)"/><path d="M60.54,52.68a27.92,27.92,0,0,1-3.26,5.65c-1.71,2.22-3.22,3.38-4.49,3.38a3.31,3.31,0,0,1-3.18-2.43,9.69,9.69,0,0,1-.8-3.54,1.62,1.62,0,0,1,.48-1.19,2,2,0,0,1,1.19-.4A1.41,1.41,0,0,1,52,55.46a7.18,7.18,0,0,0,.75,2.79c1.11-.4,2.35-2,3.78-4.73a36.74,36.74,0,0,0,2.82-6.69,15,15,0,0,0,.84-3.89c0-.64-.44-1.12-1.32-1.47A7.27,7.27,0,0,0,56.09,41a30.55,30.55,0,0,0-4.41.36q-2,4.29-4.46,9.06c-1.31,2.39-2.9,5.37-4.73,9a5.47,5.47,0,0,1,.08.76,3.21,3.21,0,0,1-1,2,2.9,2.9,0,0,1-1.91,1,1.56,1.56,0,0,1-1.15-.48A1.74,1.74,0,0,1,38,61.39c0-.48,2.26-5,6.88-13.64,1.23-2.39,2.18-4.29,2.9-5.77-.4.08-.91.2-1.55.28a6.53,6.53,0,0,1-3.06,1.16c-1.27,0-1.91-.56-1.91-1.75A2,2,0,0,1,43,39.56c1.43-.28,3.54-.72,6.36-1.27.6-1.67,1.07-3.3,1.47-4.89S51.88,31,52.91,31s1.67.64,1.67,1.91a3.81,3.81,0,0,1-.6,2.34c-.16.6-.47,1.48-.87,2.59,1-.08,2-.12,2.7-.12,5,0,7.48,1.83,7.48,5.45Q63.29,46.13,60.54,52.68Zm5.77-13a2.63,2.63,0,0,1-2-1.71c-.24-.28-.63-.72-1.11-1.35a3.53,3.53,0,0,1-1.15-2c0-1,.43-1.47,1.39-1.47.4,0,.83.32,1.27.87.72.88,1.55,2,2.59,3.26a2.32,2.32,0,0,1,.27,1C67.54,39.16,67.11,39.64,66.31,39.64Zm3.06-3.94a1.3,1.3,0,0,1-1-.56,7.45,7.45,0,0,0-1.91-1.27,1.65,1.65,0,0,1-1-1.67,1.11,1.11,0,0,1,.43-.87,1.62,1.62,0,0,1,1-.36,4.75,4.75,0,0,1,2.46,1.15c1,.76,1.47,1.47,1.47,2.15A1.25,1.25,0,0,1,69.37,35.7Z" transform="translate(83.59)"/><path d="M101.62,57.69a1.29,1.29,0,0,1-1.15.68c-1.11,0-1.67-.4-1.67-1.24a7.54,7.54,0,0,1,.12-1.19c-.24-.79-1.15-1.59-2.75-2.46A22.48,22.48,0,0,0,92.52,52a39.48,39.48,0,0,1-7.8,7.08A4.5,4.5,0,0,1,82.3,60a1.69,1.69,0,0,1-1.24-.44,1.65,1.65,0,0,1-.47-1.19,1.43,1.43,0,0,1,1.63-1.63q2-.84,5.6-4.54a58.06,58.06,0,0,0,5-5.68,28.58,28.58,0,0,0,2.39-3.78,10,10,0,0,0,1.43-4.14c0-.43-.63-.67-1.87-.67a19.82,19.82,0,0,0-7.19,1.31,2.71,2.71,0,0,1-1.79.88,2.35,2.35,0,0,1-1.71-.72,2.2,2.2,0,0,1-.76-1.71c0-.76.48-1.23,1.43-1.47A80.68,80.68,0,0,1,95.1,34.51c3.14,0,4.73,1.39,4.73,4.13s-1.71,6.29-5.09,10.5c4.93,1.79,7.4,4.06,7.4,6.84A2.81,2.81,0,0,1,101.62,57.69Z" transform="translate(83.59)"/><path d="M136.89,52.08c-2.58,2.79-5.17,5.41-7.71,7.88-1.19,1.11-2,1.71-2.47,1.71a1.47,1.47,0,0,1-1.15-.48,1.6,1.6,0,0,1-.48-1.15c0-.56.72-1.71,2.23-3.42a1.28,1.28,0,0,1,1-.32c2.47-2.39,4.66-4.65,6.49-6.8a53.49,53.49,0,0,1-5.21-3.9,1.46,1.46,0,0,1-.68-1.23,1.74,1.74,0,0,1,.52-1.19,1.69,1.69,0,0,1,1.27-.52,2.88,2.88,0,0,1,1.23.64,38,38,0,0,0,4.85,3.58c2.19-3.07,3.31-5.53,3.31-7.36,0-1.51-.88-2.31-2.55-2.31a9.61,9.61,0,0,0-4.89,1.51,5.22,5.22,0,0,1-1.55.72,1.34,1.34,0,0,1-.6-.16A36.45,36.45,0,0,1,127,44.09a1.57,1.57,0,0,1-1.19.6c-1,0-1.51-.56-1.51-1.75a1.92,1.92,0,0,1,.48-1.27,27.35,27.35,0,0,0,5.17-8.91c.31-.88.83-1.35,1.51-1.35,1.07,0,1.71,1.11,1.87,3.3a10.26,10.26,0,0,1,3.89-.8,6.74,6.74,0,0,1,4.3,1.47,5.1,5.1,0,0,1,1.71,4.06C143.18,43.38,141.07,47.59,136.89,52.08Z" transform="translate(83.59)"/><path d="M188.43,46.76c-5.33,7.11-10.74,11.69-16.18,13.75a14.35,14.35,0,0,1-3.74,1.08c-1.24,0-1.83-.56-1.83-1.67a2.05,2.05,0,0,1,.95-1.75,2.58,2.58,0,0,1,1.51-.52h1.2c4.41-1.11,9.62-5.45,15.58-12.92a2,2,0,0,1,1.4-.92,1.57,1.57,0,0,1,1.15.52,2,2,0,0,1,.44,1.23A1.92,1.92,0,0,1,188.43,46.76ZM177.65,46a1.37,1.37,0,0,1-1,.48c-.36,0-1.55-.12-3.62-.4-2.15,0-3.46-.24-3.94-.8a2.08,2.08,0,0,1-.51-1.59,1.32,1.32,0,0,1,.51-.95,1.41,1.41,0,0,1,1-.48c.55,0,2.78.32,6.64.92a1.45,1.45,0,0,1,1.31,1.67A1.47,1.47,0,0,1,177.65,46Zm.36-6.32a1.72,1.72,0,0,1-1-.56c-.32-.24-1.31-.91-3-1.95a7.73,7.73,0,0,1-2.42-.4,1.68,1.68,0,0,1-1.23-1.71c0-1.11.51-1.71,1.63-1.71,2.54,0,4.93,1.16,7.19,3.42a1.75,1.75,0,0,1,.6,1.28C179.76,39.16,179.16,39.68,178,39.68Zm10.78-1.31c-.48,0-1.2-.56-2.15-1.71-1.43-1.67-2.11-2.71-2.11-3.07,0-1,.48-1.59,1.43-1.59a1.89,1.89,0,0,1,1.2.6c.47.4.71.75.71,1.07l1.63,1.95a2.65,2.65,0,0,1,.68,1.27C190.18,37.89,189.7,38.37,188.79,38.37Zm4-2.23a1.64,1.64,0,0,1-1.27-.72,9.69,9.69,0,0,0-1.79-1.79,1.72,1.72,0,0,1-.67-1.27c0-.91.47-1.39,1.51-1.39.55,0,1.27.52,2.14,1.47A4,4,0,0,1,194,34.83,1.14,1.14,0,0,1,192.8,36.14Z" transform="translate(83.59)"/><path d="M223.94,40l-4,.83c.24,5.65.36,9.94.36,12.84,0,6.17-1.31,9.23-3.86,9.23a4.1,4.1,0,0,1-2.7-1.35c-1.23-1.15-1.83-2-1.83-2.71a1.54,1.54,0,0,1,.56-1.19,1.51,1.51,0,0,1,1-.52,2,2,0,0,1,1.55,1,4.52,4.52,0,0,0,1.27,1.31c.44-1,.68-4,.68-8.87,0-1.07-.12-4-.28-8.67a37.59,37.59,0,0,1-8.27,11.89c-3.3,3.34-5.33,5-6,5.09-1.12,0-1.67-.67-1.75-1.86.08-1.28.95-2.47,2.54-3.62a2.32,2.32,0,0,1,1.47-.44c4.06-3.9,6.92-7.6,8.51-11.06-4,.48-6.4.72-7.35.72-1.36,0-2-.56-2-1.67a1.49,1.49,0,0,1,1.59-1.71,90.79,90.79,0,0,0,11.33-1.27,27,27,0,0,0-.2-2.71,3.21,3.21,0,0,1,.56-2,1.91,1.91,0,0,1,1-.88c.88,0,1.4.2,1.63.52A2.13,2.13,0,0,1,220,34l0,1.55v1.75c.92-.16,2.35-.4,4.34-.79a1.78,1.78,0,0,1,2,1.35C226.33,39,225.53,39.68,223.94,40Z" transform="translate(83.59)"/><path d="M274.56,33.91a54.21,54.21,0,0,0-2.35,16.46,52.8,52.8,0,0,0,.8,6.45c.08.55.12.83.12.87a1.44,1.44,0,0,1-1.63,1.63,1.63,1.63,0,0,1-1-.44,2.82,2.82,0,0,1-1.27-.91c-.16-.16-1.23-1.39-3.26-3.78-2.38-2.74-3.94-4.57-4.65-5.53a41,41,0,0,1-3.94-6,101.23,101.23,0,0,0-1.63,14.28h.36a2.14,2.14,0,0,1,.28,1,25.88,25.88,0,0,1-.84,5,1.33,1.33,0,0,1-1.35,1.19,1.6,1.6,0,0,1-1.11-.55,1.45,1.45,0,0,1-.56-1.12V59.16a119.08,119.08,0,0,1,2.63-21.79.92.92,0,0,1-.16-.56,1.87,1.87,0,0,1,.67-1.23,2,2,0,0,1,1.23-.67,1.62,1.62,0,0,1,1.68,1.67,4,4,0,0,1-.16.67c1.43,4.06,5.09,9.35,10.89,15.87-.16-2-.2-3.46-.2-4.46a55.78,55.78,0,0,1,.76-8.39,35.81,35.81,0,0,1,1.91-8.15,1.66,1.66,0,0,1,1.55-1.23,1.52,1.52,0,0,1,1.07.52,1.61,1.61,0,0,1,.48,1.11A6.5,6.5,0,0,1,274.56,33.91Z" transform="translate(83.59)"/><path d="M299.33,55.82a12.45,12.45,0,0,1-9,3.58,13.09,13.09,0,0,1-8.63-3.06,10,10,0,0,1-4.1-8,12.47,12.47,0,0,1,3-8,21.4,21.4,0,0,1,7.16-5.44,2.13,2.13,0,0,1,1.51-1.44,12,12,0,0,1,2.15-.15,10.59,10.59,0,0,1,8.51,4A14.67,14.67,0,0,1,303,46.68,12.11,12.11,0,0,1,299.33,55.82Zm-6.16-19a1.68,1.68,0,0,1-.79.2,14.3,14.3,0,0,0-7.52,3.74c-2.66,2.31-4,4.61-4,7a7.09,7.09,0,0,0,3.14,6,10.64,10.64,0,0,0,6.72,2.11,8.82,8.82,0,0,0,9-9C299.77,41.47,297.54,38.13,293.17,36.85Z" transform="translate(83.59)"/><path d="M323.71,56.7a22.27,22.27,0,0,1-6.08,2.62A99.22,99.22,0,0,1,308,61.91a1.39,1.39,0,0,1-1.11-.48,1.56,1.56,0,0,1-.44-1.15,1.65,1.65,0,0,1,.76-1.52,8.4,8.4,0,0,1,2-.51c0-.64,0-3.18,0-7.64v-7c0-.55,0-1.9.08-4.09s.08-3.22.08-3.3c-1,.12-1.59.16-1.67.16-1.27,0-1.86-.52-1.86-1.63a1.44,1.44,0,0,1,.59-1.39A3.66,3.66,0,0,1,308,33c4-.32,7.2-.52,9.67-.52a10.16,10.16,0,0,1,4.65,1,4.27,4.27,0,0,1,2.34,3.94c0,1.59-1,3.18-2.9,4.77a34.6,34.6,0,0,1-5.84,3.74A39.56,39.56,0,0,1,323.11,47q3.83,1.32,3.82,4.3A6.37,6.37,0,0,1,323.71,56.7Zm-3.62-7c-1.19-.2-3.74-.48-7.63-.84v8.39c7.39-2,11.13-3.81,11.13-5.48C323.59,50.89,322.4,50.18,320.09,49.7Zm-2.74-14c-.64,0-1.39,0-2.35.08-1.27.08-2,.12-2.31.12-.07,1.83-.11,3.3-.11,4.49v3.66c5.72-2.86,8.62-5.05,8.62-6.56C321.2,36.34,319.89,35.74,317.35,35.74Z" transform="translate(83.59)"/><path d="M350.35,40.79c0,.08,0,.92,0,2.43v3.06a17.36,17.36,0,0,1-2.86,9.26c-2.19,3.54-4.77,5.29-7.72,5.29a7.4,7.4,0,0,1-6.91-4.25A18.24,18.24,0,0,1,331,47.71c0-1.07.08-2.7.24-4.85s.19-3.82.19-4.93c0-.24,0-.68,0-1.27a8.09,8.09,0,0,1-.08-1.24,1.29,1.29,0,0,1,.52-1,1.5,1.5,0,0,1,1-.4c1.27,0,1.9,1.07,1.9,3.14,0,.88-.12,2.83-.27,5.85s-.36,4.85-.36,5.49a11.56,11.56,0,0,0,1.83,6.87,4.44,4.44,0,0,0,3.74,2.31c2.38,0,4.33-1.55,5.84-4.69a20.89,20.89,0,0,0,1.95-9,52.14,52.14,0,0,0-.84-8.31c-.15-1-.39-2.3-.67-3.9a1.58,1.58,0,0,1,1.71-1.59,1.42,1.42,0,0,1,1.35,1A20.61,20.61,0,0,1,350.51,39,16.17,16.17,0,0,1,350.35,40.79Z" transform="translate(83.59)"/><path d="M390.2,59.84a15.11,15.11,0,0,1-7.2,1.71,11.35,11.35,0,0,1-5.73-1.35,5.51,5.51,0,0,1-2.86-5.05q0-4.42,5.13-8.08a17.86,17.86,0,0,0-2-6.64,6.94,6.94,0,0,0-1.71-2.26c-2.11-.6-3.14-1.63-3.14-3.14a1.53,1.53,0,0,1,1.71-1.75c.87,0,1.95.63,3.18,1.86a19.58,19.58,0,0,1,4.89,10.14,21.71,21.71,0,0,0,3.22-1.78,7.68,7.68,0,0,0,2.51-2.43c.55-1.07,1.15-1.63,1.83-1.63,1,0,1.59.64,1.59,1.91,0,.95-1,2.26-2.95,3.89a40.39,40.39,0,0,1-4.61,3.11,51.5,51.5,0,0,0-4.61,3,4.75,4.75,0,0,0-1.91,3.94c0,2,1.83,2.94,5.57,2.94A11,11,0,0,0,389.92,56,2.06,2.06,0,0,1,391,55.5a1.5,1.5,0,0,1,1.63,1.71C392.66,58.09,391.83,59,390.2,59.84Z" transform="translate(83.59)"/><path d="M411,53.4c-1,0-1.59-.72-1.79-2.23-.08-.64-.16-2.55-.19-5.73a1.89,1.89,0,0,1-.8-1.47,8.13,8.13,0,0,1,.64-1.87,2.21,2.21,0,0,1,1.94-1.55,1.16,1.16,0,0,1,.88.56,2.12,2.12,0,0,1,.36,1.23c-.08.64-.12,1.27-.16,1.91-.08,1.27-.12,2.19-.12,2.74a25.64,25.64,0,0,0,.36,4.5C412.11,52.76,411.71,53.4,411,53.4Zm26.69,5.05c-1.08,0-1.6-.48-1.6-1.44,0-3.1-1.27-5-3.81-5.68a14.15,14.15,0,0,1-3.34,6,8.12,8.12,0,0,1-6.09,2.83,11,11,0,0,1-4.73-.92c-1.87-.75-2.78-2-2.78-3.54,0-2,1.35-3.7,4.05-5.21a21.65,21.65,0,0,1,10.54-2.54c0-1.35-.12-3-.28-4.81a43.79,43.79,0,0,1-5.17.47,19.05,19.05,0,0,1-4.89-.59c-.71-.2-1.07-.8-1.07-1.79a1.39,1.39,0,0,1,.48-1,1.48,1.48,0,0,1,1.07-.47,20.7,20.7,0,0,0,4.57.55,38.48,38.48,0,0,0,3.9-.35l-1.15-1.59a2.68,2.68,0,0,1-.64-1.44c0-1,.48-1.55,1.47-1.55a1.81,1.81,0,0,1,1.31.8,23.73,23.73,0,0,1,2,3.34c1.59-.32,2.91-.56,3.94-.8.95,0,1.47.56,1.47,1.67S436,42,434.45,42.22l-1.86.32c.15,1.51.23,2.74.23,3.74,0,.24,0,.87,0,1.87a8.73,8.73,0,0,1,4.58,3A8.85,8.85,0,0,1,439,56.62C439,57.85,438.55,58.45,437.68,58.45ZM421,53.2a11.29,11.29,0,0,0-1.59,1.11c-.79.64-1.19,1.11-1.19,1.35s.52.52,1.55.8a9.29,9.29,0,0,0,2.75.44q4.35,0,6.68-5.85A17.93,17.93,0,0,0,421,53.2Z" transform="translate(83.59)"/><path d="M469.85,44.41a13.9,13.9,0,0,1-6.53,2.74,20.53,20.53,0,0,1,.92,5.09c0,1.2-.56,1.75-1.59,1.75s-1.43-.51-1.55-1.63a26.36,26.36,0,0,0-1.12-5,5.1,5.1,0,0,1-.39-1.35c0-.91.59-1.47,1.87-1.63a13.8,13.8,0,0,0,5.48-1.71c1.79-1,2.71-2.35,2.71-3.86,0-2-1.67-3.06-4.93-3.06-.16,0-1.2.2-3.11.52a5.73,5.73,0,0,1-1.15.2,1.47,1.47,0,0,1-1.27-.56,1.78,1.78,0,0,1-.48-1.31,1.82,1.82,0,0,1,.72-1.35,2.46,2.46,0,0,1,1.47-.64s.4.12,1.07.32a14.42,14.42,0,0,1,3.18-.44,8.76,8.76,0,0,1,5.41,1.59,5.67,5.67,0,0,1,2.27,4.77A7,7,0,0,1,469.85,44.41Zm-5.49,16.86a2.87,2.87,0,0,1-2.11.72,1.63,1.63,0,0,1-1.19-.64,2.34,2.34,0,0,1-.52-1.55,2.66,2.66,0,0,1,.6-1.75,1.9,1.9,0,0,1,1.59-.8,3.16,3.16,0,0,1,1.63.52,2,2,0,0,1,.67,1.55A2.88,2.88,0,0,1,464.36,61.27Z" transform="translate(83.59)"/><path class="cls-2" d="M16,54.79a3.64,3.64,0,0,1,.2.79c0,1.12-.52,1.67-1.47,1.67,0,0-.44,0-1.24-.08s-1.31,0-1.55,0c-4,0-6.84.36-8.27,1a2.86,2.86,0,0,1-.87.32,2,2,0,0,1-2.07-1.2A1.89,1.89,0,0,1,.5,56.5c0-1,1-1.71,3-2a66.94,66.94,0,0,1,9.27-.72,36.93,36.93,0,0,0,2.9-4.65c-.48,0-1.11,0-2,0a40.18,40.18,0,0,0-9.34.84,4.25,4.25,0,0,1-.8.12C2.49,50,2,49.34,2,48c0-.64.4-1,1.19-1.23a37.09,37.09,0,0,1,9-1c.88,0,2.59,0,5,.12a10.67,10.67,0,0,0,.6-3.06c0-1.51-.84-2.31-2.51-2.31a50.93,50.93,0,0,0-7.91.8,3.85,3.85,0,0,1-2.94.87C2.81,42.14,2,41.43,2,40A1.25,1.25,0,0,1,3.08,38.6a75.09,75.09,0,0,1,11.66-1.55q4.05,0,5.6,2.87A6.54,6.54,0,0,1,21,42.78C21,45.88,19.31,49.9,16,54.79Z" transform="translate(83.59)"/><path class="cls-2" d="M60.54,52.68a27.92,27.92,0,0,1-3.26,5.65c-1.71,2.22-3.22,3.38-4.49,3.38a3.31,3.31,0,0,1-3.18-2.43,9.69,9.69,0,0,1-.8-3.54,1.62,1.62,0,0,1,.48-1.19,2,2,0,0,1,1.19-.4A1.41,1.41,0,0,1,52,55.46a7.18,7.18,0,0,0,.75,2.79c1.11-.4,2.35-2,3.78-4.73a36.74,36.74,0,0,0,2.82-6.69,15,15,0,0,0,.84-3.89c0-.64-.44-1.12-1.32-1.47A7.27,7.27,0,0,0,56.09,41a30.55,30.55,0,0,0-4.41.36q-2,4.29-4.46,9.06c-1.31,2.39-2.9,5.37-4.73,9a5.47,5.47,0,0,1,.08.76,3.21,3.21,0,0,1-1,2,2.9,2.9,0,0,1-1.91,1,1.56,1.56,0,0,1-1.15-.48A1.74,1.74,0,0,1,38,61.39c0-.48,2.26-5,6.88-13.64,1.23-2.39,2.18-4.29,2.9-5.77-.4.08-.91.2-1.55.28a6.53,6.53,0,0,1-3.06,1.16c-1.27,0-1.91-.56-1.91-1.75A2,2,0,0,1,43,39.56c1.43-.28,3.54-.72,6.36-1.27.6-1.67,1.07-3.3,1.47-4.89S51.88,31,52.91,31s1.67.64,1.67,1.91a3.81,3.81,0,0,1-.6,2.34c-.16.6-.47,1.48-.87,2.59,1-.08,2-.12,2.7-.12,5,0,7.48,1.83,7.48,5.45Q63.29,46.13,60.54,52.68Zm5.77-13a2.63,2.63,0,0,1-2-1.71c-.24-.28-.63-.72-1.11-1.35a3.53,3.53,0,0,1-1.15-2c0-1,.43-1.47,1.39-1.47.4,0,.83.32,1.27.87.72.88,1.55,2,2.59,3.26a2.32,2.32,0,0,1,.27,1C67.54,39.16,67.11,39.64,66.31,39.64Zm3.06-3.94a1.3,1.3,0,0,1-1-.56,7.45,7.45,0,0,0-1.91-1.27,1.65,1.65,0,0,1-1-1.67,1.11,1.11,0,0,1,.43-.87,1.62,1.62,0,0,1,1-.36,4.75,4.75,0,0,1,2.46,1.15c1,.76,1.47,1.47,1.47,2.15A1.25,1.25,0,0,1,69.37,35.7Z" transform="translate(83.59)"/><path class="cls-2" d="M101.62,57.69a1.29,1.29,0,0,1-1.15.68c-1.11,0-1.67-.4-1.67-1.24a7.54,7.54,0,0,1,.12-1.19c-.24-.79-1.15-1.59-2.75-2.46A22.48,22.48,0,0,0,92.52,52a39.48,39.48,0,0,1-7.8,7.08A4.5,4.5,0,0,1,82.3,60a1.69,1.69,0,0,1-1.24-.44,1.65,1.65,0,0,1-.47-1.19,1.43,1.43,0,0,1,1.63-1.63q2-.84,5.6-4.54a58.06,58.06,0,0,0,5-5.68,28.58,28.58,0,0,0,2.39-3.78,10,10,0,0,0,1.43-4.14c0-.43-.63-.67-1.87-.67a19.82,19.82,0,0,0-7.19,1.31,2.71,2.71,0,0,1-1.79.88,2.35,2.35,0,0,1-1.71-.72,2.2,2.2,0,0,1-.76-1.71c0-.76.48-1.23,1.43-1.47A80.68,80.68,0,0,1,95.1,34.51c3.14,0,4.73,1.39,4.73,4.13s-1.71,6.29-5.09,10.5c4.93,1.79,7.4,4.06,7.4,6.84A2.81,2.81,0,0,1,101.62,57.69Z" transform="translate(83.59)"/><path class="cls-2" d="M136.89,52.08c-2.58,2.79-5.17,5.41-7.71,7.88-1.19,1.11-2,1.71-2.47,1.71a1.47,1.47,0,0,1-1.15-.48,1.6,1.6,0,0,1-.48-1.15c0-.56.72-1.71,2.23-3.42a1.28,1.28,0,0,1,1-.32c2.47-2.39,4.66-4.65,6.49-6.8a53.49,53.49,0,0,1-5.21-3.9,1.46,1.46,0,0,1-.68-1.23,1.74,1.74,0,0,1,.52-1.19,1.69,1.69,0,0,1,1.27-.52,2.88,2.88,0,0,1,1.23.64,38,38,0,0,0,4.85,3.58c2.19-3.07,3.31-5.53,3.31-7.36,0-1.51-.88-2.31-2.55-2.31a9.61,9.61,0,0,0-4.89,1.51,5.22,5.22,0,0,1-1.55.72,1.34,1.34,0,0,1-.6-.16A36.45,36.45,0,0,1,127,44.09a1.57,1.57,0,0,1-1.19.6c-1,0-1.51-.56-1.51-1.75a1.92,1.92,0,0,1,.48-1.27,27.35,27.35,0,0,0,5.17-8.91c.31-.88.83-1.35,1.51-1.35,1.07,0,1.71,1.11,1.87,3.3a10.26,10.26,0,0,1,3.89-.8,6.74,6.74,0,0,1,4.3,1.47,5.1,5.1,0,0,1,1.71,4.06C143.18,43.38,141.07,47.59,136.89,52.08Z" transform="translate(83.59)"/><path class="cls-2" d="M188.43,46.76c-5.33,7.11-10.74,11.69-16.18,13.75a14.35,14.35,0,0,1-3.74,1.08c-1.24,0-1.83-.56-1.83-1.67a2.05,2.05,0,0,1,.95-1.75,2.58,2.58,0,0,1,1.51-.52h1.2c4.41-1.11,9.62-5.45,15.58-12.92a2,2,0,0,1,1.4-.92,1.57,1.57,0,0,1,1.15.52,2,2,0,0,1,.44,1.23A1.92,1.92,0,0,1,188.43,46.76ZM177.65,46a1.37,1.37,0,0,1-1,.48c-.36,0-1.55-.12-3.62-.4-2.15,0-3.46-.24-3.94-.8a2.08,2.08,0,0,1-.51-1.59,1.32,1.32,0,0,1,.51-.95,1.41,1.41,0,0,1,1-.48c.55,0,2.78.32,6.64.92a1.45,1.45,0,0,1,1.31,1.67A1.47,1.47,0,0,1,177.65,46Zm.36-6.32a1.72,1.72,0,0,1-1-.56c-.32-.24-1.31-.91-3-1.95a7.73,7.73,0,0,1-2.42-.4,1.68,1.68,0,0,1-1.23-1.71c0-1.11.51-1.71,1.63-1.71,2.54,0,4.93,1.16,7.19,3.42a1.75,1.75,0,0,1,.6,1.28C179.76,39.16,179.16,39.68,178,39.68Zm10.78-1.31c-.48,0-1.2-.56-2.15-1.71-1.43-1.67-2.11-2.71-2.11-3.07,0-1,.48-1.59,1.43-1.59a1.89,1.89,0,0,1,1.2.6c.47.4.71.75.71,1.07l1.63,1.95a2.65,2.65,0,0,1,.68,1.27C190.18,37.89,189.7,38.37,188.79,38.37Zm4-2.23a1.64,1.64,0,0,1-1.27-.72,9.69,9.69,0,0,0-1.79-1.79,1.72,1.72,0,0,1-.67-1.27c0-.91.47-1.39,1.51-1.39.55,0,1.27.52,2.14,1.47A4,4,0,0,1,194,34.83,1.14,1.14,0,0,1,192.8,36.14Z" transform="translate(83.59)"/><path class="cls-2" d="M223.94,40l-4,.83c.24,5.65.36,9.94.36,12.84,0,6.17-1.31,9.23-3.86,9.23a4.1,4.1,0,0,1-2.7-1.35c-1.23-1.15-1.83-2-1.83-2.71a1.54,1.54,0,0,1,.56-1.19,1.51,1.51,0,0,1,1-.52,2,2,0,0,1,1.55,1,4.52,4.52,0,0,0,1.27,1.31c.44-1,.68-4,.68-8.87,0-1.07-.12-4-.28-8.67a37.59,37.59,0,0,1-8.27,11.89c-3.3,3.34-5.33,5-6,5.09-1.12,0-1.67-.67-1.75-1.86.08-1.28.95-2.47,2.54-3.62a2.32,2.32,0,0,1,1.47-.44c4.06-3.9,6.92-7.6,8.51-11.06-4,.48-6.4.72-7.35.72-1.36,0-2-.56-2-1.67a1.49,1.49,0,0,1,1.59-1.71,90.79,90.79,0,0,0,11.33-1.27,27,27,0,0,0-.2-2.71,3.21,3.21,0,0,1,.56-2,1.91,1.91,0,0,1,1-.88c.88,0,1.4.2,1.63.52A2.13,2.13,0,0,1,220,34l0,1.55v1.75c.92-.16,2.35-.4,4.34-.79a1.78,1.78,0,0,1,2,1.35C226.33,39,225.53,39.68,223.94,40Z" transform="translate(83.59)"/><path class="cls-2" d="M274.56,33.91a54.21,54.21,0,0,0-2.35,16.46,52.8,52.8,0,0,0,.8,6.45c.08.55.12.83.12.87a1.44,1.44,0,0,1-1.63,1.63,1.63,1.63,0,0,1-1-.44,2.82,2.82,0,0,1-1.27-.91c-.16-.16-1.23-1.39-3.26-3.78-2.38-2.74-3.94-4.57-4.65-5.53a41,41,0,0,1-3.94-6,101.23,101.23,0,0,0-1.63,14.28h.36a2.14,2.14,0,0,1,.28,1,25.88,25.88,0,0,1-.84,5,1.33,1.33,0,0,1-1.35,1.19,1.6,1.6,0,0,1-1.11-.55,1.45,1.45,0,0,1-.56-1.12V59.16a119.08,119.08,0,0,1,2.63-21.79.92.92,0,0,1-.16-.56,1.87,1.87,0,0,1,.67-1.23,2,2,0,0,1,1.23-.67,1.62,1.62,0,0,1,1.68,1.67,4,4,0,0,1-.16.67c1.43,4.06,5.09,9.35,10.89,15.87-.16-2-.2-3.46-.2-4.46a55.78,55.78,0,0,1,.76-8.39,35.81,35.81,0,0,1,1.91-8.15,1.66,1.66,0,0,1,1.55-1.23,1.52,1.52,0,0,1,1.07.52,1.61,1.61,0,0,1,.48,1.11A6.5,6.5,0,0,1,274.56,33.91Z" transform="translate(83.59)"/><path class="cls-2" d="M299.33,55.82a12.45,12.45,0,0,1-9,3.58,13.09,13.09,0,0,1-8.63-3.06,10,10,0,0,1-4.1-8,12.47,12.47,0,0,1,3-8,21.4,21.4,0,0,1,7.16-5.44,2.13,2.13,0,0,1,1.51-1.44,12,12,0,0,1,2.15-.15,10.59,10.59,0,0,1,8.51,4A14.67,14.67,0,0,1,303,46.68,12.11,12.11,0,0,1,299.33,55.82Zm-6.16-19a1.68,1.68,0,0,1-.79.2,14.3,14.3,0,0,0-7.52,3.74c-2.66,2.31-4,4.61-4,7a7.09,7.09,0,0,0,3.14,6,10.64,10.64,0,0,0,6.72,2.11,8.82,8.82,0,0,0,9-9C299.77,41.47,297.54,38.13,293.17,36.85Z" transform="translate(83.59)"/><path class="cls-2" d="M323.71,56.7a22.27,22.27,0,0,1-6.08,2.62A99.22,99.22,0,0,1,308,61.91a1.39,1.39,0,0,1-1.11-.48,1.56,1.56,0,0,1-.44-1.15,1.65,1.65,0,0,1,.76-1.52,8.4,8.4,0,0,1,2-.51c0-.64,0-3.18,0-7.64v-7c0-.55,0-1.9.08-4.09s.08-3.22.08-3.3c-1,.12-1.59.16-1.67.16-1.27,0-1.86-.52-1.86-1.63a1.44,1.44,0,0,1,.59-1.39A3.66,3.66,0,0,1,308,33c4-.32,7.2-.52,9.67-.52a10.16,10.16,0,0,1,4.65,1,4.27,4.27,0,0,1,2.34,3.94c0,1.59-1,3.18-2.9,4.77a34.6,34.6,0,0,1-5.84,3.74A39.56,39.56,0,0,1,323.11,47q3.83,1.32,3.82,4.3A6.37,6.37,0,0,1,323.71,56.7Zm-3.62-7c-1.19-.2-3.74-.48-7.63-.84v8.39c7.39-2,11.13-3.81,11.13-5.48C323.59,50.89,322.4,50.18,320.09,49.7Zm-2.74-14c-.64,0-1.39,0-2.35.08-1.27.08-2,.12-2.31.12-.07,1.83-.11,3.3-.11,4.49v3.66c5.72-2.86,8.62-5.05,8.62-6.56C321.2,36.34,319.89,35.74,317.35,35.74Z" transform="translate(83.59)"/><path class="cls-2" d="M350.35,40.79c0,.08,0,.92,0,2.43v3.06a17.36,17.36,0,0,1-2.86,9.26c-2.19,3.54-4.77,5.29-7.72,5.29a7.4,7.4,0,0,1-6.91-4.25A18.24,18.24,0,0,1,331,47.71c0-1.07.08-2.7.24-4.85s.19-3.82.19-4.93c0-.24,0-.68,0-1.27a8.09,8.09,0,0,1-.08-1.24,1.29,1.29,0,0,1,.52-1,1.5,1.5,0,0,1,1-.4c1.27,0,1.9,1.07,1.9,3.14,0,.88-.12,2.83-.27,5.85s-.36,4.85-.36,5.49a11.56,11.56,0,0,0,1.83,6.87,4.44,4.44,0,0,0,3.74,2.31c2.38,0,4.33-1.55,5.84-4.69a20.89,20.89,0,0,0,1.95-9,52.14,52.14,0,0,0-.84-8.31c-.15-1-.39-2.3-.67-3.9a1.58,1.58,0,0,1,1.71-1.59,1.42,1.42,0,0,1,1.35,1A20.61,20.61,0,0,1,350.51,39,16.17,16.17,0,0,1,350.35,40.79Z" transform="translate(83.59)"/><path class="cls-2" d="M390.2,59.84a15.11,15.11,0,0,1-7.2,1.71,11.35,11.35,0,0,1-5.73-1.35,5.51,5.51,0,0,1-2.86-5.05q0-4.42,5.13-8.08a17.86,17.86,0,0,0-2-6.64,6.94,6.94,0,0,0-1.71-2.26c-2.11-.6-3.14-1.63-3.14-3.14a1.53,1.53,0,0,1,1.71-1.75c.87,0,1.95.63,3.18,1.86a19.58,19.58,0,0,1,4.89,10.14,21.71,21.71,0,0,0,3.22-1.78,7.68,7.68,0,0,0,2.51-2.43c.55-1.07,1.15-1.63,1.83-1.63,1,0,1.59.64,1.59,1.91,0,.95-1,2.26-2.95,3.89a40.39,40.39,0,0,1-4.61,3.11,51.5,51.5,0,0,0-4.61,3,4.75,4.75,0,0,0-1.91,3.94c0,2,1.83,2.94,5.57,2.94A11,11,0,0,0,389.92,56,2.06,2.06,0,0,1,391,55.5a1.5,1.5,0,0,1,1.63,1.71C392.66,58.09,391.83,59,390.2,59.84Z" transform="translate(83.59)"/><path class="cls-2" d="M411,53.4c-1,0-1.59-.72-1.79-2.23-.08-.64-.16-2.55-.19-5.73a1.89,1.89,0,0,1-.8-1.47,8.13,8.13,0,0,1,.64-1.87,2.21,2.21,0,0,1,1.94-1.55,1.16,1.16,0,0,1,.88.56,2.12,2.12,0,0,1,.36,1.23c-.08.64-.12,1.27-.16,1.91-.08,1.27-.12,2.19-.12,2.74a25.64,25.64,0,0,0,.36,4.5C412.11,52.76,411.71,53.4,411,53.4Zm26.69,5.05c-1.08,0-1.6-.48-1.6-1.44,0-3.1-1.27-5-3.81-5.68a14.15,14.15,0,0,1-3.34,6,8.12,8.12,0,0,1-6.09,2.83,11,11,0,0,1-4.73-.92c-1.87-.75-2.78-2-2.78-3.54,0-2,1.35-3.7,4.05-5.21a21.65,21.65,0,0,1,10.54-2.54c0-1.35-.12-3-.28-4.81a43.79,43.79,0,0,1-5.17.47,19.05,19.05,0,0,1-4.89-.59c-.71-.2-1.07-.8-1.07-1.79a1.39,1.39,0,0,1,.48-1,1.48,1.48,0,0,1,1.07-.47,20.7,20.7,0,0,0,4.57.55,38.48,38.48,0,0,0,3.9-.35l-1.15-1.59a2.68,2.68,0,0,1-.64-1.44c0-1,.48-1.55,1.47-1.55a1.81,1.81,0,0,1,1.31.8,23.73,23.73,0,0,1,2,3.34c1.59-.32,2.91-.56,3.94-.8.95,0,1.47.56,1.47,1.67S436,42,434.45,42.22l-1.86.32c.15,1.51.23,2.74.23,3.74,0,.24,0,.87,0,1.87a8.73,8.73,0,0,1,4.58,3A8.85,8.85,0,0,1,439,56.62C439,57.85,438.55,58.45,437.68,58.45ZM421,53.2a11.29,11.29,0,0,0-1.59,1.11c-.79.64-1.19,1.11-1.19,1.35s.52.52,1.55.8a9.29,9.29,0,0,0,2.75.44q4.35,0,6.68-5.85A17.93,17.93,0,0,0,421,53.2Z" transform="translate(83.59)"/><path class="cls-2" d="M469.85,44.41a13.9,13.9,0,0,1-6.53,2.74,20.53,20.53,0,0,1,.92,5.09c0,1.2-.56,1.75-1.59,1.75s-1.43-.51-1.55-1.63a26.36,26.36,0,0,0-1.12-5,5.1,5.1,0,0,1-.39-1.35c0-.91.59-1.47,1.87-1.63a13.8,13.8,0,0,0,5.48-1.71c1.79-1,2.71-2.35,2.71-3.86,0-2-1.67-3.06-4.93-3.06-.16,0-1.2.2-3.11.52a5.73,5.73,0,0,1-1.15.2,1.47,1.47,0,0,1-1.27-.56,1.78,1.78,0,0,1-.48-1.31,1.82,1.82,0,0,1,.72-1.35,2.46,2.46,0,0,1,1.47-.64s.4.12,1.07.32a14.42,14.42,0,0,1,3.18-.44,8.76,8.76,0,0,1,5.41,1.59,5.67,5.67,0,0,1,2.27,4.77A7,7,0,0,1,469.85,44.41Zm-5.49,16.86a2.87,2.87,0,0,1-2.11.72,1.63,1.63,0,0,1-1.19-.64,2.34,2.34,0,0,1-.52-1.55,2.66,2.66,0,0,1,.6-1.75,1.9,1.9,0,0,1,1.59-.8,3.16,3.16,0,0,1,1.63.52,2,2,0,0,1,.67,1.55A2.88,2.88,0,0,1,464.36,61.27Z" transform="translate(83.59)"/><path class="cls-3" d="M16,54.79a3.64,3.64,0,0,1,.2.79c0,1.12-.52,1.67-1.47,1.67,0,0-.44,0-1.24-.08s-1.31,0-1.55,0c-4,0-6.84.36-8.27,1a2.86,2.86,0,0,1-.87.32,2,2,0,0,1-2.07-1.2A1.89,1.89,0,0,1,.5,56.5c0-1,1-1.71,3-2a66.94,66.94,0,0,1,9.27-.72,36.93,36.93,0,0,0,2.9-4.65c-.48,0-1.11,0-2,0a40.18,40.18,0,0,0-9.34.84,4.25,4.25,0,0,1-.8.12C2.49,50,2,49.34,2,48c0-.64.4-1,1.19-1.23a37.09,37.09,0,0,1,9-1c.88,0,2.59,0,5,.12a10.67,10.67,0,0,0,.6-3.06c0-1.51-.84-2.31-2.51-2.31a50.93,50.93,0,0,0-7.91.8,3.85,3.85,0,0,1-2.94.87C2.81,42.14,2,41.43,2,40A1.25,1.25,0,0,1,3.08,38.6a75.09,75.09,0,0,1,11.66-1.55q4.05,0,5.6,2.87A6.54,6.54,0,0,1,21,42.78C21,45.88,19.31,49.9,16,54.79Z" transform="translate(83.59)"/><path class="cls-3" d="M60.54,52.68a27.92,27.92,0,0,1-3.26,5.65c-1.71,2.22-3.22,3.38-4.49,3.38a3.31,3.31,0,0,1-3.18-2.43,9.69,9.69,0,0,1-.8-3.54,1.62,1.62,0,0,1,.48-1.19,2,2,0,0,1,1.19-.4A1.41,1.41,0,0,1,52,55.46a7.18,7.18,0,0,0,.75,2.79c1.11-.4,2.35-2,3.78-4.73a36.74,36.74,0,0,0,2.82-6.69,15,15,0,0,0,.84-3.89c0-.64-.44-1.12-1.32-1.47A7.27,7.27,0,0,0,56.09,41a30.55,30.55,0,0,0-4.41.36q-2,4.29-4.46,9.06c-1.31,2.39-2.9,5.37-4.73,9a5.47,5.47,0,0,1,.08.76,3.21,3.21,0,0,1-1,2,2.9,2.9,0,0,1-1.91,1,1.56,1.56,0,0,1-1.15-.48A1.74,1.74,0,0,1,38,61.39c0-.48,2.26-5,6.88-13.64,1.23-2.39,2.18-4.29,2.9-5.77-.4.08-.91.2-1.55.28a6.53,6.53,0,0,1-3.06,1.16c-1.27,0-1.91-.56-1.91-1.75A2,2,0,0,1,43,39.56c1.43-.28,3.54-.72,6.36-1.27.6-1.67,1.07-3.3,1.47-4.89S51.88,31,52.91,31s1.67.64,1.67,1.91a3.81,3.81,0,0,1-.6,2.34c-.16.6-.47,1.48-.87,2.59,1-.08,2-.12,2.7-.12,5,0,7.48,1.83,7.48,5.45Q63.29,46.13,60.54,52.68Zm5.77-13a2.63,2.63,0,0,1-2-1.71c-.24-.28-.63-.72-1.11-1.35a3.53,3.53,0,0,1-1.15-2c0-1,.43-1.47,1.39-1.47.4,0,.83.32,1.27.87.72.88,1.55,2,2.59,3.26a2.32,2.32,0,0,1,.27,1C67.54,39.16,67.11,39.64,66.31,39.64Zm3.06-3.94a1.3,1.3,0,0,1-1-.56,7.45,7.45,0,0,0-1.91-1.27,1.65,1.65,0,0,1-1-1.67,1.11,1.11,0,0,1,.43-.87,1.62,1.62,0,0,1,1-.36,4.75,4.75,0,0,1,2.46,1.15c1,.76,1.47,1.47,1.47,2.15A1.25,1.25,0,0,1,69.37,35.7Z" transform="translate(83.59)"/><path class="cls-3" d="M101.62,57.69a1.29,1.29,0,0,1-1.15.68c-1.11,0-1.67-.4-1.67-1.24a7.54,7.54,0,0,1,.12-1.19c-.24-.79-1.15-1.59-2.75-2.46A22.48,22.48,0,0,0,92.52,52a39.48,39.48,0,0,1-7.8,7.08A4.5,4.5,0,0,1,82.3,60a1.69,1.69,0,0,1-1.24-.44,1.65,1.65,0,0,1-.47-1.19,1.43,1.43,0,0,1,1.63-1.63q2-.84,5.6-4.54a58.06,58.06,0,0,0,5-5.68,28.58,28.58,0,0,0,2.39-3.78,10,10,0,0,0,1.43-4.14c0-.43-.63-.67-1.87-.67a19.82,19.82,0,0,0-7.19,1.31,2.71,2.71,0,0,1-1.79.88,2.35,2.35,0,0,1-1.71-.72,2.2,2.2,0,0,1-.76-1.71c0-.76.48-1.23,1.43-1.47A80.68,80.68,0,0,1,95.1,34.51c3.14,0,4.73,1.39,4.73,4.13s-1.71,6.29-5.09,10.5c4.93,1.79,7.4,4.06,7.4,6.84A2.81,2.81,0,0,1,101.62,57.69Z" transform="translate(83.59)"/><path class="cls-3" d="M136.89,52.08c-2.58,2.79-5.17,5.41-7.71,7.88-1.19,1.11-2,1.71-2.47,1.71a1.47,1.47,0,0,1-1.15-.48,1.6,1.6,0,0,1-.48-1.15c0-.56.72-1.71,2.23-3.42a1.28,1.28,0,0,1,1-.32c2.47-2.39,4.66-4.65,6.49-6.8a53.49,53.49,0,0,1-5.21-3.9,1.46,1.46,0,0,1-.68-1.23,1.74,1.74,0,0,1,.52-1.19,1.69,1.69,0,0,1,1.27-.52,2.88,2.88,0,0,1,1.23.64,38,38,0,0,0,4.85,3.58c2.19-3.07,3.31-5.53,3.31-7.36,0-1.51-.88-2.31-2.55-2.31a9.61,9.61,0,0,0-4.89,1.51,5.22,5.22,0,0,1-1.55.72,1.34,1.34,0,0,1-.6-.16A36.45,36.45,0,0,1,127,44.09a1.57,1.57,0,0,1-1.19.6c-1,0-1.51-.56-1.51-1.75a1.92,1.92,0,0,1,.48-1.27,27.35,27.35,0,0,0,5.17-8.91c.31-.88.83-1.35,1.51-1.35,1.07,0,1.71,1.11,1.87,3.3a10.26,10.26,0,0,1,3.89-.8,6.74,6.74,0,0,1,4.3,1.47,5.1,5.1,0,0,1,1.71,4.06C143.18,43.38,141.07,47.59,136.89,52.08Z" transform="translate(83.59)"/><path class="cls-3" d="M188.43,46.76c-5.33,7.11-10.74,11.69-16.18,13.75a14.35,14.35,0,0,1-3.74,1.08c-1.24,0-1.83-.56-1.83-1.67a2.05,2.05,0,0,1,.95-1.75,2.58,2.58,0,0,1,1.51-.52h1.2c4.41-1.11,9.62-5.45,15.58-12.92a2,2,0,0,1,1.4-.92,1.57,1.57,0,0,1,1.15.52,2,2,0,0,1,.44,1.23A1.92,1.92,0,0,1,188.43,46.76ZM177.65,46a1.37,1.37,0,0,1-1,.48c-.36,0-1.55-.12-3.62-.4-2.15,0-3.46-.24-3.94-.8a2.08,2.08,0,0,1-.51-1.59,1.32,1.32,0,0,1,.51-.95,1.41,1.41,0,0,1,1-.48c.55,0,2.78.32,6.64.92a1.45,1.45,0,0,1,1.31,1.67A1.47,1.47,0,0,1,177.65,46Zm.36-6.32a1.72,1.72,0,0,1-1-.56c-.32-.24-1.31-.91-3-1.95a7.73,7.73,0,0,1-2.42-.4,1.68,1.68,0,0,1-1.23-1.71c0-1.11.51-1.71,1.63-1.71,2.54,0,4.93,1.16,7.19,3.42a1.75,1.75,0,0,1,.6,1.28C179.76,39.16,179.16,39.68,178,39.68Zm10.78-1.31c-.48,0-1.2-.56-2.15-1.71-1.43-1.67-2.11-2.71-2.11-3.07,0-1,.48-1.59,1.43-1.59a1.89,1.89,0,0,1,1.2.6c.47.4.71.75.71,1.07l1.63,1.95a2.65,2.65,0,0,1,.68,1.27C190.18,37.89,189.7,38.37,188.79,38.37Zm4-2.23a1.64,1.64,0,0,1-1.27-.72,9.69,9.69,0,0,0-1.79-1.79,1.72,1.72,0,0,1-.67-1.27c0-.91.47-1.39,1.51-1.39.55,0,1.27.52,2.14,1.47A4,4,0,0,1,194,34.83,1.14,1.14,0,0,1,192.8,36.14Z" transform="translate(83.59)"/><path class="cls-3" d="M223.94,40l-4,.83c.24,5.65.36,9.94.36,12.84,0,6.17-1.31,9.23-3.86,9.23a4.1,4.1,0,0,1-2.7-1.35c-1.23-1.15-1.83-2-1.83-2.71a1.54,1.54,0,0,1,.56-1.19,1.51,1.51,0,0,1,1-.52,2,2,0,0,1,1.55,1,4.52,4.52,0,0,0,1.27,1.31c.44-1,.68-4,.68-8.87,0-1.07-.12-4-.28-8.67a37.59,37.59,0,0,1-8.27,11.89c-3.3,3.34-5.33,5-6,5.09-1.12,0-1.67-.67-1.75-1.86.08-1.28.95-2.47,2.54-3.62a2.32,2.32,0,0,1,1.47-.44c4.06-3.9,6.92-7.6,8.51-11.06-4,.48-6.4.72-7.35.72-1.36,0-2-.56-2-1.67a1.49,1.49,0,0,1,1.59-1.71,90.79,90.79,0,0,0,11.33-1.27,27,27,0,0,0-.2-2.71,3.21,3.21,0,0,1,.56-2,1.91,1.91,0,0,1,1-.88c.88,0,1.4.2,1.63.52A2.13,2.13,0,0,1,220,34l0,1.55v1.75c.92-.16,2.35-.4,4.34-.79a1.78,1.78,0,0,1,2,1.35C226.33,39,225.53,39.68,223.94,40Z" transform="translate(83.59)"/><path class="cls-3" d="M274.56,33.91a54.21,54.21,0,0,0-2.35,16.46,52.8,52.8,0,0,0,.8,6.45c.08.55.12.83.12.87a1.44,1.44,0,0,1-1.63,1.63,1.63,1.63,0,0,1-1-.44,2.82,2.82,0,0,1-1.27-.91c-.16-.16-1.23-1.39-3.26-3.78-2.38-2.74-3.94-4.57-4.65-5.53a41,41,0,0,1-3.94-6,101.23,101.23,0,0,0-1.63,14.28h.36a2.14,2.14,0,0,1,.28,1,25.88,25.88,0,0,1-.84,5,1.33,1.33,0,0,1-1.35,1.19,1.6,1.6,0,0,1-1.11-.55,1.45,1.45,0,0,1-.56-1.12V59.16a119.08,119.08,0,0,1,2.63-21.79.92.92,0,0,1-.16-.56,1.87,1.87,0,0,1,.67-1.23,2,2,0,0,1,1.23-.67,1.62,1.62,0,0,1,1.68,1.67,4,4,0,0,1-.16.67c1.43,4.06,5.09,9.35,10.89,15.87-.16-2-.2-3.46-.2-4.46a55.78,55.78,0,0,1,.76-8.39,35.81,35.81,0,0,1,1.91-8.15,1.66,1.66,0,0,1,1.55-1.23,1.52,1.52,0,0,1,1.07.52,1.61,1.61,0,0,1,.48,1.11A6.5,6.5,0,0,1,274.56,33.91Z" transform="translate(83.59)"/><path class="cls-3" d="M299.33,55.82a12.45,12.45,0,0,1-9,3.58,13.09,13.09,0,0,1-8.63-3.06,10,10,0,0,1-4.1-8,12.47,12.47,0,0,1,3-8,21.4,21.4,0,0,1,7.16-5.44,2.13,2.13,0,0,1,1.51-1.44,12,12,0,0,1,2.15-.15,10.59,10.59,0,0,1,8.51,4A14.67,14.67,0,0,1,303,46.68,12.11,12.11,0,0,1,299.33,55.82Zm-6.16-19a1.68,1.68,0,0,1-.79.2,14.3,14.3,0,0,0-7.52,3.74c-2.66,2.31-4,4.61-4,7a7.09,7.09,0,0,0,3.14,6,10.64,10.64,0,0,0,6.72,2.11,8.82,8.82,0,0,0,9-9C299.77,41.47,297.54,38.13,293.17,36.85Z" transform="translate(83.59)"/><path class="cls-3" d="M323.71,56.7a22.27,22.27,0,0,1-6.08,2.62A99.22,99.22,0,0,1,308,61.91a1.39,1.39,0,0,1-1.11-.48,1.56,1.56,0,0,1-.44-1.15,1.65,1.65,0,0,1,.76-1.52,8.4,8.4,0,0,1,2-.51c0-.64,0-3.18,0-7.64v-7c0-.55,0-1.9.08-4.09s.08-3.22.08-3.3c-1,.12-1.59.16-1.67.16-1.27,0-1.86-.52-1.86-1.63a1.44,1.44,0,0,1,.59-1.39A3.66,3.66,0,0,1,308,33c4-.32,7.2-.52,9.67-.52a10.16,10.16,0,0,1,4.65,1,4.27,4.27,0,0,1,2.34,3.94c0,1.59-1,3.18-2.9,4.77a34.6,34.6,0,0,1-5.84,3.74A39.56,39.56,0,0,1,323.11,47q3.83,1.32,3.82,4.3A6.37,6.37,0,0,1,323.71,56.7Zm-3.62-7c-1.19-.2-3.74-.48-7.63-.84v8.39c7.39-2,11.13-3.81,11.13-5.48C323.59,50.89,322.4,50.18,320.09,49.7Zm-2.74-14c-.64,0-1.39,0-2.35.08-1.27.08-2,.12-2.31.12-.07,1.83-.11,3.3-.11,4.49v3.66c5.72-2.86,8.62-5.05,8.62-6.56C321.2,36.34,319.89,35.74,317.35,35.74Z" transform="translate(83.59)"/><path class="cls-3" d="M350.35,40.79c0,.08,0,.92,0,2.43v3.06a17.36,17.36,0,0,1-2.86,9.26c-2.19,3.54-4.77,5.29-7.72,5.29a7.4,7.4,0,0,1-6.91-4.25A18.24,18.24,0,0,1,331,47.71c0-1.07.08-2.7.24-4.85s.19-3.82.19-4.93c0-.24,0-.68,0-1.27a8.09,8.09,0,0,1-.08-1.24,1.29,1.29,0,0,1,.52-1,1.5,1.5,0,0,1,1-.4c1.27,0,1.9,1.07,1.9,3.14,0,.88-.12,2.83-.27,5.85s-.36,4.85-.36,5.49a11.56,11.56,0,0,0,1.83,6.87,4.44,4.44,0,0,0,3.74,2.31c2.38,0,4.33-1.55,5.84-4.69a20.89,20.89,0,0,0,1.95-9,52.14,52.14,0,0,0-.84-8.31c-.15-1-.39-2.3-.67-3.9a1.58,1.58,0,0,1,1.71-1.59,1.42,1.42,0,0,1,1.35,1A20.61,20.61,0,0,1,350.51,39,16.17,16.17,0,0,1,350.35,40.79Z" transform="translate(83.59)"/><path class="cls-3" d="M390.2,59.84a15.11,15.11,0,0,1-7.2,1.71,11.35,11.35,0,0,1-5.73-1.35,5.51,5.51,0,0,1-2.86-5.05q0-4.42,5.13-8.08a17.86,17.86,0,0,0-2-6.64,6.94,6.94,0,0,0-1.71-2.26c-2.11-.6-3.14-1.63-3.14-3.14a1.53,1.53,0,0,1,1.71-1.75c.87,0,1.95.63,3.18,1.86a19.58,19.58,0,0,1,4.89,10.14,21.71,21.71,0,0,0,3.22-1.78,7.68,7.68,0,0,0,2.51-2.43c.55-1.07,1.15-1.63,1.83-1.63,1,0,1.59.64,1.59,1.91,0,.95-1,2.26-2.95,3.89a40.39,40.39,0,0,1-4.61,3.11,51.5,51.5,0,0,0-4.61,3,4.75,4.75,0,0,0-1.91,3.94c0,2,1.83,2.94,5.57,2.94A11,11,0,0,0,389.92,56,2.06,2.06,0,0,1,391,55.5a1.5,1.5,0,0,1,1.63,1.71C392.66,58.09,391.83,59,390.2,59.84Z" transform="translate(83.59)"/><path class="cls-3" d="M411,53.4c-1,0-1.59-.72-1.79-2.23-.08-.64-.16-2.55-.19-5.73a1.89,1.89,0,0,1-.8-1.47,8.13,8.13,0,0,1,.64-1.87,2.21,2.21,0,0,1,1.94-1.55,1.16,1.16,0,0,1,.88.56,2.12,2.12,0,0,1,.36,1.23c-.08.64-.12,1.27-.16,1.91-.08,1.27-.12,2.19-.12,2.74a25.64,25.64,0,0,0,.36,4.5C412.11,52.76,411.71,53.4,411,53.4Zm26.69,5.05c-1.08,0-1.6-.48-1.6-1.44,0-3.1-1.27-5-3.81-5.68a14.15,14.15,0,0,1-3.34,6,8.12,8.12,0,0,1-6.09,2.83,11,11,0,0,1-4.73-.92c-1.87-.75-2.78-2-2.78-3.54,0-2,1.35-3.7,4.05-5.21a21.65,21.65,0,0,1,10.54-2.54c0-1.35-.12-3-.28-4.81a43.79,43.79,0,0,1-5.17.47,19.05,19.05,0,0,1-4.89-.59c-.71-.2-1.07-.8-1.07-1.79a1.39,1.39,0,0,1,.48-1,1.48,1.48,0,0,1,1.07-.47,20.7,20.7,0,0,0,4.57.55,38.48,38.48,0,0,0,3.9-.35l-1.15-1.59a2.68,2.68,0,0,1-.64-1.44c0-1,.48-1.55,1.47-1.55a1.81,1.81,0,0,1,1.31.8,23.73,23.73,0,0,1,2,3.34c1.59-.32,2.91-.56,3.94-.8.95,0,1.47.56,1.47,1.67S436,42,434.45,42.22l-1.86.32c.15,1.51.23,2.74.23,3.74,0,.24,0,.87,0,1.87a8.73,8.73,0,0,1,4.58,3A8.85,8.85,0,0,1,439,56.62C439,57.85,438.55,58.45,437.68,58.45ZM421,53.2a11.29,11.29,0,0,0-1.59,1.11c-.79.64-1.19,1.11-1.19,1.35s.52.52,1.55.8a9.29,9.29,0,0,0,2.75.44q4.35,0,6.68-5.85A17.93,17.93,0,0,0,421,53.2Z" transform="translate(83.59)"/><path class="cls-3" d="M469.85,44.41a13.9,13.9,0,0,1-6.53,2.74,20.53,20.53,0,0,1,.92,5.09c0,1.2-.56,1.75-1.59,1.75s-1.43-.51-1.55-1.63a26.36,26.36,0,0,0-1.12-5,5.1,5.1,0,0,1-.39-1.35c0-.91.59-1.47,1.87-1.63a13.8,13.8,0,0,0,5.48-1.71c1.79-1,2.71-2.35,2.71-3.86,0-2-1.67-3.06-4.93-3.06-.16,0-1.2.2-3.11.52a5.73,5.73,0,0,1-1.15.2,1.47,1.47,0,0,1-1.27-.56,1.78,1.78,0,0,1-.48-1.31,1.82,1.82,0,0,1,.72-1.35,2.46,2.46,0,0,1,1.47-.64s.4.12,1.07.32a14.42,14.42,0,0,1,3.18-.44,8.76,8.76,0,0,1,5.41,1.59,5.67,5.67,0,0,1,2.27,4.77A7,7,0,0,1,469.85,44.41Zm-5.49,16.86a2.87,2.87,0,0,1-2.11.72,1.63,1.63,0,0,1-1.19-.64,2.34,2.34,0,0,1-.52-1.55,2.66,2.66,0,0,1,.6-1.75,1.9,1.9,0,0,1,1.59-.8,3.16,3.16,0,0,1,1.63.52,2,2,0,0,1,.67,1.55A2.88,2.88,0,0,1,464.36,61.27Z" transform="translate(83.59)"/><path d="M93.66,92.74a3.82,3.82,0,0,1-5.65.07,21.45,21.45,0,0,1-3.32-4.15c-.92-1.43-1.7-2.9-2.52-4.43-.13,0-.19.19-.22.32a47.92,47.92,0,0,1-3.1,9c-.26.36-.46.71-.92.81s-1-.23-1.37-.62l-.32-.36a17.81,17.81,0,0,1-1.8-8.74,27,27,0,0,1,1.08-7,.49.49,0,0,1,.62-.29,1.1,1.1,0,0,1,.59.52.34.34,0,0,1,0,.45l-.13.17q-.09,0-.09.09a25,25,0,0,0-.92,5.91,18.11,18.11,0,0,0,1.31,7.63,2.44,2.44,0,0,0,.78,1c.26-.07.42-.52.59-.75a55.5,55.5,0,0,0,3.13-8.81,1.19,1.19,0,0,1,.68-.56.89.89,0,0,1,.79.27,35.23,35.23,0,0,0,5.51,8.35c2,2.08,4,1.69,5.25-.66a10.41,10.41,0,0,0,1-3.55,49.59,49.59,0,0,0,.75-6.89,55.93,55.93,0,0,0-.26-7.11.88.88,0,0,1,.36-.71.49.49,0,0,1,.52.42,65.61,65.61,0,0,1,.36,7.34,47.38,47.38,0,0,1-1,9A8.32,8.32,0,0,1,93.66,92.74Z" transform="translate(83.59)"/><path d="M107.39,93.75a1.54,1.54,0,0,1-.91-1.14c-.56-2.84-.65-5.87-1-8.78-.1-.88-1-1.07-1.54-.26a25.73,25.73,0,0,0-2.21,5.26A33.72,33.72,0,0,0,100.25,94a.63.63,0,0,1-.85.3,1.75,1.75,0,0,1-.26-.53L99,93.17a24.65,24.65,0,0,1-.62-7.25,37.19,37.19,0,0,1,1.27-8.22,18.15,18.15,0,0,1,1.53-3.82,2.84,2.84,0,0,1,1.57-1.24,1.74,1.74,0,0,1,1.17.4c.23.22.46.52.23.88a5.08,5.08,0,0,0-1-.26,1,1,0,0,0-.75.22,14.4,14.4,0,0,0-1.6,3.56,29.78,29.78,0,0,0-1,4.4,37,37,0,0,0-.42,6,28.18,28.18,0,0,0,.36,4,29.28,29.28,0,0,1,1.47-4.8,30,30,0,0,1,1.6-3.55,5.46,5.46,0,0,1,.35-.65,1.85,1.85,0,0,1,1.64-1,1.74,1.74,0,0,1,1.53,1,5.06,5.06,0,0,1,.36,1.7,76.44,76.44,0,0,0,.91,7.86c.07.13.16.16.2.13a10.84,10.84,0,0,0,1.46-2.12c.4-.72.79-1.47,1.21-2.25.1-.16.26-.1.36,0a.42.42,0,0,1,.16.39A16.55,16.55,0,0,1,108.8,93C108.53,93.33,108,94,107.39,93.75Z" transform="translate(83.59)"/><path d="M120,90.07c-.22-.69-.39-1.41-.55-2.12a14.17,14.17,0,0,1-4.11,6.13,2.13,2.13,0,0,1-2.38.26,2.82,2.82,0,0,1-1.31-2.15,9.29,9.29,0,0,1,.33-3.33,12.79,12.79,0,0,1,4.14-6.56,6.36,6.36,0,0,1,.88-.42,1.28,1.28,0,0,1,1,.06,3.19,3.19,0,0,1,1.63,1.83,3.6,3.6,0,0,1,.39,1.7,3.09,3.09,0,0,1,.3.71,17.59,17.59,0,0,0,.72,3.3c.55,1.73.88,3.06,2.21,4.37,0,.42-.48.36-.78.29C121,93.1,120.54,91.63,120,90.07Zm-2.28-7a1,1,0,0,0-.85.16,9.55,9.55,0,0,0-2.51,2.94,14.36,14.36,0,0,0-1.5,4.17,10.81,10.81,0,0,0-.06,1.5,2.38,2.38,0,0,0,.42,1.28,1.25,1.25,0,0,0,1.21.23,14,14,0,0,0,4.5-6.82,2.64,2.64,0,0,1,.32-1.08,7,7,0,0,0-.52-1.27A2.73,2.73,0,0,0,117.7,83Z" transform="translate(83.59)"/><path d="M136.92,90.2c-1.28,2.28-3.43,4.34-6.46,4.3a3.16,3.16,0,0,1-2.71-1.89,31.06,31.06,0,0,1-.39-8.91c-1,.23-1.93.59-2.94.88a1.09,1.09,0,0,1-1-.62.41.41,0,0,1,.45-.48,1.2,1.2,0,0,0,.69-.07c.72-.2,2.19-.65,2.9-.88l.56-5.06a2.28,2.28,0,0,1,.23-.81.57.57,0,0,1,.88-.17,2.61,2.61,0,0,1,.62.62l.16.2a4.74,4.74,0,0,1,.46.62,3.5,3.5,0,0,1,.39.78c-.62-.06-.85-.39-1.27-.71a.75.75,0,0,0-.3-.2,2.36,2.36,0,0,0-.16.55l-.1,1.21c-.06,1-.23,2-.33,2.68.76-.07,1.57-.23,2.35-.33a5.76,5.76,0,0,1,2.39.2c.26.19.06.58-.13.68-.66,0-1.51.1-2.35.2a11.66,11.66,0,0,0-2.35.45,34.29,34.29,0,0,0,.19,8.35,2,2,0,0,0,1.73,1.6A6.14,6.14,0,0,0,136,90.2c.22-.36.42-.69.65-1s.39-.68.55-1c.07-.16.23-.1.3-.07a.33.33,0,0,1,.16.23,2.69,2.69,0,0,1-.26,1C137.28,89.61,137.08,89.94,136.92,90.2Z" transform="translate(83.59)"/><path d="M153.69,94.5a2.16,2.16,0,0,1-1.38-.26,2.55,2.55,0,0,1-.81-1.66,36.54,36.54,0,0,1,0-8c-.46.85-.91,1.63-1.4,2.45a17,17,0,0,1-2,2.64,1.54,1.54,0,0,1-.65.33.6.6,0,0,1-.33-.1.22.22,0,0,1,0-.33,21,21,0,0,0,2.51-3.65c.72-1.27,1.34-2.54,2.15-3.78.17-.27.66-.13.88,0a1,1,0,0,1,.17.84c-.43,3.3-.79,7.7-.13,9.92a.94.94,0,0,0,.62.56,1.54,1.54,0,0,0,1-.46,5.34,5.34,0,0,0,.88-1.08,5.42,5.42,0,0,0,.29-.72,2,2,0,0,1,.49-.71.64.64,0,0,1,.23.65l-.13.59a4.45,4.45,0,0,1-1.07,2A2.82,2.82,0,0,1,153.69,94.5Zm.81-19.28A19.11,19.11,0,0,0,150.42,74c-.32,0-.36-.68,0-.94a7.55,7.55,0,0,1,5.12,2,.9.9,0,0,1,.36.85,4.23,4.23,0,0,1-.75-.33Z" transform="translate(83.59)"/><path d="M158.71,94.44a2.12,2.12,0,0,1-1.11-1,3.82,3.82,0,0,1,0-1.47,1.58,1.58,0,0,1,.49-.78.42.42,0,0,1,.26-.07.26.26,0,0,1,.2.2c0,.39-.16.88-.16,1.31s.09.58.42.68a3.62,3.62,0,0,0,1.79,0,8.4,8.4,0,0,0,4.28-1.89.59.59,0,0,0,.13-.59,2.58,2.58,0,0,0-1.31-.52c-.91-.23-1.86-.33-2.8-.49a5.61,5.61,0,0,1-2.06-.62,1.85,1.85,0,0,1-.62-2A11.43,11.43,0,0,1,161,83a4.76,4.76,0,0,1,2.32-1.15,2.13,2.13,0,0,1,1.14.36,1.76,1.76,0,0,1,.72,1.24.59.59,0,0,1-.43.49c-.16-.16-.26-.32-.39-.45a2.05,2.05,0,0,0-.42-.36,1,1,0,0,0-.66-.2,1.34,1.34,0,0,0-.84.33,9,9,0,0,0-2.26,2.61,7.84,7.84,0,0,0-.78,1.79.54.54,0,0,0,.13.62,1.65,1.65,0,0,0,.88.39l2.35.39a14.07,14.07,0,0,1,2.29.53,1.87,1.87,0,0,1,1.1,1,1.38,1.38,0,0,1,0,1.14,6.7,6.7,0,0,1-3.23,2.22A8.65,8.65,0,0,1,158.71,94.44Z" transform="translate(83.59)"/><path d="M186.47,78.22c-1.3,2-2.71,3.89-3.85,5.81a51.06,51.06,0,0,0-2.8,5.32,21,21,0,0,0-1.54,4.92c-.1.23-.58.17-.78-.16a3.36,3.36,0,0,1,.06-1.89c.23-.72.53-1.37.76-2.06a25.65,25.65,0,0,1,1.56-3.52c.59-1.08,1.24-2.12,1.93-3.26a19.07,19.07,0,0,1-4.34-5.94,9.8,9.8,0,0,1-.69-4c.1-.33.1-.56.36-.79s.42.14.52.33a10.78,10.78,0,0,0,.79,4,20.57,20.57,0,0,0,3.91,5.44c.91-1.46,2.19-3.13,3.07-4.6a27.16,27.16,0,0,1,2.35-3.49,1.88,1.88,0,0,1,1-.62.73.73,0,0,1,.49.2.3.3,0,0,1,.06.46,9.89,9.89,0,0,0-1.56,1.82Z" transform="translate(83.59)"/><path d="M192.9,94.57a3.4,3.4,0,0,1-2.38-2,7.8,7.8,0,0,1-.1-4.89,9.94,9.94,0,0,1,2.67-4.3,5.81,5.81,0,0,1,2.58-1.6.6.6,0,0,1,.62.29,2.79,2.79,0,0,1,1.14.49,4.07,4.07,0,0,1,1.31,1.63,7.74,7.74,0,0,1,.55,4.7,8.58,8.58,0,0,1-2,4.14A4.72,4.72,0,0,1,192.9,94.57Zm2.64-11.68a3.41,3.41,0,0,1-.49.32l-.46.3a7.69,7.69,0,0,0-3,4.14,8.08,8.08,0,0,0-.16,4.24,2.27,2.27,0,0,0,1.7,1.54,3.23,3.23,0,0,0,2.87-.75A6.54,6.54,0,0,0,198.12,89a8.75,8.75,0,0,0,.06-3.46,4,4,0,0,0-1.73-2.51A.7.7,0,0,0,195.54,82.89Z" transform="translate(83.59)"/><path d="M207.64,93.23c0,1.08,0,2.19,0,3.23a10.54,10.54,0,0,1-.55,3.07,4.45,4.45,0,0,1-2.09,2.25,2.82,2.82,0,0,1-2.29.23,2.66,2.66,0,0,1-1.4-1.51,5.15,5.15,0,0,1,1.21-3.65,18.08,18.08,0,0,1,4.11-4.08c0-2,.19-4.14.29-6.2l-1,1.41a8.15,8.15,0,0,1-1.44,1.53,2.53,2.53,0,0,1-2.18.49,2.29,2.29,0,0,1-1.31-2.22,7.78,7.78,0,0,1,1.44-3.85,7.2,7.2,0,0,1,1.73-1.76,2.26,2.26,0,0,1,1.66-.23,2.42,2.42,0,0,1,1.08,1,4.14,4.14,0,0,1,0,2.51,1.43,1.43,0,0,1,.49-.13.85.85,0,0,1,.65.52c.1.4-.1.82,0,1.21a49,49,0,0,0-.26,5c.16-.07.35-.2.55-.3s.46-.29.69-.42.26.39.13.59a5.38,5.38,0,0,1-.72.71C208.1,92.84,207.84,93,207.64,93.23Zm-3.16-10.08a7.37,7.37,0,0,0-2.09,3.13,3.85,3.85,0,0,0-.2,2.19,1,1,0,0,0,.62.55,1.59,1.59,0,0,0,1.28-.46,6.67,6.67,0,0,0,1.2-1.72c.13-.36.3-.72.43-1.11a4.33,4.33,0,0,0,.29-1.08,2.2,2.2,0,0,0-.16-1.37A1,1,0,0,0,204.48,83.15Zm-2.12,16.57a1.41,1.41,0,0,0,.42,1.08,1.48,1.48,0,0,0,1.24.26,3.77,3.77,0,0,0,2.12-2.32,8.09,8.09,0,0,0,.43-2.35c0-.78,0-1.59,0-2.34a16.78,16.78,0,0,0-3.19,3.45A5.67,5.67,0,0,0,202.36,99.72Z" transform="translate(83.59)"/><path d="M218.86,90.07c-.22-.69-.39-1.41-.55-2.12a14.26,14.26,0,0,1-4.11,6.13,2.13,2.13,0,0,1-2.38.26,2.82,2.82,0,0,1-1.31-2.15,9.29,9.29,0,0,1,.33-3.33A12.79,12.79,0,0,1,215,82.3a6.36,6.36,0,0,1,.88-.42,1.28,1.28,0,0,1,1,.06,3.19,3.19,0,0,1,1.63,1.83,3.6,3.6,0,0,1,.39,1.7,3.09,3.09,0,0,1,.3.71,17.59,17.59,0,0,0,.72,3.3c.55,1.73.88,3.06,2.21,4.37,0,.42-.48.36-.78.29C219.88,93.1,219.42,91.63,218.86,90.07Zm-2.28-7a1,1,0,0,0-.85.16,9.55,9.55,0,0,0-2.51,2.94,14.36,14.36,0,0,0-1.5,4.17,10.81,10.81,0,0,0-.06,1.5,2.38,2.38,0,0,0,.42,1.28,1.25,1.25,0,0,0,1.21.23,14,14,0,0,0,4.5-6.82,2.64,2.64,0,0,1,.32-1.08,7,7,0,0,0-.52-1.27A2.73,2.73,0,0,0,216.58,83Z" transform="translate(83.59)"/><path d="M237.72,94.14a9.2,9.2,0,0,1-4.44.17,2.08,2.08,0,0,1-1.2-1.08,3.56,3.56,0,0,1,.75-2.94c.19-.19.45.13.45.23,0,.26-.13.56-.19.85a3.82,3.82,0,0,0-.13.88,1,1,0,0,0,.52,1.08,7.85,7.85,0,0,0,4-.2,12,12,0,0,0,4.11-2.25A8.16,8.16,0,0,0,244,88a.94.94,0,0,0-.29-.78,34.33,34.33,0,0,0-4.76-1.76c-1.86-.62-3.79-1.08-5.58-1.86a2.08,2.08,0,0,1-1.08-2,6,6,0,0,1,.65-1.47c.3-.46.62-.91.88-1.4.56-.72,1.15-1.57,1.77-2.38a14.88,14.88,0,0,1,2.08-2.25,5.87,5.87,0,0,1,2.61-1.31,3.82,3.82,0,0,1,1.57.26,3.42,3.42,0,0,1,1.47,1.18c.1.19,0,.52-.26.52a4,4,0,0,0-1.6-.85,2.41,2.41,0,0,0-1.5,0,4.61,4.61,0,0,0-1.54.88,10.87,10.87,0,0,0-1.46,1.57c-.46.59-.85,1.17-1.31,1.7a20.1,20.1,0,0,0-2.18,3.52,1,1,0,0,0,.19.88,12.12,12.12,0,0,0,3.23,1.17,57.41,57.41,0,0,1,7.57,2.74,1.72,1.72,0,0,1,.78,1.21,5.46,5.46,0,0,1-1.89,3.1A13,13,0,0,1,237.72,94.14Z" transform="translate(83.59)"/><path d="M259.38,90.2c-1.27,2.28-3.42,4.34-6.46,4.3a3.15,3.15,0,0,1-2.7-1.89,31.06,31.06,0,0,1-.4-8.91c-1,.23-1.92.59-2.93.88a1.11,1.11,0,0,1-1-.62.42.42,0,0,1,.46-.48,1.21,1.21,0,0,0,.69-.07c.71-.2,2.18-.65,2.9-.88l.55-5.06a2.51,2.51,0,0,1,.23-.81.57.57,0,0,1,.88-.17,2.44,2.44,0,0,1,.62.62l.17.2a4.68,4.68,0,0,1,.45.62,3.5,3.5,0,0,1,.39.78c-.62-.06-.84-.39-1.27-.71a.72.72,0,0,0-.29-.2,2,2,0,0,0-.16.55l-.1,1.21c-.07,1-.23,2-.33,2.68.75-.07,1.57-.23,2.35-.33a5.72,5.72,0,0,1,2.38.2c.26.19.07.58-.13.68-.65,0-1.5.1-2.35.2a11.94,11.94,0,0,0-2.35.45,34.29,34.29,0,0,0,.2,8.35,2,2,0,0,0,1.73,1.6,6.11,6.11,0,0,0,5.64-3.19c.23-.36.43-.69.65-1s.4-.68.56-1c.06-.16.23-.1.29-.07a.31.31,0,0,1,.17.23,2.53,2.53,0,0,1-.27,1A8.62,8.62,0,0,1,259.38,90.2Z" transform="translate(83.59)"/><path d="M271.45,93.56a2.91,2.91,0,0,1-1.6-1.37,16.43,16.43,0,0,1-.65-5.91,19.87,19.87,0,0,1-2.41,5.35A9.29,9.29,0,0,1,264.37,94a2.17,2.17,0,0,1-2.38-.16,3.45,3.45,0,0,1-.81-2.54c0-1.31.16-2.58.26-3.85a35.29,35.29,0,0,0,.16-5.55c.52-.36.95.16,1.08.49a29.35,29.35,0,0,1-.17,5.15,32.54,32.54,0,0,0-.19,4.41,1.35,1.35,0,0,0,.88,1.17,2,2,0,0,0,1.57-.62,7.19,7.19,0,0,0,.81-.91c.23-.33.46-.69.69-1a13.46,13.46,0,0,0,1.56-3.13c.56-1.4.95-2.91,1.4-4.37a.24.24,0,0,0,.07-.13c.1-.17.2-.36.42-.36a.48.48,0,0,1,.56.39c-.07,1.43-.16,3.13-.13,4.66a13,13,0,0,0,.45,3.79,3.36,3.36,0,0,0,1.18,1.63c.13.1,0,.26,0,.33A.55.55,0,0,1,271.45,93.56Z" transform="translate(83.59)"/><path d="M280.78,89.45c-.19-1.18-.16-2.42-.29-3.66A28.59,28.59,0,0,1,277.1,93a3,3,0,0,1-2.52,1.53,2.35,2.35,0,0,1-1.76-1.17,8.71,8.71,0,0,1-.32-4.28,12.9,12.9,0,0,1,1.92-5c.69-1.11,1.8-2.19,3.17-2.09a2.91,2.91,0,0,1,2.05,1,2.78,2.78,0,0,1,.49,1.08,6.85,6.85,0,0,0,.39-2.06c.07-1,.07-2,.2-3.06s.26-2,.39-3a17.15,17.15,0,0,1,.59-2.9c.36-.55.94,0,.91.33-.36,2.77-.91,5.45-1,8.28a37,37,0,0,0,.49,8.94,4.66,4.66,0,0,0,.39,1,2.94,2.94,0,0,1,.13.39.69.69,0,0,1-.85-.16A5.11,5.11,0,0,1,280.78,89.45Zm-1.89-5.52a1.63,1.63,0,0,0-1-.78,1.46,1.46,0,0,0-1.27.16,8.36,8.36,0,0,0-1.5,1.76,14.46,14.46,0,0,0-1.6,4.7c0,.43,0,.88,0,1.34a3.85,3.85,0,0,0,.19,1.27,1.47,1.47,0,0,0,.75,1c.62.19,1.14-.16,1.6-.72a21.65,21.65,0,0,0,3.3-6.36.57.57,0,0,1-.27-.46A4.49,4.49,0,0,0,278.89,83.93Z" transform="translate(83.59)"/><path d="M290.08,94.5a2.13,2.13,0,0,1-1.37-.26,2.51,2.51,0,0,1-.81-1.66,36.54,36.54,0,0,1,0-8c-.46.85-.92,1.63-1.41,2.45a16.31,16.31,0,0,1-1.95,2.64,1.58,1.58,0,0,1-.66.33.55.55,0,0,1-.32-.1.22.22,0,0,1,0-.33A20.5,20.5,0,0,0,286,85.89c.71-1.27,1.33-2.54,2.15-3.78.16-.27.65-.13.88,0a1,1,0,0,1,.16.84c-.42,3.3-.78,7.7-.13,9.92a1,1,0,0,0,.62.56,1.56,1.56,0,0,0,1-.46,5.7,5.7,0,0,0,.88-1.08,7.22,7.22,0,0,0,.29-.72,2,2,0,0,1,.49-.71.64.64,0,0,1,.23.65l-.13.59a4.48,4.48,0,0,1-1.08,2A2.82,2.82,0,0,1,290.08,94.5Zm.82-19.28A19.46,19.46,0,0,0,286.82,74c-.33,0-.36-.68,0-.94a7.59,7.59,0,0,1,5.12,2,.94.94,0,0,1,.36.85,3.93,3.93,0,0,1-.75-.33Z" transform="translate(83.59)"/><path d="M296.9,94.57a3.4,3.4,0,0,1-2.38-2,7.8,7.8,0,0,1-.1-4.89,9.94,9.94,0,0,1,2.67-4.3,5.87,5.87,0,0,1,2.58-1.6.6.6,0,0,1,.62.29,2.73,2.73,0,0,1,1.14.49,4.07,4.07,0,0,1,1.31,1.63,7.74,7.74,0,0,1,.55,4.7A8.58,8.58,0,0,1,301.24,93,4.71,4.71,0,0,1,296.9,94.57Zm2.64-11.68a2.94,2.94,0,0,1-.49.32l-.45.3a7.65,7.65,0,0,0-3,4.14,8.08,8.08,0,0,0-.16,4.24,2.27,2.27,0,0,0,1.7,1.54,3.23,3.23,0,0,0,2.87-.75A6.48,6.48,0,0,0,302.12,89a8.75,8.75,0,0,0,.06-3.46,4,4,0,0,0-1.72-2.51A.71.71,0,0,0,299.54,82.89Z" transform="translate(83.59)"/><path d="M327.4,84.58a57.72,57.72,0,0,0-.78,9.53.52.52,0,0,1-.43.39.6.6,0,0,1-.68-.49,57.88,57.88,0,0,0-2.28-8.22,34,34,0,0,0-5-9.56,2.65,2.65,0,0,1-.42-.58c-2,4.69-2.35,12.59-1.89,17.45,0,.29-.36.39-.52.26a1.11,1.11,0,0,1-.49-.72l-.2-.91a53.14,53.14,0,0,1,.59-11.48,21.55,21.55,0,0,1,2.51-7c.62,0,.75.79.62,1.11l-.29.49a1.67,1.67,0,0,1,.68.43c1.7,1.63,4.37,6.95,5.38,9.85.56,1.57,1.11,3.13,1.54,4.76a56.94,56.94,0,0,1,1.5-10.08,18.25,18.25,0,0,1,2.48-5.64,3.69,3.69,0,0,1,1.76-1.5.44.44,0,0,1,.13.62,10,10,0,0,0-2,3.16A28.38,28.38,0,0,0,327.4,84.58Z" transform="translate(83.59)"/><path d="M344.27,93.62a9.24,9.24,0,0,1-4.6.78,8.31,8.31,0,0,1-3.92-1.27,6.66,6.66,0,0,1-2.64-3.68,9.85,9.85,0,0,1-.06-4.77,19.54,19.54,0,0,1,3.39-7.34,19.25,19.25,0,0,1,5-4.63,1,1,0,0,1,1,.49,12.87,12.87,0,0,1,4.63,4,13.12,13.12,0,0,1,2.42,8.35,10,10,0,0,1-1.7,5A8.7,8.7,0,0,1,344.27,93.62Zm-2.78-19.7a20,20,0,0,0-4.24,4.17,17.2,17.2,0,0,0-2.87,6.14,9.57,9.57,0,0,0-.29,4.5,5.54,5.54,0,0,0,2.54,3.68,7.14,7.14,0,0,0,3.72,1,7.82,7.82,0,0,0,4.21-1.17,8.38,8.38,0,0,0,2.84-3,10,10,0,0,0,1-5.84A13.68,13.68,0,0,0,346,77.64,10.39,10.39,0,0,0,341.49,73.92Z" transform="translate(83.59)"/><path d="M360.16,92.48a18.57,18.57,0,0,1-6.59,2.45c-.3,0-.72-.13-.82-.56a41.11,41.11,0,0,1-.62-10.44,29.1,29.1,0,0,1,2.28-9.65,4.47,4.47,0,0,0-.58.35l-.72.66c-.29.13-.43-.23-.43-.43a2.2,2.2,0,0,1,1.41-1.56l.62-.3a8.85,8.85,0,0,1,4.89-.09,3.55,3.55,0,0,1,2,1.82,4.54,4.54,0,0,1-.1,3.75,9.62,9.62,0,0,1-2.45,3,8.45,8.45,0,0,1,3.33.16,4.14,4.14,0,0,1,2.35,1.89,4.73,4.73,0,0,1-.1,4.34A15.64,15.64,0,0,1,360.16,92.48Zm1-10A8.19,8.19,0,0,0,355.56,84c-.62.45-1.11-.43-.79-.82.49-.32,1-.59,1.5-.88a9.48,9.48,0,0,0,1.41-.91,11.49,11.49,0,0,0,2.64-2.94,4.1,4.1,0,0,0,.42-2.77,2.44,2.44,0,0,0-1.43-1.7,8.94,8.94,0,0,0-3.62-.13,30.75,30.75,0,0,0-2.42,10.34,39.92,39.92,0,0,0,.52,9.66,18.46,18.46,0,0,0,5.62-2.19,12.33,12.33,0,0,0,4.46-5,3.11,3.11,0,0,0-.22-2.74A3.63,3.63,0,0,0,361.2,82.53Z" transform="translate(83.59)"/><path d="M378.23,83.15c0-.78.06-1.57.06-2.35a58.45,58.45,0,0,1-2.08,5.74,36.93,36.93,0,0,1-3.14,5.65,6.05,6.05,0,0,1-1.76,1.69,3.09,3.09,0,0,1-2.12.46,3.36,3.36,0,0,1-2-2.28c-.29-1-.39-2.09-.65-3.07a39.92,39.92,0,0,1-.1-7.41,29.29,29.29,0,0,1,1.79-8.22,1.58,1.58,0,0,1,.66-.72.46.46,0,0,1,.55.33,4.26,4.26,0,0,1-.33,1.11,9.09,9.09,0,0,0-.35,1.08A36.77,36.77,0,0,0,367.53,82a37.76,37.76,0,0,0,.06,6.29,15.76,15.76,0,0,0,.79,3.79,2,2,0,0,0,1,1.17,2.14,2.14,0,0,0,1.83-.55,9,9,0,0,0,.85-.89l.68-.94a29,29,0,0,0,3-5.48,70.79,70.79,0,0,0,2.9-8.61.61.61,0,0,1,.56-.3.7.7,0,0,1,.49.49,52,52,0,0,0-.33,7.54,28.88,28.88,0,0,0,.91,6.39c.07.29-.29.29-.35.2-1.21-1.44-1.28-3.2-1.54-5A18.12,18.12,0,0,1,378.23,83.15Z" transform="translate(83.59)"/><path d="M386.71,88.17a.36.36,0,0,1-.52-.09,1.84,1.84,0,0,1,.06-1c.07-.29.17-.52.26-.82,1.11-2,2.48-3.94,3.69-5.9a3.92,3.92,0,0,0,.49-2.25,3,3,0,0,0-.65-1.67,6.29,6.29,0,0,0-2.84-2.08,4.17,4.17,0,0,0-2.28-.17,2.83,2.83,0,0,0-1.44.75,3.4,3.4,0,0,0-1,1.44.41.41,0,0,1-.65-.13,2.1,2.1,0,0,1,.2-1.18,4.31,4.31,0,0,1,2.25-1.92,4.93,4.93,0,0,1,2.38-.2,6.45,6.45,0,0,1,2.58,1.11,7.12,7.12,0,0,1,2,2.16,4.22,4.22,0,0,1,.59,2.38,3.75,3.75,0,0,1-.46,1.89C389.88,83.05,388.11,85.53,386.71,88.17Zm.26,5.91a5,5,0,0,1-1.89-1.6,1.09,1.09,0,0,1-.1-.78.4.4,0,0,1,.59-.3l.78.85a6.38,6.38,0,0,0,3.46,1.86c.1.23-.26.46-.49.52A5.27,5.27,0,0,1,387,94.08Z" transform="translate(83.59)"/><path class="cls-4" d="M93.66,92.74a3.82,3.82,0,0,1-5.65.07,21.45,21.45,0,0,1-3.32-4.15c-.92-1.43-1.7-2.9-2.52-4.43-.13,0-.19.19-.22.32a47.92,47.92,0,0,1-3.1,9c-.26.36-.46.71-.92.81s-1-.23-1.37-.62l-.32-.36a17.81,17.81,0,0,1-1.8-8.74,27,27,0,0,1,1.08-7,.49.49,0,0,1,.62-.29,1.1,1.1,0,0,1,.59.52.34.34,0,0,1,0,.45l-.13.17q-.09,0-.09.09a25,25,0,0,0-.92,5.91,18.11,18.11,0,0,0,1.31,7.63,2.44,2.44,0,0,0,.78,1c.26-.07.42-.52.59-.75a55.5,55.5,0,0,0,3.13-8.81,1.19,1.19,0,0,1,.68-.56.89.89,0,0,1,.79.27,35.23,35.23,0,0,0,5.51,8.35c2,2.08,4,1.69,5.25-.66a10.41,10.41,0,0,0,1-3.55,49.59,49.59,0,0,0,.75-6.89,55.93,55.93,0,0,0-.26-7.11.88.88,0,0,1,.36-.71.49.49,0,0,1,.52.42,65.61,65.61,0,0,1,.36,7.34,47.38,47.38,0,0,1-1,9A8.32,8.32,0,0,1,93.66,92.74Z" transform="translate(83.59)"/><path class="cls-4" d="M107.39,93.75a1.54,1.54,0,0,1-.91-1.14c-.56-2.84-.65-5.87-1-8.78-.1-.88-1-1.07-1.54-.26a25.73,25.73,0,0,0-2.21,5.26A33.72,33.72,0,0,0,100.25,94a.63.63,0,0,1-.85.3,1.75,1.75,0,0,1-.26-.53L99,93.17a24.65,24.65,0,0,1-.62-7.25,37.19,37.19,0,0,1,1.27-8.22,18.15,18.15,0,0,1,1.53-3.82,2.84,2.84,0,0,1,1.57-1.24,1.74,1.74,0,0,1,1.17.4c.23.22.46.52.23.88a5.08,5.08,0,0,0-1-.26,1,1,0,0,0-.75.22,14.4,14.4,0,0,0-1.6,3.56,29.78,29.78,0,0,0-1,4.4,37,37,0,0,0-.42,6,28.18,28.18,0,0,0,.36,4,29.28,29.28,0,0,1,1.47-4.8,30,30,0,0,1,1.6-3.55,5.46,5.46,0,0,1,.35-.65,1.85,1.85,0,0,1,1.64-1,1.74,1.74,0,0,1,1.53,1,5.06,5.06,0,0,1,.36,1.7,76.44,76.44,0,0,0,.91,7.86c.07.13.16.16.2.13a10.84,10.84,0,0,0,1.46-2.12c.4-.72.79-1.47,1.21-2.25.1-.16.26-.1.36,0a.42.42,0,0,1,.16.39A16.55,16.55,0,0,1,108.8,93C108.53,93.33,108,94,107.39,93.75Z" transform="translate(83.59)"/><path class="cls-4" d="M120,90.07c-.22-.69-.39-1.41-.55-2.12a14.17,14.17,0,0,1-4.11,6.13,2.13,2.13,0,0,1-2.38.26,2.82,2.82,0,0,1-1.31-2.15,9.29,9.29,0,0,1,.33-3.33,12.79,12.79,0,0,1,4.14-6.56,6.36,6.36,0,0,1,.88-.42,1.28,1.28,0,0,1,1,.06,3.19,3.19,0,0,1,1.63,1.83,3.6,3.6,0,0,1,.39,1.7,3.09,3.09,0,0,1,.3.71,17.59,17.59,0,0,0,.72,3.3c.55,1.73.88,3.06,2.21,4.37,0,.42-.48.36-.78.29C121,93.1,120.54,91.63,120,90.07Zm-2.28-7a1,1,0,0,0-.85.16,9.55,9.55,0,0,0-2.51,2.94,14.36,14.36,0,0,0-1.5,4.17,10.81,10.81,0,0,0-.06,1.5,2.38,2.38,0,0,0,.42,1.28,1.25,1.25,0,0,0,1.21.23,14,14,0,0,0,4.5-6.82,2.64,2.64,0,0,1,.32-1.08,7,7,0,0,0-.52-1.27A2.73,2.73,0,0,0,117.7,83Z" transform="translate(83.59)"/><path class="cls-4" d="M136.92,90.2c-1.28,2.28-3.43,4.34-6.46,4.3a3.16,3.16,0,0,1-2.71-1.89,31.06,31.06,0,0,1-.39-8.91c-1,.23-1.93.59-2.94.88a1.09,1.09,0,0,1-1-.62.41.41,0,0,1,.45-.48,1.2,1.2,0,0,0,.69-.07c.72-.2,2.19-.65,2.9-.88l.56-5.06a2.28,2.28,0,0,1,.23-.81.57.57,0,0,1,.88-.17,2.61,2.61,0,0,1,.62.62l.16.2a4.74,4.74,0,0,1,.46.62,3.5,3.5,0,0,1,.39.78c-.62-.06-.85-.39-1.27-.71a.75.75,0,0,0-.3-.2,2.36,2.36,0,0,0-.16.55l-.1,1.21c-.06,1-.23,2-.33,2.68.76-.07,1.57-.23,2.35-.33a5.76,5.76,0,0,1,2.39.2c.26.19.06.58-.13.68-.66,0-1.51.1-2.35.2a11.66,11.66,0,0,0-2.35.45,34.29,34.29,0,0,0,.19,8.35,2,2,0,0,0,1.73,1.6A6.14,6.14,0,0,0,136,90.2c.22-.36.42-.69.65-1s.39-.68.55-1c.07-.16.23-.1.3-.07a.33.33,0,0,1,.16.23,2.69,2.69,0,0,1-.26,1C137.28,89.61,137.08,89.94,136.92,90.2Z" transform="translate(83.59)"/><path class="cls-4" d="M153.69,94.5a2.16,2.16,0,0,1-1.38-.26,2.55,2.55,0,0,1-.81-1.66,36.54,36.54,0,0,1,0-8c-.46.85-.91,1.63-1.4,2.45a17,17,0,0,1-2,2.64,1.54,1.54,0,0,1-.65.33.6.6,0,0,1-.33-.1.22.22,0,0,1,0-.33,21,21,0,0,0,2.51-3.65c.72-1.27,1.34-2.54,2.15-3.78.17-.27.66-.13.88,0a1,1,0,0,1,.17.84c-.43,3.3-.79,7.7-.13,9.92a.94.94,0,0,0,.62.56,1.54,1.54,0,0,0,1-.46,5.34,5.34,0,0,0,.88-1.08,5.42,5.42,0,0,0,.29-.72,2,2,0,0,1,.49-.71.64.64,0,0,1,.23.65l-.13.59a4.45,4.45,0,0,1-1.07,2A2.82,2.82,0,0,1,153.69,94.5Zm.81-19.28A19.11,19.11,0,0,0,150.42,74c-.32,0-.36-.68,0-.94a7.55,7.55,0,0,1,5.12,2,.9.9,0,0,1,.36.85,4.23,4.23,0,0,1-.75-.33Z" transform="translate(83.59)"/><path class="cls-4" d="M158.71,94.44a2.12,2.12,0,0,1-1.11-1,3.82,3.82,0,0,1,0-1.47,1.58,1.58,0,0,1,.49-.78.42.42,0,0,1,.26-.07.26.26,0,0,1,.2.2c0,.39-.16.88-.16,1.31s.09.58.42.68a3.62,3.62,0,0,0,1.79,0,8.4,8.4,0,0,0,4.28-1.89.59.59,0,0,0,.13-.59,2.58,2.58,0,0,0-1.31-.52c-.91-.23-1.86-.33-2.8-.49a5.61,5.61,0,0,1-2.06-.62,1.85,1.85,0,0,1-.62-2A11.43,11.43,0,0,1,161,83a4.76,4.76,0,0,1,2.32-1.15,2.13,2.13,0,0,1,1.14.36,1.76,1.76,0,0,1,.72,1.24.59.59,0,0,1-.43.49c-.16-.16-.26-.32-.39-.45a2.05,2.05,0,0,0-.42-.36,1,1,0,0,0-.66-.2,1.34,1.34,0,0,0-.84.33,9,9,0,0,0-2.26,2.61,7.84,7.84,0,0,0-.78,1.79.54.54,0,0,0,.13.62,1.65,1.65,0,0,0,.88.39l2.35.39a14.07,14.07,0,0,1,2.29.53,1.87,1.87,0,0,1,1.1,1,1.38,1.38,0,0,1,0,1.14,6.7,6.7,0,0,1-3.23,2.22A8.65,8.65,0,0,1,158.71,94.44Z" transform="translate(83.59)"/><path class="cls-4" d="M186.47,78.22c-1.3,2-2.71,3.89-3.85,5.81a51.06,51.06,0,0,0-2.8,5.32,21,21,0,0,0-1.54,4.92c-.1.23-.58.17-.78-.16a3.36,3.36,0,0,1,.06-1.89c.23-.72.53-1.37.76-2.06a25.65,25.65,0,0,1,1.56-3.52c.59-1.08,1.24-2.12,1.93-3.26a19.07,19.07,0,0,1-4.34-5.94,9.8,9.8,0,0,1-.69-4c.1-.33.1-.56.36-.79s.42.14.52.33a10.78,10.78,0,0,0,.79,4,20.57,20.57,0,0,0,3.91,5.44c.91-1.46,2.19-3.13,3.07-4.6a27.16,27.16,0,0,1,2.35-3.49,1.88,1.88,0,0,1,1-.62.73.73,0,0,1,.49.2.3.3,0,0,1,.06.46,9.89,9.89,0,0,0-1.56,1.82Z" transform="translate(83.59)"/><path class="cls-4" d="M192.9,94.57a3.4,3.4,0,0,1-2.38-2,7.8,7.8,0,0,1-.1-4.89,9.94,9.94,0,0,1,2.67-4.3,5.81,5.81,0,0,1,2.58-1.6.6.6,0,0,1,.62.29,2.79,2.79,0,0,1,1.14.49,4.07,4.07,0,0,1,1.31,1.63,7.74,7.74,0,0,1,.55,4.7,8.58,8.58,0,0,1-2,4.14A4.72,4.72,0,0,1,192.9,94.57Zm2.64-11.68a3.41,3.41,0,0,1-.49.32l-.46.3a7.69,7.69,0,0,0-3,4.14,8.08,8.08,0,0,0-.16,4.24,2.27,2.27,0,0,0,1.7,1.54,3.23,3.23,0,0,0,2.87-.75A6.54,6.54,0,0,0,198.12,89a8.75,8.75,0,0,0,.06-3.46,4,4,0,0,0-1.73-2.51A.7.7,0,0,0,195.54,82.89Z" transform="translate(83.59)"/><path class="cls-4" d="M207.64,93.23c0,1.08,0,2.19,0,3.23a10.54,10.54,0,0,1-.55,3.07,4.45,4.45,0,0,1-2.09,2.25,2.82,2.82,0,0,1-2.29.23,2.66,2.66,0,0,1-1.4-1.51,5.15,5.15,0,0,1,1.21-3.65,18.08,18.08,0,0,1,4.11-4.08c0-2,.19-4.14.29-6.2l-1,1.41a8.15,8.15,0,0,1-1.44,1.53,2.53,2.53,0,0,1-2.18.49,2.29,2.29,0,0,1-1.31-2.22,7.78,7.78,0,0,1,1.44-3.85,7.2,7.2,0,0,1,1.73-1.76,2.26,2.26,0,0,1,1.66-.23,2.42,2.42,0,0,1,1.08,1,4.14,4.14,0,0,1,0,2.51,1.43,1.43,0,0,1,.49-.13.85.85,0,0,1,.65.52c.1.4-.1.82,0,1.21a49,49,0,0,0-.26,5c.16-.07.35-.2.55-.3s.46-.29.69-.42.26.39.13.59a5.38,5.38,0,0,1-.72.71C208.1,92.84,207.84,93,207.64,93.23Zm-3.16-10.08a7.37,7.37,0,0,0-2.09,3.13,3.85,3.85,0,0,0-.2,2.19,1,1,0,0,0,.62.55,1.59,1.59,0,0,0,1.28-.46,6.67,6.67,0,0,0,1.2-1.72c.13-.36.3-.72.43-1.11a4.33,4.33,0,0,0,.29-1.08,2.2,2.2,0,0,0-.16-1.37A1,1,0,0,0,204.48,83.15Zm-2.12,16.57a1.41,1.41,0,0,0,.42,1.08,1.48,1.48,0,0,0,1.24.26,3.77,3.77,0,0,0,2.12-2.32,8.09,8.09,0,0,0,.43-2.35c0-.78,0-1.59,0-2.34a16.78,16.78,0,0,0-3.19,3.45A5.67,5.67,0,0,0,202.36,99.72Z" transform="translate(83.59)"/><path class="cls-4" d="M218.86,90.07c-.22-.69-.39-1.41-.55-2.12a14.26,14.26,0,0,1-4.11,6.13,2.13,2.13,0,0,1-2.38.26,2.82,2.82,0,0,1-1.31-2.15,9.29,9.29,0,0,1,.33-3.33A12.79,12.79,0,0,1,215,82.3a6.36,6.36,0,0,1,.88-.42,1.28,1.28,0,0,1,1,.06,3.19,3.19,0,0,1,1.63,1.83,3.6,3.6,0,0,1,.39,1.7,3.09,3.09,0,0,1,.3.71,17.59,17.59,0,0,0,.72,3.3c.55,1.73.88,3.06,2.21,4.37,0,.42-.48.36-.78.29C219.88,93.1,219.42,91.63,218.86,90.07Zm-2.28-7a1,1,0,0,0-.85.16,9.55,9.55,0,0,0-2.51,2.94,14.36,14.36,0,0,0-1.5,4.17,10.81,10.81,0,0,0-.06,1.5,2.38,2.38,0,0,0,.42,1.28,1.25,1.25,0,0,0,1.21.23,14,14,0,0,0,4.5-6.82,2.64,2.64,0,0,1,.32-1.08,7,7,0,0,0-.52-1.27A2.73,2.73,0,0,0,216.58,83Z" transform="translate(83.59)"/><path class="cls-4" d="M237.72,94.14a9.2,9.2,0,0,1-4.44.17,2.08,2.08,0,0,1-1.2-1.08,3.56,3.56,0,0,1,.75-2.94c.19-.19.45.13.45.23,0,.26-.13.56-.19.85a3.82,3.82,0,0,0-.13.88,1,1,0,0,0,.52,1.08,7.85,7.85,0,0,0,4-.2,12,12,0,0,0,4.11-2.25A8.16,8.16,0,0,0,244,88a.94.94,0,0,0-.29-.78,34.33,34.33,0,0,0-4.76-1.76c-1.86-.62-3.79-1.08-5.58-1.86a2.08,2.08,0,0,1-1.08-2,6,6,0,0,1,.65-1.47c.3-.46.62-.91.88-1.4.56-.72,1.15-1.57,1.77-2.38a14.88,14.88,0,0,1,2.08-2.25,5.87,5.87,0,0,1,2.61-1.31,3.82,3.82,0,0,1,1.57.26,3.42,3.42,0,0,1,1.47,1.18c.1.19,0,.52-.26.52a4,4,0,0,0-1.6-.85,2.41,2.41,0,0,0-1.5,0,4.61,4.61,0,0,0-1.54.88,10.87,10.87,0,0,0-1.46,1.57c-.46.59-.85,1.17-1.31,1.7a20.1,20.1,0,0,0-2.18,3.52,1,1,0,0,0,.19.88,12.12,12.12,0,0,0,3.23,1.17,57.41,57.41,0,0,1,7.57,2.74,1.72,1.72,0,0,1,.78,1.21,5.46,5.46,0,0,1-1.89,3.1A13,13,0,0,1,237.72,94.14Z" transform="translate(83.59)"/><path class="cls-4" d="M259.38,90.2c-1.27,2.28-3.42,4.34-6.46,4.3a3.15,3.15,0,0,1-2.7-1.89,31.06,31.06,0,0,1-.4-8.91c-1,.23-1.92.59-2.93.88a1.11,1.11,0,0,1-1-.62.42.42,0,0,1,.46-.48,1.21,1.21,0,0,0,.69-.07c.71-.2,2.18-.65,2.9-.88l.55-5.06a2.51,2.51,0,0,1,.23-.81.57.57,0,0,1,.88-.17,2.44,2.44,0,0,1,.62.62l.17.2a4.68,4.68,0,0,1,.45.62,3.5,3.5,0,0,1,.39.78c-.62-.06-.84-.39-1.27-.71a.72.72,0,0,0-.29-.2,2,2,0,0,0-.16.55l-.1,1.21c-.07,1-.23,2-.33,2.68.75-.07,1.57-.23,2.35-.33a5.72,5.72,0,0,1,2.38.2c.26.19.07.58-.13.68-.65,0-1.5.1-2.35.2a11.94,11.94,0,0,0-2.35.45,34.29,34.29,0,0,0,.2,8.35,2,2,0,0,0,1.73,1.6,6.11,6.11,0,0,0,5.64-3.19c.23-.36.43-.69.65-1s.4-.68.56-1c.06-.16.23-.1.29-.07a.31.31,0,0,1,.17.23,2.53,2.53,0,0,1-.27,1A8.62,8.62,0,0,1,259.38,90.2Z" transform="translate(83.59)"/><path class="cls-4" d="M271.45,93.56a2.91,2.91,0,0,1-1.6-1.37,16.43,16.43,0,0,1-.65-5.91,19.87,19.87,0,0,1-2.41,5.35A9.29,9.29,0,0,1,264.37,94a2.17,2.17,0,0,1-2.38-.16,3.45,3.45,0,0,1-.81-2.54c0-1.31.16-2.58.26-3.85a35.29,35.29,0,0,0,.16-5.55c.52-.36.95.16,1.08.49a29.35,29.35,0,0,1-.17,5.15,32.54,32.54,0,0,0-.19,4.41,1.35,1.35,0,0,0,.88,1.17,2,2,0,0,0,1.57-.62,7.19,7.19,0,0,0,.81-.91c.23-.33.46-.69.69-1a13.46,13.46,0,0,0,1.56-3.13c.56-1.4.95-2.91,1.4-4.37a.24.24,0,0,0,.07-.13c.1-.17.2-.36.42-.36a.48.48,0,0,1,.56.39c-.07,1.43-.16,3.13-.13,4.66a13,13,0,0,0,.45,3.79,3.36,3.36,0,0,0,1.18,1.63c.13.1,0,.26,0,.33A.55.55,0,0,1,271.45,93.56Z" transform="translate(83.59)"/><path class="cls-4" d="M280.78,89.45c-.19-1.18-.16-2.42-.29-3.66A28.59,28.59,0,0,1,277.1,93a3,3,0,0,1-2.52,1.53,2.35,2.35,0,0,1-1.76-1.17,8.71,8.71,0,0,1-.32-4.28,12.9,12.9,0,0,1,1.92-5c.69-1.11,1.8-2.19,3.17-2.09a2.91,2.91,0,0,1,2.05,1,2.78,2.78,0,0,1,.49,1.08,6.85,6.85,0,0,0,.39-2.06c.07-1,.07-2,.2-3.06s.26-2,.39-3a17.15,17.15,0,0,1,.59-2.9c.36-.55.94,0,.91.33-.36,2.77-.91,5.45-1,8.28a37,37,0,0,0,.49,8.94,4.66,4.66,0,0,0,.39,1,2.94,2.94,0,0,1,.13.39.69.69,0,0,1-.85-.16A5.11,5.11,0,0,1,280.78,89.45Zm-1.89-5.52a1.63,1.63,0,0,0-1-.78,1.46,1.46,0,0,0-1.27.16,8.36,8.36,0,0,0-1.5,1.76,14.46,14.46,0,0,0-1.6,4.7c0,.43,0,.88,0,1.34a3.85,3.85,0,0,0,.19,1.27,1.47,1.47,0,0,0,.75,1c.62.19,1.14-.16,1.6-.72a21.65,21.65,0,0,0,3.3-6.36.57.57,0,0,1-.27-.46A4.49,4.49,0,0,0,278.89,83.93Z" transform="translate(83.59)"/><path class="cls-4" d="M290.08,94.5a2.13,2.13,0,0,1-1.37-.26,2.51,2.51,0,0,1-.81-1.66,36.54,36.54,0,0,1,0-8c-.46.85-.92,1.63-1.41,2.45a16.31,16.31,0,0,1-1.95,2.64,1.58,1.58,0,0,1-.66.33.55.55,0,0,1-.32-.1.22.22,0,0,1,0-.33A20.5,20.5,0,0,0,286,85.89c.71-1.27,1.33-2.54,2.15-3.78.16-.27.65-.13.88,0a1,1,0,0,1,.16.84c-.42,3.3-.78,7.7-.13,9.92a1,1,0,0,0,.62.56,1.56,1.56,0,0,0,1-.46,5.7,5.7,0,0,0,.88-1.08,7.22,7.22,0,0,0,.29-.72,2,2,0,0,1,.49-.71.64.64,0,0,1,.23.65l-.13.59a4.48,4.48,0,0,1-1.08,2A2.82,2.82,0,0,1,290.08,94.5Zm.82-19.28A19.46,19.46,0,0,0,286.82,74c-.33,0-.36-.68,0-.94a7.59,7.59,0,0,1,5.12,2,.94.94,0,0,1,.36.85,3.93,3.93,0,0,1-.75-.33Z" transform="translate(83.59)"/><path class="cls-4" d="M296.9,94.57a3.4,3.4,0,0,1-2.38-2,7.8,7.8,0,0,1-.1-4.89,9.94,9.94,0,0,1,2.67-4.3,5.87,5.87,0,0,1,2.58-1.6.6.6,0,0,1,.62.29,2.73,2.73,0,0,1,1.14.49,4.07,4.07,0,0,1,1.31,1.63,7.74,7.74,0,0,1,.55,4.7A8.58,8.58,0,0,1,301.24,93,4.71,4.71,0,0,1,296.9,94.57Zm2.64-11.68a2.94,2.94,0,0,1-.49.32l-.45.3a7.65,7.65,0,0,0-3,4.14,8.08,8.08,0,0,0-.16,4.24,2.27,2.27,0,0,0,1.7,1.54,3.23,3.23,0,0,0,2.87-.75A6.48,6.48,0,0,0,302.12,89a8.75,8.75,0,0,0,.06-3.46,4,4,0,0,0-1.72-2.51A.71.71,0,0,0,299.54,82.89Z" transform="translate(83.59)"/><path class="cls-4" d="M327.4,84.58a57.72,57.72,0,0,0-.78,9.53.52.52,0,0,1-.43.39.6.6,0,0,1-.68-.49,57.88,57.88,0,0,0-2.28-8.22,34,34,0,0,0-5-9.56,2.65,2.65,0,0,1-.42-.58c-2,4.69-2.35,12.59-1.89,17.45,0,.29-.36.39-.52.26a1.11,1.11,0,0,1-.49-.72l-.2-.91a53.14,53.14,0,0,1,.59-11.48,21.55,21.55,0,0,1,2.51-7c.62,0,.75.79.62,1.11l-.29.49a1.67,1.67,0,0,1,.68.43c1.7,1.63,4.37,6.95,5.38,9.85.56,1.57,1.11,3.13,1.54,4.76a56.94,56.94,0,0,1,1.5-10.08,18.25,18.25,0,0,1,2.48-5.64,3.69,3.69,0,0,1,1.76-1.5.44.44,0,0,1,.13.62,10,10,0,0,0-2,3.16A28.38,28.38,0,0,0,327.4,84.58Z" transform="translate(83.59)"/><path class="cls-4" d="M344.27,93.62a9.24,9.24,0,0,1-4.6.78,8.31,8.31,0,0,1-3.92-1.27,6.66,6.66,0,0,1-2.64-3.68,9.85,9.85,0,0,1-.06-4.77,19.54,19.54,0,0,1,3.39-7.34,19.25,19.25,0,0,1,5-4.63,1,1,0,0,1,1,.49,12.87,12.87,0,0,1,4.63,4,13.12,13.12,0,0,1,2.42,8.35,10,10,0,0,1-1.7,5A8.7,8.7,0,0,1,344.27,93.62Zm-2.78-19.7a20,20,0,0,0-4.24,4.17,17.2,17.2,0,0,0-2.87,6.14,9.57,9.57,0,0,0-.29,4.5,5.54,5.54,0,0,0,2.54,3.68,7.14,7.14,0,0,0,3.72,1,7.82,7.82,0,0,0,4.21-1.17,8.38,8.38,0,0,0,2.84-3,10,10,0,0,0,1-5.84A13.68,13.68,0,0,0,346,77.64,10.39,10.39,0,0,0,341.49,73.92Z" transform="translate(83.59)"/><path class="cls-4" d="M360.16,92.48a18.57,18.57,0,0,1-6.59,2.45c-.3,0-.72-.13-.82-.56a41.11,41.11,0,0,1-.62-10.44,29.1,29.1,0,0,1,2.28-9.65,4.47,4.47,0,0,0-.58.35l-.72.66c-.29.13-.43-.23-.43-.43a2.2,2.2,0,0,1,1.41-1.56l.62-.3a8.85,8.85,0,0,1,4.89-.09,3.55,3.55,0,0,1,2,1.82,4.54,4.54,0,0,1-.1,3.75,9.62,9.62,0,0,1-2.45,3,8.45,8.45,0,0,1,3.33.16,4.14,4.14,0,0,1,2.35,1.89,4.73,4.73,0,0,1-.1,4.34A15.64,15.64,0,0,1,360.16,92.48Zm1-10A8.19,8.19,0,0,0,355.56,84c-.62.45-1.11-.43-.79-.82.49-.32,1-.59,1.5-.88a9.48,9.48,0,0,0,1.41-.91,11.49,11.49,0,0,0,2.64-2.94,4.1,4.1,0,0,0,.42-2.77,2.44,2.44,0,0,0-1.43-1.7,8.94,8.94,0,0,0-3.62-.13,30.75,30.75,0,0,0-2.42,10.34,39.92,39.92,0,0,0,.52,9.66,18.46,18.46,0,0,0,5.62-2.19,12.33,12.33,0,0,0,4.46-5,3.11,3.11,0,0,0-.22-2.74A3.63,3.63,0,0,0,361.2,82.53Z" transform="translate(83.59)"/><path class="cls-4" d="M378.23,83.15c0-.78.06-1.57.06-2.35a58.45,58.45,0,0,1-2.08,5.74,36.93,36.93,0,0,1-3.14,5.65,6.05,6.05,0,0,1-1.76,1.69,3.09,3.09,0,0,1-2.12.46,3.36,3.36,0,0,1-2-2.28c-.29-1-.39-2.09-.65-3.07a39.92,39.92,0,0,1-.1-7.41,29.29,29.29,0,0,1,1.79-8.22,1.58,1.58,0,0,1,.66-.72.46.46,0,0,1,.55.33,4.26,4.26,0,0,1-.33,1.11,9.09,9.09,0,0,0-.35,1.08A36.77,36.77,0,0,0,367.53,82a37.76,37.76,0,0,0,.06,6.29,15.76,15.76,0,0,0,.79,3.79,2,2,0,0,0,1,1.17,2.14,2.14,0,0,0,1.83-.55,9,9,0,0,0,.85-.89l.68-.94a29,29,0,0,0,3-5.48,70.79,70.79,0,0,0,2.9-8.61.61.61,0,0,1,.56-.3.7.7,0,0,1,.49.49,52,52,0,0,0-.33,7.54,28.88,28.88,0,0,0,.91,6.39c.07.29-.29.29-.35.2-1.21-1.44-1.28-3.2-1.54-5A18.12,18.12,0,0,1,378.23,83.15Z" transform="translate(83.59)"/><path class="cls-4" d="M386.71,88.17a.36.36,0,0,1-.52-.09,1.84,1.84,0,0,1,.06-1c.07-.29.17-.52.26-.82,1.11-2,2.48-3.94,3.69-5.9a3.92,3.92,0,0,0,.49-2.25,3,3,0,0,0-.65-1.67,6.29,6.29,0,0,0-2.84-2.08,4.17,4.17,0,0,0-2.28-.17,2.83,2.83,0,0,0-1.44.75,3.4,3.4,0,0,0-1,1.44.41.41,0,0,1-.65-.13,2.1,2.1,0,0,1,.2-1.18,4.31,4.31,0,0,1,2.25-1.92,4.93,4.93,0,0,1,2.38-.2,6.45,6.45,0,0,1,2.58,1.11,7.12,7.12,0,0,1,2,2.16,4.22,4.22,0,0,1,.59,2.38,3.75,3.75,0,0,1-.46,1.89C389.88,83.05,388.11,85.53,386.71,88.17Zm.26,5.91a5,5,0,0,1-1.89-1.6,1.09,1.09,0,0,1-.1-.78.4.4,0,0,1,.59-.3l.78.85a6.38,6.38,0,0,0,3.46,1.86c.1.23-.26.46-.49.52A5.27,5.27,0,0,1,387,94.08Z" transform="translate(83.59)"/><line class="cls-5" y1="73" x2="640" y2="73"/></g></g></svg>