<svg xmlns="http://www.w3.org/2000/svg" viewBox="0 0 225.52 173.23"><defs><style>.cls-1{fill:#4b4b4b;}.cls-2{fill:none;stroke:#231815;}</style></defs><g id="レイヤー_2" data-name="レイヤー 2"><g id="レイヤー_1-2" data-name="レイヤー 1"><path class="cls-1" d="M171.58,153.4c-1.8-2.1-6-10.5-6-10.5s.7-.9,0-3.91c-.9-3.9-4.8-3.6-5.7-4.5s-8.7-15.15-9.3-16.8-7.21-20.41-7.21-20.41c-2.22-9.75-6.3-13.81-11.7-15s-8.26-.9-10.66-3C119.51,78,119.57,77,119.57,73a17.33,17.33,0,0,0,2.79-3.66,23.53,23.53,0,0,0,2-5.94c1.36-.55,1.37-1.22,2-3.37.8-3,.75-5-1.41-5,.51-9.69-4.36-14.64-12.16-14.64s-12.67,5-12.15,14.64c-2.17,0-2.23,2-1.41,5,.58,2.15.6,2.83,1.94,3.37a23.75,23.75,0,0,0,2,5.94A17.18,17.18,0,0,0,106,73c0,4,0,4.93-1.45,6.24-2.4,2.1-5.31,1.82-10.66,3s-9.48,5.26-11.7,15c0,0-6.6,18.75-7.2,20.41s-8.41,15.9-9.31,16.8-4.8.6-5.7,4.5c-.69,3,0,3.91,0,3.91s-4.2,8.4-6,10.5,1.5,3.6,3.6.9a3.29,3.29,0,0,0,2,.76c-7.32,8.1-3.15,18.66,8.19,18.15,9.29-.42,45-6.9,45-6.9s35.72,6.48,45,6.9c11.33.51,15.5-10.05,8.18-18.15a3.26,3.26,0,0,0,2-.76C170.08,157,173.38,155.5,171.58,153.4ZM93.85,140s-15.37,4.58-24.95,8.88c2-3.67,4.24-8.67,4.24-8.67l9.61-13.8,7.65-16.66s2.41,9,3.15,10.36S93.85,140,93.85,140Zm37.82,0s-.45-18.54.3-19.89,3.15-10.36,3.15-10.36l7.65,16.66,9.6,13.8s2.28,5,4.25,8.67C147,144.56,131.67,140,131.67,140Z"/><path d="M11.42,31.21c0,2.39-.2,4.74-.12,7a53.74,53.74,0,0,0,.49,6,21.62,21.62,0,0,0,1.36,5c0,.24-.41.45-.75.28a3.42,3.42,0,0,1-1-1.63c-.19-.73-.3-1.44-.47-2.14a26.6,26.6,0,0,1-.58-3.82c-.08-1.22-.1-2.46-.13-3.79A19.16,19.16,0,0,1,3.39,35.4a9.83,9.83,0,0,1-2.74-3,1.33,1.33,0,0,1-.11-.85c.19-.24.42-.12.61,0a10.9,10.9,0,0,0,2.84,3A20.46,20.46,0,0,0,10.23,37c0-1.73.16-3.82.12-5.54a26.84,26.84,0,0,1,.1-4.21A1.81,1.81,0,0,1,11,26.19a.72.72,0,0,1,.52-.1c.16,0,.35.13.3.35a10,10,0,0,0-.34,2.39Z"/><path d="M33.23,37.19a9.36,9.36,0,0,1-3.81,2.71,8.24,8.24,0,0,1-4.09.55,6.67,6.67,0,0,1-4-2.17A9.74,9.74,0,0,1,19.21,34a19.53,19.53,0,0,1-.13-8.1,19.18,19.18,0,0,1,2.45-6.34,1,1,0,0,1,1.16,0,12.93,12.93,0,0,1,5.93,1.6,13.1,13.1,0,0,1,5.81,6.49,10.07,10.07,0,0,1,.66,5.27A8.77,8.77,0,0,1,33.23,37.19ZM22.15,20.62a19.78,19.78,0,0,0-2,5.61A17,17,0,0,0,20.22,33a9.55,9.55,0,0,0,1.69,4.19,5.54,5.54,0,0,0,3.9,2.22,7.21,7.21,0,0,0,3.77-.76,8,8,0,0,0,3.29-2.89,8.48,8.48,0,0,0,1.24-4,10.11,10.11,0,0,0-1.69-5.68A13.61,13.61,0,0,0,27.83,22,10.45,10.45,0,0,0,22.15,20.62Z"/><path d="M43,33.67a4.46,4.46,0,0,1-3.51-1.45A5.78,5.78,0,0,1,38.16,29c-.12-1.17,0-2.37-.18-3.54a34.37,34.37,0,0,1,.74-7.34,17.3,17.3,0,0,1,2-5.19A8.58,8.58,0,0,1,42,11.65a1.85,1.85,0,0,1,1.47-.44.38.38,0,0,1,.16.64,5.13,5.13,0,0,0-1.85,1.57,15,15,0,0,0-2.32,6.3,33.79,33.79,0,0,0-.18,9.37,3.94,3.94,0,0,0,2.28,3.19,3.86,3.86,0,0,0,3.1-.14,11.78,11.78,0,0,0,3.29-2.28c.38-.41.71-.84,1-1.26s.64-1,1-1.42c.13-.11.36.15.32.34a12,12,0,0,1-3.49,4.7A7.67,7.67,0,0,1,43,33.67Zm11.87-5.18a.35.35,0,0,1-.51.32,2.21,2.21,0,0,1-1-1.36,30.22,30.22,0,0,1-1.94-7.9c-2.65,2.33-5.19,4.39-7.92,6.4a2.75,2.75,0,0,1-1.13.32.8.8,0,0,1-.67-.42A90,90,0,0,0,51.54,18a.68.68,0,0,1,.73.12,31.23,31.23,0,0,1,.5,3.15A39.58,39.58,0,0,0,54.89,28.49Z"/><path d="M68.83,21a7.9,7.9,0,0,1,.6,2.72c-.06.15-.06.31-.12.46a1,1,0,0,1-.32.49c-.16.17-.56,0-.55-.2a6.87,6.87,0,0,0-.72-3.19c-.59-1.34-1.44-2.58-2.06-3.87-2.58,1.27-5.07,2.75-7.54,4.23-.25,2.55-.33,5.1-.36,7.73a.75.75,0,0,1-.56.2,1,1,0,0,1-.52-.91c0-2.13.16-4.28.28-6.4a1.67,1.67,0,0,1-.39.06.59.59,0,0,1-.47-.28.7.7,0,0,1,.23-.7l.45-.24c.11-.1.23-.16.31-.25a106.45,106.45,0,0,1,1.7-14.61c.1-.43.62-.36.85-.25a.8.8,0,0,1,.19.5l0,.41c2.23,2.92,4.38,5.92,6.36,9,.48-.22,1.39-.64,2.15-1,.16,0,.24.41.15.47a9.26,9.26,0,0,1-1.78,1.37C67.28,18.26,68.21,19.58,68.83,21Zm-10.62-.79c2.27-1.3,4.48-2.58,6.86-3.73a78.22,78.22,0,0,0-5.5-8A113.63,113.63,0,0,0,58.21,20.25Z"/><path d="M81.56,24.09a2.14,2.14,0,0,1-1.22-.79,3.53,3.53,0,0,1-.16-1.47,1.44,1.44,0,0,1,.38-.84.42.42,0,0,1,.25-.1.24.24,0,0,1,.22.17c0,.39,0,.9,0,1.32s.17.57.51.62a3.61,3.61,0,0,0,1.78-.24,8.36,8.36,0,0,0,4-2.44.57.57,0,0,0,0-.6A2.55,2.55,0,0,0,86,19.37c-.93-.1-1.89-.08-2.85-.11A5.62,5.62,0,0,1,81,18.92a1.84,1.84,0,0,1-.88-1.9,11.19,11.19,0,0,1,2.12-4.6A4.61,4.61,0,0,1,84.43,11a2,2,0,0,1,1.18.2,1.75,1.75,0,0,1,.88,1.14.59.59,0,0,1-.36.54c-.18-.14-.3-.29-.45-.4a1.89,1.89,0,0,0-.47-.3.91.91,0,0,0-.67-.11,1.36,1.36,0,0,0-.8.44,9,9,0,0,0-1.89,2.89,8.17,8.17,0,0,0-.54,1.88.55.55,0,0,0,.21.6,1.66,1.66,0,0,0,.93.27l2.39.08a14,14,0,0,1,2.33.22,1.86,1.86,0,0,1,1.23.82,1.38,1.38,0,0,1,.12,1.14A6.64,6.64,0,0,1,85.61,23,8.55,8.55,0,0,1,81.56,24.09Z"/><path d="M102.66,17.71c-1.09,2.37-3.09,4.59-6.12,4.79a3.18,3.18,0,0,1-2.85-1.69A31.2,31.2,0,0,1,92.62,12c-1,.3-1.87.73-2.86,1.1a1.12,1.12,0,0,1-1.09-.54.42.42,0,0,1,.42-.52,1.24,1.24,0,0,0,.68-.12c.7-.25,2.13-.82,2.83-1.1l.17-5.09a2.28,2.28,0,0,1,.17-.83.57.57,0,0,1,.87-.23,2.09,2.09,0,0,1,.66.57l.18.18a4.1,4.1,0,0,1,.5.59,3.19,3.19,0,0,1,.45.75c-.62,0-.87-.33-1.32-.62A.92.92,0,0,0,94,5.91a2.08,2.08,0,0,0-.12.57V7.69c0,1-.07,2-.12,2.7.74-.12,1.55-.35,2.32-.5a5.83,5.83,0,0,1,2.39,0c.28.18.11.58-.07.69-.65.09-1.5.22-2.34.38a12.76,12.76,0,0,0-2.31.63,34.2,34.2,0,0,0,.83,8.33,2,2,0,0,0,1.85,1.46,6.13,6.13,0,0,0,5.39-3.62l.58-1.09c.16-.37.34-.71.47-1.08,0-.17.22-.12.29-.09a.32.32,0,0,1,.18.21,2.76,2.76,0,0,1-.18,1C103,17.09,102.81,17.43,102.66,17.71Z"/><path d="M114.85,20.86a2.78,2.78,0,0,1-1.62-1.35,16,16,0,0,1-.75-5.9,20.11,20.11,0,0,1-2.33,5.4,9.31,9.31,0,0,1-2.38,2.43,2.19,2.19,0,0,1-2.39-.13,3.49,3.49,0,0,1-.86-2.53c0-1.31.12-2.59.2-3.86a35.52,35.52,0,0,0,.07-5.56c.52-.37.95.15,1.08.47A29.68,29.68,0,0,1,105.8,15a32.49,32.49,0,0,0-.12,4.41,1.33,1.33,0,0,0,.9,1.16,2,2,0,0,0,1.56-.64,8.12,8.12,0,0,0,.8-.93c.22-.33.44-.7.67-1a13.21,13.21,0,0,0,1.51-3.17c.54-1.41.9-2.92,1.34-4.4a.25.25,0,0,0,.06-.13c.09-.17.19-.36.42-.37a.49.49,0,0,1,.56.39c0,1.43-.11,3.14,0,4.67a12.55,12.55,0,0,0,.52,3.78,3.37,3.37,0,0,0,1.2,1.62c.13.09,0,.26,0,.32A.5.5,0,0,1,114.85,20.86Z"/><path d="M124.2,17.05c-.15-1.18-.07-2.42-.16-3.67a28.57,28.57,0,0,1-3.65,7.07,3,3,0,0,1-2.57,1.45,2.36,2.36,0,0,1-1.72-1.24,8.82,8.82,0,0,1-.18-4.29,13,13,0,0,1,2.1-4.89c.73-1.09,1.88-2.13,3.24-2a2.92,2.92,0,0,1,2,1.11,2.81,2.81,0,0,1,.46,1.1,7.13,7.13,0,0,0,.46-2.05c.1-1,.14-2,.3-3.06s.34-2,.5-3a16.88,16.88,0,0,1,.69-2.89c.38-.54,1,0,.9.36-.45,2.77-1.1,5.42-1.3,8.26a37.33,37.33,0,0,0,.18,9,4.88,4.88,0,0,0,.36,1,2,2,0,0,1,.11.4.69.69,0,0,1-.84-.2A5.18,5.18,0,0,1,124.2,17.05Zm-1.7-5.58a1.61,1.61,0,0,0-1-.82,1.44,1.44,0,0,0-1.28.12,8.34,8.34,0,0,0-1.57,1.71,14.92,14.92,0,0,0-1.76,4.65c0,.42-.06.88-.08,1.33a4,4,0,0,0,.15,1.28,1.51,1.51,0,0,0,.72,1c.61.21,1.15-.13,1.63-.67a21.55,21.55,0,0,0,3.52-6.25.57.57,0,0,1-.25-.47A4.49,4.49,0,0,0,122.5,11.47Z"/><path d="M133.13,22.78a2.13,2.13,0,0,1-1.34-.38,2.6,2.6,0,0,1-.68-1.73,36.49,36.49,0,0,1,.68-8c-.53.81-1,1.55-1.61,2.33A16.56,16.56,0,0,1,128,17.46a1.5,1.5,0,0,1-.68.27.66.66,0,0,1-.32-.12.23.23,0,0,1,0-.33,20.71,20.71,0,0,0,2.82-3.44c.82-1.21,1.55-2.43,2.47-3.6.18-.24.66-.07.87.08a1,1,0,0,1,.1.86c-.7,3.25-1.43,7.62-1,9.89a.94.94,0,0,0,.58.6A1.49,1.49,0,0,0,134,21.3a5.4,5.4,0,0,0,1-1,6.38,6.38,0,0,0,.35-.69,1.85,1.85,0,0,1,.55-.67.63.63,0,0,1,.17.67l-.18.57a4.54,4.54,0,0,1-1.24,1.87A2.87,2.87,0,0,1,133.13,22.78ZM135.57,3.6a19.34,19.34,0,0,0-4-1.58c-.32-.06-.3-.71.05-.95a7.64,7.64,0,0,1,4.94,2.45.94.94,0,0,1,.29.88,4.31,4.31,0,0,1-.73-.39Z"/><path d="M139.74,23.56a3.4,3.4,0,0,1-2.09-2.33,7.9,7.9,0,0,1,.55-4.87,10,10,0,0,1,3.23-3.92,5.79,5.79,0,0,1,2.77-1.24.59.59,0,0,1,.57.37,2.69,2.69,0,0,1,1.07.64A4.09,4.09,0,0,1,146.92,14a7.75,7.75,0,0,1-.07,4.74,8.58,8.58,0,0,1-2.59,3.84A4.71,4.71,0,0,1,139.74,23.56Zm4.18-11.25a3.69,3.69,0,0,1-.53.26l-.49.23a7.59,7.59,0,0,0-3.53,3.72,8,8,0,0,0-.73,4.19,2.28,2.28,0,0,0,1.48,1.75,3.22,3.22,0,0,0,2.95-.37,6.4,6.4,0,0,0,2.59-3.34,8.84,8.84,0,0,0,.53-3.43,4,4,0,0,0-1.39-2.72A.7.7,0,0,0,143.92,12.31Z"/><path d="M171.73,19.77a56.85,56.85,0,0,0-3.13,9.05.52.52,0,0,1-.51.27.61.61,0,0,1-.54-.64,56.55,56.55,0,0,0-.17-8.55,33.86,33.86,0,0,0-2.47-10.52,2.47,2.47,0,0,1-.27-.67c-3.13,4.06-5.41,11.64-6.17,16.47,0,.29-.45.29-.57.12a1.15,1.15,0,0,1-.3-.82l0-.93a53.36,53.36,0,0,1,3.42-11,21.54,21.54,0,0,1,4.18-6.15c.61.12.53.94.32,1.23l-.4.4a1.63,1.63,0,0,1,.55.58c1.25,2,2.52,7.83,2.78,10.9.15,1.66.3,3.32.3,5a58.18,58.18,0,0,1,4-9.41,18.18,18.18,0,0,1,3.8-4.87,3.78,3.78,0,0,1,2.09-1,.43.43,0,0,1,0,.63,10.25,10.25,0,0,0-2.75,2.57A28.42,28.42,0,0,0,171.73,19.77Z"/><path d="M185.21,33.88a9.41,9.41,0,0,1-4.59-.86,8.37,8.37,0,0,1-3.24-2.56,6.79,6.79,0,0,1-1.2-4.39,9.9,9.9,0,0,1,1.6-4.49,19.6,19.6,0,0,1,5.75-5.72,19.17,19.17,0,0,1,6.27-2.62,1,1,0,0,1,.81.82,12.78,12.78,0,0,1,2.95,5.39,13.11,13.11,0,0,1-.64,8.68,10,10,0,0,1-3.34,4.13A8.68,8.68,0,0,1,185.21,33.88Zm4.26-19.47A19.85,19.85,0,0,0,184,16.85a17.1,17.1,0,0,0-4.83,4.76,9.7,9.7,0,0,0-1.85,4.13,5.61,5.61,0,0,0,1.11,4.35,7.12,7.12,0,0,0,3.16,2.18,7.89,7.89,0,0,0,4.37.37,8.55,8.55,0,0,0,3.72-1.86,10.05,10.05,0,0,0,2.92-5.16,13.48,13.48,0,0,0-.23-6.15A10.33,10.33,0,0,0,189.47,14.41Z"/><path d="M199.93,39.3a18.46,18.46,0,0,1-7-.75.83.83,0,0,1-.48-.86,41,41,0,0,1,4.1-9.64,29.11,29.11,0,0,1,6.36-7.64,5.36,5.36,0,0,0-.68.06l-.94.27c-.32,0-.28-.4-.19-.57a2.18,2.18,0,0,1,2-.78h.68a8.88,8.88,0,0,1,4.43,2.1,3.53,3.53,0,0,1,.94,2.51,4.53,4.53,0,0,1-1.76,3.32,9.61,9.61,0,0,1-3.53,1.6,8.85,8.85,0,0,1,2.91,1.63A4.19,4.19,0,0,1,208,33.31a4.74,4.74,0,0,1-2,3.84A15.67,15.67,0,0,1,199.93,39.3Zm5.38-8.46a7.65,7.65,0,0,0-3.43-1.23,7.32,7.32,0,0,0-2.28,0c-.76.13-.81-.88-.34-1.08s1.14-.09,1.74-.12a8.77,8.77,0,0,0,1.66-.2,11,11,0,0,0,3.68-1.45,4,4,0,0,0,1.62-2.3,2.43,2.43,0,0,0-.53-2.16,8.94,8.94,0,0,0-3.19-1.73,31.06,31.06,0,0,0-6.78,8.19,39.71,39.71,0,0,0-3.84,8.9,18.63,18.63,0,0,0,6,.54,12.39,12.39,0,0,0,6.25-2.51,3.11,3.11,0,0,0,1-2.56A3.59,3.59,0,0,0,205.31,30.84Z"/><path d="M220.38,40.63c.43-.65.91-1.28,1.33-1.94a57.28,57.28,0,0,1-4.87,3.7,37.94,37.94,0,0,1-5.7,3.06,6.43,6.43,0,0,1-2.41.47,3.11,3.11,0,0,1-2-.77,3.38,3.38,0,0,1-.47-3c.29-1,.81-2,1.12-2.93a39.81,39.81,0,0,1,3.94-6.29,29,29,0,0,1,6-5.95,1.53,1.53,0,0,1,.94-.25.46.46,0,0,1,.29.57,5,5,0,0,1-.88.76,11.06,11.06,0,0,0-.89.71A38.38,38.38,0,0,0,212,33.84a36,36,0,0,0-3.36,5.34,15.85,15.85,0,0,0-1.4,3.61,2.05,2.05,0,0,0,.24,1.55,2.14,2.14,0,0,0,1.84.53,7.32,7.32,0,0,0,1.19-.28l1.1-.43a28.56,28.56,0,0,0,5.47-3,71.17,71.17,0,0,0,7.12-5.68.63.63,0,0,1,.63.05.68.68,0,0,1,.14.68,51.94,51.94,0,0,0-4.36,6.17,28.32,28.32,0,0,0-2.7,5.88c-.11.28-.41.09-.41,0-.24-1.86.66-3.38,1.4-5A18.77,18.77,0,0,1,220.38,40.63Z"/><path class="cls-2" d="M11.42,31.21c0,2.39-.2,4.74-.12,7a53.74,53.74,0,0,0,.49,6,21.62,21.62,0,0,0,1.36,5c0,.24-.41.45-.75.28a3.42,3.42,0,0,1-1-1.63c-.19-.73-.3-1.44-.47-2.14a26.6,26.6,0,0,1-.58-3.82c-.08-1.22-.1-2.46-.13-3.79A19.16,19.16,0,0,1,3.39,35.4a9.83,9.83,0,0,1-2.74-3,1.33,1.33,0,0,1-.11-.85c.19-.24.42-.12.61,0a10.9,10.9,0,0,0,2.84,3A20.46,20.46,0,0,0,10.23,37c0-1.73.16-3.82.12-5.54a26.84,26.84,0,0,1,.1-4.21A1.81,1.81,0,0,1,11,26.19a.72.72,0,0,1,.52-.1c.16,0,.35.13.3.35a10,10,0,0,0-.34,2.39Z"/><path class="cls-2" d="M33.23,37.19a9.36,9.36,0,0,1-3.81,2.71,8.24,8.24,0,0,1-4.09.55,6.67,6.67,0,0,1-4-2.17A9.74,9.74,0,0,1,19.21,34a19.53,19.53,0,0,1-.13-8.1,19.18,19.18,0,0,1,2.45-6.34,1,1,0,0,1,1.16,0,12.93,12.93,0,0,1,5.93,1.6,13.1,13.1,0,0,1,5.81,6.49,10.07,10.07,0,0,1,.66,5.27A8.77,8.77,0,0,1,33.23,37.19ZM22.15,20.62a19.78,19.78,0,0,0-2,5.61A17,17,0,0,0,20.22,33a9.55,9.55,0,0,0,1.69,4.19,5.54,5.54,0,0,0,3.9,2.22,7.21,7.21,0,0,0,3.77-.76,8,8,0,0,0,3.29-2.89,8.48,8.48,0,0,0,1.24-4,10.11,10.11,0,0,0-1.69-5.68A13.61,13.61,0,0,0,27.83,22,10.45,10.45,0,0,0,22.15,20.62Z"/><path class="cls-2" d="M43,33.67a4.46,4.46,0,0,1-3.51-1.45A5.78,5.78,0,0,1,38.16,29c-.12-1.17,0-2.37-.18-3.54a34.37,34.37,0,0,1,.74-7.34,17.3,17.3,0,0,1,2-5.19A8.58,8.58,0,0,1,42,11.65a1.85,1.85,0,0,1,1.47-.44.38.38,0,0,1,.16.64,5.13,5.13,0,0,0-1.85,1.57,15,15,0,0,0-2.32,6.3,33.79,33.79,0,0,0-.18,9.37,3.94,3.94,0,0,0,2.28,3.19,3.86,3.86,0,0,0,3.1-.14,11.78,11.78,0,0,0,3.29-2.28c.38-.41.71-.84,1-1.26s.64-1,1-1.42c.13-.11.36.15.32.34a12,12,0,0,1-3.49,4.7A7.67,7.67,0,0,1,43,33.67Zm11.87-5.18a.35.35,0,0,1-.51.32,2.21,2.21,0,0,1-1-1.36,30.22,30.22,0,0,1-1.94-7.9c-2.65,2.33-5.19,4.39-7.92,6.4a2.75,2.75,0,0,1-1.13.32.8.8,0,0,1-.67-.42A90,90,0,0,0,51.54,18a.68.68,0,0,1,.73.12,31.23,31.23,0,0,1,.5,3.15A39.58,39.58,0,0,0,54.89,28.49Z"/><path class="cls-2" d="M68.83,21a7.9,7.9,0,0,1,.6,2.72c-.06.15-.06.31-.12.46a1,1,0,0,1-.32.49c-.16.17-.56,0-.55-.2a6.87,6.87,0,0,0-.72-3.19c-.59-1.34-1.44-2.58-2.06-3.87-2.58,1.27-5.07,2.75-7.54,4.23-.25,2.55-.33,5.1-.36,7.73a.75.75,0,0,1-.56.2,1,1,0,0,1-.52-.91c0-2.13.16-4.28.28-6.4a1.67,1.67,0,0,1-.39.06.59.59,0,0,1-.47-.28.7.7,0,0,1,.23-.7l.45-.24c.11-.1.23-.16.31-.25a106.45,106.45,0,0,1,1.7-14.61c.1-.43.62-.36.85-.25a.8.8,0,0,1,.19.5l0,.41c2.23,2.92,4.38,5.92,6.36,9,.48-.22,1.39-.64,2.15-1,.16,0,.24.41.15.47a9.26,9.26,0,0,1-1.78,1.37C67.28,18.26,68.21,19.58,68.83,21Zm-10.62-.79c2.27-1.3,4.48-2.58,6.86-3.73a78.22,78.22,0,0,0-5.5-8A113.63,113.63,0,0,0,58.21,20.25Z"/><path class="cls-2" d="M81.56,24.09a2.14,2.14,0,0,1-1.22-.79,3.53,3.53,0,0,1-.16-1.47,1.44,1.44,0,0,1,.38-.84.42.42,0,0,1,.25-.1.24.24,0,0,1,.22.17c0,.39,0,.9,0,1.32s.17.57.51.62a3.61,3.61,0,0,0,1.78-.24,8.36,8.36,0,0,0,4-2.44.57.57,0,0,0,0-.6A2.55,2.55,0,0,0,86,19.37c-.93-.1-1.89-.08-2.85-.11A5.62,5.62,0,0,1,81,18.92a1.84,1.84,0,0,1-.88-1.9,11.19,11.19,0,0,1,2.12-4.6A4.61,4.61,0,0,1,84.43,11a2,2,0,0,1,1.18.2,1.75,1.75,0,0,1,.88,1.14.59.59,0,0,1-.36.54c-.18-.14-.3-.29-.45-.4a1.89,1.89,0,0,0-.47-.3.91.91,0,0,0-.67-.11,1.36,1.36,0,0,0-.8.44,9,9,0,0,0-1.89,2.89,8.17,8.17,0,0,0-.54,1.88.55.55,0,0,0,.21.6,1.66,1.66,0,0,0,.93.27l2.39.08a14,14,0,0,1,2.33.22,1.86,1.86,0,0,1,1.23.82,1.38,1.38,0,0,1,.12,1.14A6.64,6.64,0,0,1,85.61,23,8.55,8.55,0,0,1,81.56,24.09Z"/><path class="cls-2" d="M102.66,17.71c-1.09,2.37-3.09,4.59-6.12,4.79a3.18,3.18,0,0,1-2.85-1.69A31.2,31.2,0,0,1,92.62,12c-1,.3-1.87.73-2.86,1.1a1.12,1.12,0,0,1-1.09-.54.42.42,0,0,1,.42-.52,1.24,1.24,0,0,0,.68-.12c.7-.25,2.13-.82,2.83-1.1l.17-5.09a2.28,2.28,0,0,1,.17-.83.57.57,0,0,1,.87-.23,2.09,2.09,0,0,1,.66.57l.18.18a4.1,4.1,0,0,1,.5.59,3.19,3.19,0,0,1,.45.75c-.62,0-.87-.33-1.32-.62A.92.92,0,0,0,94,5.91a2.08,2.08,0,0,0-.12.57V7.69c0,1-.07,2-.12,2.7.74-.12,1.55-.35,2.32-.5a5.83,5.83,0,0,1,2.39,0c.28.18.11.58-.07.69-.65.09-1.5.22-2.34.38a12.76,12.76,0,0,0-2.31.63,34.2,34.2,0,0,0,.83,8.33,2,2,0,0,0,1.85,1.46,6.13,6.13,0,0,0,5.39-3.62l.58-1.09c.16-.37.34-.71.47-1.08,0-.17.22-.12.29-.09a.32.32,0,0,1,.18.21,2.76,2.76,0,0,1-.18,1C103,17.09,102.81,17.43,102.66,17.71Z"/><path class="cls-2" d="M114.85,20.86a2.78,2.78,0,0,1-1.62-1.35,16,16,0,0,1-.75-5.9,20.11,20.11,0,0,1-2.33,5.4,9.31,9.31,0,0,1-2.38,2.43,2.19,2.19,0,0,1-2.39-.13,3.49,3.49,0,0,1-.86-2.53c0-1.31.12-2.59.2-3.86a35.52,35.52,0,0,0,.07-5.56c.52-.37.95.15,1.08.47A29.68,29.68,0,0,1,105.8,15a32.49,32.49,0,0,0-.12,4.41,1.33,1.33,0,0,0,.9,1.16,2,2,0,0,0,1.56-.64,8.12,8.12,0,0,0,.8-.93c.22-.33.44-.7.67-1a13.21,13.21,0,0,0,1.51-3.17c.54-1.41.9-2.92,1.34-4.4a.25.25,0,0,0,.06-.13c.09-.17.19-.36.42-.37a.49.49,0,0,1,.56.39c0,1.43-.11,3.14,0,4.67a12.55,12.55,0,0,0,.52,3.78,3.37,3.37,0,0,0,1.2,1.62c.13.09,0,.26,0,.32A.5.5,0,0,1,114.85,20.86Z"/><path class="cls-2" d="M124.2,17.05c-.15-1.18-.07-2.42-.16-3.67a28.57,28.57,0,0,1-3.65,7.07,3,3,0,0,1-2.57,1.45,2.36,2.36,0,0,1-1.72-1.24,8.82,8.82,0,0,1-.18-4.29,13,13,0,0,1,2.1-4.89c.73-1.09,1.88-2.13,3.24-2a2.92,2.92,0,0,1,2,1.11,2.81,2.81,0,0,1,.46,1.1,7.13,7.13,0,0,0,.46-2.05c.1-1,.14-2,.3-3.06s.34-2,.5-3a16.88,16.88,0,0,1,.69-2.89c.38-.54,1,0,.9.36-.45,2.77-1.1,5.42-1.3,8.26a37.33,37.33,0,0,0,.18,9,4.88,4.88,0,0,0,.36,1,2,2,0,0,1,.11.4.69.69,0,0,1-.84-.2A5.18,5.18,0,0,1,124.2,17.05Zm-1.7-5.58a1.61,1.61,0,0,0-1-.82,1.44,1.44,0,0,0-1.28.12,8.34,8.34,0,0,0-1.57,1.71,14.92,14.92,0,0,0-1.76,4.65c0,.42-.06.88-.08,1.33a4,4,0,0,0,.15,1.28,1.51,1.51,0,0,0,.72,1c.61.21,1.15-.13,1.63-.67a21.55,21.55,0,0,0,3.52-6.25.57.57,0,0,1-.25-.47A4.49,4.49,0,0,0,122.5,11.47Z"/><path class="cls-2" d="M133.13,22.78a2.13,2.13,0,0,1-1.34-.38,2.6,2.6,0,0,1-.68-1.73,36.49,36.49,0,0,1,.68-8c-.53.81-1,1.55-1.61,2.33A16.56,16.56,0,0,1,128,17.46a1.5,1.5,0,0,1-.68.27.66.66,0,0,1-.32-.12.23.23,0,0,1,0-.33,20.71,20.71,0,0,0,2.82-3.44c.82-1.21,1.55-2.43,2.47-3.6.18-.24.66-.07.87.08a1,1,0,0,1,.1.86c-.7,3.25-1.43,7.62-1,9.89a.94.94,0,0,0,.58.6A1.49,1.49,0,0,0,134,21.3a5.4,5.4,0,0,0,1-1,6.38,6.38,0,0,0,.35-.69,1.85,1.85,0,0,1,.55-.67.63.63,0,0,1,.17.67l-.18.57a4.54,4.54,0,0,1-1.24,1.87A2.87,2.87,0,0,1,133.13,22.78ZM135.57,3.6a19.34,19.34,0,0,0-4-1.58c-.32-.06-.3-.71.05-.95a7.64,7.64,0,0,1,4.94,2.45.94.94,0,0,1,.29.88,4.31,4.31,0,0,1-.73-.39Z"/><path class="cls-2" d="M139.74,23.56a3.4,3.4,0,0,1-2.09-2.33,7.9,7.9,0,0,1,.55-4.87,10,10,0,0,1,3.23-3.92,5.79,5.79,0,0,1,2.77-1.24.59.59,0,0,1,.57.37,2.69,2.69,0,0,1,1.07.64A4.09,4.09,0,0,1,146.92,14a7.75,7.75,0,0,1-.07,4.74,8.58,8.58,0,0,1-2.59,3.84A4.71,4.71,0,0,1,139.74,23.56Zm4.18-11.25a3.69,3.69,0,0,1-.53.26l-.49.23a7.59,7.59,0,0,0-3.53,3.72,8,8,0,0,0-.73,4.19,2.28,2.28,0,0,0,1.48,1.75,3.22,3.22,0,0,0,2.95-.37,6.4,6.4,0,0,0,2.59-3.34,8.84,8.84,0,0,0,.53-3.43,4,4,0,0,0-1.39-2.72A.7.7,0,0,0,143.92,12.31Z"/><path class="cls-2" d="M171.73,19.77a56.85,56.85,0,0,0-3.13,9.05.52.52,0,0,1-.51.27.61.61,0,0,1-.54-.64,56.55,56.55,0,0,0-.17-8.55,33.86,33.86,0,0,0-2.47-10.52,2.47,2.47,0,0,1-.27-.67c-3.13,4.06-5.41,11.64-6.17,16.47,0,.29-.45.29-.57.12a1.15,1.15,0,0,1-.3-.82l0-.93a53.36,53.36,0,0,1,3.42-11,21.54,21.54,0,0,1,4.18-6.15c.61.12.53.94.32,1.23l-.4.4a1.63,1.63,0,0,1,.55.58c1.25,2,2.52,7.83,2.78,10.9.15,1.66.3,3.32.3,5a58.18,58.18,0,0,1,4-9.41,18.18,18.18,0,0,1,3.8-4.87,3.78,3.78,0,0,1,2.09-1,.43.43,0,0,1,0,.63,10.25,10.25,0,0,0-2.75,2.57A28.42,28.42,0,0,0,171.73,19.77Z"/><path class="cls-2" d="M185.21,33.88a9.41,9.41,0,0,1-4.59-.86,8.37,8.37,0,0,1-3.24-2.56,6.79,6.79,0,0,1-1.2-4.39,9.9,9.9,0,0,1,1.6-4.49,19.6,19.6,0,0,1,5.75-5.72,19.17,19.17,0,0,1,6.27-2.62,1,1,0,0,1,.81.82,12.78,12.78,0,0,1,2.95,5.39,13.11,13.11,0,0,1-.64,8.68,10,10,0,0,1-3.34,4.13A8.68,8.68,0,0,1,185.21,33.88Zm4.26-19.47A19.85,19.85,0,0,0,184,16.85a17.1,17.1,0,0,0-4.83,4.76,9.7,9.7,0,0,0-1.85,4.13,5.61,5.61,0,0,0,1.11,4.35,7.12,7.12,0,0,0,3.16,2.18,7.89,7.89,0,0,0,4.37.37,8.55,8.55,0,0,0,3.72-1.86,10.05,10.05,0,0,0,2.92-5.16,13.48,13.48,0,0,0-.23-6.15A10.33,10.33,0,0,0,189.47,14.41Z"/><path class="cls-2" d="M199.93,39.3a18.46,18.46,0,0,1-7-.75.83.83,0,0,1-.48-.86,41,41,0,0,1,4.1-9.64,29.11,29.11,0,0,1,6.36-7.64,5.36,5.36,0,0,0-.68.06l-.94.27c-.32,0-.28-.4-.19-.57a2.18,2.18,0,0,1,2-.78h.68a8.88,8.88,0,0,1,4.43,2.1,3.53,3.53,0,0,1,.94,2.51,4.53,4.53,0,0,1-1.76,3.32,9.61,9.61,0,0,1-3.53,1.6,8.85,8.85,0,0,1,2.91,1.63A4.19,4.19,0,0,1,208,33.31a4.74,4.74,0,0,1-2,3.84A15.67,15.67,0,0,1,199.93,39.3Zm5.38-8.46a7.65,7.65,0,0,0-3.43-1.23,7.32,7.32,0,0,0-2.28,0c-.76.13-.81-.88-.34-1.08s1.14-.09,1.74-.12a8.77,8.77,0,0,0,1.66-.2,11,11,0,0,0,3.68-1.45,4,4,0,0,0,1.62-2.3,2.43,2.43,0,0,0-.53-2.16,8.94,8.94,0,0,0-3.19-1.73,31.06,31.06,0,0,0-6.78,8.19,39.71,39.71,0,0,0-3.84,8.9,18.63,18.63,0,0,0,6,.54,12.39,12.39,0,0,0,6.25-2.51,3.11,3.11,0,0,0,1-2.56A3.59,3.59,0,0,0,205.31,30.84Z"/><path class="cls-2" d="M220.38,40.63c.43-.65.91-1.28,1.33-1.94a57.28,57.28,0,0,1-4.87,3.7,37.94,37.94,0,0,1-5.7,3.06,6.43,6.43,0,0,1-2.41.47,3.11,3.11,0,0,1-2-.77,3.38,3.38,0,0,1-.47-3c.29-1,.81-2,1.12-2.93a39.81,39.81,0,0,1,3.94-6.29,29,29,0,0,1,6-5.95,1.53,1.53,0,0,1,.94-.25.46.46,0,0,1,.29.57,5,5,0,0,1-.88.76,11.06,11.06,0,0,0-.89.71A38.38,38.38,0,0,0,212,33.84a36,36,0,0,0-3.36,5.34,15.85,15.85,0,0,0-1.4,3.61,2.05,2.05,0,0,0,.24,1.55,2.14,2.14,0,0,0,1.84.53,7.32,7.32,0,0,0,1.19-.28l1.1-.43a28.56,28.56,0,0,0,5.47-3,71.17,71.17,0,0,0,7.12-5.68.63.63,0,0,1,.63.05.68.68,0,0,1,.14.68,51.94,51.94,0,0,0-4.36,6.17,28.32,28.32,0,0,0-2.7,5.88c-.11.28-.41.09-.41,0-.24-1.86.66-3.38,1.4-5A18.77,18.77,0,0,1,220.38,40.63Z"/></g></g></svg>